<svg id="b0225cde-a2d2-4693-8ce5-502a1e8a6144" xmlns="http://www.w3.org/2000/svg" viewBox="0 0 1077.38 752.86"><defs><style>.cls-1{fill:#3f3d56;}.cls-2{fill:#2f2e41;}.cls-3{fill:#ffb9b9;}.cls-4{opacity:0.1;isolation:isolate;}.cls-5{fill:#6c63ff;}.cls-6{fill:#5333ed;}</style></defs><title>A</title><ellipse class="cls-1" cx="719.93" cy="700.67" rx="178.04" ry="9"/><path class="cls-2" d="M653.67,453.11l16-11.11,33.11-42.62a5.8,5.8,0,0,0-1-8.14h0a5.82,5.82,0,0,0-8.15,1l-33.11,42.62Z"/><path class="cls-2" d="M796.27,48S776.18,30,749.16,63.9s-69.28,50.57-79,63.73c0,0,40.19-16.62,54-23.55s13.16-5.54,13.16-5.54-18.7,13.16-22.17,26.32-.69,24.25-6.92,37.41,119.16,9,119.16,9,12.47-21.48,9-43.65S835.07,50.73,796.27,48Z"/><path class="cls-3" d="M756.78,101.31s4.85,33.94-15.93,41.56-13.17,18-13.17,18l31.18,15.24,33.25-10.39,11.09-16.63s-18-4.16-13.16-16.63,6.23-16.62,6.23-16.62Z"/><path class="cls-4" d="M756.78,101.31s4.85,33.94-15.93,41.56-13.17,18-13.17,18l31.18,15.24,33.25-10.39,11.09-16.63s-18-4.16-13.16-16.63,6.23-16.62,6.23-16.62Z"/><path class="cls-3" d="M844.07,198.3s-4.85,63.73-3.46,66.51,0,99.06,0,99.06,9.7,52-2.77,54.74-9.7-58.2-9.7-58.2l-12.47-80.36,1.38-79.67Z"/><path class="cls-4" d="M844.07,198.3s-4.85,63.73-3.46,66.51,0,99.06,0,99.06,9.7,52-2.77,54.74-9.7-58.2-9.7-58.2l-12.47-80.36,1.38-79.67Z"/><path class="cls-3" d="M709,390.2s-22.86,86.6-22.17,128.86,9.7,101.15,9.7,101.15,1.38,25.63-.69,28.4,10.39,14.55,10.39,14.55l13.16-7.62,4.85-5.54v-4.85s-7.62-23.56-1.38-42.26,9.69-65.82,3.46-80.37l43-127.47Z"/><path class="cls-2" d="M707.59,652.08s-8.31-10.4-13.85-6.93-14.55,27-14.55,27-31.18,29.79-9,31.17,31.87-6.23,34.64-11.78,28.41-20.09,28.41-20.09-2.77-26.32-6.93-27-10.39,10.4-10.39,10.4Z"/><path class="cls-3" d="M784.49,395.74v85.91a266.3,266.3,0,0,0,2.08,31.17c2.08,15.25-11.78,128.86-11.78,128.86l1.39,20.09,17.32-1.38,2.08-17.32,24.94-76.21s8.31-46.41,4.16-63.73S846.15,375,846.15,375Z"/><path class="cls-2" d="M770.64,656.93l5.13-1.12s3.87-8.58,8.72-6.51a52.93,52.93,0,0,1,9.65,5.78l2.13,3.92s4.85,10.4,11.09,17.32,13.16,22.17,2.77,23.56-24.25,2.08-28.41-1.39-1.38-9-5.54-10.39-7.62-5.54-6.93-6.93S770.64,656.93,770.64,656.93Z"/><circle class="cls-3" cx="784.49" cy="94.38" r="33.25"/><path class="cls-5" d="M726.3,148.42l9.15-3.2s-3.61,6,15.79,9.43,39.49,4.69,48.49-6.66c0,0,3.47-1.65,8.32,3.2s7.62,3.46,7.62,3.46l-3.46,18-6.93,33.26-9,24.94-25.63-5.54-27.71-20.09-10.4-27V153.27Z"/><path class="cls-5" d="M810.82,158.12l6.93-4.85s23.55,4.15,24.94,15.24l-18,34.64a39.45,39.45,0,0,1-.7,29.79c-6.93,15.93-6.23,19.4-6.23,19.4l-4.85,20.78-88,6.93s-3.46-8.32-4.85-9.7-1.38-6.24,0-6.24,0-2.08-1.38-4.15-2.08-2.78,0-5.55-3.47-27.71-3.47-27.71v-27l-23.55-31.17S700,156,704.13,154.65s23.93-6.85,23.93-6.85l4.47,6.59,6.24,50.14,9,30.49,37.92-6.45,14.73-24.73,9.7-29.1Z"/><path class="cls-5" d="M837.15,164.35l5.54,4.16s4.85,38.79,3.46,41.57-25.63,5.54-26.32,4.15S837.15,164.35,837.15,164.35Z"/><path class="cls-3" d="M686.81,206.61s4.85,63.74,3.46,66.51,0,99.07,0,99.07-9.69,52,2.78,54.73,9.69-58.2,9.69-58.2l12.47-80.36-1.38-79.67Z"/><path class="cls-2" d="M722.84,145l6.92,45.73s-6.23,67.89-4.85,81.75l1.39,4.15s-2.77-1.38-3.46,1.39,0,11.78,0,11.78-4.16,4.15-5.55,27-18,77.6-11.77,79.68,43.64,12.47,63.73,10.39,92.14-26.33,91.45-32.56-35.33-94.22-35.33-94.22-6.24-10.39-6.24-11.78,8.32-6.93,6.24-12.47-13.16-63.74-13.16-63.74l7.62-41.56-10.4-2.78-7.62,40.19s-29.79,14.54-61,1.38l-6.93-47.11Z"/><path class="cls-5" d="M697.2,166.43l-5.54,2.08s-10.39,43.64-7.62,43.64,36,4.16,36,2.77-6.23-35.33-6.23-35.33Z"/><path class="cls-2" d="M758.17,65.28s51.26,35.33,65.12,19.4S799,54.89,799,54.89l-31.87-3.46Z"/><path class="cls-6" d="M633.31,555.38H512.41l-27.9-80.1H327.61L300,555.38H180.91l159-420h134.4ZM363,373.58h86.1l-42.9-124.2Z"/></svg>