<?xml version="1.0" encoding="iso-8859-1"?>
<!-- Generator: Adobe Illustrator 19.0.0, SVG Export Plug-In . SVG Version: 6.00 Build 0)  -->
<svg version="1.1" id="Capa_1" xmlns="http://www.w3.org/2000/svg" xmlns:xlink="http://www.w3.org/1999/xlink" x="0px" y="0px"
	 viewBox="0 0 512.034 512.034" style="enable-background:new 0 0 512.034 512.034;" xml:space="preserve">
<ellipse style="fill:#473CBA;" cx="420.858" cy="505.334" rx="68.3" ry="6.7"/>
<path style="fill:#79A1E8;" d="M151.358,412.134c-135.5,58.1-184-241.8-45.6-291c181.1-64.4,166.8-149.8,256.5-111.7
	c51.3,21.8,84.8,67.5,68.2,238.3C416.058,396.634,313.858,342.434,151.358,412.134z"/>
<rect x="299.337" y="281.176" transform="matrix(0.7071 -0.7071 0.7071 0.7071 -120.0536 315.5175)" style="fill:#F9D015;" width="43" height="43"/>
<path style="fill:#473CBA;" d="M465.958,450.634l-17.5,17.5c-10.4,10.4-27.4,10.4-37.8,0l-102-102c-10.4-10.4-10.4-27.4,0-37.8
	l17.5-17.5c10.4-10.4,27.4-10.4,37.8,0l102,102C476.458,423.234,476.458,440.134,465.958,450.634z"/>
<g>
	<path style="fill:#FFFFFF;" d="M476.158,440.434l-17.5,17.5c-10.4,10.4-27.4,10.4-37.8,0l-102-102c-10.4-10.4-10.4-27.4,0-37.8
		l17.5-17.5c10.4-10.4,27.4-10.4,37.8,0l102,102C486.658,413.034,486.658,429.934,476.158,440.434z"/>
	<path style="fill:#FFFFFF;" d="M293.758,314.534l39-39c3.3-3.3,3.3-8.7,0-12l-14-14c-3.3-3.3-8.7-3.3-12,0l-39,39
		c-3.3,3.3-3.3,8.7,0,12l14,14C285.058,317.834,290.458,317.834,293.758,314.534z"/>
</g>
<ellipse transform="matrix(0.7071 -0.7071 0.7071 0.7071 -84.2081 199.6236)" style="fill:#473CBA;" cx="198.863" cy="201.46" rx="131.899" ry="131.299"/>
<g transform="matrix(0.7071 0.7071 -0.7071 0.7071 287.49 17.651)">
	
		<ellipse transform="matrix(2.535182e-006 1 -1 2.535182e-006 245.142 110.6619)" style="fill:#F9D015;" cx="67.24" cy="177.902" rx="131.9" ry="131.3"/>
	
		<ellipse transform="matrix(2.535182e-006 1 -1 2.535182e-006 245.142 110.6619)" style="fill:#FFFFFF;" cx="67.24" cy="177.902" rx="115.9" ry="115.4"/>
	
		<ellipse transform="matrix(2.535182e-006 1 -1 2.535182e-006 245.142 110.6619)" style="fill:#D7ECF9;" cx="67.24" cy="177.902" rx="81.8" ry="81.4"/>
</g>
<rect x="358.749" y="314.777" transform="matrix(0.7071 -0.7071 0.7071 0.7071 -151.7788 392.1261)" style="fill:#7693DD;" width="77.399" height="128.999"/>
<g>
	
		<rect x="322.297" y="329.906" transform="matrix(0.7071 -0.7071 0.7071 0.7071 -136.6671 355.6691)" style="fill:#473CBA;" width="77.399" height="25.8"/>
	
		<rect x="395.342" y="402.856" transform="matrix(0.7071 -0.7071 0.7071 0.7071 -166.8561 428.6861)" style="fill:#473CBA;" width="77.399" height="25.8"/>
</g>
<g>
	<circle style="fill:#FFFFFF;" cx="455.258" cy="162.734" r="20.5"/>
	<circle style="fill:#FFFFFF;" cx="357.758" cy="65.134" r="20.5"/>
</g>
<path style="fill:#4B31AA;" d="M455.258,138.134c-3.1,0-6,0.6-8.8,1.6l-65.8-65.8c1-2.7,1.6-5.7,1.6-8.8c0-13.6-11.1-24.7-24.7-24.7
	s-24.7,11.1-24.7,24.7c0,4.2,1.1,8.1,2.9,11.6l-27.9,27.9c4.3,2.3,7.8,5.9,10.1,10.3l28-28c3.5,1.8,7.4,2.9,11.6,2.9
	c5.3,0,10.1-1.7,14.1-4.5l63.3,63.3c-2.8,4-4.5,8.9-4.5,14.1c0,13.6,11.1,24.7,24.7,24.7s24.7-11.1,24.7-24.7
	C479.958,149.134,468.858,138.134,455.258,138.134z M341.258,65.134c0-9.1,7.4-16.4,16.4-16.4c9.1,0,16.4,7.4,16.4,16.4
	c0,9.1-7.4,16.4-16.4,16.4C348.658,81.634,341.258,74.234,341.258,65.134z M455.258,179.234c-9.1,0-16.4-7.4-16.4-16.4
	s7.4-16.4,16.4-16.4s16.4,7.4,16.4,16.4C471.758,171.834,464.358,179.234,455.258,179.234z"/>
<circle style="fill:#FFFFFF;" cx="70.058" cy="352.834" r="20.5"/>
<path style="fill:#4B31AA;" d="M118.458,305.134c-4.7-1.6-8.6-4.8-11.4-8.8l-27.1,33.9c-3-1.3-6.4-2.1-9.9-2.1
	c-13.6,0-24.7,11.1-24.7,24.7c0,13.6,11.1,24.7,24.7,24.7s24.7-11.1,24.7-24.7c0-4.9-1.4-9.4-3.9-13.2L118.458,305.134z
	 M70.058,369.234c-9.1,0-16.4-7.4-16.4-16.4c0-9.1,7.4-16.4,16.4-16.4s16.4,7.4,16.4,16.4
	C86.558,361.834,79.158,369.234,70.058,369.234z"/>
<path style="fill:#E2B90E;" d="M302.558,97.834l-186.5,186.4c51.3,51.3,134.6,51.1,186-0.4S353.758,149.034,302.558,97.834z"/>
<path style="fill:#CFDDF7;" d="M291.458,107.434c45.6,45.6,45.4,119.6-0.4,165.4s-119.8,45.9-165.4,0.4L291.458,107.434z"/>
<path style="fill:#AAC4D1;" d="M151.458,248.834c31.8,31.8,83.4,31.7,115.4-0.3s32-83.6,0.3-115.4c-0.2-0.2-0.5-0.5-0.7-0.7
	l-115.7,115.7C151.058,248.334,151.258,248.634,151.458,248.834z"/>
<g>
	<path style="fill:#4B31AA;" d="M479.058,399.734l-102-102c-8.7-8.7-21.3-11.1-32.2-7.2l-10.6-10.6l1.4-1.4c4.9-4.9,4.9-12.9,0-17.8
		l-6.5-6.5c27.1-51.3,19.2-116.2-23.7-159.1c-52.8-52.8-138.8-52.6-191.9,0.4l-10.5,10.5c-25.7,25.7-39.9,59.8-39.9,96
		c-0.1,36.2,14,70.3,39.5,95.8c25.5,25.3,59.4,39.3,95.6,39.3h0.3c27.6-0.1,54-8.3,76.4-23.6l3.9,3.9c2.5,2.5,5.7,3.7,8.9,3.7
		c3.2,0,6.5-1.2,8.9-3.7l1.4-1.4l8.5,8.5l-0.9,0.8c-5.8,5.8-9,13.6-9,21.8s3.2,16,9,21.8l102,102c5.8,5.8,13.6,9,21.8,9
		c8.2,0,16-3.2,21.8-9l27.7-27.7C491.158,431.334,491.158,411.734,479.058,399.734z M464.658,397.534l-48.9,48.9l-12.4-12.4
		l48.9-48.9L464.658,397.534z M446.458,379.234l-48.9,48.9l-48.9-48.9l48.9-48.9L446.458,379.234z M379.258,312.134l12.4,12.4
		l-48.9,48.9l-12.4-12.4L379.258,312.134z M355.258,296.834c5.8,0,11.6,2.2,16,6.6l2.5,2.5l-49.5,49.5l-2.5-2.5
		c-8.8-8.8-8.8-23.2,0-32l17.5-17.5C343.658,299.034,349.458,296.834,355.258,296.834z M119.358,101.134
		c49.8-49.8,130.7-50,180.2-0.4c49.6,49.6,49.4,130.4-0.4,180.2s-130.7,50-180.2,0.4c-24-24-37.2-56-37.1-90
		C81.958,157.334,95.258,125.234,119.358,101.134z M198.558,328.934h-0.3c-33.9,0-65.8-13.2-89.7-37.1c-24-24-37.2-56-37.1-90
		c0-10.5,1.3-20.8,3.8-30.8c-1,6.7-1.5,13.5-1.6,20.3c-0.1,36.2,14,70.3,39.5,95.9c26.3,26.3,60.9,39.5,95.5,39.5
		c7.2,0,14.4-0.6,21.5-1.7C219.958,327.534,209.358,328.934,198.558,328.934z M290.858,311.634c-1.7,1.7-4.5,1.7-6.2,0l-3-3
		c3.6-2.8,7.1-5.8,10.4-9l13-12.9c7.8-7.8,14.4-16.3,19.9-25.3l4.9,4.9c1.7,1.7,1.7,4.5,0,6.2L290.858,311.634z M303.858,310.234
		l24.6-24.6l8.8,8.8c-1.3,1-2.6,2-3.8,3.2l-21.1,21.1L303.858,310.234z M413.558,465.234l-102-102c-4.3-4.3-6.6-10-6.6-16
		c0-3.3,0.7-6.4,2-9.3c0.2,7.6,3.2,15.1,9,20.9l102,102c5.8,5.8,13.3,8.8,20.9,9C430.558,473.534,420.358,472.034,413.558,465.234z
		 M473.258,437.534l-17.5,17.5c-8.8,8.8-23.2,8.8-32,0l-2.5-2.5l49.5-49.5l2.5,2.5c4.3,4.3,6.6,10,6.6,16
		S477.558,433.234,473.258,437.534z"/>
	<path style="fill:#4B31AA;" d="M208.758,310.734c-30.6,0-61.1-11.6-84.3-34.8c-22.6-22.6-35-52.6-34.9-84.6s12.6-62.1,35.3-84.8
		c46.8-46.8,122.8-47,169.4-0.4c22.6,22.6,35,52.6,34.9,84.6s-12.6,62.1-35.3,84.8C270.358,299.034,239.558,310.734,208.758,310.734
		z M209.858,79.534c-28.7,0-57.3,10.9-79.2,32.8c-21.1,21.1-32.8,49.2-32.9,79s11.5,57.8,32.5,78.8l0,0
		c21.6,21.6,50.1,32.4,78.5,32.4c28.7,0,57.3-10.9,79.2-32.8c21.1-21.1,32.8-49.2,32.9-79c0.1-29.8-11.5-57.8-32.5-78.8
		C266.758,90.334,238.258,79.534,209.858,79.534z"/>
	<path style="fill:#4B31AA;" d="M208.958,276.734c-22.8,0-44.2-8.9-60.3-25l0,0l0,0c-16.2-16.2-25-37.7-25-60.5
		c0.1-22.9,9-44.4,25.2-60.6s37.7-25.2,60.6-25.2c0.1,0,0.1,0,0.2,0c22.8,0,44.2,8.9,60.3,25c16.2,16.2,25,37.7,25,60.5
		c-0.1,22.9-9,44.4-25.2,60.6c-16.2,16.2-37.7,25.2-60.6,25.2C209.058,276.734,208.958,276.734,208.958,276.734z M209.658,113.534
		c-0.1,0-0.1,0-0.2,0c-20.7,0-40.2,8.2-54.8,22.8c-14.7,14.7-22.8,34.2-22.8,54.9s8,40.1,22.6,54.7l0,0
		c14.5,14.6,33.9,22.6,54.5,22.6c0.1,0,0.1,0,0.2,0c20.7,0,40.2-8.2,54.8-22.8c14.7-14.7,22.8-34.1,22.8-54.8
		c0-20.7-8-40.1-22.6-54.7C249.658,121.534,230.258,113.534,209.658,113.534z"/>
</g>
<circle style="fill:#F9D015;" cx="215.958" cy="194.634" r="29.4"/>
<path style="fill:#D8B212;" d="M215.958,223.934c16.2,0,29.4-13.1,29.4-29.4c0-11.1-6.2-20.8-15.3-25.7l-39.8,39.8
	C195.158,217.734,204.858,223.934,215.958,223.934z"/>
<path style="fill:#4B31AA;" d="M265.958,127.234c-4.3-3.2-10.4-2.4-13.7,2l-25.4,33.8c-3.4-1.2-7.1-1.9-11-1.9
	c-18.5,0-33.5,15-33.5,33.5c0,6.5,1.9,12.6,5.1,17.8l-27.7,37c-3.2,4.3-2.4,10.4,2,13.7c1.8,1.3,3.8,2,5.8,2c3,0,5.9-1.3,7.8-3.9
	l26.9-35.9c4.1,1.8,8.7,2.9,13.6,2.9c18.5,0,33.5-15,33.5-33.5c0-7.5-2.5-14.5-6.7-20.1l25.2-33.6
	C271.158,136.534,270.258,130.434,265.958,127.234z M215.958,219.834c-13.9,0-25.2-11.3-25.2-25.2s11.3-25.2,25.2-25.2
	s25.2,11.3,25.2,25.2S229.858,219.834,215.958,219.834z"/>
<g>
</g>
<g>
</g>
<g>
</g>
<g>
</g>
<g>
</g>
<g>
</g>
<g>
</g>
<g>
</g>
<g>
</g>
<g>
</g>
<g>
</g>
<g>
</g>
<g>
</g>
<g>
</g>
<g>
</g>
</svg>
