<svg xmlns="http://www.w3.org/2000/svg" viewBox="0 0 80 80"><path fill="#FFF" d="M32.9 19.7c-.2 0-.4 0-.6.1-.6.3-.8 1.1-.5 1.6l1.3 2.4c-3.2 1.9-5.2 5.3-5.2 9.1v.7c-.6-.7-1.5-1.1-2.5-1.1-1.8 0-3.3 1.5-3.3 3.3V46c0 1.8 1.5 3.3 3.3 3.3 1 0 1.9-.4 2.5-1.1v1.4c0 1.9 1.6 3.5 3.5 3.5h.9v4.5c0 1.8 1.5 3.3 3.3 3.3 1.8 0 3.3-1.5 3.3-3.3V53h1.5v4.5c0 1.8 1.5 3.3 3.3 3.3 1.8 0 3.3-1.5 3.3-3.3V53h.9c1.9 0 3.5-1.6 3.5-3.5v-1.4c.6.7 1.5 1.1 2.5 1.1 1.8 0 3.3-1.5 3.3-3.3V35.8c0-1.8-1.5-3.3-3.3-3.3-1 0-1.9.4-2.5 1.1V33v-.1c0-3.8-2.1-7.1-5.2-9.1l1.3-2.4c.3-.6.1-1.3-.5-1.6-.2-.1-.4-.1-.6-.1-.4 0-.8.2-1.1.6L44 22.8c-1.3-.5-2.8-.8-4.3-.8s-3 .3-4.3.8L34 20.3c-.3-.4-.7-.6-1.1-.6z"/><path fill="#A4C639" d="M25.4 33.3c-1.4 0-2.4 1.1-2.4 2.4v10.2c0 1.4 1.1 2.4 2.4 2.4s2.4-1.1 2.4-2.4V35.8c0-1.4-1-2.5-2.4-2.5zm28.5 0c-1.4 0-2.4 1.1-2.4 2.4v10.2c0 1.4 1.1 2.4 2.4 2.4s2.4-1.1 2.4-2.4V35.8c0-1.4-1.1-2.5-2.4-2.5zM35.6 44.9c-1.4 0-2.4 1.1-2.4 2.4v10.2c0 1.4 1.1 2.4 2.4 2.4 1.4 0 2.4-1.1 2.4-2.4V47.4c0-1.4-1.1-2.5-2.4-2.5zm8.1 0c-1.4 0-2.4 1.1-2.4 2.4v10.2c0 1.4 1.1 2.4 2.4 2.4 1.4 0 2.4-1.1 2.4-2.4V47.4c0-1.4-1-2.5-2.4-2.5z"/><path fill="#A4C639" d="M32.9 20.5h-.2c-.2.1-.2.3-.1.5l1.7 3.1c-3.3 1.7-5.5 5-5.5 8.7h21.8c0-3.8-2.2-7-5.5-8.7l1.7-3.1c.1-.2 0-.4-.1-.5h-.2c-.1 0-.2.1-.3.2l-1.7 3.1c-1.4-.6-3-1-4.7-1-1.7 0-3.3.4-4.7 1l-1.7-3.1c-.3-.1-.4-.2-.5-.2zm-4.1 13.2v15.8c0 1.5 1.2 2.6 2.6 2.6h16.5c1.5 0 2.6-1.2 2.6-2.6V33.7H28.8z"/><path fill="#FFF" d="M34.6 27.1c-.5 0-.9.4-.9.9s.4.9.9.9.9-.4.9-.9-.4-.9-.9-.9zm10.1 0c-.5 0-.9.4-.9.9s.4.9.9.9.9-.4.9-.9-.4-.9-.9-.9z"/></svg>