<?xml version="1.0" encoding="utf-8"?>
<!-- Generator: Adobe Illustrator 21.0.2, SVG Export Plug-In . SVG Version: 6.00 Build 0)  -->
<svg version="1.1" id="Layer_1" xmlns="http://www.w3.org/2000/svg" xmlns:xlink="http://www.w3.org/1999/xlink" x="0px" y="0px"
	 viewBox="0 0 106.9 96.4" enable-background="new 0 0 106.9 96.4" xml:space="preserve">
<g id="Pipelines">
	<g id="NL_pipeline_actions" transform="translate(-1052.000000, -1577.000000)">
		<g id="action-aws-cli" transform="translate(1052.000000, 1577.000000)">
			<polyline id="Shape" fill="#FF9900" points="39,63 25.6,58.2 25.6,38.7 39,43.3 39,63 			"/>
			<polyline id="Shape_1_" fill="#FF9900" points="41.6,63 55,58.2 55,38.7 41.6,43.3 41.6,63 			"/>
			<polyline id="Shape_2_" fill="#FF9900" points="27.4,37.2 40.9,33.4 53.4,37.4 40.9,41.7 27.4,37.2 			"/>
			<path id="AWS" d="M62.1,38h1.3l2.7,7h-1.3l-0.7-1.8h-2.8L60.7,45h-1.3L62.1,38z M61.7,42.2h2.1l-1-3h0L61.7,42.2z M66.1,38h1.2
				l1.3,5.3h0L70,38h1.3l1.4,5.3h0l1.3-5.3h1.2l-1.9,7H72l-1.4-5.3h0L69.2,45h-1.3L66.1,38z M76.8,42.6c0,0.3,0,0.5,0.1,0.7
				c0.1,0.2,0.2,0.3,0.4,0.5c0.2,0.1,0.4,0.2,0.6,0.3c0.2,0.1,0.4,0.1,0.7,0.1c0.3,0,0.5,0,0.7-0.1c0.2-0.1,0.3-0.1,0.5-0.2
				s0.2-0.2,0.3-0.3c0.1-0.1,0.1-0.3,0.1-0.4c0-0.3-0.1-0.5-0.2-0.6c-0.1-0.1-0.3-0.2-0.4-0.3c-0.2-0.1-0.5-0.2-0.9-0.3
				s-0.7-0.2-1.2-0.3c-0.3-0.1-0.5-0.2-0.7-0.3s-0.4-0.3-0.5-0.4c-0.1-0.2-0.2-0.3-0.2-0.5c0-0.2-0.1-0.4-0.1-0.5
				c0-0.4,0.1-0.7,0.2-0.9c0.1-0.3,0.3-0.5,0.6-0.6c0.2-0.2,0.5-0.3,0.8-0.4c0.3-0.1,0.6-0.1,0.9-0.1c0.4,0,0.7,0,1,0.1
				c0.3,0.1,0.6,0.2,0.9,0.4c0.2,0.2,0.4,0.4,0.6,0.7c0.1,0.3,0.2,0.6,0.2,1h-1.2c0-0.4-0.2-0.8-0.5-1c-0.3-0.2-0.6-0.3-1-0.3
				c-0.1,0-0.3,0-0.4,0c-0.1,0-0.3,0.1-0.4,0.1c-0.1,0.1-0.2,0.2-0.3,0.3c-0.1,0.1-0.1,0.3-0.1,0.4c0,0.2,0.1,0.4,0.2,0.6
				c0.2,0.1,0.4,0.2,0.6,0.3c0,0,0.1,0,0.3,0.1s0.4,0.1,0.6,0.2s0.4,0.1,0.7,0.2c0.2,0.1,0.4,0.1,0.5,0.1c0.2,0.1,0.4,0.2,0.6,0.3
				s0.3,0.3,0.4,0.4c0.1,0.2,0.2,0.3,0.3,0.5c0.1,0.2,0.1,0.4,0.1,0.5c0,0.4-0.1,0.7-0.2,1c-0.2,0.3-0.4,0.5-0.6,0.7
				s-0.6,0.3-0.9,0.4c-0.3,0.1-0.7,0.1-1,0.1c-0.4,0-0.8,0-1.1-0.1s-0.7-0.2-0.9-0.4s-0.5-0.5-0.6-0.8s-0.2-0.7-0.2-1.1H76.8z"/>
			<path id="CLI" d="M66.5,52.1h2.1c-0.1-0.6-0.2-1.1-0.5-1.5s-0.6-0.8-1-1.1c-0.4-0.3-0.8-0.5-1.3-0.7s-1-0.2-1.6-0.2
				c-0.8,0-1.5,0.1-2.1,0.4c-0.6,0.3-1.1,0.6-1.5,1.1c-0.4,0.5-0.7,1-1,1.7c-0.2,0.6-0.3,1.3-0.3,2.1c0,0.7,0.1,1.4,0.3,2
				c0.2,0.6,0.5,1.2,1,1.6s0.9,0.8,1.5,1.1c0.6,0.3,1.3,0.4,2.1,0.4c0.6,0,1.2-0.1,1.7-0.3s1-0.5,1.3-0.8c0.4-0.4,0.7-0.8,0.9-1.3
				c0.2-0.5,0.4-1.1,0.4-1.7h-2.1c-0.1,0.7-0.3,1.2-0.7,1.6c-0.4,0.4-0.9,0.6-1.6,0.6c-0.5,0-0.9-0.1-1.3-0.3s-0.6-0.4-0.8-0.8
				c-0.2-0.3-0.4-0.7-0.5-1.1c-0.1-0.4-0.1-0.8-0.1-1.2c0-0.4,0-0.9,0.1-1.3c0.1-0.4,0.3-0.8,0.5-1.1s0.5-0.6,0.8-0.8
				s0.8-0.3,1.3-0.3c0.3,0,0.5,0,0.8,0.1s0.5,0.2,0.7,0.4c0.2,0.2,0.4,0.3,0.5,0.6C66.4,51.6,66.5,51.8,66.5,52.1z M70.2,48.7v10
				h7.1v-1.9h-4.9v-8.2H70.2z M78.6,48.7v10h2.2v-10H78.6z"/>
		</g>
	</g>
</g>
</svg>
