<svg height="446" viewBox="0 0 1638 446" width="1638" xmlns="http://www.w3.org/2000/svg"><path d="m1636.465 315.573c-10.643 22.031-75.406 33.445-156.52 52.007-45.715 10.462-96.09 45.76-159.26 53.629-50.764 6.324-109.37-14.6-169.005-10.327-52.775 3.78-107.063 33.102-165.207 35.029-53.871 1.783-110.218-23.725-167.473-23.725-57.253 0-113.598 25.508-167.47 23.725-58.145-1.927-112.435-31.249-165.212-35.029-59.636-4.272-118.245 16.65-169.01 10.326-63.17-7.868-113.546-43.168-159.26-53.63-81.11-18.562-145.87-29.975-156.513-52.005h-1.535v-315.573h1638v315.573z" fill="#fff" fill-rule="evenodd"/></svg>