<svg height="189" preserveAspectRatio="none" viewBox="0 0 1600 189" width="1600" xmlns="http://www.w3.org/2000/svg" xmlns:xlink="http://www.w3.org/1999/xlink"><linearGradient id="a" x1="50%" x2="50%" y1="0%" y2="100%"><stop offset="0" stop-color="#5262fc" stop-opacity="0"/><stop offset="1" stop-color="#5262fc"/></linearGradient><path d="m293.369 576.201-293.1 173.126m274.135-151.227-247.49 151.228m309.51-179.016-282.864 179.015m254.557-149.58-227.911 149.58m226.715-136.357-200.07 136.357m258.24-164.157-231.595 164.157m271.232-180.588-244.586 180.587m215.34-145.378-188.695 145.378m188.183-130.112-161.537 130.113m249.309-187.888-222.664 187.888m229.254-179.514-202.608 179.514m200.877-162.497-174.231 162.497m181.29-152.243-154.645 152.243m193.991-174.437-167.347 174.437m148.167-134.587-121.522 134.587m149.708-145.379-123.062 145.378m139.459-142.79-112.814 142.791m117.81-124.265-91.165 124.265m127.94-149.58-101.294 149.58m107.756-130.664-81.111 130.663m116.634-159.46-89.988 159.461m100.188-144.8-73.543 144.8m82.782-124.345-56.137 124.344m71.109-112.556-44.463 112.557m82.227-164.157-55.582 164.157m75.495-173.126-48.85 173.126m61.012-152.244-34.367 152.244m58.455-187.888-31.809 187.888m46.645-177.197-20 177.197m37.249-187.888-10.603 187.888m26.645-164.164v164.164m17.646-159.467 8.999 159.466m7.247-171.868 19.399 171.87m.234-156.004 26.411 156.003m-7.12-149.583 33.765 149.583m-18.451-159.823 45.096 159.822m-17.596-130.662 44.243 130.662m-21.68-122.33 48.325 122.33m-35.924-138.592 62.568 138.593m-26.644-104.923 53.29 104.923m-69.055-169.585 95.7 169.584m-76.33-165.886 102.976 165.887m-100.591-187.888 127.236 187.888m-101.323-174.433 127.968 174.433m-95.584-154.71 122.23 154.71m-100.119-149.754 126.764 149.754m-128.54-171.869 155.185 171.87m-107.282-139.603 133.928 139.602m-123.296-147.61 149.941 147.61m-118.804-135.653 145.45 135.653m-159.327-164.773 185.972 164.772m-165.924-162.493 192.57 162.494m-201.305-183.606 227.95 183.606m-203.348-177.197 229.993 177.197m-150.846-131.05 177.49 131.05m-176.699-144.133 203.345 144.133m-249.033-187.888 275.679 187.888m-183.124-137.673 209.77 137.673m-220.81-156.605 247.455 156.605m-251.873-170.187 278.518 170.187m-186.52-125.911 213.165 125.91" fill="none" stroke="url(#a)" transform="translate(0 -561)"/></svg>