<svg id="Layer_1" data-name="Layer 1" xmlns="http://www.w3.org/2000/svg" xmlns:xlink="http://www.w3.org/1999/xlink" viewBox="0 0 555.51 497.97"><defs><style>.cls-1{fill:#11e7c4;}.cls-2,.cls-5{fill:#fff;}.cls-3{fill:url(#linear-gradient);}.cls-4{stroke:#fff;stroke-miterlimit:10;stroke-width:3px;fill:url(#linear-gradient-2);}.cls-5{opacity:0.5;isolation:isolate;}.cls-6{fill:#002b74;}.cls-7{fill:#001736;}.cls-8{fill:#ffca9b;}.cls-9{fill:#009ff0;}.cls-10{fill:#006ec5;}.cls-11{fill:#ec9b6f;}.cls-12{fill:#fdb285;}.cls-13{fill:#cedcdc;}.cls-14{fill:#a7bfeb;}.cls-15{fill:#15b1b5;}.cls-16{fill:#f7e6a1;}.cls-17{fill:#ccbe81;}.cls-18{fill:#dd2828;}.cls-19{fill:url(#linear-gradient-3);}.cls-20{fill:#00e7c3;}.cls-21{fill:#24dd24;}.cls-22{fill:#dd3737;}.cls-23{fill:#edd80f;}</style><linearGradient id="linear-gradient" x1="447.28" y1="421.98" x2="447.28" y2="-45.28" gradientTransform="matrix(0.99, 0.11, -0.11, 0.99, 98.59, 165.08)" gradientUnits="userSpaceOnUse"><stop offset="0" stop-color="#5333ed"/><stop offset="1" stop-color="#00004d"/></linearGradient><linearGradient id="linear-gradient-2" x1="482.93" y1="421.96" x2="482.93" y2="-45.3" gradientTransform="matrix(0.99, 0.11, -0.11, 0.99, 98.59, 165.08)" gradientUnits="userSpaceOnUse"><stop offset="0" stop-color="#5c30f1"/><stop offset="1" stop-color="#00004d"/></linearGradient><linearGradient id="linear-gradient-3" x1="675.95" y1="1127.46" x2="675.95" y2="1254.23" gradientTransform="matrix(1, 0, 0, -1, 0, 1394)" gradientUnits="userSpaceOnUse"><stop offset="0" stop-color="#ddeaf8" stop-opacity="0"/><stop offset="1" stop-color="#00004d"/></linearGradient></defs><title>brandmark2</title><path class="cls-1" d="M323.56,436c-8.4,9.6-8.6,9.9-18.5,2.2-7.3-5.8-14.5-11.8-21.5-18.1-13.9-12.6-48.5-47.3-36.8-59.4,5.4-5.7,15.3,1.4,20.9,1.2-9.4-20.9-36.8-28-44.1-49.7-1.7-5-2.5-10.8,2.4-15a14.31,14.31,0,0,1,11.5-3c7.2,1.2,12.9,6.4,18.1,11.4-4.4-9.8-8.7-19.6-10.5-30.2a55,55,0,0,1-.3-16.2c1.2-7.9,9.2-12.5,20.1-5.4,13.2,8.6,22.1,28.5,27.4,46.8.3-.9.7-1.7,1.1-2.6a10.72,10.72,0,0,1,18.5-1.1c10.9,16.7,13,39,14.3,59.5.3-5,7-7.3,11.3-5.2,4.5,2,7.5,6.7,8.5,11.5C351,384.34,339.86,417.64,323.56,436Z" transform="translate(-222.24 -139.77)"/><path class="cls-2" d="M260.06,270.64c-.5-1.1-2.3-.5-1.9.6a1551.65,1551.65,0,0,1,56,155.2,1,1,0,0,0,1.9-.6,1495,1495,0,0,0-56-155.2Z" transform="translate(-222.24 -139.77)"/><path class="cls-2" d="M305.26,308.44c.3-1.2-1.6-1.5-1.9-.3-4.4,15.4-8.6,30.8-12.5,46.4-.3,1.2,1.6,1.5,1.9.3,4-15.5,8.2-31,12.5-46.4Z" transform="translate(-222.24 -139.77)"/><path class="cls-2" d="M284.46,336.54a1,1,0,0,0,.9-1.7c-8.1-4.3-16.1-8.9-24.1-13.5-3.5-2.1-7.1-4.1-10.6-6.3-1-.7-4.6-2.7-4.6-2.9-.5-1.2-2.4-.5-1.9.6s2.5,2.1,3.6,2.8c3.3,2.1,6.7,4,10,6,8.8,5.2,17.7,10.3,26.7,15Z" transform="translate(-222.24 -139.77)"/><path class="cls-2" d="M334.06,377.14c.3-1.3-1.7-1.6-1.9-.3a90.54,90.54,0,0,1-19.3,40.6c-.8.9.7,2.2,1.5,1.3a96,96,0,0,0,19.7-41.6Z" transform="translate(-222.24 -139.77)"/><path class="cls-2" d="M307.56,403.74a1,1,0,0,0,.8-1.8c-14.4-6.2-26.9-15.9-39.9-24.5-1-.7-2.3.8-1.3,1.5,13.3,8.6,25.9,18.4,40.4,24.8Z" transform="translate(-222.24 -139.77)"/><path class="cls-3" d="M554.26,492.24l127.2,42.6,35.8-31.7a104,104,0,0,0,26.4-119.2l-64.4-148A103.89,103.89,0,0,0,574.06,174l-160.6,15.5a103.77,103.77,0,0,0-91.4,80.9l-34.8,157.5A104,104,0,0,0,336,539.84l65.2,38.4,36.6-49.5A104.38,104.38,0,0,1,554.26,492.24Z" transform="translate(-222.24 -139.77)"/><path class="cls-4" d="M596.46,610.14l85-75.2-127.2-42.6a103.92,103.92,0,0,0-116.4,36.6l-36.7,49.5,73.7,43.4A103.87,103.87,0,0,0,596.46,610.14Z" transform="translate(-222.24 -139.77)"/><path class="cls-5" d="M502.66,271.54a37.16,37.16,0,0,1,23.5,8.3l17.5-17.5a62.6,62.6,0,0,0-65.4-10.5,60.27,60.27,0,0,0-17,10.7l17.5,17.5A38.07,38.07,0,0,1,502.66,271.54Z" transform="translate(-222.24 -139.77)"/><path class="cls-2" d="M560.06,284.94a64.07,64.07,0,0,0-12.6-19.1L530,283.34a37.47,37.47,0,0,1,10.3,25.9,36.93,36.93,0,0,1-4,16.9l-1.8-1.4-17.2-15.5L503.86,280v43.1l17.5,17,.8,1.3a37.29,37.29,0,0,1-19.6,5.5,37.83,37.83,0,0,1-21.3-6.6l.1-.1,17.5-17v-43.1l-13.4,29.2-17.2,15.5h0a38.11,38.11,0,0,1-3.3-15.5,37.19,37.19,0,0,1,10.1-25.6l-17.5-17.5a59.59,59.59,0,0,0-12.4,18.9,62.33,62.33,0,1,0,119.7,24.3A64.06,64.06,0,0,0,560.06,284.94Z" transform="translate(-222.24 -139.77)"/><path class="cls-2" d="M478.86,280" transform="translate(-222.24 -139.77)"/><path class="cls-2" d="M480.76,281.94" transform="translate(-222.24 -139.77)"/><path class="cls-2" d="M475.16,283.54" transform="translate(-222.24 -139.77)"/><path class="cls-6" d="M441.26,453.44l-19.1-3.8v-1.9l-4.7.9-4.7-.9v1.9l-19.1,3.8s-26.3,8.3-25.1,20c1.1,10.7,31.1,13.9,48.9,8.6,17.8,5.2,47.7,2.1,48.9-8.6C467.56,461.74,441.26,453.44,441.26,453.44Z" transform="translate(-222.24 -139.77)"/><path class="cls-7" d="M466.36,473.44v-.9c-8,6.9-28,5.9-29.8-.3-2-6.7,8.7-8.7,8.7-8.7H414a75.52,75.52,0,0,0-15.9,1.8l19.5,3.3,5.7,8.6s-44.2-2.4-43.8-8.6,32.4-18.8,32.4-18.8l-18.1,3.6s-26.3,8.3-25.1,20c1.1,10.7,31.1,13.9,48.9,8.6C435.26,487.34,465.26,484.14,466.36,473.44Z" transform="translate(-222.24 -139.77)"/><path class="cls-8" d="M497.56,384l-1.3-4.1s-5-7.1-3.2-8.8,2,2.5,5.8,4.1,19.5-6.2,20.5-3.4c.9,2.4-12.6,8.2-16.7,13.3Z" transform="translate(-222.24 -139.77)"/><path class="cls-9" d="M416.46,394.74s-18.5,6.5-21,8.2c-3.8,2.6-18.7,32.7-17.2,37.1,3,8.4,28.4,12.4,28.4,12.4h32.1l5.1-40.1s29,.5,32,0c7.1-1.2,26.7-27.2,26.7-27.2s-4.5-5.6-6.4-5.2c0,0-21.3,20.7-24.3,21s-48-6.2-50.5-6.2Z" transform="translate(-222.24 -139.77)"/><path class="cls-10" d="M396.36,402.44l-1,.5c-3.8,2.6-18.7,32.7-17.2,37.1s8.9,7.4,15.7,9.5l2.3-4.8s-14.1-7.9-13.2-10.5C383.86,431.84,393.46,408.94,396.36,402.44Z" transform="translate(-222.24 -139.77)"/><ellipse class="cls-11" cx="195.21" cy="254.87" rx="5.1" ry="4.3"/><path class="cls-8" d="M436.86,377.24a2.77,2.77,0,0,0-1.8,0h0a17.5,17.5,0,0,0-35,0h0a2.78,2.78,0,0,0-1.8,0,3.32,3.32,0,0,0-1.6,4.4c.7,1.9,2.5,2.9,4.1,2.3l.6-.3a17.52,17.52,0,0,0,32.6,0l.6.3c1.6.6,3.4-.5,4.1-2.3C439.16,379.84,438.46,377.84,436.86,377.24Z" transform="translate(-222.24 -139.77)"/><path class="cls-12" d="M424.26,393a22.21,22.21,0,0,1-22.2-22.2,10.87,10.87,0,0,1,.1-1.8,17.92,17.92,0,0,0-2.1,8.3h0a2.78,2.78,0,0,0-1.8,0,3.32,3.32,0,0,0-1.6,4.4c.7,1.9,2.5,2.9,4.1,2.3l.6-.3a17.57,17.57,0,0,0,16.3,11.1,18.6,18.6,0,0,0,7.8-1.8A4.74,4.74,0,0,0,424.26,393Z" transform="translate(-222.24 -139.77)"/><path class="cls-6" d="M407.86,368.74s2.4,4.6,13.4,4.3,12.3,3.2,12.4,6.9a3.32,3.32,0,0,1,3.2-2.7s1.4-10.3-7-16.3c-12.8-9.1-23.5,1.2-23.5,1.2s-9.6,2.3-8.2,15.1c0,0,2.7-.1,3.5,1.9C401.76,379.24,402.06,371.74,407.86,368.74Z" transform="translate(-222.24 -139.77)"/><path class="cls-13" d="M444.46,418.14h-53.9a3.53,3.53,0,0,0-1.4.3,3,3,0,0,0-1.5,2.6v28.5a3.11,3.11,0,0,0,1.5,2.6,3.19,3.19,0,0,0,1.4.3h53.9a2.81,2.81,0,0,0,2.4-1.3,3,3,0,0,0,.5-1.6V421a2.79,2.79,0,0,0-.8-2A2.88,2.88,0,0,0,444.46,418.14Z" transform="translate(-222.24 -139.77)"/><path class="cls-14" d="M446.46,455.94h-57.9c-.2,0-.3,0-.4-.1a1,1,0,0,1-.5-.8v-1.6a.91.91,0,0,1,.3-.7.86.86,0,0,1,.6-.3h57.9a.71.71,0,0,1,.6.3.91.91,0,0,1,.3.7V455a1.42,1.42,0,0,1-.2.6A1.49,1.49,0,0,1,446.46,455.94Z" transform="translate(-222.24 -139.77)"/><circle class="cls-2" cx="195.21" cy="295.57" r="5.7"/><path class="cls-9" d="M417.46,482.14s4.8-1.3,8.9,4,9.8,5.3,10.2,2.5-5.7-12.5-7.8-15.2-4.4-5.7-6.1-4.4-5.1,1-5.1,1S419.66,474,417.46,482.14Z" transform="translate(-222.24 -139.77)"/><path class="cls-7" d="M423.46,370.24a15.23,15.23,0,0,1-12.9-4.6,18.7,18.7,0,0,0-8.3,4.1,23.27,23.27,0,0,1,3.1-7.1c-2.4,1-8.4,4.5-7.2,14.8,0,0,2.7-.1,3.5,1.9,0,0,.4-7.5,6.2-10.5,0,0,2.4,4.6,13.4,4.3s12.3,3.2,12.4,6.9C434.46,374.44,431.86,369.34,423.46,370.24Z" transform="translate(-222.24 -139.77)"/><path class="cls-10" d="M476,412.34c7.1-1.2,26.7-27.2,26.7-27.2s-.8-1-1.8-2c-6.6,7.5-23,26-25,26.5-2.6.7-31.4-1.3-31.4-1.3l-.5,4C443.86,412.34,473,412.84,476,412.34Z" transform="translate(-222.24 -139.77)"/><path class="cls-10" d="M426.36,486.14c4.1,5.3,9.8,5.3,10.2,2.5a4.42,4.42,0,0,0-.2-1.5,7.53,7.53,0,0,1-3,0c-3.1-.7-4.3-5.3-7.6-7.6-1.6-1.1-4.7-1.8-7.4-2.3a34.18,34.18,0,0,1-.8,4.8C417.46,482.14,422.26,480.84,426.36,486.14Z" transform="translate(-222.24 -139.77)"/><path class="cls-15" d="M570.06,521.44a8,8,0,0,0-2.3-3.8,10.21,10.21,0,0,0-3.8-2.3,12.83,12.83,0,0,0-8.4.4c-5.3,2-10.5,7.7-13.7,12.2-5.9,8.3-15.1,19.7-26.6,12.9,0,0-2.7-.2-1.1,1.3l29.2,29.2h1.4c.1-.2.3-.3.4-.4a3.61,3.61,0,0,0-.4-.5c-3.8-3.8-1.7-11.7.6-15.6,3.1-5.3,8.4-8.1,13.2-11.8,4.1-3.2,9.3-8,11.2-13A14.94,14.94,0,0,0,570.06,521.44ZM557.76,533a5.5,5.5,0,1,1,5.5-5.5A5.55,5.55,0,0,1,557.76,533Z" transform="translate(-222.24 -139.77)"/><path class="cls-16" d="M534.36,586.24l-9.5-9.5-12.1-12.2L499.26,551l-20.7,20.8a9.6,9.6,0,0,0,0,13.5l8.1-6.7c-2.9,4.9-3,11.9,4,18.9l16.2,16.2,6.8,6.8a9.6,9.6,0,0,1,0-13.5Z" transform="translate(-222.24 -139.77)"/><path class="cls-17" d="M501.76,586.44l-11.1,11.1,2.6,2.6,11.1-11.1a1.84,1.84,0,1,0-2.6-2.6Z" transform="translate(-222.24 -139.77)"/><path class="cls-17" d="M515.36,592.64,525,583l-2.6-2.6-9.6,9.6a1.87,1.87,0,0,0,0,2.6,1.66,1.66,0,0,0,1.3.5A1.46,1.46,0,0,0,515.36,592.64Z" transform="translate(-222.24 -139.77)"/><path class="cls-15" d="M532.56,590.74l-37.8-37.9,9.5-9.5,37.8,37.9Z" transform="translate(-222.24 -139.77)"/><path class="cls-18" d="M543.36,585.34,500.16,542l4.2-4.2a5.49,5.49,0,0,1,7.7,0l35.5,35.6a5.49,5.49,0,0,1,0,7.7Z" transform="translate(-222.24 -139.77)"/><path class="cls-19" d="M739.26,189.14a40.26,40.26,0,0,0-7.7.8,31.6,31.6,0,0,0-44.2-22.4,42.14,42.14,0,0,0-79.2,28.8,35.11,35.11,0,0,0,1,70.2h130a38.7,38.7,0,0,0,.1-77.4Z" transform="translate(-222.24 -139.77)"/><circle class="cls-20" cx="475.91" cy="295.57" r="8.3"/><circle class="cls-21" cx="446.61" cy="295.57" r="8.3"/><circle class="cls-22" cx="416.41" cy="295.57" r="8.3"/><circle class="cls-23" cx="386.41" cy="295.57" r="8.3"/></svg>