<svg id="b0225cde-a2d2-4693-8ce5-502a1e8a6144" xmlns="http://www.w3.org/2000/svg" viewBox="0 0 1077.38 752.86"><defs><style>.cls-1{fill:#f2f2f2;}.cls-2{fill:#3f3d56;}.cls-3{fill:#ffb9b9;}.cls-4{fill:#6c63ff;}.cls-5{fill:#ff6584;}.cls-6{opacity:0.1;isolation:isolate;}.cls-7{fill:#2f2e41;}.cls-8{fill:#5333ed;}</style></defs><title>C</title><path class="cls-1" d="M813.05,301.66C772.41,142.35,632,27.35,467.15,22.74,380,20.3,288.32,49.11,221.56,149.93c-119.35,180.22,7.33,304.76,95.65,363.94A552.22,552.22,0,0,1,431.43,616.22c59.65,70.56,174.41,158.26,311.09,20.86C841.58,537.49,840.12,407.78,813.05,301.66Z"/><ellipse class="cls-2" cx="538.58" cy="706.29" rx="455" ry="23"/><path class="cls-3" d="M765,325.73s30.24-.44,23.8,8.66-31.45,8.46-31.45,8.46Z"/><path class="cls-4" d="M671.92,213.58l30.61,41.56L729,286.76s27.42,28.6,30.48,32.55,12,2.83,10.13,8.86-4.76,16.07-7.75,17.11-17-.75-18-2.74-66.58-39-90-65.69l-22.26-15.11-.34-25.56Z"/><path class="cls-5" d="M671.92,213.58l30.61,41.56L729,286.76s27.42,28.6,30.48,32.55,12,2.83,10.13,8.86-4.76,16.07-7.75,17.11-17-.75-18-2.74-66.58-39-90-65.69l-22.26-15.11-.34-25.56Z"/><path class="cls-6" d="M671.92,213.58l30.61,41.56L729,286.76s27.42,28.6,30.48,32.55,12,2.83,10.13,8.86-4.76,16.07-7.75,17.11-17-.75-18-2.74-66.58-39-90-65.69l-22.26-15.11-.34-25.56Z"/><path class="cls-7" d="M684.58,194.29l6.36,15h5.64l-8-38c0-24.39-11.77-45-36.17-45h0a30.83,30.83,0,0,0-30.83,30.84V194.4a14.89,14.89,0,0,0,14.89,14.89H680.2Z"/><path class="cls-7" d="M581.08,577.79s-9,12-9,15-5,4-8,7-6,2-4,5-25,21-25,21l-26,34,7,6,20-21-3,37,28,26s12,2,13,0-10-22-10-22,1-18,7-25a102.32,102.32,0,0,0,10-14s-3-4,4-5,2-7,2-7,2-1,8-1,33-29,33-29Z"/><path class="cls-7" d="M693.08,608.79s-4,14,3,22,0,6,0,6,1,6-3,9-4,9-4,9-5,10-4,16,1,36,1,36h10v-26l20,26h50s-1-5-6-6-20,0-23-21c0,0-1-12-3-14s-4-9-2-14,0-7,3-9,4-8,2-11-8-8-1-11,7-18,7-18Z"/><path class="cls-7" d="M627.08,368.79s-11,9,3,46,20,85,20,85-14,12-14,18-62,44-58,61,77,49,84,47,41-98,41-98-13-106-14-107-31-50-31-50l-18-37Z"/><path class="cls-6" d="M627.08,368.79s-11,9,3,46,20,85,20,85-14,12-14,18-62,44-58,61,77,49,84,47,41-98,41-98-13-106-14-107-31-50-31-50l-18-37Z"/><path class="cls-7" d="M626.08,345.79s-8,29,11,59,41,92,41,92,21,65,12,112c0,0-3,6,5,6s92-2,85-23-38-119-38-119l-40-99-2-30-15-23h-31Z"/><path class="cls-3" d="M486.19,375.79s-30.25,0-23.68,9,31.57,8,31.57,8Z"/><path class="cls-3" d="M644.58,169.29s2,14-5,16,28,17,28,17,7-24,10-27S644.58,169.29,644.58,169.29Z"/><path class="cls-6" d="M644.58,169.29s2,14-5,16,28,17,28,17,7-24,10-27S644.58,169.29,644.58,169.29Z"/><path class="cls-5" d="M672.58,192.29s-31-9-32-12-8,4-11,9-9,11-12,11-25,13-30,36C585.29,246.82,582,253,579,256.5a19.32,19.32,0,0,0-3.89,10,1,1,0,0,1-.54.79c-2,1,42,43,42,43s17-4,20,0-2,11-5,15-10,24-6,27,25-27,37-21,24,1,24,1,5,16,13,16,10-13,7-17-15-12-9-23,8-31,8-31,16-19-13-42c0,0-10-28-13-30s-8-3-8-5S672.58,192.29,672.58,192.29Z"/><path class="cls-5" d="M577.58,262.29l-30,42-26,32s-27,29-30,33-12,3-10,9,5,16,8,17,17-1,18-3,66-40,89-67l22-15.43,0-25.57Z"/><path class="cls-7" d="M638.17,311.37l58,1.85a2.51,2.51,0,0,1,2.44,2.52v.92a2.52,2.52,0,0,1-2.52,2.52H696l-58-2.77a2.52,2.52,0,0,1-2.4-2.51h0a2.52,2.52,0,0,1,2.52-2.52Z"/><ellipse class="cls-7" cx="697.58" cy="316.79" rx="1" ry="5.5"/><circle class="cls-3" cx="664.58" cy="157.29" r="28"/><path class="cls-7" d="M676.28,127.63c-5.42-1.38-18.29-1.34-20.17-1.34a34.53,34.53,0,0,0-34.53,34.53h0l-13,48.47h25.3l4.7-18,6.66,18H658l1.1-10.81,4.31,10.81h14.19c-10.63-24-16.28-46-2.32-59.49,9.43,1.29,17.38-1.24,18.67-6.35C695.43,137.56,687.52,130.48,676.28,127.63Z"/><path class="cls-8" d="M519.1,234.08,418,289.88c-20.4-34.8-51.6-53.1-92.4-53.1-58.2,0-101.4,44.4-101.4,108.6,0,71.7,49.8,108.6,101.7,108.6,39.9,0,72-18,94.8-52.8l93.6,65.4c-39.6,59.4-103.8,96.6-186.9,96.6-129.9,0-221.7-90-221.7-217.8s91.8-217.8,221.7-217.8C409.6,127.58,482.5,166.88,519.1,234.08Z"/></svg>