<?xml version="1.0" encoding="utf-8"?>
<!-- Generator: Adobe Illustrator 23.0.1, SVG Export Plug-In . SVG Version: 6.00 Build 0)  -->
<svg version="1.1" id="Layer_1" xmlns="http://www.w3.org/2000/svg" xmlns:xlink="http://www.w3.org/1999/xlink" x="0px" y="0px"
	 viewBox="0 0 1366 613.3" style="enable-background:new 0 0 1366 613.3;" xml:space="preserve">
<style type="text/css">
	.st0{fill:#5333ED;}
	.st1{fill:#FFFFFF;}
	.st2{fill:url(#SVGID_1_);}
	.st3{fill:url(#SVGID_2_);}
	.st4{fill:none;stroke:url(#SVGID_3_);stroke-width:2;stroke-miterlimit:10;}
	.st5{fill:none;stroke:url(#SVGID_4_);stroke-width:2;stroke-miterlimit:10;}
	.st6{fill:url(#SVGID_5_);}
	.st7{fill:url(#SVGID_6_);}
	.st8{fill:none;stroke:url(#SVGID_7_);stroke-width:2;stroke-miterlimit:10;}
	.st9{fill:none;stroke:url(#SVGID_8_);stroke-width:2;stroke-miterlimit:10;}
	.st10{fill:url(#SVGID_9_);}
	.st11{fill:url(#SVGID_10_);}
	.st12{fill:none;stroke:url(#SVGID_11_);stroke-width:2;stroke-miterlimit:10;}
	.st13{fill:none;stroke:url(#SVGID_12_);stroke-width:2;stroke-miterlimit:10;}
	.st14{fill:url(#SVGID_13_);}
	.st15{fill:url(#SVGID_14_);}
	.st16{fill:none;stroke:url(#SVGID_15_);stroke-width:2;stroke-miterlimit:10;}
	.st17{fill:none;stroke:url(#SVGID_16_);stroke-width:2;stroke-miterlimit:10;}
	.st18{fill:url(#SVGID_17_);}
	.st19{fill:url(#SVGID_18_);}
	.st20{fill:none;stroke:url(#SVGID_19_);stroke-width:2;stroke-miterlimit:10;}
	.st21{fill:none;stroke:url(#SVGID_20_);stroke-width:2;stroke-miterlimit:10;}
	.st22{fill:url(#SVGID_21_);}
	.st23{fill:url(#SVGID_22_);}
	.st24{fill:none;stroke:url(#SVGID_23_);stroke-width:2;stroke-miterlimit:10;}
	.st25{fill:none;stroke:url(#SVGID_24_);stroke-width:2;stroke-miterlimit:10;}
	.st26{fill:url(#SVGID_25_);}
	.st27{fill:url(#SVGID_26_);}
	.st28{fill:none;stroke:url(#SVGID_27_);stroke-width:2;stroke-miterlimit:10;}
	.st29{fill:none;stroke:url(#SVGID_28_);stroke-width:2;stroke-miterlimit:10;}
	.st30{fill:url(#SVGID_29_);}
	.st31{fill:url(#SVGID_30_);}
	.st32{fill:none;stroke:url(#SVGID_31_);stroke-width:2;stroke-miterlimit:10;}
	.st33{fill:none;stroke:url(#SVGID_32_);stroke-width:2;stroke-miterlimit:10;}
	.st34{fill:url(#SVGID_33_);}
	.st35{fill:url(#SVGID_34_);}
	.st36{fill:none;stroke:url(#SVGID_35_);stroke-width:2;stroke-miterlimit:10;}
	.st37{fill:none;stroke:url(#SVGID_36_);stroke-width:2;stroke-miterlimit:10;}
</style>
<title>careers-map</title>
<g>
	<path class="st0" d="M42.2,195.6c-2.3-0.9-1.1,3.5-3.4,4s-5,1.9-3.2,2.4s5.9-0.3,6.3-1.1S42.9,195.8,42.2,195.6z M24.8,201.5
		c-2.7-0.3-5.4,0-5.9,1.1s2.5,1.9,4.3,1.9s5.4-1.3,4.8-1.6S24.8,201.4,24.8,201.5L24.8,201.5z M42.9,177.4c-1.8,0-0.9,0-3.2,0.8
		c-0.9,0.3,1.6,2.1,2.5,2.1S44.7,177.4,42.9,177.4L42.9,177.4z M390,382.2c-1.6-0.8-5-1.1-6.3-3.2s-5.2-4.3-6.6-3.7
		s-3.6,1.1-5.4-0.3s-4.8-2.9-5.9-4c-1.6-1.1-3.5-1.8-5.4-1.9c-1.4,0-1.1-1.1-3.2,2.1s0,4.3-3.6,3.7s0.5-0.8,2.5-4s-0.2-5.1-2.5-4.3
		s-0.7,2.4-4.3,3.2s-3.6-1.9-1.4-2.4s6.4-2.9,6.4-4s-0.5-4-2.3-4s-1.4-2.7-4.1-6.1s-6.6-7.4-9.3-6.9s-4.3,3.1-5.6,0.2
		s-3-3.5-3.9-5.1s-3.2,0-3.9-0.8l-0.7-0.8c0,0-2.9,0.8-1.4-1.6s2.3-7,1.6-6.7s-1.8,4-3,3.7s-0.2-0.8-2.5-2.4s-5.9-0.3-5.9,1.1
		c-0.1,0.9-0.5,1.8-1.1,2.4c-0.5-0.8-1-1.6-1.3-2.5c-0.7-1.6-3.9-1.9-5.4-0.3s-2.5-4-3.6-4s-3.4,1.3-4.5,3.8s-0.7,5.9-1.6,5.6
		s-1.1-4.8-0.9-6.4s2.7-4.3,0.9-4.8s-4.5,2.7-5.7,2.9s-3.4,2.1-4.8,4.3s-2,3.5-3.4,4.3s-3.4,0-2.9-0.8s-3.9-3.8-4.5-2.7
		s-2.7,1.9-4.8,2.9s-3.9-1.3-4.3-2.4s-1.4-1.3-1.6-4.8c-0.2-3.2,0.2-6.3,1.1-9.4c0.7-2.1-3.4-6.4-5-6.2s-3.2,2.1-4.8,1.9
		s-0.9-0.8-3.4-0.8s-0.4-0.5,0-2.9s-0.9-5.6,1.6-7.8s1.6-7.2,0-7.5s-4.5,0.8-6.6,0.5s-3.6,1.9-2.9,4.3s-1.1,4-1.8,3.8
		s-1.6-1.6-4.1,0.5s-3.4,1.3-5.9-1.1s-5.2-4.8-5.7-8.6s-0.7-7.5,0.2-9.6s0.9-5.9-0.4-6.4s1.6-3.2,3.2-3.7c1.9-0.9,3.4-2.3,4.5-4
		c0.4-1.1,2.7-0.8,5.2-0.8s2.9,0,5.4,1.6s2.9-0.8,2.9-1.6s1.4-1.4,4.1-1.1s6.1-2.1,6.8-1.3s2,4,3.4,2.9s1.8-2.9,2.3,0.3
		s1.6,8,3.6,8.8s0.9,4,3,4.3s3-5.1,2.3-7s-2-7.5-3.2-8.8s0.8-4.7,3-5.7s5.8-6.6,7.4-8.2s6.8-2.1,5.4-4.2s-2.7-4.4-2.7-6s1.4-1.1,2,0
		s3.4-1.6,2.7-2.9s-0.5-3.2,1.1-2.9s2-1.3,1.4-2.4s1.6-2.4,3.2-1.9s6.8,1,7.5-0.1s-2.5-3.4-2.5-5.5s2.7-4,4.3-4.3s3.6,0,3.9-0.8
		s2.5-2.9,2.7-1.1s0,5.1,1.8,5.1s4.1-2.4,4.8-2.7s5-1.3,5.9-1.6s6.3-0.8,5.7-2.7c-0.5-1.6-1.1-3.1-2-4.5c-0.7-0.8-1.4,0.3-2.3,1.6
		s-2.5,1.3-2.9,0.3s0.2-4.3-1.4-3.2s-1.8,2.1-2.7,1.6c-0.8-0.7-1.4-1.5-1.8-2.4c1.2-0.7,1.6-2.2,0.9-3.4c-0.1-0.1-0.1-0.2-0.2-0.3
		c-1.6-2.4-3.9-1.9-6.1-0.5s-2,1.1-4.8,1.9c-1.4,0.4-2.8,0.9-4.1,1.6c0,0,0.8-4.1,2.4-5.8s6.5-0.9,7.8-2.5s5,0.8,5,0.8
		s1.8-2.1,1.8-0.8s-0.5,4.8,0.9,4.8s5.2-2.1,3.6-2.7s1-1.5,2.6-2.9s4.7,0.2,5.6-0.3s1.6-2.9,3.2-2.9s2.3,2.4,0,4s-2.5,5.6-3.6,6.7
		s-0.5,2.4,1.4,2.1s3.4,0.3,5-0.3c1.2-0.4,2.5,0.2,3,1.3c0.5,0.8,1.8-0.8,1.8-0.8s3-0.8,3.9,0.5s1.6-0.8,0.9-2.1s-1.6-2.7-2.3-4.3
		s-1.6-2.1-3.4-1.6s-2.3-0.5-3.4-1.3s-2,1.1-1.1-0.8s1.4-2.4,2-4s3.6-4.5,0.7-5.3s-3.9-1.3-4.3-2.9s-3.9-4.6-4.8-4.6
		s-5.2,0.9-5.5-0.4s-1.3-5.2-2.5-6.6s-5.4-7.2-6.1-7.8s-1.6-0.3-3.6,2.9s-3.9,3.8-5.4,2.9s-3.3,0-4.9-2.1s3.1-3,2.4-4.3
		s-4.3-1.9-6.6-2.1s-3.9-3.2-7.2-3.5s-7.5,0.5-8.6,0.5s-1.1,1.9-1.6,4.8s1.6,3.7-0.5,4.3s-2.9,0.8-0.9,1.9s4.8,5.3,4.8,5.3
		c0,1.4-0.6,2.7-1.6,3.7c-1.6,1.3-3.2,2.7-4.1,1.1s-3.4-1.3-2.7,0.3s2,2.4,2,4s2,5.6,0.7,6.9s-3,0.3-4.1,0.5s-2.3-2.1-1.4-2.7
		s-0.2-4.6-0.2-4.6s-2.7,4.6-2.5,2.1s-1.1-2.7-1.1-4.6s-2-4.5-4-3.9c-2.5,0.8-5.2,0.8-7.8,0.2c-3.1-0.5-6-1.6-8.6-3.2
		c-3.2-1.9-4.3-0.5-5.9-0.3s-0.9-3.6-2.9-4.1s-0.7-1.1-1.2-4.6s-1.8-2.6,3.2-6.4s4.3-5.3,8.2-5.9s5.3,2.4,5.3,1.1s1.3-8.6,1.3-5.9
		s4.5,2.9,2.5,4.8s-0.9,2.1,0.7,2.1s4.5-1.9,4.5-1.9s3.6-1.9,4.5-0.3s0.9,3.2,2.5,3.2s5-2.1,2-4s-4.8-1.6-6.6-3.7s-1.4-1.3-3.4-0.8
		s-2-0.8-2.7-0.8s-1.8,0.5-2.3-0.5s0.2-1.3,2.5-1.3c1.7,0.1,3.4,0.3,5,0.8l3.4-1.4c0.7-0.3,4.3-0.8,3.6-3.2s-2.9-2.4-3.6-3.2
		s1.4-1.9,2.5-2.4s4.3,0,4.3,0s2,0.3,2-0.8s-0.5-2.4,0.9-1.6s0,3.2,2,2.7s2.5,0,3.6,0.8s-0.2,4-1.4,4.5s-3,1.6-0.5,1.9
		s4.3,0.3,4.3,0.3c0.9-1.1,1.7-2.2,2.3-3.5c0.7-1.6,1.8-0.5,2.7,0s4.3,1.3,1.1,2.4s-3.9,2.4-4.5,3.7s-0.9,2.1-3.9,1.3
		s-4.5-0.5-5.2,0.8s-0.2,5.6,0.9,5.1s2.3-0.5,3.6-1.1s6.8,0.5,8.1,0.3s3.6,2.7,4.3,2.1s2,1.1,3.4,2.1s0.9-2.4,3.4-0.3
		s1.1,2.1,2.5,2.1s4.3,0.3,4.3,0.3s0.2-2.7,2.5-2.1s4.3,3.5,4.1,1.3s0.2-3.7-1.6-5.4s-4.8-2.7-5.2-3.5s-0.9-1.9-0.2-2.4
		s3.9,0.3,5.7,1.6s3.4,2.7,4.8,1.6s3-1.6,3.6-2.4s2.3-3.2,2.3-3.2s-6.8-1.1-7.7-2.4s-4.1-3.2-5-3.2s-3.4,1.9-4.3-0.8
		s-0.9-5.9-1.8-6.1s-10.4-1.9-11.8-2.7s-6.8-2.7-8.8-4s-5-3.2-6.8-3.2s-9.3,1.1-10.6,0.8s-5.4,0.5-7,0.8s2,3.7-1.4,4.6
		s-3,1.3-2.3-2.7s-2.3-5.1-5.2-3.5s-7.7,2.7-6.6,4.6s-0.2,3.2,2,5.1s3.2,2.4,6.1,2.1c2-0.1,4,0,5.9,0.5c0,0,0,3.2-1.1,3.8
		s-2.9,0.5-3.4,2.1s-2.7,2.4-2.7,1.6s1.1-3.5-0.4-4.8s-2-1.6-3.9-0.3s-2,1.9-2.9-0.3c-0.9-1.6-2.1-3-3.6-4c-1-1.4-2-2.7-3.2-4
		c-1.4-1.3-3.9-1.1-4.1,0.3s0.5,2.7,1.4,5.1s1.3,5.4-0.3,5.7s-1.3,2-2.9,2.6s-2.3-0.8-2.3-2.9s-0.7-4-0.2-4.8s-1.8,0.5-4.1,0
		s-4.1,1.1-1.8,1.9s2.7,4,0.7,4.8s-9.7,0-12.2,0s-6.1,0.8-6.8-0.8s2-2.7,3.6-2.7s6.3,0.3,8.1-2.7s-2.3-3.5-4.1-3.5s-3.2-0.8-5.2-3.2
		s1.4-4,0.9-5.1s-2.7-0.3-4.8-0.3s-5.2-1.9-5.2,0.3s2.5,8.3,0.9,6.9s-1.4-3.2-2.5-4.8s-2.9-1.3-5.2-1.1s-6.1,1.1-7.2,0.8
		s-0.2-0.3-2.7-1.6s-3.6-1.1-5.4-2.4s-0.2-1.9-3.4-2.1s-2.9,1.9-6.1,1.3s-4.1,0.3-7.2,0s-4.8-0.5-5.2,1.3s-1.4,5.1-2.7,5.1
		s-2.9,1.9,1.4,2.1s1.8,2.7,5.7,2.4s7.2-0.3,8.2-2.4s1.6-2.1,2-1.3s3.9,5.6,3.9,5.6c1,1,2.1,1.8,3.2,2.7c0.9,0.5-0.9,2.9-2.7,1.6
		s-5.2-1.1-6.6-2.4s-5-1.9-6.6-1.6s-6.8-0.2-7.7-0.2s-3.9,2.7-3.9,2.7s-1.1-2.1-1.8-3.2s-1.8,1.1-2.7,1.3s-3.6-2.1-6.4-1.1
		s-1.8,2.1-5.7,1.9s-4.8-1.1-6.1-0.8l-1.4,0.3c0,0,0.2,1.1-1.4,2.1s-2.7,2.4-3.8,0.8c-0.5-0.9-1.4-1.6-2.5-1.9c-1.5-1-3.3-1.3-5-0.8
		c-2.9,0.8-6.1-3.9-7-3.9s-10.4,2.3-12.2,1.8s-7.1-2.9-8.9-2.6L78,143c0,0-3.8-0.9-4.4-0.9s-3.2,1.3-4.3,0c-0.9-0.9-1.9-1.6-3-2.1
		c0,0-0.9,2.9-2.5,3.5s-5,1.6-5.7,1.1s-6.6,2.1-6.6,2.1s-3.3,0.9-4.2,0.6s-4.8,1.8-4.4,2.9s0,3.2,3.6,3.2s3.8,1.6,5.2,1.9
		s1.8,0,3.4,1.6s1.6,3.2-0.5,2.9s-4.3-0.8-5.7-2.1l-1.4-1.4l-2.5,1.4c-2.5,0.4-4.9,1.1-7.2,2.1c0.8,1.5,1.9,2.9,3.2,4
		c2,1.6,7,1.6,7,1.6s3.4,0.3,4.8-1.1c1-1,2.5-1.3,3.8-0.8c0.9,0.3-0.7,3.8-3.2,3.5c-2.7-0.4-5.4,0.4-7.5,2.1c-2,1.9-3.8,2.1-3,4.3
		s4.3,4.8,4.5,6.1s4.1-0.8,4.5-2.1s2.7-1.3,2,1.6c-0.4,1.5,0.5,3,1.9,3.4c0.1,0,0.2,0,0.3,0.1c0,0,1.4-2.7,2-2.1s3,2.9,3,2.9
		s2.9-2.4,3.8-0.8s-1.4,2.9-2.7,3.7s-6.3,2.9-7.5,3.7s-5.4,3.2-6.6,3.2s-1.5,3.2,0.5,2.9s7.7-2.7,9.3-3.5s2.2,2.6,6.2,0.2
		s5.3-6.1,6.5-5.9s1.4,2.1,3.2,2.7s3.4-1.6,4.5-2.4s2-4,0.9-3.7c-1.4,0.1-2.7,0.1-4.1,0c0,0,3.2-2.1,3.2-3.5s0.4-3.5,2.3-4.3
		s1.8-0.3,0.7,2.9s2.3,1.9,3.6,0.5s3,2.3,5.5,0.4s1.8-5.5,3.1-5.5s3.8,2.9,5.2,1.9s4.8,2.2,7.1,2.2s9.9,2.6,11.3,2.6
		s5.4,1.9,5.7,5.4s1.6,3.2,2.9,3.2s4.5,1.3,4.5,2.7s-0.9,6.7,1.4,8s4.3,3.5,5.2,2.9s0-4.8-1.1-5.3s-0.4-2.4-0.9-3.5s1.4-1.1,2,0.8
		s2.5,5.4,3.6,5.4s3.6,3.2,2.9,5.1s0.2,5.7,2.3,5.7s5,2.6,5.9,2.9s1.4,2.6,1.4,3.4s1.8,4.4,1.8,6.2s-0.7,9.4-0.9,12.3
		s1.8,8,4.1,10.7s1.8,8.7,3.2,9.7c1.4,1.1,4.7,3.1,6.8,2.8s3.4,1.6,5.2,5.4s3.6,9.9,5,10.4s3.6,2.4,2.5,3.7s-2.9,4.3-0.9,4.3
		s2.7-1.3,4.3,1.1s3.6,3.8,3.4,5.4s1.8,2.1,2.7,2.4s2.9,5.1,5,2.9s-2.7-5.3-4.1-6.7s0-4.3-3.2-7.2s-2.7-5.1-5-7.2s-4.1-4-1.8-5.9
		s2.5,1.9,3.4,4.3s5.7,7.2,7.7,9.4s5.7,9.6,6.8,9.6s4.3,4.3,4.3,4.3s1.8,3.5,1.1,4.5s0.9,5.1,2.5,6.1s8.5,1.1,8.8,5.1
		c0.1,1,1.2,6.1,3.7,6.1s5.8-1.3,6.5-0.5s2.7,4,4.1,2.1s1.6-2.7,3.6-2.7s2.9,1.9,4.1,3.2s4.3,4.8,5.9,4.5s3.6,2.1,4.8,1.3
		s2.9,0.5,3.9,1.1c1.8,1.3,2.8,3.5,2.6,5.7c-0.2,3.2,3.1,3.9,4.4,4.7c1.6,1.1,3.1,2.5,4.3,4c1.1,1.3,3.6,1.6,4.3,2.4
		s1.1,2.4,3.2,1.1c1.2-0.8,1.8-2.3,1.6-3.8c0,0,2.3-0.5,3.4,0.5s1.8,4.5,2.5,5.1s2,4.5,1.1,7.5s-0.7,5.9-1.6,5.9s-3.4,2.8-4.8,3.6
		s-3.6,5.2-3.4,6.5s1,5.6,0.5,7.4s-2.1,3.8-1.5,6.7s5.4,3.8,5.7,6.4s3.6,8.6,4.1,11.2s2.9,5.8,2.9,9.5s6.9,6,8,6.3s3.2,2.7,4.8,3.5
		c1.8,1.1,3.2,2.7,4.1,4.5c1.1,2.1,0.9,5.4,0.9,6.1s-0.7,9.1-1.4,13.9s1.6,9.4,0.3,10.7s-3.9,1.9-2.5,3.5s-1.6,2.7-1.6,3.5
		s1.8,5.1,0.9,7s-1.6,4.5-2.3,6.1s-2.3,3.2-1.8,5.6s-1.8,1.6-1.8,4s2,1.3,1.6,4.3s-1.6,3.8-1.6,5.9s1.1,5.1,1.1,5.9
		s-1.1,3.5-2.7,5.6s-2.7,3.5-2.5,4.8c0.2,1.4,1.8,2.9,1.6,3.7s-2.3,3.5-2,5.3s2.3,1.1,2.7,2.4s-2.7,2.4-1.4,3.8s3.2,1.1,2.7,4.3
		s2.5,4,3.2,4.8s2,2.7,3.2,2.7s2-0.8,2.5-3.7s3.6-0.5,1.4,1.6s-3.4,3.2-2.7,3.2s4.1,2.1,5.9,2.1c2.1-0.2,4.1-0.6,6.1-1.3
		c0.7-0.3,5.7-1.1,6.1-1.9s-3.9-0.5-5.9-1.3s-5.7-4.8-6.1-6.4s-0.5-4.8,1.1-5.9s5.4-4.8,6.4-5.6s2.3-4.5,1.6-5.1s-4.1,0-4.5-0.8
		s-0.5-1.9,1.8-3.7s3.4-4.5,4.3-5.3c1.4-1.1,2.6-2.6,3.4-4.3c0.7-1.9-0.7-0.8-2-0.8s-2-2.9-2-4.3s3.4,0.5,5.9,1.1s1.4-1.3,1.1-2.9
		s0.5-4.3,1.8-3.5s8.4-0.3,9.3-0.5s3.4-5.1,4.3-6.4s1.1-2.7,0-3.5c-1.7-1.4-3.3-3-4.7-4.7c-0.5-0.8,1.1-5.4,1.6-6.8s0,7.8,3.2,8.8
		s5,1.6,7.9-1.6s5.2-5.4,5.4-7.5s0.9-4.3,2-5.1s2.1-0.2,3.4-3.7s2.5-0.8,3.8-3.8s-2.3-6.7,0.5-8.8c2.4-1.8,4.9-3.4,7.5-4.8
		c1.3-0.7,2.7-1.2,4.1-1.6c2.7-0.8,5.7-0.3,6.6-1.9s1.8-5.1,3.2-6.9s3-4.8,2.3-6.1s1.8-7.2,1.6-8.8s-2.3-5.4,1.1-8.5s7-8,7.2-9.4
		s3-7,2.7-9.6C394,386.1,392.4,383.7,390,382.2z M278.1,225.8c0.7,0.5,5.4-0.8,6.3,0.5s-0.9,1.6-3.2,2.7s-3,0.8-3.9,2.1
		s-3.9,1.9-5.2,3.5s-3.8,2.6-4.3,1.3c-0.7-1.6,0.2-0.8,0.5-1.6s4.3-2.7,4.3-2.7S277.4,225.2,278.1,225.8z M265.9,219.6
		c1.8-0.3,3.6-0.3,5.4,0c1.6,0.3,3.9,5.1,2.7,5.3s-3-1.1-3-2.9s-1.6,3.5-0.7,5.1s-1.8,3.5-2.7,3.5s-1.6-2.4-1.4-4.8
		s-1.4-4.6-3.9-4.3s-3.6,2.7-4.5,3.5s-0.9,5.4-0.7,6.4s0.2,4.8-2,4.6c-2-0.3-1.6-4.8-1.4-6.4s-0.7-5.6,0.2-7.8s3.6-2.9,5.4-3.2
		S265.2,219.9,265.9,219.6L265.9,219.6z M248.2,212.4c2.9-1.3,6.1-5.1,7.5-3.5s3.8,3.5,5.4,3.7s-0.5,3.5-1.1,3.8s-3.2-0.5-5.2-0.5
		s-1.6-1.6-2.5-1.3c-1.5,0.4-2.9,0.9-4.3,1.6c-1.4,0.8-3.6,0.6-3.6-0.8C244.3,213.2,245.2,213.8,248.2,212.4L248.2,212.4z
		 M158.9,217c-1.1,0.3-1.8-2.9-2-4.3s-2.5-1.3-3.6-2.1s-3.7-4.7-1.8-4c0.7,0.3,2,1.9,2.7,1.9s4.1,3.2,5,4.3S160,216.7,158.9,217z
		 M263.4,169.9c-0.6,0.8,2.7,2,3.3,0.9S264.9,167.9,263.4,169.9L263.4,169.9z M272.1,171.5c-2.4,0.8-0.2,2.9,1.4,2.1
		S274.2,170.7,272.1,171.5L272.1,171.5z M162.8,129c2,0,5.1,0,6-0.5s5.4-1.8,5.3-0.2s1.8,4.1,2.9,3.7s3.2-2.7,4.2-1.8s1.2,3,2.3,3.6
		c1.7,0.5,3.6,0.5,5.3,0c2.2-0.5,4.5-0.6,6.8-0.2c1.7,0.4,6.5,1.4,6.9,0.4s1.8-1.2,2-2.3s0.9-4.4,0.9-4.4s-0.9-2-2.4-1.1
		s-2,1.4-3.3,1.1s-1.4-3.2-3.8-2.7s-2.9,2.1-3.6,2.8s-2.4,1.2-3,0.9s-4.1-2.7-4.1-2.7s-7.2-0.3-7.6-1.4s-1.5-2.8-4.8-2.5
		s-9.1,2.7-10,2.7s1.1,2.1-0.1,2.1s-2.7-0.2-3.2,1.4C159.1,129,160.8,129,162.8,129z M185,123.3c1.2,0,4.2-1.2,5.1-0.4
		s3.2,0.2,3-0.7s0.9-4.5-0.9-4.6s-4.4,2-7.1,3C183.4,121.3,183.8,123.3,185,123.3L185,123.3z M208.5,120.6c1.8,0,5.7-1.1,6-0.2
		s-0.1,1.6,2,2c1.4,0.3,2.8,0.6,4.2,0.7c1.2,0,0.8-2.3-0.3-3.9s-0.8-1.4-3.5-2.3c-2.3-0.7-4.8-1-7.2-0.7c-1.8,0.2-3.8-0.3-4.2,2.1
		C205.3,119.6,206.7,120.6,208.5,120.6L208.5,120.6z M208.5,126.5c-1.1,1.2,0,4.8-0.4,5.2s0.1,2,1.4,1.6s1.8-3.7,2.7-3.7
		s5.6-1.2,6.3,0.7s0.8,1.1,2.9,1.2s3.8-2.5,3.9-3.4s-1.1-2.7-3.9-2.3S209.8,125.3,208.5,126.5L208.5,126.5z M220,135.6
		c-1.1,0.5-4.2-0.9-5.9,0.4c-1,0.8-0.5,3.4,1.2,3.6s4.5-1.2,4.8-0.2s1.4,5.9,4.1,4.3s2.6-3,3.3-3.2s-0.2-4.1-1.4-5
		S221.1,135.1,220,135.6z M234.5,138.6c2-0.4,4.8-0.7,6.2-0.9s1.7-2.9,0.1-3s-2.7-1.8-4.1-1.2s-6,2.9-5.6,4.1
		C231.4,138,232.6,139,234.5,138.6L234.5,138.6z M236,130.8c-0.8-2.1-4.5-2.8-5.3-0.7C230.1,132,236.8,132.9,236,130.8L236,130.8z
		 M227.5,122.6c1.7,0.9,4.4,2.5,6.3,3.4s5.7,1.1,6.9,2.9s5.3,3.2,5.3,3.2l4.8,0.5c2.2-0.5,4.5-0.7,6.8-0.5c3.8,0.5,7.6,0.7,11.5,0.7
		c2.9-0.2,3.3-1.2,3.6-2s-5.3-2.1-6.6-2s-9.1,0.2-11.3,0c-2.3-0.2-4.7-0.2-7,0c-1.8,0.2-3.2-1.4-4.5-2.3s-4.4-3.7-6.2-4.1
		c-1.7-0.3-3.5-0.8-5.2-1.3c-1.9-0.5-5.1-1.2-5.1-1.8S225.9,121.7,227.5,122.6L227.5,122.6z M445.5,160.3c-1.2-1.2-4.1-2.1-5.4-2.3
		s-2.7,1.2-5.7,1.2s-5,1.4-6.2,0s-6.2-2.1-6.6-1.2c-0.6,1.2-1.8,1.2-0.6,3.8s2.1,3.9,3.2,3.7s4.7-0.4,5.1,1.1s1.7,2.7,4.2,1.8
		s4.7-1.4,5.3-2.5s4.7-1.2,4.7-1.2S446.7,161.6,445.5,160.3L445.5,160.3z M414.3,139.1c-0.5-1.2-1.9-5.2,1-5.5s8.4,3.7,8.2,0.9
		s0-5.9,0.8-7.5s2.6-2.7,1.7-3.2s-2.2,0.7-3.2-2s0.8-4.6,1.9-5.7s6.9-8,10.1-9.1s5.4-5.2,3.2-6.1s-6.6-2.5-9.5,0.3s-4.5,5.6-7.8,4.7
		s-3.8-5.6-5.7-8c-2.7-3.5-1.1-10.5-4-10l-2.9,0.5c-1.8-0.4-3.7-0.5-5.5-0.2c-2.8,0.7-4.5,2.7-6.1,2.2c-3.1-0.8-5.9,1.1-6.7,1.3
		c-6.8,1.8-12.2-0.6-13.2-0.8c3,0.4,6,0.4,9,0c3.3-0.6,8.8-1.9,11.5-2.4s0.5-1.8-0.4-1.9c-3.5-0.4-8.8-2.2-13-2.4
		c-3.3-0.2-5.4,1-8.7,1.1c-4.2,0.1-9.2-0.2-12.5,2.2c-2.9,2.1-6.6,2.3-6.9,2.7c-1.6,2.1-3.2,7.5-4.7,6.1s-1.8-5-3.7-3.6
		s-0.1,5-1.8,7.5s-6.4,2.1-7.7,1.2s-2.8-1.6-8.3-1.2s-11.6,2.5-10.4,4.6s-2.5,3.4-3.5,2.3s-5.4,1.2-5.1,3.4s-0.7,4.6-3,4.1
		c-1.8-0.4-3.6,0.7-4.1,2.5c0,0.2-0.1,0.4-0.1,0.5c-0.1,1.8-5.4,3-5.8,3s-7.2-0.2-4.7,2c1.7,1.4,2.6,0.5,4.7,1.1s3.7,4.5,4.8,5
		c1.2,0.5,2.6,0,3.3-1.1c0.7-1.5,1.3-3.2,1.6-4.8c0,0,0,3.6,1.7,4.3s5.8-0.5,6.9-0.3s7.6,1.3,9.4,2.3s6.2,1.8,7.5,4.1
		s1.4,10.3,2.1,11.2s3-2.9,3.6-3.7s3.5-0.4,4.4,0.9s3.2,4.3,3,5.5s-0.5,3.2-1.4,2.5s-2.2-0.5-1.6-2s0.8-4.4-0.3-4.4h-2.1
		c0,0-2.1-0.7-3.5,2s-0.3,5.4,0.7,5.4s3.2,0,3.2,0.7s-2.4,2.9-2.2,4.1c0.6,2.2,1.4,4.4,2.5,6.4c0.5,0.9,3.5,1.8,4.3,2
		s-1.9,0.4-1.2,1.6s1.8,4.3,3.3,5s5.8,3.9,6.4,5.4s3.9-1.1,4.6-1.2s0.5,3.7,2.5,3.9s2.6-0.4,4.3-2s1.2-3.7,1.4-5.4s0-2.9,1.8-2.3
		s2.8-0.4,2.6-2.1s-1.6-3.9,1.2-4.5s4.4-2.9,6.2-2.9s6.8,0.9,7.3,0s2.9-6.2,4.4-6.4s5.5,0.7,9.1,0s7.5-3.4,8.7-3.2s4.3,0.2,3.3-0.9
		s-2.4-3.6-4.4-3.6s-2.4-5.5-1.9-5.5s5.6,2.1,5.5,3.9s0.8,4.1,3.6,3.4c1.5-0.3,2.4-1.7,2.2-3.2c-0.1-0.3-0.2-0.7-0.4-0.9
		C415.3,142.2,414.9,140.4,414.3,139.1L414.3,139.1z M286,303.3c0.2-1.1-2.5-4-4.1-3.7s-5-1.9-6.8-3.7s-5.2-1.9-6.6-1.9
		s-6.8,1.9-6.8,1.9c-0.2,2.7,2,1.9,4.8,1.9s7.5-0.5,8.4,0.8s5,3.5,6.1,4.5S285.8,304.4,286,303.3z M279.2,291
		c2.5-0.5,1.1-2.9-0.9-2.7S276.8,291.5,279.2,291z M279.5,310.5c-2.1,0.4-1.6,5.2,0.9,4.3S281.5,310,279.5,310.5z M309.4,307.5
		c-2.1,0.4-1.6,5.2,0.9,4.3S311.4,307.1,309.4,307.5L309.4,307.5z M299.2,304.1c-1.8-0.5-3.9,0-5.2,0.3s-5.2,4.3-5.2,4.3
		c1.3,0.3,2.7,0.5,4.1,0.5c1.6,0,2.5,1.1,3.9,1.9s3.9-1.1,4.8-1.1s2,3.2,2.3-0.3S301,304.6,299.2,304.1L299.2,304.1z M618.9,405.7
		c-2.8-1-3.2,3.5-5.4,6.4s-4.8,5.3-5.7,5.1s-5.9,1.9-4.3,5.9s1.4,8-0.2,9.9s1.4,7.2,0.9,10.2s0.7,4.8,3.8,4.8s4.3-1.3,5.7-4.8
		s1.6-7,2.9-9.9s2.5-9.1,3.2-10.7s2-6.7,1.8-9.6S620.5,406.2,618.9,405.7z M701.2,337c-1.5,0.8-3,13.6-0.2,14.7s4.6-8,3.7-9.4
		S703.2,335.9,701.2,337z M512.4,241.8c1.1-1.9-0.9-4.6-2-4.6c-2.1,0-3.2,4-1.8,5.4S511.3,243.7,512.4,241.8z M495.4,241.8
		c0.5-1.1-0.7-3.2-2.3-0.3C492.6,242.6,495,242.9,495.4,241.8L495.4,241.8z M525.6,251.4c0.9,0.3,3.8,0,3-2.7
		c-0.4-1.7-1.9-2.8-3.6-2.7c-0.7,0-3.6-0.8-4.8,0c-0.8,0.6,1.4,2.4,2.5,2.9S524.7,251.2,525.6,251.4L525.6,251.4z M461.9,205.7
		c1.8,0.3,3.9-1.3,5.4-2.1s3.9-2.4,3.9-4.8s-0.5-4.6-1.4-5.6c-1-1-2.5-1.4-3.9-1.1c-2,0.4-2.3,2.9-3.6,2.9s-3,0.5-2.5,2.4
		s1.4,3.2,0,4S460.1,205.5,461.9,205.7L461.9,205.7z M473,194.2c2.3,1.1,7,2.1,5.2,3.2s-7.1,6.3-7.5,7.9s5.9,0.9,5.9,0.9
		s-1.4,1.9-0.2,2.4s1.8-1.9,3.6-1.9s5.4,1.3,7.2,1.3s4.8-2.9,4.5-4.8s-2.5-4.8-4.5-5.9s-4.3-5.9-5.7-7s5-4.6,3.5-6.5
		s-6.4-0.7-8.2-2.1s-3.4,0.3-4.5,1.9s-2.5-0.3-3.9,0.3c-1.8,0.7-1.1,3.5-0.2,4.8S470.7,193.2,473,194.2z M760,121.7
		C761,120,758.9,119.6,760,121.7z M930.3,176.9c6.8,0,4.5,0.5,10,0.3s7.5-3.5,12.7-5.1s9.3-2.7,10.9-1.9s4.1,0.3,2.5-1.6
		s-5.2-4.6-3.4-5.1s3.6-0.8,4.3-2.9s-2.5-5.9-0.7-8s-1.4-4.8-3.6-5.3s-11.1,0.5-12.9-0.5s-4.8-2.4-5.7-1.6s-3,5.1-3,5.1
		s-1.6,0.5-3-1.9s-8.8-2.1-11.1-2.1s-4.8,0.5-7.2,0.8s-3.8,1.1-5.7-0.8s-4.3-2.7-5.2-3.5s-5.9-0.8-9.7-0.3c-2.6,0.3-5.1,0.5-7.7,0.5
		c-1.6-0.8-3.1-1.7-4.5-2.7c-2.7-1.9-5.4-3.2-6.3-3.2s-7.9,1.3-9.5,0c-1.2-1.1-2.7-1.9-4.3-2.1c-1.1,0-2-2.1-0.7-2.1
		s7.7-2.1,7.7-2.1s-1.8-2.9-4.1-2.9s-6.3-1.3-7.5-1.3s-0.2,1.3-2.5,0.8s-5.3,1.1-5.9-0.5c-1-2.9-4.5,2.7-1.1,3.8s6.6,0,7.5,1.6
		s0,2.4,0,3.5c-0.4,1.8-1.5,3.4-3,4.6c-1.1,0.5-2.5-0.8-4.8,0.5s-7.9,0.3-8.6,1.1s-2-2.1-3.2-1.6s-4.1,4-5.7,3.7
		c-2-0.5-3.5-2.2-3.6-4.3c0-2.1-0.7-4.8-1.4-5.4s-5.7-0.8-7.5-0.5s-7.5,0.8-8.4,1.9s-3.4,1.9-5,1.9s-2.9-1.9-6.3-2.4
		s-10.9-0.8-11.8-0.5s-3.8-0.5-2.7-1.6s4.5-4.6,2.5-6.2s-6.6-1.6-8.6-1.9c-2.4-0.5-4.8-0.6-7.2-0.3c-3.2,0.5-3.9,2.4-5.2,0.8
		s3.4,0.8-1.4-1.6s-7.5,0-8.4-1.3c-0.1-0.2-0.2-0.4-0.3-0.6c-0.8,1.1-1.8,2.1-3,2.7c-2,1.3-4.2,2.2-6.6,2.7c-0.9,0.3-7.2-1-7.2-1.9
		c-0.2-6.7-3.2,0.3-5.4,1.3s-3.8,2.7-6.1,2.1c-2.7-0.6-5.6-0.4-8.2,0.5c-2.3,1.1-3.9,1.1-6.1,2.9s-6.6,2.9-6.6,2.9s-3.8-0.3-5.9-0.3
		s-4.8,0-3,1.9s7.3,3.7,7.9,4.8s1.6,4.3,0.5,5.1s-3,0.5-3.2-1.9s-0.5-2.7-3.2-3.8s-2.5-0.3-4.8-2.7s-4.8-2.1-5.9-0.5
		s-0.5,4.8-1.8,5.1s-3,1.3-3.2-1.1s-0.2-7-1.8-4.3s-2.3,2.7-2.3,4s1.4,2.7,0.9,5.1s-0.5,4,0.2,4s2.3-2.4,4.3-2.9s5.7-1.9,5.9,0.5
		s2.5,3.2,0.2,4.3s-4.8,0.5-5.2-1.1s-2-1.6-3.6-0.3s-5,6.1-5,6.1s-5.4,2.9-6.1,2.4s1.8-3.5,3.6-4.8s3.2-4.3,2.5-5.1
		s-1.6-5.9-1.1-7.2s2.5-3.2,0.2-4.6s-3.9-2.9-5.7-3.7s-3.8,3.2-5.4,4.3s-1.4,2.4-3.4,2.7s-3.4,3.5,0,5.3s4.5,3.2,3.6,4.3
		s-4.8-0.5-4.8-0.5s-3-1.6-4.8-1.6s-4.1-1.3-5.9-1.6s-5.4-0.3-6.3,0.8s-3.2,4.3-5,3.2s-1.8-2.1-4.3-1.1s-5-0.8-6.3,0.8
		s-0.2,1.6-4.5,0s-3.4,1.1-7.5,1.9s-6.6-0.8-7.7,0.8s-2.7,4.5-3.4,2.7s2.3-5.1,1.1-6.1s-5.9-0.5-6.6,0.3s-0.2,3.8,0.2,4.8
		s1.1,5.3-0.2,4.5s-1.1-3.5-2.5-3.2c-1.3,0.3-2.5,0.8-3.6,1.6c-0.7,0.5-3.4,0.5-4.1,1.6s0.2,4-0.9,4.3s-2,1.3-4.5-0.5
		s-2.5-0.8-3.2-0.3s-3.8,2.7-4.1,0.3s0.5-3.2-1.6-4.8s-0.5-1.6,2.3-0.5s6.1,1.6,11.1-0.3s7-2.7,5-3.7s-3.7-4.5-6.9-5
		s-7.9,1.8-12.9-0.3s-6.1-2.9-8.2-3.5s-14.5-7-20.2-5.9s-21.3,9.9-22.2,10.7s-2.3,4-5.2,6.7c-3.6,3-7.8,5.2-12.4,6.4
		c-4.3,1.1-9.6,8.9-9.6,9.9s1.8,5.1,1.4,5.9s0.9,4.8,3.4,5.9s6.8,0.8,7-0.8s3.6-5.1,3.8-2.7s2.5,6.1,2,7.8s0,3.2,1.6,2.9
		s10-2.4,10-2.4s2.7-1.3,2.3-3.5s2.9-5.1,3.6-5.9s3.2-4,0.2-5.1s-5.2-1.3-2-4.6s5.2,0,9.3-4.8s-0.9-6.1,3.4-6.4s8.8-0.5,7.9,1.1
		s-6.1,5.1-9.1,6.7c-2,1-2.8,3.3-1.9,5.3c0.1,0.3,0.3,0.6,0.5,0.8c1.1,1.6,1.6,5.4,3.6,4.8s4.5-2.4,6.8-2.1c2.5,0.1,5,0,7.5-0.3
		c0.7,0,3.9,3.8,2,4.3s-4.1,0.3-7.9,0.5s-8.2,0.3-8.2,1.1s5.2,2.7,3.4,4s-3.6-0.3-5.9-0.5s-3.6,3.5-4.3,5.6s1.1,5.9-2.3,4.6
		s-5.9-1.3-6.8-0.8s-2.6-0.5-4.8,0.3s-2.4,0.7-5.4,0.7H519l-1.8,0.3c-1.1-0.9-1.8-2.1-2-3.5c-0.2-2.1,0.9-4.6-0.2-5.1
		s-5.2,0.3-5.9,1.9s-1.4,4.6-0.5,5.9s3.6,4,1.1,3.2s-5.7-1.1-7.5,0.5s-5,5.1-5,5.1s-5.7,0.5-5.7,2.1s0,3.7-2,4s-4.8,1.1-7.5,1.6
		s-2.5,1.9-5.7,2.1s-3.6,1.9-0.7,2.4s7.5,2.7,7.7,5.1c0.2,2.6-0.3,5.2-1.4,7.5c-0.8,1.6-5.4,0.5-8.2,0.5s-8.1-1.1-10.4,0
		s-1.8,6.4-1.1,8.8c0.6,1.6,0.2,3.4-1.1,4.5c-1,1.2-1,3,0,4.3c1.1,1.1,2,3.5,3,3.7s3.9-0.8,5,0.5s2.3,4.6,3,3.7s1.6-4.3,2.7-3.5
		s3.9-0.3,5.9-0.5s3.2-2.9,5.2-4.3s0.9-1.3,0.2-2.9s2-3.5,3.6-5.4s4.5-0.3,5.2-2.4s0.9-5.9,2.7-5.6s4.3,1.6,5.9,1.6s5-2.9,5.9-3.5
		s4.3-0.3,4.8,2.1s4.3,5.4,5.2,5.9s6.8,2.7,7.7,3.5c1.3,1.5,2.3,3.4,2.7,5.4c0.5,2.1,3.2,4.7,3.4,2.8s-2.3-7.9-0.7-7.6
		c1.2,0.1,2.3-0.1,3.4-0.5c-1.9-1.5-3.8-3-5.9-4.3c-1.6-0.8-4.5-2.4-5.9-5.1s-4.8-3.2-4.5-5.9s3.4-1.1,5.2,1.1s6.3,5.1,7.9,6.9
		s4.1,2.7,4.8,5.1s2.7,5.1,3.4,6.1s1.1,9.6,1.8,10.9c0.7,1.3,4.8-2.9,5.9-4s3.2-1.6,3.4-3.8s-2.7-3.7-3.6-4.5s2.3-1.6,3.4-2.7
		s3.2-2.9,4.1-1.3s0.5,8,0.9,9.1s5,2.7,5.9,4s4.8,1.9,5.4,1.1s4.3,0.5,5.2,0.8s3.6-0.5,5.4-1.1s3.6-2.1,3.4,1.3
		c-0.2,3.5-0.9,8.8-3.2,11.5s-1.4,4-3.6,4c-0.9-0.1-1.9,0.1-2.8,0.4c-0.7-1.4-1.8-2.4-3.1-2c-2.7,0.8-6.1,0.8-8.4,4
		s-3.2,3.5-3.6,2.4s6.6-5.6,5.7-7s-6.3-0.8-9.3-0.8s-5.4-2.1-7.7-2.7s-3.3,5-5.6,7.6s-5.7-1.5-7.8-1.5s-5.9-3.5-5.9-3.5
		s-3.8-1.9-5.4-1.9s-4.8-3.5-5.7-3.5s-3.4-2.4-1.6-3.5s5.7,1.3,3.9-4.6s-7.9-4.8-9.5-3.9s-12.9,0.5-13.8,0.5s-7.5,2.7-9.5,3.7
		s-5.7,2.4-6.6,2.9s-5.7-1.1-7.7,0.3c-2.7,1.8-5.2,4.5-5.9,4.5s-2.7,1.9-4.1,5.9s0.2,7.5-2.3,8.8s-7.9,3.5-9.7,5.6
		s-3.2,10.4-5.5,13.9s0,6.7,0.5,8.8s2,6.1-0.5,9.9s-2.3,5.6-3.4,5.9s1.1,1.3,1.6,4s-2,5.3,2.3,7.8s8.2,2.5,9.4,5.7
		s4.9,10.6,4.9,10.6s4.1,4.3,6.1,6.1s2.7,0.8,3.2-1.1s3.2-2.1,6.3-2.1s5.4,0.8,8.6,0.3s5.5-5.1,6.6-5.7s5.9-1.3,8.8,0.9
		s2.5,5.1,4.1,7s4.3,0.8,6.3-1.1s1.1-1.1,3.6,0.5s3.6,3.2,1.4,5.6s-0.9,6.1-2.3,9.9s1.3,3.7,3.8,5.3s4.6,12,6,13.9
		s-0.5,7.2,1.1,10.4s2.3,5.1,0.5,6.8s-4.1,4.7-4.3,10.1c-0.3,3.8,0.3,7.5,1.8,11c0.9,1.9,3.2,7,4.3,8.8s5,5.3,5.3,8.3
		s-3,7.5-1.9,9.1s1.8,4,3.8,6.2s2.7,6.7,2.7,6.7c0.5,1.6,0.8,3.2,0.9,4.8c0.2,3,0.5,4.8,2.7,6.2s3.8,1.6,5,0.3s6-4,8.9-3.7
		s7.2,0.8,10.1-1.7s7.2-8.8,8.8-10.7s5.2-5.4,4.8-7.5s-3.1-5.6-1.2-6.7s7.8-1.9,8-3.5s-1.6-8.3-2-9.6s1.1-3.7,3-6.4s6.1-5.6,7-6.7
		s4.8-4.5,5.2-8s-0.9-7.8,0-9.6s0.2-3.5-1.8-5.6s-2.2-7.1-2.9-8.1s0.4-8.2,1.7-8.7s4.3-5.9,6.1-8.3s7-9.9,9.5-10.4s6.3-4.8,6.6-7.2
		s6.8-11.5,7-13.4s2.9-8.8,1.8-10.4s-10,2.4-11.1,3s-4.3,2.7-7.9,2.4s-2-3.8-2.3-5.4s-4.1-7.8-5-8s-3.6-3.5-4.8-6.7
		s-5.9-5.3-7.7-7.7s0.2-9.9-1.6-13.7s-3.4-8.6-5-12c-0.4-0.9-0.8-1.7-1.2-2.5c2.1-0.6,5.2-1.8,5.5-0.2c0.5,1.9,3,5.9,3.4,8.8
		s2.9,1.9,3.2,4.5s2.5,9.1,3.4,9.9s5,5.1,5.7,6.7c1.1,2.5,1.8,5.1,2.3,7.8c0.7,4,1.4,9.4,3.2,10.2s7.9-1.3,9.1-2.1s8.6-5.1,11.3-5.4
		s3.2-2.4,6.6-3.2s5.9-3.7,8.2-5.9s5-7.5,5.9-9.4s3.2-3.2,2-5.3s-5.9-5.4-7.7-5.6s-1.6-3.7-2.7-3.7s-0.9,1.9-3.2,3.2s-4.5,4-6.1,3.5
		s0.5-1.9-2-4.3s-3.4-2.9-3.4-4.8s-5-5.4-5.5-8s3.4-6.4,4.5-4s2,6.1,5,7.8s5.7,4.3,7,4.8s4.8-2.9,5.9-2.4s3.4,5.3,5.4,6.1
		s8.8,1.1,10,1.1s5.9,0.3,6.8-1.3s1.6-1.6,2.7-1.6s3.2,4.8,4.8,5.3s4.5,0.3,4.3,3.8s1.4,6.4,3,6.7s5.2-4,5.2-4s0,6.7-0.2,9.1
		s2.5,11.2,2.5,11.2s3.4,8.3,4.3,10.2s4.8,7.5,4.8,9.9s0.5,6.1,1.8,6.1s2.7-4.3,4.3-6.9s3.3-5.1,4-7.7s-0.6-8.8-0.6-10.7
		s1.4-3.5,4.5-5.1s5.4-6.1,8.2-8.5s2.4-6.5,7.8-6.5s5,0,6.3-1.6s2.7-2.7,3.4,0.3s4.6,7.2,5.3,8.3c1.3,2.2,1.9,4.7,1.8,7.2
		c-0.2,3.2-1.4,12-0.2,12s5-9.6,5-9.6s5-4,4.8,0.3s0.5,8.8,0.5,11.5s4.1,9.1,4.1,7.5s1.8-6.1,1.8-8.5s1.1-1.3,4.1,1.1s5,7.2,5,7.2
		s2.8,9,3.3,10.4s3.7-6.3,4.4-7.9s1.1-2.4,3-2.9s4.1-0.5,4.8-3.5s2.7-6.4,0-10.4s-4.1-6.7-6.1-8.5s-3.6-6.7-3.6-6.7s4.3-4.5,5.7-6.1
		s3.4-0.5,3.6,1.3s-2,3.5-2.5,7.5s2.7,5.3,3.6,4s3.1-4.6,3.1-5.4s-1.6-0.5-1.8-3.5s2.9-5.1,4.1-4.3s8.4-1.1,11.8-3.2
		s5.4-6.7,7.5-8.5s9.1-8,8.6-11s0.2-7-1.6-10.7s-4.1-6.1-5-7.8s3.8-1.9,6.1-4.3s0-4.5-1.1-4.3s-4.1,1.1-5.2,0.8s-1.8-1.6-3.6-3.2
		s0.5-4,1.6-3.7s4.1-2.7,5.4-4s3.4-2.4,2.7-1.1s-2.3,6.1-0.5,6.4s6.1-4,6.8-3.7s1.8,3.7,1.1,5.3s-0.7,4.3,0.2,4s2.7-2.7,3.2-1.9
		s2.7,2.4,1.6,5.4s-3.4,4-0.7,5.9s3.6,0.3,5.7-1.1s3.4-7.2,2.3-9.1s-3.8-5.6-3.8-6.9s4.5-1.3,4.5-3.5c0.1-2,1.4-3.7,3.2-4.5
		c1.6-0.8,3.6-4.3,4.3-3.2s4.8,2.4,5.9,0.8s7-7.5,10.7-10.7s5-6.9,5.9-10.7s2.3-6.2,1.8-9.1c1.2,3,1.6,6.2,1.4,9.4
		c-0.2,2.9,0,9.1,0.5,9.9s2.3,2.7,3.4,2.1s-0.5-5.9-0.5-6.9s1.6-2.7,2.5-2.9s0-4.8-1.1-6.7s-2.7-2.9-1.8-3.2s2-2.4,1.4-2.9
		s-0.2-2.4-1.8-1.9c-1.1,0.4-4.2-0.3-4.1,2c-0.7-2.3-2.1-3.8-3.8-3.6c-2,0.3-3.2,1.6-5.2,1.6s-0.5-3.8-1.4-3.8s-3,3.5-4.1,1.6
		s3.2-4.3,6.6-5.6s9.1-9.1,11.3-9.4s7.9,0.5,12.9,0.3s6.6-2.7,8.2-1.3s5,2.9,7,2.7s1.1,0,4.3-2.7s6.1-4,7.7-6.1s5.9-3.7,6.1-1.6
		s-0.5,4.3,1.4,4.3s4.5-2.1,6.8-3.2c1.4-0.7,2.8-1.5,4.1-2.4c0,0-9.3,7.5-11.6,9.1s-7.7,2.7-10,5.9s-3.6,4.3-3.4,7.8s4.1,8,2.3,11.2
		c-1.2,2.4-2.1,5.1-2.5,7.8c1.8-2.8,4-5.4,6.6-7.5c3.9-2.9,6.1-6.9,7.5-8.6s5.4-1.9,5.4-3.7s1.1-4.3,1.8-6.4s-1.4-1.6,0-4.3
		S923.5,176.9,930.3,176.9L930.3,176.9z M577.7,366.1c1.1,2.1-2.5,9.1-4.5,8.5s-1.4-6.7-0.7-8S577.1,365,577.7,366.1z M568.8,174.2
		c1.1-3.7,7.5,0.8,6.3,2.7S568.1,176.7,568.8,174.2L568.8,174.2z M597.2,237c-3,0.7-6.2,0.9-9.3,0.8c-2-0.3-4.5-2.7-7.5-3.2
		s-6.6-0.3-7.7,1.6s-5.2,1.1-7,1.1s-4.1,2.7-4.5,1.6c0,0,1.4-4.8,0-5.4s0.5-3.7,1.8-4.8s3-3.7,4.3-6.4s3.2-2.9,4.3-2.7
		s3.6,5.1,4.3,6.7s3-0.5,3.9-1.1c1.2-0.8,2.1-2.1,2.5-3.5c0.2-1.3,2.3-2.1,4.5-2.1s0.2,2.1-1.4,2.7s-0.7,1.6,2,2.7s5.2,4,8.2,5.9
		S599,236.5,597.2,237z M632.5,223.9c-0.9,0.8-5,1.6-6.3,0s-4.5,0.3-4.8,3.2s0.9,0.8,2.3,1.9s1.8,2.7,2.7,4.3s2.5,1.1,3.6,2.4
		s-3.2,2.9-1.4,4.6s2.7,8,3,9.6s-5,2.4-6.6,2.1s-6.3-2.1-7.9-2.7s-2.5-7.2-0.5-7s2.5-0.5,4.8-2.9s-3.4-3.5-5-4s-4.8-6.4-5.9-8.3
		s-0.2-4.8,2.5-7c1.4-1.1,5,1.3,6.8,0s3.6-2.9,4.3-3.5s5.2,0.8,5.9,2.4S633.4,223.1,632.5,223.9L632.5,223.9z M624.6,141.8
		c1.4,0.5,4.3,0.8,6.8,2.4s6,2.2,7.7,0.3c1.4-1.6,0.2-4.3-0.9-4.5s-1.8-2.4,1.1-4.3s6.1-4.3,9.5-4.8s11.1-0.8,13.8,0
		s6.8-3.5,7.9-5.3s-3.6-3.2-5-1.1s-7.9,1.6-9.3,1.1s-12.2,2.1-14.5,2.1s-3.2,3.2-6.3,4.8s-7.5,4-9.1,4.8S623.2,141.3,624.6,141.8
		L624.6,141.8z M870.5,227.4c-0.9,0.3-2.5-2.9-4.3-2.4s-2.3,3.2-2.3,4s-6.3,2.4-4.3,4.6s4.1,0.5,7.2,0.3c2.1-0.2,4.1-0.7,6.1-1.3
		c0,0,4.8,0.3,4.1-2.4S871.4,227.1,870.5,227.4L870.5,227.4z M855.5,250.6c-0.9,0-5.7,2.1-7,3.7s-7.9-1.3-8.8,0
		c-1.2,1.5-2.4,2.8-3.9,4c-1.1,1.1-4.3,0.3-3.6,3.5s2.3,6.1,3.6,6.1s3.2-1.1,3.2-4s3.2,0,4.8-0.3s2.5-2.1,3.2-4.3
		c0.1-0.3,0.1-0.4,0.2-0.5c-0.2,1.1,0.6,2.2,1.7,2.4c2.7,0.8,3.6-1.3,3.6-2.1s5-2.1,5.9-2.9s4.5-2.1,4.8-3.2s0-7.2,1.1-7.8
		s2.7-0.5,0.9-4.3s-1.8-7.2-4.1-5.6c-1.7,1.2-0.7,5.9-2,9.1S856.4,250.6,855.5,250.6L855.5,250.6z M811,288
		c-3.3,0.6-5.4,9.1-2.7,8.8S814,287.5,811,288L811,288z M961,485.6c-0.9,0-1.4,1.3-3.4,0s-1.6-0.8-3-3.5s-1.6-6.1-3.8-4.8
		c-0.9,0.5,0,3.5,0.9,4.5s1.4,4.8,1.1,5.9s-4.1,2.4-2.3,3.7s5.2,0,4.8,1.6s-2.3,3.8-0.2,4.3s2.7-1.9,3.6-3.7s1.6-3.5,3.2-4.5
		S962,485.6,961,485.6L961,485.6z M949,494.4c-0.4,1.3-2.3,1.6-3.6,2.9s0,1.9-3.9,4.5s-8.6,5.6-9.5,8c-0.9,2.4,0.9,3.7,4.5,4
		s2.7,1.1,5.2-2.1c2.3-2.8,4.9-5.4,7.7-7.8c1.8-1.8,2.9-4.2,3-6.7C952.4,497.3,949.3,493.6,949,494.4L949,494.4z M877,497.9
		c-1.2-0.4-2.4-0.8-3.6-1.3c-2.5,2.9,2.5,2.9,1.8,5.9s3.4,1.9,4.5,1.3s3.8-6.7,3.4-8.3S878.2,498.2,877,497.9z M889.1,432.3
		c0.2-2.4-7.6-2.3-9.7-4.1s-2.3-7.5-3.4-10.7s-3.4-5.3-5.7-8.3s-3.4-9.6-4.1-9.1s-2.7,8.3-1.1,10.7s-0.7,7.2-1.8,10.4
		s-3.8-0.5-6.1-2.1s-5.4-2.7-7-4.5s2.7-7,1.6-8.8s-7.2-0.3-7.9-0.3s-2-2.7-3.4-2.7s-1.1,5.4-1.1,5.4s-1.4-1.9-3.4-4.3s0.2,1.6-1.8,4
		s-1.4,1.6-2.3,4.3s-2.9,1.6-5-1.1s-3.2-0.8-4.5,0s-2.5,5.4-3.2,6.4s-7.2-1.9-8.3-0.6s0.2,9.9,0.2,11s-4.8,0.5-6.3,1.9
		s-4.1,0.5-5.7,0.5s-7,5.1-8.8,6.4s-4.9,6.1-4,7.5s5.8,4.5,4.7,5.1s-1.8,4.3,0.9,7.5s1.8,4,2,5.6s1.4,2.1,3.2,4.8s-3.2,4.8-3.8,6.4
		s1.6,4,3,5.4s4.8,0.5,6.8-0.3s4.3-2.9,5.7-3.2s9.1,2.3,9.1,2.3s0.9-6.8,2.5-8.9s6.6-0.3,6.6-0.3s2-1.6,7.5-2.9s3.2,1.3,5.2,2.1
		s4.8,1.3,6.3,2.7s0,4.5-0.2,5.9s3.8,0.8,4.1-0.5s1.4-2.7,3.6-4.3s0.5,2.4,1.4,4.8s2.3-3.3,2.3-0.5c0,0.8,0.7,1.6,0.9,2.4
		s3.2,1.1,3.2,3.7s0,4.3,0.7,4.8s4.3,0,5.9,3.2s2.7,0.3,3.6-1.1s4.1,0.5,5,1.6s3.4-2.1,6.8-3.2s3-0.8,3.8-2.4s1.6-5.9,3.6-9.1
		s9.3-8.1,9.3-12.4s-4.8-14.9-7.3-19.5S889,434.7,889.1,432.3L889.1,432.3z M967.4,417.7c-2-0.8-6.1,5.6-6.1,5.6
		C964.3,424.7,969.5,418.5,967.4,417.7L967.4,417.7z M932.5,436.7c0.2-1.3-0.5-3.2-4.5-4.3s-1.4,0.8,0,3.2S932.1,439.3,932.5,436.7
		L932.5,436.7z M770.5,376.6c1.1-1.6,0.7-4-1.1-3.7s-3.4-3.5-6.3-5.9s-5.2-4-7.9-7.5s-6.1-5.6-7.9-7.5s-4.5-2.7-5.7-2.4
		c-2.8,0.7,4.1,6.4,4.8,7.2s6.8,7,6.8,9.9s2,12.1,3.1,13.2s8.9,2.9,9.8,5s2.9,2.7,2.9-0.3S769.4,378.1,770.5,376.6L770.5,376.6z
		 M753.3,346.4c1,4,2.5,7.8,4.3,11.5c0.9,1.9,4.8,4.5,6.1,5.9s3.4-0.5,2.5-2.1s-2.7-4-3-5.9c-0.6-2.8-1.7-5.5-3.2-8
		c-1.8-3.2-3.4-4-4.5-6.1s-5.2-6.1-5.2-6.1c-1.8,0.3-1.8,4.3-0.9,5.6S752.2,341.5,753.3,346.4L753.3,346.4z M793,393.7
		c0.2-1.6-2.5-4-3.6-4c-2.3-0.4-4.6-0.9-6.8-1.6c-1,0.5-2.4,0.9-2.8,1.6c-0.2-0.3-0.5-0.6-0.8-0.8c-2.5-1.6-5.4,0-6.3-2.1
		s-2.3-2.1-3.2-0.8c-1.7,2.4,0.5,4.3,1.1,4.8s3.2,1.1,5.5,0.8c1.4-0.2,3.2-0.5,3.7-1.2c0.1,0.4,0.3,0.7,0.6,0.9
		c1.8,1.9,3,2.7,5.7,2.4S792.7,395.3,793,393.7z M804.8,396.9c-0.5,2.4,3.4,3.5,3.6,0.8c0.2-1-0.4-2-1.4-2.2S805,395.9,804.8,396.9
		L804.8,396.9z M821.8,397.1c0,0,3.6-0.5,3.6-2.4s-3.6-4.3-5-2.1s-3.8,4.3-3.6,6.1C817.1,401.7,821.7,397.1,821.8,397.1L821.8,397.1
		z M804.6,379.2c1.8,1.3,5.2-4.5,6.1-2.7s-0.2,2.7,1.4,5.1c1,1.4,2.8,2.3,4.5,2.1c0,0-0.2-6.4-2.7-8s-4.1-3.5-1.1-2.9
		s4.5-0.8,3.9-2.4s-5-0.8-6.3-0.5s-3.4-1.1-3.4-1.1c-1.4,0.5-1.1,1.9-1.6,4.5S802.7,377.9,804.6,379.2L804.6,379.2z M820.9,362.4
		c-2.7,0.4-5.4,0.9-8,1.6c-0.7,0.3-4.8-0.5-4.8-0.5c-1.6,1.9-0.5,3.7,2,3.5s7.7-1.1,8.8-1.1S821.7,362.4,820.9,362.4L820.9,362.4z
		 M831.3,359.7c-2.1-1-5.9,8.8-3.2,9.6S832.8,360.5,831.3,359.7L831.3,359.7z M794.6,351.4c-4.3,0-4.5,4-5.4,4.8s-1.8,1.1-3.6,1.6
		s-2.3,2.7-2.7,4s-3.6-2.4-4.5-1.3s-0.2,6.1,1.4,10.4s5.7,7,6.8,7c1.7-0.1,3.4,0.1,5,0.5c1.6,0.5,6.8,1.1,6.6-1.3s-0.7-6.1,1.6-8.5
		s4.5-3.7,3.4-7.2s-3.4-5.6-1.8-7.2s3.4-2.1,3.4-3.5s-3.8,3.8-4.3-5.1c-0.1-1.9-3.6,0.5-3.9,2.4S798.8,351.4,794.6,351.4
		L794.6,351.4z M805.9,318.5c1.4,3.2,6.1,5.6,5,7s-4.5,4-5,6.4s5.4-3.8,7-6.1s4.8-1.1,5.4-2.4l0.6-1.4c-1.5-0.3-3.1-0.8-4.5-1.3
		c-2-0.8-4.5,2.1-3.4-2.1s4.5-3.5,3.9-6.7s-3-4-3.6-4c-1.6,0,0.2,2.9-2,4.8S804.5,315.3,805.9,318.5L805.9,318.5z M813.2,336.2
		c2.5,0,6.8,0.8,5.9-0.5s-3.2-5.6-5.7-4.5C812.6,331.4,810.6,336.2,813.2,336.2L813.2,336.2z M820.9,327.1c-0.9-0.1-3.8,5.6,0.2,5.3
		S824,327.4,820.9,327.1L820.9,327.1z M821.6,337c-3.2,4.8-3,3.7-5.2,2.7s-5.9,2.4-5.2,3.8s5.7-0.3,6.8,2.1s1.1,2.7,3.4,2.1
		s4.5-4.3,3.9-6.1S821.5,337,821.6,337L821.6,337z M858,389.9c-1.8,0-3.8,2.7-2.5,2.9s5.4-0.8,5.7,0s2.5,5.9,4.8,5.6
		s3.6-5.1,4.8-6.4s5.7-2.1,6.1,0.3c0.5,2.7,2.2,5.1,4.5,6.4c2.7,1.6,5.9,3.2,6.1,1.9s-1.4-6.4-3.2-7.2s-5-5.3-5-7.2
		s-2.7-2.4-4.1-3.7s-2.5-5.1-5.9-5.9s-4.3-2.1-7.9-4.3s-11.8-2.1-12-0.8s0,0-2.7-1.1s-4.8,0-5.4-1.9s-2.3-2.4-4.3,0
		c-1.7,2-2.5,2.1,1.4,3s5,0.8,3.4,2.9s-2.7,4.8-1.4,5.1s5.4-1.1,5.9,0s-0.9,1.3,3.6,2.1s5.4,2.7,6.3,3.7S859.8,389.9,858,389.9z"/>
	<g>
		<polygon class="st1" points="548.2,211.8 533.8,220.1 519.3,211.8 533.8,203.4 		"/>
		
			<linearGradient id="SVGID_1_" gradientUnits="userSpaceOnUse" x1="541" y1="480.17" x2="541" y2="398.4" gradientTransform="matrix(1 0 0 -1 0 616)">
			<stop  offset="0" style="stop-color:#FFFFFF;stop-opacity:0"/>
			<stop  offset="1" style="stop-color:#FFFFFF"/>
		</linearGradient>
		<polygon class="st2" points="548.2,132.4 533.8,132 533.8,211.8 548.2,211.8 		"/>
		
			<linearGradient id="SVGID_2_" gradientUnits="userSpaceOnUse" x1="526.54" y1="480.17" x2="526.54" y2="398.4" gradientTransform="matrix(1 0 0 -1 0 616)">
			<stop  offset="0" style="stop-color:#FFFFFF;stop-opacity:0"/>
			<stop  offset="1" style="stop-color:#FFFFFF"/>
		</linearGradient>
		<polygon class="st3" points="533.8,132 519.3,133.9 519.3,211.8 533.8,211.8 		"/>
		
			<linearGradient id="SVGID_3_" gradientUnits="userSpaceOnUse" x1="509.3406" y1="404.2149" x2="558.2101" y2="404.2149" gradientTransform="matrix(1 0 0 -1 0 616)">
			<stop  offset="0" style="stop-color:#2CD4D9;stop-opacity:0"/>
			<stop  offset="0.58" style="stop-color:#2CD4D9;stop-opacity:0.5"/>
			<stop  offset="1" style="stop-color:#2CD4D9;stop-opacity:0.1"/>
		</linearGradient>
		<polygon class="st4" points="556.2,211.8 533.8,224.7 511.3,211.8 533.8,198.8 		"/>
		
			<linearGradient id="SVGID_4_" gradientUnits="userSpaceOnUse" x1="484.2999" y1="404.2149" x2="583.2504" y2="404.2149" gradientTransform="matrix(1 0 0 -1 0 616)">
			<stop  offset="0" style="stop-color:#2CD4D9;stop-opacity:0"/>
			<stop  offset="0.58" style="stop-color:#2CD4D9;stop-opacity:0.5"/>
			<stop  offset="1" style="stop-color:#2CD4D9;stop-opacity:0.1"/>
		</linearGradient>
		<polygon class="st5" points="581.2,211.8 533.8,239.2 486.3,211.8 533.8,184.4 		"/>
	</g>
	<g>
		<polygon class="st1" points="288.4,246.3 273.9,254.7 259.5,246.3 273.9,238 		"/>
		
			<linearGradient id="SVGID_5_" gradientUnits="userSpaceOnUse" x1="281.14" y1="445.62" x2="281.14" y2="363.85" gradientTransform="matrix(1 0 0 -1 0 616)">
			<stop  offset="0" style="stop-color:#FFFFFF;stop-opacity:0"/>
			<stop  offset="1" style="stop-color:#FFFFFF"/>
		</linearGradient>
		<polygon class="st6" points="288.4,166.9 273.9,166.5 273.9,246.3 288.4,246.3 		"/>
		
			<linearGradient id="SVGID_6_" gradientUnits="userSpaceOnUse" x1="266.68" y1="445.62" x2="266.68" y2="363.85" gradientTransform="matrix(1 0 0 -1 0 616)">
			<stop  offset="0" style="stop-color:#FFFFFF;stop-opacity:0"/>
			<stop  offset="1" style="stop-color:#FFFFFF"/>
		</linearGradient>
		<polygon class="st7" points="273.9,166.5 259.5,168.4 259.5,246.3 273.9,246.3 		"/>
		
			<linearGradient id="SVGID_7_" gradientUnits="userSpaceOnUse" x1="249.4699" y1="369.6649" x2="298.3501" y2="369.6649" gradientTransform="matrix(1 0 0 -1 0 616)">
			<stop  offset="0" style="stop-color:#2CD4D9;stop-opacity:0"/>
			<stop  offset="0.58" style="stop-color:#2CD4D9;stop-opacity:0.5"/>
			<stop  offset="1" style="stop-color:#2CD4D9;stop-opacity:0.1"/>
		</linearGradient>
		<polygon class="st8" points="296.4,246.3 273.9,259.3 251.5,246.3 273.9,233.4 		"/>
		
			<linearGradient id="SVGID_8_" gradientUnits="userSpaceOnUse" x1="224.4302" y1="369.67" x2="323.3905" y2="369.67" gradientTransform="matrix(1 0 0 -1 0 616)">
			<stop  offset="0" style="stop-color:#2CD4D9;stop-opacity:0"/>
			<stop  offset="0.58" style="stop-color:#2CD4D9;stop-opacity:0.5"/>
			<stop  offset="1" style="stop-color:#2CD4D9;stop-opacity:0.1"/>
		</linearGradient>
		<polygon class="st9" points="321.4,246.3 273.9,273.7 226.4,246.3 273.9,218.9 		"/>
	</g>
	<g>
		<polygon class="st1" points="185.5,243.1 171,251.5 156.6,243.1 171,234.8 		"/>
		
			<linearGradient id="SVGID_9_" gradientUnits="userSpaceOnUse" x1="178.24" y1="448.83" x2="178.24" y2="367.06" gradientTransform="matrix(1 0 0 -1 0 616)">
			<stop  offset="0" style="stop-color:#FFFFFF;stop-opacity:0"/>
			<stop  offset="1" style="stop-color:#FFFFFF"/>
		</linearGradient>
		<polygon class="st10" points="185.5,163.7 171,163.3 171,243.1 185.5,243.1 		"/>
		
			<linearGradient id="SVGID_10_" gradientUnits="userSpaceOnUse" x1="163.78" y1="448.83" x2="163.78" y2="367.06" gradientTransform="matrix(1 0 0 -1 0 616)">
			<stop  offset="0" style="stop-color:#FFFFFF;stop-opacity:0"/>
			<stop  offset="1" style="stop-color:#FFFFFF"/>
		</linearGradient>
		<polygon class="st11" points="171,163.3 156.6,165.2 156.6,243.1 171,243.1 		"/>
		
			<linearGradient id="SVGID_11_" gradientUnits="userSpaceOnUse" x1="146.5806" y1="372.8749" x2="195.4501" y2="372.8749" gradientTransform="matrix(1 0 0 -1 0 616)">
			<stop  offset="0" style="stop-color:#2CD4D9;stop-opacity:0"/>
			<stop  offset="0.58" style="stop-color:#2CD4D9;stop-opacity:0.5"/>
			<stop  offset="1" style="stop-color:#2CD4D9;stop-opacity:0.1"/>
		</linearGradient>
		<polygon class="st12" points="193.4,243.1 171,256.1 148.6,243.1 171,230.2 		"/>
		
			<linearGradient id="SVGID_12_" gradientUnits="userSpaceOnUse" x1="121.5405" y1="372.8749" x2="220.4899" y2="372.8749" gradientTransform="matrix(1 0 0 -1 0 616)">
			<stop  offset="0" style="stop-color:#2CD4D9;stop-opacity:0"/>
			<stop  offset="0.58" style="stop-color:#2CD4D9;stop-opacity:0.5"/>
			<stop  offset="1" style="stop-color:#2CD4D9;stop-opacity:0.1"/>
		</linearGradient>
		<polygon class="st13" points="218.5,243.1 171,270.5 123.5,243.1 171,215.7 		"/>
	</g>
	<g>
		<polygon class="st1" points="688,285.5 673.6,293.8 659.1,285.5 673.6,277.1 		"/>
		
			<linearGradient id="SVGID_13_" gradientUnits="userSpaceOnUse" x1="680.82" y1="406.46" x2="680.82" y2="324.7" gradientTransform="matrix(1 0 0 -1 0 616)">
			<stop  offset="0" style="stop-color:#FFFFFF;stop-opacity:0"/>
			<stop  offset="1" style="stop-color:#FFFFFF"/>
		</linearGradient>
		<polygon class="st14" points="688,206.1 673.6,205.7 673.6,285.5 688,285.5 		"/>
		
			<linearGradient id="SVGID_14_" gradientUnits="userSpaceOnUse" x1="666.36" y1="406.46" x2="666.36" y2="324.7" gradientTransform="matrix(1 0 0 -1 0 616)">
			<stop  offset="0" style="stop-color:#FFFFFF;stop-opacity:0"/>
			<stop  offset="1" style="stop-color:#FFFFFF"/>
		</linearGradient>
		<polygon class="st15" points="673.6,205.7 659.1,207.6 659.1,285.5 673.6,285.5 		"/>
		
			<linearGradient id="SVGID_15_" gradientUnits="userSpaceOnUse" x1="649.1494" y1="330.51" x2="698.0307" y2="330.51" gradientTransform="matrix(1 0 0 -1 0 616)">
			<stop  offset="0" style="stop-color:#2CD4D9;stop-opacity:0"/>
			<stop  offset="0.58" style="stop-color:#2CD4D9;stop-opacity:0.5"/>
			<stop  offset="1" style="stop-color:#2CD4D9;stop-opacity:0.1"/>
		</linearGradient>
		<polygon class="st16" points="696,285.5 673.6,298.4 651.2,285.5 673.6,272.5 		"/>
		
			<linearGradient id="SVGID_16_" gradientUnits="userSpaceOnUse" x1="624.1099" y1="330.5099" x2="723.0701" y2="330.5099" gradientTransform="matrix(1 0 0 -1 0 616)">
			<stop  offset="0" style="stop-color:#2CD4D9;stop-opacity:0"/>
			<stop  offset="0.58" style="stop-color:#2CD4D9;stop-opacity:0.5"/>
			<stop  offset="1" style="stop-color:#2CD4D9;stop-opacity:0.1"/>
		</linearGradient>
		<polygon class="st17" points="721.1,285.5 673.6,312.9 626.1,285.5 673.6,258.1 		"/>
	</g>
	<g>
		<polygon class="st1" points="868.1,442.4 853.7,450.8 839.2,442.4 853.7,434.1 		"/>
		
			<linearGradient id="SVGID_17_" gradientUnits="userSpaceOnUse" x1="860.89" y1="249.52" x2="860.89" y2="167.76" gradientTransform="matrix(1 0 0 -1 0 616)">
			<stop  offset="0" style="stop-color:#FFFFFF;stop-opacity:0"/>
			<stop  offset="1" style="stop-color:#FFFFFF"/>
		</linearGradient>
		<polygon class="st18" points="868.1,363 853.7,362.6 853.7,442.4 868.1,442.4 		"/>
		
			<linearGradient id="SVGID_18_" gradientUnits="userSpaceOnUse" x1="846.43" y1="249.52" x2="846.43" y2="167.76" gradientTransform="matrix(1 0 0 -1 0 616)">
			<stop  offset="0" style="stop-color:#FFFFFF;stop-opacity:0"/>
			<stop  offset="1" style="stop-color:#FFFFFF"/>
		</linearGradient>
		<polygon class="st19" points="853.7,362.6 839.2,364.5 839.2,442.4 853.7,442.4 		"/>
		
			<linearGradient id="SVGID_19_" gradientUnits="userSpaceOnUse" x1="829.2306" y1="173.5749" x2="878.1" y2="173.5749" gradientTransform="matrix(1 0 0 -1 0 616)">
			<stop  offset="0" style="stop-color:#2CD4D9;stop-opacity:0"/>
			<stop  offset="0.58" style="stop-color:#2CD4D9;stop-opacity:0.5"/>
			<stop  offset="1" style="stop-color:#2CD4D9;stop-opacity:0.1"/>
		</linearGradient>
		<polygon class="st20" points="876.1,442.4 853.7,455.4 831.2,442.4 853.7,429.5 		"/>
		
			<linearGradient id="SVGID_20_" gradientUnits="userSpaceOnUse" x1="804.1799" y1="173.5699" x2="903.1401" y2="173.5699" gradientTransform="matrix(1 0 0 -1 0 616)">
			<stop  offset="0" style="stop-color:#2CD4D9;stop-opacity:0"/>
			<stop  offset="0.58" style="stop-color:#2CD4D9;stop-opacity:0.5"/>
			<stop  offset="1" style="stop-color:#2CD4D9;stop-opacity:0.1"/>
		</linearGradient>
		<polygon class="st21" points="901.1,442.4 853.7,469.8 806.2,442.4 853.7,415 		"/>
	</g>
	<g>
		<polygon class="st1" points="311.8,360.9 297.4,369.3 282.9,360.9 297.4,352.6 		"/>
		
			<linearGradient id="SVGID_21_" gradientUnits="userSpaceOnUse" x1="304.6" y1="331.03" x2="304.6" y2="249.27" gradientTransform="matrix(1 0 0 -1 0 616)">
			<stop  offset="0" style="stop-color:#FFFFFF;stop-opacity:0"/>
			<stop  offset="1" style="stop-color:#FFFFFF"/>
		</linearGradient>
		<polygon class="st22" points="311.8,281.5 297.4,281.1 297.4,360.9 311.8,360.9 		"/>
		
			<linearGradient id="SVGID_22_" gradientUnits="userSpaceOnUse" x1="290.14" y1="331.03" x2="290.14" y2="249.27" gradientTransform="matrix(1 0 0 -1 0 616)">
			<stop  offset="0" style="stop-color:#FFFFFF;stop-opacity:0"/>
			<stop  offset="1" style="stop-color:#FFFFFF"/>
		</linearGradient>
		<polygon class="st23" points="297.4,281.1 282.9,283 282.9,360.9 297.4,360.9 		"/>
		
			<linearGradient id="SVGID_23_" gradientUnits="userSpaceOnUse" x1="272.94" y1="255.08" x2="321.8107" y2="255.08" gradientTransform="matrix(1 0 0 -1 0 616)">
			<stop  offset="0" style="stop-color:#2CD4D9;stop-opacity:0"/>
			<stop  offset="0.58" style="stop-color:#2CD4D9;stop-opacity:0.5"/>
			<stop  offset="1" style="stop-color:#2CD4D9;stop-opacity:0.1"/>
		</linearGradient>
		<polygon class="st24" points="319.8,360.9 297.4,373.9 274.9,360.9 297.4,348 		"/>
		
			<linearGradient id="SVGID_24_" gradientUnits="userSpaceOnUse" x1="247.8899" y1="255.0799" x2="346.8502" y2="255.0799" gradientTransform="matrix(1 0 0 -1 0 616)">
			<stop  offset="0" style="stop-color:#2CD4D9;stop-opacity:0"/>
			<stop  offset="0.58" style="stop-color:#2CD4D9;stop-opacity:0.5"/>
			<stop  offset="1" style="stop-color:#2CD4D9;stop-opacity:0.1"/>
		</linearGradient>
		<polygon class="st25" points="344.9,360.9 297.4,388.3 249.9,360.9 297.4,333.5 		"/>
	</g>
	<g>
		<polygon class="st1" points="758.4,137.5 744,145.9 729.5,137.5 744,129.2 		"/>
		
			<linearGradient id="SVGID_25_" gradientUnits="userSpaceOnUse" x1="751.2" y1="554.43" x2="751.2" y2="472.67" gradientTransform="matrix(1 0 0 -1 0 616)">
			<stop  offset="0" style="stop-color:#FFFFFF;stop-opacity:0"/>
			<stop  offset="1" style="stop-color:#FFFFFF"/>
		</linearGradient>
		<polygon class="st26" points="758.4,58.1 744,57.7 744,137.5 758.4,137.5 		"/>
		
			<linearGradient id="SVGID_26_" gradientUnits="userSpaceOnUse" x1="736.74" y1="554.43" x2="736.74" y2="472.67" gradientTransform="matrix(1 0 0 -1 0 616)">
			<stop  offset="0" style="stop-color:#FFFFFF;stop-opacity:0"/>
			<stop  offset="1" style="stop-color:#FFFFFF"/>
		</linearGradient>
		<polygon class="st27" points="744,57.7 729.5,59.6 729.5,137.5 744,137.5 		"/>
		
			<linearGradient id="SVGID_27_" gradientUnits="userSpaceOnUse" x1="719.5294" y1="478.48" x2="768.4106" y2="478.48" gradientTransform="matrix(1 0 0 -1 0 616)">
			<stop  offset="0" style="stop-color:#2CD4D9;stop-opacity:0"/>
			<stop  offset="0.58" style="stop-color:#2CD4D9;stop-opacity:0.5"/>
			<stop  offset="1" style="stop-color:#2CD4D9;stop-opacity:0.1"/>
		</linearGradient>
		<polygon class="st28" points="766.4,137.5 744,150.5 721.5,137.5 744,124.6 		"/>
		
			<linearGradient id="SVGID_28_" gradientUnits="userSpaceOnUse" x1="694.4902" y1="478.4799" x2="793.4504" y2="478.4799" gradientTransform="matrix(1 0 0 -1 0 616)">
			<stop  offset="0" style="stop-color:#2CD4D9;stop-opacity:0"/>
			<stop  offset="0.58" style="stop-color:#2CD4D9;stop-opacity:0.5"/>
			<stop  offset="1" style="stop-color:#2CD4D9;stop-opacity:0.1"/>
		</linearGradient>
		<polygon class="st29" points="791.5,137.5 744,164.9 696.5,137.5 744,110.1 		"/>
	</g>
	<g>
		<polygon class="st1" points="224.1,307 209.7,315.4 195.2,307 209.7,298.7 		"/>
		
			<linearGradient id="SVGID_29_" gradientUnits="userSpaceOnUse" x1="216.9" y1="384.91" x2="216.9" y2="303.14" gradientTransform="matrix(1 0 0 -1 0 616)">
			<stop  offset="0" style="stop-color:#FFFFFF;stop-opacity:0"/>
			<stop  offset="1" style="stop-color:#FFFFFF"/>
		</linearGradient>
		<polygon class="st30" points="224.1,227.6 209.7,227.2 209.7,307 224.1,307 		"/>
		
			<linearGradient id="SVGID_30_" gradientUnits="userSpaceOnUse" x1="202.44" y1="384.91" x2="202.44" y2="303.14" gradientTransform="matrix(1 0 0 -1 0 616)">
			<stop  offset="0" style="stop-color:#FFFFFF;stop-opacity:0"/>
			<stop  offset="1" style="stop-color:#FFFFFF"/>
		</linearGradient>
		<polygon class="st31" points="209.7,227.2 195.2,229.1 195.2,307 209.7,307 		"/>
		
			<linearGradient id="SVGID_31_" gradientUnits="userSpaceOnUse" x1="185.2306" y1="308.9549" x2="234.1001" y2="308.9549" gradientTransform="matrix(1 0 0 -1 0 616)">
			<stop  offset="0" style="stop-color:#2CD4D9;stop-opacity:0"/>
			<stop  offset="0.58" style="stop-color:#2CD4D9;stop-opacity:0.5"/>
			<stop  offset="1" style="stop-color:#2CD4D9;stop-opacity:0.1"/>
		</linearGradient>
		<polygon class="st32" points="232.1,307 209.7,320 187.2,307 209.7,294.1 		"/>
		
			<linearGradient id="SVGID_32_" gradientUnits="userSpaceOnUse" x1="160.1902" y1="308.9499" x2="259.1505" y2="308.9499" gradientTransform="matrix(1 0 0 -1 0 616)">
			<stop  offset="0" style="stop-color:#2CD4D9;stop-opacity:0"/>
			<stop  offset="0.58" style="stop-color:#2CD4D9;stop-opacity:0.5"/>
			<stop  offset="1" style="stop-color:#2CD4D9;stop-opacity:0.1"/>
		</linearGradient>
		<polygon class="st33" points="257.1,307 209.7,334.5 162.2,307 209.7,279.6 		"/>
	</g>
	<g>
		<polygon class="st1" points="492.1,277.7 477.6,286 463.1,277.7 477.6,269.3 		"/>
		
			<linearGradient id="SVGID_33_" gradientUnits="userSpaceOnUse" x1="484.84" y1="414.28" x2="484.84" y2="332.51" gradientTransform="matrix(1 0 0 -1 0 616)">
			<stop  offset="0" style="stop-color:#FFFFFF;stop-opacity:0"/>
			<stop  offset="1" style="stop-color:#FFFFFF"/>
		</linearGradient>
		<polygon class="st34" points="492.1,198.2 477.6,197.9 477.6,277.7 492.1,277.7 		"/>
		
			<linearGradient id="SVGID_34_" gradientUnits="userSpaceOnUse" x1="470.38" y1="414.28" x2="470.38" y2="332.51" gradientTransform="matrix(1 0 0 -1 0 616)">
			<stop  offset="0" style="stop-color:#FFFFFF;stop-opacity:0"/>
			<stop  offset="1" style="stop-color:#FFFFFF"/>
		</linearGradient>
		<polygon class="st35" points="477.6,197.9 463.1,199.8 463.1,277.7 477.6,277.7 		"/>
		
			<linearGradient id="SVGID_35_" gradientUnits="userSpaceOnUse" x1="453.1699" y1="338.3249" x2="502.0501" y2="338.3249" gradientTransform="matrix(1 0 0 -1 0 616)">
			<stop  offset="0" style="stop-color:#2CD4D9;stop-opacity:0"/>
			<stop  offset="0.58" style="stop-color:#2CD4D9;stop-opacity:0.5"/>
			<stop  offset="1" style="stop-color:#2CD4D9;stop-opacity:0.1"/>
		</linearGradient>
		<polygon class="st36" points="500,277.7 477.6,290.6 455.2,277.7 477.6,264.7 		"/>
		
			<linearGradient id="SVGID_36_" gradientUnits="userSpaceOnUse" x1="428.1302" y1="338.33" x2="527.0905" y2="338.33" gradientTransform="matrix(1 0 0 -1 0 616)">
			<stop  offset="0" style="stop-color:#2CD4D9;stop-opacity:0"/>
			<stop  offset="0.58" style="stop-color:#2CD4D9;stop-opacity:0.5"/>
			<stop  offset="1" style="stop-color:#2CD4D9;stop-opacity:0.1"/>
		</linearGradient>
		<polygon class="st37" points="525.1,277.7 477.6,305.1 430.1,277.7 477.6,250.3 		"/>
	</g>
</g>
</svg>
