<svg id="Layer_1" data-name="Layer 1" xmlns="http://www.w3.org/2000/svg" xmlns:xlink="http://www.w3.org/1999/xlink" viewBox="0 0 842.41 597.27"><defs><style>.cls-1{fill:#5333ed;}.cls-2,.cls-4{fill:#6c63ff;}.cls-16,.cls-2,.cls-6{opacity:0.1;}.cls-2,.cls-6,.cls-9{isolation:isolate;}.cls-3{fill:#3a3768;}.cls-5{fill:#e6e8ec;}.cls-7{fill:#ffd037;}.cls-8{fill:#a8a8a8;}.cls-9{opacity:0.2;}.cls-10{fill:url(#linear-gradient);}.cls-11{fill:url(#linear-gradient-2);}.cls-12{fill:#ffbdc6;}.cls-13{fill:#474463;}.cls-14{fill:#f2f1f2;}.cls-15{fill:#ff748e;}.cls-17{fill:#fff;}.cls-18{fill:#3acc6c;}</style><linearGradient id="linear-gradient" x1="473.84" y1="329.22" x2="473.84" y2="329.4" gradientTransform="matrix(1, 0, 0, -1, -95.23, 721.82)" gradientUnits="userSpaceOnUse"><stop offset="0" stop-color="gray" stop-opacity="0.25"/><stop offset="0.54" stop-color="gray" stop-opacity="0.12"/><stop offset="1" stop-color="gray" stop-opacity="0.1"/></linearGradient><linearGradient id="linear-gradient-2" x1="462.97" y1="232.81" x2="462.97" y2="510.46" xlink:href="#linear-gradient"/></defs><title>client-feedback</title><path class="cls-1" d="M438.12,405.2h63.6V541.6h-63.6v90H290.52v-90H44.93V440.4L216.52,71.61h160.8L220.93,405.2h69.59V355.6l44-96.4h103.6Z" transform="translate(-44.93 -71.61)"/><path class="cls-2" d="M591.25,159.11c-45.31-1.58-88.45-16.2-129.66-32.2s-82-33.74-126.23-42.21c-28.44-5.46-61-6.23-83.88,9-22.06,14.7-29.18,40-33,63.51-2.88,17.68-4.58,36.3,3.32,52.84,5.49,11.5,15.22,21.16,22,32.17,23.43,38.3,6.87,85.54-18.52,122.94-11.9,17.55-25.72,34.3-34.91,53s-13.44,40.08-5.4,59.13,27,33.07,47.53,43c41.78,20.27,91,26.06,139,29.35,106.28,7.27,213.12,4.12,319.68,1,39.44-1.17,79.05-2.35,117.84-8.45,21.55-3.39,43.78-8.76,59.43-21.73,19.85-16.47,24.77-44.36,11.47-65-22.32-34.64-84-43.25-99.62-80.42-8.58-20.47.23-43.26,12.71-62.25,26.77-40.71,71.63-76.43,74-123,1.62-32-19.94-64-53.29-79.1-34.95-15.84-83.43-13.86-109.2,12.39C677.91,150.1,631.25,160.49,591.25,159.11Z" transform="translate(-44.93 -71.61)"/><ellipse class="cls-2" cx="474.18" cy="556.21" rx="212.78" ry="28.78"/><rect class="cls-3" x="585.69" y="212.39" width="6.2" height="51.11" rx="1.6"/><rect class="cls-3" x="379.59" y="172.35" width="3.48" height="16.83" rx="1.6"/><rect class="cls-3" x="379.47" y="203.16" width="3.92" height="29.29" rx="1.6"/><rect class="cls-3" x="379.53" y="242.7" width="3.73" height="29.54" rx="1.6"/><rect class="cls-3" x="381.56" y="116.74" width="207.48" height="421.67" rx="27.29"/><path class="cls-4" d="M604.7,199.3H580.9v2.86a13.56,13.56,0,0,1-13.56,13.57h-75.7a13.58,13.58,0,0,1-13.58-13.56h0V199.3H455.78a16.47,16.47,0,0,0-16.47,16.48h0V582.56A16.47,16.47,0,0,0,455.78,599H604.7a16.48,16.48,0,0,0,16.48-16.48V215.81a16.48,16.48,0,0,0-16.45-16.51Z" transform="translate(-44.93 -71.61)"/><rect class="cls-5" x="465.29" y="129.33" width="28.97" height="5.88" rx="2.71"/><circle class="cls-5" cx="501.98" cy="132.27" r="3.34"/><path class="cls-4" d="M705.8,169.85s-58.94-3.55-52,37.75c0,0-1.4,7.3,5.23,10.61,0,0,.11-3.06,6.05-2a27.53,27.53,0,0,0,6.41.31,13.31,13.31,0,0,0,7.82-3.2h0s16.57-6.85,23-33.92c0,0,4.77-5.91,4.58-7.43L697,176.2s3.4,7.18.7,13.14c0,0-.32-12.88-2.23-12.6-.39.06-5.17,2.48-5.17,2.48s5.85,12.5,1.44,21.59c0,0,1.67-15.4-3.26-20.68l-7,4.09s6.83,12.9,2.19,23.44c0,0,1.19-16.16-3.67-22.45l-6.34,4.95s6.42,12.72,2.5,21.45c0,0-.51-18.8-3.88-20.22,0,0-5.55,4.9-6.39,6.9,0,0,4.39,9.24,1.66,14.11,0,0-1.67-12.53-3-12.6,0,0-5.53,8.31-6.11,14,0,0,.24-8.46,4.77-14.78,0,0-5.35.92-8.47,4.38,0,0,.86-5.86,9.84-6.38,0,0,4.57-6.3,5.78-6.68,0,0-8.91-.75-14.32,1.65,0,0,4.76-5.53,16-3l6.27-5.12s-11.75-1.6-16.73.17c0,0,5.73-4.9,18.41-1.33l6.82-4.08s-10-2.15-16-1.4c0,0,6.3-3.39,18,.29l4.9-2.19s-7.33-1.44-9.48-1.67-2.26-.82-2.26-.82a25.35,25.35,0,0,1,13.78,1.53S706,170.5,705.8,169.85Z" transform="translate(-44.93 -71.61)"/><path class="cls-4" d="M645.34,151.48s-26.6-1.6-23.49,17.06a4.56,4.56,0,0,0,2.37,4.8s0-1.4,2.73-.92a12.25,12.25,0,0,0,2.9.14,6,6,0,0,0,3.53-1.46h0s7.49-3.09,10.4-15.33c0,0,2.15-2.66,2.07-3.35l-4.5,1.92s1.54,3.24.33,5.94c0,0-.14-5.82-1-5.69-.17,0-2.33,1.13-2.33,1.13s2.64,5.65.65,9.75c0,0,.75-7-1.48-9.35L634.35,158s3.08,5.83,1,10.59c0,0,.54-7.3-1.66-10.14l-2.86,2.24s2.9,5.75,1.13,9.69c0,0-.24-8.49-1.75-9.14a17.69,17.69,0,0,0-2.9,3.12s2,4.2.76,6.38c0,0-.76-5.66-1.4-5.69,0,0-2.5,3.75-2.76,6.3a13.69,13.69,0,0,1,2.16-6.68,7.53,7.53,0,0,0-3.83,2s.39-2.65,4.44-2.88c0,0,2.1-2.85,2.62-3,0,0-4-.33-6.47.75,0,0,2.15-2.5,7.21-1.36l2.8-2.31s-5.32-.7-7.56.08c0,0,2.59-2.22,8.32-.61l3.08-1.84a28.09,28.09,0,0,0-7.22-.62s2.85-1.53,8.12.13l2.21-1s-3.32-.65-4.29-.76-1-.37-1-.37a11.45,11.45,0,0,1,6.23.7S645.43,151.78,645.34,151.48Z" transform="translate(-44.93 -71.61)"/><ellipse class="cls-2" cx="740.65" cy="550.86" rx="18.85" ry="3.18"/><ellipse class="cls-2" cx="199.5" cy="577" rx="18.85" ry="3.18"/><ellipse class="cls-2" cx="272.42" cy="594.08" rx="18.85" ry="3.18"/><ellipse class="cls-4" cx="699.39" cy="584.99" rx="28.15" ry="4.76"/><path class="cls-4" d="M756,648.81a8.19,8.19,0,0,0,2.68-4,3.61,3.61,0,0,0-1.88-4.12c-1.72-.66-3.56.54-5,1.74s-3,2.58-4.83,2.32a7.31,7.31,0,0,0,2.28-6.86,2.81,2.81,0,0,0-.64-1.4c-1-1-2.69-.59-3.83.22-3.64,2.56-4.65,7.5-4.67,12a22.29,22.29,0,0,1-.07-4.9c0-1.62-.46-3.5-1.85-4.36a5.59,5.59,0,0,0-2.8-.66c-1.64-.06-3.46.11-4.58,1.3-1.4,1.49-1,4,.18,5.6s3,2.67,4.74,3.8a10.4,10.4,0,0,1,3.38,3.22,2.67,2.67,0,0,1,.25.58H749.6A28.35,28.35,0,0,0,756,648.81Z" transform="translate(-44.93 -71.61)"/><path class="cls-4" d="M318.32,587.42s3.85,5-1.77,12.6-10.26,14-8.4,18.73c0,0,8.48-14.1,15.4-14.3S325.91,595.9,318.32,587.42Z" transform="translate(-44.93 -71.61)"/><path class="cls-6" d="M318.32,587.42a6.12,6.12,0,0,1,.78,1.58c6.74,7.91,10.33,15.29,3.85,15.47-6,.18-13.26,11-15,13.68a5.1,5.1,0,0,0,.2.63s8.48-14.11,15.4-14.31S325.91,595.9,318.32,587.42Z" transform="translate(-44.93 -71.61)"/><path class="cls-7" d="M325.46,593.83c0,1.77-.19,3.2-.44,3.2s-.44-1.43-.44-3.2.25-.94.49-.94S325.46,592.06,325.46,593.83Z" transform="translate(-44.93 -71.61)"/><path class="cls-7" d="M327.92,595.94c-1.55.85-2.91,1.36-3,1.14s1-1.08,2.59-1.92.95-.23,1.06,0S329.48,595.09,327.92,595.94Z" transform="translate(-44.93 -71.61)"/><path class="cls-4" d="M298,587.42s-3.85,5,1.77,12.6,10.26,14,8.4,18.73c0,0-8.48-14.1-15.4-14.3S290.4,595.9,298,587.42Z" transform="translate(-44.93 -71.61)"/><path class="cls-6" d="M298,587.42a6.15,6.15,0,0,0-.79,1.58c-6.73,7.91-10.32,15.29-3.85,15.47,6,.18,13.26,11,15,13.68q-.09.32-.21.63s-8.48-14.11-15.4-14.31S290.4,595.9,298,587.42Z" transform="translate(-44.93 -71.61)"/><path class="cls-7" d="M290.86,593.83c0,1.77.2,3.2.44,3.2s.45-1.43.45-3.2-.25-.94-.49-.94S290.86,592.06,290.86,593.83Z" transform="translate(-44.93 -71.61)"/><path class="cls-7" d="M288.41,595.94c1.55.85,2.9,1.36,3,1.14s-1.05-1.08-2.6-1.92-.94-.23-1.06,0S286.85,595.09,288.41,595.94Z" transform="translate(-44.93 -71.61)"/><path class="cls-8" d="M292.08,618.12s10.75-.34,14-2.64,16.54-5.07,17.34-1.37,16.16,18.41,4,18.5-28.21-1.89-31.45-3.85S292.08,618.12,292.08,618.12Z" transform="translate(-44.93 -71.61)"/><path class="cls-9" d="M327.66,631.33c-12.14.09-28.21-1.89-31.45-3.86-2.46-1.51-3.44-6.89-3.77-9.37h-.36s.7,8.67,3.91,10.64,19.31,4,31.45,3.86c3.5,0,4.71-1.27,4.65-3.12C331.6,630.61,330.26,631.31,327.66,631.33Z" transform="translate(-44.93 -71.61)"/><path class="cls-10" d="M378.22,392.42a.66.66,0,0,0,.77.09A2.5,2.5,0,0,1,378.22,392.42Z" transform="translate(-44.93 -71.61)"/><path class="cls-11" d="M462.1,253.12c-1.47-.44-3.57-1.14-6.11-2a33.05,33.05,0,0,0,5.67-11.57l-.22.08c.07-.26.15-.51.22-.77-4.86,2-10.24-1.4-13.67-5.75s-5.75-9.76-9.5-13.77a43.82,43.82,0,0,0-5-4.39,6.73,6.73,0,0,0-3.65-1.81c-2.19-.06-3.9,2.1-6,2.75a8.09,8.09,0,0,1-4.2-.15c-5.44-1.27-10.68-3.6-16.2-4.2a18.82,18.82,0,0,0-8.8,1c-2.8,1.08-4.06,3.21-6.3,4.9-2.43,1.83-7.26,1.79-10.13,2.1a71.54,71.54,0,0,1-10.45.44,23.8,23.8,0,0,0-6,.22c-4.16.93-7.5,4.27-10.62,7.49a5.67,5.67,0,0,0-1.75,2.8,3.62,3.62,0,0,0,0,.93,6,6,0,0,0,.42,2.45,32.35,32.35,0,0,0,4,8.16c1.27,1.85,2.75,3.58,3.5,5.77a11.65,11.65,0,0,1,.54,3.32,26.81,26.81,0,0,1-.37,3.58,45.48,45.48,0,0,1-2.7,9.51,18.09,18.09,0,0,0-1.57,5,6.37,6.37,0,0,0,0,1.07c-.21,5.48,5.25,9.43,6.3,14.89a10.29,10.29,0,0,1,.15,1.36c-.12,3.4-2,6.73-4.84,8l.74.28c-.24.15-.49.29-.74.42q.76.28,1.56.51a36.66,36.66,0,0,0-8,9.93c-9.43,17.87-73.64,52.93-73.64,52.93l.95.55-.77.5c-5.56,3.76-18.61,14.7-6.81,28.51,0,0,9.2-14.74,15.65-21,.29-.28.57-.54.85-.79a1.94,1.94,0,0,1,.25,1.52L327,343.86s15-10.66,19.19-13.06a34.29,34.29,0,0,1,9.52-4.14l-.49.22a18.38,18.38,0,0,1,4.84-.7c7.48.11,15.57,5.67,18.24,27.65,3.58,29.44,1.92,34.75.77,35.48a2.07,2.07,0,0,1-.42-.08l.11.09a1.87,1.87,0,0,1-.46-.09.65.65,0,0,0,.62.16.64.64,0,0,0,.47-.06H380c0,.27,0,.55-.06.82-.05,0-.33.16,0,.18h0c-.08,1.66-.08,3.5,0,5.36l-10.68.63.29-1.56.14-.7c2.85-.23,5.55-1.08,5.87-3.43.7-5.15-6.3-7.9-12.22-8.24s-41.53,2.06-41.53,2.06-5.34,7,11.6,9.18c.5.26,1,.56,1.56.87,6.63,3.83,15.63,10.89,19.93,14.37l.6.48-1.93,1.56c10.5,2.41,20.6,43,26.18,61.52s17.8,17.87,27.92,15.13c9.48-2.58,10.69-30.51,10.81-34v-.36l16.86,21.08,1.28,1.6,1.46.74c12.77,6.16,26.88-5.65,22.87-19.09s-10.36-33.65-14.56-42.14c-3.5-7.1-8.05-18.9-10.81-26.3a11.1,11.1,0,0,0,1-.51l-.17-.93.17-.1s-4.06-21.38-4.28-36.56v-1.3c3.05-.7,5-1,5-1l.06-.66-.36.08,1.69-19.7s6.23-13.43,1.47-19a11.91,11.91,0,0,1-2.8-5.82c-.8-5.15,0-13.72,11.11-20.86,17.1-11,23.73-19.93,23.73-19.93S472.58,256.21,462.1,253.12Zm-34,13.66v-9.1c3.17-.15,6.41.22,9.6,0a24.22,24.22,0,0,0,4.63-.78l.77.54A84.51,84.51,0,0,1,428.14,266.78ZM379.66,409.45c1.25.88,2.51,1.8,3.75,2.71.77,4.49,1.45,7.66,1.5,7.88A63.25,63.25,0,0,0,379.66,409.45Z" transform="translate(-44.93 -71.61)"/><path class="cls-12" d="M407.07,403.7l-.76,4.1-.58,3.14-1.05,5.74-10.25,7.17s-.93-.79-2.45-2c-4.2-3.46-13-10.5-19.51-14.28a21.36,21.36,0,0,0-5.36-2.47Z" transform="translate(-44.93 -71.61)"/><path class="cls-6" d="M407.07,403.7l-.76,4.1a31.24,31.24,0,0,1-6.76-.35l-23.91.35c-1.13-.07-2.18-.16-3.17-.26a21.36,21.36,0,0,0-5.36-2.47Z" transform="translate(-44.93 -71.61)"/><path class="cls-13" d="M399.55,406.75s11.95,2.05,12.65-3.05-6.15-7.86-11.95-8.2-40.65,2.05-40.65,2.05-6.15,8.19,16,9.57Z" transform="translate(-44.93 -71.61)"/><path class="cls-6" d="M407.07,403.7l-.76,4.1-.58,3.14-1.05,5.74-10.25,7.17s-.93-.79-2.45-2c-4.2-3.46-13-10.5-19.51-14.28a21.36,21.36,0,0,0-5.36-2.47Z" transform="translate(-44.93 -71.61)"/><path class="cls-6" d="M407.07,403.7l-.76,4.1a31.24,31.24,0,0,1-6.76-.35l-23.91.35c-1.13-.07-2.18-.16-3.17-.26a21.36,21.36,0,0,0-5.36-2.47Z" transform="translate(-44.93 -71.61)"/><path class="cls-6" d="M399.55,406.74s12,2,12.64-3.08-6.15-7.86-11.95-8.2-40.65,2.05-40.65,2.05-6.15,8.2,16.05,9.56Z" transform="translate(-44.93 -71.61)"/><rect class="cls-13" x="318.25" y="166.75" width="62.51" height="74.12"/><rect class="cls-6" x="318.25" y="167.09" width="62.51" height="74.12"/><path class="cls-12" d="M289.91,365.25a10.06,10.06,0,0,0-3.81,2.69c-6.3,6.24-15.32,20.88-15.32,20.88-11.54-13.74,1.23-24.6,6.67-28.33,1.32-.9,2.21-1.4,2.21-1.4Z" transform="translate(-44.93 -71.61)"/><path class="cls-12" d="M406.38,261.75s3.08,21.52,13.67,26.65-13.67,14.7-13.67,14.7l-33.13-12.31s18.79-6.15,15-24.25Z" transform="translate(-44.93 -71.61)"/><path class="cls-12" d="M370.86,391.21l-.75,4.09-.61,3.15-1.06,5.74-10.24,7.17s-.93-.79-2.45-2c-4.2-3.46-13-10.5-19.52-14.28a21.36,21.36,0,0,0-5.36-2.47Z" transform="translate(-44.93 -71.61)"/><path class="cls-6" d="M370.86,391.21l-.75,4.09a31.85,31.85,0,0,1-6.76-.35l-23.91.34c-1.13-.07-2.19-.15-3.18-.26a22.09,22.09,0,0,0-5.36-2.47Z" transform="translate(-44.93 -71.61)"/><path class="cls-13" d="M363.35,394.29s11.95,2,12.63-3.08-6.14-7.86-12-8.2-40.64,2.05-40.64,2.05-6.16,8.2,16.05,9.57Z" transform="translate(-44.93 -71.61)"/><path class="cls-6" d="M369.5,398.45l-1.06,5.74-10.24,7.17s-.93-.79-2.45-2l13.55-11.12Z" transform="translate(-44.93 -71.61)"/><path class="cls-13" d="M437.18,476.65l-1.4-.7-1.26-1.59L418,453.4v.36c-.11,3.5-1.3,31.24-10.59,33.8-9.9,2.73-21.85,3.42-27.3-15s-15.4-58.75-25.62-61.14l15.21-12.47s10.06,11.77,14.17,23c-.16-.7-7.11-33.18-1.4-38.92h49.87s7.7,21.93,13,32.79c4.11,8.44,10.27,28.38,14.24,41.88C463.5,471,449.69,482.8,437.18,476.65Z" transform="translate(-44.93 -71.61)"/><path class="cls-6" d="M435.76,389.16c-7.7,4.56-41.5,2.7-52.5,2l-3-.22c-.32,0,.05-.18.05-.18l.3-3.1,8.2-20.83,43.89-25.45c-.89,2.68-1.18,6.78-1.11,11.48C431.8,367.91,435.76,389.16,435.76,389.16Z" transform="translate(-44.93 -71.61)"/><path class="cls-14" d="M435.76,388.13c-7.7,4.56-41.5,2.7-52.5,2l-3-.21-.5,0,.55-.14,2.7-.7,5.8-23.23,43.89-25.44c-.89,2.68-1.18,6.78-1.11,11.48C431.8,366.89,435.76,388.13,435.76,388.13Z" transform="translate(-44.93 -71.61)"/><path class="cls-6" d="M431.57,351.8c-8.92,2.05-28.57,8.09-36.11,22.68-5,9.7-9.27,13.87-12.22,15.61l-3-.21a1.21,1.21,0,0,0,.05-.18l2.7-.7,5.8-23.23,43.89-25.44C431.8,343,431.5,347.1,431.57,351.8Z" transform="translate(-44.93 -71.61)"/><path class="cls-6" d="M279.66,359.1l10.25,6.15a10.06,10.06,0,0,0-3.81,2.69c-.85-2.49-6.21-6-8.65-7.45C278.77,359.6,279.66,359.1,279.66,359.1Z" transform="translate(-44.93 -71.61)"/><path class="cls-6" d="M378.41,390.28a.61.61,0,0,1-.7-.1A2.42,2.42,0,0,0,378.41,390.28Z" transform="translate(-44.93 -71.61)"/><path class="cls-15" d="M401.6,287s-9.22,1-15.71-5.81c0,0-27.3,7.86-36.55,25.62s-72.1,52.61-72.1,52.61,10.94,6.14,9.91,9.22l41.33-23.92s14.7-10.58,18.78-13,26.65-17.08,31.43,22.88,0,35.18,0,35.18,6.83,2.39,16.74-16.74,40.64-23.57,40.64-23.57l1.71-20.14s6.1-13.36,1.4-18.9a12,12,0,0,1-2.74-5.78c-.77-5.12,0-13.65,10.88-20.73,16.74-10.93,23.23-19.81,23.23-19.81s.34-6.5-9.91-9.57-51.92-19.81-51.92-19.81l-1.4,5.81,32.88,23.21s-16.39,13.3-29.4,13C410.8,276.78,413.22,286.69,401.6,287Z" transform="translate(-44.93 -71.61)"/><path class="cls-6" d="M407.93,271.12a66.17,66.17,0,0,1-1.89-8.34l-18.1,4.78a19.8,19.8,0,0,1-.41,10.44,19.46,19.46,0,0,0,20.4-6.88Z" transform="translate(-44.93 -71.61)"/><circle class="cls-12" cx="347.97" cy="186.56" r="19.47"/><path class="cls-6" d="M403.25,213.9c5.4.6,10.53,2.93,15.85,4.2a8,8,0,0,0,4.11.16c2.06-.65,3.74-2.8,5.88-2.74,1.32,0,2.49.94,3.57,1.8a43.21,43.21,0,0,1,4.9,4.37c3.67,4,5.95,9.34,9.29,13.67s8.63,7.7,13.38,5.72c-3.24,12.6-13.83,22.19-25.29,23-4.57.31-9.25-.65-13.67.7a12.18,12.18,0,0,1-3.45.84c-2.55,0-4.6-2.34-6.19-4.62-3.73-5.34-6.67-11.42-10.87-16.3-1.4-1.61-3-3.14-5-3.44s-3.76.64-5.51,1.54c-2.87,1.5-5.81,3-8,5.6s-3.64,6.37-2.71,9.8c.5,1.87,1.63,3.55,1.65,5.49,0,3.1-2.7,5.38-3.24,8.4a30.48,30.48,0,0,0-.13,3.82c-.24,4.15-2.95,7.54-5.78,10.15-1.1,1-2.32,2.1-2.64,3.67-.22,1.06,0,2.19-.14,3.27-.42,2.69-3.1,4-5.47,4.41a15.89,15.89,0,0,1-8.21-1c3.32-1.58,5.37-6,4.6-10-1.06-5.54-6.63-9.52-6.16-15.17a18.17,18.17,0,0,1,1.54-5,45.58,45.58,0,0,0,2.64-9.45,15.86,15.86,0,0,0-.17-7.54c-.7-2.18-2.16-3.9-3.4-5.73a32.89,32.89,0,0,1-3.94-8.08,5.65,5.65,0,0,1-.38-2.67A5.55,5.55,0,0,1,352,230c3-3.2,6.3-6.53,10.38-7.44a23.26,23.26,0,0,1,5.89-.23,68.64,68.64,0,0,0,10.24-.43c2.8-.33,7.54-.28,9.91-2.1,2.21-1.7,3.46-3.82,6.18-4.9A18,18,0,0,1,403.25,213.9Z" transform="translate(-44.93 -71.61)"/><path class="cls-6" d="M414.07,415s11.27,22.2,7.85,29" transform="translate(-44.93 -71.61)"/><path class="cls-6" d="M434.5,474.33,418,453.4v.36s-.95-6.77,2.19-4.5c6.89,5,17.9,13.16,18.14,14.56S436.1,470.85,434.5,474.33Z" transform="translate(-44.93 -71.61)"/><g class="cls-16"><path d="M411.17,276.78s1.4,5.77-3.11,8.66c6.93-1.19,7.24-6.58,7-8.93A21.15,21.15,0,0,1,411.17,276.78Z" transform="translate(-44.93 -71.61)"/><path d="M281.37,358.07s62.85-34.83,72.1-52.59c6.62-12.75,22.56-20.39,31-23.7-6.17,2.1-27,10-34.79,25.06-9.22,17.76-72.1,52.61-72.1,52.61Z" transform="translate(-44.93 -71.61)"/><path d="M423.4,274.07c10.7-3.33,20.92-11.63,20.92-11.63L411.5,239.2l.75-3.18-3.14-1.26-1.37,5.81,32.8,23.23A79.66,79.66,0,0,1,423.4,274.07Z" transform="translate(-44.93 -71.61)"/><path d="M423.59,352.78a82.54,82.54,0,0,1,12.85-3.25l.06-.65A86.84,86.84,0,0,0,423.59,352.78Z" transform="translate(-44.93 -71.61)"/><path d="M383.84,388.57h-.3a.62.62,0,0,1-.7-.1,2.82,2.82,0,0,0,.7.1c1.12-.65,2.8-5.76-.7-35.28-3.76-31.5-18.58-29.05-26.69-25.42,8.29-2.28,19.69-.31,22.93,26.78,3.54,29.53,1.85,34.63.7,35.28A7.56,7.56,0,0,0,383.84,388.57Z" transform="translate(-44.93 -71.61)"/><path d="M379.78,389.94a2.42,2.42,0,0,1-.7-.1A.61.61,0,0,0,379.78,389.94Z" transform="translate(-44.93 -71.61)"/></g><path class="cls-13" d="M403.25,213.21c5.4.62,10.53,2.93,15.85,4.2a7.85,7.85,0,0,0,4.11.15c2.06-.63,3.74-2.8,5.88-2.73a6.43,6.43,0,0,1,3.57,1.8,44.11,44.11,0,0,1,4.9,4.36c3.67,4,5.95,9.35,9.29,13.68s8.63,7.7,13.38,5.71c-3.24,12.6-13.83,22.2-25.29,23-4.57.32-9.25-.63-13.67.7a11.54,11.54,0,0,1-3.45.84c-2.55,0-4.6-2.33-6.19-4.61-3.73-5.35-6.67-11.42-10.87-16.29-1.4-1.62-3-3.15-5-3.45s-3.76.65-5.51,1.55c-2.87,1.49-5.81,3-8,5.6s-3.64,6.36-2.71,9.8c.5,1.86,1.63,3.54,1.65,5.49,0,3.1-2.7,5.37-3.24,8.4a30.42,30.42,0,0,0-.13,3.82c-.24,4.14-2.95,7.53-5.78,10.14-1.1,1-2.32,2.1-2.64,3.66-.22,1.07,0,2.2-.14,3.29-.42,2.68-3.1,4.05-5.47,4.4a15.88,15.88,0,0,1-8.21-1c3.32-1.57,5.37-6,4.6-10-1.06-5.54-6.63-9.52-6.16-15.16a17.8,17.8,0,0,1,1.54-5,45.41,45.41,0,0,0,2.64-9.45,15.87,15.87,0,0,0-.17-7.54c-.7-2.17-2.16-3.9-3.4-5.73a32.89,32.89,0,0,1-3.94-8.08,5.65,5.65,0,0,1-.38-2.67A5.46,5.46,0,0,1,352,229.3c3-3.2,6.3-6.53,10.38-7.45a23.72,23.72,0,0,1,5.89-.22,70,70,0,0,0,10.24-.43c2.8-.33,7.54-.29,9.91-2.1,2.21-1.7,3.46-3.83,6.18-4.9A18.15,18.15,0,0,1,403.25,213.21Z" transform="translate(-44.93 -71.61)"/><circle class="cls-17" cx="486.57" cy="332.75" r="39.25"/><path class="cls-18" d="M583.06,399.19a52.46,52.46,0,1,1-52.45-52.46,52.45,52.45,0,0,1,52.45,52.46ZM524.54,427,563.46,388a3.38,3.38,0,0,0,0-4.78h0l-4.79-4.75a3.38,3.38,0,0,0-4.77,0h0l-31.74,31.74-14.82-14.86a3.41,3.41,0,0,0-4.79,0l-4.78,4.82a3.39,3.39,0,0,0,0,4.79l22,22a3.38,3.38,0,0,0,4.78,0h0Z" transform="translate(-44.93 -71.61)"/></svg>