<svg id="Layer_1" data-name="Layer 1" xmlns="http://www.w3.org/2000/svg" xmlns:xlink="http://www.w3.org/1999/xlink" viewBox="0 0 586.94 508"><defs><style>.cls-1{fill:#80d61d;}.cls-2{fill:#fff;}.cls-3{fill:url(#linear-gradient);}.cls-4,.cls-5{stroke:#fff;stroke-miterlimit:10;}.cls-4{stroke-width:3px;fill:url(#linear-gradient-2);}.cls-5{fill:none;}.cls-6{fill:#11e7c4;}.cls-7{fill:#009ff0;}.cls-8{fill:#002b74;}.cls-9{fill:#ffca9b;}.cls-10{fill:#f7b690;}.cls-11{fill:#006ec5;}.cls-12{fill:#001736;}.cls-13{fill:#acabb1;}.cls-14{fill:#dedde0;}.cls-15{fill:#ff9811;}.cls-16{fill:url(#linear-gradient-3);}</style><linearGradient id="linear-gradient" x1="465.38" y1="425.03" x2="465.38" y2="-42.23" gradientTransform="matrix(0.99, 0.11, -0.11, 0.99, 98.59, 165.08)" gradientUnits="userSpaceOnUse"><stop offset="0" stop-color="#5333ed"/><stop offset="1" stop-color="#00004d"/></linearGradient><linearGradient id="linear-gradient-2" x1="501.03" y1="425.02" x2="501.03" y2="-42.25" gradientTransform="matrix(0.99, 0.11, -0.11, 0.99, 98.59, 165.08)" gradientUnits="userSpaceOnUse"><stop offset="0" stop-color="#5c30f1"/><stop offset="1" stop-color="#00004d"/></linearGradient><linearGradient id="linear-gradient-3" x1="715.86" y1="490.09" x2="715.86" y2="643.25" gradientTransform="matrix(1, 0, 0, -1, 0, 778)" gradientUnits="userSpaceOnUse"><stop offset="0" stop-color="#00004d"/><stop offset="1" stop-color="#11e7c4"/></linearGradient></defs><title>Combination</title><path class="cls-1" d="M216.72,378.05c-18.2-53-8.4-111.1,1.5-166.3,38.2,21.8,76.7,43.9,110.2,72.6s53.8,58.5,65.7,100.8c15.8,56-18,101.6-18,101.6C287.12,496.65,235.82,433.85,216.72,378.05Z" transform="translate(-206.53 -134.75)"/><path class="cls-2" d="M361.32,459.35q-64.8-98.55-121.9-202c-1.2-2.2-4.3.1-3.1,2.3q57,103.35,121.9,202c1.3,2,4.4-.3,3.1-2.3Z" transform="translate(-206.53 -134.75)"/><path class="cls-2" d="M218.72,322.05a249.21,249.21,0,0,0,64.9,18.9c2.5.4,3.1-3.5.6-3.8a244.29,244.29,0,0,1-63.9-18.6c-2.3-1-3.9,2.5-1.6,3.5Z" transform="translate(-206.53 -134.75)"/><path class="cls-2" d="M295.32,355.35c4.5-21.1,7.3-42.5,13.8-63.2.7-2.4-2.8-4-3.5-1.6-6.6,21-9.5,42.6-14.1,64.1-.5,2.5,3.3,3.2,3.8.7Z" transform="translate(-206.53 -134.75)"/><path class="cls-2" d="M247,397.75c24.9,7.4,50.8,7.4,76.5,7.9,2.5,0,2.1-3.8-.4-3.9-25.4-.5-50.9-.6-75.5-7.8-2.4-.7-3,3.1-.6,3.8Z" transform="translate(-206.53 -134.75)"/><path class="cls-2" d="M335.32,420.05a136.18,136.18,0,0,0,11.5-74.2c-.3-2.5-4.2-2.1-3.9.4a131.75,131.75,0,0,1-11.2,72.2c-.9,2.3,2.6,3.9,3.6,1.6Z" transform="translate(-206.53 -134.75)"/><path class="cls-3" d="M571.92,497.25l127.2,42.6,35.8-31.7A104,104,0,0,0,761.32,389l-64.4-148a103.89,103.89,0,0,0-105.2-61.9l-160.6,15.5a103.77,103.77,0,0,0-91.4,80.9L304.92,433a104,104,0,0,0,48.7,111.9l65.2,38.4,36.6-49.5A104.38,104.38,0,0,1,571.92,497.25Z" transform="translate(-206.53 -134.75)"/><path class="cls-4" d="M614.12,615.15l85-75.2-127.2-42.6A103.92,103.92,0,0,0,455.52,534l-36.7,49.5,73.7,43.4A103.87,103.87,0,0,0,614.12,615.15Z" transform="translate(-206.53 -134.75)"/><circle class="cls-5" cx="338.39" cy="295.6" r="27.6"/><polygon class="cls-5" points="366.19 256.7 338.39 304.9 394.09 304.9 366.19 256.7"/><path class="cls-6" d="M445.62,322.55l-8.8,22.8-16.6-41.2H426l10.7,26.5,8.9-23.1,8.9,23.1,10.7-26.5H471l-16.6,41.2Z" transform="translate(-206.53 -134.75)"/><path class="cls-6" d="M506.62,332l4.6,2.6a20.75,20.75,0,0,1-7.4,7.9,20.7,20.7,0,0,1-31.3-17.6,19.64,19.64,0,0,1,6.1-14.6,20.76,20.76,0,0,1,31.9,3.5l-26.7,23.3a15,15,0,0,0,9.2,3.1,14.83,14.83,0,0,0,8-2.2A15.38,15.38,0,0,0,506.62,332Zm-26.3,1.4,22.8-20.2a14.76,14.76,0,0,0-10-3.7,14.93,14.93,0,0,0-10.9,4.4,15.84,15.84,0,0,0-1.9,19.5Z" transform="translate(-206.53 -134.75)"/><path class="cls-6" d="M520.62,284.65h-6.5l2.9-5.2h8.9v31.6a19.66,19.66,0,0,1,15.3-6.9,20.58,20.58,0,0,1,14.6,35.1,19.64,19.64,0,0,1-14.6,6.1,20,20,0,0,1-14.9-6.4l-5.7,5.2v-59.5Zm20.6,24.8a15.36,15.36,0,1,0,10.9,4.6A14,14,0,0,0,541.22,309.45Z" transform="translate(-206.53 -134.75)"/><polygon class="cls-6" points="382.99 175 385.79 169.4 359.59 169.4 359.59 175 376.89 175 382.99 175"/><path class="cls-5" d="M574.62,339.85h18.2v5.5h-27l13-26.4h6.1Zm48.2-8.6a10.4,10.4,0,1,1-10.4-10.4A10.39,10.39,0,0,1,622.82,331.25Zm-5.1,0a5.3,5.3,0,1,0-5.3,5.3A5.21,5.21,0,0,0,617.72,331.25Zm29.9,0a10.4,10.4,0,1,1-10.4-10.4A10.39,10.39,0,0,1,647.62,331.25Zm-5,0a5.3,5.3,0,1,0-5.3,5.3A5.21,5.21,0,0,0,642.62,331.25Zm23.8-27.1-9.9,41.2h5.9l9.9-41.2Z" transform="translate(-206.53 -134.75)"/><path class="cls-7" d="M399.32,514.45a9.21,9.21,0,0,1-.4-4.4c-2.4,0-4.1-.1-5.1-.2-1.3,3.6-3,6.2-2.3,8.4,3.9,2.8,8.2,4.5,13,3.7C405.32,520.35,399.52,514.85,399.32,514.45Z" transform="translate(-206.53 -134.75)"/><path class="cls-7" d="M425.42,519.85c.6-1.5-3-5.4-2.6-8.4a5.62,5.62,0,0,0-1.3-4.7,3,3,0,0,0-3.2-.7s-5,5.6-4.3,6.3C417.42,516.45,424.32,522.45,425.42,519.85Z" transform="translate(-206.53 -134.75)"/><path class="cls-8" d="M393.92,509.85c1.7,3.6,4.3,1.4,5.1.2,2-7.3,10.5-31.7,11.8-35.6,2.2-7.1,2.9-15,3.8-25.7,6.2,12.1,9,19,9.7,24.4.5,3.5-5.9,31.4-6.1,34.1s3.3,4.2,4.1,2.3c4.6-10.6,13.1-30.9,13.1-39.6,0-13.4-7.3-29-12.1-45.1,0,1.1-26.5-1.8-28.1,1.4-3.6,7.5.2,17.9,1.4,22.6a90.47,90.47,0,0,1,2.9,24.8C399.22,484.15,395.22,498.15,393.92,509.85Z" transform="translate(-206.53 -134.75)"/><path class="cls-9" d="M383.12,439.55c-.2,1.3-1.4,5.3-.9,6.5.8,2.1,5.2,2.8,6.2.8,1.7-3.3-1-4.7-.5-8.3,1.8-12.7,4.9-21.8,6.6-31.6-1.3-.4-8.9-2.7-9-1.4-.6,10.4-1.1,14.6-1.1,19.2A74.13,74.13,0,0,1,383.12,439.55Z" transform="translate(-206.53 -134.75)"/><path class="cls-7" d="M394.52,406.85l1.6-8.3c-1.2,4.9-1.3,26.1-.9,27.7.6,2.1,24.3,3.5,28.1-1.4.9-1.2.4-23.9.4-29.1,0-8,7.2-16.5,10.2-27.7-3.3-3.2-9.3-5.1-9.3-5.1-2.3,3.4-4.4,8.5-7.1,11.1-5,4.7-9.4,3.5-15.5,4.9-5.4,1.3-11,3.4-12.7,8.4-2,5.9-3.6,11.2-3.9,18.2C387.72,406.35,392.72,407.75,394.52,406.85Z" transform="translate(-206.53 -134.75)"/><path class="cls-9" d="M429.92,350.75c-1.2-6.8-2.9-13.7-5.6-26.3a2.46,2.46,0,0,1,.7-2.6c1.3-.8,2.7.9,3.2,2.3,2.9,7.2,5.9,14.4,8.8,21.5a14.08,14.08,0,0,1,1.4,5.7c-.2,2.6-2.9,14.7-4.5,16.6-1.4,1.7-10.7-2.1-9.3-5.1C426.32,359.55,430.52,354,429.92,350.75Z" transform="translate(-206.53 -134.75)"/><path class="cls-10" d="M410.22,369.05c-1.3-.9-6.6.4-6.6.4.7,4.2,1,9.5,1.1,10,1.1,3.6,8.3,4.8,8.3.2C412.62,377.15,411.42,370,410.22,369.05Z" transform="translate(-206.53 -134.75)"/><path class="cls-9" d="M401.22,369.85a14.74,14.74,0,0,0,8.2,4.5c2.3.4,5.3.4,6.4-1.7a14.74,14.74,0,0,0,1.4-6.9c0-2.4-3.5-8.8-4.5-11-1.4-3.4-2.7-4.2-6.3-4.9-3.3-.6-10.2,3.4-11.6,7.1C393.22,361.45,397.82,369.35,401.22,369.85Z" transform="translate(-206.53 -134.75)"/><path class="cls-8" d="M398.62,360.15c.8-2,3.7-3.8,5.6-5,1.6-1,6.2-4,8.6-.4a8.94,8.94,0,0,0-.4-7.1c-.6-1.3-2.4-4.2-3.4-3.1-3.1,3.4-9.6,5.5-12.7,8a8.79,8.79,0,0,0-3.1,9.7,18.71,18.71,0,0,0,2.8,4.5c.5.6,3.6,3.9,5.3,3.2,0,0-4.5-5.2-.9-4.7C398.72,362.85,398.42,360.65,398.62,360.15Z" transform="translate(-206.53 -134.75)"/><path class="cls-11" d="M395.22,426.25s.5.8,2.9,1.2c0,0-.4-21.9-2.3-27C395.82,400.45,394.12,417.55,395.22,426.25Z" transform="translate(-206.53 -134.75)"/><path class="cls-12" d="M398.12,427.45s-1.9,7.5,0,11c0,0,5,19.5,4.1,32.3,0,0-3.7,36.1-6.8,41,0,0-.7,0-1.6-1.8,0,0,2.4-19.1,4.1-23.8,0,0,2.1-19.7.8-26.3,0,0-2.5-14-4.4-19.7,0,0-2.5-9,.8-13.9A3.59,3.59,0,0,0,398.12,427.45Z" transform="translate(-206.53 -134.75)"/><polygon class="cls-13" points="341.69 432.8 347.99 432.1 372.09 405.5 373.19 392 343.09 415.5 332.19 438.7 341.69 432.8"/><polygon class="cls-13" points="320.39 438.7 322.99 440.8 322.99 440.8 320.39 438.7 322.99 431.3 316.99 436 320.39 438.7"/><circle class="cls-2" cx="302.28" cy="441.43" r="6.7"/><path class="cls-14" d="M535.52,580.35l3.2-6.9,10.9-23.2,16.2-34.6-12.9,4-20.6,29.4.7,6.3-3.6,10.6-2.5,7.4Zm1.6-8.8a3.26,3.26,0,0,1-4.7.5,3.35,3.35,0,0,1-.5-4.7,3.26,3.26,0,0,1,4.7-.5A3.44,3.44,0,0,1,537.12,571.55Z" transform="translate(-206.53 -134.75)"/><path class="cls-15" d="M541.82,585.35a13.63,13.63,0,0,0-7.3-2.9l1-2.2h0l-12-9.6h0l-1.9,1.5a13.27,13.27,0,0,0-4.5-6.5,13.45,13.45,0,1,0-.8,21.5h0l7.4-4.6-2.8,8.2h0a13.28,13.28,0,0,0,4.1,15.5,13.41,13.41,0,1,0,16.8-20.9Zm-37.2-3.9a6.69,6.69,0,1,1,9.4-1.1A6.69,6.69,0,0,1,504.62,581.45Zm24.7,19.7a6.69,6.69,0,1,1,9.4-1.1A6.69,6.69,0,0,1,529.32,601.15Z" transform="translate(-206.53 -134.75)"/><circle class="cls-2" cx="326.91" cy="461.06" r="6.7"/><circle class="cls-2" cx="534.45" cy="569.41" r="3.4" transform="translate(-450.46 497.85) rotate(-51.46)"/><path class="cls-16" d="M753.22,278.45a75.66,75.66,0,0,0,40.1-71.7,59.23,59.23,0,0,1-19.6,16.3,61.18,61.18,0,0,1-82.9-24.5,63.37,63.37,0,0,1,2.9-63.8,117.54,117.54,0,0,0-14.8,7,77.79,77.79,0,0,0,74.3,136.7Z" transform="translate(-206.53 -134.75)"/></svg>