<?xml version="1.0" encoding="utf-8"?>
<!-- Generator: Adobe Illustrator 21.1.0, SVG Export Plug-In . SVG Version: 6.00 Build 0)  -->
<svg version="1.1" id="Layer_1" xmlns="http://www.w3.org/2000/svg" xmlns:xlink="http://www.w3.org/1999/xlink" x="0px" y="0px"
	 viewBox="0 0 80 80" enable-background="new 0 0 80 80" xml:space="preserve">
<title>icons/services/composer@2x</title>
<desc>Created with Sketch.</desc>
<g id="SANDBOX">
	<g id="NL_Sandboxes-Box---stacks-logos" transform="translate(-535.000000, -668.000000)">
		<g id="icons_x2F_services_x2F_composer" transform="translate(512.000000, 650.000000)">
			<rect id="Rectangle-10-Copy-22" x="23" y="18" fill="none" width="80" height="80"/>
			<g id="composer" transform="translate(23.000000, 18.000000)">
				<path id="Shape" fill="#7D6A4C" d="M46.4,54.5l5.8-2.4l0.1-2.1l1-2.1l0.2-2.3l1.1-3.5l1.3-2.9l-0.1-0.7l-0.2-0.6l0.1-0.7
					l-0.2-0.9l0.1-0.6l-1.1-1.4l-5.1,1.8l0.2,0.7l-0.5,0.8l0.4,1.4L49,40.3l1,3l2.1,1.1c-0.1,0-2.7-0.2-2.7-0.2l0.6,1.2l-0.7,1.9
					l-0.8,0.4l-0.7,0.2l-1.4,1.6l-1,2.5l0.9,2.5H46.4z M24.9,36.9l5.2,0.6l0.7,3.3l-1.1,2.7l0.6,0.5l1.1,3l1.3,1.4l0.9,0.5l1.5,1.5
					l1.8,1.3L36.2,53l0.1,1l-0.2,0.6l-0.4,1.1l-3.7-1.1L32,54l-0.5-0.7l0.2-0.7l-5.1-3.7l-0.4-0.9l-1.1-0.3l0-8l-0.5-1.2L24.9,36.9z
					"/>
				<path id="Shape_1_" fill="#644D31" d="M51.2,42.9c-0.1,0-0.2,0-0.3,0c0,0-0.1,0-0.1,0c-0.1,0-0.1,0.1-0.2,0.1c0,0,0,0.1,0,0.1
					c0,0,0,0,0,0c0.3,0.1,0.5,0.2,0.8,0.3c0,0,0,0,0,0C51.4,43.2,51.5,42.9,51.2,42.9z M51,45.5C51,45.5,51.1,45.5,51,45.5
					c0,0.1,0.1,0.1,0.1,0.1c0.1,0.1,0.2,0.3,0.3,0.4c0,0,0,0,0,0c0,0,0,0,0,0c0-0.1,0.1-0.4,0-0.5C51.3,45.4,51.2,45.5,51,45.5z
					 M53.3,42.8C53.2,42.7,53.2,42.8,53.3,42.8C53.3,42.8,53.3,42.8,53.3,42.8z M53.3,38c0,0.3,0,0.4,0.3,0.4c0.3,0,0.5,0,0.5-0.3
					c0-0.1,0-0.3-0.1-0.4c-0.1-0.1-0.3,0-0.4,0C53.3,37.6,53.2,37.6,53.3,38z M52.3,40.1c0.1-0.1,0-0.2,0-0.3c0-0.1,0-0.3,0-0.4
					c-0.1-0.1-0.5-0.1-0.6,0c-0.1,0.1-0.2,0.6,0,0.7C51.7,40.1,52.2,40.2,52.3,40.1z M35.6,53.2C35.6,53.2,35.6,53.2,35.6,53.2
					c0-0.1,0-0.1,0-0.1c0,0,0-0.1,0-0.1c0,0,0-0.1,0-0.1c0,0,0,0,0,0v0c0,0,0-0.1,0-0.1c0-0.1,0-0.2,0-0.2h-0.1
					c-0.1,0-0.4-0.1-0.5,0c-0.1,0-0.1,0.1-0.1,0.3c0,0.1,0,0.1,0,0.2c0,0,0,0,0,0c0,0.2,0,0.3,0.2,0.3
					C35.1,53.3,35.4,53.3,35.6,53.2C35.5,53.2,35.6,53.2,35.6,53.2L35.6,53.2z M36.1,52.6C36.1,52.6,36.1,52.5,36.1,52.6
					c-0.2,0-0.3,0-0.4,0c0,0,0,0.1,0,0.1c0,0,0,0.1,0,0.1c0,0,0,0,0,0c0,0,0,0.1,0,0.1v0c0,0,0,0,0,0c0,0,0,0,0,0c0,0,0,0.1,0,0.1
					c0,0,0,0,0,0.1h0.1c0-0.1,0-0.1,0-0.2C36,52.9,36.1,52.7,36.1,52.6C36.1,52.6,36.1,52.6,36.1,52.6L36.1,52.6z M35.8,53.4
					C35.8,53.4,35.8,53.5,35.8,53.4C35.8,53.5,35.8,53.5,35.8,53.4L35.8,53.4c-0.1,0.2-0.1,0.3-0.1,0.4c0,0,0,0.1,0,0.1
					c0,0.1,0.1,0.1,0.1,0.1c0.1,0,0.1,0,0.2,0v0c0-0.2-0.1-0.5-0.1-0.6H35.8z M35.9,54.3C35.8,54.3,35.8,54.3,35.9,54.3
					c-0.1,0.1-0.1,0.3-0.1,0.4v0c0.1,0,0.1-0.1,0.2-0.1c0.1-0.1,0.1-0.2,0.1-0.3C36,54.2,35.9,54.3,35.9,54.3L35.9,54.3z M46.5,53.3
					c0.2,0,0.4,0,0.5-0.1c0,0,0.1-0.2,0.1-0.4c0-0.2,0-0.3-0.1-0.4c-0.1-0.1-0.6-0.1-0.7,0c-0.1,0-0.1,0.1-0.1,0.3
					c0,0.1,0,0.1,0,0.2s0,0.1,0,0.1c0,0,0,0,0,0c0,0.1,0,0.1,0,0.2c0,0,0,0,0,0L46.5,53.3C46.5,53.3,46.5,53.3,46.5,53.3z
					 M53.8,42.8c-0.1,0-0.5,0-0.5,0.1c0,0.1,0,0.5,0,0.6c0.1,0.1,0.3,0.1,0.5,0.1c0,0,0.1,0,0.1,0c0,0,0-0.1,0-0.1c0,0,0,0,0-0.1
					c0-0.1,0-0.1,0.1-0.2c0,0,0,0,0,0h0v0C53.9,43.1,54.1,42.9,53.8,42.8z M27.1,38.3c0.1,0.1,0.6,0.1,0.7-0.1
					c0.1-0.1-0.1-0.6,0.1-0.7c-0.1,0-0.1,0-0.2,0c-0.2,0.1-0.5-0.1-0.7,0.1C26.9,37.8,26.9,38.3,27.1,38.3z M51.4,51.7
					c0,0-0.1-0.1-0.1-0.1c-0.1,0-0.4,0-0.5,0.1c-0.1,0.1-0.1,0.5,0,0.6c0,0.1,0.1,0.1,0.2,0.1c0.1,0,0.2,0,0.3,0c0,0,0,0,0.1,0
					c0,0,0.1,0,0.1,0c0,0,0,0,0,0c0-0.1,0-0.1,0-0.2C51.4,52,51.4,51.9,51.4,51.7z M49.1,50.7C49.1,50.7,49.1,50.7,49.1,50.7
					C49.1,50.7,49.1,50.7,49.1,50.7c-0.2,0-0.2,0.3-0.2,0.4c0,0.3,0,0.3,0.3,0.4c0.1,0,0.4,0.1,0.5-0.1c0.1-0.1,0-0.4,0-0.5
					c0,0,0,0,0-0.1c0,0-0.1-0.1-0.1-0.1c0,0,0,0-0.1,0C49.4,50.8,49.2,50.7,49.1,50.7z M31.1,50.7c-0.1,0-0.5,0-0.5,0.1
					c-0.1,0.1,0,0.5,0,0.6c0,0,0,0,0,0c0,0,0,0,0,0c0,0,0,0,0,0c0,0,0,0,0,0c0,0,0.1,0,0.1,0.1c0.1,0,0.3,0,0.4,0
					c0.2,0,0.2-0.2,0.2-0.4C31.3,50.9,31.3,50.8,31.1,50.7z M50.2,36.6c0.1,0,0.1,0,0.2,0c0,0,0.1-0.1,0.1-0.1c0,0,0-0.1,0-0.1
					c0,0,0,0,0,0c0-0.1,0-0.2,0-0.3h0c-0.2,0.1-0.3,0-0.3,0.4C50.2,36.5,50.2,36.5,50.2,36.6z M50.4,37.5c0.2,0,0.1-0.4,0.1-0.5
					c0,0,0-0.1,0-0.1c-0.1,0-0.1-0.1-0.1-0.1c-0.1,0-0.1,0-0.2,0c-0.1,0.2-0.3,0.4-0.5,0.6c0,0,0,0.1,0,0.1
					C49.9,37.5,50.2,37.5,50.4,37.5z M52.3,42.9c-0.1-0.1-0.6-0.1-0.7,0c-0.2,0.1,0,0.4-0.1,0.6c0.1,0,0.1,0.1,0.2,0.1
					c0,0,0.1,0,0.1,0.1c0,0,0,0,0,0c0,0,0,0,0,0c0,0,0.1,0,0.1,0c0.1-0.1,0.3,0,0.4-0.1C52.4,43.5,52.3,43,52.3,42.9z M25.9,46.4
					c-0.1-0.1-0.4,0-0.6-0.1c0,0.2-0.1,0.4-0.1,0.6c0,0.1,0,0.1,0,0.2h0c0.2,0,0.8,0.1,0.8-0.2C26,46.8,26.1,46.5,25.9,46.4z
					 M52.3,46.2c0.1-0.1,0.1-0.5,0.1-0.6c0-0.2-0.5-0.2-0.7-0.1c-0.2,0.1-0.1,0.4-0.2,0.6c0,0.1,0.1,0.1,0.1,0.1
					C51.7,46.2,52.1,46.3,52.3,46.2z M53.9,35.7c0.1,0,0.2-0.1,0.2-0.3c0,0.1,0,0.1,0,0.1c0,0,0,0,0,0c0,0,0,0,0,0
					c0.1,0.1,0.2,0.1,0.3,0.1c0.2,0,0.4,0,0.5-0.1c0-0.1,0-0.5,0-0.6c0,0,0,0-0.1-0.1c-0.1,0-0.2,0-0.3,0c-0.1,0-0.3,0-0.4,0.1
					c0,0-0.1,0.1-0.1,0.2c0-0.1,0-0.1,0-0.2c-0.1-0.2-0.4,0-0.5-0.2c0,0-0.1,0-0.1,0c0,0.1-0.1,0.1-0.2,0.1c0,0.1,0,0.2,0,0.4
					c0,0.1,0,0.2,0,0.2C53.4,35.8,53.8,35.7,53.9,35.7z M32.5,54.1c0.2,0,0.4,0.1,0.5-0.1c0.1-0.1,0.1-0.5,0-0.6
					c-0.1-0.1-0.5-0.1-0.6-0.1c-0.2,0.1-0.1,0.4-0.1,0.5C32.2,54,32.4,54.1,32.5,54.1C32.5,54.1,32.5,54.1,32.5,54.1z M47.3,49.9
					c-0.1,0-0.1,0.1-0.1,0.2c0,0.1,0,0.2,0,0.2v0c0,0,0,0.1,0,0.1c0,0.1,0,0.2,0.2,0.2c0.1,0,0.4,0.1,0.5,0c0,0,0,0,0,0
					c0.1-0.1,0.1-0.2,0.1-0.3c0-0.1-0.1-0.2-0.1-0.4v0c-0.1,0-0.1,0-0.2,0H47.3z M28.5,49c-0.1,0-0.5-0.1-0.6,0
					c-0.1,0.1-0.1,0.4,0,0.5c0,0,0,0,0,0c0.1,0.1,0.1,0.1,0.2,0.2c0,0,0.1,0,0.1,0h0c0.2-0.1,0.4,0.1,0.4-0.2
					C28.6,49.4,28.7,49,28.5,49z M52.3,44.9c0-0.1,0-0.1,0-0.2c-0.2-0.1-0.4-0.1-0.6-0.1c0,0-0.1,0-0.1,0c0,0.2-0.1,0.5,0,0.7
					c0.1,0.1,0.1,0.1,0.3,0.1c0.1,0,0.4,0,0.4,0C52.4,45.2,52.3,45.1,52.3,44.9C52.3,44.9,52.3,44.9,52.3,44.9z M49.7,52.9
					c0-0.1,0-0.3,0-0.4c-0.1-0.1-0.4-0.1-0.5-0.1c0,0,0,0,0,0c-0.1,0.1-0.1,0-0.1,0c0,0,0,0,0,0c0,0,0,0,0,0
					c-0.1,0.1-0.1,0.5-0.1,0.7c0,0.1,0,0.1,0.1,0.1c0,0,0.1,0,0.2,0c0,0,0.1,0,0.1,0c0.1,0,0.2,0,0.2,0c0.1,0,0.2-0.1,0.2-0.1
					c0,0,0,0-0.1,0c0,0,0,0,0.1,0C49.7,53.1,49.7,53,49.7,52.9z M47,50.8C47,50.8,47,50.8,47,50.8C47,50.8,47,50.8,47,50.8
					c-0.2,0-0.4,0-0.6,0c-0.1,0.2-0.1,0.3-0.2,0.5c0,0.1,0,0.2,0.1,0.3c0.1,0,0.4,0,0.5,0C47.2,51.4,47,51.1,47,50.8
					C47.1,50.8,47.1,50.8,47,50.8C47,50.8,47,50.8,47,50.8z M29.5,42.3c0-0.1,0-0.4-0.1-0.4c-0.1,0-0.4-0.1-0.5,0
					c-0.1,0.1-0.1,0.2-0.1,0.4c0,0.1,0,0.3,0.1,0.4c0.1,0.1,0.3,0.1,0.4,0.1c0.1-0.1,0.1-0.2,0.2-0.2c0,0,0,0,0,0l0,0
					C29.5,42.5,29.5,42.4,29.5,42.3L29.5,42.3z M35.6,54.3c-0.1-0.1-0.4-0.1-0.5,0c-0.1,0-0.2,0.1-0.2,0.2c0,0.1-0.1,0.4,0,0.5
					c0.1,0.1,0.4,0,0.5,0h0c0-0.1,0.2-0.2,0.2-0.3c0,0,0,0,0,0C35.6,54.6,35.7,54.4,35.6,54.3z M51.4,45.2c0-0.1,0.1-0.5-0.1-0.6
					c-0.1-0.1-0.5-0.1-0.6,0c-0.1,0.1-0.1,0.2,0,0.3c0,0,0,0,0,0c0,0.1,0,0.1,0,0.2c0.1,0.1,0.1,0.1,0.2,0.2c0,0,0,0,0.1,0
					C51.1,45.3,51.4,45.5,51.4,45.2z M26.7,46.4c-0.3,0-0.5-0.1-0.5,0.4c0,0.1-0.1,0.3,0,0.4c0,0,0.1,0,0.1,0h0c0.1,0,0.1,0,0.2,0
					c0,0,0,0,0,0c0.1-0.1,0.3-0.2,0.3-0.1c0,0,0,0,0,0.1C26.9,47,27,46.3,26.7,46.4z M50.7,36.4c0,0.1,0.1,0.1,0.2,0.2
					c0.1,0,0.5,0,0.5-0.1c0.1-0.1,0-0.4,0-0.5c0-0.1,0-0.2-0.2-0.2c-0.1,0-0.2,0.1-0.3,0.1c-0.1,0-0.2,0.1-0.2,0.1
					C50.7,36.1,50.7,36.2,50.7,36.4C50.7,36.4,50.7,36.4,50.7,36.4z M31.5,51.6c-0.2,0.1-0.1,0.2-0.1,0.4c0,0,0,0,0,0.1v0
					c0,0,0.1,0.1,0.1,0.1c0,0,0,0,0,0c0.1,0.1,0.2,0.1,0.2,0.2c0,0,0,0,0,0c0,0,0,0,0.1,0c0,0,0.1,0,0.1,0c0.1,0,0.2,0,0.2-0.1
					c0.1-0.1,0-0.4,0-0.6C32.1,51.5,31.6,51.6,31.5,51.6z M33.7,54.2c-0.1,0-0.4,0-0.5,0c-0.2,0.1-0.1,0.4-0.1,0.5v0.1
					c0.3,0.1,0.5,0.1,0.8,0.2c0,0,0,0,0,0c0-0.1,0-0.2,0-0.2C33.9,54.5,34,54.3,33.7,54.2z M48.9,51.7c0,0.2,0.1,0.5,0.2,0.7
					c0.1-0.1,0.3,0,0.4,0c0.1,0,0.2-0.1,0.2-0.2c0-0.1,0-0.4,0-0.5C49.6,51.5,49.1,51.6,48.9,51.7z M47.4,49.8c0.1,0,0.2,0,0.3,0
					c0.1,0,0.1,0,0.2,0.1c0-0.2-0.1-0.5-0.1-0.7c0-0.1,0.1-0.5,0-0.5c0,0-0.1,0-0.1,0.1c-0.2,0.2-0.4,0.7-0.5,0.7
					C47.2,49.6,47.1,49.8,47.4,49.8z M55.7,38.5c0,0-0.1-0.1-0.1-0.1v0h0l0,0c0,0,0,0,0,0c0,0,0,0-0.1,0c0,0-0.1,0-0.1,0
					c0,0,0,0,0,0c-0.1,0.1-0.2,0.1-0.3,0.1c0,0.1,0,0.3,0,0.4c0,0.1,0,0.2,0.1,0.3c0.1,0,0.2,0,0.4,0c0.1,0,0.1,0,0.2,0v0.1
					c-0.1,0-0.1,0-0.2,0c-0.1,0-0.3,0-0.3,0c-0.1,0.1-0.1,0.3-0.1,0.4c0,0.2,0,0.3,0.1,0.3c0,0,0.1,0,0.2,0.1
					c0.1-0.3,0.3-0.5,0.3-0.8c0,0,0-0.1,0-0.1c0-0.2,0.1-0.4,0.1-0.6C55.8,38.6,55.7,38.6,55.7,38.5z M50.4,40.2c-0.1,0-0.2,0-0.4,0
					c-0.1,0.2-0.1,0.4-0.1,0.6c0.1,0,0.1,0.1,0.1,0.2c0.2,0,0.5,0.1,0.5-0.1c0-0.1,0-0.2,0-0.3C50.6,40.5,50.6,40.2,50.4,40.2z
					 M47.9,53.5C47.9,53.5,47.9,53.5,47.9,53.5C47.9,53.5,47.9,53.5,47.9,53.5C47.9,53.5,47.9,53.5,47.9,53.5
					C47.9,53.5,47.9,53.5,47.9,53.5C47.9,53.5,47.9,53.5,47.9,53.5c0-0.2-0.2-0.1-0.3-0.1c-0.1,0-0.3,0-0.4,0
					c-0.1,0.1-0.1,0.4,0,0.6c0,0.1,0.1,0.1,0.1,0.1v0c0.2-0.1,0.5-0.2,0.7-0.3c-0.1,0-0.1-0.1-0.1-0.2
					C47.9,53.7,47.9,53.6,47.9,53.5z M50.4,48.1c-0.2,0-0.3,0-0.5,0c0,0.3-0.1,0.6,0,0.9c0-0.2,0.5,0,0.7-0.2c0.1-0.1,0-0.4,0-0.5
					C50.6,48.2,50.5,48.1,50.4,48.1z M50.5,37.7c0-0.1-0.7-0.2-0.8,0.1c0.1,0.2,0.2,0.4,0.3,0.6c0.1,0,0.1,0,0.2-0.1
					c0,0,0.1,0,0.1,0c0.1,0,0.1,0,0.2-0.1C50.6,38.2,50.5,37.8,50.5,37.7z M52.6,43.7c-0.3,0.1,0,0.3-0.2,0.4c0,0,0,0,0,0
					c0.1,0,0.1,0,0.2,0.1c0.1,0,0.2,0.1,0.2,0.2c0.1,0,0.3,0,0.3-0.1c0.1-0.1,0-0.6,0-0.7C53.1,43.7,52.7,43.7,52.6,43.7z M30,47.4
					c-0.1,0-0.3,0-0.4,0c0,0.1,0,0.4,0,0.4c0,0.2,0.2,0.2,0.3,0.2c0.2,0,0.5,0,0.5-0.2c-0.1-0.1-0.2-0.3-0.3-0.4
					C30.1,47.4,30.1,47.4,30,47.4z M29.1,45.4c-0.1,0.2-0.3,0.4-0.4,0.6c0,0.2,0.2,0.2,0.3,0.2c0.1,0,0.4,0.1,0.5-0.1
					c0.1-0.1,0-0.5,0-0.6C29.4,45.4,29.2,45.5,29.1,45.4z M31.7,48.6C31.7,48.6,31.7,48.7,31.7,48.6c0.1,0.1,0,0.1,0,0.1
					c-0.1,0-0.2,0-0.3-0.1h0c0,0,0,0,0,0c0,0.2,0.5,0.2,0.6,0.2c0.1-0.1,0.1-0.2,0.1-0.3c-0.1,0-0.1-0.1-0.1-0.2c0,0,0,0,0-0.1
					c-0.3-0.2-0.5-0.4-0.7-0.7l0,0C31.4,48,31.3,48.4,31.7,48.6z M50.4,49c-0.2,0-0.3,0-0.5,0v0.2c0,0.2,0,0.4,0,0.6
					c0.2,0,0.6,0.1,0.6-0.2c0-0.1,0-0.2,0-0.3C50.6,49.1,50.5,49,50.4,49z M50.4,51.5c0.2-0.1,0.1-0.2,0.1-0.4
					c0-0.1,0.1-0.4-0.1-0.4c-0.1,0-0.3,0-0.4,0c0,0.2,0,0.3,0.1,0.5C50,51.1,50,51.1,49.9,51c0,0-0.1-0.1-0.1-0.1c0,0,0,0,0,0.1
					c0,0.2-0.1,0.4,0.1,0.5C49.9,51.5,50.3,51.5,50.4,51.5z M50.3,47.2c-0.1,0-0.2,0-0.3-0.1c-0.1,0.3-0.1,0.6-0.1,0.9
					c0.3-0.1,0.6,0.1,0.7-0.3c0-0.1,0-0.2,0-0.3c0-0.1,0-0.1,0-0.1C50.5,47.2,50.4,47.2,50.3,47.2z M27.9,44.6
					c-0.1,0.1-0.1,0.3-0.1,0.4c0,0.4,0.2,0.3,0.5,0.3h0c0.1-0.2,0.2-0.5,0.2-0.7c0,0,0,0,0,0C28.4,44.6,28.1,44.5,27.9,44.6z
					 M54.7,41.2C54.7,41.2,54.6,41.2,54.7,41.2l-0.1,0C54.6,41.2,54.6,41.2,54.7,41.2c-0.1,0-0.1,0-0.1,0c0,0-0.1,0-0.1-0.1v0
					c-0.2,0-0.4,0-0.4,0.2c0,0,0,0.1,0,0.1c0,0.1,0,0.3,0.1,0.4c0,0,0.1,0.1,0.1,0.1c0,0,0,0,0.1,0h0.2c0,0-0.1,0-0.1,0
					c0.1,0,0.1,0,0.1,0h0c0.1-0.2,0.2-0.4,0.3-0.6C54.8,41.2,54.8,41.2,54.7,41.2C54.7,41.2,54.7,41.2,54.7,41.2z M34.9,50.7
					L34.9,50.7L34.9,50.7c-0.1,0.2-0.2,0.8,0.1,0.8c0.1,0,0.4,0,0.5,0c0.2-0.1,0-0.2,0.1-0.3C35.5,50.9,35.2,50.8,34.9,50.7z
					 M52.5,36c0,0,0.1-0.1,0.1-0.1c-0.1,0-0.1,0-0.2,0c0,0,0,0.1,0,0.2C52.5,36,52.4,36,52.5,36z M52.5,35.7
					C52.5,35.7,52.5,35.7,52.5,35.7c0.1,0,0.2,0,0.3,0c0.1,0,0.3,0,0.4,0c0.1-0.1,0-0.4,0-0.5H53v-0.1c-0.1,0-0.2,0.1-0.2,0.1
					c0,0,0,0,0,0c-0.1,0.1-0.2,0.2-0.4,0.2L52.5,35.7C52.4,35.6,52.4,35.6,52.5,35.7C52.4,35.7,52.4,35.7,52.5,35.7z M52.7,36.6
					c0.2,0,0.5,0.1,0.5-0.2c0-0.1,0-0.3,0-0.4c0-0.1,0-0.1,0-0.2c-0.1,0-0.1,0-0.2,0c0,0-0.1,0-0.1,0c0,0,0,0,0,0
					c-0.1,0-0.2,0-0.3,0c0,0-0.1,0.1-0.1,0.1c-0.1,0-0.1,0-0.1,0C52.4,36.3,52.3,36.6,52.7,36.6z M48.2,51.5
					C48.2,51.5,48.2,51.5,48.2,51.5C48.2,51.5,48.2,51.5,48.2,51.5c0.1,0,0.1,0,0.2,0c-0.1-0.3-0.2-0.5-0.3-0.8c0,0.1,0,0.1,0,0.2
					c0,0.1,0,0.3,0,0.4C48.1,51.4,48.1,51.4,48.2,51.5z M48.3,51.6c0,0-0.1,0-0.1,0c0,0,0,0,0,0c0,0-0.1,0-0.1,0
					c-0.1,0.1,0,0.4,0,0.5c0,0,0,0.1,0,0.1c0,0,0,0,0.1,0.1c0,0,0.1,0,0.2,0c0.1,0,0.3,0,0.4-0.1c0,0,0,0,0,0
					c-0.1-0.2-0.3-0.4-0.4-0.7C48.4,51.6,48.4,51.6,48.3,51.6z M29.5,37.8c-0.3,0-0.6-0.1-0.8-0.1c-0.3,0-0.6-0.1-0.8-0.1
					c0,0.2,0,0.4,0,0.6c0,0.2,0.1,0.2,0.4,0.2c0.1,0,0.3,0,0.4-0.1c0.1-0.2,0-0.3,0.1-0.5c0.1,0.3-0.1,0.6,0.3,0.6
					c0.1,0,0.3,0,0.4,0C29.6,38.3,29.5,37.9,29.5,37.8C29.5,37.8,29.5,37.8,29.5,37.8L29.5,37.8L29.5,37.8
					C29.5,37.8,29.5,37.8,29.5,37.8z M25.7,46.2c0.3,0,0.3-0.2,0.3-0.5c0-0.3-0.3-0.2-0.5-0.2c-0.1,0.3-0.1,0.5-0.1,0.8
					C25.5,46.3,25.6,46.2,25.7,46.2z M29.1,49.8L29.1,49.8c-0.3,0-0.3,0-0.4,0.3c0,0,0,0,0,0v0c0.2,0.2,0.4,0.3,0.7,0.5c0,0,0,0,0,0
					c0.1-0.1,0.1-0.3,0.1-0.4c0-0.1,0-0.2,0-0.3C29.4,49.8,29.3,49.8,29.1,49.8z M30.2,41c0-0.1,0-0.2,0-0.3c0-0.2-0.1-0.3-0.1-0.5
					c-0.1,0-0.2,0-0.4,0c-0.1,0-0.1,0.1-0.2,0.1c0,0.1,0,0.4,0,0.5C29.7,41,30,41,30.2,41z M46.9,53.4c-0.1,0-0.2,0-0.4,0
					c0,0,0,0-0.1,0h-0.1c0.1,0.2,0.1,0.5,0.2,0.7c0,0,0.1,0,0.1,0c0.1,0,0.3,0.1,0.3-0.1c0,0,0,0,0,0c0-0.1,0-0.2,0-0.3
					C47.1,53.5,47,53.4,46.9,53.4z M50.4,49.9h-0.5c0,0.3,0.1,0.5,0.1,0.8c0.2-0.1,0.5,0.1,0.5-0.2C50.6,50.3,50.6,49.9,50.4,49.9z
					 M50.5,46.6C50.5,46.6,50.5,46.5,50.5,46.6c0-0.1,0-0.2-0.1-0.2c0,0,0,0,0,0c-0.2,0.1-0.3,0.2-0.4,0.4c0,0,0,0,0,0
					c0,0.1,0,0.2,0,0.3c0.1,0,0.4,0,0.5-0.1c0-0.1,0-0.2,0-0.3C50.5,46.7,50.5,46.6,50.5,46.6z M52.8,44.6
					C52.8,44.6,52.8,44.6,52.8,44.6c0.1,0.1,0.3,0.4,0.2,0.4c0,0-0.2-0.1-0.2-0.1c-0.1,0-0.2-0.1-0.3-0.1v0c0,0,0,0,0,0.1
					c0,0,0,0,0,0.1c0,0.2,0,0.4,0.1,0.4c0.1,0.1,0.5,0.1,0.6,0c0.1-0.1,0.1-0.5,0.1-0.6C53.1,44.6,53,44.6,52.8,44.6z M25.5,44.6
					c0,0.1-0.1,0.2-0.1,0.3l0,0.5l0,0v0c0.3,0,0.5,0.1,0.5-0.3c0-0.1,0.1-0.4-0.1-0.5C25.8,44.5,25.7,44.6,25.5,44.6z M30.7,48.1
					C30.7,48.1,30.6,48.1,30.7,48.1C30.6,48.1,30.6,48.1,30.7,48.1c-0.2,0.1-0.3,0.6-0.1,0.8c0.1,0.1,0.2,0,0.3,0
					c0.2,0,0.4,0,0.4-0.2C31.1,48.5,30.9,48.3,30.7,48.1C30.7,48.1,30.7,48.1,30.7,48.1z M36.1,51.6C36.1,51.6,36.1,51.6,36.1,51.6
					c-0.1,0-0.2,0-0.3,0.1c-0.1,0.1,0,0.3,0,0.4c0,0.3,0.1,0.3,0.3,0.3c0,0,0,0,0.1,0c0,0,0.1,0,0.1,0h0c0.1-0.2,0.1-0.3,0.1-0.4
					C36.4,51.9,36.3,51.7,36.1,51.6z M55.6,36.8C55.6,36.9,55.6,36.9,55.6,36.8L55.6,36.8c-0.1,0-0.3,0-0.3,0.1
					c-0.1,0-0.1,0.2-0.1,0.2c0,0,0,0.1,0,0.1c0,0,0,0,0,0.1c0.2,0.1,0.4,0.2,0.5,0.1c0,0,0.1-0.3,0.1-0.3c0-0.1,0-0.1,0-0.2
					c0-0.1,0-0.1,0-0.2h0c0,0,0,0,0,0C55.6,36.8,55.6,36.8,55.6,36.8z M34.7,51.5c0.1-0.2,0.1-0.6-0.1-0.6c0,0-0.1,0-0.1,0
					c0,0-0.1,0-0.1,0c0,0-0.1,0-0.1,0c-0.1,0.1-0.1,0.2-0.2,0.3c0,0.1,0,0.2-0.1,0.2c0,0,0,0.1-0.1,0.1c0,0,0,0,0,0c0,0,0,0,0,0
					c0,0,0,0,0,0C34.1,51.6,34.6,51.6,34.7,51.5z M50.4,39.3C50.4,39.3,50.4,39.3,50.4,39.3c-0.1,0-0.1,0-0.2,0c0,0-0.1,0.1-0.1,0.1
					c0,0,0,0,0,0v0c0,0.2,0,0.4-0.1,0.6c0.2,0,0.5,0.1,0.5-0.1C50.6,39.8,50.6,39.3,50.4,39.3z M50.5,38.9c0-0.1,0-0.3,0-0.4
					c0,0-0.1-0.1-0.2-0.1c0,0,0,0,0,0c0,0-0.1,0-0.1,0c0.1,0.2,0.2,0.5,0.1,0.7c0,0,0,0,0,0c0,0,0.1,0,0.1,0h0c0,0,0,0,0,0
					C50.5,39.2,50.5,39.1,50.5,38.9z M54.9,36.9c0-0.1-0.2-0.2-0.3-0.2c-0.1,0-0.2,0-0.2,0c-0.2,0-0.3,0.2-0.2,0.4
					c0,0.1,0,0.1,0.1,0.2c0.2-0.2,0.5-0.1,0.8,0c0,0,0-0.1,0-0.1C54.9,37.1,54.9,37,54.9,36.9z M49.5,50.6
					C49.5,50.6,49.5,50.6,49.5,50.6c-0.1-0.2-0.1-0.5-0.2-0.8c0,0-0.1,0-0.1,0c0,0,0,0,0,0c0,0-0.1,0-0.1,0c-0.1,0-0.1,0.2-0.1,0.3
					c0,0.1,0,0.2,0,0.3C49,50.7,49.3,50.7,49.5,50.6z M50.2,41.9c0.1-0.1,0.2,0,0.3-0.1c0.1-0.1,0-0.4,0-0.5c0-0.2-0.3-0.1-0.5-0.1
					c0,0,0,0,0,0c0,0,0,0.1,0,0.1C50.1,41.5,50.1,41.7,50.2,41.9z M52.3,46.6C52.3,46.5,52.3,46.5,52.3,46.6c0-0.3-0.5-0.2-0.6-0.2
					c0,0,0,0,0,0c0.2,0.2,0.2,0.5,0.3,0.8h0c0,0,0,0,0,0c0.1,0,0.3,0,0.3-0.1C52.4,47,52.3,46.7,52.3,46.6z M29.8,39.3
					c-0.3,0-0.2,0.3-0.2,0.5c0,0.4,0.3,0.2,0.5,0.3c-0.1-0.3-0.1-0.6-0.2-0.9C30,39.3,29.9,39.3,29.8,39.3z M47,50.6
					c0.1-0.1,0.1-0.3,0.1-0.4h0c0-0.2,0-0.3-0.1-0.3c0,0,0,0,0,0h-0.2c-0.1,0.3-0.2,0.5-0.2,0.7v0C46.6,50.6,46.9,50.7,47,50.6z
					 M33,54.4C33,54.4,33,54.5,33,54.4C33,54.4,33,54.4,33,54.4c0-0.2-0.3-0.2-0.5-0.2c0,0-0.1,0-0.1,0c0,0,0,0,0,0
					c0,0.1,0,0.2,0,0.3c0,0,0,0,0,0v0c0,0.1,0,0.1,0.1,0.2c0.1,0.1,0.4,0.1,0.6,0.1c0,0,0,0,0,0C33,54.7,33,54.5,33,54.4z
					 M29.7,47.1c0.1,0,0.2,0,0.3,0c0,0,0.1,0,0.1-0.1c0-0.2,0-0.3-0.1-0.5c0,0-0.1-0.1-0.1-0.1c0,0,0,0,0-0.1c-0.1,0-0.2,0-0.3,0.1
					c-0.1,0.1,0,0.4,0,0.5C29.6,47,29.6,47,29.7,47.1z M50.4,52.5c-0.1,0-0.5-0.1-0.6,0c-0.1,0-0.1,0.2-0.1,0.4c0,0.1,0,0.1,0,0.2
					c0.2-0.1,0.5-0.2,0.7-0.3c0-0.1,0-0.1,0.1-0.2c0,0,0,0,0,0C50.5,52.5,50.5,52.5,50.4,52.5z M55.1,36.6c0,0,0.1,0.1,0.2,0.1
					c0,0,0,0,0,0c0,0,0.1,0,0.1,0c0,0,0,0,0,0c-0.1-0.1-0.1-0.2-0.1-0.3c0-0.1,0-0.2,0.1-0.4c0,0,0,0,0-0.1c-0.1,0-0.1,0-0.2,0
					c0,0-0.1,0-0.1,0C55,35.9,55,36,55,36.1C55,36.3,55,36.5,55.1,36.6z M29.7,38.3c0,0,0.1,0,0.1,0c0,0,0,0,0,0
					c0-0.1,0-0.2-0.1-0.3c0-0.1-0.1-0.1-0.1-0.2c0,0,0,0-0.1,0c0,0.1,0,0.2,0,0.3C29.6,38.2,29.7,38.2,29.7,38.3z M29.6,38.9
					C29.6,38.9,29.6,38.9,29.6,38.9C29.6,38.9,29.6,38.9,29.6,38.9C29.6,38.9,29.6,38.9,29.6,38.9c0,0,0,0.1,0,0.1
					C29.6,39,29.6,38.9,29.6,38.9c0,0.3,0,0.4,0.3,0.4c0,0,0,0,0-0.1c0-0.1,0-0.5-0.1-0.7c0,0,0,0,0,0c0,0-0.1,0-0.1,0
					c0,0-0.1,0.1-0.1,0.1C29.6,38.7,29.6,38.8,29.6,38.9C29.6,38.9,29.6,38.9,29.6,38.9z M28.7,43.4C28.7,43.4,28.7,43.4,28.7,43.4
					c0,0.1,0,0.2,0.1,0.2c0,0,0-0.1,0-0.1c0,0,0,0,0,0c0.1-0.2,0.1-0.4,0.2-0.5c-0.1,0-0.3,0-0.3,0.2c0,0,0,0,0-0.1c0,0,0,0,0,0h0
					c0,0.1,0,0.2,0,0.3c0,0,0,0,0,0c0-0.1,0-0.2,0-0.3c0-0.1,0.2-0.1,0.3-0.2c0,0,0,0,0-0.1c-0.1,0-0.3,0-0.4,0c0,0,0,0-0.1,0.1
					C28.7,43.1,28.7,43.3,28.7,43.4z M29.9,50.7c-0.1,0-0.2,0-0.2,0.1c0,0,0,0,0,0c0.2,0.2,0.5,0.4,0.7,0.5c0,0,0,0,0.1,0v0
					c0-0.1,0-0.2,0-0.3c0-0.1,0-0.2-0.1-0.3C30.3,50.7,30,50.7,29.9,50.7z M29.7,41.9L29.7,41.9c0.1-0.3,0.3-0.5,0.4-0.7
					c0,0,0,0,0,0c0,0,0,0,0,0c-0.1,0-0.3,0-0.4,0C29.5,41.2,29.6,41.7,29.7,41.9C29.7,41.9,29.7,41.9,29.7,41.9z M33.9,51.6
					c-0.2,0.3-0.4,0.5-0.7,0.7c0.2,0,0.6,0.1,0.7-0.1C34,52.2,33.9,51.9,33.9,51.6C33.9,51.7,33.9,51.7,33.9,51.6z M50.7,46.5
					L50.7,46.5c0,0.1,0,0.2,0,0.2c0,0.1,0,0.2,0,0.3c0,0.1,0.1,0.1,0.2,0.1c0.2,0,0.3,0,0.5,0h0.1C51.2,46.9,51,46.6,50.7,46.5z
					 M48.9,49.7C48.9,49.7,48.9,49.7,48.9,49.7c0.1,0.1,0.1,0.1,0.1,0.1c0,0,0,0,0,0c0,0,0,0,0,0c0,0,0,0,0.1,0
					c-0.1,0-0.1-0.1-0.1-0.1c0,0,0-0.1,0-0.1c0,0,0,0.1,0,0.1c0,0.1,0.1,0.1,0.1,0.2c0,0,0,0,0.1,0c-0.1-0.4-0.1-0.9-0.1-1.4
					c0,0,0,0,0,0c0,0.2-0.1,0.4-0.1,0.6c0,0.1,0,0.2-0.1,0.3v0.1v0.1c0,0,0-0.1,0-0.1C49,49.4,48.8,49.6,48.9,49.7z M48.7,53.4
					C48.7,53.4,48.7,53.4,48.7,53.4C48.7,53.4,48.7,53.4,48.7,53.4L48.7,53.4c-0.2,0-0.5-0.1-0.6,0.1c0,0.1,0,0.1,0,0.2
					c0,0.1,0,0.1,0,0.2c0.3-0.1,0.5-0.2,0.8-0.3C48.8,53.5,48.7,53.4,48.7,53.4z M50.5,42.3c0-0.3-0.1-0.3-0.3-0.4
					c0.1,0.2,0.1,0.5,0.1,0.7c0,0.1,0,0.2,0,0.3c0,0,0.1,0.1,0.1,0.1c0,0,0,0,0-0.1c0,0,0,0,0-0.1c0-0.1-0.1-0.1-0.1-0.2
					c0-0.1,0.1-0.1,0.1-0.2C50.6,42.5,50.5,42.4,50.5,42.3z M29.9,45.4c-0.2,0.1-0.3,0.2-0.3,0.4c0,0.3,0.1,0.4,0.3,0.4
					c0-0.1,0-0.2,0.1-0.2C29.9,45.8,29.9,45.6,29.9,45.4z M55.2,35.7c0,0,0.1,0,0.1,0h0c0.1,0,0.1,0,0.2,0c0,0,0,0,0-0.1
					c-0.1-0.2-0.5-0.6-0.6-0.7c0,0,0,0.1,0,0.1c0,0.1,0,0.2,0,0.3h0v0C55,35.7,55.1,35.7,55.2,35.7z M27.6,49c-0.1,0-0.2,0-0.3,0
					c0.1,0.1,0.1,0.1,0.1,0.2c0,0,0,0.1,0.1,0.1c0.1,0.1,0.2,0.1,0.3,0.2c0,0,0,0,0,0.1c0,0,0-0.1,0-0.2C27.8,49.3,27.8,49,27.6,49z
					 M26.8,47.2c-0.1,0.3-0.2,0.5-0.3,0.8c0.1,0,0.3,0,0.3,0c0.1-0.1,0-0.2,0-0.4h0C26.9,47.5,26.9,47.3,26.8,47.2z M29.9,44.6
					L29.9,44.6L29.9,44.6c-0.1,0-0.2,0-0.2,0.1c0,0.1,0,0.3,0,0.4c0,0.2,0,0.3,0.2,0.4c-0.1-0.1-0.1-0.2-0.1-0.3
					c0,0.1,0.1,0.2,0.1,0.3c0,0,0,0,0,0C29.9,45.1,29.8,44.8,29.9,44.6z M25.3,47.2L25.3,47.2c0,0.1,0.3,0.3,0.6,0.3c0,0,0,0,0,0
					c0,0,0.1-0.1,0.1-0.1c0,0,0,0,0-0.1C25.9,47.1,25.4,47.2,25.3,47.2z M54.3,42L54.3,42C54.3,42,54.3,42,54.3,42
					c-0.1,0-0.1,0.1-0.1,0.3v0v0.1v0.1c0,0.2,0,0.3,0,0.5c0.1-0.3,0.2-0.6,0.3-0.9H54.3z M26.7,48.1c-0.1,0-0.1,0-0.2-0.1
					c0,0,0,0.1,0,0.2c0,0.1,0,0.1,0.1,0.2c0,0.1,0.1,0.1,0.1,0.2c0,0,0,0,0.1,0.1c0,0,0.1,0.1,0.1,0.1C26.9,48.5,27,48.1,26.7,48.1z
					 M35.3,55.1C35.3,55.1,35.3,55.1,35.3,55.1L35.3,55.1C35.2,55.1,35.2,55.1,35.3,55.1C35.2,55.1,35.2,55.1,35.3,55.1L35.3,55.1
					C35.2,55.1,35.2,55.1,35.3,55.1c-0.2,0-0.4,0-0.4,0.2c0,0,0,0,0,0c0.1,0,0.4,0.2,0.5,0.2c0.1,0,0.1-0.3,0.2-0.4c0,0,0,0,0,0
					C35.4,55.1,35.3,55.1,35.3,55.1z M32.4,48.9c0.1,0,0.3,0,0.5,0c0,0,0,0,0,0c0,0,0,0-0.1,0c0,0,0,0,0.1,0c0,0,0-0.1-0.1-0.1
					c-0.1-0.1-0.3-0.1-0.4-0.2c0,0,0,0,0,0c0.1,0.2,0.2,0.3,0.4,0.3c-0.2,0-0.3-0.1-0.4-0.3c0,0,0,0,0,0
					C32.2,48.7,32.2,48.8,32.4,48.9z M33.2,50.6c0,0.1,0.1,0.1,0.1,0.1h0v0c-0.2,0-0.1,0.2-0.1,0.3c0,0.1,0,0.2,0,0.3
					c0,0.1,0,0.1,0.1,0.1h0c0-0.1,0-0.1,0-0.1c0-0.1,0-0.4,0-0.5c0-0.1,0-0.1,0-0.1c0,0,0-0.1,0-0.1c0,0,0,0,0,0c0,0,0,0,0,0
					c0-0.1,0-0.3,0-0.4c0-0.1,0-0.2,0-0.2c-0.1,0-0.1-0.1-0.1-0.1c0,0-0.1,0.1-0.1,0.1c0,0,0,0,0,0.1v0c0,0.1,0,0.1,0,0.2
					C33.1,50.4,33.1,50.5,33.2,50.6z M52,35.7C52,35.7,52,35.7,52,35.7L52,35.7c0.2,0,0.3,0,0.3-0.1v-0.1c-0.1,0-0.2,0-0.3,0
					c-0.1,0-0.1,0.1-0.2,0.1c-0.1,0-0.2,0.1-0.3,0.1c0,0,0,0,0,0C51.6,35.7,51.8,35.7,52,35.7C52,35.7,52,35.7,52,35.7z M52,47.4
					L52,47.4c0.1,0.2,0.2,0.5,0.2,0.7c0.1-0.1,0.2-0.4,0.1-0.6C52.3,47.4,52.2,47.4,52,47.4z M25.4,37.3
					C25.4,37.3,25.4,37.3,25.4,37.3C25.4,37.3,25.4,37.3,25.4,37.3L25.4,37.3c0,0.2,0.3,0.2,0.4,0.2c0.2,0,0.2-0.1,0.4-0.1
					c0,0.1,0.1,0.1,0.1,0.1c0.2,0,0.4,0,0.6,0c0,0,0,0-0.1,0c-0.2,0-0.4-0.1-0.7-0.1c0,0,0,0,0,0c-0.3-0.1-0.5-0.1-0.8-0.1
					C25.4,37.2,25.4,37.3,25.4,37.3z M50.4,44.6c-0.1,0-0.3,0-0.4,0c0.2,0.1,0.4,0.3,0.6,0.4V45c0,0,0,0,0-0.1
					C50.6,44.7,50.6,44.6,50.4,44.6z M31,51.7c-0.1,0-0.2,0-0.3,0h0c0,0,0,0,0,0.1c0,0,0,0,0,0c0.1,0.1,0.2,0.2,0.3,0.3
					c0,0,0.1,0,0.1,0c0,0,0,0,0-0.1v0c0,0,0-0.1,0.1-0.1C31.2,51.8,31.2,51.7,31,51.7z M54.5,34.8c0.1,0,0.2,0,0.3,0h0
					c-0.1-0.1-0.2-0.2-0.3-0.2c-0.1,0-0.3,0-0.4,0.1C54.2,34.8,54.4,34.9,54.5,34.8z M29.1,45.4c0.2,0,0.4,0,0.4-0.2v-0.4
					c0,0,0,0,0,0c0,0,0,0,0,0C29.3,45,29.2,45.2,29.1,45.4z M51.5,47.5c0,0.1,0,0.3,0,0.3c0,0.1,0.1,0.1,0.2,0.1c0,0,0.1,0,0.1,0
					c-0.1-0.2-0.2-0.4-0.3-0.6C51.6,47.4,51.6,47.5,51.5,47.5z M51.5,51.8c0,0.1,0,0.2,0,0.3c0,0,0,0.1,0,0.1c0,0,0.1-0.1,0.1-0.1
					c0,0,0,0,0,0c0,0,0,0,0-0.1c0-0.2,0-0.4,0-0.5C51.6,51.6,51.6,51.7,51.5,51.8z M55,40.4C55,40.4,55,40.4,55,40.4
					C55,40.5,55,40.5,55,40.4C55,40.5,55,40.5,55,40.4C55,40.5,55,40.5,55,40.4c0,0.2,0,0.3,0,0.4c0.1-0.2,0.2-0.4,0.3-0.6
					c-0.1,0-0.2,0-0.2,0C55.1,40.3,55,40.3,55,40.4z M34.6,55.1C34.6,55.1,34.6,55.1,34.6,55.1C34.6,55.1,34.6,55.1,34.6,55.1
					c-0.1,0-0.2,0-0.3,0h-0.1c0.2,0.1,0.4,0.2,0.6,0.2c0,0,0,0,0,0v0C34.8,55.2,34.7,55.1,34.6,55.1z M52,43.7h-0.1c0,0,0,0,0,0
					c0.1,0.1,0.3,0.2,0.4,0.3C52.4,43.8,52.3,43.7,52,43.7z M28.4,49.9L28.4,49.9C28.4,49.9,28.3,49.9,28.4,49.9
					C28.3,49.9,28.4,49.9,28.4,49.9c0,0.1,0.1,0.2,0.2,0.2c0,0,0,0,0,0l0,0c0-0.1,0-0.1,0-0.1C28.6,50,28.5,49.9,28.4,49.9z
					 M36,51.5c0-0.1-0.1-0.1-0.1-0.1c0,0-0.1,0-0.1-0.1c0,0,0,0,0,0C35.8,51.5,35.8,51.5,36,51.5z M32.6,53.3L32.6,53.3
					c0.3,0,0.4-0.1,0.4-0.4v-0.1c0-0.3-0.1-0.3-0.4-0.3c-0.3,0-0.4,0-0.4,0.3v0.1c0,0.1,0,0.2,0,0.2c0,0.1,0.1,0.1,0.1,0.1
					C32.5,53.3,32.5,53.3,32.6,53.3L32.6,53.3L32.6,53.3z M29.1,39.3L29.1,39.3c-0.3,0-0.4,0.1-0.4,0.4v0h0c0,0.3,0,0.4,0.4,0.4
					c0.3,0,0.4,0,0.4-0.4C29.5,39.4,29.5,39.3,29.1,39.3z M28.8,48.6c0,0.2,0,0.2,0.2,0.3c0.1,0,0.3,0,0.4,0c0.2,0,0.2-0.2,0.2-0.4
					c0-0.2,0-0.4-0.3-0.4c-0.1,0-0.4,0-0.5,0C28.7,48.2,28.7,48.5,28.8,48.6z M28.2,47.2c-0.3,0-0.4,0-0.4,0.4c0,0.2,0,0.4,0.2,0.4
					c0.1,0,0.4,0,0.4,0c0.1-0.1,0.1-0.3,0.1-0.4v0C28.7,47.3,28.5,47.2,28.2,47.2z M34.5,52.5c-0.1,0-0.4,0-0.5,0
					c-0.1,0.1,0,0.4-0.1,0.5c0,0.3,0.2,0.3,0.4,0.3c0.2,0,0.3,0,0.3-0.2C34.8,52.8,34.8,52.5,34.5,52.5z M27,39.8
					c0,0.4,0.2,0.3,0.5,0.3c0.3,0,0.3-0.1,0.3-0.3v0c0,0,0-0.1,0-0.1c0-0.3,0-0.3-0.4-0.3h0C27,39.3,27,39.4,27,39.8L27,39.8z
					 M27.4,45.4c0.3,0,0.4,0,0.4-0.3V45c0-0.3,0-0.4-0.4-0.4c-0.3,0-0.4,0-0.4,0.4c0,0,0,0.1,0,0.1C27,45.3,27.1,45.4,27.4,45.4z
					 M33.9,52.9c0-0.3,0-0.4-0.3-0.4c-0.1,0-0.3,0-0.4,0c-0.1,0-0.1,0.1-0.1,0.2c0,0.1,0,0.1,0,0.2v0V53c0,0.2,0.1,0.3,0.3,0.3
					c0,0,0,0,0.1,0c0,0,0,0-0.1,0c0,0,0.1,0,0.1,0C33.8,53.3,33.9,53.2,33.9,52.9z M28.7,41.6c0,0.3,0.2,0.3,0.5,0.3
					c0.3,0,0.3-0.1,0.3-0.3c0-0.4,0-0.4-0.4-0.4C28.8,41.1,28.7,41.2,28.7,41.6z M27.8,45.8c0-0.3-0.1-0.4-0.4-0.4
					c-0.3,0-0.4,0-0.4,0.4c0,0.3,0.1,0.4,0.3,0.4c0,0,0,0,0.1,0C27.7,46.2,27.8,46.2,27.8,45.8z M28.2,40.1c0.3,0,0.4-0.1,0.4-0.4
					c0-0.4-0.1-0.4-0.4-0.4c-0.3,0-0.4,0.1-0.4,0.4C27.9,40.1,27.9,40.1,28.2,40.1z M34.4,52.4c0.3,0,0.4-0.1,0.4-0.4
					c0-0.3,0-0.4-0.3-0.4h-0.1c-0.3,0-0.3,0-0.3,0.4h0C34,52.3,34.1,52.4,34.4,52.4z M28.2,38.5c-0.4,0-0.4,0.1-0.4,0.4v0
					c0,0.3,0.1,0.3,0.4,0.3c0.3,0,0.3-0.1,0.3-0.4v-0.1C28.6,38.5,28.6,38.5,28.2,38.5z M35.6,51.7c-0.1-0.1-0.2-0.1-0.3-0.1
					c-0.3,0-0.5-0.1-0.5,0.3c0,0.4,0.1,0.4,0.4,0.4h0.1c0.3,0,0.3,0,0.3-0.3c0-0.1,0-0.2,0-0.3C35.7,51.8,35.6,51.7,35.6,51.7z
					 M33,51.9L33,51.9c0-0.2,0-0.3-0.4-0.3c-0.3,0-0.4,0.1-0.4,0.4c0,0.3,0,0.4,0.3,0.4c0,0,0.1,0,0.1,0C32.9,52.4,33,52.3,33,51.9
					C33,52,33,51.9,33,51.9z M30,49c-0.3,0-0.4,0-0.4,0.4c0,0.4,0.1,0.4,0.4,0.4c0.3,0,0.3-0.1,0.3-0.4C30.4,49,30.3,49,30,49z
					 M30.9,49.9h-0.1c-0.2,0-0.3,0-0.3,0.3c0,0.4,0,0.5,0.4,0.5c0.1,0,0.3,0,0.4-0.1c0.1-0.1,0-0.3,0-0.4
					C31.3,49.8,31.2,49.9,30.9,49.9z M27.3,43.6L27.3,43.6h0.2h0c0.2,0,0.3,0,0.3-0.3c0-0.4-0.1-0.5-0.4-0.5c-0.3,0-0.3,0.1-0.3,0.4
					C27,43.6,27,43.6,27.3,43.6z M29.1,49c-0.3,0-0.4,0-0.4,0.4v0.1c0,0.3,0.1,0.3,0.4,0.3c0.3,0,0.4-0.1,0.4-0.4v0
					C29.5,49,29.5,49,29.1,49z M29.4,47.3c-0.1,0-0.1,0-0.3,0c-0.3,0-0.4,0-0.4,0.3c0,0.3,0,0.4,0.4,0.4c0.4,0,0.4-0.1,0.4-0.4
					c0,0,0,0,0-0.1C29.5,47.5,29.5,47.4,29.4,47.3C29.4,47.4,29.4,47.3,29.4,47.3z M28.7,38.7c0,0.1,0,0.4,0,0.5
					c0.1,0.1,0.4,0.1,0.6,0.1c0.3,0,0.2-0.2,0.2-0.5c0-0.3-0.1-0.3-0.4-0.3C28.9,38.5,28.8,38.4,28.7,38.7z M31.6,49.8
					c0.3,0,0.5,0,0.5-0.3c0-0.3,0-0.5-0.3-0.5c-0.3,0-0.4-0.1-0.4,0.3C31.4,49.5,31.3,49.7,31.6,49.8z M29.2,46.4h-0.1
					c-0.4,0-0.4,0.2-0.4,0.5c0,0.3,0.2,0.2,0.5,0.2c0.1,0,0.2,0,0.3-0.1c0.1-0.1,0-0.3,0-0.4C29.5,46.4,29.4,46.4,29.2,46.4z
					 M32.4,49c-0.2,0-0.2,0.1-0.2,0.3c0,0.2-0.1,0.4,0.1,0.4c0.1,0,0.4,0,0.5,0c0.2-0.1,0.1-0.2,0.1-0.4c0,0,0-0.1,0-0.2
					c0,0,0,0,0,0c0,0,0,0,0,0c0,0,0,0,0,0c0,0-0.1-0.1-0.1-0.1C32.8,48.9,32.5,49,32.4,49z M34.2,54.2c-0.3,0-0.3,0.3-0.2,0.5
					c0,0.3,0.2,0.3,0.5,0.3c0.3,0,0.3-0.1,0.3-0.4C34.7,54.2,34.6,54.2,34.2,54.2z M29.1,40.2c-0.3,0-0.4,0.1-0.4,0.4
					c0,0,0,0.1,0,0.1c0,0.2,0.1,0.3,0.4,0.3c0.3,0,0.4,0,0.4-0.4v0C29.5,40.3,29.5,40.2,29.1,40.2z M27.4,42.7
					c0.3,0,0.4-0.1,0.4-0.4c0-0.3,0-0.4-0.4-0.4c-0.3,0-0.4,0-0.4,0.4C27,42.7,27.1,42.7,27.4,42.7z M32.7,49.9
					c-0.1,0-0.3,0-0.3,0.1c-0.1,0.1-0.1,0.3-0.1,0.4c0,0.4,0.2,0.3,0.5,0.3c0.3,0,0.3,0,0.3-0.3C33,50,33,49.9,32.7,49.9z
					 M26.4,46.2c0.1,0,0.1,0,0.2,0c0.2,0,0.3,0,0.3-0.2c0-0.3,0.1-0.5-0.3-0.5h0h0c-0.1,0-0.2,0-0.2,0c-0.1,0-0.1,0-0.2,0
					c-0.1,0.1,0,0.2,0,0.3h0C26.1,46.1,26.1,46.2,26.4,46.2z M26.7,42.8c-0.1,0-0.4,0-0.5,0c-0.1,0.1-0.1,0.3-0.1,0.4
					c0,0.3,0,0.4,0.3,0.4c0.2,0,0.3,0,0.4-0.1C26.9,43.3,27,42.8,26.7,42.8z M35.6,53.4L35.6,53.4c0,0-0.1-0.1-0.2-0.1
					c0,0-0.1,0-0.1,0c-0.1,0-0.3,0-0.4,0.1c0,0.1,0,0.3,0,0.4c0,0.3,0.1,0.3,0.3,0.3c0.1,0,0.3,0,0.4-0.1c0-0.1,0-0.2,0-0.3
					C35.6,53.7,35.6,53.6,35.6,53.4z M30,48.1c-0.4,0-0.4,0.1-0.4,0.4c0,0.3,0.1,0.3,0.4,0.3c0.3,0,0.4,0,0.4-0.3
					C30.4,48.2,30.4,48.1,30,48.1z M27.4,48.9c0.3,0,0.3-0.1,0.4-0.4c0-0.3,0-0.4-0.4-0.4c-0.4,0-0.4,0.1-0.4,0.5
					C27,48.9,27.1,48.9,27.4,48.9z M28.6,41.3c0-0.1,0-0.2-0.2-0.2c-0.2,0-0.5-0.1-0.6,0.1c0,0,0,0.1,0,0.1c0,0.1,0,0.2,0,0.3
					c0,0,0,0,0,0.1c0,0.1,0,0.1,0,0.2c0.1,0.1,0.5,0.1,0.6,0c0.1,0,0.1-0.1,0.1-0.2c0,0,0-0.1,0-0.2c0,0,0,0,0,0
					C28.6,41.4,28.6,41.4,28.6,41.3z M27.4,39.2L27.4,39.2L27.4,39.2c0.4,0,0.4,0,0.4-0.4c0-0.4-0.1-0.4-0.4-0.4
					c-0.3,0-0.3,0.1-0.3,0.4C27,39.2,27,39.2,27.4,39.2z M27.7,46.4c-0.1-0.1-0.3,0-0.4,0c-0.3,0-0.3,0-0.3,0.3c0,0.1,0,0.3,0,0.4
					c0.1,0.1,0.2,0,0.3,0c0.1,0,0.1,0,0.1,0c0.3,0,0.3-0.1,0.3-0.4C27.8,46.6,27.8,46.4,27.7,46.4z M27,40.6c0,0.1,0,0.3,0.1,0.3
					c0.1,0.1,0.2,0,0.3,0c0,0,0,0,0,0c0,0,0,0,0,0c0,0,0,0,0.1,0h0.1l0,0c0-0.1,0.1-0.2,0.1-0.3c0-0.1,0-0.3,0-0.4
					c-0.1-0.2-0.3-0.1-0.5-0.1C27,40.3,27,40.4,27,40.6z M27.1,41.9c0.1,0,0.6,0.1,0.6-0.1c0-0.1,0-0.2,0-0.3c0-0.2,0-0.3-0.1-0.4h0
					h-0.1c0,0,0,0,0,0c-0.2,0-0.4,0-0.5,0.1c0,0.1,0,0.1,0,0.2C27,41.6,27,41.8,27.1,41.9z M30.9,49c-0.2,0-0.3,0-0.4,0.2
					c0,0.1,0,0.5,0.1,0.6c0.1,0.1,0.4,0.1,0.5,0.1c0.2,0,0.2-0.2,0.2-0.4C31.3,48.9,31.3,49,30.9,49z M31.7,51.5
					c0.3,0,0.4,0,0.4-0.4c0-0.3,0-0.4-0.4-0.4c-0.3,0-0.4,0-0.4,0.3C31.4,51.4,31.4,51.5,31.7,51.5z M27.9,42
					c-0.1,0.1-0.1,0.4-0.1,0.5c0,0.2,0,0.2,0.3,0.2c0,0,0,0,0,0h0.3c0.2,0,0.2-0.2,0.2-0.3c0-0.1,0.1-0.4,0-0.5
					C28.5,41.9,28,41.9,27.9,42z M27.8,44c0-0.2,0.1-0.3-0.2-0.3c-0.3,0-0.6-0.1-0.6,0.3c0,0.3,0,0.4,0.3,0.5c0.1,0,0.3,0,0.4,0
					C27.8,44.4,27.8,44.2,27.8,44z M32.7,51.5c0.3,0,0.3-0.1,0.3-0.4v-0.1c0-0.3-0.1-0.3-0.4-0.3c-0.4,0-0.3,0.1-0.4,0.4
					c0,0.1,0,0.1,0,0.2c0,0.1,0,0.1,0.1,0.2C32.4,51.6,32.6,51.5,32.7,51.5z M28.3,48.1c-0.2,0-0.4,0-0.4,0.3c0,0.1,0,0.1,0,0.2
					c0,0,0,0.1,0,0.2c0.1,0.2,0.4,0.1,0.5,0.1c0.3,0,0.2-0.2,0.2-0.4C28.7,48.1,28.6,48.1,28.3,48.1z M26.3,41.9
					c0.2,0,0.5,0.1,0.6-0.1c0-0.1,0-0.3,0-0.4c0-0.1,0-0.2-0.1-0.2c-0.1,0-0.3,0-0.4,0c-0.3,0-0.3,0.1-0.3,0.3
					C26.1,41.6,26,41.8,26.3,41.9z M34.5,53.4c-0.1,0-0.3,0-0.4,0c-0.1,0.1,0,0.3-0.1,0.4c0,0.1,0,0.1,0,0.1c0,0,0,0,0-0.1
					c0,0.3,0.2,0.3,0.5,0.3c0.3,0,0.2-0.1,0.2-0.4C34.8,53.5,34.8,53.4,34.5,53.4z M26.7,40.2c-0.1,0-0.3,0-0.4,0
					c-0.2,0-0.2,0.3-0.1,0.4c0,0.3,0,0.3,0.3,0.3c0.2,0,0.4,0.1,0.5-0.1C26.9,40.6,26.9,40.2,26.7,40.2z M26.1,38c0,0.1,0,0.1,0,0.2
					c0,0.2,0.1,0.2,0.3,0.2h0.1c0.4,0,0.5,0,0.5-0.4c0-0.2,0-0.3-0.2-0.3c-0.1,0-0.4-0.1-0.5,0C26.1,37.7,26.1,37.9,26.1,38z
					 M26.8,39.9L26.8,39.9c0-0.2,0.1-0.4-0.1-0.5c-0.1,0-0.6-0.1-0.6,0.1c0,0.1,0,0.3,0,0.3c0,0.1,0,0.2,0,0.2
					c0.1,0.1,0.2,0.1,0.3,0.1c0,0,0,0,0,0l0,0C26.7,40.1,26.8,40.3,26.8,39.9z M26.2,45.3c0.1,0,0.5,0.1,0.6,0
					c0.1-0.1,0.1-0.5,0.1-0.6c0-0.2-0.3-0.1-0.4-0.1c-0.1,0-0.3,0-0.3,0.1C26,44.8,26.1,45.3,26.2,45.3z M25.3,38.3c0,0,0.1,0,0.2,0
					c0.1,0,0.4,0.1,0.5,0C26,38.2,26,38,26,37.9c0-0.1,0-0.3-0.1-0.3c-0.1-0.1-0.5,0-0.6,0c0,0,0,0.1,0,0.1c0,0.1,0,0.2,0,0.3
					C25.3,38.1,25.3,38.2,25.3,38.3z M32.1,50.1c0-0.3-0.1-0.3-0.4-0.3c-0.3,0-0.4,0-0.4,0.3v0.1c0,0.3,0,0.4,0.4,0.4
					c0.1,0,0.3,0,0.4,0c0,0,0-0.1,0-0.2c0-0.1,0-0.1,0-0.2L32.1,50.1C32.1,50.2,32.1,50.1,32.1,50.1z M28.6,43.3
					c0-0.3,0-0.5-0.3-0.5c-0.3,0-0.4-0.1-0.5,0.2c0,0.3-0.1,0.5,0.3,0.5C28.5,43.6,28.6,43.7,28.6,43.3z M26.5,43.7
					c-0.4,0-0.4,0.1-0.4,0.4c0,0,0,0.1,0,0.1c0,0.2,0.1,0.2,0.4,0.2c0.3,0,0.4-0.1,0.4-0.3v0C26.9,43.8,26.8,43.7,26.5,43.7
					L26.5,43.7L26.5,43.7z M27.2,48c0.2,0,0.4,0,0.5-0.1c0-0.1,0.1-0.3,0.1-0.4c-0.1-0.3-0.3-0.3-0.5-0.2c-0.3,0-0.3,0.4-0.3,0.6
					C26.9,48,27,48,27.2,48z M26.2,42.8c0.1,0.1,0.5,0,0.6-0.1c0.1-0.1,0.2-0.8-0.1-0.8h0c-0.1,0-0.4,0-0.5,0.1
					c-0.1,0.1-0.1,0.3-0.1,0.4h0C26.1,42.6,26.1,42.7,26.2,42.8z M28.5,40.2c-0.1,0-0.5,0-0.6,0.1c-0.1,0.1,0,0.3,0,0.5
					c0,0.1,0,0.2,0.2,0.2c0.1,0,0.4,0,0.5,0c0.1-0.1,0.1-0.3,0.1-0.4C28.6,40.4,28.7,40.3,28.5,40.2z M28.6,44.1
					c0-0.2,0-0.3-0.3-0.3c-0.2,0-0.5,0-0.5,0.2c0,0.3,0.1,0.5,0.4,0.5c0,0,0,0,0,0c0,0,0,0,0,0c0.1,0,0.1,0,0.2,0
					c0.1,0,0.1,0,0.2-0.1c0,0,0.1-0.1,0.1-0.3C28.6,44.1,28.6,44.1,28.6,44.1z M33.6,53.4C33.6,53.4,33.6,53.4,33.6,53.4
					c-0.3,0-0.4,0-0.5,0.3c0,0.3-0.1,0.5,0.2,0.5c0.2,0,0.5,0,0.5-0.3C33.9,53.6,33.9,53.4,33.6,53.4z M29.6,50.3
					c0,0.3,0.1,0.4,0.4,0.4c0.3,0,0.4-0.1,0.3-0.4c0-0.3-0.1-0.4-0.4-0.4C29.7,49.9,29.6,49.9,29.6,50.3z M25.6,39.2
					c0.1,0,0.2,0,0.3,0c0.1-0.1,0.2-0.8,0-0.8c-0.2,0-0.4,0-0.6,0c0.1,0.1,0.1,0.2,0.2,0.3C25.6,38.9,25.5,39.1,25.6,39.2z M25.8,42
					c-0.3,0-0.3,0.2-0.3,0.4c0,0.3,0,0.4,0.3,0.3c0.2,0,0.2-0.3,0.2-0.5C26,42,26,42,25.8,42z M25.8,42.8
					C25.8,42.8,25.8,42.8,25.8,42.8C25.8,42.8,25.8,42.8,25.8,42.8C25.8,42.8,25.8,42.8,25.8,42.8c-0.2,0-0.3,0-0.3,0.1
					c0,0.1-0.1,0.5,0,0.6c0.2,0.1,0.4,0,0.4-0.2C26,43.3,26.1,42.9,25.8,42.8z M25.7,44.5c0.4,0,0.3-0.3,0.3-0.6
					c0-0.2-0.3-0.3-0.4-0.2c-0.1,0.1-0.1,0.2-0.1,0.3c0.1,0.1,0.1,0.2,0.1,0.4C25.6,44.5,25.7,44.5,25.7,44.5z M26,41.3
					c0-0.2-0.2-0.2-0.3-0.1c-0.1,0.1-0.1,0.2-0.2,0.3v0.1c0,0.2,0,0.3,0.3,0.3C26.1,41.8,26,41.5,26,41.3z M25.6,40.2
					c0,0,0.3,0,0.3,0c0.1,0,0.1-0.2,0.1-0.4c0-0.2,0-0.3-0.1-0.4c0,0,0,0,0,0v0c0,0,0,0-0.1,0c0,0,0,0,0,0c0,0,0,0,0,0
					c-0.3,0-0.3,0.2-0.3,0.5C25.5,40,25.5,40.1,25.6,40.2z M25.8,40.2c-0.2,0-0.2,0-0.3,0.2c0,0.2-0.1,0.5,0.1,0.6
					c0.2,0.1,0.3,0,0.3-0.2C26,40.6,26.1,40.2,25.8,40.2z M27.9,47.1c0.1,0.1,0.6,0.1,0.7,0c0.2-0.1,0.1-0.6,0.1-0.8
					c-0.1,0.2-0.2,0.5-0.3,0.7c0,0,0,0,0,0v0c0-0.4,0-0.9,0.1-1.3c0,0,0-0.1,0-0.1c0,0,0,0,0,0c0,0-0.1,0-0.1,0c0,0,0,0,0,0
					c-0.1,0-0.2,0-0.4,0v0c0,0,0,0,0,0c-0.1,0.1,0,0.5,0,0.6c0.1,0.1,0.2,0.1,0.4,0.1c0,0.2-0.1,0.1-0.2,0.1c-0.1,0,0,0,0,0.1
					C27.9,46.6,27.8,46.9,27.9,47.1z M51.1,38.3C51.1,38.3,51.2,38.3,51.1,38.3c0.1,0.1,0.1,0.1,0.2,0c0.2,0,0.2-0.1,0.2-0.2
					c0-0.1,0-0.3,0-0.4c0-0.1-0.1-0.1-0.3-0.1c-0.2,0-0.5-0.1-0.5,0.2c0,0.2,0,0.4,0,0.5C50.8,38.3,51,38.3,51.1,38.3z M51.4,38.5
					c0,0-0.2,0-0.3,0c-0.1,0-0.2,0-0.3,0c-0.1,0.1-0.1,0.2-0.1,0.3c0,0.2-0.1,0.4,0.2,0.4c0.2,0,0.5,0.1,0.5-0.2
					C51.4,38.9,51.5,38.6,51.4,38.5z M53.9,42c-0.1,0-0.1,0-0.2,0c0,0-0.1,0-0.2,0c-0.1,0-0.1,0-0.2,0c-0.1,0.1,0,0.3,0,0.5
					c0,0.1,0,0.1,0,0.1c0,0-0.1-0.2-0.1-0.2c0,0,0,0,0,0c0-0.2,0-0.3-0.3-0.3c-0.1,0-0.1,0-0.2,0c-0.1,0-0.3,0-0.3,0.2
					c0,0.1,0,0.5,0.1,0.6c0.3,0.2,0.6-0.1,0.9,0c0.1,0,0.4,0.1,0.5,0c0.1-0.1,0.1-0.2,0.1-0.3c0-0.1,0.1-0.3,0-0.4
					C54,42,54,42,53.9,42z M53.3,37.2C53.3,37.2,53.3,37.2,53.3,37.2C53.3,37.2,53.3,37.2,53.3,37.2C53.3,37.2,53.3,37.2,53.3,37.2
					c0,0.1,0,0.2,0.1,0.3c0,0,0.1,0,0.2,0c0.1,0,0.2,0,0.3,0c0.1,0,0.2-0.1,0.2-0.2h0c0,0,0-0.1,0-0.1c0-0.1,0-0.2,0-0.3
					c0-0.1-0.1-0.2-0.2-0.2c-0.1,0-0.2,0-0.3,0c-0.2,0-0.2,0.2-0.3,0.3C53.3,37.1,53.3,37.2,53.3,37.2z M52.8,46.2
					c0.3,0,0.4,0,0.4-0.4v0c0-0.3,0-0.4-0.4-0.4c-0.3,0-0.4,0.1-0.4,0.4v0.1C52.4,46.2,52.5,46.2,52.8,46.2z M52,37.6
					c-0.3,0-0.4-0.1-0.4,0.3c0,0.1,0,0.1,0,0.2c0,0.2,0,0.3,0.3,0.3c0.3,0,0.5,0,0.5-0.3c0-0.1,0-0.1,0-0.2
					C52.3,37.7,52.3,37.6,52,37.6z M52.7,43.6c0.1,0,0.4,0,0.5,0c0.1-0.1,0.1-0.3,0.1-0.4c0,0,0-0.1,0-0.1c0,0,0,0,0,0c0,0,0,0,0,0
					c0-0.2-0.1-0.3-0.3-0.3c-0.2,0-0.4,0-0.5,0.2C52.4,43.3,52.4,43.6,52.7,43.6z M50.9,37.5L50.9,37.5c0.2,0,0.5,0.1,0.5-0.2
					c0,0,0,0,0,0c0,0,0-0.1,0-0.1c0-0.1,0.1-0.4-0.1-0.5c-0.1-0.1-0.4-0.1-0.6,0c0,0,0,0,0,0c0,0-0.1,0-0.1,0c0,0,0,0,0,0
					c0,0,0,0.1-0.1,0.1c0,0,0,0,0,0c-0.1,0.1,0,0.4-0.1,0.5C50.5,37.5,50.7,37.5,50.9,37.5z M53.7,38.5c-0.1,0-0.3,0-0.3,0.1
					c-0.1,0.1,0,0.3,0,0.4c0,0.3,0.3,0.3,0.5,0.2c0.3,0,0.3-0.2,0.3-0.5C54.1,38.4,53.9,38.5,53.7,38.5z M52.1,42
					c-0.1,0-0.2,0-0.3,0c-0.1,0-0.2,0-0.2,0.1c-0.1,0.1-0.1,0.5,0,0.6c0,0.1,0.2,0.2,0.3,0.2c0,0,0.1,0,0.1,0h0c0,0,0.1,0,0.1,0
					c0.1,0,0.1,0,0.1,0c0.1-0.1,0-0.3,0-0.4c0,0,0-0.1,0-0.1v0h0l0,0l0,0c0,0,0,0,0,0c0,0,0,0,0,0C52.3,42.1,52.3,42,52.1,42z
					 M52.9,38.4c0.3,0,0.3-0.1,0.3-0.3v-0.1c0-0.3,0-0.4-0.4-0.4s-0.4,0.1-0.4,0.4c0,0,0,0.1,0,0.1c0,0.1,0,0.2,0.1,0.2
					C52.6,38.4,52.8,38.4,52.9,38.4z M51.3,40.2c-0.1,0-0.3,0-0.4,0c-0.2,0-0.2,0-0.2,0.2c0,0.1,0,0.2,0,0.3c0,0.1,0,0.2,0,0.2
					c0,0.1,0.1,0.1,0.2,0.1v0c0,0,0.1,0,0.1,0h0h0v0c0.2,0,0.4,0.1,0.5-0.2c0,0,0,0,0,0c0-0.1,0-0.1,0-0.2
					C51.5,40.4,51.4,40.3,51.3,40.2z M51.6,41.8c0.1,0.1,0.6,0.1,0.7-0.1c0-0.1,0-0.2,0-0.3c0,0.1,0,0.2,0,0.3c0-0.1,0-0.5,0-0.6
					c0-0.1-0.6-0.1-0.7,0C51.5,41.2,51.4,41.8,51.6,41.8z M52.8,41.1c-0.4,0-0.4,0.1-0.4,0.5c0,0.3,0.1,0.3,0.4,0.3
					c0.3,0,0.3-0.1,0.3-0.4C53.2,41.1,53.1,41.1,52.8,41.1z M53.2,36.8c-0.1-0.1-0.2-0.1-0.3-0.1c-0.3,0-0.4,0-0.4,0.3
					c0,0.1,0,0.1,0,0.1c0,0.2,0,0.3,0.3,0.3c0.3,0,0.5,0.1,0.5-0.2c0-0.1,0-0.2,0-0.2C53.2,36.9,53.2,36.9,53.2,36.8z M50.8,41.9
					c0,0,0.1,0,0.2,0h0c0,0,0.1,0,0.1,0c0.1,0,0.2,0,0.3-0.2c0-0.1,0-0.5,0-0.6c0-0.1-0.2-0.1-0.3-0.1s-0.2,0-0.3,0
					c-0.2,0.1-0.2,0.2-0.2,0.4v0C50.6,41.8,50.6,41.9,50.8,41.9z M54.7,35.8L54.7,35.8C54.8,35.8,54.7,35.8,54.7,35.8
					C54.7,35.8,54.7,35.8,54.7,35.8c-0.4,0-0.6-0.1-0.6,0.3c0,0.4,0,0.5,0.4,0.5c0.1,0,0.3,0.1,0.4,0c0.1-0.1,0-0.3,0-0.4
					C54.9,35.9,54.9,35.9,54.7,35.8z M51.6,38.5c-0.1,0.1,0,0.3,0,0.4c0,0.1,0,0.3,0.1,0.3c0.2,0,0.5,0.1,0.6-0.2
					c0-0.1,0.1-0.5-0.1-0.6C52.1,38.4,51.6,38.4,51.6,38.5z M54.1,40.5c0-0.3-0.1-0.2-0.4-0.2c-0.3,0-0.4,0-0.4,0.4v0
					c0,0.2,0,0.3,0.3,0.3c0.1,0,0.4,0,0.5-0.1c0.1-0.1,0.1-0.2,0.1-0.3C54.1,40.6,54.1,40.5,54.1,40.5z M52.8,40.2
					c-0.3,0-0.4,0.1-0.4,0.4c0,0.3,0.1,0.4,0.4,0.4c0.3,0,0.4-0.1,0.4-0.4C53.2,40.2,53.2,40.2,52.8,40.2z M51.4,39.4
					c-0.1-0.1-0.3,0-0.4,0c-0.3,0-0.4,0-0.4,0.3c0,0.3-0.1,0.5,0.3,0.5c0.1,0,0.4,0.1,0.4,0c0.1-0.1,0.1-0.3,0-0.4
					C51.3,39.6,51.5,39.5,51.4,39.4z M51.1,42c-0.3,0-0.4,0-0.4,0.3c0,0.4,0,0.5,0.4,0.5c0.3,0,0.4-0.1,0.4-0.4
					C51.4,42.1,51.4,42,51.1,42z M51.9,40.2c-0.3,0-0.4,0-0.4,0.3c0,0.3,0,0.5,0.4,0.5c0.4,0,0.4-0.1,0.4-0.5
					C52.3,40.2,52.2,40.2,51.9,40.2z M51.9,35.8c-0.1,0-0.3,0-0.4,0.1c-0.1,0.1,0,0.3,0,0.4c0,0.2,0,0.3,0.3,0.3c0.1,0,0.3,0,0.4,0
					c0.2-0.1,0.1-0.4,0.1-0.5C52.3,35.8,52.2,35.8,51.9,35.8z M54.7,40.2c-0.3,0-0.5-0.1-0.5,0.3c0,0.4,0,0.5,0.4,0.5
					c0.1,0,0.1,0,0.2,0c0.1,0,0.1-0.1,0.2-0.2c0-0.1,0-0.1,0-0.2C55,40.4,54.9,40.2,54.7,40.2z M52.1,36.7c-0.4,0-0.5,0-0.5,0.5v0
					c0,0.3,0.1,0.3,0.4,0.3H52h0v0c0.2,0,0.3,0,0.3-0.3c0-0.1,0-0.2,0-0.2C52.3,36.8,52.3,36.7,52.1,36.7z M53.4,41.8
					c0.1,0.1,0.5,0.1,0.6,0c0.1,0,0.1-0.1,0.1-0.2c0,0,0-0.1,0-0.1v0v-0.1c0-0.3,0-0.3-0.4-0.3c-0.2,0-0.3,0-0.4,0.3
					c0,0.1,0,0.2,0,0.3C53.3,41.7,53.3,41.8,53.4,41.8z M52.5,39.2c0.1,0.1,0.5,0.1,0.6,0c0.2,0,0.1-0.2,0.1-0.4c0-0.1,0-0.2,0-0.3
					c-0.1-0.1-0.2,0-0.3,0c-0.2,0-0.4-0.1-0.4,0.2C52.4,38.7,52.4,39.1,52.5,39.2z M54,36.5c0.1-0.1,0-0.3,0-0.4
					c0-0.2,0-0.3-0.2-0.3c-0.2,0-0.4-0.1-0.5,0.1c-0.1,0.1-0.1,0.5,0,0.6C53.5,36.6,53.9,36.6,54,36.5z M53.9,39.3
					c-0.1,0-0.4-0.1-0.5,0c-0.1,0.1-0.1,0.3-0.1,0.4c0,0.3,0.1,0.3,0.4,0.3c0.2,0,0.3,0,0.3-0.2C54.1,39.7,54.2,39.3,53.9,39.3z
					 M53,46.4c-0.2,0-0.5-0.1-0.5,0.2c0,0.1,0,0.4,0,0.5c0.1,0.2,0.7,0.1,0.7-0.1c0-0.1,0-0.3,0-0.4C53.2,46.4,53.1,46.4,53,46.4z
					 M53.2,39.5c0-0.2-0.3-0.1-0.5-0.1c-0.3,0-0.3,0.1-0.2,0.3c0-0.1,0-0.1,0,0.1c0,0.2-0.1,0.3,0.1,0.4c0.1,0,0.4,0,0.5,0
					C53.2,40,53.2,39.6,53.2,39.5z M54.2,40c0.1,0.1,0.5,0.1,0.6,0.1c0.2-0.1,0.1-0.5,0.1-0.6c0-0.2-0.6-0.2-0.7-0.1
					C54.1,39.5,54.1,39.9,54.2,40z M54.8,38.6c-0.2,0-0.4,0-0.6,0c0,0-0.1,0-0.1,0c0,0.1,0,0.3,0,0.5c0,0.2,0.2,0.2,0.4,0.2
					c0.1,0,0.3,0.1,0.4-0.1c0-0.1,0-0.3,0-0.3C55,38.7,54.9,38.6,54.8,38.6C54.9,38.6,54.9,38.6,54.8,38.6z M52.6,47.2
					c-0.3,0-0.2,0.3-0.2,0.4c0,0.4,0.2,0.3,0.5,0.3c0.2-0.2,0.2-0.5,0.2-0.8C52.9,47.2,52.8,47.3,52.6,47.2z M54.2,37.6
					c-0.1,0.1-0.1,0.6,0,0.7c0,0,0,0,0.1,0c0.1,0,0.2,0,0.3,0c0.1,0,0.2,0,0.3,0c0,0,0,0,0.1,0c0,0,0,0,0,0c0,0,0-0.1,0-0.1
					C54.7,37.9,54.5,37.7,54.2,37.6z M53.9,43.7c0,0-0.1,0-0.1,0c-0.1,0-0.3,0-0.4,0c-0.1,0.1-0.1,0.2-0.1,0.3c0,0.1-0.1,0.3,0,0.4
					c0.1,0.1,0.2,0,0.3,0c0,0,0.1,0,0.1-0.1C53.8,44.2,53.9,44,53.9,43.7C53.9,43.8,53.9,43.8,53.9,43.7
					C53.9,43.7,53.9,43.7,53.9,43.7z M53.3,44.9c0,0.1,0,0.6,0.1,0.4c0,0,0,0,0,0c0.1-0.2,0.1-0.4,0.2-0.6c0,0,0,0-0.1,0
					C53.4,44.5,53.3,44.6,53.3,44.9z M52.3,48.8c0,0,0-0.1,0-0.1c0-0.2,0-0.4,0-0.5c0,0,0-0.1-0.1-0.1c0,0.2,0.1,0.3,0,0.5
					c-0.1,0-0.1-0.1-0.2-0.2c0-0.1-0.1-0.2-0.1-0.3h-0.1c-0.2,0-0.3,0.1-0.3,0.3c0,0.1,0,0.4,0.1,0.4C51.7,48.9,52.2,48.9,52.3,48.8
					C52.3,48.9,52.3,48.9,52.3,48.8C52.3,48.8,52.3,48.8,52.3,48.8C52.3,48.8,52.3,48.8,52.3,48.8z M52.4,48.2c0,0.2,0,0.4,0,0.6
					c0,0,0,0,0,0c0,0,0,0,0-0.1c0.1-0.2,0.2-0.4,0.3-0.6c-0.1,0-0.1,0-0.2,0C52.5,48.1,52.5,48.1,52.4,48.2z M51.1,49.8
					c0.3,0,0.4-0.1,0.4-0.4c0-0.4,0-0.4-0.4-0.4c-0.3,0-0.4,0-0.4,0.4C50.7,49.7,50.7,49.8,51.1,49.8z M50.2,51.6
					c-0.1,0-0.3,0-0.4,0.1c-0.1,0.1,0,0.3,0,0.4c0,0.2,0.1,0.3,0.3,0.3h0h0.1c0.2,0,0.4,0,0.4-0.2c0-0.1,0-0.4,0-0.5
					C50.5,51.6,50.3,51.6,50.2,51.6z M51,48.9c0.3,0,0.4-0.1,0.4-0.4v-0.1c0-0.3-0.1-0.3-0.4-0.3c-0.3,0-0.4,0.1-0.4,0.4
					c0,0,0,0,0,0C50.7,48.8,50.7,48.9,51,48.9z M51.1,47.2c-0.4,0-0.4,0-0.5,0.4c0,0.3,0,0.4,0.3,0.4H51h0.1c0.3,0,0.3,0,0.3-0.4
					C51.4,47.3,51.5,47.2,51.1,47.2z M51.2,50.7c-0.1,0-0.2,0-0.3,0c-0.1,0-0.2,0-0.2,0c-0.1,0.1,0,0.3,0,0.5c0,0,0,0,0,0
					c0,0,0,0,0,0c0,0,0,0,0,0c0,0.3,0.3,0.3,0.6,0.2c0.3,0,0.2-0.2,0.2-0.4C51.4,50.9,51.5,50.7,51.2,50.7z M51.2,49.9h-0.1v0
					c-0.2,0-0.4,0-0.4,0.3c0,0.1,0,0.3,0,0.4c0,0.1,0.1,0.1,0.3,0.1c0.2,0,0.5,0.1,0.5-0.2C51.4,50.2,51.5,49.8,51.2,49.9z M52.2,49
					c-0.3,0-0.6-0.1-0.6,0.3v0c0,0.3,0,0.4,0.4,0.4c0.1-0.2,0.3-0.4,0.4-0.7C52.3,49,52.2,49,52.2,49z M51.5,50.1
					c0,0.2-0.1,0.6,0.2,0.5c0-0.2,0-0.5,0.1-0.7c0,0-0.1,0-0.1,0C51.6,49.9,51.5,49.9,51.5,50.1z M51.6,50.7c-0.2,0-0.2,0.8,0.1,0.8
					c0-0.2,0-0.4,0-0.6C51.7,50.8,51.7,50.7,51.6,50.7z M47.9,51.7c-0.1-0.1-0.2-0.1-0.3-0.1h0c-0.3,0-0.4,0-0.4,0.3
					c0,0.4,0,0.4,0.4,0.4c0.1,0,0.2,0,0.3,0c0-0.1,0.1-0.1,0.1-0.1c0,0,0-0.1,0-0.2C47.9,52,48,51.8,47.9,51.7z M47.8,52.5
					c-0.1,0-0.1,0-0.3,0c-0.3,0-0.4,0-0.4,0.4c0,0.4,0.1,0.4,0.4,0.4c0.3,0,0.4-0.1,0.4-0.4C47.9,52.7,47.9,52.6,47.8,52.5
					C47.8,52.6,47.8,52.5,47.8,52.5z M47.9,50.8c-0.1-0.1-0.2-0.1-0.3-0.1c-0.4,0-0.4,0.1-0.4,0.4c0,0.2,0,0.3,0.2,0.3
					c0.2,0,0.6,0.1,0.6-0.2C47.9,51.2,48,50.9,47.9,50.8z M47,51.7c-0.1-0.1-0.2,0-0.3,0c-0.2-0.1-0.4-0.1-0.5,0.1
					c0,0.1,0,0.5,0,0.6c0.1,0.1,0.5,0.1,0.6,0c0.2,0,0.1-0.2,0.1-0.4C47,51.9,47.1,51.7,47,51.7z M48.6,52.5c-0.1,0-0.5-0.1-0.6,0.1
					c-0.1,0.1,0,0.3,0,0.4c0,0.2,0.1,0.3,0.3,0.3c0.2,0,0.4,0.1,0.4-0.1C48.8,53,48.9,52.5,48.6,52.5z M26.5,38.5
					c-0.3,0-0.4,0.1-0.4,0.4c0,0,0,0,0,0.1c0,0.3,0.2,0.3,0.5,0.3c0.3,0,0.3-0.1,0.3-0.4v-0.1C26.9,38.5,26.8,38.5,26.5,38.5z"/>
				<path id="Shape_2_" fill="#885630" d="M34.2,49.9C34.2,49.8,34.2,49.8,34.2,49.9c-0.1-0.1-0.2-0.2-0.2-0.2
					c-0.1-0.1-0.3-0.1-0.3-0.1c-0.1,0-0.2,0.1-0.2,0.3c0,0.2,0,0.3,0,0.5c0,0.2,0,0.4-0.1,0.6l-0.1,0.3h0.5l0.1-0.1
					c0.1-0.1,0.1-0.3,0.2-0.4c0.1-0.1,0.1-0.3,0.2-0.4v0C34.4,50.2,34.4,50,34.2,49.9L34.2,49.9z M48.6,47.9L48.6,47.9
					c-0.3-0.1-0.4,0-0.5,0c0,0,0,0-0.1,0c-0.2,0.1-0.3,0.2-0.3,0.4c0,0.4,0.1,0.8,0.1,1.2l0.1,0.8l0.4-0.8c0.1-0.1,0.1-0.2,0.1-0.3
					l0,0c0-0.2,0.1-0.4,0.1-0.6l0.1-0.3c0,0,0,0,0-0.1C48.6,48.3,48.7,48.1,48.6,47.9L48.6,47.9z M48.1,44.3c-0.1,0-0.2,0-0.3,0
					c-0.3,0-0.6,0.1-0.9,0c0,0,0,0,0,0c0,0-0.1,0-0.1,0c0,0-0.1,0-0.1,0h-1l0.9,0.5c0.2,0.1,0.5,0.3,0.9,0.3c0.1,0,0.2,0,0.3,0
					c0,0,0.1,0,0.1,0l0,0c0.2,0,0.3,0,0.5,0c0.3,0,0.6,0,1-0.1L50,45l-0.7-0.4C49,44.4,48.6,44.2,48.1,44.3z M30.8,44
					c0.1,0,0.1,0,0.2-0.1c0,0,0,0,0.1,0c0,0,0,0,0.1,0l0,0c0.6-0.4,1.2-0.7,1.9-0.8c0.3-0.1,0.6-0.1,0.9-0.2
					c0.7-0.1,1.5-0.3,2.2-0.4c0.2,0,0.4-0.1,0.5-0.2l2.1-0.9l-3.2,0.5L35.1,42c-0.5,0.1-1.1,0.1-1.6,0.2l0,0c-0.4,0.1-1,0.1-1.4,0.3
					c-0.2,0.1-0.3,0.1-0.5,0.2c-0.2,0.1-0.3,0.2-0.5,0.2c-0.3,0.2-0.5,0.4-0.5,0.7c0,0,0,0,0,0V44H30.8z M50.8,43.6
					c-0.2-0.2-0.5-0.3-0.8-0.3c-0.2,0-0.4,0-0.6-0.1c0,0,0.1,0,0.1-0.1c0.1-0.1,0.1-0.1,0.2-0.2l0-0.1l0-0.1c0,0,0-0.1,0-0.1
					c0,0,0-0.1,0-0.1l0,0l-1.5-2.1L47.8,40c0,0,0,0,0,0c0.1,0.1,0.2,0.1,0.3,0.2c0.1,0,0.2,0.1,0.3,0.1c0,0,0.2,0.1,0.3,0l0.3-0.1
					L48.8,40c-0.2-0.4-0.9-0.9-1.5-1.3c-0.3-0.2-0.6-0.5-0.7-0.6c0,0,0,0-0.1-0.1c0,0,0,0,0,0l0,0l0,0c-0.2-0.1-0.4-0.2-0.6-0.2
					c0,0,0,0,0,0c0.2,0,0.4,0.1,0.5,0.2c0.4,0.2,0.8,0.4,1.2,0.6c0.1,0.1,0.2,0.2,0.4,0.2l1.1,0.5l-0.8-0.9
					c-0.8-0.9-2.1-2.2-3.4-2.8c0,0,0,0,0,0l0,0c-0.4-0.1-0.8-0.1-1.3,0.1l0,0c-0.3,0.1-0.3,0.3-0.3,0.5c0.1,0.3,0.1,0.7,0.1,1l0,0.2
					c0,0.2,0.1,0.3,0.2,0.4c0,0-0.1,0-0.1,0.1c-0.1,0.1-0.1,0.3-0.1,0.3l0,0.2l-0.1-0.2V39c0,0.1,0,0.2,0,0.3l0,0.1l0,0v0l0,0l0,0
					l0,0.1l0,0l0,0l0,0l0,0.1l0,0c-0.1,0-0.2-0.1-0.3,0c-0.1,0-0.1,0.1-0.1,0.1c0-0.3,0.1-0.6-0.1-0.8c0,0,0,0,0,0l0.1,0l0.1-0.1
					c0.1-0.1,0.1-0.3,0.2-0.5c0,0,0,0,0-0.1c0.1-0.5,0.1-0.9-0.1-1.5c-0.2-0.9-0.6-1.6-1.3-2.1c-0.7-0.5-1.5-0.9-2.3-1.1
					c-0.9-0.2-1.9,0.1-2.7,0.3l-0.2,0.1c-0.2,0.1-0.3,0.1-0.5,0.2c-0.1,0.1-0.3,0.1-0.4,0.2c-0.5,0.3-1,0.6-1.5,1.1c0,0,0,0-0.1,0.1
					c0,0,0,0-0.1,0l0,0c-0.1,0.1-0.2,0.2-0.3,0.3c0,0-0.1,0.1-0.1,0.1L33.6,36c-0.5,0.5-0.9,1.2-1.3,1.7c-0.2,0.3-0.4,0.6-0.5,0.9
					c-0.1,0.1-0.1,0.3-0.2,0.4c-0.1,0.2-0.2,0.3-0.3,0.5l-0.4,1l0.8-0.7c0.3-0.3,0.6-0.6,0.9-0.9c0,0,0,0,0,0c0,0,0,0,0,0l0,0
					c0.1-0.1,0.2-0.2,0.4-0.3c0.1-0.1,0.2-0.1,0.3-0.2c0.5-0.3,0.9-0.6,1.5-0.8l0.1,0c0.1-0.1,0.2-0.1,0.4-0.1l0.1,0
					c0.2-0.1,0.4-0.2,0.6-0.2c0.1,0,0.3-0.1,0.4-0.1c0.2,0,0.5-0.1,0.7-0.1c0.5-0.1,1-0.2,1.4-0.2c0.4,0,0.9,0.1,1.3,0.2
					c-0.2,0-0.5-0.1-0.7,0c-0.4,0-0.8,0-1.2,0c-0.3,0-0.7,0-1.1,0.1C35.6,37.4,34.3,38,33,39c-0.5,0.4-1,0.9-1.5,1.4
					c-0.1,0.1-0.3,0.3-0.4,0.4c0,0-0.1,0.1-0.1,0.1c-0.4,0.6-0.8,1.2-1.2,1.9c-0.1,0.1-0.1,0.3-0.2,0.4l-0.2,0.7l0.6-0.4
					c0,0,0,0,0.1-0.1c0,0,0.1-0.1,0.1-0.1c0.5-0.4,1-0.6,1.6-0.8l0,0c0.7-0.2,1.4-0.4,2.2-0.4c1.2-0.1,2.3-0.3,3.3-0.6
					c0.8-0.2,1.4-0.5,2-0.8c0.3-0.2,0.5-0.4,0.8-0.6c0,0.2-0.1,0.4-0.2,0.5c-0.3,0.4-0.7,0.6-1.1,0.8l0,0c-0.8,0.4-1.6,0.7-2.6,1
					c-0.3,0.1-0.7,0.2-1.1,0.2c-0.3,0.1-0.6,0.1-0.9,0.2c-0.2,0.1-0.5,0.1-0.7,0.2c-0.6,0.1-1.2,0.3-1.8,0.6
					c-0.5,0.3-0.9,0.6-1.1,1.1c-0.1,0.3-0.2,0.5-0.1,0.8l0.2,0.7l0.3-0.6c0-0.1,0.1-0.1,0.1-0.2c0.1-0.1,0.1-0.2,0.2-0.3
					c0.3-0.3,0.6-0.6,1.1-0.7c0.3-0.1,0.6-0.1,0.9-0.1c0.1,0,0.3,0,0.4,0c0.5-0.1,1.1-0.1,1.6-0.1c0.6,0,1.3-0.1,1.9-0.2
					c0.9-0.1,1.9-0.3,2.7-0.9c0.1-0.1,0.3-0.2,0.4-0.3c0.4-0.3,0.9-0.6,1.3-0.9c0.4-0.4,0.7-0.8,1-1.3c-0.1,0.7,0.1,1.3,0.5,1.8
					c0,0,0.1,0.1,0.1,0.1c0.4,0.4,1,0.8,1.7,1.1c0.5,0.2,1.1,0.5,1.7,0.6c0.2,0.1,0.5,0.1,0.7,0.1l0.1,0c0.5-0.1,1.1-0.1,1.6-0.1
					c0.1,0,0.2,0,0.3,0c0.4,0,0.8,0,1.3,0.1l1,0.2L50.8,43.6z M44.8,41.2c0.3,0.2,0.5,0.4,0.7,0.5c0.1,0.1,0.2,0.1,0.2,0.2
					c0.3,0.2,0.6,0.5,1,0.6c0.2,0.1,0.3,0.1,0.5,0.2c0.2,0.1,0.4,0.2,0.7,0.2c0.1,0,0.1,0,0.2,0.1c0,0,0.1,0,0.1,0l0,0
					c0.3,0.1,0.5,0.1,0.8,0.1c-0.6-0.1-1.2-0.2-1.8-0.3c-0.5-0.1-0.8-0.3-1-0.5C45.6,41.9,45.2,41.6,44.8,41.2L44.8,41.2z"/>
				<path id="Shape_3_" fill="#FFFFFF" d="M46,54.1c-0.2-0.4-0.3-0.8-0.5-1.2l-0.1-0.2c0,0,0,0,0,0c0,0,0-0.1-0.1-0.1l0,0l-0.2,0.2
					c-0.2,0.3-0.4,0.6-0.7,0.9l-0.1,0.1c-0.2,0.2-0.5,0.3-0.8,0.5c-0.2,0.1-0.3,0.2-0.5,0.3l-0.2,0.1l0.2,0c0.1,0,0.2,0,0.3,0
					c0.7,0.1,1.3,0.2,1.8,0.4c0.2,0.1,0.2,0.3,0.2,0.4c0,0.1,0,0.1,0,0.1c0,0,0,0,0,0l0,0l0,0c0,0,0,0-0.1,0c-0.7-0.3-1.4-0.4-2-0.6
					c-0.2,0-0.4-0.1-0.6-0.1c0,0,0,0,0,0l0,0l0,0c0,0-0.1,0-0.1,0.1c0,0.1,0,0.2,0.2,0.3c0.1,0,0.2,0.1,0.3,0.1
					c0.2,0.1,0.4,0.1,0.6,0.2c0.6,0.2,1.1,0.3,1.6,0.7c0.1,0,0.1,0.1,0.2,0.1c0.1,0,0.1,0,0.2-0.1c0.4-0.2,0.5-0.5,0.4-0.9
					c-0.1-0.3-0.1-0.6,0.1-0.8C46,54.3,46,54.2,46,54.1z M38.7,55c-0.3,0-0.5,0.1-0.7,0.1c-0.2,0-0.4,0-0.5,0c-0.1,0-0.1,0-0.1-0.1
					c0,0,0,0,0,0c0,0,0,0,0,0c0.2,0,0.3-0.1,0.5-0.1c0.4-0.1,0.9-0.2,1.3-0.2v-0.1h0.1c0,0,0,0,0,0l0-0.1l-0.1,0
					c-0.2,0-0.4-0.1-0.5-0.2c-0.1,0-0.1-0.1-0.2-0.1c-0.5-0.3-0.9-0.7-1.2-1.2c-0.1-0.2-0.2-0.3-0.3-0.4c0-0.1-0.1-0.1-0.1-0.2
					l-0.1-0.1l0,0.1c0,0.1,0,0.1-0.1,0.2c-0.1,0.2-0.1,0.4-0.2,0.5c-0.2,0.4-0.1,0.7,0,0.9c0.1,0.1,0,0.2-0.1,0.3
					c-0.1,0.1-0.2,0.2-0.3,0.3c-0.1,0.1-0.1,0.2-0.2,0.2l0,0c0,0-0.1,0.1-0.1,0.2c0,0,0,0.1,0,0.1c0,0.1,0,0.3,0.2,0.4
					c0,0,0,0,0,0.1c0,0,0,0,0,0v0.8l0,0c0,0.1,0,0.1,0.1,0.2c0.2,0.1,0.3,0.1,0.5,0.2l0,0l0,0c0.1,0,0.1-0.1,0.1-0.2
					c0,0,0-0.1,0-0.1c0,0,0,0,0-0.1c0,0,0,0,0,0c0.2-0.1,0.3-0.2,0.4-0.3c0.2-0.1,0.4-0.3,0.6-0.3c0.2-0.1,0.4-0.2,0.7-0.3
					c0.5-0.2,0.9-0.5,1.5-0.6l0.4-0.1L40.1,55C39.7,54.9,39.3,54.9,38.7,55z M42,54.8c0-0.1,0-0.1-0.1-0.1c0,0-0.1,0-0.1,0h0
					c0,0,0,0,0,0v0c0,0,0,0,0,0l0,0c-0.1,0-0.3,0-0.5,0c-0.1,0-0.1,0-0.2,0H41c0,0-0.1,0-0.1,0h0c0,0,0,0,0,0c0,0,0,0,0,0
					c-0.1,0-0.1,0-0.1,0.1c0,0.1,0.1,0.2,0.2,0.2c0.2,0,0.3,0.1,0.5,0.1c0,0,0,0,0,0v0h0c0.2,0,0.3,0,0.5,0C42,55,42,54.9,42,54.8
					L42,54.8z"/>
				<g id="Group" transform="translate(0.648968, 13.109145)">
					<path id="Shape_4_" fill="#FFFFFF" d="M54.7,20.7c0.1,0,0.2-0.1,0.2-0.2c0-0.3,0-0.7,0.1-1c0-0.4,0.1-0.9,0.1-1.4
						c0,0-0.1,0-0.1,0c-2.6,0.8-5.4,1.5-8,2.2c-0.1,0,0,0.2,0,0.3c0.4,0.7,0.8,1.4,1.2,2.1c0,0.1,0.1,0.1,0.1,0.1
						c0,0,0.1-0.1,0.1-0.1C50.6,22.1,52.6,21.4,54.7,20.7L54.7,20.7z M54.3,18.8c0.3,0,0.4,0.1,0.4,0.4c0,0.3-0.2,0.5-0.5,0.6
						c-0.2,0-0.5-0.2-0.5-0.5C53.7,19.1,54,18.8,54.3,18.8z M27,23.8c0.4,0.1,0.8,0.1,1.2,0.2c0.6,0.1,1.3,0.2,1.9,0.3c0,0,0,0,0,0
						c0.1,0,0.1-0.1,0.1-0.1c0.2-0.6,0.3-1.1,0.5-1.7c0-0.1,0-0.2-0.1-0.2c-1.2-0.3-2.4-0.6-3.5-0.9c-1.2-0.3-2.4-0.6-3.5-0.9
						c0,0-0.1,0-0.1,0c0,0-0.1,0-0.1,0c0,0,0,0,0,0c0,0,0,0,0,0.1c-0.1,0.9-0.2,1.7-0.3,2.6c0,0.1,0,0.2,0.1,0.2c0,0,0,0,0.1,0
						C24.5,23.5,25.7,23.7,27,23.8z M24.1,21.5c0.1-0.1,0.3-0.1,0.4-0.1c0.3,0,0.4,0.1,0.5,0.3c0.2,0.4,0.1,0.7-0.2,1
						c-0.2,0.2-0.5,0.2-0.7,0C23.8,22.4,23.8,21.9,24.1,21.5L24.1,21.5z"/>
					<path id="Shape_5_" fill="#1A1A1A" d="M54.3,18.8c-0.3,0-0.5,0.3-0.5,0.5c0,0.3,0.2,0.5,0.5,0.5c0.3,0,0.5-0.3,0.5-0.6
						C54.7,19,54.6,18.8,54.3,18.8z M24.5,21.4c-0.1,0-0.3,0-0.4,0.1c-0.3,0.3-0.3,0.9,0,1.2c0.2,0.2,0.5,0.2,0.7,0
						c0.3-0.2,0.3-0.6,0.2-1C24.9,21.5,24.8,21.4,24.5,21.4z"/>
				</g>
				<path id="Shape_6_" fill="#1A1A1A" d="M38.1,60.8C38,60.7,38,60.7,38,60.6c0-0.2,0-0.5,0-0.7c0.1-0.4,0.2-0.9,0.2-1.3
					c0-0.2,0-0.3-0.2-0.4c-0.2-0.1-0.3,0-0.5,0.1c-0.3,0.2-0.5,0.5-0.7,0.8c-0.2,0.3-0.4,0.6-0.7,0.8c0,0-0.1,0.1-0.1,0.1
					c-0.1,0,0-0.1,0-0.2c0-0.2,0-0.4,0.1-0.6c0-0.3,0.1-0.5,0-0.8c-0.1-0.3-0.3-0.4-0.5-0.2c-0.1,0-0.1,0.1-0.2,0.2
					c-0.2,0.2-0.4,0.5-0.5,0.8c-0.4,0.6-0.8,1.3-1.3,1.9c-0.1,0.1-0.2,0.2-0.3,0.3c-0.1,0.1-0.1,0.3,0,0.4c0.1,0.1,0.2,0.2,0.3,0.2
					c0.1,0,0.2-0.1,0.3-0.2c0.4-0.5,0.8-1,1.1-1.6c0,0,0-0.1,0.1-0.1c0,0.1,0,0.1,0,0.2c0,0.3-0.1,0.5,0,0.8
					c0.1,0.3,0.3,0.4,0.6,0.3c0.1-0.1,0.3-0.2,0.4-0.3c0.2-0.2,0.4-0.4,0.6-0.7c0.2-0.3,0.4-0.5,0.6-0.8c0.1,0.2,0,0.4,0,0.6
					c0,0.3-0.1,0.7,0,1c0,0.2,0.2,0.3,0.3,0.4c0.2,0,0.4,0,0.5-0.1C38.3,61.3,38.3,61,38.1,60.8z M53.9,60.9c-0.1,0-0.2-0.1-0.3-0.1
					c-0.3-0.2-0.5-0.5-0.7-0.7c-0.2-0.2-0.2-0.2,0-0.4c0.5-0.3,0.6-0.8,0.6-1.3c0-0.4-0.2-0.6-0.6-0.7c-0.3-0.1-0.6,0.1-0.8,0.3
					c-0.1,0-0.1,0.1-0.2,0c-0.2-0.1-0.4-0.1-0.5,0.1c-0.1,0.1-0.2,0.2-0.2,0.3c-0.2,0.9-0.5,1.8-0.7,2.8c-0.1,0.3,0.1,0.5,0.4,0.4
					c0.3,0,0.4-0.2,0.5-0.6c0-0.4,0.1-0.7,0.2-1.1c0.3,0.3,0.5,0.7,0.8,1c0.3,0.3,0.5,0.6,0.9,0.8c0.3,0.1,0.5,0,0.7-0.1
					c0.1-0.1,0.1-0.2,0.1-0.4C54.2,61,54.1,60.9,53.9,60.9z M52.8,58.7c0,0.1-0.1,0.2-0.1,0.2c-0.2,0.3-0.5,0.5-0.9,0.6
					c0-0.3,0.1-0.5,0.2-0.8c0.1-0.2,0.3-0.4,0.6-0.4C52.8,58.4,52.9,58.5,52.8,58.7z M33.4,57.7c-0.1,0-0.3-0.1-0.3,0.1
					c0,0.1-0.1,0.1-0.2,0.1c-0.5-0.1-0.9,0.1-1.2,0.4c-0.7,0.7-1,1.5-1,2.5c0,0.7,0.4,1,1,0.8c1.3-0.3,2.2-1.5,2.3-2.9
					C34,58.4,33.7,57.9,33.4,57.7z M33.2,59.2c-0.1,0.5-0.3,1.1-0.8,1.5c-0.2,0.1-0.4,0.2-0.6,0.3c-0.3,0-0.5-0.1-0.5-0.4
					c0.1-0.6,0.2-1.1,0.6-1.6c0.2-0.3,0.6-0.4,1-0.2C33.1,58.8,33.2,58.9,33.2,59.2z M49,58.8c0.1,0,0.3,0,0.4,0
					c0.4,0,0.8,0,1.2-0.1c0.1,0,0.3-0.1,0.4-0.2c0.1-0.2,0.1-0.3-0.1-0.3c-0.5,0-1-0.1-1.5,0c-0.3,0-0.6,0.1-0.7,0.5c0,0,0,0,0,0
					c-0.3,0.1-0.5,0.4-0.6,0.7c-0.2,0.6-0.4,1.3-0.5,1.9c0,0.2,0,0.3,0.1,0.3c0.1,0.1,0.2,0.1,0.3,0c0.6-0.1,1.2-0.3,1.8-0.3
					c0.1,0,0.2,0,0.2-0.1c0.1-0.1,0.2-0.3,0.2-0.4c0-0.2-0.2-0.2-0.3-0.2c-0.1,0-0.2,0-0.3,0c-0.4,0-0.8,0-1.1,0.1
					c0.1-0.4,0.1-0.4,0.5-0.4c0.3,0,0.6,0,0.9-0.1c0.2-0.1,0.3-0.2,0.3-0.4c0-0.1,0-0.2-0.2-0.2c-0.1,0-0.2,0-0.3,0
					c-0.3,0-0.5,0-0.8,0.1c0-0.1,0.1-0.2,0.1-0.3C48.9,59.1,48.8,58.9,49,58.8z M30.3,58c-0.2-0.1-0.5-0.2-0.6-0.2
					c-0.5,0-0.8,0.2-1.1,0.4c-0.6,0.6-1,1.3-1.2,2.1c-0.1,0.3,0,0.6,0.1,0.9c0.1,0.2,0.3,0.3,0.5,0.2c0.6-0.1,1.1-0.3,1.6-0.6
					c0.2-0.1,0.3-0.2,0.4-0.3c0.1-0.1,0.2-0.2,0.2-0.4c0-0.1-0.1-0.2-0.2-0.2c-0.1,0-0.2,0-0.4,0.1c-0.4,0.1-0.7,0.3-1.1,0.4
					c-0.2,0-0.3,0-0.3-0.2c0-0.1,0-0.1,0-0.2c0.1-0.3,0.2-0.6,0.3-0.9c0.1-0.2,0.3-0.4,0.4-0.5c0.3-0.2,0.5-0.3,0.8-0.1
					c0.1,0.1,0.2,0,0.3,0c0.1-0.1,0.2-0.2,0.3-0.4C30.4,58.1,30.4,58.1,30.3,58z M47.3,58.2c-0.5-0.4-1.2-0.4-1.7,0.1
					c-0.3,0.3-0.3,0.6-0.2,1c0.1,0.3,0.3,0.5,0.5,0.8c0.1,0.2,0.3,0.3,0.4,0.5c0.1,0.1,0,0.2-0.1,0.3c-0.1,0-0.2,0-0.3,0
					c-0.3-0.1-0.5-0.2-0.7-0.4c-0.1-0.1-0.1-0.1-0.1-0.2c0-0.1-0.1-0.2-0.2-0.2c-0.1,0-0.3,0-0.4,0.1c-0.1,0.3-0.1,0.5,0.2,0.7
					c0.5,0.4,1.1,0.6,1.7,0.7c0.5,0,0.9-0.5,0.7-1c-0.1-0.2-0.2-0.4-0.3-0.6c-0.2-0.3-0.4-0.6-0.7-0.9c-0.2-0.2-0.1-0.4,0.2-0.5
					c0.2-0.1,0.5,0,0.7,0.1c0.2,0.2,0.4,0.1,0.5-0.2C47.5,58.4,47.4,58.3,47.3,58.2z M55,34.3c0.3-0.1,0.5-0.2,0.8-0.3
					c0.1,0,0.2-0.1,0.2-0.3c0.1-1.1,0.2-2.2,0.3-3.3c0-0.2,0-0.2-0.2-0.1c-0.8,0.3-1.7,0.5-2.5,0.8c-0.3,0.1-0.3,0.1-0.4-0.2
					C52.8,30,52.4,29,52.1,28c-0.1-0.2-0.1-0.4,0-0.6c0.1-0.3,0-0.7,0-1c0,0,0,0,0-0.1c-0.1-1-0.2-1.9-0.5-2.8
					c-0.2-0.8-0.5-1.6-0.9-2.3c-0.4-0.8-0.9-1.6-1.3-2.3c-0.2-0.3-0.4-0.6-0.8-0.8C48.5,18,48.3,18,48.2,18c-0.2,0-0.3,0-0.4,0.2
					c-0.2,0.2-0.2,0.5-0.1,0.8c0.3,0.8,0.7,1.5,1,2.3c0,0,0,0.1,0.1,0.1c-0.1,0-0.1,0-0.1-0.1c-0.5-0.6-1.2-1-1.8-1.5
					c-0.9-0.6-1.8-1.1-2.7-1.6c-0.1-0.1-0.3-0.1-0.4-0.1c-0.2,0-0.5,0-0.7-0.1c-0.4,0-0.7,0.2-0.7,0.5c0,0.2-0.1,0.2-0.2,0.3
					c-0.1,0-0.3,0.2-0.4,0.4c-0.1,0.4,0.1,0.8,0.4,1.1c0.8,0.8,1.6,1.5,2.4,2.3c0,0,0,0,0,0c0,0,0,0,0.1,0.1c0,0,0,0,0,0
					c0,0,0,0-0.1,0c0,0,0,0,0,0c-0.1-0.1-0.2-0.1-0.3-0.2c-0.5-0.4-1.1-0.7-1.6-1.1c-0.3-0.2-0.5-0.3-0.8-0.3
					c-0.3,0-0.5,0.1-0.7,0.3c-0.1,0.1-0.2,0.3-0.2,0.5c0,0.3,0.2,0.4,0.4,0.6c0.9,0.6,1.7,1.3,2.5,2.1c0.1,0.1,0.1,0.1,0.2,0.2
					c0.2,0.2,0.3,0.4,0.5,0.7c0.1,0.1,0,0.1-0.1,0.1c-0.8,0-1.5,0.2-2.3,0.4c-0.3,0.1-0.6,0.2-0.7,0.5c-0.1,0.4-0.2,0.6,0.3,0.7
					c0.9,0.2,1.8,0.6,2.7,0.9c0.1,0,0.1,0.1,0.2,0.1c0.2,0.2,0.4,0.4,0.7,0.6c0.7,0.5,1.4,0.9,2.2,1.1c0.1,0,0.2,0.1,0.3,0.1
					c0.1,0,0.2,0.1,0.2,0.2c0.1,0.3,0.3,0.5,0.6,0.6c0,0,0.1,0,0.1,0.1c0.1,0,0.1,0.1,0.2,0.2c0.1,0.4,0.3,0.9,0.4,1.3
					c0,0.1,0,0.2-0.1,0.2c-0.7,0.2-1.4,0.4-2,0.6c-0.2,0.1-0.2,0.1-0.1,0.3c0.6,1,1.1,2,1.7,3c0.2,0.4,0.2,0.4,0.7,0.2
					c0,0,0.1-0.1,0.1,0c0,0.1,0.1,0.2,0,0.2c-0.2,0.2-0.3,0.5-0.5,0.8c-0.1,0.1-0.1,0.1,0,0.2c0.2,0.3,0.4,0.6,0.5,0.9
					c0,0,0.1,0.1,0.1,0.1c-0.1,0.2-0.1,0.4-0.2,0.7c-0.1-0.5-0.3-0.9-0.6-1.3c-0.3-0.5-0.8-1-1.1-1.5c-0.1-0.1-0.1-0.1-0.2-0.2
					c-0.4-0.4-0.8-0.6-1.3-0.9c-0.2-0.1-0.4-0.2-0.6-0.2c-0.7-0.1-1.4-0.2-2,0c-0.1,0-0.2,0-0.3-0.1c-0.2-0.2-0.3-0.5-0.5-0.7
					c-0.5-0.4-1.1-0.8-1.8-1.1c-0.5-0.2-1-0.3-1.6-0.3c-0.3,0-0.6,0-0.8,0c-0.7,0.1-1.4,0.1-2.1,0.5c-0.1,0.1-0.3,0.1-0.4,0.2
					c-0.7,0.4-1.3,0.7-1.9,1.2c-0.6,0.6-1.1,1.1-1.6,1.7c-0.6,0.7-1,1.5-1.4,2.3c0,0.1,0,0.1-0.1,0.2c-0.1-0.5-0.1-0.9-0.2-1.4
					c0-0.1,0-0.1,0.1-0.1c0.2,0,0.3,0,0.5,0c0.1,0,0.2,0,0.2-0.1c0-0.2,0.1-0.4,0.1-0.6c0.1-0.7,0.4-1.4,0.6-2.1
					c0-0.1,0-0.2-0.1-0.2c-0.7-0.2-1.4-0.4-2.1-0.5c-0.1,0-0.2-0.1-0.2-0.2c0.2-0.5,0.2-1.1,0.4-1.6c0-0.1,0-0.1,0.1-0.2
					c0.2-0.1,0.3-0.3,0.3-0.6c0-0.2,0.1-0.3,0.3-0.4c0.3-0.2,0.7-0.3,1-0.5c0.3-0.1,0.5-0.3,0.6-0.6c0.6-1.1,1.1-2.3,1.8-3.3
					c0.1-0.1,0.1-0.2,0.2-0.3c0.5-0.5,0.9-1,1.4-1.4c0.2-0.1,0.2-0.3,0.2-0.5c0-0.2-0.1-0.4-0.3-0.6c-0.1-0.2-0.3-0.3-0.5-0.3
					c-0.1,0-0.1,0-0.2,0c0-0.1,0.1-0.1,0.1-0.1c0.6-0.4,1.2-0.8,1.9-1.2c0.8-0.5,1.5-1,2.3-1.5c0.1-0.1,0.1-0.1,0-0.2
					c0,0,0-0.1-0.1-0.1c-0.2-0.2-0.2-0.2-0.4-0.1c-2.1,1.3-4.2,2.6-6.3,3.9c-0.2,0.1-0.2,0.1-0.3-0.1c-0.2-0.5-0.3-1-0.5-1.5
					c0-0.1,0-0.2,0.1-0.3c0.5-0.4,1-0.9,1.5-1.4c0.2-0.2,0.3-0.4,0.3-0.7c0-0.3-0.2-0.5-0.4-0.4c-0.1,0.1-0.3,0.1-0.4,0.2
					c-1.2,0.7-2.6,1.2-3.9,1.6c-0.1,0-0.1,0-0.2,0c-0.1-0.2-0.3-0.3-0.5-0.4c0,0-0.1,0-0.1,0c-0.2,0-0.4,0.1-0.5,0.3
					c-0.3,0.4-0.7,0.8-0.9,1.2c-0.3,0.5-0.6,1-1,1.5c-0.1,0.1-0.1,0.1-0.2,0c-0.4-0.7-0.8-1.4-1.2-2c-0.1-0.2-0.3-0.4-0.4-0.6
					c-0.2-0.2-0.4-0.3-0.7-0.3c0,0-0.1,0-0.1,0.1c0,0.2-0.1,0.4-0.1,0.6c0.1,0.5,0.1,1,0.3,1.5c0.2,0.8,0.4,1.7,0.7,2.5
					c0.2,0.8,0.5,1.6,0.8,2.4c0,0.1,0.1,0.1,0,0.2c-0.1,0.1-0.3,0.1-0.3,0.2c0,0.1,0.1,0.3,0.1,0.4c0,0,0,0,0,0
					c0,0.1,0.1,0.3,0.1,0.3c0.1,0.1,0.2-0.1,0.3-0.1c0.1-0.1,0.1,0,0.2,0.1c0.2,0.5,0.5,1.1,0.7,1.6c0,0.1,0,0.2,0,0.3
					c-0.2,0.4-0.3,0.9-0.4,1.3c0,0.1-0.1,0.1-0.2,0.1c-0.5-0.1-1-0.3-1.5-0.4c-0.2-0.1-0.2-0.1-0.3,0.2v0c-0.1,1.2-0.2,2.4-0.3,3.7
					c0,0.1,0,0.2,0.1,0.2c0.4,0,0.7,0.1,1.1,0.2c0.1,0,0.1,0,0.1,0.1c-0.1,0.4-0.1,0.8-0.2,1.2c0,0.1,0,0.2,0.1,0.3
					c0.1,0.2,0.2,0.3,0.4,0.5c0.1,0.1,0.1,0.3,0.1,0.4c0,0.1-0.1,0.1-0.1,0.2c0,0.8,0,1.5,0,2.3c0,0.4,0,0.7,0,1.1
					c0,1,0.1,2,0.1,2.9c0,0.5-0.1,1,0,1.4c0,0.1,0,0.2,0.2,0.2c0.3,0.1,0.6,0.2,0.9,0.3c0.2,0,0.3,0.1,0.3,0.3
					c0.1,0.1,0.1,0.3,0.1,0.4c0,0.1,0,0.2,0.1,0.3c0.5,0.3,0.9,0.7,1.4,1c1.2,0.9,2.4,1.8,3.6,2.6c0.1,0.1,0.1,0.1,0.1,0.3
					c-0.1,0.1-0.1,0.2-0.2,0.4c-0.1,0.1,0,0.2,0.1,0.2c0.1,0.1,0.3,0.2,0.4,0.3c0.1,0.1,0.1,0.3,0.1,0.4c0,0.1-0.2,0-0.2,0
					c-0.1,0-0.1,0-0.2,0c-0.6-0.1-1.1-0.2-1.7-0.3c-0.9-0.1-1.8-0.2-2.8-0.1c0,0-0.1,0-0.1,0.1c0,0.1,0,0.2,0.1,0.2
					c0,0,0.1,0,0.1,0.1c0.5,0.2,1,0.4,1.5,0.7c0.3,0.2,0.6,0.4,0.9,0.5c0.1,0,0.1,0.1,0.2,0c-0.5-0.4-1-0.8-1.5-1.2
					c0.1-0.1,0.1,0,0.2,0c0.6,0,1.2,0.1,1.8,0.3c1.3,0.3,2.6,0.7,3.9,1c0.4,0.1,0.9,0.2,1.2,0.4c0.1,0.1,0.1,0.1,0.1,0.2
					c0,0,0,0.1,0,0.1c0,0-0.1,0-0.1,0c-0.3,0-0.6,0-0.9-0.1c-0.8-0.1-1.7-0.2-2.5-0.2c-0.6,0-1.3,0-1.9,0c-0.9,0.1-1.8,0.2-2.7,0.3
					c0,0-0.1,0-0.1,0c0,0.1,0,0.1,0.1,0.2c0.1,0,0.1,0,0.2,0c0.5,0,0.9,0,1.4,0c1.1,0,2.3,0,3.4,0.1c0.4,0,0.8,0,1.2,0.1
					c1.9,0.4,3.8,0.7,5.6,1.1c0.2,0,0.4,0.1,0.7,0.2c-0.1,0.1-0.2,0.1-0.3,0.3c-0.4,0.9-0.7,1.9-1,2.9c-0.1,0.2,0.1,0.4,0.2,0.4
					c0.3,0.1,0.6-0.1,0.6-0.4c0-0.2,0.1-0.4,0.1-0.6c0-0.1,0-0.1,0.1-0.1c0.2-0.1,0.5-0.2,0.7-0.3c0.4-0.1,0.7-0.3,1-0.6
					c0.2-0.2,0.5-0.5,0.5-0.9c0-0.1,0-0.2,0.1-0.2c0.4-0.3,0.8-0.7,1.1-1c0.3-0.4,0.7-0.7,1.1-1c0,0,0.1-0.1,0.1-0.1
					c0.3,0.1,0.7,0.3,1,0.4c-0.7,0.4-1.3,0.8-2,1.2c0,0-0.1,0-0.1,0c-0.2,0.1-0.4,0.2-0.6,0.4c-0.7,0.7-1,1.5-1,2.5
					c0,0.7,0.4,1,1,0.8c1.1-0.3,2.1-1.3,2.3-2.5c0-0.3,0.1-0.7-0.1-0.9c-0.1-0.1-0.2-0.2-0.3-0.4c0,0,0.1,0,0.1,0
					c1.4-0.8,3-1.4,4.5-2c1.9-0.7,3.8-1.2,5.8-1.7c0,0-0.1,0-0.1,0c-0.1,0-0.3,0-0.4,0c-0.5,0-1.1,0.1-1.6,0.2c0,0,0,0,0,0
					c0,0-0.1,0-0.2,0c0,0-0.1,0-0.1,0c0.1-0.1,0.5-0.5,0.6-0.5l0,0h0c0,0,0,0,0,0c0-0.1,0.1-0.1,0.1-0.1c0.1-0.1,0.2-0.3,0.4-0.3
					c0.1-0.1,0.2-0.1,0.3-0.2h0c0.3,0,0.6-0.4,0.9-0.5c0,0,0,0,0,0c-0.4,0.1-0.9,0.1-1.3,0.3c-0.9,0.3-1.8,0.6-2.7,1
					c-1.4,0.6-2.7,1.2-4,1.9c0,0-0.1,0-0.1,0.1c0-0.3-0.1-0.6-0.1-0.9c0-0.1,0-0.1,0.1-0.1c1.2-0.6,2.3-1.2,3.5-1.7
					c1-0.4,2-0.9,3-1.3c0,0,0,0,0,0h0c0,0,0,0,0,0c0,0,0,0,0,0c0,0,0,0,0,0h0c-0.3,0.4-0.5,0.8-0.7,1.2c0.1,0,0.1,0,0.1,0
					c0.2-0.2,0.4-0.4,0.6-0.7c0.4-0.4,0.8-0.8,1.3-1.2c0,0,0.1,0,0.1-0.1c0-0.1-0.1,0-0.1,0c-0.5,0.1-0.9,0.2-1.4,0.3
					c-0.1,0-0.1,0-0.1-0.1c0-0.4,0-0.7,0.1-1.1c0-0.2,0-0.3,0.1-0.5c0.2-0.4,0.4-0.8,0.5-1.2c0.1-0.2,0.1-0.4,0.2-0.6
					c0.1-0.4,0.1-0.7,0.1-1.1c0.1-0.5,0.3-1.1,0.3-1.6c0.1-0.7,0.2-1.4,0.5-2c0.2-0.6,0.4-1.2,0.7-1.7c0.3-0.8,0.7-1.5,0.9-2.4
					c0.1-0.3,0.1-0.6,0-0.8c-0.1-0.2-0.1-0.3-0.1-0.5c0-0.1,0-0.2,0-0.4c0.1-0.4,0.1-0.9-0.1-1.3c-0.1-0.1,0-0.2,0.1-0.3
					c0.2-0.2,0.2-0.2,0-0.4c-0.2-0.2-0.3-0.4-0.5-0.6c-0.1-0.2-0.3-0.3-0.4-0.5C54.9,34.4,54.9,34.4,55,34.3z M43.2,60.7
					c-0.2,0.1-0.4,0.2-0.6,0.3c-0.3,0-0.5-0.1-0.5-0.4c0.1-0.6,0.2-1.1,0.6-1.6c0.2-0.3,0.6-0.4,0.9-0.2c0.2,0.1,0.3,0.2,0.3,0.5
					C43.9,59.7,43.7,60.2,43.2,60.7L43.2,60.7z M49.1,30.3c0-0.1-0.1-0.2-0.2-0.2c-0.2,0-0.3,0-0.3-0.2c-0.1-0.2-0.2-0.5-0.4-0.7
					c-0.2-0.1-0.5-0.1-0.7-0.2C47.2,29,47,29,46.8,29c-0.4-0.1-0.8-0.3-1.1-0.5c-0.6-0.4-1.1-0.8-1.7-1.1c-0.2,0-0.4-0.1-0.6-0.1
					c-0.5-0.1-1-0.2-1.5-0.3c-0.1,0-0.1-0.1-0.2-0.2c0-0.1,0-0.2,0.1-0.3c0.2-0.1,0.3-0.1,0.5-0.1c0.8-0.1,1.6-0.2,2.5-0.2
					c0.2,0,0.4,0.1,0.6,0.1c0.1,0,0.2,0,0.3-0.1c0.4-0.3,0.8-0.5,1.2-0.8c0.1,0,0.2-0.1,0.1-0.2c0,0,0,0,0,0c0,0,0,0-0.1,0
					s-0.1,0-0.1,0h0c-0.4,0-0.8,0.1-1.2,0.4c-0.1,0.1-0.5,0-0.6-0.1c-0.6-0.9-1.5-1.6-2.3-2.4c-0.4-0.3-0.7-0.7-1.1-1
					c-0.1-0.1-0.1-0.3-0.1-0.4c0.1-0.1,0.2-0.1,0.3,0c0.3,0.1,0.7,0.3,1,0.5c1,0.7,2.1,1.4,3.2,2c0,0,0.1,0,0.1,0
					c0.2,0.1,0.3,0,0.2-0.2c0-0.1-0.1-0.2-0.1-0.2c-0.9-1-1.8-2.1-2.8-3.1c-0.2-0.2-0.4-0.4-0.6-0.6c-0.2-0.1-0.3-0.3-0.4-0.5
					c-0.1-0.1,0-0.2,0-0.3c0.1-0.1,0.1-0.1,0.3,0c0.3,0.1,0.6,0.3,0.9,0.5c0.5,0.4,1,0.7,1.5,1.1c0.5,0.4,1,0.7,1.5,1.1
					c0,0,0.1,0.1,0.1,0.1c0.1,0.1,0.2,0.2,0.3,0.3c0,0,0,0,0.1,0.1c0,0,0.1,0.1,0.1,0.1c0.1,0.1,0.2,0.1,0.3,0c0,0,0.1-0.1,0.1-0.1
					c0,0,0,0,0,0c0,0,0,0,0,0c0,0,0-0.1-0.1-0.1c-0.1-0.1-0.2-0.2-0.3-0.3c-0.2-0.2-0.4-0.4-0.6-0.5c-0.6-0.5-1.3-1-2-1.5
					c-0.3-0.3-0.7-0.4-1.1-0.6c-0.1-0.1-0.2-0.2-0.3-0.3c-0.1-0.1-0.1-0.2,0-0.3c0-0.1,0.1-0.1,0.2-0.1c0.1,0,0.3,0,0.4,0.1
					c0.8,0.4,1.7,0.9,2.5,1.3c0.1,0,0.1,0.1,0.2,0.1c0.5,0.3,0.9,0.6,1.3,1c0.2,0.2,0.4,0.4,0.5,0.6c0.1,0.1,0,0.2,0,0.2
					c0,0-0.1,0.1-0.2,0.1c-0.1,0-0.1,0.1-0.1,0.2c0,0.1,0.1,0.1,0.2,0.1c0.1,0,0.2,0,0.3,0c0.3-0.1,0.6,0.1,0.8,0.3
					c0.1,0.1,0.1,0.2,0.2,0.1c0.1,0,0.1-0.1,0.1-0.3c0-0.3-0.1-0.5-0.2-0.8c-0.2-0.7-0.5-1.3-0.8-2c-0.1-0.2-0.2-0.5-0.3-0.7
					c-0.1-0.1,0-0.2,0.1-0.3c0.1-0.1,0.1,0,0.2,0c0.3,0.1,0.4,0.3,0.6,0.6c0.1,0.3,0.3,0.5,0.5,0.8c0.3,0.5,0.6,0.9,0.8,1.4
					c0.3,0.7,0.7,1.4,0.9,2.2c0.2,0.7,0.4,1.3,0.5,2c0,0.3,0,0.5,0,0.8c0.1,0.5,0,1-0.2,1.5c-0.1,0.1,0,0.3,0,0.4c0.5,1,0.8,2,1.2,3
					c0,0.1,0,0.2-0.1,0.2c-0.9,0.3-1.8,0.5-2.6,0.8c-0.1,0-0.2,0-0.2-0.1C49.5,31.5,49.3,30.9,49.1,30.3L49.1,30.3z M43.5,35.9
					c0.4-0.1,0.7-0.2,1.1-0.1c0,0,0,0,0,0c0.5,0.1,1,0.3,1.4,0.5c0.1,0,0.2,0.1,0.2,0.1c0.3,0.2,0.6,0.5,0.8,0.7
					c0.3,0.4,0.7,0.9,1,1.4c0,0,0,0-0.1,0l0,0c-0.1-0.1-0.2-0.1-0.3-0.2c-0.4-0.2-0.8-0.5-1.2-0.7c-0.2-0.1-0.4-0.1-0.6-0.2
					c-0.6-0.1-1.1-0.1-1.7-0.1c-0.2,0-0.3,0-0.5,0c-0.1,0-0.2-0.1-0.2-0.2c0-0.4,0-0.9-0.1-1.3C43.4,35.9,43.5,35.9,43.5,35.9
					L43.5,35.9z M43.4,39C43.4,39,43.4,39,43.4,39C43.4,39,43.4,39,43.4,39C43.5,39,43.5,39,43.4,39c0-0.1,0-0.1,0-0.1c0,0,0,0,0,0
					c0,0,0,0,0,0c0,0,0,0,0,0c0,0,0,0,0,0c0,0,0,0,0,0c0,0,0,0,0,0c0,0,0,0,0,0c0,0,0,0,0,0c0,0,0,0,0,0c0,0,0,0,0,0c0,0,0,0,0,0v0
					v0v0v0v0v0v0v0v0v0v0v0v0v0v0v-0.1c0-0.1,0-0.2,0.2-0.2c0.1,0,0.3,0,0.4,0c0,0,0.1,0,0.1,0c0.1,0,0.1,0,0.2,0c0.2,0,0.5,0,0.7,0
					c0.4,0,0.8,0.1,1,0.3c0.2,0.1,0.3,0.2,0.5,0.3c0.4,0.2,0.8,0.5,1.2,0.7c0.1,0.1,0.2,0.1,0.2,0.2c0.1,0.2,0.3,0.4,0.4,0.6
					c0,0,0.1,0.1,0,0.1c0,0,0,0,0,0c0,0,0,0,0,0c0,0-0.1,0-0.1,0c-0.2-0.1-0.4-0.2-0.5-0.3c-0.6-0.4-1.3-0.6-2-0.8
					c-0.1,0-0.1,0-0.2,0c-0.2-0.1-0.4-0.1-0.6-0.1l-0.3-0.1c0,0,0,0,0,0c0,0,0,0,0,0c0,0,0,0,0.1,0.1c0,0,0,0,0,0
					c0.4,0.2,1.1,0.3,1.6,0.6l0,0c0,0,0,0,0,0c-0.1,0-0.1-0.1-0.2-0.1c0,0,0,0,0,0c0,0,0,0,0,0c0,0,0,0,0,0c0,0,0,0,0,0
					c0.1,0,0.1,0.1,0.2,0.1c0,0,0,0,0,0l0,0c0,0,0.1,0,0.1,0.1c0.3,0.1,0.5,0.3,0.8,0.5l0.5,0.4c0.7,0.5,1.2,1.3,1.4,2.1
					c0,0,0,0.1,0,0.1l0,0c0,0.1,0,0.1,0,0.2c0,0,0,0,0,0c0,0.1-0.1,0.1-0.2,0.1c-0.4,0-0.8-0.1-1.1-0.2c0,0,0,0,0,0
					c-0.1,0-0.2-0.1-0.3-0.1c-0.4-0.1-0.8-0.3-1.1-0.4c-0.5-0.2-0.8-0.5-1.2-0.8c-0.6-0.5-1.3-0.9-1.8-1.5c-0.1-0.1-0.1-0.1-0.1-0.2
					c0-0.1-0.1-0.2-0.1-0.3c0-0.1,0-0.1-0.1-0.2c0,0,0-0.1,0-0.1c0,0,0,0,0,0c0,0,0,0,0,0v0c0,0,0,0,0,0
					C43.4,39.2,43.4,39.1,43.4,39L43.4,39z M46.2,39.3C46.2,39.3,46.2,39.3,46.2,39.3C46.2,39.3,46.2,39.3,46.2,39.3
					C46.2,39.3,46.2,39.3,46.2,39.3C46.2,39.3,46.2,39.3,46.2,39.3L46.2,39.3z M46.1,39.3C46.1,39.3,46.1,39.3,46.1,39.3
					C46.1,39.3,46.1,39.3,46.1,39.3c-0.1,0-0.1,0-0.1,0C46,39.2,46,39.3,46.1,39.3C46.1,39.3,46.1,39.3,46.1,39.3
					C46.1,39.3,46.1,39.3,46.1,39.3L46.1,39.3z M45.3,39L45.3,39C45.3,39,45.2,39,45.3,39C45.2,39,45.3,39,45.3,39L45.3,39z
					 M45,38.9C45,38.9,45,38.9,45,38.9C45.1,38.9,45.1,38.9,45,38.9C45.1,38.9,45.1,38.9,45,38.9C45.1,38.9,45.1,38.9,45,38.9
					C45,38.9,45,38.9,45,38.9L45,38.9z M43.3,36C43.3,36,43.3,36,43.3,36C43.3,36,43.3,36,43.3,36L43.3,36z M43.1,39.9
					C43.1,39.8,43.1,39.8,43.1,39.9C43.2,39.8,43.2,39.8,43.1,39.9c0.1,0,0.1,0,0.1,0c0.1,0.3,0.3,0.5,0.5,0.7
					c0.2,0.2,0.5,0.4,0.7,0.6c0.5,0.4,1,0.9,1.5,1.3c0.3,0.3,0.7,0.4,1.1,0.5c0.9,0.2,1.9,0.3,2.9,0.5c0.3,0,0.5,0.1,0.7,0.3h0
					c0,0,0,0,0,0c-0.5-0.1-1.1-0.1-1.6-0.1c-0.6,0-1.2,0.1-1.8,0.1c-0.2,0-0.4,0-0.6,0c-0.6-0.1-1.1-0.4-1.6-0.6
					c-0.6-0.3-1.1-0.6-1.6-1.1c0,0-0.1-0.1-0.1-0.1c-0.2-0.2-0.3-0.3-0.4-0.5c0,0,0,0,0,0c0,0,0,0,0,0c-0.2-0.4-0.2-0.8,0-1.3
					C43,40.1,43.1,40,43.1,39.9L43.1,39.9z M47.9,47.6L47.9,47.6h-0.1c-0.1,0-0.1,0-0.2,0c-0.1,0-0.1,0-0.2,0.1
					c0,0.1-0.1,0.1-0.1,0.2c0,0,0,0,0,0c-0.1,0.3-0.3,0.6-0.6,0.9c-0.1,0.1-0.1,0.1-0.2,0.2c-0.1,0.1-0.3,0.3-0.5,0.4
					c-0.3,0.2-0.6,0.3-0.9,0.4c0,0,0,0-0.1,0c0,0,0,0-0.1,0c0,0,0,0,0,0c0,0,0,0-0.1,0c-0.1,0-0.1,0.1-0.1,0.2
					c0,0.1,0.1,0.1,0.2,0.1c0,0,0,0,0.1,0c0.1,0,0.2,0,0.3-0.1c0.1,0,0.2-0.1,0.3-0.1c0.1,0,0.1-0.1,0.2-0.1
					c-0.1,0.2-0.1,0.4-0.2,0.6c0,0,0,0.1,0,0.1c-0.1,0.1-0.1,0.2-0.2,0.4c0,0.1-0.1,0.2-0.1,0.2c-0.2,0.4-0.4,0.8-0.7,1.2
					c-0.1,0.1-0.1,0.1-0.2,0.2c-0.1,0.1-0.3,0.3-0.5,0.4c-0.1,0-0.1,0.1-0.2,0.1c-0.1,0.1-0.3,0.2-0.4,0.2c-0.1,0.1-0.2,0.1-0.3,0.2
					c0,0-0.1,0-0.1,0.1c0,0-0.1,0-0.1,0c0,0-0.1,0-0.1,0c-0.1,0-0.1,0.1-0.2,0.1c0,0,0,0-0.1,0c-0.1,0-0.2,0.1-0.2,0.1
					c-0.2,0.1-0.5,0.1-0.7,0.2c-0.1,0-0.2,0-0.3,0.1c0,0,0,0,0,0c-0.1,0-0.2,0-0.3,0c-0.1,0-0.2,0-0.3,0c-0.4,0-0.7,0-1.1,0
					c0,0,0,0,0,0c0,0,0,0-0.1,0c-0.1,0-0.2-0.1-0.3-0.1c-0.1-0.1-0.2-0.1-0.3-0.2c-0.1,0-0.2-0.1-0.2-0.1c-0.1-0.1-0.2-0.1-0.3-0.2
					c-0.2-0.1-0.3-0.3-0.4-0.5c0-0.1-0.1-0.2-0.2-0.4c0,0,0-0.1-0.1-0.1c-0.1-0.2-0.3-0.5-0.5-0.7c-0.1-0.1-0.1-0.2-0.2-0.3
					c0,0-0.1-0.1-0.1-0.1c-0.2-0.2-0.3-0.3-0.5-0.5c0,0-0.1-0.1-0.1-0.1c-0.2-0.2-0.3-0.3-0.5-0.5c0,0-0.1-0.1-0.1-0.1
					c-0.1-0.1-0.3-0.2-0.4-0.3c0,0-0.1,0-0.1-0.1c0,0-0.1,0-0.1-0.1c-0.5-0.3-0.9-0.8-1.1-1.4c0,0,0,0,0,0c-0.1-0.2-0.2-0.2-0.4-0.2
					c-0.2,0-0.3,0-0.5-0.1l0,0l0,0c-0.1,0-0.2-0.1-0.2-0.2l0,0c0,0-0.1-0.1-0.1-0.2c-0.3-0.4-0.5-0.8-0.7-1.2c0,0,0,0,0,0
					c0,0,0,0,0,0c0,0,0,0,0,0c0-0.1-0.1-0.2-0.1-0.4c0-0.1,0-0.1-0.1-0.2c0-0.1,0-0.1,0-0.2c0,0,0-0.1,0-0.1c0,0,0,0,0-0.1
					c0,0,0,0,0,0c0,0,0,0,0-0.1c0-0.1,0.1-0.2,0.2-0.3c0,0,0.1-0.1,0.1-0.1c0.1-0.1,0.2-0.1,0.3-0.2c0.1-0.1,0.3-0.2,0.4-0.2
					c0.5-0.3,1-0.4,1.6-0.6c0,0,0.1,0,0.1,0c0.1,0,0.1,0,0.2,0c0.1,0,0.1,0,0.2,0c0.1,0,0.1,0,0.2,0c0,0,0.1,0,0.1,0
					c0.2,0,0.4,0,0.7,0c0.3,0,0.7,0,1-0.1c0.3,0,0.7-0.1,1-0.1c0.6-0.1,1.2-0.2,1.7-0.4c0.1,0,0.2-0.1,0.3-0.2
					c0.1,0,0.1-0.1,0.2-0.1c0,0,0.1,0,0.1-0.1c0.3-0.1,0.5-0.3,0.8-0.4c0,0,0.1,0,0.1-0.1c0,0,0,0,0,0v0c0,0,0,0,0,0.1c0,0,0,0,0,0
					c-0.3,0.3-0.6,0.5-0.9,0.8c0,0-0.1,0.1-0.1,0.1c-0.1,0.1-0.2,0.2-0.3,0.3c0.4,0,0.8,0,1.1-0.1c0.5-0.1,0.9-0.4,1.3-0.8
					c0.1-0.1,0.2-0.2,0.3-0.3c0.2-0.3,0.4-0.5,0.5-0.9c0.1,0.4,0.4,0.7,0.7,1c0,0,0,0,0.1,0.1c0,0,0,0,0.1,0.1c0,0,0.1,0.1,0.1,0.1
					c0,0,0.1,0,0.1,0.1c0,0,0.1,0,0.1,0.1c0,0,0,0,0,0c0.2,0.2,0.4,0.3,0.6,0.4c0.1,0.1,0.3,0.2,0.4,0.3c0.2,0.1,0.4,0.3,0.6,0.4
					c0.3,0.2,0.6,0.3,0.9,0.5c0.1,0,0.1,0.1,0.2,0.1c0.2,0.1,0.5,0.2,0.7,0.3c0,0,0,0,0,0c0.1,0,0.3,0.1,0.5,0.1c0.1,0,0.1,0,0.2,0
					c0,0,0.1,0,0.1,0c0,0,0.1,0.1,0.1,0.1c0.1,0.1,0.3,0.3,0.3,0.4c0,0,0,0,0,0c0,0,0,0,0,0c0,0,0,0.1-0.1,0.1
					c-0.1,0.1-0.1,0.2-0.2,0.3c0,0,0,0,0,0c-0.1,0.1-0.1,0.3,0,0.5c0.2-0.2,0.4-0.4,0.5-0.7c0-0.1,0.1-0.1,0.1-0.2
					c0,0,0-0.1,0.1-0.2c0,0,0-0.1,0-0.2c0-0.1,0-0.1,0-0.2c0,0,0,0,0,0c0,0,0,0,0,0c0,0,0,0,0,0c0,0,0.1,0,0.1,0c0.1,0,0.2,0,0.3,0
					c0.1,0,0,0.1,0,0.1v0c0,0.2-0.1,0.3-0.1,0.4c0,0,0,0.1,0,0.1c-0.1,0.2-0.2,0.5-0.4,0.7C48.5,47.3,48.3,47.6,47.9,47.6L47.9,47.6
					z M48.3,48.4c-0.1,0.3-0.1,0.6-0.2,0.9c0,0.1,0,0.2-0.1,0.3c0,0,0-0.1,0-0.1c0,0,0,0,0,0c-0.1-0.5-0.1-0.9-0.1-1.3
					c0-0.1,0.1-0.1,0.1-0.1c0.1,0,0.2-0.1,0.3-0.1c0,0,0,0,0,0c0,0,0,0,0,0C48.5,48.2,48.4,48.3,48.3,48.4L48.3,48.4z M41.9,54.9
					c-0.2,0-0.3,0-0.5,0c-0.2,0-0.3,0-0.5-0.1c-0.1,0-0.1-0.1-0.1-0.2c0,0,0,0,0.1,0c0,0,0,0,0.1,0H41h0.2c0,0,0.1,0,0.1,0
					c0.1,0,0.3,0,0.4,0c0,0,0.1,0,0.1,0c0.1,0,0.1,0,0.1,0.1C42,54.8,42,54.9,41.9,54.9L41.9,54.9z M33.7,51L33.7,51
					c0.1-0.4,0.1-0.7,0.1-1.1c0-0.1,0-0.1,0.1,0c0.1,0.1,0.1,0.1,0.2,0.2c0,0,0,0,0,0c0,0,0,0,0,0c0,0,0,0.1,0,0.1
					C34,50.5,33.8,50.8,33.7,51C33.7,51,33.7,51,33.7,51C33.7,51,33.7,51,33.7,51L33.7,51L33.7,51z M47.8,44.9c-0.2,0-0.3,0-0.5,0
					c-0.3,0-0.6-0.2-0.8-0.3h0c0,0,0,0-0.1,0c0,0,0.1,0,0.1,0c0.1,0,0.1,0,0.2,0c0.4,0.1,0.9,0,1.3-0.1c0.4,0,0.8,0.1,1.2,0.3
					c0,0,0,0,0,0c0,0,0,0,0.1,0C48.8,44.9,48.3,45,47.8,44.9L47.8,44.9z M31.4,39.3c0.1-0.3,0.3-0.5,0.5-0.8
					c0.1-0.1,0.2-0.3,0.3-0.4c0-0.1,0.1-0.1,0.1-0.2c0.1-0.2,0.3-0.4,0.4-0.5c0.1-0.2,0.3-0.4,0.5-0.5c0.2-0.2,0.3-0.3,0.5-0.5
					c0.1-0.1,0.1-0.1,0.2-0.2l0-0.1c0.1-0.1,0.3-0.3,0.4-0.4l0,0c0,0,0.1-0.1,0.1-0.1c0.4-0.4,0.9-0.7,1.5-1.1
					c0.1,0,0.1-0.1,0.2-0.1c0.1,0,0.1-0.1,0.2-0.1c0,0,0,0,0.1,0c0.1,0,0.2-0.1,0.3-0.1c0.1,0,0.1,0,0.2-0.1
					c0.3-0.1,0.5-0.1,0.8-0.2c0.5-0.1,0.9-0.2,1.4-0.2c0.1,0,0.1,0,0.2,0c0.4,0,0.7,0.2,1,0.3c0.1,0.1,0.3,0.1,0.4,0.2
					c0,0,0.1,0,0.1,0.1c0.1,0.1,0.2,0.1,0.3,0.2c0.1,0,0.1,0.1,0.2,0.1c0.1,0,0.1,0.1,0.2,0.1c0.1,0.1,0.3,0.2,0.4,0.3
					c0.4,0.4,0.7,0.8,0.8,1.3c0.1,0.4,0.2,0.7,0.2,1.1c0,0.4-0.1,0.7-0.2,1.1c0,0.1,0,0.1-0.1,0.1c0,0,0,0-0.1-0.1
					c-0.1-0.2-0.3-0.3-0.4-0.5c-0.5-0.6-1.1-1-1.9-1.3c-0.6-0.2-1.2-0.3-1.8-0.3c-0.5,0-1,0.1-1.5,0.2c-0.4,0.1-0.8,0.1-1.2,0.2
					c-0.3,0-0.5,0.2-0.7,0.3c-0.1,0-0.2,0.1-0.3,0.1l0,0c-0.7,0.2-1.3,0.7-1.9,1c-0.2,0.1-0.3,0.3-0.4,0.4c0,0,0,0,0,0
					c0,0-0.1,0.1-0.1,0.1c-0.3,0.3-0.5,0.5-0.8,0.8c-0.1,0.2-0.3,0.3-0.5,0.5C31.1,39.8,31.2,39.6,31.4,39.3L31.4,39.3z M31.2,41
					C31.3,41,31.3,41,31.2,41c0.7-0.7,1.3-1.3,1.9-1.9c1.1-0.9,2.3-1.6,3.8-1.9c0.3-0.1,0.7-0.1,1-0.1c0.4,0,0.8,0,1.2,0
					c0.8,0,1.5,0.2,2.1,0.6c0.2,0.1,0.5,0.3,0.7,0.5c0,0,0,0,0,0c0.2,0.2,0.4,0.5,0.6,0.8c0.1,0.2,0.1,0.5,0.1,0.8
					c-0.1,0.7-0.6,1.3-1.1,1.8c-0.5,0.5-1.1,0.8-1.7,1.2c-0.8,0.5-1.7,0.7-2.6,0.9c-1.2,0.2-2.3,0.2-3.5,0.3
					c-0.4,0.1-0.8,0.1-1.3,0.2c-0.5,0.1-0.9,0.3-1.2,0.8c-0.1,0.2-0.2,0.3-0.3,0.6c0,0,0,0,0-0.1c-0.1-0.3,0-0.5,0.1-0.7
					c0.2-0.4,0.5-0.8,1-1c0.8-0.4,1.6-0.5,2.4-0.7c0.7-0.2,1.3-0.3,2-0.4c0.9-0.3,1.8-0.6,2.6-1c0.4-0.2,0.9-0.5,1.2-0.9
					c0.2-0.3,0.3-0.7,0.2-1c0-0.1,0-0.1,0-0.1c0,0-0.1,0-0.1,0c-0.3,0.3-0.7,0.6-1,0.8c-0.6,0.4-1.2,0.6-1.9,0.8
					c-1.1,0.3-2.1,0.5-3.2,0.6c-0.8,0.1-1.5,0.2-2.3,0.4c-0.6,0.2-1.3,0.4-1.8,0.9c-0.1,0.1-0.1,0.1-0.2,0.2c0,0,0,0,0-0.1
					c0,0,0,0,0,0c0,0,0,0,0,0c0,0,0,0,0,0c0-0.1,0.1-0.3,0.2-0.4C30.4,42.3,30.8,41.7,31.2,41L31.2,41z M35.6,42.2l1-0.2l0.2,0
					c-0.2,0.1-0.4,0.2-0.6,0.2c-1,0.3-2.1,0.4-3.1,0.6c-0.7,0.1-1.4,0.4-2,0.9c0,0-0.1,0.1-0.1,0.1c0,0-0.1,0-0.1,0c0,0,0,0,0,0
					c0-0.3,0.1-0.4,0.3-0.5c0.3-0.1,0.7-0.3,1-0.5c0.4-0.2,0.9-0.3,1.4-0.3C34.2,42.4,34.9,42.3,35.6,42.2L35.6,42.2z M35.6,42.2
					C35.6,42.2,35.6,42.2,35.6,42.2L35.6,42.2L35.6,42.2C35.6,42.2,35.6,42.2,35.6,42.2L35.6,42.2z M31.8,25c0,0,0,0.1,0,0.1
					c-0.2,0.1-0.3,0.2-0.5,0.3c0,0,0,0-0.1,0c0,0,0-0.1-0.1-0.1c-0.3-0.4-0.7-0.8-1-1.1c0-0.1-0.1-0.1,0-0.1
					c0.3-0.2,0.6-0.5,0.9-0.6c0.1,0,0.1,0,0.2,0.1C31.5,24,31.6,24.5,31.8,25L31.8,25z M29.1,22.7c0.5-0.2,0.9-0.4,1.4-0.5
					c0.7-0.3,1.3-0.6,1.9-1c0.1,0,0.1-0.1,0.2-0.1c0.1,0,0.1-0.1,0.2-0.1c0.1,0,0.1,0.1,0.1,0.2c0,0.1,0,0.2-0.1,0.3
					c-0.6,0.6-1.3,1.1-2,1.7c-0.3,0.2-0.6,0.3-0.9,0.5c-0.1,0-0.1,0-0.1,0c-0.2-0.3-0.4-0.6-0.7-0.8C29,22.7,29.1,22.7,29.1,22.7
					L29.1,22.7z M25.2,28.7c-0.5-1.6-1-3.1-1.4-4.7c-0.1-0.4-0.1-0.7-0.2-1.1c0-0.1,0.1-0.2,0.1-0.2c0.1,0,0.1,0.1,0.1,0.1
					c0.7,1,1.2,2,1.7,3.1c0.2,0.3,0.4,0.6,0.5,0.9c0,0.1,0.1,0.1,0.1,0.1c0.1,0,0.1-0.1,0.1-0.2c-0.1-0.3-0.2-0.6-0.4-0.9
					c0-0.1,0-0.2,0-0.3c0.3-0.5,0.6-1,0.9-1.5c0.3-0.5,0.6-0.9,0.8-1.3c0.1-0.2,0.4-0.3,0.6-0.1c0.1,0.1,0.2,0.3,0.3,0.4
					c0.3,0.5,0.8,0.9,1.2,1.3c0.3,0.3,0.6,0.6,0.9,0.9c0.1,0.1,0.1,0.2,0.2,0.4c0,0,0,0.1,0,0.1c0,0,0,0-0.1,0
					c-0.3,0.2-0.5,0.2-0.8,0c-0.6-0.3-1.1-0.7-1.6-1.2c0,0,0,0-0.1,0c-0.2-0.2-0.2-0.1-0.3,0.1c-0.1,0.2-0.2,0.5-0.3,0.7
					c0,0.1,0,0.2,0.1,0.2c0.1,0.1,0.1,0.2,0.2,0.2c0.1,0,0.1,0,0.1-0.1c0-0.1,0.1-0.3,0.1-0.5c0.5,0.4,1,0.7,1.5,1.1
					c-0.2,0.1-0.3,0.2-0.5,0.3c-1.3,0.7-2.6,1.5-3.9,2.2C25.3,28.8,25.2,28.9,25.2,28.7L25.2,28.7z M25.6,29.7c0-0.1,0-0.1,0.1-0.2
					c1.6-1,3.2-2,4.7-2.9c0.1-0.1,0.2,0,0.2,0c0.3-0.1,0.5-0.1,0.8-0.3c0,0,0,0,0.1,0c0.2-0.4,0.6-0.5,0.9-0.7
					c0.8-0.3,1.5-0.7,2.2-1.2c0.2-0.1,0.3-0.1,0.4,0c0.1,0.1,0.2,0.2,0.1,0.4c-0.1,0.2-0.1,0.4-0.3,0.5c-0.6,0.6-1.1,1.3-1.6,2
					c-0.4,0.7-0.8,1.3-1.1,2c-0.1,0.1-0.2,0.3-0.3,0.4c-0.4,0.5-1,0.9-1.6,1.2c-0.1,0.1-0.2,0.2-0.2,0.3c0,0.1,0,0.2-0.1,0.3
					c0,0.3-0.1,0.5-0.3,0.7c-0.1,0.1-0.1,0.1-0.1,0.2c-0.2,0.6-0.3,1.1-0.5,1.7c0,0,0,0,0,0c0,0,0,0.1,0,0.1c-0.1,0-0.1,0-0.2,0
					c-0.8-0.2-1.6-0.4-2.4-0.6c-0.1,0-0.2-0.1-0.3-0.1c-0.2,0-0.2-0.1-0.1-0.2c0.1-0.5,0.2-1,0.5-1.5c0.1-0.1,0.1-0.2,0-0.3
					C26.2,31,25.9,30.4,25.6,29.7L25.6,29.7z M23.9,36.4C23.9,36.4,23.9,36.4,23.9,36.4c-0.1,0-0.2-0.1-0.2-0.2
					c0.1-0.9,0.2-1.7,0.3-2.6c0,0,0,0,0-0.1c0,0,0,0,0,0c0,0,0,0,0.1,0c0,0,0,0,0.1,0c1.2,0.3,2.4,0.6,3.5,0.9
					c1.2,0.3,2.4,0.6,3.5,0.9c0.1,0,0.1,0.1,0.1,0.2l-0.5,1.7c0,0.1,0,0.1-0.1,0.1c0,0,0,0,0,0c-0.6-0.1-1.3-0.2-1.9-0.3
					C28.4,37.1,28,37,27.6,37C26.4,36.8,25.2,36.6,23.9,36.4L23.9,36.4z M24.9,38.1c0-0.1,0-0.1,0-0.2c0,0,0,0,0-0.1c0,0,0,0,0,0
					C24.9,38,24.9,38,24.9,38.1L24.9,38.1z M35.7,54.5L35.7,54.5C35.7,54.5,35.7,54.6,35.7,54.5c-0.1,0-0.1,0.1-0.1,0.1
					c0,0,0,0-0.1,0c-0.1,0-0.1,0.1-0.1,0.2c0,0,0,0,0,0c0,0,0,0,0,0h0v0c0,0.1-0.1,0.2-0.1,0.3c0,0,0,0,0,0c0,0,0,0,0,0c0,0,0,0,0,0
					c0,0,0,0,0,0h0c0,0-0.1,0-0.1,0c-0.1,0-0.1-0.1-0.3-0.1c0,0,0,0,0,0c0,0,0,0,0,0c0,0,0,0,0,0h0c0,0,0,0,0,0v0h0
					c-0.1,0-0.3-0.1-0.4-0.1c-0.1,0-0.1,0-0.2-0.1c-0.1,0-0.2-0.1-0.3-0.1c-0.3-0.1-0.5-0.1-0.8-0.2c0,0,0,0-0.1,0v0
					c-0.2,0-0.3-0.1-0.5-0.1c-0.2,0-0.2-0.1-0.2-0.3c0-0.1,0-0.1,0-0.2c0,0,0,0,0-0.1c0,0-0.1-0.1-0.1-0.2c0,0,0,0,0,0
					c0,0-0.1,0-0.1-0.1c0,0,0,0,0,0c-0.1-0.1-0.1-0.3-0.1-0.5c0,0,0,0,0-0.1c0,0,0-0.1,0-0.1c0,0,0,0,0,0c0.1-0.3,0.1-0.5-0.2-0.7
					c0,0-0.1,0-0.1-0.1v0c-0.1-0.1-0.3-0.2-0.4-0.3c0,0,0-0.1-0.1-0.1c-0.2-0.1-0.4-0.3-0.6-0.4c0,0-0.1,0-0.1-0.1l0,0
					c0,0-0.1,0-0.1-0.1c0,0-0.1,0-0.1-0.1c-0.2-0.2-0.5-0.4-0.8-0.6c-0.1,0-0.1-0.1-0.2-0.1v0c-0.2-0.2-0.5-0.3-0.7-0.5h0
					c0,0,0,0-0.1,0c-0.1-0.1-0.3-0.2-0.4-0.3c0,0-0.1,0-0.1,0c-0.1-0.1-0.2-0.1-0.3-0.2c0,0-0.1,0-0.1-0.1c-0.3-0.2-0.5-0.3-0.7-0.5
					c0,0,0,0,0,0c0,0,0,0,0,0c0,0,0,0,0-0.1c0,0,0,0,0-0.1v0c-0.2-0.2-0.3-0.4-0.4-0.5c0,0,0,0,0,0c0,0,0,0,0,0c0,0,0,0,0,0
					c0,0,0-0.1,0-0.1c0,0,0,0,0,0c0-0.3,0.2-0.5,0.3-0.8v0v0c0,0,0,0,0-0.1c0,0,0,0,0,0c0,0,0,0,0,0c0,0,0,0,0,0h0c0,0-0.1,0-0.1,0
					c0,0-0.1,0-0.1,0.1c0,0,0,0,0,0c0,0,0,0,0,0c0,0,0,0,0,0c0,0,0,0,0,0c0,0,0,0,0,0v0c-0.1,0.1-0.2,0.2-0.3,0.3c0,0-0.1,0-0.1,0.1
					v0h0c0,0-0.1,0-0.1,0c-0.2-0.1-0.4-0.2-0.6-0.3c0,0-0.1-0.1-0.1-0.1c0,0,0,0,0-0.1c0,0,0,0,0,0v0c-0.1-0.3,0-0.5,0.1-0.8
					c0,0,0,0,0-0.1c0-0.3,0.1-0.5,0.1-0.8v-0.1h0c0-0.3,0-0.6-0.1-0.8c0,0,0-0.1,0-0.1c0-0.5-0.1-1-0.1-1.6c0-1.1-0.1-2.2-0.1-3.3
					c0-0.2,0-0.3-0.1-0.5c0,0,0-0.1,0-0.1c-0.1-0.1-0.1-0.2-0.2-0.3c-0.1-0.1-0.1-0.3-0.1-0.4c0.1-0.3,0.1-0.5,0.2-0.8
					c0-0.1,0.1-0.2,0.2-0.1c0.1,0,0.1,0,0.2,0c0.2,0.1,0.5,0.1,0.7,0.1c0,0,0,0,0.1,0c0.2,0,0.4,0,0.7,0.1c0,0,0,0,0.1,0
					c0.3,0,0.5,0.1,0.8,0.1c0.1,0,0.1,0,0.2,0c0,0,0,0,0,0c0.3,0,0.5,0.1,0.8,0.1h0v0c0.2,0,0.3,0,0.4,0.1c0.1,0,0.3,0.1,0.4,0.1h0
					c0,0,0,0,0,0c0,0,0,0,0,0c0.1,0,0.1,0.1,0.1,0.1c0.1,0.4,0.1,0.8,0.2,1.3c0,0,0,0.1,0,0.1c0,0.1,0,0.1,0,0.2
					c0,0.2,0.1,0.4,0.1,0.6c0,0,0,0.1,0,0.1v0c0,0.3,0.1,0.5,0.1,0.8V41c-0.1,0.1-0.2,0.2-0.2,0.3c-0.1,0.2-0.2,0.4-0.3,0.5
					c-0.1,0.1-0.1,0.3-0.2,0.4l0,0c0,0.1-0.1,0.3-0.2,0.4c0,0,0,0,0,0c0,0,0,0,0,0.1v0c-0.1,0.2-0.2,0.4-0.3,0.6
					c0,0.1-0.1,0.1-0.1,0.2c0,0,0,0.1,0,0.1c0,0.2-0.1,0.3-0.2,0.5c0,0.1-0.1,0.3-0.1,0.4c-0.1,0.3-0.1,0.5-0.2,0.7c0,0,0,0.1,0,0.1
					c0,0,0,0,0,0c0,0,0,0,0,0.1c0,0,0,0,0,0.1c0,0,0,0,0,0c0,0.5,0,0.9-0.1,1.4c0,0,0,0,0,0c0.1-0.1,0.1-0.2,0.2-0.3
					c0.1-0.1,0.1-0.2,0.2-0.3c0-0.1,0.1-0.2,0.1-0.2c0.1-0.2,0.3-0.4,0.4-0.6c0,0,0,0,0.1-0.1c0.1-0.2,0.2-0.4,0.4-0.6
					c0-0.1,0.1-0.1,0.1-0.2h0c0-0.1,0.1-0.1,0.1-0.1c0,0,0.1-0.1,0.1-0.1c0,0,0,0.1,0,0.1c0,0,0,0,0,0c0,0,0,0,0,0.1c0,0,0,0,0,0
					c0,0,0,0,0,0c0,0,0,0,0,0c0,0,0,0,0,0c0,0,0,0,0,0h0c0,0.3,0,0.6,0,0.8c0,0,0,0,0,0l0,0c0,0.3,0.1,0.5,0.1,0.8h0
					c0,0,0,0.1,0,0.1c0,0.3,0.1,0.5,0.1,0.8c0,0,0,0,0,0c0,0,0,0,0,0c0,0.2,0.2,0.4,0.3,0.5c0.1,0.1,0.1,0.2,0.2,0.3h0v0
					c0.2,0.2,0.4,0.4,0.7,0.6c0,0,0.1,0,0.1,0h0v0c0.1,0,0.2,0.1,0.3,0.1c0,0,0,0,0,0c0,0,0,0,0,0c0,0,0-0.1,0-0.1
					c-0.4-0.2-0.3-0.6-0.3-1h0v0c0.1,0.1,0.1,0.2,0.2,0.3c0,0,0,0,0,0c0,0,0.1,0.1,0.1,0.1c0.1,0.1,0.1,0.1,0.2,0.2
					c0.1,0.1,0.1,0.1,0.2,0.2c0,0,0.1,0,0.1,0h0c0.3,0.1,0.5,0.3,0.7,0.4c0.1,0,0.1,0,0.1,0.1c0.1,0.3,0.2,0.5,0.2,0.8
					c0,0,0,0,0,0.1c0,0,0,0,0,0.1c0,0.3,0,0.5,0,0.8c0,0,0,0,0,0.1c0,0,0,0,0,0h0c0,0.3,0,0.5-0.1,0.8c0,0.3-0.1,0.5-0.1,0.7
					c0,0,0,0,0,0c0,0,0,0.1,0.1,0.1v0c0.2-0.2,0.5-0.5,0.7-0.8v0v0v0v0c0-0.1,0.1-0.1,0.1-0.2c0.1-0.1,0.2-0.2,0.3-0.4
					c0.1-0.1,0.2-0.3,0.3-0.4c0,0,0,0,0,0c0,0,0-0.1,0.1-0.1c0,0,0,0,0,0h0h0c0,0,0.1,0,0.1,0c0,0,0.1,0.1,0.1,0.1
					c0.3,0.1,0.6,0.2,0.8,0.5c0,0,0,0,0.1,0.1c0.1,0,0.2,0.1,0.2,0.2c0,0,0,0,0.1,0.1c0,0,0,0,0,0c0.3,0.3,0.4,0.5,0.1,0.8
					c0,0,0,0,0,0c0,0,0,0.1,0,0.1c0,0,0,0,0,0.1c0,0,0,0,0,0c-0.1,0.1-0.1,0.2-0.2,0.3c0,0.1,0,0.2,0,0.3c0,0.2,0.1,0.3,0.1,0.5
					c0,0.1,0,0.2,0.1,0.3C36.1,54.3,36,54.4,35.7,54.5L35.7,54.5z M36.9,56.7c-0.1,0.1-0.1,0.2-0.2,0.2h0c0,0,0,0,0,0
					c-0.2,0-0.3-0.1-0.5-0.2c-0.1,0,0-0.1,0-0.2v-0.8c0-0.1,0-0.1,0-0.2C36,55.4,36,55.2,36,55c0-0.1,0-0.1,0.1-0.1
					c0.2-0.2,0.3-0.4,0.5-0.6c0.1-0.1,0.2-0.3,0.1-0.4c-0.2-0.3-0.1-0.6,0-0.9c0.1-0.2,0.2-0.5,0.3-0.8c0,0,0,0,0,0v0
					c0.2,0.2,0.3,0.4,0.5,0.6c0.3,0.5,0.7,0.9,1.2,1.2c0.2,0.1,0.5,0.3,0.8,0.3l0,0c0,0,0,0,0,0c0,0,0.1,0,0.1,0c0,0,0,0-0.1,0h0
					c0,0,0,0,0,0c-0.3,0-0.6,0.1-0.9,0.1c-0.2,0-0.3,0.1-0.5,0.1c-0.1,0-0.3,0.1-0.4,0.1c0,0,0,0,0,0c0,0,0,0,0,0
					c-0.1,0-0.1,0-0.1,0.1c0,0.1,0,0.1,0.1,0.1c0.2,0,0.3,0,0.5,0c0,0,0,0,0,0c0.2,0,0.4,0,0.6-0.1c0.2,0,0.5-0.1,0.7-0.1
					c0.2,0,0.5,0,0.7,0.1c-0.8,0.1-1.4,0.6-2.1,0.9c-0.4,0.2-0.7,0.4-1,0.6C37,56.6,36.9,56.6,36.9,56.7L36.9,56.7z M39.2,57.2
					C39.2,57.3,39.2,57.3,39.2,57.2C39.2,57.3,39.2,57.3,39.2,57.2C39.2,57.3,39.2,57.3,39.2,57.2C39.1,57.3,39.1,57.2,39.2,57.2
					c-0.6-0.1-1.1-0.3-1.6-0.4c0.2-0.1,0.3-0.2,0.5-0.1C38.4,56.8,38.8,57,39.2,57.2C39.1,57.2,39.2,57.2,39.2,57.2
					C39.2,57.2,39.2,57.2,39.2,57.2L39.2,57.2L39.2,57.2z M40.7,58.9c-0.1,0.1-0.2,0.2-0.3,0.3c-0.3,0.2-0.5,0.3-0.9,0.4
					c0.1-0.4,0.2-0.8,0.4-1.1c0.1-0.2,0.5-0.3,0.7-0.1C40.8,58.6,40.8,58.8,40.7,58.9L40.7,58.9z M42.8,56.6c-0.4,0.3-0.8,0.7-1.2,1
					c-0.1,0.1-0.2,0.1-0.3,0c-0.6-0.4-1.3-0.7-2-1c-0.3-0.1-0.6-0.2-0.9-0.3c0-0.1,0.1-0.1,0.2-0.1c0.7-0.3,1.4-0.5,2-0.8
					c0.2-0.1,0.3,0,0.5,0c0.3,0,0.5,0,0.7-0.1c0,0,0.1,0,0.1,0c0.5,0.2,1,0.4,1.5,0.6C43.2,56.2,43,56.4,42.8,56.6L42.8,56.6z
					 M45.9,54.4c-0.2,0.3-0.2,0.6-0.1,0.9c0.1,0.4,0,0.6-0.3,0.8c-0.1,0-0.1,0.1-0.2,0.1c-0.1,0-0.1,0-0.2-0.1
					c-0.7-0.5-1.5-0.6-2.3-0.9c-0.1,0-0.2-0.1-0.3-0.1c-0.1,0-0.1-0.1-0.1-0.2c0-0.1,0-0.1,0.1-0.1c0,0,0.1,0,0.1,0
					c0.9,0.2,1.8,0.4,2.6,0.7c0,0,0.1,0,0.1,0c0.1,0,0.1-0.1,0.1-0.1c0-0.2,0-0.4-0.3-0.5c-0.6-0.3-1.2-0.4-1.8-0.4
					c-0.1,0-0.2,0-0.3,0c0.4-0.3,0.9-0.4,1.3-0.7c0,0,0.1-0.1,0.1-0.1l0.7-0.9c0,0,0.1-0.1,0.1-0.1c0,0,0,0,0,0l0,0
					c0.1,0,0.1,0.1,0.1,0.1c0.2,0.5,0.4,0.9,0.5,1.4C46,54.2,46,54.3,45.9,54.4L45.9,54.4z M55.3,35.7
					C55.3,35.7,55.3,35.7,55.3,35.7C55.4,35.8,55.4,35.8,55.3,35.7c0,0.1,0,0.1,0,0.1c0,0,0,0,0,0l0,0c0,0,0,0,0,0c0,0,0,0,0,0h0v0
					c-0.3,0.3-0.2,0.5,0,0.8c0,0,0,0,0,0.1c0.2,0.2,0,0.5,0,0.7c0,0,0,0,0,0c0,0,0,0,0,0c0,0,0,0-0.1,0c0,0,0,0,0,0
					c-0.2,0-0.3-0.1-0.5-0.1c0,0,0,0,0,0c0,0,0,0,0,0c-0.1,0-0.1,0-0.2,0c-0.2-0.1-0.4-0.1-0.5,0.1c0,0,0,0,0,0
					c0.1,0.1,0.2,0.1,0.3,0.2c0.4,0.1,0.8,0.4,1.2,0.6c0.1,0.1,0.1,0.2,0.1,0.3c0,0.1,0,0.1,0,0.2c0,0.2-0.1,0.4-0.1,0.6
					c0,0,0,0.1,0,0.1c0,0.3-0.2,0.5-0.3,0.8c0,0,0,0,0,0.1c-0.1,0.2-0.1,0.4-0.2,0.5c0,0,0,0,0,0v0c0,0,0,0,0,0c0,0,0,0,0,0
					c0,0,0,0,0,0c0,0.1,0,0.2-0.1,0.2c-0.1,0.3-0.2,0.5-0.3,0.8c0,0,0,0,0,0.1c-0.1,0.3-0.2,0.6-0.3,0.9c0,0.1,0,0.2-0.1,0.3
					c0,0,0,0,0,0c0,0,0,0,0,0c0,0,0,0,0,0c0,0.1,0,0.2-0.1,0.4c0,0.1,0,0.1-0.1,0.2c0,0,0,0,0,0c-0.1,0.6-0.2,1.1-0.4,1.7
					c-0.1,0.5-0.1,0.9-0.2,1.4c-0.1,0.4-0.1,0.9-0.2,1.3c-0.1,0.3-0.3,0.6-0.4,0.9c-0.1,0.3-0.2,0.6-0.4,0.8c0,0,0,0,0,0
					c0,0,0,0,0,0.1c0,0,0,0,0,0c0,0,0,0,0,0.1c0,0,0,0,0,0.1c0,0,0,0,0,0.1v0.1c0,0,0,0.1,0,0.1c0,0.5-0.1,0.9-0.1,1.4
					c0,0.1,0,0.1-0.1,0.2c0,0-0.1,0-0.1,0c-0.1,0-0.1,0.1-0.2,0.1c0,0-0.1,0-0.1,0c-0.1,0-0.1,0-0.2,0.1v0c0,0,0,0,0,0
					c-0.1,0-0.2,0.1-0.2,0.1c-0.1,0-0.1,0-0.2,0.1c-0.1,0.1-0.3,0.1-0.4,0.2c0,0,0,0-0.1,0c-0.3,0.1-0.6,0.3-0.8,0.4c0,0,0,0,0,0
					c-0.1,0-0.3,0.1-0.5,0.2c-0.2,0.1-0.3,0.1-0.5,0.2c-0.3,0.1-0.5,0.2-0.8,0.3c0,0,0,0,0,0c-0.2,0.1-0.5,0.2-0.7,0.3
					c-0.1,0-0.2,0.1-0.3,0.1c-0.2,0.1-0.2,0.1-0.3-0.1c-0.1-0.1-0.1-0.3-0.2-0.4c0-0.1-0.1-0.3-0.1-0.4c0,0,0,0,0-0.1
					c0-0.1,0-0.1-0.1-0.2c0,0,0,0,0,0c0,0,0,0,0,0c0,0,0,0,0,0h0c-0.1-0.2-0.1-0.4-0.2-0.5c0-0.1-0.1-0.2-0.1-0.4c0,0,0-0.1,0-0.1
					c0,0,0,0,0-0.1c0,0,0,0,0,0c0-0.1,0.1-0.2,0.1-0.3c0-0.1,0.1-0.1,0.1-0.2c0-0.1,0.1-0.1,0.1-0.2c0.1-0.1,0.1-0.3,0.2-0.4
					c0,0,0-0.1,0-0.1c0.1-0.3,0.2-0.5,0.3-0.8c0,0,0,0,0,0c0-0.2,0.2-0.2,0.3-0.3v0c0,0,0.1,0,0.1,0c0,0,0.1-0.1,0.1-0.1
					c0-0.1,0.1-0.1,0.1-0.2c0,0,0-0.1,0.1-0.1c0.1-0.1,0.2-0.3,0.3-0.4c0,0,0.1-0.1,0.1-0.1c0,0,0,0,0,0c0.1,0,0,0.1,0,0.2
					c0,0.2,0,0.4,0,0.6c0,0.2,0,0.3,0.1,0.5c0,0,0,0,0,0.1c0,0.1,0.1,0.2,0.1,0.3c0,0.1,0.1,0.3,0.1,0.4c0.1,0.3,0.2,0.5,0.3,0.8
					l0,0c0.1,0.2,0.3,0.5,0.4,0.7c0,0.1,0.1,0.1,0.1,0.2h0v0c0,0,0.1,0.1,0.1,0c0,0,0,0,0,0c0,0,0-0.1-0.1-0.1c0,0,0-0.1,0-0.1
					c0,0,0-0.1,0-0.1c0,0,0,0,0,0c0,0,0-0.1,0-0.1c0,0,0-0.1,0-0.1c0,0,0-0.1,0-0.1c0,0,0,0,0,0c0,0,0,0,0-0.1c0-0.1,0-0.1,0-0.2
					c0-0.1,0-0.2,0-0.3c0-0.1,0-0.1,0-0.2c-0.1-0.6,0-1.2,0.1-1.7h0c0.1-0.3,0.1-0.6,0.2-0.9c0,0,0,0,0,0c0,0.5,0,1,0.1,1.4
					c0,0,0,0,0,0c0.1,0.2,0.1,0.4,0.2,0.5c0,0,0,0.1,0,0.1c0,0,0,0.1,0.1,0.1c0,0,0,0,0,0.1c0,0,0,0,0,0.1c0,0,0.1,0.1,0.1,0.1
					c0,0,0,0.1,0.1,0.1c0.1,0.1,0.2,0.2,0.3,0.3c0-0.1,0-0.2,0-0.3c0-0.1,0-0.2,0-0.2c0,0,0,0,0,0c0-0.1,0-0.1,0-0.2
					c0-0.2,0-0.4-0.1-0.6c0,0,0,0,0,0c0,0,0,0,0,0c0-0.3,0-0.5,0-0.8c0,0,0,0,0,0c0,0,0,0,0-0.1c0-0.2,0-0.4,0-0.6
					c0-0.1,0-0.1,0-0.2c0,0,0,0,0,0c0-0.3,0-0.6,0.1-0.9c0,0,0,0,0,0c0-0.1,0-0.3,0.1-0.4c0-0.1,0-0.3,0.1-0.4c0-0.1,0-0.1,0.1-0.1
					c0,0,0,0,0.1,0c0,0,0.1,0,0.1,0.1c0,0,0.1,0.1,0.1,0.1c0,0,0.1,0.1,0.1,0.1c0,0,0,0,0,0c0,0,0,0,0,0h0v0
					c0.3,0.2,0.5,0.4,0.7,0.7c0,0,0.1,0.1,0.1,0.1c0,0.1,0.1,0.1,0.1,0.2c0.1,0.2,0.2,0.4,0.3,0.6c0,0,0,0,0,0.1c0,0,0,0,0,0.1
					c0,0,0.1,0.1,0.1,0.2s0,0.1,0.1,0.2c0,0,0,0,0,0.1c0,0,0,0,0,0c0,0,0,0,0.1,0c0-0.2-0.1-0.3,0-0.5h0c0,0,0,0,0-0.1
					c0-0.3-0.1-0.6-0.2-0.8c0,0,0-0.1,0-0.1c-0.1-0.3-0.2-0.5-0.3-0.8c0,0-0.1-0.1-0.1-0.1c0,0-0.1-0.1-0.1-0.1c0,0,0-0.1-0.1-0.1v0
					c0,0,0,0,0,0c0,0,0,0,0,0c-0.1-0.2-0.3-0.3-0.4-0.5c0,0,0,0,0,0c0,0,0,0-0.1-0.1c-0.1,0-0.2-0.2-0.3-0.3c0,0,0,0,0,0
					c0,0,0,0,0,0c-0.2-0.1-0.4-0.3-0.6-0.5c0,0-0.1,0-0.1-0.1c0.6,0,1.1,0,1.7,0.1v0h0c0.3,0,0.5,0.1,0.8,0.2c0,0,0,0,0,0v0
					c0.2,0,0.3,0.1,0.5,0.2c0,0,0.1,0.1,0.1,0c0,0,0-0.1,0-0.1c-0.1-0.1-0.1-0.2-0.2-0.3c0,0,0,0,0-0.1c-0.1-0.1-0.2-0.3-0.3-0.4
					c0,0-0.1-0.1-0.1-0.1c-0.1-0.1-0.3-0.2-0.4-0.3c0,0,0,0-0.1,0c-0.1,0-0.1-0.1-0.2-0.1c-0.1,0-0.1-0.1-0.2-0.1c0,0,0,0-0.1,0
					c-0.3-0.1-0.5-0.2-0.8-0.3c0,0,0,0,0,0c0,0,0,0,0,0c-0.1,0-0.1,0-0.1-0.1c0,0,0,0,0-0.1c0,0,0,0,0,0c0,0,0-0.1,0-0.1
					c0-0.1,0-0.3,0-0.4c0,0,0-0.1,0-0.1c0,0,0-0.1,0-0.1c0,0,0-0.1,0-0.1c0-0.1,0-0.1,0-0.2c0,0,0,0,0,0c0-0.3-0.1-0.5-0.2-0.8
					c0,0,0-0.1,0-0.1c-0.1-0.1-0.1-0.2-0.1-0.3c0,0,0-0.1,0-0.1c0,0,0,0,0,0c0,0,0-0.1,0-0.1c0-0.1,0-0.1,0.1-0.2c0,0,0,0,0,0h0
					c0.1-0.3,0.2-0.6,0.3-0.9c0,0,0,0,0,0c0,0,0,0,0,0c0,0,0,0,0,0c0.1-0.1,0.1-0.2,0.1-0.3c0-0.1,0-0.1,0-0.2
					c0-0.1-0.1-0.2-0.1-0.2c0,0,0,0,0,0c0,0,0,0,0,0c-0.2-0.2-0.3-0.4-0.4-0.7c0,0,0,0,0-0.1c0,0,0,0,0,0c0,0,0,0,0,0c0,0,0,0,0,0
					c0,0,0,0,0,0c0,0,0,0,0,0c0,0,0-0.1,0-0.1c0,0,0,0,0,0c0,0,0,0,0,0c0,0,0,0,0,0c0.1-0.2,0.2-0.4,0.4-0.5
					c0.1-0.1,0.1-0.3,0.1-0.5c-0.1-0.3-0.1-0.3,0.2-0.3c0,0,0.6-0.2,0.8-0.3c0,0,0.1,0,0.1-0.1c0,0,0,0,0,0c0,0,0.1,0,0.1,0
					c0.3-0.1,0.6-0.2,0.8-0.3c0,0,0,0,0,0c0.3-0.1,0.5-0.2,0.8-0.3c0,0,0.1,0,0.1,0c0,0,0.2-0.1,0.2-0.1c0.2-0.1,0.4-0.2,0.6-0.2
					c0.3-0.2,0.5-0.1,0.7,0.1c0,0,0.1,0,0.1,0.1c0,0,0.1,0.1,0.1,0.1C54.9,35.3,55.1,35.5,55.3,35.7L55.3,35.7z M49.1,35.9
					C49.1,36,49.1,36,49.1,35.9c-0.1,0-0.2,0-0.2-0.1c-0.4-0.7-0.8-1.4-1.2-2.2c-0.1-0.1-0.1-0.1,0.1-0.2c2.6-0.8,5.2-1.5,7.8-2.3
					c0,0,0.1,0,0.1,0v0c0,0,0,0,0,0c0,0.5-0.1,0.9-0.1,1.4c0,0.3-0.1,0.7-0.1,1c0,0.1,0,0.2-0.2,0.2C53.3,34.5,51.2,35.2,49.1,35.9z
					 M36.4,45.8c0.7,0.1,1.4,0.2,2.2,0.3c0.1,0,0.2,0,0.3,0.1c0.2,0.1,0.3,0.3,0.4,0.5c0.1,0.3,0.2,0.7,0.2,1c0,0.3,0,0.5-0.3,0.7
					c-0.2,0.1-0.3,0.3-0.4,0.5c0.3,0,0.5,0,0.7,0.3c0.1,0.1,0.3,0.3,0.4,0.4c0.3,0.3,0.8,0.2,1.1-0.1c0.1-0.2,0.2-0.3,0.3-0.5
					c0.2-0.2,0.3-0.5,0.6-0.6c0.2-0.1,0.1-0.1,0-0.2c-0.1-0.1-0.3-0.1-0.5,0c-0.3,0.2-0.5,0.4-0.7,0.7c-0.1,0.1-0.1,0.1-0.2,0.2
					c-0.1,0.1-0.2,0.1-0.3,0c-0.1-0.1-0.2-0.2-0.3-0.3c-0.1-0.1-0.1-0.1-0.1-0.3C40,48.2,40,48,40,47.7c-0.1-0.6-0.1-1.1-0.5-1.6
					c0,0,0-0.1,0-0.1c0.4-0.3,0.7-0.7,0.7-1.3c0-0.1,0-0.2-0.1-0.3c-0.1,0-0.2,0.1-0.2,0.2c-0.1,0.2-0.3,0.4-0.4,0.5
					c-0.2,0.3-0.5,0.3-0.8,0.3c-1-0.2-2.1-0.3-3.1-0.3c-0.1,0-0.1,0-0.1,0c-0.3,0.2-0.7,0.5-0.9,0.9c0,0,0,0,0,0c0,0,0.1,0,0.1,0
					C35.2,45.8,35.8,45.8,36.4,45.8z M46.1,46.2c-0.3,0.1-0.5,0.3-0.8,0.4c-0.1,0-0.1,0.1-0.2,0.1c-0.4,0.1-0.9,0.1-1.3,0.1
					c-0.3,0-0.5-0.1-0.7-0.2c-0.1-0.1-0.2-0.2-0.3-0.4c0.1,0,0.1,0,0.2,0c0.2,0,0.5,0.1,0.7,0.1c0.6,0,1.1-0.2,1.6-0.4
					c0.2-0.1,0.3-0.1,0.5-0.2c0.1,0,0.1-0.1,0-0.1c-0.1-0.1-0.2-0.1-0.3-0.1c-1.1,0.2-2.3,0.1-3.4-0.1c-0.3-0.1-0.7-0.1-0.8-0.5
					c0-0.1-0.1-0.2-0.1-0.3c0-0.1-0.1-0.2-0.2-0.3c0-0.1-0.1-0.1-0.2-0.1c-0.1,0-0.1,0.1-0.1,0.1c0,0.2,0,0.4,0,0.6
					c0,0.2,0.1,0.4,0.2,0.6c0.2,0.3,0.5,0.5,0.9,0.6c0.3,0.1,0.3,0.1,0.3,0.4c0,0.1,0,0.2,0.1,0.3c0.2,0.1,0.4,0.3,0.7,0.3
					c0.2,0,0.3,0,0.4,0.1c0.2,0.1,0.4,0.2,0.6,0.2c0.2,0,0.3,0,0.5,0c0.1,0,0.2,0,0.3-0.1c0.4-0.4,0.9-0.7,1.3-1.1
					C46.3,46.2,46.2,46.2,46.1,46.2z M42.5,49.8c0-0.1-0.1-0.1-0.1,0c-0.3,0.2-0.7,0.2-1.1,0.3c-0.2,0-0.4,0-0.5,0.1
					c-0.3,0.3-0.5,0.2-0.8,0c0,0,0,0,0,0c-0.4-0.2-0.8-0.3-1.1,0c-0.1,0.1-0.3,0.2-0.5,0.1c-0.1,0-0.2,0-0.3,0.1
					c-0.1,0-0.1,0.1-0.2,0.1c-0.2,0.1-0.2,0.1,0,0.3c0,0,0.1,0,0.1,0.1c0.4,0.1,0.7,0,1-0.1c0.3-0.2,0.6-0.2,0.9,0.1
					c0.3,0.2,0.6,0.2,0.9,0.1c0.4-0.2,0.8-0.3,1.2-0.4c0.1,0,0.1,0,0.2,0c0.2,0.2,0.3,0,0.5,0c0.1,0,0.1-0.1,0.1-0.1
					C42.7,50,42.6,49.9,42.5,49.8z M40.9,50.9c-0.4,0-0.9,0.1-1.3,0.2c-0.3,0.1-0.7,0.2-0.9,0.6c-0.1,0.2-0.1,0.5-0.2,0.7
					c0,0.2,0,0.4,0.1,0.5c0,0,0,0.1,0.1,0.1c0.1,0,0.1-0.1,0.1-0.1c0.1-0.2,0.1-0.4,0.1-0.5c0.1-0.3,0.2-0.5,0.5-0.6
					c0.3-0.1,0.6-0.3,0.9-0.4c0.1,0,0.1,0,0.2,0c0.4,0.1,0.8,0,1.1,0.3c0,0,0.1,0,0.1,0c0.1,0,0.1-0.1,0.1-0.2
					C41.8,51.1,41.4,50.9,40.9,50.9z M37.9,46.9c0.3,0,0.5-0.1,0.8-0.1c0.1,0,0.2,0,0.2-0.1c0-0.1-0.1-0.1-0.1-0.2c0,0-0.1,0-0.1,0
					c-0.3-0.1-0.5-0.1-0.8,0c-0.5,0.1-1.1,0.1-1.6,0c-0.1,0-0.3,0-0.5-0.1c-0.2,0-0.4,0.1-0.6,0.2c-0.1,0.1-0.2,0.2,0,0.3
					c0.1,0.1,0.2,0.1,0.3,0.1c0.3-0.1,0.6-0.1,0.9,0.2c0.3,0.2,0.6,0.3,1,0.2c0.2-0.1,0.4-0.2,0.5-0.3C37.7,47,37.8,46.9,37.9,46.9z
					 M33.2,47.4c0-0.2,0-0.5-0.2-0.6c-0.1-0.1-0.2-0.2-0.3-0.4c-0.1-0.2-0.1-0.4-0.2-0.6c0,0-0.1-0.1-0.2-0.1
					c-0.1,0-0.2,0.1-0.2,0.2c-0.1,0.4,0.1,0.8,0.5,1c0.2,0.1,0.3,0.2,0.4,0.4c0,0.1,0,0.2,0.1,0.2C33.2,47.6,33.2,47.5,33.2,47.4z"
					/>
				<path id="Shape_7_" fill="#F6E5CC" d="M48.7,47c0.2-0.2,0.3-0.4,0.4-0.7c0,0,0-0.1,0-0.1c0.1-0.1,0.1-0.3,0.1-0.4v0
					c0,0,0-0.1,0-0.1c-0.1,0-0.2,0-0.3,0c0,0-0.1,0-0.1,0c0,0,0,0,0,0c0,0,0,0,0,0c0,0,0,0,0,0c0,0,0,0.1,0,0.2c0,0,0,0.1,0,0.2
					c0,0.1,0,0.1-0.1,0.2c0,0.1-0.1,0.1-0.1,0.2c-0.1,0.3-0.3,0.5-0.5,0.7c-0.1-0.2-0.1-0.3,0-0.5c0,0,0,0,0,0
					c0-0.1,0.1-0.2,0.2-0.3c0,0,0-0.1,0.1-0.1c0,0,0,0,0,0c0,0,0,0,0,0c0-0.1-0.1-0.3-0.3-0.4c0,0-0.1-0.1-0.1-0.1c0,0-0.1,0-0.1,0
					c-0.1,0-0.1,0-0.2,0c-0.2,0-0.3,0-0.5-0.1c0,0,0,0,0,0c-0.2-0.1-0.5-0.2-0.7-0.3c-0.1,0-0.1-0.1-0.2-0.1
					c-0.3-0.1-0.6-0.3-0.9-0.5c-0.2-0.1-0.4-0.3-0.6-0.4c-0.1-0.1-0.3-0.2-0.4-0.3c-0.2-0.1-0.4-0.3-0.6-0.4c0,0,0,0,0,0
					c0,0-0.1,0-0.1-0.1c0,0-0.1,0-0.1-0.1c0,0-0.1-0.1-0.1-0.1c0,0,0,0-0.1-0.1c0,0,0,0-0.1-0.1c-0.3-0.3-0.6-0.6-0.7-1
					c-0.1,0.3-0.3,0.6-0.5,0.9C42.1,43,42,43.1,42,43.1c-0.4,0.4-0.8,0.7-1.3,0.8c-0.3,0.1-0.7,0.1-1.1,0.1c0.1-0.1,0.2-0.2,0.3-0.3
					c0,0,0.1-0.1,0.1-0.1c0.3-0.3,0.7-0.5,0.9-0.8c0,0,0,0,0,0c0,0,0,0,0-0.1v0c0,0,0,0,0,0c0,0-0.1,0-0.1,0.1
					c-0.3,0.1-0.5,0.3-0.8,0.4c0,0-0.1,0-0.1,0.1c-0.1,0-0.1,0.1-0.2,0.1c-0.1,0.1-0.2,0.1-0.3,0.2c-0.5,0.2-1.1,0.4-1.7,0.4
					c-0.3,0-0.7,0.1-1,0.1c-0.3,0-0.7,0.1-1,0.1c-0.2,0-0.4,0-0.7,0c0,0-0.1,0-0.1,0c-0.1,0-0.1,0-0.2,0c-0.1,0-0.1,0-0.2,0
					c-0.1,0-0.1,0-0.2,0c0,0-0.1,0-0.1,0c-0.5,0.1-1.1,0.3-1.6,0.6c-0.1,0.1-0.3,0.1-0.4,0.2c-0.1,0.1-0.2,0.1-0.3,0.2
					c0,0-0.1,0.1-0.1,0.1c-0.1,0.1-0.2,0.2-0.2,0.3c0,0,0,0,0,0.1c0,0,0,0,0,0c0,0,0,0,0,0.1c0,0,0,0.1,0,0.1c0,0.1,0,0.2,0.1,0.4
					c0.2,0.5,0.5,1.1,0.8,1.6c0,0.1,0.1,0.1,0.2,0.2l0.2,0.2c0.1,0.1,0.3,0.1,0.5,0.1c0.2,0,0.3,0.1,0.4,0.3c0.2,0.6,0.6,1,1.1,1.4
					c0,0,0.1,0,0.1,0.1c0,0,0.1,0,0.1,0.1c0.2,0.1,0.3,0.2,0.4,0.3c0,0,0.1,0.1,0.1,0.1c0.2,0.1,0.4,0.3,0.5,0.5
					c0,0,0.1,0.1,0.1,0.1c0.2,0.2,0.3,0.3,0.5,0.5c0,0,0.1,0.1,0.1,0.1c0.1,0.1,0.2,0.2,0.2,0.3c0.2,0.2,0.4,0.4,0.5,0.7
					c0,0,0,0.1,0.1,0.1c0.1,0.1,0.1,0.2,0.2,0.4c0.1,0.2,0.2,0.4,0.4,0.5c0.1,0.1,0.2,0.1,0.3,0.2c0.1,0,0.2,0.1,0.2,0.1
					c0.1,0.1,0.2,0.1,0.3,0.2c0.1,0,0.2,0.1,0.3,0.1c0,0,0,0,0.1,0c0,0,0,0,0,0c0.4,0,0.7,0.1,1.1,0c0.1,0,0.2,0,0.3,0
					c0.1,0,0.2,0,0.3,0c0,0,0,0,0,0c0.1,0,0.2,0,0.3-0.1c0.3-0.1,0.5-0.1,0.7-0.2c0.1,0,0.2,0,0.2-0.1c0,0,0,0,0.1,0
					c0.1,0,0.1-0.1,0.2-0.1c0,0,0.1,0,0.1,0c0,0,0.1,0,0.1,0c0,0,0.1,0,0.1-0.1c0.1,0,0.2-0.1,0.3-0.2c0.1-0.1,0.3-0.1,0.4-0.2
					c0.1,0,0.1-0.1,0.2-0.1c0.2-0.1,0.3-0.3,0.5-0.4c0.1-0.1,0.1-0.1,0.2-0.2c0.3-0.4,0.5-0.8,0.7-1.2c0-0.1,0.1-0.2,0.1-0.2
					c0.1-0.1,0.1-0.2,0.2-0.4c0,0,0-0.1,0-0.1c0.1-0.2,0.1-0.4,0.2-0.6c-0.1,0-0.1,0-0.2,0.1c-0.1,0-0.2,0.1-0.3,0.1
					c-0.1,0-0.2,0.1-0.3,0.1c0,0-0.1,0-0.1,0c-0.1,0-0.2,0-0.2-0.1c0-0.1,0-0.1,0.1-0.2c0,0,0,0,0.1,0c0,0,0,0,0,0c0,0,0,0,0.1,0
					c0,0,0,0,0.1,0c0.3-0.1,0.6-0.2,0.9-0.4c0.2-0.1,0.3-0.2,0.5-0.4c0.1-0.1,0.1-0.1,0.2-0.2c0.2-0.3,0.4-0.5,0.6-0.9c0,0,0,0,0,0
					c0-0.1,0.1-0.1,0.1-0.2c0-0.1,0.1-0.1,0.2-0.1c0.1,0,0.1,0,0.2,0h0h0.1C48.3,47.6,48.5,47.3,48.7,47L48.7,47z M33.1,47.6
					c-0.1,0-0.1-0.1-0.1-0.2c-0.1-0.2-0.2-0.3-0.4-0.4c-0.4-0.2-0.6-0.6-0.5-1c0-0.1,0.1-0.2,0.2-0.2c0.1,0,0.1,0.1,0.2,0.1
					c0.2,0.2,0.2,0.4,0.2,0.6c0.1,0.1,0.1,0.3,0.3,0.4c0.2,0.1,0.2,0.3,0.2,0.6C33.2,47.5,33.2,47.6,33.1,47.6L33.1,47.6z
					 M34.6,45.9C34.6,45.9,34.6,45.9,34.6,45.9c0.2-0.4,0.5-0.6,0.8-0.9c0,0,0.1,0,0.1,0c1.1,0.1,2.1,0.2,3.1,0.3
					c0.3,0,0.6,0,0.8-0.3c0.1-0.2,0.3-0.3,0.4-0.5c0.1-0.1,0.1-0.2,0.2-0.2c0.1,0,0.1,0.1,0.1,0.3c-0.1,0.5-0.3,1-0.7,1.3
					c-0.1,0-0.1,0.1,0,0.1c0.4,0.5,0.5,1,0.5,1.6c0,0.3,0,0.5-0.1,0.8c-0.1,0.1,0,0.2,0.1,0.3c0.1,0.1,0.2,0.2,0.3,0.3
					c0.1,0.1,0.2,0.1,0.3,0c0.1-0.1,0.1-0.1,0.2-0.2c0.2-0.3,0.4-0.5,0.7-0.7c0.2-0.1,0.4-0.1,0.5,0c0.1,0.1,0.1,0.2,0,0.2
					c-0.3,0.1-0.4,0.4-0.6,0.6c-0.1,0.2-0.2,0.3-0.3,0.5c-0.2,0.4-0.7,0.5-1.1,0.1c-0.1-0.1-0.3-0.3-0.4-0.4
					c-0.2-0.2-0.4-0.3-0.7-0.3c0.1-0.2,0.2-0.4,0.4-0.5c0.2-0.2,0.3-0.4,0.3-0.7c0-0.4-0.1-0.7-0.2-1c-0.1-0.2-0.2-0.4-0.4-0.5
					c-0.1,0-0.2-0.1-0.3-0.1c-0.7-0.1-1.4-0.2-2.2-0.3C35.8,45.7,35.2,45.8,34.6,45.9C34.6,45.9,34.6,45.9,34.6,45.9L34.6,45.9z
					 M37.1,47.3c-0.4,0.1-0.7,0.1-1-0.2c-0.3-0.2-0.6-0.3-0.9-0.2c-0.1,0-0.2,0-0.3-0.1c-0.1-0.1-0.1-0.2,0-0.3
					c0.2-0.1,0.4-0.1,0.6-0.2c0.2,0,0.3,0,0.5,0.1c0.5,0.1,1.1,0.1,1.6,0c0.3,0,0.5-0.1,0.8,0c0,0,0.1,0,0.1,0
					c0.1,0.1,0.2,0.1,0.1,0.2c0,0.1-0.1,0.1-0.2,0.1c-0.3,0-0.5,0.1-0.8,0.1c-0.1,0-0.1,0-0.2,0.1C37.5,47.1,37.3,47.2,37.1,47.3
					L37.1,47.3z M42,51.6c0,0-0.1,0-0.1,0c-0.4-0.2-0.8-0.2-1.1-0.3c-0.1,0-0.1,0-0.2,0c-0.3,0.1-0.6,0.2-0.9,0.4
					c-0.3,0.1-0.4,0.4-0.5,0.6c-0.1,0.2-0.1,0.4-0.1,0.5c0,0.1,0,0.1-0.1,0.1c-0.1,0-0.1-0.1-0.1-0.1c-0.1-0.2-0.1-0.3-0.1-0.5
					c0.1-0.2,0.1-0.5,0.2-0.7c0.2-0.4,0.6-0.5,0.9-0.6c0.4-0.1,0.9-0.2,1.3-0.2c0.5,0,0.9,0.1,1.2,0.5C42.2,51.6,42.2,51.6,42,51.6
					L42,51.6z M42.6,50.2c-0.2,0.1-0.3,0.2-0.5,0c-0.1,0-0.1,0-0.2,0c-0.4,0.1-0.8,0.2-1.2,0.4c-0.3,0.1-0.6,0.1-0.9-0.1
					c-0.3-0.2-0.6-0.2-0.9-0.1c-0.3,0.2-0.7,0.3-1,0.1c0,0-0.1,0-0.1-0.1c-0.2-0.1-0.2-0.1,0-0.3c0.1,0,0.1-0.1,0.2-0.1
					c0.1-0.1,0.2-0.1,0.3-0.1c0.2,0,0.3,0,0.5-0.1c0.4-0.3,0.8-0.2,1.1,0c0,0,0,0,0,0c0.3,0.2,0.5,0.3,0.8,0
					c0.1-0.1,0.3-0.1,0.5-0.1c0.4-0.1,0.8-0.1,1.1-0.3c0.1,0,0.1,0,0.1,0c0.1,0.1,0.2,0.2,0.2,0.3C42.7,50.2,42.7,50.2,42.6,50.2
					L42.6,50.2z M45.1,47.4c-0.1,0.1-0.2,0.1-0.3,0.1c-0.2,0-0.3,0-0.5,0c-0.2,0-0.4-0.1-0.6-0.2c-0.1-0.1-0.3-0.1-0.4-0.1
					c-0.3,0-0.5-0.1-0.7-0.3c-0.1-0.1-0.1-0.2-0.1-0.3c0-0.3,0-0.3-0.3-0.4c-0.4-0.1-0.7-0.3-0.9-0.6c-0.1-0.2-0.2-0.4-0.2-0.6
					c0-0.2,0-0.4,0-0.6c0-0.1,0-0.1,0.1-0.1c0.1,0,0.1,0,0.2,0.1c0.1,0.1,0.1,0.2,0.2,0.3c0,0.1,0.1,0.2,0.1,0.3
					c0.1,0.4,0.5,0.4,0.8,0.5c1.1,0.2,2.3,0.3,3.4,0.1c0.1,0,0.2,0,0.3,0.1c0.1,0.1,0,0.1,0,0.1c-0.2,0.1-0.3,0.1-0.5,0.2
					c-0.5,0.2-1.1,0.4-1.6,0.4c-0.2,0-0.5-0.1-0.7-0.1c-0.1,0-0.1,0-0.2,0c0,0.2,0.1,0.3,0.3,0.4c0.2,0.1,0.4,0.2,0.7,0.2
					c0.4,0,0.9-0.1,1.3-0.1c0.1,0,0.1,0,0.2-0.1c0.2-0.1,0.5-0.3,0.8-0.4c0.1,0,0.2,0,0.2,0C46,46.6,45.5,47,45.1,47.4z M31.1,23.5
					c-0.3,0.2-0.6,0.5-0.9,0.6c-0.1,0,0,0.1,0,0.1c0.3,0.4,0.7,0.8,1,1.1c0,0,0,0.1,0.1,0.1c0.1,0,0.1,0,0.1,0
					c0.2-0.1,0.3-0.2,0.5-0.3c0.1,0,0-0.1,0-0.1c-0.2-0.5-0.3-1-0.5-1.5C31.2,23.4,31.2,23.4,31.1,23.5z M29.7,23.7
					c0,0,0.1,0.1,0.1,0c0.3-0.2,0.6-0.3,0.9-0.5c0.7-0.5,1.3-1.1,2-1.7c0.1-0.1,0.2-0.2,0.1-0.3c0-0.1,0-0.2-0.1-0.2
					c-0.1,0-0.1,0-0.2,0.1c-0.1,0-0.1,0.1-0.2,0.1c-0.6,0.3-1.2,0.7-1.9,1c-0.5,0.2-0.9,0.4-1.4,0.5c-0.1,0-0.2,0-0.1,0.1
					C29.3,23.1,29.5,23.4,29.7,23.7z M29.8,26.3c-0.5-0.4-1.1-0.7-1.5-1.1c0,0.2-0.1,0.3-0.1,0.5c0,0.1,0,0.1-0.1,0.1
					c-0.1,0-0.2-0.1-0.2-0.2c-0.1-0.1-0.1-0.1-0.1-0.2c0.1-0.2,0.2-0.5,0.3-0.7c0.1-0.2,0.1-0.3,0.3-0.1c0,0,0,0,0.1,0
					c0.5,0.5,1,0.9,1.6,1.2c0.3,0.2,0.5,0.2,0.8,0c0,0,0,0,0.1,0c0,0,0.1-0.1,0-0.1c-0.1-0.1-0.1-0.3-0.2-0.4
					c-0.3-0.3-0.6-0.6-0.9-0.9c-0.4-0.4-0.9-0.8-1.2-1.3c-0.1-0.2-0.2-0.3-0.3-0.4c-0.2-0.2-0.5-0.1-0.6,0.1
					c-0.2,0.5-0.6,0.9-0.8,1.3c-0.3,0.5-0.6,0.9-0.9,1.5c0,0.1,0,0.2,0,0.3c0.1,0.3,0.3,0.6,0.4,0.9c0,0.1,0,0.1-0.1,0.2
					c-0.1,0-0.1,0-0.1-0.1c-0.2-0.3-0.4-0.6-0.5-0.9c-0.6-1-1-2.1-1.7-3.1c0,0,0-0.2-0.1-0.1c-0.1,0-0.1,0.1-0.1,0.2
					c0.1,0.4,0.1,0.8,0.2,1.1c0.4,1.6,0.9,3.1,1.4,4.7c0,0.1,0.1,0.1,0.2,0.1c1.3-0.7,2.6-1.5,3.9-2.2
					C29.4,26.5,29.6,26.4,29.8,26.3z M26.5,31.8c-0.3,0.4-0.4,0.9-0.5,1.5c-0.1,0.1-0.1,0.2,0.1,0.2c0.1,0,0.2,0,0.3,0.1
					c0.8,0.2,1.6,0.4,2.4,0.6c0.1,0,0.1,0.1,0.2,0c0,0,0,0,0-0.1c0,0,0,0,0,0c0.2-0.6,0.3-1.1,0.5-1.7c0-0.1,0-0.2,0.1-0.2
					c0.2-0.2,0.3-0.4,0.3-0.7c0-0.1,0-0.2,0.1-0.3c0-0.1,0.1-0.2,0.2-0.3c0.6-0.3,1.1-0.7,1.6-1.2c0.1-0.1,0.2-0.2,0.3-0.4
					c0.3-0.7,0.7-1.4,1.1-2c0.5-0.7,1-1.4,1.6-2c0.2-0.1,0.2-0.3,0.3-0.5c0-0.2,0-0.3-0.1-0.4c-0.1-0.1-0.3-0.1-0.4,0
					c-0.7,0.5-1.4,0.8-2.2,1.2c-0.3,0.2-0.7,0.3-0.9,0.7c0,0,0,0-0.1,0c-0.2,0.2-0.5,0.2-0.8,0.3c-0.1,0-0.2,0-0.2,0
					c-1.6,1-3.1,2-4.7,2.9c-0.1,0.1-0.1,0.1-0.1,0.2c0.3,0.6,0.6,1.2,0.9,1.8C26.6,31.7,26.6,31.7,26.5,31.8z M29.1,34.2
					C29,34.2,29,34.2,29.1,34.2C29,34.2,29,34.2,29.1,34.2z M49.9,32.2c0.9-0.3,1.8-0.5,2.6-0.8c0.1,0,0.2-0.1,0.1-0.2
					c-0.4-1-0.8-2-1.2-3c-0.1-0.1-0.1-0.3,0-0.4c0.2-0.5,0.3-0.9,0.2-1.5c0-0.3,0-0.5,0-0.8c-0.1-0.7-0.3-1.4-0.5-2
					c-0.2-0.8-0.6-1.4-0.9-2.2c-0.2-0.5-0.5-0.9-0.8-1.4c-0.2-0.3-0.3-0.5-0.5-0.8c-0.1-0.3-0.3-0.5-0.6-0.6c-0.1,0-0.2-0.1-0.2,0
					c-0.1,0.1-0.1,0.2-0.1,0.3c0.1,0.2,0.2,0.5,0.3,0.7c0.3,0.6,0.6,1.3,0.8,2c0.1,0.3,0.1,0.5,0.2,0.8c0,0.1,0,0.2-0.1,0.3
					c-0.1,0-0.1-0.1-0.2-0.1c-0.2-0.2-0.5-0.4-0.8-0.3c-0.1,0-0.2,0-0.3,0c-0.1,0-0.1,0-0.2-0.1c0-0.1,0.1-0.1,0.1-0.2
					c0.1,0,0.1-0.1,0.2-0.1c0.1-0.1,0.1-0.1,0-0.2c-0.2-0.2-0.3-0.4-0.5-0.6c-0.4-0.3-0.9-0.7-1.3-1c-0.1,0-0.1-0.1-0.2-0.1
					c-0.8-0.5-1.6-0.9-2.5-1.3c-0.1-0.1-0.2-0.1-0.4-0.1c-0.1,0-0.2,0-0.2,0.1c0,0.1,0,0.2,0,0.3c0.1,0.1,0.2,0.2,0.3,0.3
					c0.4,0.2,0.8,0.4,1.1,0.6c0.7,0.5,1.3,1,2,1.5c0.2,0.2,0.4,0.4,0.6,0.5c0.1,0.1,0.2,0.2,0.3,0.3c0,0,0.1,0.1,0.1,0.1
					c0,0,0,0,0,0v0c0,0,0,0.1-0.1,0.1c-0.1,0.1-0.2,0-0.3,0c0,0-0.1-0.1-0.1-0.1c0,0,0,0-0.1-0.1c-0.1-0.1-0.2-0.2-0.3-0.3
					c0,0-0.1-0.1-0.1-0.1c-0.5-0.4-1-0.7-1.5-1.1c-0.5-0.4-1-0.7-1.5-1.1c-0.3-0.2-0.6-0.4-0.9-0.5c-0.1-0.1-0.2,0-0.3,0
					c-0.1,0.1-0.1,0.2,0,0.3c0.1,0.2,0.2,0.4,0.4,0.5c0.2,0.2,0.4,0.4,0.6,0.6c0.9,1,1.9,2,2.8,3.1c0.1,0.1,0.1,0.2,0.1,0.2
					c0,0.2-0.1,0.3-0.2,0.2c0,0-0.1,0-0.1,0c-1.1-0.6-2.2-1.2-3.2-2c-0.3-0.2-0.6-0.4-1-0.5c-0.1,0-0.2-0.1-0.3,0
					c-0.1,0.1,0,0.3,0.1,0.4c0.4,0.3,0.8,0.6,1.1,1c0.8,0.7,1.7,1.4,2.3,2.4c0.1,0.1,0.4,0.2,0.6,0.1c0.4-0.2,0.8-0.4,1.2-0.4h0
					c0,0,0.1,0,0.1,0c0,0,0.1,0,0.1,0c0,0,0,0,0,0c0,0.1-0.1,0.1-0.1,0.2l-1.2,0.8c-0.1,0.1-0.2,0.1-0.3,0.1c-0.2,0-0.4-0.1-0.6-0.1
					c-0.8,0-1.6,0.1-2.5,0.2c-0.2,0-0.4,0-0.5,0.1c-0.1,0.1-0.1,0.2-0.1,0.3c0,0.1,0,0.2,0.2,0.2c0.5,0.1,1,0.2,1.5,0.3
					c0.2,0,0.4,0.1,0.6,0.1c0.6,0.4,1.2,0.7,1.7,1.1c0.3,0.3,0.7,0.4,1.1,0.5c0.2,0,0.4,0.1,0.6,0.1c0.3,0.1,0.5,0.1,0.7,0.2
					c0.2,0.1,0.3,0.4,0.4,0.7c0.1,0.1,0.2,0.2,0.3,0.2c0.1,0,0.2,0,0.2,0.2c0.2,0.6,0.4,1.2,0.6,1.8C49.8,32.2,49.8,32.2,49.9,32.2z
					"/>
			</g>
		</g>
	</g>
</g>
</svg>
