<svg xmlns="http://www.w3.org/2000/svg" viewBox="0 0 80 80"><path d="M53.8 19.2H26.2c-2.3 0-4.2 1.9-4.2 4.2v27.8c0 2.3 1.9 4.2 4.2 4.2h23.3l-1.1-3.8L51 54l2.5 2.3 4.4 3.9V23.5c.1-2.4-1.8-4.3-4.1-4.3zm-8 26.9s-.7-.9-1.4-1.7c2.7-.8 3.7-2.4 3.7-2.4-.8.6-1.6.9-2.4 1.2-1 .4-2 .7-3 .9-2 .4-3.8.3-5.3 0-1.2-.2-2.2-.6-3-.9-.5-.2-1-.4-1.5-.7-.1 0-.1-.1-.2-.1 0 0-.1 0-.1-.1L32 42s1 1.6 3.6 2.4c-.6.8-1.4 1.7-1.4 1.7-4.5-.1-6.3-3.1-6.3-3.1 0-6.6 3-12 3-12 3-2.2 5.8-2.2 5.8-2.2l.2.2c-3.7 1.1-5.4 2.7-5.4 2.7s.5-.2 1.2-.6c2.2-1 3.9-1.2 4.7-1.3h.3c1.3-.2 2.7-.2 4.2 0 2 .2 4 .8 6.2 2 0 0-1.6-1.5-5.1-2.6l.3-.3s2.8-.1 5.8 2.2c0 0 3 5.4 3 12 0-.1-1.7 2.8-6.3 3zm-9.5-9.6c-1.2 0-2.1 1-2.1 2.3s.9 2.3 2.1 2.3c1.2 0 2.1-1 2.1-2.3 0-1.3-.9-2.3-2.1-2.3m7.5 0c-1.2 0-2.1 1-2.1 2.3s.9 2.3 2.1 2.3c1.2 0 2.1-1 2.1-2.3s-.9-2.3-2.1-2.3" fill="#7289da"/></svg>