<?xml version="1.0" encoding="utf-8"?>
<!-- Generator: Adobe Illustrator 21.1.0, SVG Export Plug-In . SVG Version: 6.00 Build 0)  -->
<svg version="1.1" id="Layer_1" xmlns="http://www.w3.org/2000/svg" xmlns:xlink="http://www.w3.org/1999/xlink" x="0px" y="0px"
	 viewBox="0 0 80 80" enable-background="new 0 0 80 80" xml:space="preserve">
<g id="Pipelines">
	<g id="NL_pipeline_actions" transform="translate(-775.000000, -901.000000)">
		<g id="icons_x2F_actions_x2F_django" transform="translate(752.000000, 883.000000)">
			<g>
				<path id="Combined-Shape" fill="#2BA977" d="M58.5,39h7.2v33c-3.7,0.7-6.4,1-9.3,1C47.6,72.9,43,69,43,61.5
					c0-7.3,4.8-12,12.4-12c1.2,0,2.1,0.1,3.1,0.4V39z M77.4,50.4v16.5c0,5.7-0.4,8.4-1.7,10.8C74.5,80,73,81.4,69.8,83l-6.7-3.1
					c3.2-1.5,4.7-2.8,5.7-4.8s1.4-4.4,1.4-10.6v-14h7.2V50.4z M69.5,39h7.2v7.3h-7.2V39z M58.7,55.8c-0.8-0.3-1.5-0.4-2.4-0.4
					c-3.6,0-5.7,2.2-5.7,6.1c0,3.8,2,5.9,5.7,5.9c0.8,0,1.4,0,2.5-0.2L58.7,55.8L58.7,55.8z"/>
			</g>
		</g>
	</g>
</g>
</svg>
