<?xml version="1.0" encoding="utf-8"?>
<!-- Generator: Adobe Illustrator 22.0.0, SVG Export Plug-In . SVG Version: 6.00 Build 0)  -->
<svg version="1.1" id="Layer_1" xmlns="http://www.w3.org/2000/svg" xmlns:xlink="http://www.w3.org/1999/xlink" x="0px" y="0px"
	 viewBox="0 0 80 80" style="enable-background:new 0 0 80 80;" xml:space="preserve">
<style type="text/css">
	.st0{fill:#34BBDE;}
	.st1{fill:#FFFFFF;}
</style>
<title>docker - symbol</title>
<g id="Pipelines">
	<g id="NL_pipeline_select_action-Copy" transform="translate(-848 -562)">
		<g id="Group-2-Copy-10" transform="translate(848 516)">
			<g id="docker---symbol" transform="translate(0 46)">
				<g id="docker">
					<path id="Oval-1" class="st0" d="M40,61c11.5,0,21-9.5,21-21s-9.5-21-21-21s-21,9.4-21,21S28.4,61,40,61z"/>
					<path id="Fill-10" class="st1" d="M33.4,42.6c0.8,0,1.3,0.5,1.3,1.3s-0.5,1.3-1.3,1.3s-1.3-0.5-1.3-1.3S32.6,42.6,33.4,42.6z
						 M57.9,37.4c-1.2-0.7-2.6-0.7-3.9-0.4c-0.1-1.3-1-2.5-2.1-3.3l-0.3-0.3l-0.4,0.4c-0.7,0.8-0.9,2.1-0.8,3.2
						c0.1,0.8,0.3,1.4,0.8,2.1c-0.4,0.3-0.8,0.4-1.2,0.5c-0.8,0.3-1.6,0.4-2.4,0.4H25.7v0.5c-0.1,1.6,0.1,3.3,0.8,4.7l0.3,0.5
						c2.1,3.4,5.6,4.7,9.7,4.7c7.6,0,14-3.3,16.9-10.2c2,0.1,3.9-0.4,4.9-2.2l0.3-0.4C58.5,37.6,57.9,37.4,57.9,37.4z M41.3,38.7
						h3.9v-3.9h-3.9V38.7z M36.1,38.7H40v-3.9h-3.9V38.7z M30.8,38.7h3.9v-3.9h-3.9C30.8,34.8,30.8,38.7,30.8,38.7z M33.4,33.4h3.9
						v-3.9h-3.9V33.4z M38.7,33.4h3.9v-3.9h-3.9V33.4z"/>
				</g>
			</g>
		</g>
	</g>
</g>
</svg>
