<svg id="b0225cde-a2d2-4693-8ce5-502a1e8a6144" xmlns="http://www.w3.org/2000/svg" viewBox="0 0 1077.38 752.86"><defs><style>.cls-1{fill:#f2f2f2;}.cls-2{fill:#3f3d56;}.cls-3{opacity:0.1;}.cls-3,.cls-4{isolation:isolate;}.cls-4{opacity:0.2;}.cls-5{fill:#a0616a;}.cls-6{fill:#ffb9b9;}.cls-7{fill:#5333ed;}.cls-8{fill:#a8a8a8;}.cls-9{fill:#6c63ff;}.cls-10{fill:#d0cde1;}.cls-11{fill:#2f2e41;}.cls-12{fill:#575a89;}</style></defs><title>E</title><path class="cls-1" d="M887,321.69C841.69,157.44,685,38.88,501.09,34.12c-97.24-2.51-199.55,27.19-274,131.13C93.88,351.06,235.23,479.46,333.77,540.48A602.26,602.26,0,0,1,461.22,646c66.57,72.76,194.62,163.17,347.13,21.51C918.88,564.83,917.25,431.09,887,321.69Z"/><path class="cls-2" d="M1082.69,668.17c0,16.57-243.56,74-544,74s-544-57.43-544-74,243.56,14,544,14S1082.69,651.6,1082.69,668.17Z"/><path class="cls-3" d="M1082.69,668.17c0,16.57-243.56,74-544,74s-544-57.43-544-74,243.56,14,544,14S1082.69,651.6,1082.69,668.17Z"/><ellipse class="cls-2" cx="538.69" cy="668.17" rx="544" ry="30"/><path class="cls-4" d="M740.42,656.11c-14.38.12-33.41-2.23-37.24-4.57-2.92-1.77-4.08-8.15-4.47-11.09h-.42s.8,10.27,4.63,12.61,22.86,4.69,37.24,4.57c4.15,0,5.58-1.51,5.5-3.7C745.09,655.26,743.5,656.09,740.42,656.11Z"/><path class="cls-5" d="M363.12,309.36s30.29,2,35.68-2,28.27,5.38,30.29,10.77-32.31,6.06-37.7,6.06-31,8.07-31,8.07Z"/><path class="cls-3" d="M699.8,310S669,286.66,666.67,295.22s22.59,28,22.59,28Z"/><path class="cls-6" d="M699.8,310S669,286.66,666.67,295.22s22.59,28,22.59,28Z"/><path class="cls-7" d="M705.8,555.38H377.59v-420H705.8v101.4H491.59v55.5H690.8v101.4H491.59V454H705.8Z"/><path class="cls-8" d="M506.79,640.46s12.73-.39,16.57-3.12,19.59-6,20.54-1.61,19.14,21.79,4.76,21.91-33.4-2.24-37.24-4.57S506.79,640.46,506.79,640.46Z"/><path class="cls-2" d="M435.89,523.83c0,64,40.16,115.82,89.79,115.82"/><path class="cls-9" d="M525.68,639.65c0-64.74,44.81-117.12,100.2-117.12"/><path class="cls-9" d="M468.42,529.63c0,60.81,25.61,110,57.26,110"/><path class="cls-2" d="M525.68,639.65c0-82.72,51.8-149.65,115.81-149.65"/><path class="cls-10" d="M801.44,236S764.82,301.46,764,310.8s-.77,10.13-3.89,9.35-46-5.45-49.86-3.89-11.68-9.35-11.68-9.35-14.8,14.8-11.69,17.92,12.47,4.67,14,8.56,3.89,7.79,10.9,7,54.53,12.46,60.76,10.12,7.79-6.23,10.91-6.23,9.35-3.12,9.35-3.89,21.81-42.07,21.81-42.07S840.39,242.25,801.44,236Z"/><path class="cls-3" d="M801.44,236S764.82,301.46,764,310.8s-.77,10.13-3.89,9.35-46-5.45-49.86-3.89-11.68-9.35-11.68-9.35-14.8,14.8-11.69,17.92,12.47,4.67,14,8.56,3.89,7.79,10.9,7,54.53,12.46,60.76,10.12,7.79-6.23,10.91-6.23,9.35-3.12,9.35-3.89,21.81-42.07,21.81-42.07S840.39,242.25,801.44,236Z"/><path class="cls-11" d="M748.32,192.88a64.42,64.42,0,0,0,.2,12.42c1.18,8.95,5.3,18.28,1.41,26.64-1.41,3-3.81,5.67-5.11,8.74-2.76,6.5-.26,13.7-.63,20.62-.49,8.93-6.17,17.53-14.81,22.43,14.76.46,28.8-6.84,38.09-16.79s14.47-22.28,18.34-34.63a75.14,75.14,0,0,0,3.81-17.92A25.79,25.79,0,0,0,788.41,204a39.57,39.57,0,0,0-5.34-9.12c-2.33-3.27-4.72-6.6-8.15-9-4.23-3-12.38-6-18-5.57C750.06,180.81,748.61,188.11,748.32,192.88Z"/><path class="cls-6" d="M771.06,217.33s8.56,30.38,1.55,38.94,42.07-3.89,42.07-3.89-24.15-24.15-12.47-39.73Z"/><path class="cls-3" d="M771.06,217.33s8.56,30.38,1.55,38.94,42.07-3.89,42.07-3.89-24.15-24.15-12.47-39.73Z"/><polygon class="cls-6" points="743.01 622.4 743.01 644.99 754.7 659.01 764.82 654.34 761.71 621.62 743.01 622.4"/><path class="cls-11" d="M747.69,643.43s-3.12-10.9-8.57-3.11-10.91,24.92-14,25.7S700.17,691,722,691s28.82-10.13,28.82-10.13,21.81-8.56,21.81-10.12-3.11-30.38-4.67-30.38-2.34,5.45-6.23,5.45S747.69,643.43,747.69,643.43Z"/><polygon class="cls-6" points="795.2 626.29 794.42 647.33 813.12 655.12 813.12 624.74 795.2 626.29"/><path class="cls-11" d="M815.46,647.33s-10.13-10.91-15.58-8.57a53.91,53.91,0,0,0-7.79,3.89s-3.12,10.13-4.68,18.7-2.33,12.46-3.89,15.58-3.12,14.8,12.46,16.36,20.26-7,20.26-7L820.13,666S818.57,647.33,815.46,647.33Z"/><path class="cls-11" d="M753.14,402s-22.59,50.63-19.48,96.59c0,0-7.79,17.92-3.11,46s10.9,84.13,10.9,84.13,21,2.34,22.59-1.56c0,0,1.56-39,3.12-40.5s-.78-37.39-3.12-44.41,21.82-76.34,21.82-76.34l-6.24-86.46Z"/><path class="cls-3" d="M753.14,402s-22.59,50.63-19.48,96.59c0,0-7.79,17.92-3.11,46s10.9,84.13,10.9,84.13,21,2.34,22.59-1.56c0,0,1.56-39,3.12-40.5s-.78-37.39-3.12-44.41,21.82-76.34,21.82-76.34l-6.24-86.46Z"/><path class="cls-11" d="M746.91,398.83l14.8,31.94s7,72.44,10.9,81.79c0,0,1.56,26.49,8.57,35.06s12.47,84.13,12.47,84.13,19.47,5.45,21,0,6.23-42.85,6.23-42.85,1.56-31.94-7-53S824,439.34,824,439.34s19.47-36.62-8.57-66.22Z"/><circle class="cls-6" cx="788.19" cy="194.73" r="31.94"/><path class="cls-10" d="M817.79,243s-33.49,0-38.17,3.9a6.21,6.21,0,0,1-8.56,0s-11.69.78-14.81,10.12-12.46,21.82-12.46,21.82-14,10.12-6.23,36.61,1.56,69.33,1.56,69.33-6.24,9.35,0,13.24,8.57,5.45,7.79,8.57,70.88-25.71,70.88-31.16-1.55-10.13,0-12.46,3.12-6.24,1.56-10.13,1.56-4.67.78-8.57,3.9-32.72,7-45.18S829.48,243.81,817.79,243Z"/><path class="cls-6" d="M699.8,319.38S669,296,666.67,304.57s22.59,28.05,22.59,28.05Z"/><path class="cls-10" d="M801.44,246.93s-36.62,65.43-37.4,74.78-.77,10.13-3.89,9.35-46-5.45-49.86-3.9-11.68-9.34-11.68-9.34-14.8,14.8-11.69,17.91,12.47,4.68,14,8.57,3.89,7.79,10.9,7,54.53,12.47,60.76,10.13,7.79-6.23,10.91-6.23,9.35-3.12,9.35-3.9,21.81-42.06,21.81-42.06S840.39,253.16,801.44,246.93Z"/><path class="cls-11" d="M772.38,215.14c-.45-3.16-2.07-6-2.9-9.12a18.94,18.94,0,0,1,2.16-14.69c4.58-7.4,13.57-10.68,19.85-16.71.13,3.07,2.26,5.7,4.62,7.67s5,3.58,7,5.92a23.2,23.2,0,0,1,4.11,8.33,29.11,29.11,0,0,1,1.62,10.91,13.69,13.69,0,0,1-4.73,9.71c-2.33,1.84-5.6,2.9-6.73,5.65a9.66,9.66,0,0,0-.37,4.27c.53,8.57,1,17.3-1,25.64s-7,16.41-14.71,20.11c6.37.45,12.87.9,19-.71s12.09-5.66,14.22-11.68c1-3,1.15-6.27,2.64-9,3.78-7,14.21-7.34,19.34-13.44,2-2.45,3-5.59,3.78-8.7,4.33-18.26,1.29-37.66-5.3-55.23-2.27-6.06-5.1-12.16-10-16.42-4.15-3.62-9.44-5.62-14.67-7.32-7.64-2.49-15.51-4.53-23.54-4.79a29.65,29.65,0,0,0-10.34,1.21,30.71,30.71,0,0,0-9.09,5.17c-12.58,9.79-21.14,25.44-20,41.33.69,9.62,4.77,18.73,10,26.83,1.83,2.83,6.16,8.87,10.18,7.09C771.3,225.51,772.86,218.56,772.38,215.14Z"/><ellipse class="cls-11" cx="357.4" cy="128.62" rx="33.66" ry="26.25"/><path class="cls-11" d="M300.74,622.92s-14.11,35.6-6.75,39.89,84.7,1.23,84.7,1.23,12.89-8-1.84-13.5c0,0-12.27-.61-20.25-5.53s-17.19-14.11-17.19-14.11-.61-13.51-5.52-10.44a12.64,12.64,0,0,0-5.53,8.6Z"/><path class="cls-3" d="M300.74,622.92s-14.11,35.6-6.75,39.89,84.7,1.23,84.7,1.23,12.89-8-1.84-13.5c0,0-12.27-.61-20.25-5.53s-17.19-14.11-17.19-14.11-.61-13.51-5.52-10.44a12.64,12.64,0,0,0-5.53,8.6Z"/><path class="cls-11" d="M279,633.81s-15.48,39-7.41,43.75,92.9,1.35,92.9,1.35,14.13-8.75-2-14.81c0,0-13.47-.67-22.22-6.06s-18.84-15.48-18.84-15.48-.68-14.81-6.06-11.44a13.82,13.82,0,0,0-6.06,9.42Z"/><path class="cls-11" d="M358.41,386.09,349,470.91s-3.36,40.39-13.46,49.14c0,0,0,12.79-3.36,16.83l-4.72,53.18s6.73,19.52,6.06,22.88,2.69,14.14,2,15.48-32.31,0-32.31,0l6.73-108.37,20.87-150.78Z"/><path class="cls-3" d="M358.41,386.09,349,470.91s-3.36,40.39-13.46,49.14c0,0,0,12.79-3.36,16.83l-4.72,53.18s6.73,19.52,6.06,22.88,2.69,14.14,2,15.48-32.31,0-32.31,0l6.73-108.37,20.87-150.78Z"/><path class="cls-11" d="M341.58,383.4s-7.41,69.34-10.77,84.14a190.9,190.9,0,0,0-4,29.62s-.67,21.54-6.73,27.6a18.24,18.24,0,0,0-5.39,13.46s-6,68-2.69,76.07,6.73,14.81,3.37,20.19-40.39,5.39-40.39,1.35,0-7.41-2-9.43,0-14.8,0-14.8-8.08-59.91-.67-77.42S283,468.89,283,468.89s-5.39-54.52-12.12-63.27,1.35-39.72,1.35-39.72Z"/><path class="cls-5" d="M322.63,168.09c.78,1.79,2.65,2.78,4.36,3.72,9.88,5.44,18.15,13.34,26.3,21.14a30.9,30.9,0,0,1,1.23-20.89c1-2.25,2.25-4.67,1.55-7-.51-1.73-2-3-3.41-4.08a106.69,106.69,0,0,0-10.41-7.1c-2.52-1.51-7.7-5.52-10.59-5.09-.16,3.91-.24,7.41-2,11.06C329.31,160.68,322.93,168.77,322.63,168.09Z"/><circle class="cls-5" cx="357.06" cy="149.15" r="27.6"/><path class="cls-12" d="M358.41,214.44s4.71-23.56-8.75-31.63-29-17.5-29-17.5-4.71-.68-6.73,9.42c0,0-38.37,7.4-42.41,43.75s2.7,89.53,2.7,89.53-6.06,46.45-13.47,71.35c0,0-6.06,5.39,20.87-2.69s74.05,22.89,74.05,22.89,4.71-4.71,4.71-8.08,5.38-22.89,5.38-22.89,4.71-82.79,6.73-92.22S364.47,215.79,358.41,214.44Z"/><path class="cls-11" d="M350.56,152a11.51,11.51,0,0,1,5.41-1.44,10.32,10.32,0,0,0,5.35-1.59c2.61-2,2.8-5.87,4.71-8.55,2.76-3.88,8.27-4.34,13-4.15,2.91.12,6,.29,8.49-1.28s3.66-4.66,4.5-7.52c1-3.39,1.65-7.53-.83-10-1.72-1.75-4.45-2.09-6.36-3.63s-2.81-4.17-3.89-6.48a17.52,17.52,0,0,0-5.64-7.06c-3.61-2.51-8.23-3.07-12.63-3s-8.82.62-13.19.08c-3.58-.44-7.14-1.63-10.71-1.1-4.55.67-8.31,4.1-10.55,8.11s-3.2,8.59-4.13,13.09l-2.54,12.24c-.78,3.8-1.57,7.69-1,11.52,1.26,7.94,8.28,14.25,8.77,22.27a13.65,13.65,0,0,1,8.34-9.92,2.62,2.62,0,0,1,1.7-.21c.7.22,1.1.92,1.54,1.51,1.16,1.53,4.78,3.85,6.83,2.77C349.62,156.61,348.25,153.56,350.56,152Z"/><path class="cls-5" d="M281,277.72s-4.71,29.62,14.81,26.92c0,0,10.09-1.34,11.44,0s51.16-7.4,57.89-14.8c0,0,8.08-2.7,12.12,1.34s44.42,8.08,32.31-4-31-14.81-31-14.81L353,273.68s-13.46,4-21.54,0-31-2.69-31-2.69Z"/><path class="cls-12" d="M308.6,184.15s-30.3,3.37-30.3,47.12v55.87s16.83-7.4,20.2-6.73,16.83-8.75,16.83-8.75,15.48-36.35,14.13-46.45S328.79,185.5,308.6,184.15Z"/><ellipse class="cls-11" cx="357.06" cy="131.98" rx="25.92" ry="13.46"/><ellipse class="cls-11" cx="332.83" cy="134.34" rx="9.09" ry="22.55"/></svg>