<svg id="b0225cde-a2d2-4693-8ce5-502a1e8a6144" xmlns="http://www.w3.org/2000/svg" viewBox="0 0 1077.38 752.86"><defs><style>.cls-1{fill:#f2f2f2;}.cls-2{fill:#6c63ff;}.cls-3{fill:#2f2e41;}.cls-4{fill:#ffb9b9;}.cls-5{opacity:0.05;}.cls-5,.cls-6,.cls-9{isolation:isolate;}.cls-6{fill:#fff;opacity:0.3;}.cls-7{fill:#fbbebe;}.cls-8{fill:#3f3d56;}.cls-9{opacity:0.1;}.cls-10{fill:#5333ed;}</style></defs><title>F</title><circle class="cls-1" cx="502.4" cy="362.43" r="328"/><path class="cls-2" d="M323.38,155.85l-6.79,54.92c8.34,16.31,17.17,34.86,25.59,54.87l16-82.82.81.74c-11.69-11.83-24-21.46-36.42-28.37Z"/><path class="cls-2" d="M315.12,207.91l6.58-53.2c-14-7.63-28.1-11.8-41.67-11.72-.71,0-1.41,0-2.1,0C280.65,147.21,296.5,171.78,315.12,207.91Z"/><path class="cls-2" d="M423.82,293.6l.73,1q-3.65-11.08-8-21.72l-41.25,92.4-.35-.44q1.56,6.82,2.88,13.51Z"/><path class="cls-2" d="M395.89,232.2l.78.88a259,259,0,0,0-36.88-48.69l-16.3,84.4q11.72,28.17,20.18,55Z"/><path class="cls-2" d="M213.16,227.87a215.44,215.44,0,0,0,1.15,43.53l143.85,40.4c-5.21-15.42-10.82-30-16.4-43.39L213.33,229.09Z"/><path class="cls-2" d="M216.91,288.13l-.2-1.22,146,38.77q-1.79-5.71-3.64-11.3L214.64,273.83l-.19-1.22Q215.43,280.25,216.91,288.13Z"/><path class="cls-2" d="M415.2,270.56l.75.94a308.26,308.26,0,0,0-18.6-37.27L364.7,327.08q5.55,17.93,9.59,35.11Z"/><path class="cls-2" d="M384.48,429.77c1.49,26.51-.44,51-5.79,73.2,11.34-16.23,55.5-84,55.49-154.19Z"/><path class="cls-2" d="M235.2,344.37a298.71,298.71,0,0,0,20.39,34.43l-.14-1.34,127.18,49.89a373.17,373.17,0,0,0-5.58-44.19Z"/><path class="cls-2" d="M313.83,208.6c-20.16-39.08-37-64.49-37.25-64.85l.46-.67c-20.6,1.08-36.93,12.15-48,30.35Z"/><path class="cls-2" d="M378.46,381.79c.26,1.38.53,2.77.78,4.15a368.6,368.6,0,0,1,5,39.87l49.23-80.23.69,1a146,146,0,0,0-5-36.61q-1.92-7-4.15-13.92Z"/><path class="cls-2" d="M340.64,265.74c-8.34-19.77-17.07-38.1-25.31-54.22l-86.75-36-.11-1.2c-8.19,13.87-13.4,31.75-15.21,52.4Z"/><path class="cls-2" d="M382.77,429.71,256.53,380.18c45.29,66,114.84,122.67,119.28,126.26C382.41,481.93,384.22,455.9,382.77,429.71Z"/><path class="cls-2" d="M376.53,380.68l0-.08a504.21,504.21,0,0,0-13.11-52.37L217.14,289.37q2,10.67,5.05,21.73a179.54,179.54,0,0,0,11.67,30.56Z"/><path class="cls-2" d="M570,387.38l-40.26,38c-4,17.89-9,37.8-15.29,58.58l65.14-53.58.16,1.08c-1.46-16.57-4.8-31.83-10-45.08Z"/><path class="cls-2" d="M530.47,422.2l39-36.77c-5.9-14.79-14.12-27-24.62-35.61-.55-.45-1.1-.88-1.66-1.3C542.63,353.47,539.16,382.5,530.47,422.2Z"/><path class="cls-2" d="M559.53,557.53l-.07,1.23q4.27-10.86,7.67-21.86l-90.7,44.86v-.56q-3.14,6.25-6.39,12.24Z"/><path class="cls-2" d="M577.18,492.43l0,1.17a258.65,258.65,0,0,0,2.65-61l-66.38,54.6q-9,29.18-19.55,55.25Z"/><path class="cls-2" d="M439.2,372.55a215.49,215.49,0,0,0-26.88,34.26l85,122.86c5.82-15.2,10.81-30,15-43.88l-73.84-112.2Z"/><path class="cls-2" d="M403.65,421.35l.63-1.07,87.69,123q2.28-5.54,4.41-11L411,408.89l.63-1.06Q407.55,414.33,403.65,421.35Z"/><path class="cls-2" d="M567.58,534.29l0,1.2A307.9,307.9,0,0,0,577,494.93l-84.37,50.68q-7.15,17.34-15,33.16Z"/><path class="cls-2" d="M442.38,637.32c-15.76,21.36-32.87,39-51.15,52.68,19.09-5.27,96.3-29.27,141.08-83.36Z"/><path class="cls-2" d="M381.88,476.33a298.14,298.14,0,0,0-6.26,39.52l.75-1.12,66.12,119.54a371.72,371.72,0,0,0,23.9-37.59Z"/><path class="cls-2" d="M529,421.92c9.4-43,12.63-73.28,12.67-73.72l.79-.21c-16.56-12.32-36.2-14.2-56.34-7.25Z"/><path class="cls-2" d="M468.35,596.52c-.69,1.24-1.36,2.48-2.05,3.7a369.71,369.71,0,0,1-21.58,33.89l89.08-30.39-.1,1.2a146,146,0,0,0,19.52-31.37q3-6.63,5.68-13.36Z"/><path class="cls-2" d="M513.23,483c6.19-20.55,11.16-40.23,15.09-57.91l-43.86-83,.68-1C470,346.54,454.57,357,440,371.74Z"/><path class="cls-2" d="M441.1,636.18,375.46,517.51c-7.22,79.74,10.21,167.73,11.34,173.33C407.51,676.17,425.51,657.28,441.1,636.18Z"/><path class="cls-2" d="M467.56,594.44l.09,0A503.19,503.19,0,0,0,491,545.7L403,422.44q-5.22,9.54-10,20a179.44,179.44,0,0,0-10.51,31Z"/><path class="cls-2" d="M233.64,389.27l10.51,54.33c13,12.94,27.1,27.85,41.3,44.27l-10.39-83.7,1,.45c-14.78-7.64-29.46-13-43.41-15.73Z"/><path class="cls-2" d="M241.87,441.33,231.69,388.7c-15.66-2.93-30.37-2.53-43.26,1.73-.67.23-1.33.47-2,.71C190.33,394.26,213,412.73,241.87,441.33Z"/><path class="cls-2" d="M371.73,489.23l1,.71q-6.9-9.42-14.36-18.17L347.71,572.39l-.47-.31q3.6,6,6.92,12Z"/><path class="cls-2" d="M326.19,439.46l1,.6a258.86,258.86,0,0,0-50.13-34.9l10.59,85.3q19.84,23.18,36.2,46.08Z"/><path class="cls-2" d="M151.07,491.83a216.43,216.43,0,0,0,14.55,41.05l149.3-6c-9.73-13.05-19.57-25.2-29-36.2l-134.3,2.31Z"/><path class="cls-2" d="M173.26,548l-.56-1.09,150.8-8.25q-3.47-4.89-7-9.63l-149.85,6.07-.56-1.1Q169.42,540.94,173.26,548Z"/><path class="cls-2" d="M356.41,470l1,.66A310.1,310.1,0,0,0,328.21,441l-2.36,98.39q10.83,15.33,20,30.43Z"/><path class="cls-2" d="M376.41,630.89c9.61,24.75,15.34,48.64,17.12,71.4,5.76-18.94,26.83-97,5.11-163.79Z"/><path class="cls-2" d="M208,595.81a299.2,299.2,0,0,0,30,26.44l-.54-1.23,136.37,8.14a371.71,371.71,0,0,0-19-40.3Z"/><path class="cls-2" d="M240.86,442.39c-31.26-30.94-55.13-49.89-55.48-50.17l.24-.78c-19.27,7.4-31.37,23-36.28,43.71Z"/><path class="cls-2" d="M355.86,587.12c.67,1.23,1.36,2.47,2,3.7A370.3,370.3,0,0,1,375,627.19l22-91.51,1,.73a146.32,146.32,0,0,0-16-33.28q-4-6.09-8.25-11.95Z"/><path class="cls-2" d="M284,488.44c-14-16.22-28-30.95-40.84-43.74l-93.62-7.41-.47-1.1c-3.51,15.72-2.94,34.33,1.73,54.54Z"/><path class="cls-2" d="M374.76,631.36l-135.37-8.08c63.49,48.79,147.14,81.16,152.47,83.2C390.56,681.14,384.24,655.82,374.76,631.36Z"/><path class="cls-2" d="M353.67,586.66l0-.09A501.19,501.19,0,0,0,325,540.82l-151.17,8.27q5.25,9.51,11.53,19.1a179.64,179.64,0,0,0,20.54,25.46Z"/><path class="cls-3" d="M248.4,718.43s212-84,468,0"/><path class="cls-4" d="M402.53,654c.17,2.25.44,4.49.83,6.71,0,0,18.25,12.41,19.71-1.46.95-9-1.2-13.11-2.82-14.86l0,0a5.62,5.62,0,0,1-1.53-3.81V624.2l-16.06,5.11.73,13.87C402.28,646.06,402.27,650.36,402.53,654Z"/><path class="cls-5" d="M402.53,654c.17,2.25.44,4.49.83,6.71,0,0,18.25,12.41,19.71-1.46.95-9-1.2-13.11-2.82-14.86a4.36,4.36,0,0,0-4.48-.46c-2.92-1.3-6.13.86-8.79,3.67A25.59,25.59,0,0,0,402.53,654Z"/><path class="cls-3" d="M415.77,645.37s8-4.38,9.49,15.32,2.19,17.51,2.19,17.51,7.29,17.52-8,15.33-22.62-3.65-21.89-12.41c.44-5.28,1.67-12.94,2.58-18.2A26.78,26.78,0,0,1,407,649C409.64,646.23,412.85,644.07,415.77,645.37Z"/><path class="cls-4" d="M501.5,670.41l8.36,4s26.14,4,17.85-10.87a60.4,60.4,0,0,1-5.45-14.08,93.22,93.22,0,0,1-2.89-20.88l-22.12,3.08c7.21,9.6,6.3,25.18,5.18,33.34C502,668.33,501.5,670.41,501.5,670.41Z"/><path class="cls-5" d="M501.5,670.41l8.36,4s26.14,4,17.85-10.87a60.4,60.4,0,0,1-5.45-14.08c-5.08,1-8.94,8.28-8.94,8.28-4.1,14.22-7.78,10.66-10.89,7.26C502,668.33,501.5,670.41,501.5,670.41Z"/><path class="cls-3" d="M513.8,659.16s6.52-12.33,13.75-7.12,3.64,12.64,27.05,19.92,7.94,22.74-6.38,21.56-44.87-6.75-44.87-6.75-7.94-22.73-4.26-23.25S507.86,679.78,513.8,659.16Z"/><path class="cls-6" d="M547.25,690.76c9.3.77,19.08-5.48,18.4-11.94,4.44,7.3-6.81,15.57-17.43,14.7-14.33-1.18-44.87-6.75-44.87-6.75s-.38-1.07-.92-2.75C503.32,684.19,533.14,689.6,547.25,690.76Z"/><path class="cls-6" d="M397.56,680.7c.85,6.57,8.13,7.95,21.86,9.91,7,1,9.26-2.1,9.68-5.76.46,4.69-.88,9.94-9.68,8.68-15.33-2.19-22.62-3.65-21.89-12.41C397.54,681,397.55,680.84,397.56,680.7Z"/><path class="cls-7" d="M364.19,395.87l-2.43,36.34s-1.93,36.82,13.08,39.72,0-47,0-47V392Z"/><path class="cls-8" d="M376.78,263.61,374.84,268s.49,30.52,0,32.94-6.78,21.32-6.78,23.26-4.84,58.14-5.81,61.53-5.33,14.05-1.46,15.5,11.15-4.36,14,0,5.33,0,5.33-1.45,1-29.07,6.79-36.82,11.14-25.2,12.11-28.59,2.42-52.32,2.9-53.29S400,267,400,267Z"/><path class="cls-3" d="M404.4,315s-5.82,22.77-9.69,27.13S371.45,378.91,377.27,422s16,99.32,16,99.32,1.46,19.86-.48,25.19,8.72,90.11,8.72,90.11,15,11.63,23.25-2.9c0,0-1.93-31.49,0-34.4s0-55.23,0-55.23,1.46-130.32,9.21-125,31.49,95.92,31.49,95.92,10.17,34.88,9.69,37.79,8.72,39.24,8.72,39.24,8.72,50.39,12.11,51.36,24.22,1.45,26.16-3.88L516.31,594s-5.81-51.84-8.72-59.11-7.75-110.46-21.8-141c0,0-5.33-48.93-9.21-56.2,0,0-2.27-10,.53-19.3C477.11,318.43,409.73,318.84,404.4,315Z"/><ellipse class="cls-3" cx="433.22" cy="172.53" rx="40.7" ry="51.6"/><path class="cls-7" d="M516.79,233.09l-6.29,13.56-74.61,21.81s-51.84,15-57.17-9.21,20.35-26.65,20.35-26.65,9.69-6.78,21.8-13.56c4.05-2.27,5.39-5.95,5.38-9.84a21,21,0,0,0-.32-3.45,30.71,30.71,0,0,0-1-3.89,44.9,44.9,0,0,0-4.09-9s32-12.6,31.49-5.82a19.3,19.3,0,0,0,.77,7.25,29.37,29.37,0,0,0,2.66,5.88c.55.93,1.15,1.9,1.83,2.93.87,1.33,1.86,2.75,3,4.29,6.29,8.72,27.13,8.72,27.13,8.72C504.2,214.19,516.79,233.09,516.79,233.09Z"/><path class="cls-9" d="M453.13,194.31A27.61,27.61,0,0,1,425,201.86a44.9,44.9,0,0,0-4.09-9s32-12.6,31.49-5.82A19.3,19.3,0,0,0,453.13,194.31Z"/><circle class="cls-7" cx="432.98" cy="172.05" r="27.61"/><path class="cls-8" d="M398.58,252.47s120.15-27.13,120.64-23.26,5.33,11.63,5.33,11.63l-28.1,32s3.39,15.5-3.4,18.89S485.3,320.78,479,321.26s-79.93-.48-80.42-4.36,1.94-6.3,0-7.26-4.84-1-2.42-5.82,2.42-25.19,2.42-25.19L375.81,268s-3.12-9,2.56-10.57S398.58,252.47,398.58,252.47Z"/><path class="cls-8" d="M520.19,239.87h4.36s13.08,8.72,16.47,16.47,15.5,17.93,18.41,20.84,42.63,30.52,42.15,34.39-11.63,7.75-12.12,12.11,4.85,6.3,1.46,6.3-24.23-12.11-32-16.47-23.74-17-25.67-20.35-15-9.2-16.48-11.62S492.57,268,492.57,268Z"/><circle class="cls-3" cx="392.53" cy="141.28" r="15.5" transform="translate(190.19 506.11) rotate(-80.78)"/><circle class="cls-3" cx="460.84" cy="120.93" r="15.5"/><ellipse class="cls-3" cx="436.86" cy="154.12" rx="28.83" ry="17.68"/><path class="cls-3" d="M455.79,200.19c-13.28,5.23-23.78,5.85-29.86,5.56a21,21,0,0,1,.32,3.45c.71,0,1.47,0,2.28,0,6.72,0,16.76-1.16,29.09-6.12Z"/><path class="cls-10" d="M915.55,402.6H719.35V555.3h-114v-420h325.2V236.7H719.35v64.5h196.2Z"/><path class="cls-7" d="M593.82,310.6s34.89,25.68,41.67,25.2,46.51-2.91,37.3,6.29-50.87,3.4-50.87,3.4l-38.27-24.23Z"/></svg>