<svg viewBox="0 0 80 80" xmlns="http://www.w3.org/2000/svg" fill-rule="evenodd" clip-rule="evenodd" stroke-linejoin="round" stroke-miterlimit="1.414"><path d="M24 54.262l15.454-29.348a1.028 1.028 0 0 1 1.83.019l5.072 10.124L24 54.262z" fill="#ffa40c"/><path d="M24 54.1l5.314-35.182a1.028 1.028 0 0 1 1.915-.347l11.188 20.055L24 54.1z" fill="#ffa713"/><path d="M24.002 54.244l13.127-24.93 5.153 9.237L24 54.256l.002-.012z" fill="#f5820b"/><path d="M50.627 27.382a1.03 1.03 0 0 1 1.743.551l4.519 26.201-15.034 8.189a3.601 3.601 0 0 1-3.501-.032L24 54.134l26.627-26.752z" fill="#ffcb2b"/></svg>