<svg id="Layer_1" data-name="Layer 1" xmlns="http://www.w3.org/2000/svg" viewBox="0 0 917.36 383.25"><defs><style>.cls-1{fill:#e1eaf8;}</style></defs><title>form-popup-body-bg</title><path class="cls-1" d="M192,503.8a3.22,3.22,0,0,0-4-2.07h0L134.45,519a3.23,3.23,0,0,0-2.07,4.05l9.72,30.06a3.22,3.22,0,0,0,4,2.07h0l53.5-17.3a3.22,3.22,0,0,0,2.06-4Zm-13.68,25.74,17.32,6.29L148.1,551.2l10.47-15.31a1.6,1.6,0,1,0-2.65-1.81l-11.27,16.49-8.76-27.09,31.68,9.57a1.54,1.54,0,0,0,1,0,1.67,1.67,0,0,0,.79-.55l20.08-26.31,8.78,27.15-18.77-6.81a1.61,1.61,0,1,0-1.09,3ZM138.79,521l46.79-15.12-18.15,23.77Z" transform="translate(-83.34 -343.19)"/><path class="cls-1" d="M265.93,443.1a3.22,3.22,0,0,0-1-4.42h0L217,409.21a3.21,3.21,0,0,0-4.42,1.05L196,437.16a3.21,3.21,0,0,0,1,4.42h0L245,471.05a3.21,3.21,0,0,0,4.42-1.05Zm-28.46,6.29,6.46,17.26-42.54-26.18,18.44-2a1.61,1.61,0,1,0-.34-3.2l-19.86,2.13,14.92-24.25,13.28,30.32a1.62,1.62,0,0,0,1.56,1l33-1.8-15,24.3-7-18.7a1.61,1.61,0,0,0-3,1.13Zm-19.15-35.6,41.88,25.77-29.87,1.63Z" transform="translate(-83.34 -343.19)"/><path class="cls-1" d="M212.93,620.1a3.22,3.22,0,0,0-1-4.42h0L164,586.21a3.21,3.21,0,0,0-4.42,1L143,614.16a3.21,3.21,0,0,0,1,4.42h0L192,648.05a3.21,3.21,0,0,0,4.42-1Zm-28.46,6.29,6.46,17.26-42.54-26.18,18.44-2a1.61,1.61,0,1,0-.34-3.2l-19.86,2.13,14.92-24.25,13.28,30.32a1.62,1.62,0,0,0,1.56,1l33-1.8-15,24.3-7-18.7a1.61,1.61,0,0,0-3,1.13Zm-19.15-35.6,41.88,25.77-29.87,1.63Z" transform="translate(-83.34 -343.19)"/><path class="cls-1" d="M886.36,458.63a3.21,3.21,0,0,0-1.42-4.31h0L834.67,429.1a3.23,3.23,0,0,0-4.31,1.43L816.2,458.78a3.2,3.2,0,0,0,1.42,4.3h0l50.26,25.21a3.22,3.22,0,0,0,4.31-1.43Zm-27.81,8.73L866.48,484l-44.65-22.4L840,458a1.6,1.6,0,1,0-.61-3.15l-19.61,3.84,12.77-25.45,15.86,29.05a1.6,1.6,0,0,0,.68.66,1.56,1.56,0,0,0,1,.16l32.77-4.66L870,484l-8.59-18a1.61,1.61,0,0,0-2.9,1.38Zm-22.16-33.8,44,22.05-29.62,4.2Z" transform="translate(-83.34 -343.19)"/><path class="cls-1" d="M965.36,617.63a3.21,3.21,0,0,0-1.42-4.31h0L913.67,588.1a3.23,3.23,0,0,0-4.31,1.43L895.2,617.78a3.2,3.2,0,0,0,1.42,4.3h0l50.26,25.21a3.22,3.22,0,0,0,4.31-1.43Zm-27.81,8.73L945.48,643l-44.65-22.4L919,617a1.6,1.6,0,0,0-.61-3.15l-19.61,3.84,12.77-25.45,15.86,29.05a1.6,1.6,0,0,0,.68.66,1.56,1.56,0,0,0,1,.16l32.77-4.66L949,643l-8.59-18a1.61,1.61,0,0,0-2.9,1.38Zm-22.16-33.8,44,22.05-29.62,4.2Z" transform="translate(-83.34 -343.19)"/><path class="cls-1" d="M958.91,496.73a3.22,3.22,0,0,0-4.24-1.62h0l-51.31,23a3.21,3.21,0,0,0-1.62,4.24l12.92,28.84a3.21,3.21,0,0,0,4.24,1.62h0l51.31-23a3.22,3.22,0,0,0,1.62-4.24Zm-10.82,27.06,17.9,4.38L920.41,548.6l8.75-16.35a1.61,1.61,0,1,0-2.84-1.52l-9.42,17.61-11.64-26,32.53,6.08a1.61,1.61,0,0,0,1-.11,1.65,1.65,0,0,0,.72-.64l17.11-28.33,11.67,26-19.39-4.74a1.6,1.6,0,1,0-.76,3.11Zm-40.21-4.2,44.88-20.11-15.47,25.61Z" transform="translate(-83.34 -343.19)"/><path class="cls-1" d="M963.5,345.09a3.21,3.21,0,0,0-4.24-1.62h0l-51.32,23a3.22,3.22,0,0,0-1.61,4.24l12.92,28.84a3.2,3.2,0,0,0,4.24,1.62h0l51.31-23a3.21,3.21,0,0,0,1.62-4.24Zm-10.82,27.06,17.91,4.38L925,397l8.75-16.35a1.61,1.61,0,1,0-2.83-1.52L921.5,396.7l-11.64-26,32.53,6.09a1.64,1.64,0,0,0,1-.12,1.62,1.62,0,0,0,.72-.63l17.11-28.33,11.67,26L953.44,369a1.61,1.61,0,1,0-.76,3.12Zm-40.2-4.2,44.87-20.11-15.47,25.61Z" transform="translate(-83.34 -343.19)"/><path class="cls-1" d="M987.5,670.09a3.21,3.21,0,0,0-4.24-1.62h0l-51.32,23a3.22,3.22,0,0,0-1.61,4.24l12.92,28.84a3.2,3.2,0,0,0,4.24,1.62h0l51.31-23a3.21,3.21,0,0,0,1.62-4.24Zm-10.82,27.06,17.91,4.38L949,722l8.75-16.35a1.61,1.61,0,1,0-2.83-1.52L945.5,721.7l-11.64-26,32.53,6.09a1.64,1.64,0,0,0,1-.12,1.62,1.62,0,0,0,.72-.63l17.11-28.33,11.67,26L977.44,694a1.61,1.61,0,1,0-.76,3.12Zm-40.2-4.2,44.87-20.11-15.47,25.61Z" transform="translate(-83.34 -343.19)"/><path class="cls-1" d="M159.8,355a3.22,3.22,0,0,0-4.24-1.62h0l-51.32,23a3.15,3.15,0,0,0-1.68,1.79,3.11,3.11,0,0,0,.07,2.45l12.92,28.84a3.16,3.16,0,0,0,1.78,1.68,3.2,3.2,0,0,0,2.45-.06h0l51.31-23a3.21,3.21,0,0,0,1.62-4.24ZM149,382.11l17.91,4.38L121.3,406.92l8.75-16.36a1.6,1.6,0,0,0-2.83-1.51l-9.43,17.61-11.64-26,32.53,6.09a1.62,1.62,0,0,0,.95-.12,1.57,1.57,0,0,0,.72-.63l17.12-28.33,11.67,26L149.74,379a1.61,1.61,0,0,0-.76,3.12Zm-40.2-4.2,44.87-20.11-15.47,25.6Z" transform="translate(-83.34 -343.19)"/><path class="cls-1" d="M140.8,670a3.22,3.22,0,0,0-4.24-1.62h0l-51.32,23a3.15,3.15,0,0,0-1.68,1.79,3.11,3.11,0,0,0,.07,2.45L96.55,724.5a3.16,3.16,0,0,0,1.78,1.68,3.2,3.2,0,0,0,2.45-.06h0l51.31-23a3.21,3.21,0,0,0,1.62-4.24ZM130,697.11l17.91,4.38L102.3,721.92l8.75-16.36a1.6,1.6,0,1,0-2.83-1.51l-9.43,17.61-11.64-26,32.53,6.09a1.62,1.62,0,0,0,.95-.12,1.57,1.57,0,0,0,.72-.63l17.12-28.33,11.67,26L130.74,694a1.61,1.61,0,0,0-.76,3.12Zm-40.2-4.2,44.87-20.11-15.47,25.6Z" transform="translate(-83.34 -343.19)"/></svg>