<svg id="b0225cde-a2d2-4693-8ce5-502a1e8a6144" xmlns="http://www.w3.org/2000/svg" viewBox="0 0 1077.38 752.86"><defs><style>.cls-1{fill:#f2f2f2;}.cls-2{fill:#5333ed;}.cls-3{fill:none;stroke:#3f3d56;stroke-miterlimit:10;}.cls-4{fill:#57b894;}.cls-5{fill:#3f3d56;}.cls-6{fill:#ffc1c7;}.cls-7{fill:#2f2e41;}.cls-8{fill:#6c63ff;}.cls-9{opacity:0.1;isolation:isolate;}</style></defs><title>G</title><circle class="cls-1" cx="538.69" cy="376.43" r="328"/><path class="cls-2" d="M770.08,185.78,689.68,265c-18.9-18.6-44.4-30.9-80.1-30.9-59.4,0-101.4,45.6-101.4,111.3,0,76.5,49.5,114.6,103.2,114.6,52.8,0,83.1-20.7,95.1-61.8h-98.4v-83.4h208.8a278.17,278.17,0,0,1,2.41,37.8c0,140.1-104.11,210.3-202.81,210.3-132,0-225-90-225-217.5,0-127.8,93-217.8,225-217.8C683.08,127.58,734.38,149.48,770.08,185.78Z"/><path class="cls-3" d="M441.57,38.86a23,23,0,0,0-19.81,13.85c-4.95,12,1.43,26,11,34.77s21.87,13.72,33.05,20.28c15,8.81,28.5,21,36,36.74s8.3,35.15-.52,50.15c-8.2,13.93-23.1,22.26-37.31,29.94"/><ellipse class="cls-4" cx="454.19" cy="39.9" rx="17.5" ry="8.5"/><ellipse class="cls-4" cx="468.19" cy="95.9" rx="17.5" ry="8.5"/><ellipse class="cls-4" cx="436.19" cy="104.9" rx="17.5" ry="8.5"/><ellipse class="cls-4" cx="486.19" cy="151.9" rx="17.5" ry="8.5"/><ellipse class="cls-4" cx="521.19" cy="151.9" rx="17.5" ry="8.5"/><line class="cls-3" x1="127.18" y1="721.46" x2="485.69" y2="721.46"/><path class="cls-3" d="M114,548.22a21.4,21.4,0,0,0-18.44,12.9c-4.62,11.15,1.32,24.25,10.24,32.38s20.37,12.78,30.77,18.88c14,8.21,26.54,19.6,33.53,34.22s7.74,32.73-.48,46.7c-7.63,13-21.5,20.72-34.74,27.88"/><ellipse class="cls-4" cx="125.78" cy="549.19" rx="16.3" ry="7.92"/><ellipse class="cls-4" cx="138.82" cy="601.34" rx="16.3" ry="7.92"/><ellipse class="cls-4" cx="109.02" cy="609.72" rx="16.3" ry="7.92"/><ellipse class="cls-4" cx="155.58" cy="653.49" rx="16.3" ry="7.92"/><ellipse class="cls-4" cx="188.17" cy="653.49" rx="16.3" ry="7.92"/><path class="cls-3" d="M153.55,580.2a17.46,17.46,0,0,1,15.06,10.53c3.77,9.11-1.08,19.81-8.36,26.45s-16.64,10.43-25.13,15.42c-11.42,6.7-21.68,16-27.39,27.94s-6.32,26.73.4,38.14c6.23,10.59,17.56,16.92,28.37,22.77"/><ellipse class="cls-4" cx="143.95" cy="580.99" rx="13.31" ry="6.46"/><ellipse class="cls-4" cx="133.3" cy="623.58" rx="13.31" ry="6.46"/><ellipse class="cls-4" cx="157.64" cy="630.42" rx="13.31" ry="6.46"/><ellipse class="cls-4" cx="119.62" cy="666.17" rx="13.31" ry="6.46"/><ellipse class="cls-4" cx="93" cy="666.17" rx="13.31" ry="6.46"/><path class="cls-5" d="M209.54,680.4s9.31,4.66,15.83,5.59,10.18-5.66,8.81-8,4.22-.43,7.95,8c0,0,15.83,18.62,25.14,19.56s9.39,13.53,4.66,14c-5.13.47-14,3.73-25.15,0s-21.41-14-26.07-14-20.49-7.45-15.83-11.18S209.54,680.4,209.54,680.4Z"/><path class="cls-5" d="M301.31,701.44a51.7,51.7,0,0,0,14.21-.87c6.4-1.55,7.36-9,5.24-10.66s3.76-2,10.33,4.44c0,0,21.61,11.42,30.6,8.82s13.74,9.09,9.51,11.25A54.07,54.07,0,0,1,347.87,721c-11.75.69-25.09-2.27-29.41-.54s-21.79.68-18.85-4.5S301.31,701.44,301.31,701.44Z"/><circle class="cls-6" cx="285.48" cy="220.95" r="36.32"/><path class="cls-6" d="M257.08,235.38s5.59,39.11-7.45,44.7,66.12,3.72,66.12,3.72-11.18-35.38-8.38-44.69S257.08,235.38,257.08,235.38Z"/><path class="cls-7" d="M244.05,457.94s-2.8,70.77-5.59,78.22-5.59,57.73-5.59,57.73l-24.21,91.26L231,692.6s30.73-54,34.45-60.53S299,521.26,299,521.26s-2.8,64.25-2.8,85.67,5.59,99.63,5.59,99.63l17.69-1.86L342.75,606s33.53-133.16,11.18-148S244.05,457.94,244.05,457.94Z"/><path class="cls-6" d="M380,480.28s.93,54-10.24,45.63,0-50.28,0-50.28Z"/><path class="cls-6" d="M225.42,461.66s.93,54-10.24,45.63,0-50.29,0-50.29Z"/><path class="cls-8" d="M362.31,304.29s-18.63-21.42-34.46-18.63-102.43,1.87-102.43,1.87S196.56,323.84,204,331.29,235.67,471,235.67,471s64.25-8.38,86.6-8.38,31.66-3.72,31.66-3.72-29.8-59.6-15.83-86.6,34.45-55.88,34.45-55.88Z"/><path class="cls-8" d="M356.72,310.81l15.83,5.58s9.31,32.6,9.31,58.67.93,39.11,4.66,48.42,15.83,53.08,9.31,62.39a62.26,62.26,0,0,1-13,14L361.38,498s-.93-30.73-6.52-33.53-13-20.48-13-20.48-17.69-56.81-6.52-75.43S356.72,310.81,356.72,310.81Z"/><path class="cls-5" d="M297.12,345.26s9.32-41-8.38-39.11-41.9,2.79-48.42,2.79S196.56,304.29,191,328.5s-13,54,2.79,72.63c0,0,5.59,81.95,27,87.53s78.22,12.11,98.7-14.89S331.58,417,331.58,417h-9.31Z"/><polygon class="cls-5" points="327.85 418.83 335.3 368.54 331.58 420.69 327.85 418.83"/><path class="cls-9" d="M203.07,407.65s15.83,7.45,48.43,2.79v14l-48.43-3.72Z"/><polygon class="cls-5" points="288.28 305.69 312.49 292.65 292 310.34 288.28 305.69"/><path class="cls-8" d="M340,292.18s18.62,6.52,18.62,0-16.76-12.1-27-15.83-58.67-9.31-66.12-12.1-42.83-7.45-45.62,3.72-3.73,34.46,10.24,37.25,50.28-4.66,68.91-2.79S340,292.18,340,292.18Z"/><path class="cls-9" d="M340,292.18s18.62,6.52,18.62,0-16.76-12.1-27-15.83-58.67-9.31-66.12-12.1-42.83-7.45-45.62,3.72-3.73,34.46,10.24,37.25,50.28-4.66,68.91-2.79S340,292.18,340,292.18Z"/><polygon class="cls-5" points="210.06 313.13 216.39 299.84 217.51 315.93 210.06 313.13"/><ellipse class="cls-7" cx="279.19" cy="218.93" rx="34" ry="39.5"/><ellipse class="cls-7" cx="285.19" cy="197.93" rx="34" ry="21.5"/><ellipse class="cls-6" cx="311.69" cy="230.43" rx="3.5" ry="6"/><path class="cls-7" d="M306.81,192.52c3.58-2,6.63-5.5,8.92-10.33a11.19,11.19,0,0,1,.18,3.27,12.52,12.52,0,0,0,4.26-1.29l-.32,3.49a36.36,36.36,0,0,0,7-5.63,27.76,27.76,0,0,1-2.47,14.86c-1.85,3.66-4.37,6-6.87,8.39"/></svg>