<svg id="Layer_1" xmlns="http://www.w3.org/2000/svg" viewBox="0 0 80 80"><style>.st3{fill:#d24330}.st4{fill:#5085f9}.st9{fill:#fff}.st11{fill:#f3b01c}</style><path fill="#cfcecb" d="M24.8 40.2l6-10.5h12.3l6 10.5-6-10.5H30.8l-6 10.5L31 50.8h8.4H31z"/><path d="M39.4 50.8H31l-6.2-10.6-3.4-5.8c-.2-.4-.4-1-.3-1.6L17.5 39c-.4.7-.4 2 0 2.7l8.6 14.9c.4.7 1.5 1.3 2.3 1.3h10.2-.6l1.4-7.1zm-18.7-9.4c-.6 0-1.1-.5-1.1-1.1 0-.6.5-1.1 1.1-1.1.6 0 1.1.5 1.1 1.1 0 .6-.5 1.1-1.1 1.1zm8.2 14c-.6 0-1.1-.5-1.1-1.1 0-.6.5-1.1 1.1-1.1s1.1.5 1.1 1.1c0 .6-.5 1.1-1.1 1.1z" fill="#eeb400"/><path fill="#dd462f" d="M51.4 30.1l-3.5-6 2.3 3.9 1.2 2.1z"/><path class="st3" d="M42 52.7L39.6 57c-.2.4-.6.7-1 .9h4.6c-.8-1.4-1.2-3-1.2-4.8v-.4zM44.9 32.9l-1.8-3.2H50h-6.9l6 10.5-2.5 4.4c1.6-1 3.5-1.7 5.5-1.7h3.6l.8-1.3c.4-.7.4-2 0-2.7l-4.9-8.4-6.7 2.4zm8.3 8.5c-.6 0-1.1-.5-1.1-1.1 0-.6.5-1.1 1.1-1.1.6 0 1.1.5 1.1 1.1.1.6-.4 1.1-1.1 1.1z"/><path class="st4" d="M26.6 37l-1.8 3.1 6.1-10.5H50c.5 0 1 .2 1.4.4l-1.2-2-2.3-3.9c-.4-.7-1.5-1.3-2.3-1.3H28.4c-.9 0-1.9.6-2.3 1.3l-4.8 8.3 5.3 4.6zm18.5-11.8c.5 0 1 .4 1 1 0 .5-.4 1-1 1-.5 0-1-.4-1-1s.4-1 1-1zm-16.2-.1c.6 0 1 .5 1 1 0 .6-.5 1-1 1-.6 0-1-.5-1-1-.1-.5.4-1 1-1z"/><path d="M49.1 40.2l-6-10.5H30.8l-6.1 10.5L31 50.8h11.3c.6-2.5 2.2-4.7 4.3-6.1l2.5-4.5zM37 45.8c-3 0-5.5-2.5-5.5-5.5s2.5-5.5 5.5-5.5 5.5 2.5 5.5 5.5-2.5 5.5-5.5 5.5z" fill="#ccc"/><path d="M21.4 34.4l3.4 5.8 1.8-3.1-5.3-4.6-.2.4c-.1.4 0 1 .3 1.5z" fill="#4f71a9"/><path d="M50 29.7h-6.9l1.8 3.2 6.7-2.3-.2-.4c-.4-.3-.9-.5-1.4-.5z" fill="#c3432f"/><path d="M39.6 57l2.4-4.2c0-.7.1-1.3.3-2h-2.9l-1.3 7.1h.6c.4-.3.7-.6.9-.9z" fill="#d19d2a"/><path class="st9" d="M37 34.9c-3 0-5.4 2.4-5.4 5.4 0 3 2.4 5.4 5.4 5.4s5.4-2.4 5.4-5.4c0-3-2.4-5.4-5.4-5.4z"/><path d="M37 34.8c-3 0-5.5 2.5-5.5 5.5s2.5 5.5 5.5 5.5 5.5-2.5 5.5-5.5c0-3.1-2.5-5.5-5.5-5.5zm0 10.8c-3 0-5.4-2.4-5.4-5.4 0-3 2.4-5.4 5.4-5.4s5.4 2.4 5.4 5.4c0 3-2.4 5.4-5.4 5.4z" fill="#cac8c6"/><circle class="st9" cx="28.9" cy="26.2" r="1"/><path class="st9" d="M45.1 27.1c.5 0 1-.4 1-1 0-.5-.4-1-1-1-.5 0-1 .4-1 1s.4 1 1 1zM28.9 53.3c-.5 0-1 .4-1 1 0 .5.4 1 1 1 .5 0 1-.4 1-1-.1-.6-.5-1-1-1z"/><path class="st11" d="M28.9 53.1c-.6 0-1.1.5-1.1 1.1 0 .6.5 1.1 1.1 1.1s1.1-.5 1.1-1.1c0-.6-.5-1.1-1.1-1.1zm0 2.1c-.5 0-1-.4-1-1 0-.5.4-1 1-1 .5 0 1 .4 1 1-.1.6-.5 1-1 1z"/><path class="st9" d="M53.2 39.3c-.5 0-1 .4-1 1 0 .5.4 1 1 1s1-.4 1-1c0-.5-.4-1-1-1z"/><path d="M53.2 39.2c-.6 0-1.1.5-1.1 1.1 0 .6.5 1.1 1.1 1.1.6 0 1.1-.5 1.1-1.1.1-.6-.4-1.1-1.1-1.1zm0 2.1c-.5 0-1-.4-1-1 0-.5.4-1 1-1s1 .4 1 1c0 .5-.4 1-1 1z" fill="#de482f"/><path class="st9" d="M20.7 39.3c-.5 0-1 .4-1 1 0 .5.4 1 1 1 .5 0 1-.4 1-1-.1-.5-.5-1-1-1z"/><path class="st11" d="M20.7 39.2c-.6 0-1.1.5-1.1 1.1 0 .6.5 1.1 1.1 1.1.6 0 1.1-.5 1.1-1.1 0-.6-.5-1.1-1.1-1.1zm0 2.1c-.5 0-1-.4-1-1 0-.5.4-1 1-1 .5 0 1 .4 1 1-.1.5-.5 1-1 1z"/><path class="st9" d="M55.7 49.4H54v7.4h4.6v-1.4h-2.9zM59.5 49.4h1.8v7.4h-1.8z"/><path class="st9" d="M56.7 43h-4.6c-2 0-3.9.6-5.5 1.7-2.1 1.4-3.7 3.6-4.3 6.1-.2.6-.2 1.3-.3 2v.4c0 1.7.4 3.4 1.2 4.8 1.7 3.2 5.1 5.3 8.9 5.3h4.6c5.6 0 10.1-4.5 10.1-10.1S62.3 43 56.7 43zm0 18.4h-4.6c-4.6 0-8.3-3.7-8.3-8.3s3.7-8.3 8.3-8.3h4.6c4.6 0 8.3 3.7 8.3 8.3s-3.7 8.3-8.3 8.3z"/><path class="st9" d="M52.2 54.9H51.9s-.1 0-.1.1c-.1.1-.2.2-.3.2-.1.1-.2.1-.3.1s-.2.1-.4.1h-.4c-.3 0-.5-.1-.8-.2-.2-.1-.5-.3-.6-.4-.2-.2-.3-.4-.4-.7-.1-.3-.2-.6-.2-1s0-.7.1-1c.1-.3.2-.5.4-.7.2-.2.4-.3.6-.4.2-.1.5-.2.8-.2h.5c.1 0 .3.1.4.1.1 0 .2.1.3.1.1 0 .1.1.2.1s.1.1.2.1h.2c.1 0 .2 0 .2-.1s.1-.1.1-.1l.6-.8c-.1-.1-.3-.3-.5-.4l-.6-.3c-.2-.1-.5-.1-.7-.2-.3 0-.5-.1-.8-.1-.6 0-1.1.1-1.5.3-.5.2-.9.4-1.2.8-.3.3-.6.7-.8 1.2-.2.4-.3.9-.3 1.5 0 .5.1 1 .3 1.5.2.4.4.8.7 1.2.3.3.7.6 1.2.8.5.2 1 .3 1.5.3.6 0 1.2-.1 1.6-.3.5-.2.8-.5 1.1-.9l-.7-.6c0-.1 0-.1-.1-.1z"/><path class="st4" d="M56.7 44.8h-4.6c-4.6 0-8.3 3.7-8.3 8.3s3.7 8.3 8.3 8.3h4.6c4.6 0 8.3-3.7 8.3-8.3s-3.7-8.3-8.3-8.3zm-4.8 11.7c-.5.2-1 .3-1.6.3-.6 0-1.1-.1-1.5-.3-.5-.2-.8-.4-1.2-.8-.3-.3-.6-.7-.7-1.2-.2-.4-.3-.9-.3-1.5 0-.5.1-1 .3-1.5.2-.4.4-.8.8-1.2.3-.3.7-.6 1.2-.8.5-.2 1-.3 1.5-.3.3 0 .5 0 .8.1.3 0 .5.1.7.2l.6.3c.2.1.3.2.5.4l-.6.8-.1.1s-.1.1-.2.1h-.2c-.1 0-.1-.1-.2-.1s-.1-.1-.2-.1-.2-.1-.3-.1c-.1 0-.2-.1-.4-.1h-.5c-.3 0-.6.1-.8.2-.2.1-.4.3-.6.4-.2.2-.3.4-.4.7-.1.3-.1.6-.1 1s.1.7.2 1c.1.3.2.5.4.7.2.2.4.3.6.4.2.1.5.2.8.2h.4c.1 0 .3 0 .4-.1s.2-.1.3-.1c.1-.1.2-.1.3-.2l.1-.1H52.2s.1 0 .1.1l.7.7c-.3.3-.6.6-1.1.8zm6.7.3H54v-7.4h1.8v6h2.8v1.4zm2.7 0h-1.8v-7.4h1.8v7.4z"/></svg>