<?xml version="1.0" encoding="utf-8"?>
<!-- Generator: Adobe Illustrator 21.1.0, SVG Export Plug-In . SVG Version: 6.00 Build 0)  -->
<svg version="1.1" id="Layer_1" xmlns="http://www.w3.org/2000/svg" xmlns:xlink="http://www.w3.org/1999/xlink" x="0px" y="0px"
	 viewBox="0 0 80 80" enable-background="new 0 0 80 80" xml:space="preserve">
<g id="Pipelines">
	<g id="NL_pipeline_actions" transform="translate(-204.000000, -757.000000)">
		<g id="icons_x2F_actions_x2F_jekyl" transform="translate(176.000000, 739.000000)">
			<rect id="Rectangle-10" x="28" y="18" fill="none" width="80" height="80"/>
			<g id="Group-2" transform="translate(28.000000, 18.000000)">
				<path id="Shape" opacity="0.1" enable-background="new    " d="M41.7,18.9c0,0.1,0,0.2,0,0.3c0,0,0.3,1.8,0,2.6L28.7,55.4
					c-0.9,2.5,0.3,5.2,2.8,6.2s5.2-0.3,6.2-2.7l0,0l12.9-33.7c0.3-0.7,1.7-1.9,1.7-1.9c0.1-0.1,0.1-0.1,0.2-0.2v0c0,0,0,0,0,0
					c0.3-0.9-1.8-2.5-4.8-3.7C44.8,18.2,42.1,18,41.7,18.9C41.7,18.8,41.7,18.9,41.7,18.9L41.7,18.9L41.7,18.9z"/>
				
					<linearGradient id="Shape_5_" gradientUnits="userSpaceOnUse" x1="2.3558" y1="80.1212" x2="2.804" y2="80.0918" gradientTransform="matrix(24.1885 0 0 -43.6157 -23.1582 3533.8804)">
					<stop  offset="0" style="stop-color:#919191"/>
					<stop  offset="1" style="stop-color:#FFFFFF"/>
				</linearGradient>
				<path id="Shape_1_" fill="url(#Shape_5_)" d="M41.3,18.6c0,0.1,0,0.2,0,0.3c0,0,0.3,1.8,0,2.6L28.3,55.1
					c-0.9,2.5,0.3,5.2,2.8,6.2s5.2-0.3,6.2-2.7l0,0l12.9-33.7C50.5,24.2,52,23,52,23c0.1-0.1,0.1-0.1,0.2-0.2v0c0,0,0,0,0,0
					c0.3-0.9-1.8-2.5-4.8-3.7S41.7,17.7,41.3,18.6C41.3,18.6,41.3,18.6,41.3,18.6L41.3,18.6L41.3,18.6z"/>
				
					<linearGradient id="Shape_6_" gradientUnits="userSpaceOnUse" x1="2.9401" y1="79.8872" x2="3.3472" y2="79.8519" gradientTransform="matrix(16.112 0 0 -26.4777 -13.8263 2161.5359)">
					<stop  offset="0" style="stop-color:#990000"/>
					<stop  offset="1" style="stop-color:#E80000"/>
				</linearGradient>
				<path id="Shape_2_" fill="url(#Shape_6_)" d="M45.4,33.8L36,58.1c-0.7,1.7-2.7,2.6-4.5,2c-1.8-0.7-2.7-2.7-2.1-4.5l0,0l6-15.5
					c0,0,0.7-1.2,2.2-2.1s2.7-0.7,4.3-1.4C43.6,35.9,45.4,33.8,45.4,33.8L45.4,33.8z"/>
				<path id="Shape_3_" fill="#333333" d="M49.9,22c0.2-0.5-1.2-1.5-3-2.2c-1.8-0.7-3.5-0.9-3.7-0.4c-0.2,0.5,1.2,1.5,3,2.2
					C48.1,22.3,49.7,22.5,49.9,22L49.9,22z"/>
				<path id="Shape_4_" opacity="0.3" fill="#FFFFFF" enable-background="new    " d="M41.2,18.9c0,0,0.3,1.8,0,2.6L28.3,55
					c-0.9,2.5,0.3,5.2,2.8,6.2c0.4,0.2,0.9,0.3,1.3,0.3c-1.6-1.3-2.4-3.5-1.6-5.5l0,0L43.4,23C43.4,23,41.7,21.4,41.2,18.9
					L41.2,18.9z"/>
				<ellipse id="Oval" fill="#FFFFFF" cx="37.1" cy="40.5" rx="1" ry="1"/>
				<ellipse id="Oval_1_" fill="#FFFFFF" cx="39.5" cy="43.2" rx="1" ry="1"/>
				<ellipse id="Oval_2_" fill="#FFFFFF" cx="35.8" cy="46.5" rx="1.1" ry="1.1"/>
				<ellipse id="Oval_3_" fill="#FFFFFF" cx="34.1" cy="48.4" rx="1" ry="1"/>
				<ellipse id="Oval_4_" fill="#FFFFFF" cx="36.3" cy="52.6" rx="1" ry="1"/>
			</g>
		</g>
	</g>
</g>
</svg>
