<svg id="b0225cde-a2d2-4693-8ce5-502a1e8a6144" xmlns="http://www.w3.org/2000/svg" viewBox="0 0 1077.38 752.86"><defs><style>.cls-1{fill:#f2f2f2;}.cls-2{fill:#ffb9b9;}.cls-3{fill:#2f2e41;}.cls-4{opacity:0.1;isolation:isolate;}.cls-5{fill:#6c63ff;}.cls-6{fill:#3f3d56;}.cls-7{fill:#5333ed;}.cls-8{fill:#ff6584;}</style></defs><title>K</title><path class="cls-1" d="M918.05,408.22c0,216.22-177.18,391.5-395.74,391.5S-41.14,546.86,126.57,408.22C295.36,268.68,386,54.08,522.31,16.71,732.93-41,918.05,192,918.05,408.22Z"/><path class="cls-2" d="M772.35,197.92s17.62-12.66,19.82-6.61S779,208.38,779,208.38Z"/><path class="cls-3" d="M834.84,214.16c0,21.89-9.43,22.57-24.78,22.57s-30.83-.68-30.83-22.57,12.45-39.64,27.8-39.64S834.84,192.27,834.84,214.16Z"/><path class="cls-2" d="M797.12,213.89s2.21,16.51-8.25,17.61S823,235.91,823,235.91s-11.56-10.46-5.5-18.72S797.12,213.89,797.12,213.89Z"/><path class="cls-4" d="M797.12,213.89s2.21,16.51-8.25,17.61S823,235.91,823,235.91s-11.56-10.46-5.5-18.72S797.12,213.89,797.12,213.89Z"/><path class="cls-3" d="M741.52,509l-3.85,32.48s-19.27,23.68-7.16,22,19.82-3.31,19.82-5.51,1.65-11,3.3-11,1.65,6.06,1.65,6.06a51.51,51.51,0,0,0,5.51-2.76c.55-.55,1.1-19.27,1.1-19.27s1.65-9.36-1.65-13.76-2.75-8.26-2.75-8.26Z"/><path class="cls-3" d="M830.16,506.78s-1.65,32.48-3.86,34.13-8.25,25.33,2.76,22,16-6.61,16-8.81,0-17.62,1.1-20.92,0-9.36-.55-9.91-1.65-16-1.65-16Z"/><path class="cls-3" d="M770.15,315.74s-17.62,50.1-18.72,61.11,1.1,48.45,1.1,48.45-16,84.78-12.66,85.33,18.72,2.76,19.27,0,2.75-6.6,2.2-8.25,1.65-7.71,1.65-11,10.46-40.74,9.91-43.49,9.36-43.49,11-46.8S790,374.65,790,374.65s24.77,67.72,25.32,69.37,2.76,4.4,1.65,5,1.66,4.41,1.66,4.41,9.36,42.94,9.36,44-1.11,9.91,1.1,10.46,16,3.85,17.06,0-6.6-68.27-6.6-68.27-9.36-28.08-6.61-35.23S830.16,354.28,828,351s-2.76-23.12-2.76-23.12Z"/><circle class="cls-2" cx="806.76" cy="205.35" r="17.62"/><path class="cls-5" d="M797.12,227.65s19.82.55,20.93-1.1,28.62,3.85,28.62,14.86-16,54-16,54-6.06,30.83-4.41,34.13-61.11-7.15-59.46-12.66,11-17.62-1.1-28.08-17.06-21.47-17.06-21.47l14.31-38s14.32-2.2,17.62,0S797.12,227.65,797.12,227.65Z"/><path class="cls-5" d="M752.53,270l-3.85-2.75s-35.79-37.44-26.43-44.59,23.12-13.77,29.73-14.32,12.11-5.5,12.11-5.5,7.16-12.67,12.66-4.41,11.57,11,3.86,13.77-12.66,1.65-16.52,4.4-18.72,7.16-12.11,8.81a59.39,59.39,0,0,1,11,3.85L770.15,242Z"/><path class="cls-2" d="M814.74,363.09s-14.31,20.92-3.85,19.82,15.41-15.42,15.41-15.42Z"/><path class="cls-5" d="M842.82,238.66l3.85,2.75s12.67,69.37,0,87.54S832.91,346,832.91,346s-2.2-1.65-3.3,9.36.55,15.41-2.76,15.41-18.16-3.3-17.06-6.05,8.26-18.72,8.81-22.57,3.3-12.67,4.4-17.62-5-7.71-2.2-18.17,6.61-29.18,6.61-33S842.82,238.66,842.82,238.66Z"/><path class="cls-3" d="M823.83,189.66c0,5.93-8.14,10.74-18.17,10.74s-19.27,3.18-19.27-2.75,9.23-18.72,19.27-18.72S823.83,183.73,823.83,189.66Z"/><path class="cls-3" d="M779.4,217.88s-.74,20,19.09,18.85-2.68-17-2.68-17Z"/><rect class="cls-6" x="501.3" y="550.72" width="366" height="252"/><polygon class="cls-6" points="257.9 550.72 257.9 641.72 135.3 641.72 135.3 802.72 518.8 802.72 518.8 550.72 257.9 550.72"/><rect class="cls-4" x="501.3" y="550.72" width="117" height="91"/><rect class="cls-4" x="750.3" y="711.72" width="117" height="91"/><circle class="cls-5" cx="440.8" cy="222.43" r="26"/><path class="cls-7" d="M410.35,389.92H378V550.73H264v-420H378v157.8h33l105.9-157.8h138.6l-152.1,204.9L669,550.73H528.85Z"/><circle class="cls-8" cx="284.45" cy="197.63" r="54.32"/><polygon class="cls-6" points="465.02 498.68 465.87 446.28 501.3 381.46 466 438.06 466.38 414.5 490.81 367.6 466.49 408.27 466.49 408.27 467.17 365.89 493.32 328.55 467.28 359.23 467.71 281.52 465.01 384.39 465.23 380.14 438.64 339.45 464.81 388.29 462.33 435.62 462.25 434.36 431.6 391.53 462.16 438.8 461.85 444.72 461.8 444.81 461.82 445.29 455.54 565.37 463.93 565.37 464.94 503.35 495.42 456.2 465.02 498.68"/><polygon class="cls-8" points="526.8 506.82 540.05 529.77 553.3 552.72 526.8 552.72 500.3 552.72 513.55 529.77 526.8 506.82"/></svg>