<svg xmlns="http://www.w3.org/2000/svg" viewBox="0 0 80 80"><path fill="#326DE6" d="M32.9 59.2c-.9 0-1.8-.4-2.5-1.2l-9.2-11.5c-.6-.8-.8-1.7-.6-2.7l3.3-14.3c.2-.9.8-1.7 1.7-2.1L38.9 21c.4-.2.9-.3 1.4-.3.5 0 .9.1 1.4.3L55 27.4c.9.4 1.5 1.2 1.7 2.1L60 43.9c.2.9 0 1.9-.6 2.7L50.2 58c-.6.7-1.5 1.2-2.5 1.2H32.9z"/><path fill="#FFF" d="M40.3 21.4c.4 0 .7.1 1.1.2L54.7 28c.7.3 1.2 1 1.4 1.7L59.4 44c.2.8 0 1.6-.5 2.2l-9.2 11.5c-.5.6-1.2.9-2 .9H32.9c-.8 0-1.5-.3-2-.9l-9.2-11.5c-.5-.6-.7-1.4-.5-2.2l3.3-14.3c.2-.8.7-1.4 1.4-1.7l13.3-6.4c.3-.1.7-.2 1.1-.2zm0-1.2c-.6 0-1.1.1-1.6.4L25.4 27c-1.1.5-1.8 1.4-2.1 2.6L20 43.8c-.3 1.1 0 2.3.7 3.2l9.2 11.5c.7.9 1.8 1.4 2.9 1.4h14.8c1.1 0 2.2-.5 2.9-1.4L59.8 47c.7-.9 1-2.1.7-3.2l-3.3-14.3c-.3-1.1-1-2.1-2.1-2.6l-13.3-6.4c-.4-.2-1-.3-1.5-.3z"/><path fill="#FFF" d="M53.6 42.9c-.1 0-.2-.1-.2-.1-.2 0-.3-.1-.5-.1h-.3c-.6-.1-1-.1-1.4-.2-.2-.1-.2-.2-.3-.3v-.1l-.3-.1c.2-1.2.1-2.5-.2-3.7-.3-1.2-.8-2.4-1.5-3.5l.3-.2v-.1c0-.1 0-.3.1-.4.3-.3.7-.5 1.2-.8.1-.1.2-.1.2-.1.2-.1.3-.2.4-.3l.1-.1s.1 0 .1-.1c.4-.3.4-.8.2-1.2-.1-.2-.4-.3-.6-.3-.2 0-.4.1-.6.2l-.1.1c-.1 0-.1.1-.1.1-.1.1-.2.2-.3.4l-.2.2c-.4.4-.7.7-1.1.9-.1.1-.2.1-.2.1H48l-.3.2c-.3-.4-.7-.7-1.1-1-1.6-1.2-3.5-2-5.5-2.2v-.3l-.1-.1c-.1-.1-.2-.2-.2-.3 0-.4 0-.9.1-1.4 0-.1 0-.2.1-.3 0-.2.1-.3.1-.5V27c0-.5-.4-.9-.8-.9-.2 0-.4.1-.6.3-.2.2-.2.4-.2.6V27.3c0 .2 0 .3.1.5 0 .1 0 .2.1.3.1.5.1 1 .1 1.4 0 .2-.1.3-.2.3l-.1.1v.3c-.5.1-.9.1-1.4.2-2 .4-3.8 1.5-5.2 3l-.3-.2H32.3c-.1 0-.2 0-.2-.1-.3-.2-.7-.6-1.1-1l-.2-.2c-.1-.1-.2-.2-.3-.4l-.1-.1s-.1 0-.1-.1c-.2-.1-.4-.2-.6-.2-.2 0-.5.1-.6.3-.3.3-.2.9.2 1.2h.1c.1 0 .1.1.1.1.2.1.3.2.4.3.1 0 .2.1.2.1.5.3.9.5 1.2.8.1.1.1.3.1.4v.1l.3.2c-.1.1-.1.1-.1.2-1.3 2.1-1.8 4.5-1.5 7l-.3.1v.1c-.1.1-.1.2-.3.3-.4.1-.9.2-1.4.2h-.3c-.2 0-.3 0-.5.1h-.2-.1c-.5.1-.8.6-.7 1 .1.4.4.6.8.6h.5c.2-.1.3-.1.5-.2.1 0 .2-.1.2-.1.5-.2.9-.3 1.4-.4h.1c.2 0 .3.1.3.1h.1l.4-.1c.6 2 1.8 3.7 3.5 5 .4.3.7.5 1.1.8l-.2.5v.1c.1.1.1.2.1.4-.2.4-.4.8-.7 1.2l-.2.2c-.1.1-.2.3-.3.4l-.1.1v.1c-.2.4-.1.9.3 1.1.1.1.2.1.3.1.3 0 .6-.2.8-.5v-.1c0-.1.1-.1.1-.1.1-.2.1-.3.2-.5 0-.1.1-.2.1-.2.2-.5.3-.9.6-1.3.1-.2.2-.2.3-.2h.1l.2-.3c1.2.4 2.4.7 3.7.7.8 0 1.6-.1 2.3-.3.5-.1.9-.2 1.4-.4l.2.3h.1c.1 0 .2.1.3.2.2.4.4.8.6 1.3 0 .1.1.2.1.2.1.2.1.3.2.5 0 .1.1.1.1.1v.1c.2.3.5.5.8.5.1 0 .2 0 .3-.1.2-.1.3-.3.4-.5.1-.2.1-.4-.1-.7v-.1c0-.1-.1-.1-.1-.1-.1-.2-.2-.3-.3-.4l-.2-.2c-.3-.4-.6-.8-.7-1.2-.1-.2 0-.3 0-.4v-.1l-.1-.3c1.4-.8 2.6-2 3.5-3.4.5-.7.8-1.6 1.1-2.4l.3.1h.1c.1-.1.2-.1.3-.1H51c.4.1.9.2 1.4.4.1 0 .2.1.2.1.2.1.3.1.5.2h.5c.4 0 .7-.3.8-.6 0-.2-.3-.7-.8-.8zm-12.2-1.3l-1.2.6-1.2-.6-.3-1.2.8-1h1.3l.8 1-.2 1.2zm6.9-2.7c.2.9.3 1.8.2 2.7l-4-1.2c-.4-.1-.6-.5-.5-.8 0-.1.1-.2.2-.3l3.2-2.9c.4.7.7 1.5.9 2.5zm-2.2-4.1l-3.5 2.5c-.3.2-.7.1-.9-.2-.1-.1-.1-.2-.1-.3l-.2-4.3c1.7.2 3.4 1 4.7 2.3zm-7.7-2.2c.3-.1.6-.1.8-.2l-.2 4.3c0 .4-.3.7-.7.7-.1 0-.2 0-.3-.1l-3.5-2.5c1.1-1.1 2.4-1.8 3.9-2.2zm-5.2 3.8l3.1 2.8c.3.2.3.7.1 1-.1.1-.2.2-.3.2L32 41.5c-.1-1.8.3-3.6 1.2-5.1zm-.7 7.1l4.2-.7c.3 0 .7.2.7.6v.4l-1.6 3.9c-1.5-1-2.7-2.5-3.3-4.2zm9.6 5.3c-.6.1-1.2.2-1.8.2-.9 0-1.8-.2-2.7-.4l2.1-3.8c.2-.2.6-.3.8-.2l.3.3 2 3.7c-.1 0-.4.1-.7.2zm5.2-3.7c-.7 1.1-1.5 1.9-2.5 2.6l-1.7-4c-.1-.3.1-.7.4-.8.1-.1.2-.1.4-.1l4.2.7c-.2.6-.5 1.1-.8 1.6z"/></svg>