<svg id="b0225cde-a2d2-4693-8ce5-502a1e8a6144" xmlns="http://www.w3.org/2000/svg" viewBox="0 0 1077.38 752.86"><defs><style>.cls-1{fill:#f2f2f2;}.cls-2{fill:#3f3d56;}.cls-3{opacity:0.1;}.cls-10,.cls-3{isolation:isolate;}.cls-4{fill:#2f2e41;}.cls-5{fill:#a0616a;}.cls-6{fill:#d0cde1;}.cls-7{fill:#5333ed;}.cls-8{fill:#ffb9b9;}.cls-9{fill:#ff6584;}.cls-10{opacity:0.05;}</style></defs><title>L</title><circle class="cls-1" cx="356.7" cy="368.94" r="292"/><path class="cls-2" d="M1052.69,594.93a13.67,13.67,0,0,1-.17,2.12c-7.14,43.76-234.46,78.88-513.83,78.88S32,640.81,24.86,597.05a13.67,13.67,0,0,1-.17-2.12c0-.2,0-.41,0-.61s0-.21,0-.32a.49.49,0,0,0,0-.12c0-.45.1-.88.18-1.32,3.26-17.89,43.35-34.33,108.74-47.5,53.48-10.77,123.89-19.36,204.93-24.76,61.5-4.1,129.12-6.37,200.11-6.37,57.12,0,112.06,1.47,163.38,4.17h0q16.11.85,31.74,1.87c71.33,4.62,134.63,11.69,185.63,20.54,31.37,5.45,58.1,11.58,79.19,18.22h0c32.46,10.23,51.6,21.7,53.81,33.83.08.44.14.87.18,1.32a.49.49,0,0,0,0,.12c0,.11,0,.21,0,.32S1052.69,594.73,1052.69,594.93Z"/><ellipse class="cls-3" cx="525.69" cy="648.93" rx="165" ry="24"/><path class="cls-3" d="M998.65,558.73c-5.77,1.65-12.27,3.18-19.4,4.58-29.36,5.78-69.42,9.33-113.53,9.33-49.28,0-93.45-4.43-123.38-11.44-24.84-5.82-39.88-13.39-39.88-21.7,0-7.3,11.64-14.06,31.37-19.53,71.33,4.62,134.63,11.69,185.63,20.54C950.83,546,977.56,552.09,998.65,558.73Z"/><path class="cls-3" d="M556.69,547.68c0,15.13-94.92,27.4-212,27.4s-212-12.27-212-27.4a4.36,4.36,0,0,1,1-2.62c53.48-10.77,123.89-19.36,204.93-24.76h6.11C461.77,520.29,556.69,532.55,556.69,547.68Z"/><path class="cls-3" d="M778.11,587.27c0,48.74-67.94,33.66-151.12,33.66S476.89,636,476.89,587.27s67.93-59.34,151.1-59.34S778.11,538.53,778.11,587.27Z"/><path class="cls-2" d="M778.11,575.27c0,48.74-67.94,33.66-151.12,33.66S476.89,624,476.89,575.27s67.93-59.34,151.1-59.34S778.11,526.53,778.11,575.27Z"/><path class="cls-4" d="M764.23,487.77l3.44,14.17a1,1,0,0,1,0,.48l-15.58,48.67a.88.88,0,0,1-1.11.57.87.87,0,0,1-.61-.74l-2.15-19a1,1,0,0,1,0-.38l14.3-43.87a.89.89,0,0,1,1.12-.57A.9.9,0,0,1,764.23,487.77Z"/><polygon class="cls-1" points="762.97 488.97 766.14 501.12 752.4 545.5 749.23 531.77 762.97 488.97"/><path class="cls-4" d="M693.75,555c.53,1.59,55-.52,55.48-1a11.17,11.17,0,0,0,1.16-2.12c.5-1.05,1-2.11,1-2.11l-2.12-17.11-53.89-1.91s-1.35,14.5-1.62,21.13A16,16,0,0,0,693.75,555Z"/><polygon class="cls-3" points="742.36 534.94 743.42 549.73 719.64 549.73 719.64 534.94 742.36 534.94"/><polygon class="cls-3" points="711.72 539.69 711.86 539.66 711.19 546.03 697.98 546.03 697.98 539.69 711.72 539.69"/><path class="cls-3" d="M693.75,555c.53,1.59,55-.52,55.48-1a11.17,11.17,0,0,0,1.16-2.12H693.72A16,16,0,0,0,693.75,555Z"/><path class="cls-4" d="M609.75,499.54h14.79L661,485.27s25.89-10.57,23.77,9.51-5.81,47-5.81,47-11.62-5.29-18-3.7-2.12-32.23-2.12-32.23-51.78,24.83-56.53,21.66-5.81-25.36-5.81-25.36Z"/><path class="cls-3" d="M609.75,499.54h14.79L661,485.27s25.89-10.57,23.77,9.51-5.81,47-5.81,47-11.62-5.29-18-3.7-2.12-32.23-2.12-32.23-51.78,24.83-56.53,21.66-5.81-25.36-5.81-25.36Z"/><path class="cls-5" d="M633.05,453.21,651,478.93,692.7,513.8s38.57,9,33.28,15.33-37.51-6.35-37.51-6.35-48.08-34.87-49.66-37.51-19-27.47-19-27.47Z"/><path class="cls-3" d="M633.05,453.21,651,478.93,692.7,513.8s38.57,9,33.28,15.33-37.51-6.35-37.51-6.35-48.08-34.87-49.66-37.51-19-27.47-19-27.47Z"/><circle class="cls-5" cx="630.35" cy="401.26" r="23.78"/><path class="cls-5" d="M628.77,422.4s-7.93,13.73-9.51,21.13-23.78-14.79-23.78-14.79l-2.91-7.66s20.87-9.78,19.29-17.7S628.77,422.4,628.77,422.4Z"/><path class="cls-6" d="M622.43,432.44l11.62,22.72s-2.64,11.09-6.87,12.15S605,453.57,605,453.57Z"/><path class="cls-5" d="M633,463.61l21.67,28.53,51.78,38.57s37.51,7.93,29,13.74-32.75-5.29-32.75-5.29-52.31-28-63.41-39.62-31.7-31.18-31.7-31.18Z"/><path class="cls-4" d="M603.93,508l6.34,10,37.84-11.9a29.74,29.74,0,0,1,24.77,3c6.61,4.16,10.84,10.77,1.33,20.54-19,19.55-31.71,9-31.71,9S578.57,568.75,568,554s-11.1-22.19-11.1-22.19S597.59,506.41,603.93,508Z"/><path class="cls-6" d="M683.19,542.86S700.1,554,680,559.24s-34.87-2.11-34.87-2.11-17.44,0-17.44-9,5.81-10,5.81-10l18,2.64S673.15,534.94,683.19,542.86Z"/><path class="cls-4" d="M649.86,395.28a18,18,0,0,0,5,1.79,4.55,4.55,0,0,0,4.59-2,6.27,6.27,0,0,0,.53-2.8c.06-2.9-.15-6-2-8.28-1.17-1.43-2.88-2.33-4.09-3.72a17.46,17.46,0,0,1-2.06-3.38c-2.36-4.43-5.85-8.68-10.7-9.95a23.3,23.3,0,0,0-6.24-.48l-12.2.17a21.49,21.49,0,0,0-5.87.63c-3.93,1.19-6.79,4.5-9.41,7.66a47.53,47.53,0,0,0-5.4,7.44,26.23,26.23,0,0,0-3.1,12.81,12.19,12.19,0,0,0,.44,3.39,19.23,19.23,0,0,0,1.33,2.92c2.29,4.5,3.65,10.11,1.07,14.45,4.48-1.83,8.91-4.23,11.87-8.06,1.32-1.71,2.35-3.72,4.12-5s4.63-1.36,5.76.48a5.11,5.11,0,0,1,.58,2.42,10.9,10.9,0,0,0,.67,4.08,3.06,3.06,0,0,0,3.32,1.9c2.3-.65,2.08-4.18,3.85-5.78,1.35-1.22,3.42-1,5.15-1.54a7.65,7.65,0,0,0,4.39-4.32c.65-1.47.64-5.31,1.88-6.11C644.88,393.06,648.42,394.64,649.86,395.28Z"/><path class="cls-6" d="M590.69,418.57a6.22,6.22,0,0,1,3.26,0c3.39.91,11,3.32,12.63,7,2.11,4.75,9.51,12.15,9.51,12.15s10,10,7.92,16.91-10,14.79-10,14.79,2.12,32.76-8.45,41.21-14.79,2.64-14.79,10.57S558,554,551.63,538.64c0,0,3.17-28.54,2.11-38.57S554.22,428.44,590.69,418.57Z"/><path class="cls-6" d="M607.63,431.91s32.23,23.77,26.42,33.81c0,0-19.55,9.51-23.78,9s-20.6-19-24.83-20.6S579.1,424,607.63,431.91Z"/><path class="cls-7" d="M556.69,586.43H240.49v-420h114v315h202.2Z"/><path class="cls-4" d="M518.5,453.21c-5,1.7-9.55,5.66-10.58,10.85-.47,2.4-.18,4.9-.58,7.32-.93,5.61-5.34,9.9-9.4,13.88s-8.26,8.61-8.55,14.29c-.33,6.22,4.18,12,3.4,18.22-.91,7.18-8.49,11.83-10.36,18.82-1.25,4.67.28,9.7,2.8,13.82,4.81,7.85,13,13.18,21.78,16s18.08,3.46,27.29,3.55c11.21.12,23.38-.84,31.8-8.24a25.5,25.5,0,0,0,8.46-16.59c.8-8.57-2.78-17.42-.31-25.67,1.55-5.19,5.45-9.93,4.87-15.32s-5.17-9-8.33-13.25c-2.94-4-4.73-8.66-6.48-13.29l-6-15.82c-1.18-3.11-2.47-6.38-5.1-8.43-4.91-3.82-12.82-3.07-18.57-2.28C529.31,451.84,523.63,451.48,518.5,453.21Z"/><path class="cls-8" d="M520.38,499.31s2.66,8.63-17.27,18.6,2,20.6,2,20.6l23.25,5.31s23.92-3.32,26.58-7.31,7.3-17.27,6-19.26a31,31,0,0,0-3.33-4s-15.94-2.66-15.28-10S520.38,499.31,520.38,499.31Z"/><path class="cls-3" d="M520.38,499.31s2.66,8.63-17.27,18.6,2,20.6,2,20.6l23.25,5.31s23.92-3.32,26.58-7.31,7.3-17.27,6-19.26a31,31,0,0,0-3.33-4s-15.94-2.66-15.28-10S520.38,499.31,520.38,499.31Z"/><circle class="cls-8" cx="533.33" cy="491.67" r="21.26" transform="translate(-37.42 939.36) rotate(-80.78)"/><path class="cls-9" d="M531,536.51s-25.6-1.87-26.09-19.54c0,0-9.12-1.05-11.78,1.6s-11.29,4.66-11.29,11.3,14.61,26.57,14.61,26.57,8,26.58,4.65,31.23-4,16.61-4,16.61,33.21-2.66,38.53,0,26.57,2.66,27.9,0-1.33-35.88-1.33-35.88,6-8,4.65-17.27l16-18.6s-6-17.94-15.28-17.94c0,0-12.62-3.32-13-1.66S560.91,533.19,531,536.51Z"/><path class="cls-8" d="M471.22,595s6,9.3,21.26,11.29,17.93-3.32,16.6-4.65-17.27-7.31-17.27-7.31l-9.3-7.3Z"/><path class="cls-8" d="M580.17,587,562.9,597s-22.59-1.33-13.95,5.32,24.58,4,24.58,4L588.81,599Z"/><path class="cls-4" d="M493.8,604.28s-15.94,39.2,3.33,45.18,72.41,4.65,84.37-3.33,15.28-18.6,13.29-21.92-15.28-12.62-24.58-13.29S493.8,604.28,493.8,604.28Z"/><path class="cls-10" d="M493.8,604.28s-15.94,39.2,3.33,45.18,72.41,4.65,84.37-3.33,15.28-18.6,13.29-21.92-15.28-12.62-24.58-13.29S493.8,604.28,493.8,604.28Z"/><path class="cls-4" d="M569.07,606.71s56.28-20.37,55.62,4.21-35.88,31.23-35.88,31.23l-10.63,1.33-58.47,2s2-10.63-2.65-12c0,0,15.28-4,15.94-4.65s38.54-14,41.19-14.62,10.63-6,16.61-5.31c0,0,6.65-5.32,14-4l-20.59,1.33Z"/><path class="cls-3" d="M569.07,606.71s56.28-20.37,55.62,4.21-35.88,31.23-35.88,31.23l-10.63,1.33-58.47,2s2-10.63-2.65-12c0,0,15.28-4,15.94-4.65s38.54-14,41.19-14.62,10.63-6,16.61-5.31c0,0,6.65-5.32,14-4l-20.59,1.33Z"/><polygon class="cls-4" points="559.13 610.01 566.22 626.2 609.4 610.92 612.73 602.29 601.43 600.29 578.73 604.28 568.88 606.94 559.13 610.01"/><polygon class="cls-3" points="559.13 610.01 566.22 626.2 609.4 610.92 612.73 602.29 601.43 600.29 578.73 604.28 568.88 606.94 559.13 610.01"/><path class="cls-4" d="M467.23,629.52s12.62,16,27.24,19.94,22.59-1.33,22.59-1.33l-4.65-18.61-2-11.95-8.63-6-17.28-8L463.91,597s-8.64-1.33-8.64,0,8,21.26,8,21.26Z"/><path class="cls-1" d="M482.51,638.16s2.66,19.27,6,20.6,13.29-1.33,15.94-2.66,11.69-7.46,11.69-7.46S484.5,636.83,482.51,638.16Z"/><polygon class="cls-8" points="542.97 640.15 555.59 642.15 554.26 657.43 536.65 653.15 542.97 640.15"/><path class="cls-1" d="M550.88,644.41s-5.92,7,.06,11l4,3.32s13.28,2.65,14.61,4,6.65-2,6.65-2,.66-19.93,0-21.26-8.64-2.66-9.31-1.33-8.63,3.32-13.28,2Z"/><path class="cls-4" d="M497.79,608.93S451.28,581.69,444,591.66s-15.28,23.91,6,34.54,87.69,32.56,87.69,32.56,10-15.28,10-19.27c0,0-35.21-15.94-41.19-17.27s-29.9-16.61-33.22-17.94-8-5.32-8-5.32Z"/><path class="cls-9" d="M484.5,526.55l-2.65,2s-6,15.28-6.65,23.92-8.63,35.21-8,38.53,1.33,6,5.31,9.3c0,0,5.32-12,14.62-10l11.29-41.19Z"/><path class="cls-9" d="M577.51,526.55l5.32,6s3.32,8,3.32,10,6.65,31.23,7.31,32.56,3.32,17.93,0,21.92-9.3,6.64-9.3,6.64,4-14-8.64-14.61l1.33-5.32-12-39.86Z"/><path class="cls-2" d="M485.83,572.29v35a8.42,8.42,0,0,0,8.29,8.42l73.19,1.08a8.42,8.42,0,0,0,8.53-8.09l1.34-35A8.41,8.41,0,0,0,569.1,565h-.2l-74.53-1.08a8.41,8.41,0,0,0-8.54,8.29Z"/><ellipse class="cls-4" cx="534.58" cy="478.66" rx="22.88" ry="12.32"/><circle class="cls-1" cx="530.68" cy="590.66" r="5.31"/></svg>