<?xml version="1.0" encoding="utf-8"?>
<!-- Generator: Adobe Illustrator 21.1.0, SVG Export Plug-In . SVG Version: 6.00 Build 0)  -->
<svg version="1.1" id="Layer_1" xmlns="http://www.w3.org/2000/svg" xmlns:xlink="http://www.w3.org/1999/xlink" x="0px" y="0px"
	 viewBox="0 0 80 80" enable-background="new 0 0 80 80" xml:space="preserve">
<title>icons/services/laravel@2x</title>
<desc>Created with Sketch.</desc>
<g id="SANDBOX">
	<g id="NL_Sandboxes-Box---stacks-logos" transform="translate(-416.000000, -106.000000)">
		<g id="icons_x2F_services_x2F_laravel" transform="translate(400.000000, 90.000000)">
			<rect id="Rectangle-10" x="16" y="16" fill="none" width="80" height="80"/>
			<g id="stack-laravel" transform="translate(16.000000, 16.000000)">
				<path id="Shape" fill="#F35045" d="M46.1,55c0.4,0.5,0.6,0.5,0.9,0.4s15.3-5.2,15.8-5.4c0.5-0.2,0.3-0.3,0.2-0.5
					c-0.1-0.2-5.1-7-5.4-7.4s-0.4-0.3-0.8-0.2L40.8,46C40.8,46,45.7,54.5,46.1,55L46.1,55z"/>
				<path id="Shape_1_" fill="#F35045" d="M64,48.1v-7.9c-1.8,0.5-4.1,1.1-4.9,1.3C60.4,43.3,62.5,46.1,64,48.1L64,48.1z"/>
				<path id="Shape_2_" fill="#F35045" d="M59,31.7c-0.2,0.1-5.7,1-6,1.1c-0.3,0-0.2,0.2-0.1,0.4l4.8,6.6c0,0,5.8-1.4,6.2-1.5
					c0,0,0.1,0,0.1,0v-0.9c-1.1-1.3-4-5-4.2-5.4C59.5,31.5,59.3,31.6,59,31.7L59,31.7z"/>
				<path id="Shape_3_" fill="#F35045" d="M24.9,21.4c1.2-0.1,1.3,0.2,1.8,1l13,21.7L56,40.1c-0.9-1.3-5-7.1-5.4-7.7
					c-0.4-0.6,0-0.9,0.7-1c0.7-0.1,7-1.2,7.5-1.2c0.5-0.1,1-0.3,1.8,0.8c0.4,0.5,2,2.4,3.4,4.2V25c0-2.5-0.9-4.6-2.6-6.4
					S57.5,16,55,16H25c-2.5,0-4.6,0.9-6.4,2.6c-1,1-1.7,2.1-2.2,3.4C19.4,21.8,24.1,21.4,24.9,21.4L24.9,21.4z"/>
				<path id="Shape_4_" fill="#F35045" d="M47.6,57.9c-1.4,0.4-2,0.6-2.9-0.6c-0.7-0.9-4.3-7.5-6.1-10.7c-3.4,0.9-9.5,2.5-11.3,2.9
					c-1.7,0.4-2.5-0.6-2.8-1.3c-0.2-0.4-5.3-11.4-8.5-18.4V55c0,2.5,0.9,4.6,2.6,6.4c1.8,1.8,3.9,2.6,6.4,2.6h30
					c2.5,0,4.6-0.9,6.4-2.6c1.8-1.8,2.6-3.9,2.6-6.4v-3C60.3,53.4,48.5,57.6,47.6,57.9L47.6,57.9z"/>
				<path id="Shape_5_" fill="#F35045" d="M27.3,47c0.5-0.1,9.6-2.3,9.8-2.3c0.2,0,0.3-0.2,0.1-0.5c-0.2-0.4-12.2-21-12.2-21
					c-0.1-0.2-0.1-0.3-0.4-0.2c-0.3,0-7,0.6-8.6,0.7c0,0.3-0.1,0.7-0.1,1c1.6,3.3,10.7,22.1,10.8,22.2C26.8,47,26.8,47.1,27.3,47
					L27.3,47z"/>
			</g>
		</g>
	</g>
</g>
</svg>
