<svg id="Layer_1" data-name="Layer 1" xmlns="http://www.w3.org/2000/svg" viewBox="0 0 596.19 753.72"><defs><style>.cls-1{fill:none;stroke:#fff;}</style></defs><title>left</title><g id="Symbols"><g id="Group-2"><path id="Stroke-17-Copy" class="cls-1" d="M138.18,217.09H.51"/><path id="Stroke-22-Copy" class="cls-1" d="M66.42,218a10.13,10.13,0,0,0-10.11-10.11A10.12,10.12,0,0,0,46.2,218"/><path id="Stroke-22-Copy-4" class="cls-1" d="M119.84,218a10.11,10.11,0,1,0-20.21,0"/><path id="Stroke-23-Copy" class="cls-1" d="M54.87,216.59l13-13"/><path id="Stroke-23-Copy-4" class="cls-1" d="M108.29,216.59l13-13"/><path id="Path-3" class="cls-1" d="M62.09,113H466.24"/><path id="Path-3-Copy" class="cls-1" d="M394.19,165h202"/><circle id="Oval-Copy-2" class="cls-1" cx="225.25" cy="96.74" r="13"/><circle id="Oval-Copy-4" class="cls-1" cx="340.76" cy="330.65" r="13"/><circle id="Oval-Copy-5" class="cls-1" cx="208.75" cy="252.36" r="13"/><circle id="Oval-Copy-8" class="cls-1" cx="347.1" cy="508.9" r="13"/><circle id="Oval-Copy-10" class="cls-1" cx="299.46" cy="441.03" r="13"/><circle id="Oval-Copy-6" class="cls-1" cx="258.46" cy="183.38" r="13"/><circle id="Oval-Copy-9" class="cls-1" cx="299.46" cy="578.2" r="13"/><circle id="Oval-Copy" class="cls-1" cx="163.16" cy="17.33" r="13"/><circle id="Oval-Copy-7" class="cls-1" cx="82.3" cy="278.67" r="13"/><circle id="Oval-Copy-12" class="cls-1" cx="124.18" cy="412.96" r="13"/><circle id="Oval-Copy-13" class="cls-1" cx="189.15" cy="488.04" r="13"/><circle id="Oval-Copy-14" class="cls-1" cx="200.7" cy="612.21" r="13"/><circle id="Oval-Copy-11" class="cls-1" cx="93.85" cy="626.65" r="13"/><path id="Path-4" class="cls-1" d="M162.8,33.49V76"/><rect id="Rectangle" class="cls-1" x="146.33" y="0.5" width="33.65" height="33.65"/><rect id="Rectangle-Copy" class="cls-1" x="65.48" y="261.85" width="33.65" height="33.65"/><rect id="Rectangle-Copy-4" class="cls-1" x="77.03" y="609.83" width="33.65" height="33.65"/><path id="Path-5" class="cls-1" d="M180.49,18.05H378.3"/><circle id="Oval" class="cls-1" cx="407.18" cy="96.74" r="13"/><circle id="Oval-Copy-3" class="cls-1" cx="420.18" cy="148.72" r="13"/><path id="Path-6" class="cls-1" d="M360.25,148.72V306.11"/><rect class="cls-1" x="150.67" y="347.04" width="232.31" height="20.58" rx="10.29"/><path class="cls-1" d="M191.15,244.56a14.5,14.5,0,0,0,3.21,20.25l7.27,5.29a14.5,14.5,0,0,0,20.25-3.21l55.36-76.19A14.5,14.5,0,0,0,274,170.44l-7.27-5.28a14.5,14.5,0,0,0-20.25,3.21Z"/><path id="Combined-Shape" class="cls-1" d="M283.32,451.35l42.1,57.95-42.1,57.95a19,19,0,1,0,30.73,22.32l50.07-68.92a19.57,19.57,0,0,0,0-22.71L314.05,429a19,19,0,0,0-30.73,22.33Z"/><path id="Path-8" class="cls-1" d="M507.23,77.75v72.42"/><path id="Path-9" class="cls-1" d="M349.42,161.72v90.64"/><path id="Path-10" class="cls-1" d="M323.43,423.06,368,484.64"/><path id="Path-10-Copy" class="cls-1" d="M313.1,511.14l-33.91,46.93"/><path id="Path-10-Copy-2" class="cls-1" d="M238,164.6l-44.53,61.58"/><path id="Path-11" class="cls-1" d="M93.13,644V753.72"/><circle class="cls-1" cx="120.64" cy="481.68" r="54.15" transform="translate(-305.26 226.39) rotate(-45)"/><circle id="Oval-Copy-15" class="cls-1" cx="120.81" cy="481.78" r="37.54"/><path id="Path-12" class="cls-1" d="M137.38,430.86l8.9-25.87"/><path id="Path-12-Copy-4" class="cls-1" d="M168.67,457.37l24.59-12"/><path id="Path-12-Copy-2" class="cls-1" d="M171.15,499.07,197,508"/><path id="Path-12-Copy-5" class="cls-1" d="M144.32,529.49l12,24.59"/><path id="Path-12-Copy" class="cls-1" d="M93.42,558.51l8.91-25.87"/><path id="Path-12-Copy-6" class="cls-1" d="M47.33,516.55l24.58-12"/><path id="Path-12-Copy-3" class="cls-1" d="M43.51,455.12,69.37,464"/><path id="Path-12-Copy-7" class="cls-1" d="M85.13,408.15l12,24.58"/><path id="Path-15" class="cls-1" d="M178.31,581.08v92.59"/><path id="Path-13" class="cls-1" d="M120.64,427.54H0"/><path id="Path-16" class="cls-1" d="M120.64,535.83H0"/></g></g></svg>