<svg id="Layer_1" data-name="Layer 1" xmlns="http://www.w3.org/2000/svg" xmlns:xlink="http://www.w3.org/1999/xlink" viewBox="0 0 522.78 464.18"><defs><style>.cls-1{fill:#d83a2e;}.cls-2{fill:#fff;}.cls-3{fill:url(#linear-gradient);}.cls-4{stroke:#fff;stroke-miterlimit:10;stroke-width:3px;fill:url(#linear-gradient-2);}.cls-5{fill:#cfcfcf;}.cls-6{fill:#41c690;}.cls-7{fill:#26555b;}.cls-8{fill:#6eddb3;}.cls-9{fill:#009ff0;}.cls-10{fill:#002b74;}.cls-11{fill:#001736;}.cls-12{fill:#ffca9b;}.cls-13{fill:#006ec5;}.cls-14{fill:none;}.cls-15{fill:#11e7c4;}.cls-16{fill:#00e7c3;}.cls-17,.cls-18{fill:#ddeaf8;isolation:isolate;}.cls-17{opacity:0.2;}.cls-18{font-size:107px;font-family:MarkPro-Hairline, Mark Pro;font-weight:100;}</style><linearGradient id="linear-gradient" x1="450.09" y1="712.86" x2="450.09" y2="1180.12" gradientTransform="matrix(0.99, 0.11, 0.11, -0.99, -55.72, 1275.91)" gradientUnits="userSpaceOnUse"><stop offset="0" stop-color="#5333ed"/><stop offset="1" stop-color="#00004d"/></linearGradient><linearGradient id="linear-gradient-2" x1="485.73" y1="712.88" x2="485.73" y2="1180.14" gradientTransform="matrix(0.99, 0.11, 0.11, -0.99, -55.72, 1275.91)" gradientUnits="userSpaceOnUse"><stop offset="0" stop-color="#5c30f1"/><stop offset="1" stop-color="#00004d"/></linearGradient></defs><title>lettermark2</title><path class="cls-1" d="M655.7,339.94c-.2-4.9,1.5-10.2,5.3-13.3s10.7-2.6,12.3,2.1c-4-20.2-7.7-42.3-1.4-61.2a10.76,10.76,0,0,1,18.2-3.7,18.39,18.39,0,0,1,1.7,2.2c.4-19.1,3.9-40.6,14.5-52.3,8.7-9.6,17.6-7.2,20.8.1a53.2,53.2,0,0,1,3.9,15.7c1,10.7-.7,21.3-2.4,31.9,3.8-6.2,7.9-12.7,14.6-15.7a14.15,14.15,0,0,1,11.9-.1c5.8,2.8,6.6,8.6,6.2,13.9-1.5,22.9-26.2,36.8-29.9,59.4,5.5-1.2,13.2-10.6,19.9-6.5,14.4,8.6-10.1,51.1-20.3,66.8-5.1,7.9-10.5,15.5-16.1,23-7.6,10-7.9,9.7-18.5,2.6C676,391.24,656.7,361.94,655.7,339.94Z" transform="translate(-238.61 -156.66)"/><path class="cls-2" d="M715.4,228.64A1484.27,1484.27,0,0,0,701.1,393a1,1,0,0,0,2,.1,1534.14,1534.14,0,0,1,14.3-164.4c.1-1.2-1.8-1.3-2-.1Z" transform="translate(-238.61 -156.66)"/><path class="cls-2" d="M681.4,276.84q12.15,20.7,24,41.6c.6,1.1,2.4.3,1.8-.8-7.8-14-15.8-27.8-24-41.6-.6-1.1-2.4-.3-1.8.8Z" transform="translate(-238.61 -156.66)"/><path class="cls-2" d="M708.7,298.64c7.5-6.9,14.8-14.1,21.9-21.3,2.7-2.8,5.5-5.5,8.1-8.4.9-.9,2.6-2.3,2.8-3.6s-1.8-1.4-2-.1c0,.2-2.9,3.1-3.7,4-2.8,3-5.7,5.9-8.6,8.8-6.5,6.5-13.1,13-19.8,19.2-.9.8.4,2.3,1.3,1.4Z" transform="translate(-238.61 -156.66)"/><path class="cls-2" d="M671.2,350.64a94.5,94.5,0,0,0,29.8,35.1c1,.7,2.1-.9,1.1-1.6a91.14,91.14,0,0,1-29.1-34.3,1,1,0,1,0-1.8.8Z" transform="translate(-238.61 -156.66)"/><path class="cls-2" d="M703.6,369.54c12.4-9.9,22.1-22.6,32.7-34.3.8-.9-.8-2-1.6-1.1-10.4,11.6-20,24.2-32.3,33.9a1,1,0,0,0,1.2,1.5Z" transform="translate(-238.61 -156.66)"/><path class="cls-3" d="M527,475.34l127.2,42.6,35.8-31.7A104,104,0,0,0,716.4,367L652,219a103.89,103.89,0,0,0-105.2-61.9l-160.6,15.5a103.77,103.77,0,0,0-91.4,80.9L260,411a104,104,0,0,0,48.7,111.9l65.2,38.4,36.6-49.5A104.38,104.38,0,0,1,527,475.34Z" transform="translate(-238.61 -156.66)"/><path class="cls-4" d="M569.2,593.24l85-75.2L527,475.44A103.92,103.92,0,0,0,410.6,512l-36.7,49.5,73.7,43.4A103.87,103.87,0,0,0,569.2,593.24Z" transform="translate(-238.61 -156.66)"/><path class="cls-2" d="M492.1,545.34a32.36,32.36,0,0,0-24.8,27.3s10.2-14.8,23.6-15.2Z" transform="translate(-238.61 -156.66)"/><path class="cls-2" d="M510.6,556.54s6.6,20.4-12.5,34.7c0,0,8.3-16,2.4-28Z" transform="translate(-238.61 -156.66)"/><path class="cls-2" d="M487.5,560.54c1.2-31.1,26.3-50.6,44.8-61-.6,21.2-6.1,52.5-33,68.2Z" transform="translate(-238.61 -156.66)"/><path class="cls-5" d="M532.3,499.54l-38.9,64.6,5.9,3.6C526.3,552,531.8,520.74,532.3,499.54Z" transform="translate(-238.61 -156.66)"/><polygon class="cls-6" points="254.79 407.48 248.89 403.88 247.69 411.28 251.19 413.48 254.79 415.58 260.79 410.98 254.79 407.48"/><circle class="cls-7" cx="278.32" cy="368.29" r="7"/><circle class="cls-6" cx="278.43" cy="368.39" r="4.9"/><circle class="cls-8" cx="280.4" cy="368.28" r="1.8"/><path class="cls-9" d="M569.7,356s-15.1-10.3-21.5-11.7a22.55,22.55,0,0,0-1.4,6.2s20.4,12.3,24.2,15.7Z" transform="translate(-238.61 -156.66)"/><path class="cls-9" d="M593.3,456.94a14.54,14.54,0,0,1-3.7,5.1c-2.8,2.6-4.4,4.7-3.1,5.3s11.6-2.8,14-3.8,4.3-1.1-.3-8.4Z" transform="translate(-238.61 -156.66)"/><path class="cls-10" d="M581.7,402.44s-4.2,30.5,11.6,54.5l6.9-1.9s-11.5-28.2-8.6-44.8l4.1-.6s7.7,20.8,39.3,20.8v-7.5s-31.3.6-30.9-28.2Z" transform="translate(-238.61 -156.66)"/><path class="cls-11" d="M595.7,456.34h0c-14.9-20.2-8.9-54.6-8.9-54.6v-1l-5.2,1.8S577.4,433,593.2,457Z" transform="translate(-238.61 -156.66)"/><path class="cls-11" d="M634.9,427c-23.1,2.2-35.5-16.6-35.5-16.6,1.9-2.8,1.3-7.5,1.3-7.5-1.1,3.2-9.2,7.4-9.2,7.4l4.1-.6s7.7,20.8,39.3,20.8V427Z" transform="translate(-238.61 -156.66)"/><path class="cls-9" d="M579.3,370.34s-8.2,9.2-29.2,17.6l2.4,4.8s18.1-2.4,26.8-12.2c0,0-.1,14.2,2.4,21.9,0,0,19.3-2.2,22.3-7.6,0,0-8.2-22.4-16.7-32.2Z" transform="translate(-238.61 -156.66)"/><circle class="cls-12" cx="339.49" cy="201.88" r="10.4"/><path class="cls-9" d="M634.9,430.44a42.52,42.52,0,0,1,5.7,3.9c2.8,2.3,5,5.7,5.6,3.6s-3.4-12.5-4.2-15c-.5-1.6-7.2,0-7.2,0v7.5Z" transform="translate(-238.61 -156.66)"/><path class="cls-10" d="M567.9,356.14s.8,2.3,5.5,2.3,7.8,1,8.2,3.3c0,0,1.5-2.1,2.4-2s.9,3.9-1.1,4.5l3.1,1.3s4.5-5.7,2.5-12.5c-1.5-5.1-5.4-5.1-5.4-5.1s-4.4-3.2-8.4-1.6-7.8,6.9-9.2,4.3C565.5,350.74,564.9,356.14,567.9,356.14Z" transform="translate(-238.61 -156.66)"/><path class="cls-12" d="M550.1,387.94s-4.3-2.7-6.1-2,3.1,3.2,3.1,3.2a90.73,90.73,0,0,1-7.6,5c-2.5,1.3,6.2,3.7,13-1.4Z" transform="translate(-238.61 -156.66)"/><path class="cls-12" d="M546.8,350.44s-5.8,2.7-6.8,2.1,1.6-2.5,3.7-3.4c0,0-1.4-9.2.2-10.6,3.1-2.7,4.3,5.8,4.3,5.8A40.64,40.64,0,0,0,546.8,350.44Z" transform="translate(-238.61 -156.66)"/><path class="cls-11" d="M567.9,356.14s.8,2.3,5.5,2.3,7.8,1,8.2,3.3c0,0,1.5-2.1,2.4-2s.9,3.9-1.1,4.5l3.1,1.3a16.29,16.29,0,0,0,2.3-4.6,26.76,26.76,0,0,0-.5-4c-.7-2.1-2.4-1.3-5-1.3s-2.4-3.7-2.4-3.7A10.54,10.54,0,0,1,573,355c-3.3-.1-6-2.8-7-4-.2-.1-.3-.3-.5-.6C565.5,350.74,564.9,356.14,567.9,356.14Z" transform="translate(-238.61 -156.66)"/><path class="cls-13" d="M582.1,374s-1.1,1.5-11.6,8.5c-6.2,4.1-13.9,6.5-19.2,7.8l1.2,2.4s18.1-2.4,26.8-12.2c0,0-.1,14.2,2.4,21.9,0,0,2.2-.2,5.2-.8C582.2,389.54,582.1,374,582.1,374Z" transform="translate(-238.61 -156.66)"/><path class="cls-13" d="M595.9,460.34c.6-.8.4-2.4-.2-4.1l-2.5.7a14.54,14.54,0,0,1-3.7,5.1c-2.8,2.6-4.4,4.7-3.1,5.3.4.2,1.5,0,3-.4C591.1,463.44,594.7,462,595.9,460.34Z" transform="translate(-238.61 -156.66)"/><path class="cls-13" d="M646.2,438a9.26,9.26,0,0,0-.5-3.6c-2.5-2.1-5.7-4.9-6.9-5.9a11,11,0,0,0-4-1.4v3.4a42.52,42.52,0,0,1,5.7,3.9C643.4,436.64,645.6,440,646.2,438Z" transform="translate(-238.61 -156.66)"/><path class="cls-14" d="M401.5,381.94l1-3.3a13.32,13.32,0,0,0-1.9.5Z" transform="translate(-238.61 -156.66)"/><path class="cls-14" d="M435.9,373.64v.8c0,5.9,3.9,10.3,9.6,10.3,5.9,0,9.6-4.6,9.6-10.3a6.15,6.15,0,0,0-.1-1.3C448.5,373,442.1,373.24,435.9,373.64Z" transform="translate(-238.61 -156.66)"/><path class="cls-14" d="M386.5,371.44a16.35,16.35,0,0,1,2.2-.2l-1.1-3.3Z" transform="translate(-238.61 -156.66)"/><path class="cls-14" d="M445.4,364.14a9.24,9.24,0,0,0-8.9,6.1c6.3.4,12.4,1,18.2,1.6A9.14,9.14,0,0,0,445.4,364.14Z" transform="translate(-238.61 -156.66)"/><path class="cls-2" d="M366.1,355.84H355.4l6.8,20.1c3.1-.8,6.2-1.5,9.4-2.1Z" transform="translate(-238.61 -156.66)"/><path class="cls-2" d="M401.5,381.94l-.9-2.9c-2.9.7-5.8,1.4-8.5,2.2L396,393h11.5l5.6-16.6c-3.6.6-7.1,1.4-10.5,2.2Z" transform="translate(-238.61 -156.66)"/><path class="cls-2" d="M387.6,367.84l1.1,3.3c3-.3,6-.6,9-.8l-4.7-14.5H382.4l-5.4,17c3.2-.5,6.3-1,9.5-1.4Z" transform="translate(-238.61 -156.66)"/><path class="cls-2" d="M368,393.14h11.4l2.9-8.8c-5.5,1.8-10.6,3.7-15.3,5.6Z" transform="translate(-238.61 -156.66)"/><path class="cls-2" d="M420,355.84H409.5l-4.3,14.1,10.1-.3Z" transform="translate(-238.61 -156.66)"/><path class="cls-2" d="M445.4,364.14a9.4,9.4,0,0,1,9.4,7.7c3.6.4,7.2.9,10.5,1.4-.5-10.6-8.1-18.5-18-18.5a13.46,13.46,0,0,0-10.9,4.9v-22h-10v32.1c3.5.1,6.9.3,10.2.5A9.11,9.11,0,0,1,445.4,364.14Z" transform="translate(-238.61 -156.66)"/><path class="cls-2" d="M455.1,374.44c0,5.7-3.7,10.3-9.6,10.3-5.7,0-9.6-4.4-9.6-10.3v-.8c-3.2.2-6.4.5-9.5.9v18.6h9.8V389a13.63,13.63,0,0,0,11.2,5.1c10.3,0,18.1-8.4,18.1-19.6v-.7c-3.5-.3-6.9-.4-10.4-.5A4,4,0,0,0,455.1,374.44Z" transform="translate(-238.61 -156.66)"/><path class="cls-2" d="M503.4,363.14v-7.4H471.9v8.9h18.2l-9.6,10.8c3.5.5,6.9,1.2,10.5,1.9Z" transform="translate(-238.61 -156.66)"/><path class="cls-2" d="M480.2,375.74l-9,10.1V393h32.7v-9H485.1l5.5-6.3C487.4,377.14,484,376.44,480.2,375.74Z" transform="translate(-238.61 -156.66)"/><rect class="cls-15" x="274.19" y="180.98" width="10" height="55.4"/><rect class="cls-16" x="294.79" y="180.98" width="10" height="55.4"/><path class="cls-17" d="M424.5,249.14a1,1,0,0,0,1-1,.94.94,0,0,0-1-1H409.2v-9.2h15.3a1,1,0,0,0,1-1,.94.94,0,0,0-1-1H409.2v-12.7a1,1,0,0,0-1-1,.94.94,0,0,0-1,1v12.7H363.9v-12.7a1,1,0,0,0-1-1,.94.94,0,0,0-1,1v12.7H346.6a1,1,0,0,0-1,1,.94.94,0,0,0,1,1h15.3v9.2H346.6a1,1,0,0,0-1,1,.94.94,0,0,0,1,1h15.3v30.6H346.6a1,1,0,0,0-1,1,.94.94,0,0,0,1,1h15.3v16.8a1,1,0,0,0,1,1,.94.94,0,0,0,1-1v-16.9h43.3v16.8a1,1,0,0,0,1,1,.94.94,0,0,0,1-1v-16.8h15.3a1,1,0,0,0,1-1,.94.94,0,0,0-1-1H409.2V249h15.3v.1Zm-17.2-11.2v9.2H376.4l3.4-9.2Zm-43.3,0h13.7l-3.4,9.2H364v-9.2Zm9.6,11.2-9.6,26v-26Zm2.1,30.6,2.4-6.9h14.8l2.4,6.9Zm31.6,0h-9.9l-2.8-8.2a1,1,0,0,0-.9-.7H377.5a1,1,0,0,0-.9.7l-2.8,8.2h-9.2l11.3-30.6h8.4l-4.9,14.4a1,1,0,0,0,.1.9.91.91,0,0,0,.8.4h10.6a1.23,1.23,0,0,0,.8-.4,1,1,0,0,0,.1-.9l-4.9-14.4h20.4Zm-21.8-28.5,4,11.6h-8Z" transform="translate(-238.61 -156.66)"/><text class="cls-18" transform="matrix(0.65, -0.76, 0.76, 0.65, 69.04, 342.11)">+</text><path class="cls-2" d="M486.3,567.94s-17.3,32.7-52.7,28.7c0,0,33.6,25,71.3,22.5,0,0-31.7-18.2-11.5-47Z" transform="translate(-238.61 -156.66)"/></svg>