<svg id="Layer_1" data-name="Layer 1" xmlns="http://www.w3.org/2000/svg" xmlns:xlink="http://www.w3.org/1999/xlink" viewBox="0 0 1794.82 1110"><defs><style>.cls-1{fill:none;stroke:#00d7d2;}.cls-2,.cls-3{fill-rule:evenodd;}.cls-2{fill:url(#linear-gradient);}.cls-3{fill:url(#linear-gradient-2);}</style><linearGradient id="linear-gradient" x1="359.16" y1="1094.51" x2="358.19" y2="1094.51" gradientTransform="matrix(440, 0, 0, -1110, -157601, 1215465)" gradientUnits="userSpaceOnUse"><stop offset="0" stop-color="#5951ff" stop-opacity="0"/><stop offset="1" stop-color="#5333ed"/></linearGradient><linearGradient id="linear-gradient-2" x1="360.8" y1="1094.51" x2="359.82" y2="1094.51" gradientTransform="translate(160116 1215465) rotate(180) scale(440 1110)" xlink:href="#linear-gradient"/></defs><title>lines.min</title><path class="cls-1" d="M434,510.21H417.2S3.18,477,3.18,5.54" transform="translate(-1.09 1.62)"/><path class="cls-1" d="M425,514.53H417.2s-414-30.08-414-456.61" transform="translate(-1.09 1.62)"/><path class="cls-1" d="M429,518.85H417.2s-414-26.91-414-408.55" transform="translate(-1.09 1.62)"/><path class="cls-1" d="M439,523.16H417.2s-414-23.74-414-360.48" transform="translate(-1.09 1.62)"/><path class="cls-1" d="M427,527.48H417.2s-414-20.58-414-312.41" transform="translate(-1.09 1.62)"/><path class="cls-1" d="M433,531.8H417.19s-414-17.42-414-264.35" transform="translate(-1.09 1.62)"/><path class="cls-1" d="M424,536.11h-6.8s-414-14.24-414-216.28" transform="translate(-1.09 1.62)"/><path class="cls-1" d="M428,540.43H417.2s-414-11.08-414-168.22" transform="translate(-1.09 1.62)"/><path class="cls-1" d="M435,544.75H417.2s-414-7.92-414-120.16" transform="translate(-1.09 1.62)"/><path class="cls-1" d="M425,549.07h-7.8s-414-4.75-414-72.1" transform="translate(-1.09 1.62)"/><path class="cls-1" d="M429,553.38H417.2s-414-1.58-414-24M422,557.7H417.2s-414,1.58-414,24" transform="translate(-1.09 1.62)"/><path class="cls-1" d="M432,562H417.2s-414,4.75-414,72.09" transform="translate(-1.09 1.62)"/><path class="cls-1" d="M425,566.33H417.2s-414,7.92-414,120.16" transform="translate(-1.09 1.62)"/><path class="cls-1" d="M436,570.65H417.19s-414,11.08-414,168.23" transform="translate(-1.09 1.62)"/><path class="cls-1" d="M421,575h-3.8s-414,14.24-414,216.29" transform="translate(-1.09 1.62)"/><path class="cls-1" d="M425,579.28H417.2s-414,17.42-414,264.36" transform="translate(-1.09 1.62)"/><path class="cls-1" d="M430,583.6H417.2S3.18,604.18,3.18,896" transform="translate(-1.09 1.62)"/><path class="cls-1" d="M422,587.92h-4.8s-414,23.74-414,360.48" transform="translate(-1.09 1.62)"/><path class="cls-1" d="M428,592.24H417.19s-414,26.91-414,408.54" transform="translate(-1.09 1.62)"/><path class="cls-1" d="M432,596.55H417.2s-414,30.08-414,456.61" transform="translate(-1.09 1.62)"/><path class="cls-1" d="M426,600.87h-8.8s-414,33.24-414,504.67" transform="translate(-1.09 1.62)"/><path class="cls-2" d="M1.09-1.62h440v1110H1.09Z" transform="translate(-1.09 1.62)"/><path class="cls-1" d="M1363,510.21h16.83s414-33.24,414-504.67" transform="translate(-1.09 1.62)"/><path class="cls-1" d="M1372,514.53h7.81s414-30.08,414-456.61" transform="translate(-1.09 1.62)"/><path class="cls-1" d="M1368,518.85h11.81s414-26.91,414-408.55" transform="translate(-1.09 1.62)"/><path class="cls-1" d="M1358,523.16h21.81s414-23.74,414-360.48" transform="translate(-1.09 1.62)"/><path class="cls-1" d="M1370,527.48h9.82s414-20.58,414-312.42" transform="translate(-1.09 1.62)"/><path class="cls-1" d="M1364,531.8h15.82s414-17.42,414-264.35" transform="translate(-1.09 1.62)"/><path class="cls-1" d="M1373,536.11h6.81s414-14.24,414-216.28" transform="translate(-1.09 1.62)"/><path class="cls-1" d="M1369,540.43h10.82s414-11.08,414-168.22" transform="translate(-1.09 1.62)"/><path class="cls-1" d="M1362,544.75h17.81s414-7.92,414-120.16" transform="translate(-1.09 1.62)"/><path class="cls-1" d="M1372,549.07h7.81s414-4.75,414-72.1" transform="translate(-1.09 1.62)"/><path class="cls-1" d="M1368,553.38h11.81s414-1.58,414-24M1375,557.7h4.81s414,1.58,414,24" transform="translate(-1.09 1.62)"/><path class="cls-1" d="M1365,562h14.81s414,4.75,414,72.09" transform="translate(-1.09 1.62)"/><path class="cls-1" d="M1372,566.33h7.84s414,7.92,414,120.16" transform="translate(-1.09 1.62)"/><path class="cls-1" d="M1361,570.65h18.8s414,11.08,414,168.23" transform="translate(-1.09 1.62)"/><path class="cls-1" d="M1376,575h3.81s414,14.24,414,216.29" transform="translate(-1.09 1.62)"/><path class="cls-1" d="M1372,579.28h7.82s414,17.42,414,264.36" transform="translate(-1.09 1.62)"/><path class="cls-1" d="M1367,583.6h12.81s414,20.58,414,312.42" transform="translate(-1.09 1.62)"/><path class="cls-1" d="M1375,587.92h4.81s414,23.74,414,360.48" transform="translate(-1.09 1.62)"/><path class="cls-1" d="M1369,592.24h10.8s414,26.91,414,408.54" transform="translate(-1.09 1.62)"/><path class="cls-1" d="M1365,596.55h14.81s414,30.08,414,456.61" transform="translate(-1.09 1.62)"/><path class="cls-1" d="M1371,600.87h8.81s414,33.24,414,504.67" transform="translate(-1.09 1.62)"/><path class="cls-3" d="M1795.91-1.62h-440v1110h440Z" transform="translate(-1.09 1.62)"/></svg>