<?xml version="1.0" encoding="iso-8859-1"?>
<!-- Generator: Adobe Illustrator 19.0.0, SVG Export Plug-In . SVG Version: 6.00 Build 0)  -->
<svg version="1.1" id="Capa_1" xmlns="http://www.w3.org/2000/svg" xmlns:xlink="http://www.w3.org/1999/xlink" x="0px" y="0px"
	 viewBox="0 0 511.999 511.999" style="enable-background:new 0 0 511.999 511.999;" xml:space="preserve">
<path style="fill:#79A1E8;" d="M161.023,323.973C19.286,294.705,14.25,69.611,161.225,63.816
	c139.157-5.487,237.294-92.404,298.905-24.729c85.644,94.073,6.937,140.198-53.116,254.486
	C339.3,422.44,279.17,348.371,161.023,323.973z"/>
<path style="fill:#4B31AA;" d="M418.276,247.212L394.643,133.45c-0.008-0.039-0.026-0.072-0.035-0.11
	c-0.044-0.186-0.102-0.368-0.172-0.547c-0.024-0.06-0.044-0.122-0.071-0.18c-0.094-0.208-0.203-0.41-0.333-0.602
	c-0.034-0.05-0.075-0.094-0.111-0.143c-0.075-0.1-0.146-0.202-0.23-0.297L298.153,25.52c-0.138-0.153-0.288-0.29-0.444-0.418
	c-0.012-0.01-0.021-0.023-0.034-0.033c-0.026-0.02-0.055-0.032-0.081-0.052c-0.165-0.126-0.338-0.238-0.519-0.335
	c-0.044-0.024-0.086-0.051-0.131-0.073c-0.199-0.098-0.407-0.178-0.619-0.242c-0.066-0.02-0.131-0.035-0.198-0.051
	c-0.174-0.043-0.349-0.074-0.528-0.094c-0.054-0.006-0.106-0.016-0.16-0.02c-0.219-0.015-0.439-0.01-0.661,0.011
	c-0.061,0.006-0.12,0.016-0.18,0.025c-0.084,0.012-0.168,0.017-0.252,0.034L116.628,60.808c-0.063,0.013-0.121,0.036-0.182,0.051
	c-0.073,0.018-0.144,0.038-0.215,0.061c-0.179,0.056-0.352,0.125-0.519,0.204c-0.044,0.021-0.089,0.036-0.133,0.059
	c-0.206,0.107-0.399,0.234-0.582,0.374c-0.05,0.038-0.096,0.081-0.145,0.121c-0.15,0.126-0.289,0.262-0.419,0.408
	c-0.025,0.028-0.055,0.048-0.08,0.078L39.271,151.53c-1.066,1.269-1.247,3.06-0.457,4.516c0.79,1.456,2.397,2.287,4.035,2.078
	l159.815-19.645l2.653,2.134c0.002,0.001,0.004,0.003,0.006,0.004c0.002,0.001,0.003,0.003,0.004,0.004
	c0.069,0.055,0.144,0.094,0.216,0.144c0.116,0.081,0.229,0.166,0.352,0.234c0.141,0.078,0.289,0.137,0.437,0.196
	c0.061,0.025,0.119,0.058,0.181,0.08c0.174,0.061,0.352,0.102,0.531,0.138c0.042,0.008,0.082,0.024,0.125,0.031
	c0.223,0.038,0.449,0.058,0.674,0.058l0.001,0c0.001,0,0.001,0,0.001,0c0.024,0,0.048,0,0.071-0.001l0.823-0.014l203.674,110.09
	c0.601,0.325,1.26,0.485,1.917,0.485c0.85,0,1.698-0.269,2.407-0.798C417.994,250.329,418.596,248.747,418.276,247.212z
	 M295.342,34.446l86.436,95.948l-165.434,2.897L295.342,34.446z M285.047,34.414l-77.664,97.177l-1.279-0.691l-79.467-63.919
	L285.047,34.414z M52.035,148.873l65.953-78.502l75.916,61.062L52.035,148.873z M225.161,141.2l162.268-2.841l21.19,102.004
	L225.161,141.2z"/>
<path style="fill:#F7931E;" d="M207.844,113.284h12.094c13.359,0,24.188,10.829,24.188,24.188c0,13.358-10.829,24.188-24.188,24.188
	h-12.094"/>
<circle style="fill:#F9D015;" cx="207.843" cy="137.471" r="24.188"/>
<path style="fill:#4B31AA;" d="M219.937,109.253h-12.094c-15.56,0-28.219,12.659-28.219,28.219s12.659,28.219,28.219,28.219h12.094
	c15.56,0,28.219-12.659,28.219-28.219C248.156,121.912,235.497,109.253,219.937,109.253z M187.687,137.472
	c0-11.115,9.042-20.156,20.156-20.156c11.114,0,20.156,9.042,20.156,20.156c0,11.115-9.042,20.156-20.156,20.156
	C196.729,157.628,187.687,148.586,187.687,137.472z M230.009,154.905c3.786-4.803,6.054-10.856,6.054-17.433
	s-2.268-12.63-6.054-17.433c6.018,3.491,10.085,9.989,10.085,17.433C240.094,144.916,236.027,151.414,230.009,154.905z"/>
<path style="fill:#F7931E;" d="M117.44,40.569h12.094c13.359,0,24.188,10.829,24.188,24.188s-10.829,24.188-24.188,24.188H117.44"/>
<circle style="fill:#F9D015;" cx="117.44" cy="64.757" r="24.188"/>
<path style="fill:#4B31AA;" d="M129.534,36.537H117.44c-15.56,0-28.219,12.659-28.219,28.219s12.659,28.219,28.219,28.219h12.094
	c15.56,0,28.219-12.659,28.219-28.219S145.094,36.537,129.534,36.537z M97.284,64.756c0-11.115,9.042-20.156,20.156-20.156
	s20.156,9.042,20.156,20.156s-9.042,20.156-20.156,20.156S97.284,75.871,97.284,64.756z M139.605,82.189
	c3.786-4.803,6.054-10.856,6.054-17.433s-2.268-12.63-6.054-17.433c6.018,3.491,10.085,9.989,10.085,17.433
	S145.623,78.699,139.605,82.189z"/>
<path style="fill:#F7931E;" d="M42.358,129.935h12.094c13.359,0,24.188,10.829,24.188,24.188s-10.829,24.188-24.188,24.188H42.358"
	/>
<circle style="fill:#F9D015;" cx="42.358" cy="154.123" r="24.188"/>
<path style="fill:#4B31AA;" d="M54.451,125.904H42.358c-15.56,0-28.219,12.659-28.219,28.219s12.659,28.219,28.219,28.219h12.094
	c15.56,0,28.219-12.659,28.219-28.219C82.67,138.563,70.012,125.904,54.451,125.904z M22.201,154.123
	c0-11.115,9.042-20.156,20.156-20.156s20.156,9.042,20.156,20.156s-9.042,20.156-20.156,20.156S22.201,165.238,22.201,154.123z
	 M64.523,171.556c3.786-4.803,6.054-10.856,6.054-17.433s-2.268-12.63-6.054-17.433c6.018,3.491,10.085,9.989,10.085,17.433
	C74.608,161.567,70.541,168.066,64.523,171.556z"/>
<path style="fill:#F7931E;" d="M414.329,223.844h12.094c13.358,0,24.188,10.829,24.188,24.188s-10.829,24.188-24.188,24.188h-12.094
	"/>
<circle style="fill:#F9D015;" cx="414.33" cy="248.031" r="24.188"/>
<path style="fill:#4B31AA;" d="M426.423,219.813h-12.094c-15.56,0-28.219,12.659-28.219,28.219s12.659,28.219,28.219,28.219h12.094
	c15.56,0,28.219-12.659,28.219-28.219S441.983,219.813,426.423,219.813z M394.173,248.031c0-11.115,9.042-20.156,20.156-20.156
	s20.156,9.042,20.156,20.156c0,11.114-9.042,20.156-20.156,20.156C403.214,268.188,394.173,259.146,394.173,248.031z
	 M436.494,265.465c3.786-4.803,6.054-10.857,6.054-17.434c0-6.577-2.268-12.63-6.054-17.434c6.018,3.491,10.085,9.989,10.085,17.434
	S442.512,261.974,436.494,265.465z"/>
<path style="fill:#F7931E;" d="M295.159,4.031h12.094c13.359,0,24.188,10.829,24.188,24.188s-10.829,24.188-24.188,24.188h-12.094"
	/>
<circle style="fill:#F9D015;" cx="295.158" cy="28.22" r="24.188"/>
<path style="fill:#4B31AA;" d="M307.252,0h-12.094c-15.56,0-28.219,12.659-28.219,28.219s12.659,28.219,28.219,28.219h12.094
	c15.56,0,28.219-12.659,28.219-28.219S322.812,0,307.252,0z M275.002,28.219c0-11.115,9.042-20.156,20.156-20.156
	c11.114,0,20.156,9.042,20.156,20.156s-9.042,20.156-20.156,20.156S275.002,39.333,275.002,28.219z M317.323,45.652
	c3.786-4.803,6.054-10.857,6.054-17.434s-2.268-12.63-6.054-17.434c6.018,3.491,10.085,9.989,10.085,17.434
	S323.342,42.162,317.323,45.652z"/>
<g>
	<ellipse style="fill:#473CBA;" cx="160.242" cy="502.692" rx="77.602" ry="9.307"/>
	<ellipse style="fill:#473CBA;" cx="356.346" cy="446.4" rx="65.508" ry="7.055"/>
	<path style="fill:#473CBA;" d="M226.787,219.47v130.802c0,31.446-25.492,56.938-56.938,56.938h0
		c-31.446,0-56.938-25.492-56.938-56.938V219.47H67.318v131.143c0,56.626,45.905,102.531,102.531,102.531h0
		c56.626,0,102.531-45.905,102.531-102.531V219.47H226.787z"/>
</g>
<g>
	<rect x="226.787" y="219.47" style="fill:#F15A24;" width="45.593" height="56.004"/>
	<rect x="67.318" y="219.47" style="fill:#F15A24;" width="45.593" height="56.004"/>
</g>
<g>
	<path style="fill:#FFFFFF;" d="M211.497,219.47v130.802c0,31.446-25.492,56.938-56.938,56.938h0
		c-31.446,0-56.938-25.492-56.938-56.938V219.47H52.027v131.143c0,56.626,45.905,102.531,102.531,102.531h0
		c56.626,0,102.531-45.905,102.531-102.531V219.47H211.497z"/>
	<polygon style="fill:#FFFFFF;" points="211.497,219.47 211.497,264.6 256.627,219.47 	"/>
</g>
<path style="fill:#CFDDF7;" d="M211.497,264.6v85.672c0,31.446-25.492,56.938-56.938,56.938h0c-23.164,0-43.083-13.84-51.976-33.696
	L68.99,407.107c18.35,27.738,49.82,46.037,85.568,46.037h0c56.626,0,102.531-45.905,102.531-102.531V219.47h-0.463L211.497,264.6z"
	/>
<rect x="211.498" y="219.47" style="fill:#F7931E;" width="45.593" height="56.004"/>
<polygon style="fill:#E07E1E;" points="211.497,264.6 211.497,275.474 257.09,275.474 257.09,219.47 256.627,219.47 "/>
<rect x="52.027" y="219.47" style="fill:#F7931E;" width="45.593" height="56.004"/>
<path style="fill:#4B31AA;" d="M169.849,457.175c58.759,0,106.562-47.803,106.562-106.562v-75.138V219.47
	c0-2.226-1.805-4.031-4.031-4.031H257.09H243.48h-5.302h-26.682c-2.226,0-4.031,1.805-4.031,4.031v56.005v74.797
	c0,26.556-19.668,48.597-45.201,52.34c-25.59-3.691-45.322-25.744-45.322-52.34v-74.797V219.47c0-2.226-1.805-4.031-4.031-4.031
	H97.62H80.654H78.94H52.027c-2.226,0-4.031,1.805-4.031,4.031v56.005v75.138c0,58.759,47.804,106.562,106.562,106.562H169.849z
	 M268.349,271.444h-7.228v-47.942h7.228V271.444z M215.528,223.501h37.53v47.942h-37.53V223.501z M132.295,398.25
	c-18.077-8.422-30.643-26.755-30.643-47.978v-70.766h7.228v70.766C108.879,369.732,118.055,387.079,132.295,398.25z
	 M108.879,271.444h-7.228v-47.942h7.228V271.444z M56.059,223.501h22.938h1.892h12.701v47.942H80.116H56.059V223.501z
	 M169.733,409.329c26.539-5.756,45.795-30.675,45.795-59.057v-70.766h29.055h8.475v71.107c0,54.313-44.187,98.499-98.5,98.499
	s-98.5-44.187-98.5-98.499v-71.107h23.537h13.993v70.766c0,33.619,27.351,60.97,60.97,60.97
	C154.559,411.242,158.982,411.661,169.733,409.329z M216.182,437.505c27.177-19.33,44.939-51.076,44.939-86.892v-71.107h7.228
	v71.107C268.349,388.186,247.199,420.902,216.182,437.505z"/>
<path style="fill:#473CBA;" d="M423.993,192.537H314.541c-8.618,0-15.603-6.986-15.603-15.603v-13.376
	c0-6.288-3.21-12.14-8.512-15.52l-15.239-9.714l15.239-9.714c5.302-3.38,8.512-9.232,8.512-15.52V99.832
	c0-8.617,6.986-15.603,15.603-15.603h109.452c8.73,0,15.808,7.077,15.808,15.807l0,76.693
	C439.8,185.46,432.723,192.537,423.993,192.537z"/>
<path style="fill:#FFFFFF;" d="M404.229,192.537H294.777c-8.618,0-15.603-6.986-15.603-15.603v-13.376
	c0-6.288-3.21-12.14-8.512-15.52l-15.239-9.714l15.239-9.714c5.302-3.38,8.512-9.232,8.512-15.52V99.833
	c0-8.617,6.986-15.603,15.603-15.603H404.23c8.73,0,15.808,7.077,15.808,15.807l0,76.693
	C420.037,185.46,412.96,192.537,404.229,192.537z"/>
<path style="fill:#CFDDF7;" d="M404.23,84.229h-7.323L289.525,191.611c1.643,0.588,3.406,0.926,5.252,0.926h109.452
	c8.73,0,15.808-7.077,15.808-15.807l0-76.693C420.038,91.307,412.96,84.229,404.23,84.229z"/>
<path style="fill:#4B31AA;" d="M423.993,80.198H294.778c-10.826,0-19.635,8.808-19.635,19.634v13.258
	c0,4.937-2.485,9.467-6.648,12.12l-15.239,9.714c-1.161,0.74-1.864,2.022-1.864,3.399s0.703,2.659,1.864,3.399l15.24,9.714
	c4.162,2.653,6.647,7.184,6.647,12.12v13.376c0,10.826,8.809,19.634,19.635,19.634h129.215c10.939,0,19.838-8.899,19.838-19.838
	l0.001-76.693C443.832,89.097,434.932,80.198,423.993,80.198z M294.777,188.505c-6.381,0-11.572-5.191-11.572-11.571v-13.376
	c0-7.705-3.88-14.778-10.376-18.919l-9.907-6.315l9.906-6.315c6.498-4.142,10.377-11.214,10.377-18.919V99.832
	c0-6.381,5.192-11.571,11.572-11.571H404.23c6.494,0,11.776,5.282,11.776,11.776v76.693c0,6.494-5.283,11.776-11.777,11.776H294.777
	z M435.769,176.729c0,6.494-5.282,11.776-11.776,11.776h-3.835c2.445-3.298,3.91-7.364,3.91-11.776v-76.693
	c0-4.412-1.465-8.478-3.91-11.776h3.834c6.494,0,11.777,5.282,11.777,11.776L435.769,176.729z"/>
<g>
	<path style="fill:#79A1E8;" d="M392.627,126.542h-81.523c-2.226,0-4.031-1.805-4.031-4.031s1.805-4.031,4.031-4.031h81.523
		c2.226,0,4.031,1.805,4.031,4.031S394.854,126.542,392.627,126.542z"/>
	<path style="fill:#79A1E8;" d="M392.627,142.414h-81.523c-2.226,0-4.031-1.805-4.031-4.031c0-2.226,1.805-4.031,4.031-4.031h81.523
		c2.226,0,4.031,1.805,4.031,4.031C396.659,140.609,394.854,142.414,392.627,142.414z"/>
	<path style="fill:#79A1E8;" d="M392.627,158.286h-81.523c-2.226,0-4.031-1.805-4.031-4.031c0-2.226,1.805-4.031,4.031-4.031h81.523
		c2.226,0,4.031,1.805,4.031,4.031C396.659,156.481,394.854,158.286,392.627,158.286z"/>
</g>
<g>
</g>
<g>
</g>
<g>
</g>
<g>
</g>
<g>
</g>
<g>
</g>
<g>
</g>
<g>
</g>
<g>
</g>
<g>
</g>
<g>
</g>
<g>
</g>
<g>
</g>
<g>
</g>
<g>
</g>
</svg>
