<svg id="Layer_1" data-name="Layer 1" xmlns="http://www.w3.org/2000/svg" xmlns:xlink="http://www.w3.org/1999/xlink" viewBox="0 0 1080.16 1103.02"><defs><style>.cls-1{fill:#fff;}.cls-2{fill:#f3f8ff;}.cls-3{fill:#fffaf8;}.cls-4{fill:#e6efff;}.cls-5{fill:#d9e8ff;}.cls-6{fill:#f3f9ff;}.cls-7{fill:#86b4ff;}.cls-8{fill:#d7e6ff;}.cls-9{fill:#61a1ff;}.cls-10{fill:#b6d4ff;}.cls-11{fill:url(#Yellow);}.cls-12{fill:#5f94ff;}.cls-13{fill:#000036;}.cls-14{fill:url(#Yellow-2);}.cls-15{fill:url(#Yellow-3);}.cls-16{fill:url(#Yellow-4);}.cls-17{fill:url(#Yellow-5);}.cls-18{fill:url(#Yellow-6);}.cls-19{fill:url(#Yellow-7);}.cls-20{fill:url(#Yellow-8);}.cls-21{fill:#ffdad7;}.cls-22{fill:#84b2ff;}.cls-23{fill:#f9c5ce;}.cls-24{fill:url(#linear-gradient);}.cls-25{fill:#f9d015;}.cls-26{fill:#fbb03b;}.cls-27{fill:#eac0b4;}.cls-28{fill:#3f87fc;}.cls-29{fill:url(#Yellow-9);}.cls-30{fill:url(#Yellow-10);}</style><linearGradient id="Yellow" x1="389.6" y1="610.4" x2="679.56" y2="610.4" gradientUnits="userSpaceOnUse"><stop offset="0" stop-color="#fbb03b"/><stop offset="1" stop-color="#f9d015"/></linearGradient><linearGradient id="Yellow-2" x1="1097.8" y1="696.84" x2="1105.35" y2="696.84" gradientTransform="matrix(-1, 0, 0, 1, 1577.51, 23.02)" xlink:href="#Yellow"/><linearGradient id="Yellow-3" x1="1059.92" y1="687.08" x2="1067.47" y2="687.08" gradientTransform="matrix(-1, 0, 0, 1, 1577.51, 23.02)" xlink:href="#Yellow"/><linearGradient id="Yellow-4" x1="1010.88" y1="668.5" x2="1030.56" y2="668.5" gradientTransform="matrix(-1, 0, 0, 1, 1577.43, 0)" xlink:href="#Yellow"/><linearGradient id="Yellow-5" x1="1010.88" y1="695.08" x2="1030.56" y2="695.08" gradientTransform="matrix(-1, 0, 0, 1, 1577.43, 0)" xlink:href="#Yellow"/><linearGradient id="Yellow-6" x1="1009.32" y1="787.91" x2="1016.87" y2="787.91" gradientTransform="matrix(-1, 0, 0, 1, 1577.51, 23.02)" xlink:href="#Yellow"/><linearGradient id="Yellow-7" x1="971.43" y1="790.45" x2="978.98" y2="790.45" gradientTransform="matrix(-1, 0, 0, 1, 1577.51, 23.02)" xlink:href="#Yellow"/><linearGradient id="Yellow-8" x1="933.54" y1="801.51" x2="941.1" y2="801.51" gradientTransform="matrix(-1, 0, 0, 1, 1577.51, 23.02)" xlink:href="#Yellow"/><linearGradient id="linear-gradient" x1="344.57" y1="729.57" x2="407.44" y2="729.57" xlink:href="#Yellow"/><linearGradient id="Yellow-9" x1="664.56" y1="934.52" x2="687.95" y2="934.52" xlink:href="#Yellow"/><linearGradient id="Yellow-10" x1="727.7" y1="938.06" x2="748.47" y2="938.06" xlink:href="#Yellow"/></defs><title>lp-keyword-bg</title><polygon class="cls-1" points="0.08 23.02 0.08 23.02 0.08 23.02 0.08 23.02 0.08 23.02"/><path class="cls-2" d="M1079.39,61.6a201.71,201.71,0,0,0-19-35.44c-11.66-5.15-23.77-11.48-36.39-13s-26.58,3.21-38.26,7.28c-13.25,4.6-20,11.32-26.92,23.29-5.26,9.06-10.11,18.09-16.64,26.23.47,2.27.9,4.55,1.25,6.85C948.29,109.12,937,136.59,917,161a14.67,14.67,0,0,1,.47,3.56c.2,20-11.67,31.28-19.3,48.36-1.72,3.85-7.46,7.18-11.66,6.69-.84-.1-1.89.55-3.06,1.64-6,13.64-17.47,23.75-25.65,35.82a79.87,79.87,0,0,0,2,17.38c1.54,2,3.08,4.14,4.61,6.33.52.75,1.05,1.44,1.57,2.17a103.54,103.54,0,0,1,12.75,6.81,13,13,0,0,1,5.74,14.81c68.07,65.94,154,14.63,185.69,9.21,3.46-6.59,6.9-13.55,9.93-20.71V63.25Z" transform="translate(0.08 23.02)"/><path class="cls-2" d="M802.07,133.66c-1.63-4.27-1.08-9.26,3.2-13.44,8.46-8.26,2.51-15-4.52-22.31-3.69-3.86-7.69-7.4-11.71-10.9-38.81-10.42-91.38-46-122.86-49.66-51.2-6-115.65-3.61-133.2,49.72-16.35,49.67-14.17,84.23-7.07,102.6,28.86,74.72,97.29,22,167.4,34.06,38.39-18.6,75.93-40.21,105.36-70.49.82-.85,1.58-1.72,2.38-2.58A14.92,14.92,0,0,1,802.07,133.66Z" transform="translate(0.08 23.02)"/><path class="cls-2" d="M329.37,211c-26-31.35,5.4-72.36-32-93.21-35.11-19.59-95.87,32.35-129.07,25.58-30-6.12-26.08-75.15-54.65-85.25C72.45,43.55,37.4,68.58,1.08,45.41V292.29c44.79,19.63,87.57-45.09,186.08-11.13,11.46,3.95,42.87,34,83.28,32.7,23.25-.78,46.53-22,56.33-32.29,8.37-8.75,88.37,12.89,88.37-13C415.14,247.88,343.64,228.2,329.37,211Z" transform="translate(0.08 23.02)"/><path class="cls-2" d="M819.35-23a15.5,15.5,0,0,0-15.5,15.5A15.51,15.51,0,0,0,819.35,8,15.51,15.51,0,0,0,834.86-7.52,15.5,15.5,0,0,0,819.35-23Z" transform="translate(0.08 23.02)"/><path class="cls-3" d="M762.88,299a15.5,15.5,0,1,0-12,28.58c7.89,3.32,24.51,3.46,27.83-4.44S770.77,302.27,762.88,299Z" transform="translate(0.08 23.02)"/><path class="cls-2" d="M884.88,363.26a19.42,19.42,0,1,0,19.42,19.42A19.42,19.42,0,0,0,884.88,363.26Z" transform="translate(0.08 23.02)"/><path class="cls-4" d="M994,652.78Q971.61,620.86,946.29,591c-4.29-5.08-11.58-2.59-14.85,1.92q-19.63,27-39.31,54.13-8.75,12.08-17.49,24.11c-4.62,6.35-9.21,12.69-13.83,19-5.48,7.5-6.77,12-15.68,6-12-8.13-21.87-19.22-30.46-30.78C785.35,626,759.92,583.2,736.86,539.67c-4.68-8.75-9.21-17.55-13.67-26.32-11.74-23.14-23.89-46.2-39.9-66.75-6.62-8.5-15.36-21.87-25.73-26-10.15-4.05-15.69,4.73-21,12C614.28,463.24,592,494,571.72,526.06c-11.25,17.8-21.92,35.94-31.64,54.65V940.57h540V806.76A859.66,859.66,0,0,0,994,652.78Z" transform="translate(0.08 23.02)"/><path class="cls-5" d="M723.19,513.35c-11.74-23.14-23.89-46.2-39.9-66.75-6.62-8.5-15.36-21.87-25.73-26-10.15-4.05-15.69,4.73-21,12C614.28,463.24,592,494,571.72,526.06q1,14.27,3.35,28.49c1.14,7.05,11.29,9,15.8,4.16a35.76,35.76,0,0,0,7-11.07q9.1,31.18,15.52,63.12c1.79,9,16.48,9,18.23,0,4-20.65,2.78-42.71,5.24-63.82,3.83,11.36,9.29,21.73,18.66,27.4,4.8,2.92,12.85.43,13.87-5.64l2.41-14.12q6.51,14.94,13,29.86c3.41,7.83,15.23,4.91,17.28-2.24l11.37-39.53c8.15,5.16,19.06,7.94,23.44-3C732.18,530.92,727.65,522.12,723.19,513.35Z" transform="translate(0.08 23.02)"/><path class="cls-5" d="M989.47,654.13a10.53,10.53,0,0,0,4.53-1.35Q971.61,620.86,946.29,591c-4.29-5.08-11.58-2.59-14.85,1.92q-19.63,27-39.31,54.13a9.85,9.85,0,0,0,7.16,3.16q.45,9.67.86,19.36c.41,8.72,9.51,11.5,15.85,6.89q5.5,15.94,11,31.91c1.94,5.62,8.4,9,13.88,5.64a20.89,20.89,0,0,0,10.18-13.85,12.6,12.6,0,0,0,.27-1.78c.13.32.3.62.43,1,3.46,8.1,15,4.59,17.28-2.26q2.6-7.74,5.16-15.48c6.29,3.89,14.12.17,14.74-7.66a41.53,41.53,0,0,0-1-12.21,8.55,8.55,0,0,0,1.7-5.51C989.55,655.53,989.49,654.83,989.47,654.13Z" transform="translate(0.08 23.02)"/><path class="cls-5" d="M857.71,694.6s-51,88.18-63.55,94,11.35-21.15,14.45-28.61-9.69-12.09-15.89-11.57,52.41-52.19,52.41-52.19S849.25,699.24,857.71,694.6Z" transform="translate(0.08 23.02)"/><path class="cls-4" d="M87.16,656q22.4-31.92,47.71-61.78c4.29-5.07,11.58-2.59,14.85,1.92Q169.36,623.2,189,650.28q8.75,12.06,17.49,24.11c4.62,6.34,9.21,12.69,13.83,19,5.48,7.51,6.77,12,15.68,6,12-8.13,21.87-19.23,30.46-30.79,29.32-39.41,54.75-82.21,77.81-125.74,4.68-8.74,9.21-17.55,13.67-26.32,11.74-23.14,23.89-46.2,39.9-66.74,6.62-8.51,15.36-21.87,25.73-26,10.15-4.05,15.69,4.73,21,12,22.27,30.62,44.55,61.43,64.83,93.45,11.25,17.79,21.92,35.94,31.64,54.65V943.79H1.08V810A859.66,859.66,0,0,1,87.16,656Z" transform="translate(0.08 23.02)"/><path class="cls-5" d="M358,516.57c11.74-23.14,23.89-46.2,39.9-66.74,6.62-8.51,15.36-21.87,25.73-26,10.15-4.05,15.69,4.73,21,12,22.27,30.62,44.55,61.43,64.83,93.45q-1,14.25-3.35,28.48c-1.14,7.05-11.29,9-15.8,4.16a35.53,35.53,0,0,1-7-11.07Q474.2,582,467.78,614c-1.79,9-16.48,9-18.23,0-4-20.66-2.78-42.72-5.24-63.83-3.83,11.37-9.29,21.73-18.66,27.4-4.8,2.92-12.85.43-13.87-5.64l-2.41-14.12q-6.51,14.94-13,29.86c-3.41,7.83-15.23,4.92-17.28-2.24l-11.37-39.53c-8.15,5.16-19.06,7.94-23.44-3C349,534.15,353.51,525.34,358,516.57Z" transform="translate(0.08 23.02)"/><path class="cls-5" d="M91.69,657.35A10.53,10.53,0,0,1,87.16,656q22.4-31.92,47.71-61.78c4.29-5.07,11.58-2.59,14.85,1.92Q169.36,623.2,189,650.28a9.84,9.84,0,0,1-7.16,3.15c-.29,6.46-.59,12.91-.86,19.36-.41,8.72-9.51,11.5-15.85,6.89q-5.5,15.95-11,31.91c-1.94,5.62-8.4,9-13.88,5.64a20.89,20.89,0,0,1-10.18-13.85,12.6,12.6,0,0,1-.27-1.78c-.13.33-.3.62-.43,1-3.46,8.1-15,4.59-17.28-2.26q-2.59-7.74-5.16-15.48c-6.29,3.89-14.12.17-14.74-7.66a41.53,41.53,0,0,1,1-12.21,8.55,8.55,0,0,1-1.7-5.51C91.61,658.75,91.67,658.05,91.69,657.35Z" transform="translate(0.08 23.02)"/><path class="cls-5" d="M223.45,697.82S274.4,786,287,791.79s-11.35-21.15-14.45-28.61,9.69-12.1,15.89-11.58S236,699.42,236,699.42,231.91,702.46,223.45,697.82Z" transform="translate(0.08 23.02)"/><path class="cls-6" d="M1026.46,801.49c-9.29,2-54.55,22.92-70.61,35.45-18,14-32.61.73-55.05,3.3-10.5,1.21-18,25.77-33,29.48-14.55-.67-28.79-18.87-35.38-18.9-21.36-.08-30.46,11.29-50.3,16.69-23,6.26-33.67-14.23-54-19.44C689,838,671.41,877.87,647.05,900.42c-13.36,3.64-26.75,7.05-40.74,9.18-4.86.73-9.69,1.51-14.47,2.43-9.34-2-18.68-4.32-27.7-4.86-7.91-.49-17.23,1.13-24.06,5.62v37c22.25,16.25,76,12,93.12,12.18,25.11.21,50.25-.06,75.28-2.11s49-5.4,73.68.57c23.28,5.61,44.93,10.66,69,11,23.73.35,47.58-.26,71.31-.54,50.43-.54,102.36-3.1,149.44-23,2.81-1.19,5.54-2.46,8.13-3.84V803.28A109.1,109.1,0,0,0,1026.46,801.49Z" transform="translate(0.08 23.02)"/><path class="cls-5" d="M1078.19,835c-16.9,3.45-33.88,7.15-49.44,14.9-8.8,4.4-16.33,11.91-25.86,14.74s-20.06.9-29.84,1.09c-34.75.67-61.53,22.41-93.66,32.07C853,905.77,804,894.64,789.1,925.21c-13.5,27.7,35,17.13,68.47,17.32,38.67-1.19,101-5.43,110.73,4.32,12.61,12.58,9.91,72.18,28.81,83s51.89-11.82,60.13-11.31,22.84,17.6,22.84,17.6V834.84A8.66,8.66,0,0,0,1078.19,835Z" transform="translate(0.08 23.02)"/><path class="cls-1" d="M937.34,688.82c-4.67-2-14,2-15.07,1.81-13.79-2.43-.19-15.25,2.86-18.76,8.38-9.64,17.26-18.2,19.2-31.43,1.43-9.67-.81-24.76-9.15-31.29-7.13-5.56-10.64-.19-16.88,3.29-3.83,2.16-11.28,12.23-11.09-6.56,0-3.76,5.86-11.67,7.58-15.5,3.38-7.32,6.16-15,6.92-23.11.08-.87.13-1.76.16-2.65v0c.43-20.31-15-44.9-38.31-36.37-10.45,3.83-18.8,16-24.76,24.76-4.13,6-7.83,12.68-9.4,19.92a24.28,24.28,0,0,0-.32,5.4,121,121,0,0,0,1.8,16.12c-1.89,5.05-3.83,8.18-5.8,9.45V741a106.53,106.53,0,0,0,40.36,12.64c2.06.24,4,.37,6,.43a67,67,0,0,0,8.07-.08c22.74-1.7,49-17.34,49.77-42.69C949.52,702.84,945.82,692.39,937.34,688.82Z" transform="translate(0.08 23.02)"/><path class="cls-1" d="M887.88,658.21c-1-12-2.3-24.07-2.63-36.14-5.88.91-12-.41-17.58-2.74-6.34-2.65-11.77-6.64-17.92-7.57A11,11,0,0,1,842,606c-2.25-.79-4.82-3.39-6.62-4.37-.74-.4-1.43-.82-2.1-1.25a12,12,0,0,1-3.86-2.52c-3.44-2.12-6.65-3.15-11.44.48-8.61,6.53-10.92,21.62-9.44,31.29,2,13.23,11.16,21.79,19.79,31.43,3.15,3.51,17.18,16.33,2.95,18.76-1.11.19-10.71-3.8-15.53-1.81-8.74,3.57-12.56,14-12.28,22.52.78,25.35,27.87,41,51.31,42.69a71.4,71.4,0,0,0,8.33.08c2-.06,4-.19,6.15-.43a114.38,114.38,0,0,0,19.13-3.64c0-.3-.1-.59-.13-.9C885.8,711.67,890,685,887.88,658.21Z" transform="translate(0.08 23.02)"/><path class="cls-7" d="M916.63,705.37c-5.56,8.78-19.22,11.56-29,13.07,1.27,11.91,2.59,23.79,3.78,35.67.11,1.19.25,2.37.35,3.56,1.71,18,2.92,36.1,3,54.19a1281.42,1281.42,0,0,1-.52,133.65c-.08,1.14-21.35.22-19.49-.54,3.46-33.29,10.61-66.1,13.45-99.44,1-11.66,1.35-23.38,1.24-35.07-.7-15.36-2.27-36.07-4-56.78-.45-5.3-.91-10.62-1.37-15.83-12.85-3.29-24.14-10.36-33.43-19.81-1.86-1.89-3.72-3.92-5.56-6v-4.18c2.4,2.94,4.94,5.72,7.48,8.29A69.72,69.72,0,0,0,883.83,735c-3-33.29-6-62.15-6-62.8q0-5.34,0-10.77c-.05,0-.11,0-.16-.06a77.41,77.41,0,0,1-32.59-34.77v-5.08a1.3,1.3,0,0,1,1,.84,74.68,74.68,0,0,0,31.7,35.91c-.25-19.39-.65-39.31,1-59.13a1.31,1.31,0,0,1-.92-.62,52.37,52.37,0,0,1-7.45-18.36c-.08-.41-.16-.84-.24-1.24-.3-1.71,2.29-2.44,2.59-.73.11.54.19,1.08.32,1.59a50.54,50.54,0,0,0,6,15.53c.54-5.76,1.27-11.54,2.27-17.26.54-3.21,1.16-6.45,1.86-9.67.76-3.4,6-1.94,5.22,1.44q-.74,3.32-1.38,6.64c-6.59,34-6,68.34-3.27,102.57a42.65,42.65,0,0,0,25-34.77c.16-1.73,2.86-1.73,2.7,0A45.48,45.48,0,0,1,884,681.86c1,11.31,2.13,22.62,3.34,33.94,8.94-1.41,22.09-4.08,27-11.8C915.25,702.54,917.58,703.89,916.63,705.37Z" transform="translate(0.08 23.02)"/><rect class="cls-1" x="540.16" y="963.62" width="539.84" height="139.4"/><path class="cls-8" d="M540.08,920.47s66.63-5.53,147.72,50.73c29.85,20.7,44.6,42.63,122.28,39.09s104.68,30.85,120.88,36.6,58,3.76,66.15,33.11h-457Z" transform="translate(0.08 23.02)"/><path class="cls-4" d="M1045.08,972.92c-2.62-1.46-8.36.28-9,.1-7.95-2.32.87-9,2.89-10.84,5.54-5.14,11.32-9.6,13.32-17.25,1.46-5.59,1.11-14.62-3.37-19-3.83-3.73-6.25-.79-10.13.85-2.39,1-7.43,6.46-6.11-4.57.27-2.2,4.19-6.49,5.47-8.62a42.83,42.83,0,0,0,5.55-13.15c2.49-12.05-5.06-29.09-19.93-25.41-6.38,1.58-12.07,8.18-16.15,13a34.15,34.15,0,0,0-6.8,11.12c-1.19,3.55-.52,12.74-.52,12.74q-4.3,8.56-7.51,3.65c-.92-.33-1.16-1-2.43-1.38a7.87,7.87,0,0,0-5.23.54c-6.6,3-5.72,11.37-4.38,17.12,1.17,5,3.91,9.25,5.51,14,.27.85,4.34,5.4.18,6.07.08,0-2-3.85-2.22-4.1-3.61-4.11-9.94-4.24-14.13-.9-12.52,10-.46,34,10.91,45.38,11.1,11.12,27.31,16.2,37.59,16.56,13.48.47,29.94-7,32-21.89C1051.33,982,1049.83,975.57,1045.08,972.92Z" transform="translate(0.08 23.02)"/><path class="cls-4" d="M988.19,1025.34c-.41-3.8-3.29-7.47-5.12-10.69l-1.81-3.2c-.1-.31-.23-.6-.32-.91-1-3.37-1.19-7.26-3.51-10.09a6.94,6.94,0,0,0-5.58-2.77,6,6,0,0,0-2.88.87c-1.4.86-2.26,2.41-4.65,1.43s-3.75-2.67-5.64-5.79c-2.84-4.71-8.3-7.46-13.42-4.18s-4.66,10-2.86,15.09a26.56,26.56,0,0,0,4.52,8,27.13,27.13,0,0,0,4,3.85c1.52,1.22,4.57,2.81,2,3.92-1.46.63-2.82-.25-4.44,1a7.56,7.56,0,0,0-2.72,5.5c-.24,5.17,4.75,8.46,8.87,10.37,6.34,2.94,14.61,5.69,21.66,4.08C983,1040.24,989,1032.4,988.19,1025.34Z" transform="translate(0.08 23.02)"/><path class="cls-7" d="M1038.55,940.6a1.73,1.73,0,0,1-.4.35c-7.8,4.4-18.63,3.61-27.3,2.35-3.64,15.74-6.77,31.56-8.21,47.46-.16,1.7-.27,3.4-.37,5.1,10.15-1,24.4-5,31.7-12.36,1.21-1.24,3.13.68,1.91,1.92-8,8.12-22.79,12.12-33.78,13.14-.37,6.67-.46,13.37-.37,20,.35,8,1.26,16,2.35,23.95a219,219,0,0,0,10.69,37.45h-11.13v0c-.83-7.8-1.67-15.63-2.4-23.49-10.18-5.21-17.44-13.45-24-22.49a30.19,30.19,0,0,1-22.25-5c-1.43-1-.08-3.35,1.35-2.35a27.59,27.59,0,0,0,19.17,4.91c-4.42-6.39-8.58-13-13.17-19.28a29.4,29.4,0,0,1-12.42-2.89c-1.57-.72-.19-3.05,1.37-2.32a26.22,26.22,0,0,0,8.86,2.38c-1.19-1.51-2.35-3-3.62-4.51-1.13-1.3.76-3.21,1.92-1.89a141.09,141.09,0,0,1,10.37,13.85,24,24,0,0,0,1.72-11.72c-.16-1.73,2.54-1.7,2.7,0a26.7,26.7,0,0,1-2.64,14.4c8.53,12.87,16.77,26.13,30.32,33.75-1-11.59-1.78-23.22-1.94-34.84a137.88,137.88,0,0,1,.08-14.66.87.87,0,0,1,.11-.32c.18-5.1.45-10.21,1-15.28.16-1.6.38-3.16.56-4.75a1.27,1.27,0,0,1-.43-.16A56.44,56.44,0,0,1,978.45,959c-.75-1.57,1.57-3,2.32-1.38a53.74,53.74,0,0,0,20.34,22.95c1.1-8.45,2.61-16.91,4.37-25.3-4.37-2.78-7.7-5.72-9.72-10.64-.54-1.32-1-2.65-1.46-4-1.35-4.35-2.27-8.94-3.43-13.29a1.36,1.36,0,0,1,2.62-.72c1.22,4.64,2.27,9.36,3.7,13.95,0,0,0,0,0,.06a20.5,20.5,0,0,0,8.85,11.82c.84-3.94,1.76-7.88,2.68-11.82,2.16-9.21,4.48-18.39,6.72-27.54a1.24,1.24,0,0,1-1-.62,32.14,32.14,0,0,1-4.75-16,1.35,1.35,0,0,1,2.7,0,29.43,29.43,0,0,0,3.76,13.45c1-4,1.94-7.94,2.86-11.91.4-1.68,3-1,2.62.73-3.24,13.88-6.89,27.81-10.21,41.85,0,0,0,.08,0,.1,6.19.9,13.85,1.57,20.31-.1a20,20,0,0,0,5-2A1.37,1.37,0,0,1,1038.55,940.6Z" transform="translate(0.08 23.02)"/><path class="cls-9" d="M321.62,894.22a183,183,0,0,0-27.21,47.66,1.9,1.9,0,0,0,1.42,2.29,34.79,34.79,0,0,0,10.24.52c.77-.06,1.74-.53,1.84-1.38a108.86,108.86,0,0,1,17.39-47.6c2.16-2.68,4.37-5.31,6.67-7.88C333.11,886.56,323.75,891,321.62,894.22Z" transform="translate(0.08 23.02)"/><path class="cls-7" d="M282.06,932c.88-9.4,2.91-18.72,3.69-28.12,2.28-27.64,27.67-55.35,26.65-53.56-11.24,19.63-15.52,41.4-17.49,63.52,6-18.81,13.88-37,26.9-51.6,3.33-4.36,16.7-10.85,15.33-9.09A162,162,0,0,0,302.87,944a1.9,1.9,0,0,1-1.87,1.86,26.91,26.91,0,0,1-8.22-1.28,1.86,1.86,0,0,1-3.3-1.12v-.15c-.26-.12-.52-.2-.77-.33a2,2,0,0,1-2.81,1.81C280.85,942.28,281.59,936.87,282.06,932Z" transform="translate(0.08 23.02)"/><path class="cls-9" d="M298.73,936.56c-.76-9.39-2.49-18.71-3.15-28.12-1.94-27.64-23.56-55.35-22.69-53.56,9.57,19.64,13.21,41.4,14.89,63.52-5.11-18.81-11.81-37-22.9-51.6-2.83-4.36-14.22-10.84-13-9.09,17.45,26.18,27.55,57.71,29.18,90.86a1.79,1.79,0,0,0,1.59,1.87,20.1,20.1,0,0,0,7-1.29,1.55,1.55,0,0,0,2.81-1.12v-.15c.22-.12.43-.2.65-.33,0,1.23,1.13,2.54,2.39,1.81C299.75,946.87,299.12,941.46,298.73,936.56Z" transform="translate(0.08 23.02)"/><path class="cls-9" d="M240.07,944.45c.48-7.07,1.57-14.07,2-21.15,1.23-20.77,14.9-41.6,14.35-40.25-6.05,14.76-8.36,31.12-9.42,47.75,3.24-14.14,7.47-27.79,14.49-38.8,1.79-3.27,9-8.15,8.25-6.83-11,19.68-17.42,43.38-18.45,68.31,0,.75-.44,1.4-1,1.4a11,11,0,0,1-4.43-1c-.52.87-1.76.62-1.77-.84V953l-.42-.25c0,.93-.71,1.91-1.51,1.36C239.42,952.2,239.82,948.13,240.07,944.45Z" transform="translate(0.08 23.02)"/><path class="cls-7" d="M282.3,910.18a70.27,70.27,0,0,1,3.07,7.43c1.5,4.41,3.51,11.06,3.81,17.23.57,2.89,1.09,5.8,1.53,8.69a1.78,1.78,0,0,1-.37,1.46,2,2,0,0,1-1.86,2.37,18.25,18.25,0,0,1-6.75-.27,1.93,1.93,0,0,1-1.72-1.48,148.42,148.42,0,0,0-31.13-72C247.39,871.79,276.31,894.58,282.3,910.18Z" transform="translate(0.08 23.02)"/><path class="cls-7" d="M230.05,896.77a189.26,189.26,0,0,1,24.72,48.81,1.87,1.87,0,0,1-1.43,2.22,32.72,32.72,0,0,1-9.83,0c-.73-.11-1.65-.62-1.73-1.47a113.46,113.46,0,0,0-15.3-48.29c-2-2.76-4-5.5-6.17-8.17C219.26,888.58,228.1,893.47,230.05,896.77Z" transform="translate(0.08 23.02)"/><rect class="cls-1" y="963.62" width="541.16" height="139.4"/><path class="cls-8" d="M541.08,920.47S474.29,914.94,393,971.2c-29.91,20.7-44.7,42.63-122.57,39.09s-104.94,30.85-121.18,36.6-58.19,3.76-66.31,33.11H541.08Z" transform="translate(0.08 23.02)"/><path class="cls-4" d="M34.84,972.92c2.63-1.46,8.38.28,9,.1,8-2.32-.88-9-2.9-10.84-5.56-5.14-11.35-9.6-13.36-17.25-1.46-5.59-1.11-14.62,3.38-19,3.84-3.73,6.27-.79,10.16.85,2.4,1,7.45,6.46,6.12-4.57-.26-2.2-4.2-6.49-5.48-8.62a42.85,42.85,0,0,1-5.56-13.15c-2.5-12.05,5.07-29.09,20-25.41,6.39,1.58,12.1,8.18,16.19,13a34,34,0,0,1,6.82,11.12c1.19,3.55.52,12.74.52,12.74q4.32,8.56,7.53,3.65c.93-.33,1.16-1,2.44-1.38a7.91,7.91,0,0,1,5.24.54c6.62,3,5.73,11.37,4.39,17.12-1.18,5-3.92,9.25-5.52,14-.28.85-4.35,5.4-.18,6.07-.08,0,2-3.85,2.22-4.1,3.62-4.11,10-4.24,14.16-.9,12.56,10,.47,34-10.93,45.38-11.13,11.12-27.37,16.2-37.69,16.56-13.51.47-30-7-32.1-21.89C28.58,982,30.08,975.57,34.84,972.92Z" transform="translate(0.08 23.02)"/><path class="cls-4" d="M91.87,1025.34c.42-3.8,3.3-7.47,5.13-10.69l1.82-3.2c.1-.31.23-.6.32-.91,1-3.37,1.19-7.26,3.51-10.09a7,7,0,0,1,5.6-2.77,5.92,5.92,0,0,1,2.88.87c1.42.86,2.27,2.41,4.67,1.43s3.76-2.67,5.65-5.79c2.85-4.71,8.33-7.46,13.45-4.18s4.68,10,2.87,15.09a26.38,26.38,0,0,1-4.53,8,27.2,27.2,0,0,1-4,3.85c-1.52,1.22-4.58,2.81-2,3.92,1.46.63,2.83-.25,4.44,1a7.54,7.54,0,0,1,2.74,5.5c.24,5.17-4.76,8.46-8.9,10.37-6.36,2.94-14.64,5.69-21.71,4.08C97.07,1040.24,91.09,1032.4,91.87,1025.34Z" transform="translate(0.08 23.02)"/><path class="cls-7" d="M41.38,940.6a2,2,0,0,0,.41.35c7.82,4.4,18.68,3.61,27.36,2.35,3.66,15.74,6.8,31.56,8.23,47.46.16,1.7.27,3.4.38,5.1-10.18-1-24.47-5-31.78-12.36-1.21-1.24-3.13.68-1.92,1.92,8,8.12,22.85,12.12,33.86,13.14.38,6.67.46,13.37.38,20-.35,8-1.27,16-2.35,23.95A220,220,0,0,1,65.23,1080H76.38v0c.84-7.8,1.68-15.63,2.41-23.49,10.2-5.21,17.48-13.45,24-22.49a30.31,30.31,0,0,0,22.3-5c1.43-1,.08-3.35-1.35-2.35a27.71,27.71,0,0,1-19.22,4.91c4.44-6.39,8.61-13,13.21-19.28a29.57,29.57,0,0,0,12.45-2.89c1.57-.72.19-3.05-1.38-2.32a26.27,26.27,0,0,1-8.88,2.38c1.19-1.51,2.35-3,3.63-4.51,1.13-1.3-.76-3.21-1.93-1.89a141.26,141.26,0,0,0-10.39,13.85,24,24,0,0,1-1.73-11.72c.16-1.73-2.55-1.7-2.71,0a26.71,26.71,0,0,0,2.65,14.4c-8.55,12.87-16.8,26.13-30.39,33.75,1-11.59,1.79-23.22,2-34.84a137.88,137.88,0,0,0-.08-14.66,1.51,1.51,0,0,0-.11-.32c-.19-5.1-.46-10.21-1-15.28-.17-1.6-.39-3.16-.57-4.75a1.27,1.27,0,0,0,.43-.16A56.42,56.42,0,0,0,101.63,959c.76-1.57-1.57-3-2.33-1.38a53.7,53.7,0,0,1-20.38,22.95c-1.1-8.45-2.62-16.91-4.38-25.3,4.38-2.78,7.71-5.72,9.74-10.64.54-1.32,1-2.65,1.46-4,1.36-4.35,2.28-8.94,3.44-13.29a1.36,1.36,0,0,0-2.62-.72c-1.22,4.64-2.28,9.36-3.71,13.95,0,0,0,0,0,.06a20.46,20.46,0,0,1-8.88,11.82c-.83-3.94-1.75-7.88-2.67-11.82-2.17-9.21-4.5-18.39-6.74-27.54a1.21,1.21,0,0,0,.94-.62,31.84,31.84,0,0,0,4.76-16,1.35,1.35,0,0,0-2.7,0,29.43,29.43,0,0,1-3.76,13.45c-1-4-2-7.94-2.87-11.91-.41-1.68-3-1-2.63.73,3.25,13.88,6.91,27.81,10.23,41.85,0,0,0,.08,0,.1-6.2.9-13.88,1.57-20.35-.1a20.16,20.16,0,0,1-5-2A1.37,1.37,0,0,0,41.38,940.6Z" transform="translate(0.08 23.02)"/><path class="cls-10" d="M679.56,609.76V827.39A11.52,11.52,0,0,1,668,838.91H401.11a11.51,11.51,0,0,1-11.51-11.52V609.76a18.6,18.6,0,0,1,18.6-18.6H661A18.6,18.6,0,0,1,679.56,609.76Z" transform="translate(0.08 23.02)"/><path class="cls-11" d="M679.56,609.76v19.88h-290V609.76a18.6,18.6,0,0,1,18.6-18.6H661A18.6,18.6,0,0,1,679.56,609.76Z" transform="translate(0.08 23.02)"/><path class="cls-1" d="M418.94,610.4a4.58,4.58,0,1,0-4.58,4.58A4.58,4.58,0,0,0,418.94,610.4Z" transform="translate(0.08 23.02)"/><path class="cls-1" d="M440.14,610.4a4.58,4.58,0,1,0-4.58,4.58A4.58,4.58,0,0,0,440.14,610.4Z" transform="translate(0.08 23.02)"/><path class="cls-1" d="M461.35,610.4a4.59,4.59,0,1,0-4.59,4.58A4.58,4.58,0,0,0,461.35,610.4Z" transform="translate(0.08 23.02)"/><path class="cls-1" d="M662.83,610.4a13,13,0,1,0-13,13A13,13,0,0,0,662.83,610.4Z" transform="translate(0.08 23.02)"/><path class="cls-12" d="M655.52,617.11a1,1,0,0,1-.69-.28l-11.34-11.34a1,1,0,0,1,0-1.39,1,1,0,0,1,1.39,0l11.34,11.33a1,1,0,0,1,0,1.4A1,1,0,0,1,655.52,617.11Z" transform="translate(0.08 23.02)"/><path class="cls-12" d="M644.18,617.11a1,1,0,0,1-.69-.28,1,1,0,0,1,0-1.4l11.34-11.33a1,1,0,0,1,1.39,0,1,1,0,0,1,0,1.39l-11.34,11.34A1,1,0,0,1,644.18,617.11Z" transform="translate(0.08 23.02)"/><rect class="cls-1" x="459.52" y="745.48" width="206.17" height="21.25" rx="2.19"/><path class="cls-8" d="M468.54,729.39h0a2.45,2.45,0,0,1,2.45-2.45h30.87a2.45,2.45,0,0,1,2.45,2.45h0a2.45,2.45,0,0,1-2.45,2.45H471A2.45,2.45,0,0,1,468.54,729.39Z" transform="translate(0.08 23.02)"/><path class="cls-8" d="M468.54,736.78h0a2.45,2.45,0,0,1,2.45-2.45h20.7a2.45,2.45,0,0,1,2.45,2.45h0a2.45,2.45,0,0,1-2.45,2.45H471A2.45,2.45,0,0,1,468.54,736.78Z" transform="translate(0.08 23.02)"/><path class="cls-8" d="M508.07,729.39h0a2.45,2.45,0,0,1,2.45-2.45h20.7a2.45,2.45,0,0,1,2.45,2.45h0a2.45,2.45,0,0,1-2.45,2.45h-20.7A2.45,2.45,0,0,1,508.07,729.39Z" transform="translate(0.08 23.02)"/><path class="cls-8" d="M498.19,736.78h0a2.45,2.45,0,0,1,2.45-2.45h11.53a2.45,2.45,0,0,1,2.45,2.45h0a2.45,2.45,0,0,1-2.45,2.45H500.64A2.45,2.45,0,0,1,498.19,736.78Z" transform="translate(0.08 23.02)"/><path class="cls-8" d="M520.21,736.78h0a2.45,2.45,0,0,1,2.45-2.45h11.53a2.45,2.45,0,0,1,2.45,2.45h0a2.45,2.45,0,0,1-2.45,2.45H522.66A2.45,2.45,0,0,1,520.21,736.78Z" transform="translate(0.08 23.02)"/><path class="cls-8" d="M548.46,729.39h0a2.45,2.45,0,0,1,2.45-2.45h30.87a2.45,2.45,0,0,1,2.45,2.45h0a2.45,2.45,0,0,1-2.45,2.45H550.91A2.45,2.45,0,0,1,548.46,729.39Z" transform="translate(0.08 23.02)"/><path class="cls-8" d="M597.8,736.78h0a2.45,2.45,0,0,1,2.45-2.45h30.86a2.45,2.45,0,0,1,2.45,2.45h0a2.45,2.45,0,0,1-2.45,2.45H600.25A2.45,2.45,0,0,1,597.8,736.78Z" transform="translate(0.08 23.02)"/><path class="cls-8" d="M548.46,736.78h0a2.45,2.45,0,0,1,2.45-2.45h20.7a2.45,2.45,0,0,1,2.45,2.45h0a2.45,2.45,0,0,1-2.45,2.45h-20.7A2.45,2.45,0,0,1,548.46,736.78Z" transform="translate(0.08 23.02)"/><path class="cls-8" d="M588,729.39h0a2.45,2.45,0,0,1,2.45-2.45h20.69a2.45,2.45,0,0,1,2.45,2.45h0a2.45,2.45,0,0,1-2.45,2.45H590.44A2.45,2.45,0,0,1,588,729.39Z" transform="translate(0.08 23.02)"/><path class="cls-8" d="M578.11,736.78h0a2.45,2.45,0,0,1,2.45-2.45h11.53a2.45,2.45,0,0,1,2.45,2.45h0a2.45,2.45,0,0,1-2.45,2.45H580.56A2.45,2.45,0,0,1,578.11,736.78Z" transform="translate(0.08 23.02)"/><path class="cls-8" d="M617.35,729.39h0a2.45,2.45,0,0,1,2.44-2.45h11.54a2.45,2.45,0,0,1,2.45,2.45h0a2.45,2.45,0,0,1-2.45,2.45H619.79A2.45,2.45,0,0,1,617.35,729.39Z" transform="translate(0.08 23.02)"/><rect class="cls-1" x="427.39" y="673.35" width="238.3" height="64.71" rx="4.83"/><rect class="cls-13" x="446.9" y="687.84" width="7.55" height="40.84"/><rect class="cls-12" x="459.52" y="701.37" width="7.55" height="27.31"/><rect class="cls-14" x="472.15" y="711.05" width="7.55" height="17.63"/><rect class="cls-12" x="484.78" y="692.92" width="7.55" height="35.76"/><path class="cls-8" d="M572.86,664.8h0a2.45,2.45,0,0,1,2.45-2.45h30.86a2.45,2.45,0,0,1,2.45,2.45h0a2.45,2.45,0,0,1-2.45,2.45H575.31A2.45,2.45,0,0,1,572.86,664.8Z" transform="translate(0.08 23.02)"/><path class="cls-8" d="M572.86,672.19h0a2.45,2.45,0,0,1,2.45-2.45H596a2.45,2.45,0,0,1,2.45,2.45h0a2.45,2.45,0,0,1-2.45,2.45H575.31A2.45,2.45,0,0,1,572.86,672.19Z" transform="translate(0.08 23.02)"/><path class="cls-8" d="M602.5,672.19h0a2.45,2.45,0,0,1,2.45-2.45h11.53a2.45,2.45,0,0,1,2.45,2.45h0a2.45,2.45,0,0,1-2.45,2.45H605A2.45,2.45,0,0,1,602.5,672.19Z" transform="translate(0.08 23.02)"/><path class="cls-8" d="M572.86,691.38h0a2.45,2.45,0,0,1,2.45-2.45h25a2.45,2.45,0,0,1,2.45,2.45h0a2.45,2.45,0,0,1-2.45,2.45h-25A2.45,2.45,0,0,1,572.86,691.38Z" transform="translate(0.08 23.02)"/><path class="cls-8" d="M572.86,698.77h0a2.45,2.45,0,0,1,2.45-2.45H596a2.45,2.45,0,0,1,2.45,2.45h0a2.45,2.45,0,0,1-2.45,2.45H575.31A2.44,2.44,0,0,1,572.86,698.77Z" transform="translate(0.08 23.02)"/><path class="cls-8" d="M612.38,691.38h0a2.45,2.45,0,0,1,2.45-2.45h20.7a2.45,2.45,0,0,1,2.45,2.45h0a2.45,2.45,0,0,1-2.45,2.45h-20.7A2.45,2.45,0,0,1,612.38,691.38Z" transform="translate(0.08 23.02)"/><rect class="cls-13" x="497.41" y="701.37" width="7.55" height="27.31"/><rect class="cls-15" x="510.04" y="691.52" width="7.55" height="37.16"/><rect class="cls-13" x="522.67" y="715.03" width="7.55" height="13.65"/><path class="cls-16" d="M566.55,668.5a9.84,9.84,0,1,0-9.84,9.84A9.84,9.84,0,0,0,566.55,668.5Z" transform="translate(0.08 23.02)"/><path class="cls-17" d="M566.55,695.08a9.84,9.84,0,1,0-9.84,9.84A9.84,9.84,0,0,0,566.55,695.08Z" transform="translate(0.08 23.02)"/><rect class="cls-1" x="541.14" y="776.03" width="122.18" height="64.71" rx="2.19"/><rect class="cls-18" x="560.64" y="790.52" width="7.55" height="40.84"/><rect class="cls-13" x="573.27" y="804.05" width="7.55" height="27.31"/><rect class="cls-12" x="585.9" y="813.73" width="7.55" height="17.63"/><rect class="cls-19" x="598.53" y="795.59" width="7.55" height="35.76"/><rect class="cls-13" x="611.16" y="804.05" width="7.55" height="27.31"/><rect class="cls-12" x="623.79" y="794.2" width="7.55" height="37.16"/><rect class="cls-20" x="636.41" y="817.7" width="7.55" height="13.66"/><rect class="cls-1" x="427.39" y="745.48" width="21.25" height="21.25" rx="2.19"/><path class="cls-13" d="M388.44,640.23s5.89,11.52,4.21,20.92S381.34,674,381.22,680s5.37,11.59,2.5,17.29S350.7,713.45,342,706s-10.67-17.47-5.29-25.19,5.86-12.26,3.69-18.09S338.52,645,347,637.33C356,629.08,372.78,625.2,388.44,640.23Z" transform="translate(0.08 23.02)"/><path class="cls-13" d="M370.93,639.63c5.47,1.07,7.81-7.31,2.32-8.38-14-2.71-31.15,1.14-34.94,17-.69,2.87-.27,5.39-.24,8.27.09,6.13-1.79,8.78-5.15,13.68-4.54,6.62-.35,11.07-.69,17.83a25.9,25.9,0,0,0-3.18,8.32c-1.16,8,7.08,11.13,6,17.31-1.27,7.15-3.66,8.31,1.25,14.74,4.4,5.78,1.7,13.19,10.68,15.22,6.34,1.43,10.7-1.15,15-5.18,3.83-3.56,9.45-5.08,10.14-11.45,1.5-13.67-17.07-27.65-29.67-25.72a3.47,3.47,0,0,0-2.06,1.31l-.56-.43a10.47,10.47,0,0,1-1.25-7,3.68,3.68,0,0,0,1.79-2.65c.14-.71.22-1.39.29-2,1-1.91,2.36-3.72,3.24-5.69,2.84-6.34,3.57-12.79,3.85-19.66a4.31,4.31,0,0,0-.13-1.22,27.65,27.65,0,0,0-.42-6.42C345.4,642.68,357.61,637.05,370.93,639.63Z" transform="translate(0.08 23.02)"/><path class="cls-21" d="M438,690.5s2.59,0,2.25,1.4c0,0,2.08,1.09,1.46,2.18a2.46,2.46,0,0,1,.11,3c-1.16,1.6-3.51,5.56-8.39,6.32,0,0-19,26.75-26,27.69a2.51,2.51,0,0,1-1.31-.18c-4.22-1.47-9.63-11.59-13.24-19.32-2.35-5-3.93-9-3.93-9l13.48-5.53s4,15.08,6.62,20c6.95-5.92,19.21-17.23,19.21-17.23s-1.19-5.47-.48-7.08,5.15-4.69,6.18-5.35.57,2-.65,2.88c-.41.3-2.55,2.61-2.36,3.36s3.81-3.52,6.08-5.69,6.51-5,6.92-4.67c.87.81-3.2,4.12-3.85,4.67A21.58,21.58,0,0,0,438,690.5Z" transform="translate(0.08 23.02)"/><path class="cls-13" d="M396.83,929s9.18,5.21,10.61,10.37-15.27-3.05-15.27-3.05-1.22,3.67-1.95,3.88-2.1-7.67,0-10.8S396.83,929,396.83,929Z" transform="translate(0.08 23.02)"/><path class="cls-21" d="M395.56,919.46l-.16,8.94s6,4.83,4.63,7.11-10.51-4.21-10.51-4.21l-1.47-9.75Z" transform="translate(0.08 23.02)"/><path class="cls-22" d="M406.81,847.12c-2,17.13-8,77.23-8,77.23l-9.08-.39-4.48-.19-3.09-75.15c.59-4.35,2.15-12.33.8-16.52-2.62-8.22-6.58-15.91-10.54-23.22-9.89-18.34-19.78-34.32-8.91-50.39,18.41-27.23,41.3,10.18,41.3,10.18S409,828.38,406.81,847.12Z" transform="translate(0.08 23.02)"/><path class="cls-12" d="M389.73,924l-4.48-.19-3.09-75.15c.59-4.35,2.15-12.33.8-16.52-2.62-8.22-6.58-15.91-10.54-23.22-1.69-18.61-3-31.43-3-31.43h18.65a106.19,106.19,0,0,1,10.12,39.48c.84,13.94-5.27,33.78-5.29,40.4C392.86,864.65,390.42,913.42,389.73,924Z" transform="translate(0.08 23.02)"/><path class="cls-13" d="M352.82,925.5s5.76,8.85,4.66,14.09-12.16-9.73-12.16-9.73-2.77,2.7-3.52,2.55,1.66-7.78,5-9.58S352.82,925.5,352.82,925.5Z" transform="translate(0.08 23.02)"/><path class="cls-21" d="M356.06,916.49l-4.25,7.86s3.1,7,.84,8.45-7.4-8.58-7.4-8.58l3.18-9.33Z" transform="translate(0.08 23.02)"/><path class="cls-22" d="M398.16,770.75s-1.22,46.87-6.41,65c-4.74,16.57-33,86-33,86l-9.09-1.92-4.17-.89,18.95-77.73c1.28-4.22-1.17-10.24-1.82-14.59-2.72-18.26-10.33-33.91-11.68-47.78-.85-8.93.89-17.13,8.18-24.82C381.64,730.13,398.16,770.75,398.16,770.75Z" transform="translate(0.08 23.02)"/><path class="cls-23" d="M406.13,731c-4.22-1.47-9.63-11.59-13.24-19.32.71-5.35,2.5-10.52,6.82-8.33,0,0,3.14,22.57,5.61,26.27A11.74,11.74,0,0,1,406.13,731Z" transform="translate(0.08 23.02)"/><path class="cls-24" d="M407.44,770.49c-3.24,8.32-26.91,9.87-43.34,9.93-9.09,0-16-.39-16-.39s4.7-24.87,6.74-44.25c.91-8.5,1.52-14.38.78-18.22-7.12-1.88-11.07-2.76-11.07-2.76s1.33-1.56,4.09-16.6,14.15-18.7,14.15-18.7,21.64-4.85,34.42,9.55c2.58,2.91,8.45,11.08,8.45,11.08s-7.41,3.91-7.41,4c1.44,3.72,2.33,11.1.38,15.26-1,2.14-1.88,4-2.57,5.7v0a16.2,16.2,0,0,0-1.32,7.6c0,.32.08.68.15,1.1C396.45,742.76,407.44,770.49,407.44,770.49Z" transform="translate(0.08 23.02)"/><path class="cls-21" d="M380.11,679.58s4.73,9.23-.62,9c-5.61-.26-13.87-9.32-13.87-9.32a26.82,26.82,0,0,0,1.49-4.67c.06-.28.11-.52.14-.71-5.86-4.67-7.49-13-7.49-13a17.42,17.42,0,0,1-2.14-4.08,6.84,6.84,0,0,1-.44-2.74c.33-4.21,5.68-.81,5.68-.81l1.41-10.09,6.54-.44,13.7-1.81s7.49,24.44-5,33.66A31.63,31.63,0,0,0,380.11,679.58Z" transform="translate(0.08 23.02)"/><path class="cls-23" d="M368.4,659.24c1.48-2-.39-8.12-.39-8.12l-10.2,3.75s-.11.73-.19,1.92a17.42,17.42,0,0,0,2.14,4.08s1.63,8.32,7.49,13c0,.19-.08.43-.14.71-.15.71-1.49,4.67-1.49,4.67a28.51,28.51,0,0,0,3.6,3.51l1.86-7.88C368.4,670.91,366.92,661.22,368.4,659.24Z" transform="translate(0.08 23.02)"/><path class="cls-23" d="M379.88,642.7l6.41,5.87a34,34,0,0,1,.31,4s-5.73-4.23-7.7-8.93S379.88,642.7,379.88,642.7Z" transform="translate(0.08 23.02)"/><path class="cls-13" d="M394.76,652.44a8.86,8.86,0,0,1-1.58-6.35c.45-3.91-.56-9.69-7.11-10.71-2.36-.37-4.14,1.46-5.38,3.67-5.41-2.21-24-3-26.28-1.29-2.82,2.11-1.33,11.17-5.52,14.23s1.17,29.34,6.71,26.72,4.08-7.19,4.36-10.47,7.72-10.63,13.48-14.43c4.09-2.7,6.38-8,6.41-10.26C379.85,643.55,383.63,650.26,394.76,652.44Z" transform="translate(0.08 23.02)"/><path class="cls-25" d="M398.26,704.11s-6.15-11.85-9.29-14c0,0,6.36,4,10.74,13.22Z" transform="translate(0.08 23.02)"/><path class="cls-12" d="M373.34,836.47c-.24,8.45-20,71.56-23.72,83.38l-4.17-.89,18.95-77.73c1.28-4.22-1.17-10.24-1.82-14.59-2.72-18.26-10.33-33.91-11.68-47.78l9.65-1.41S373.6,827.1,373.34,836.47Z" transform="translate(0.08 23.02)"/><path class="cls-21" d="M385.22,657.51a28.1,28.1,0,0,0,2.84,4.51c1.08,1.1-3.22,2.62-3.22,2.62Z" transform="translate(0.08 23.02)"/><path class="cls-26" d="M364.1,780.42c-9.09,0-16-.39-16-.39s4.7-24.87,6.74-44.25l6.45-17.46c-.24,1.39-2.12,18.47-2.53,30.22C358.43,757.94,362.32,773.72,364.1,780.42Z" transform="translate(0.08 23.02)"/><rect class="cls-8" x="364.72" y="772.58" width="161.1" height="71.6" rx="2.31"/><rect class="cls-1" x="367.97" y="776.55" width="161.1" height="67.63" rx="2.25"/><path class="cls-8" d="M377.55,808.16H517.27s.14-41.82-8.42-40.83-8.13,27.22-14.29,29.68-12.66-21-20.9-20.34c-5.11.41-13.25,16.77-19.16,16.9-7.28.16-12.31-11.32-19-10.31-3.73.57-10.84,13.14-33.6,10.73a22.74,22.74,0,0,0-18.54,6.37A32.74,32.74,0,0,0,377.55,808.16Z" transform="translate(0.08 23.02)"/><path class="cls-12" d="M455.91,764.62H379.17a2.59,2.59,0,0,1-2.59-2.58h0a2.59,2.59,0,0,1,2.59-2.59h76.74a2.58,2.58,0,0,1,2.58,2.59h0A2.58,2.58,0,0,1,455.91,764.62Z" transform="translate(0.08 23.02)"/><path class="cls-13" d="M431.6,772.48H379.17a2.59,2.59,0,0,1-2.59-2.59h0a2.59,2.59,0,0,1,2.59-2.58H431.6a2.59,2.59,0,0,1,2.59,2.58h0A2.59,2.59,0,0,1,431.6,772.48Z" transform="translate(0.08 23.02)"/><path class="cls-21" d="M362.44,718c-8.32-.77-12.42-2.15-16-2.87-3.54,10.78-3.74,33.36-2.58,35.1,1.78,2.66,24.71,29.7,25,30.5,1.33,3.91,7.25,12.35,8.61,12.94.67.3,2.29.51,2.58-.06,0,0,.65,1.72,1.94,1.54.67-.09,1-1.27,1-1.27s1.48,1.31,2.34.93c1-.45-.11-2.3-.47-2.7,0,0,1.69.06,1.36-1.27s-4-4.75-6.5-11.2c-.77-2,4-.15,5.14-1.62s-2.67-1-3.37-1.39-5.67-2.31-7.13-1.91-17.07-26.86-17.07-26.86Z" transform="translate(0.08 23.02)"/><path class="cls-26" d="M366.16,718s2-3.88,2.44-16c.89,1.26,1.21,12.49,0,16.3Z" transform="translate(0.08 23.02)"/><path class="cls-25" d="M394.76,732.69c0,.32.08.68.15,1.1-5.84.2-15-4.22-15-4.22,8.19,1.29,16.2-4.48,16.2-4.48A16.2,16.2,0,0,0,394.76,732.69Z" transform="translate(0.08 23.02)"/><path class="cls-21" d="M370,659.4s-.35-4.88-4.07-3.29c-2.68,1.14-.66,7.19,2.31,6.53A2.22,2.22,0,0,0,370,659.4Z" transform="translate(0.08 23.02)"/><path class="cls-9" d="M472.58,894.22a183.31,183.31,0,0,1,27.14,47.66,1.91,1.91,0,0,1-1.42,2.29,34.67,34.67,0,0,1-10.22.52c-.76-.06-1.73-.53-1.83-1.38a109.06,109.06,0,0,0-17.35-47.6q-3.22-4-6.65-7.88C461.11,886.56,470.45,891,472.58,894.22Z" transform="translate(0.08 23.02)"/><path class="cls-7" d="M512,932c-.89-9.4-2.91-18.72-3.68-28.12-2.28-27.64-27.61-55.35-26.59-53.56,11.21,19.63,15.48,41.4,17.45,63.52-6-18.81-13.85-37-26.84-51.6-3.32-4.36-16.66-10.85-15.29-9.09A162.32,162.32,0,0,1,491.28,944a1.9,1.9,0,0,0,1.86,1.86,26.89,26.89,0,0,0,8.21-1.28,1.85,1.85,0,0,0,3.29-1.12v-.15c.25-.12.51-.2.77-.33a2,2,0,0,0,2.79,1.81C513.24,942.28,512.5,936.87,512,932Z" transform="translate(0.08 23.02)"/><path class="cls-9" d="M495.41,936.56c.75-9.39,2.48-18.71,3.14-28.12,1.94-27.64,23.5-55.35,22.63-53.56-9.55,19.64-13.17,41.4-14.85,63.52,5.1-18.81,11.78-37,22.84-51.6,2.83-4.36,14.19-10.84,13-9.09-17.41,26.18-27.48,57.71-29.11,90.86a1.77,1.77,0,0,1-1.58,1.87,20,20,0,0,1-7-1.29c-.82,1.16-2.77.82-2.8-1.12v-.15c-.21-.12-.43-.2-.65-.33,0,1.23-1.12,2.54-2.38,1.81C494.39,946.87,495,941.46,495.41,936.56Z" transform="translate(0.08 23.02)"/><path class="cls-9" d="M553.92,944.45c-.47-7.07-1.56-14.07-2-21.15-1.23-20.77-14.87-41.6-14.32-40.25,6,14.76,8.34,31.12,9.4,47.75-3.23-14.14-7.46-27.79-14.45-38.8-1.79-3.27-9-8.15-8.23-6.83,11,19.68,17.37,43.38,18.4,68.31,0,.75.44,1.4,1,1.4a10.89,10.89,0,0,0,4.41-1c.53.87,1.76.62,1.78-.84V953c.13-.09.27-.16.41-.25,0,.93.71,1.91,1.51,1.36C554.57,952.2,554.17,948.13,553.92,944.45Z" transform="translate(0.08 23.02)"/><path class="cls-7" d="M511.79,910.18a72.34,72.34,0,0,0-3.05,7.43c-1.5,4.41-3.51,11.06-3.81,17.23-.56,2.89-1.08,5.8-1.53,8.69a1.82,1.82,0,0,0,.38,1.46,2,2,0,0,0,1.85,2.37,18.14,18.14,0,0,0,6.73-.27,1.92,1.92,0,0,0,1.72-1.48,148.58,148.58,0,0,1,31-72C546.63,871.79,517.77,894.58,511.79,910.18Z" transform="translate(0.08 23.02)"/><path class="cls-7" d="M563.92,896.77a189.39,189.39,0,0,0-24.66,48.81,1.87,1.87,0,0,0,1.43,2.22,32.52,32.52,0,0,0,9.8,0c.73-.11,1.65-.62,1.72-1.47a113.7,113.7,0,0,1,15.27-48.29c2-2.76,4-5.5,6.16-8.17C574.69,888.58,565.87,893.47,563.92,896.77Z" transform="translate(0.08 23.02)"/><path class="cls-27" d="M617.87,735c1.57-.76,10.29-.48,8.84-.56s-6-1-5.91-1.36,1.58-.84,4.19-1,8.42.34,8.35.11a10.59,10.59,0,0,0-3.56-.72c-.85,0-4.56-.76-3.69-1.33s5.48-.9,8.18-1.23,6.55,1.79,9.08,3.14a8.65,8.65,0,0,0,4.26,1c2.24,0,5.83-.14,8.44-.31,4.07-.28,2.13,10,2.13,10s-6.47-.9-10.49-1.64a9.32,9.32,0,0,0-5.17.53c-4.89,2-6.51,1.32-9,1-3.13-.36-12-2.43-11.42-2.94.32-.29,3-.26,4.87-.19-2.93-.34-7.81-1.25-7.22-1.84s4.65-.64,6.65-.66C623.55,736.85,616.47,735.68,617.87,735Z" transform="translate(0.08 23.02)"/><path class="cls-28" d="M715.42,706.47c-1.47-5.25-13.63-2.73-22.1,8s-13.2,16.4-16.21,18.06-27.83-1.09-30.32-1.08-2.43,9.65-2.43,9.65,28.38,9.39,36.1,7.22S720.82,725.79,715.42,706.47Z" transform="translate(0.08 23.02)"/><path class="cls-29" d="M682.06,929.6c-.61.34-16.58,3.65-17.47,8.21-.74,3.77,11.43,2.58,18.48,2,3.78-.33,4.9-3.26,4.88-7.06,0-1.67-.9-1.71-1.75-2.77C684.33,927.62,683.43,928.84,682.06,929.6Z" transform="translate(0.08 23.02)"/><path class="cls-21" d="M681,919.07l1,10.53s-10.08,4.16-7.5,5.23c3.85,1.6,13.39-2.11,13.39-2.11l1.15-12.08Z" transform="translate(0.08 23.02)"/><path class="cls-30" d="M740.93,931.3c-.44.54-14,9.52-13.19,14.09.71,3.78,11.57-1.84,17.9-5,3.39-1.71,3.34-4.85,1.91-8.37-.62-1.54-1.46-1.25-2.65-1.92C742.31,928.62,741.92,930.08,740.93,931.3Z" transform="translate(0.08 23.02)"/><path class="cls-21" d="M736.08,921.89l4.85,9.41s-7.83,7.59-5,7.63c4.17.06,11.65-6.92,11.65-6.92l-3.4-11.65Z" transform="translate(0.08 23.02)"/><path class="cls-1" d="M700.8,781.48s-20.11,53.07-21.65,62-3.4,71.87-1.54,79.89h13.57s3.7-57.37,8.63-66.63,23.25-34.15,27.57-41.56S700.8,781.48,700.8,781.48Z" transform="translate(0.08 23.02)"/><path class="cls-4" d="M704.43,785.36s7.08,44.58,4.41,49.09-13.75,19.08-14.77,26.46S688,923.39,688,923.39h3.23s5.21-60.89,8.63-66.63,17.33-23.34,17.33-23.34l-6.66-46.77Z" transform="translate(0.08 23.02)"/><path class="cls-1" d="M706.65,781.05S715,857.9,718.32,867s17.57,57.54,17.57,57.54l11.73-.65s-.16-41.44-4.18-65.4,13.85-70,1-83.27C739,769.53,710.27,771.69,706.65,781.05Z" transform="translate(0.08 23.02)"/><path class="cls-21" d="M690.69,664.32a40.13,40.13,0,0,0,.24,10.12c.44,2.45-2.42,5.18.08,6.36,1.63.76.6,11.4,4,11.89s10.42-.46,13.55-4,12.11-17.21,5.75-23S690.69,664.32,690.69,664.32Z" transform="translate(0.08 23.02)"/><path class="cls-22" d="M724,700.87s6.5,24.77,8,33.89,19,52,19,52-39.4,3.78-54.45.29c0,0,4.14-21.62,2.66-30.74s-9.13-27.19-8.49-34.36c.75-8.32,4.63-18.9,10.56-22.61S724,700.87,724,700.87Z" transform="translate(0.08 23.02)"/><polygon class="cls-22" points="680.27 798.54 622.36 728.25 634.31 718.41 584.49 713.47 580.35 762.86 592.31 753.01 650.22 823.3 680.27 798.54"/><path class="cls-21" d="M695.16,684.29s7.44,11.92,6.18,15c-4.43,10.84,16.45.81,16.45.81S701.17,682.35,695.16,684.29Z" transform="translate(0.08 23.02)"/><path class="cls-28" d="M698.79,744.8s5,9.85,4.4,15.39-4.4,27.26-4.4,27.26l-2.18-.43s5.77-30,1.46-35.14Z" transform="translate(0.08 23.02)"/><path class="cls-28" d="M714.38,726.26A34.43,34.43,0,0,1,716,737.93c-.31,6.15,3.59,10.87,7.79,11.69s12.64-.55,12.64-.55l-2.17-7.76L716,724.18Z" transform="translate(0.08 23.02)"/><path class="cls-21" d="M624,758.44c1.47-.94,10.17-1.67,8.72-1.58s-6.08-.29-6-.67,1.47-1,4-1.49,8.4-.64,8.31-.86a10.58,10.58,0,0,0-3.62-.3c-.84.13-4.62-.23-3.82-.89s5.34-1.53,8-2.17,6.72,1,9.38,2.07a8.74,8.74,0,0,0,4.35.52c2.22-.31,5.78-.81,8.35-1.29,4-.74,3.27,9.7,3.27,9.7s-6.53-.15-10.61-.41a9.32,9.32,0,0,0-5.07,1.11c-4.63,2.52-6.31,2.07-8.84,2.07-3.15,0-12.18-1-11.68-1.6.28-.32,2.91-.6,4.81-.75-3,0-7.9-.34-7.38-1s4.54-1.17,6.53-1.41C629.81,759.62,622.63,759.28,624,758.44Z" transform="translate(0.08 23.02)"/><path class="cls-12" d="M714.31,710.67c-2.78-4.7-13.88.87-19.29,13.47s-8.52,19.25-11,21.62-27.17,6.12-29.58,6.77.15,10,.15,10,29.83,1.75,36.74-2.32S724.5,727.94,714.31,710.67Z" transform="translate(0.08 23.02)"/><path class="cls-4" d="M744.91,828.17s-7,15.32-6.82,20.13L734,850.66l5.47.77,5.47,18S741.55,841.23,744.91,828.17Z" transform="translate(0.08 23.02)"/><path class="cls-23" d="M690.63,666.59a21.65,21.65,0,0,0-.12,3.68s16.28-2.25,17.1.93a17.73,17.73,0,0,1,.22,6.58s6-7.29,4.65-9.19S690.63,666.59,690.63,666.59Z" transform="translate(0.08 23.02)"/><path class="cls-23" d="M709.32,681.7s-5.19,3.71-5.43,6a5.16,5.16,0,0,0,1.05,3.71s-4.53,1.46-5.26,1.23l.53,1.22s5.24-1,5.65-1c0,0,3.54,2.07,4.31,4.64a21.89,21.89,0,0,1,.77,5.44l3.75-1.38Z" transform="translate(0.08 23.02)"/><path class="cls-13" d="M740.7,706.4c-8.62-8.95-10.4-14.28-5.77-24,5.09-10.74-4.46-28.25-17.81-32.83-22-7.54-36.13,10-31.07,15.88,4.69,5.47,18.63.32,22.9,2.81s-1.12,9.57-1.12,9.57,4.64-3.25,5.56.6c.82,3.45-4.07,3.32-4.07,3.32s-5.3,5.67-3.61,8.33,7.8,3.7,8,11-6.78,17.69-.91,22.45c8.27,6.71,1.36,15.27,9.16,20.59,12.44,8.48,24.66-1.57,27.28-13.79C751.21,721.32,747.56,713.51,740.7,706.4Z" transform="translate(0.08 23.02)"/></svg>