<svg xmlns="http://www.w3.org/2000/svg" xmlns:xlink="http://www.w3.org/1999/xlink" viewBox="0 0 1120.11 1160.7"><defs><style>.cls-1{isolation:isolate;}.cls-2{fill:#fffaf8;}.cls-3{fill:#c9eefa;}.cls-4{fill:#e6a749;}.cls-5{fill:#f4bb61;}.cls-6{fill:#d4902b;}.cls-7{fill:#ff6e53;}.cls-8{fill:#ededed;}.cls-9{fill:#ee5f3e;}.cls-10{fill:#42292c;}.cls-11{fill:#65cdfe;}.cls-12,.cls-25,.cls-26{fill:#b42f69;}.cls-13,.cls-14{fill:#063d71;}.cls-13,.cls-20,.cls-21,.cls-22,.cls-23{fill-rule:evenodd;}.cls-15,.cls-23{fill:#021324;}.cls-16{fill:#ffc9b6;}.cls-17{fill:#fdaa8c;}.cls-18{fill:#6477ff;}.cls-19{fill:#4155e5;}.cls-20{fill:#054c90;}.cls-21{fill:#04356e;}.cls-22{fill:#001630;}.cls-24{fill:#1f366d;}.cls-25,.cls-27{mix-blend-mode:screen;}.cls-26{opacity:0.7;mix-blend-mode:multiply;}.cls-28{fill:url(#_ÂÁ_Ï_ÌÌ_È_ËÂÌÚ_9);}.cls-29{fill:#fff;}</style><radialGradient id="_ÂÁ_Ï_ÌÌ_È_ËÂÌÚ_9" cx="383.74" cy="777.88" r="58.9" gradientUnits="userSpaceOnUse"><stop offset="0" stop-color="#fff"/><stop offset="1"/></radialGradient></defs><title>lp-web-wordpress</title><g class="cls-1"><g id="Layer_1" data-name="Layer 1"><path class="cls-2" d="M723.71,39.89c27.87-32.5-5.79-75,34.3-96.66,37.67-20.32,102.84,33.55,138.46,26.52,32.16-6.34,28-77.93,58.63-88.4,44.22-15.1,81.83,10.85,120.79-13.16v256c-48.05,20.36-94-46.77-199.62-11.55-12.3,4.1-46,35.3-89.34,33.91-24.94-.8-49.92-22.84-60.43-33.48-9-9.08-94.81,13.36-94.81-13.47C631.69,78.15,708.4,57.74,723.71,39.89Z" transform="translate(20.05 131.81)"/><path class="cls-2" d="M321.55,95.89c-26.95-32.5,5.6-75-33.16-96.66C252-21.09,189,32.78,154.54,25.75c-31.09-6.34-27-77.93-56.67-88.4C55.11-77.75,18.76-51.8-18.91-75.81v256c46.46,20.36,90.82-46.77,193-11.55,11.88,4.1,44.45,35.3,86.36,33.91,24.11-.8,48.25-22.84,58.42-33.48,8.68-9.08,91.64,13.36,91.64-13.47C410.49,134.15,336.34,113.74,321.55,95.89Z" transform="translate(20.05 131.81)"/><path class="cls-2" d="M829.67-107.59a16.08,16.08,0,0,0-16.08,16.08,16.08,16.08,0,0,0,16.08,16.08,16.08,16.08,0,0,0,16.08-16.08A16.08,16.08,0,0,0,829.67-107.59Z" transform="translate(20.05 131.81)"/><path class="cls-2" d="M771.1,226.31A16.08,16.08,0,1,0,758.64,256c8.18,3.44,25.41,3.58,28.85-4.6S779.29,229.75,771.1,226.31Z" transform="translate(20.05 131.81)"/><path class="cls-3" d="M1047.9,614c-21.85,0-30.52-41.64-36.78-41.64-17,0-36.15,25.84-48.79,37.21s-16.57,42.24-36.18,42.24c-13.53,0-7.84-48.93-40.22-69.87-5.33-3.45-16.57-29.48-21.81-33.06-5.47-3.74-32.54-17.76-36.76-22.87-15.13-18.35-31.29-93.45-55.07-93.45-13.89,0-67.61,90-69.69,90.25-2.64.35-4.24,3-5.51,5.37-5.77,10.65-13.88,21.19-25.56,24.36-7.21,2-14.85.82-22.29,1.47-27,2.33-46.11,26.53-61.54,48.81C575.13,621,560.59,640.59,540,649.18V776.81c6.29,4.75,274.41,16.58,311.49,21.27,42.66,5.38,248.51-13,248.51-13l.1-120.53C1086.83,648.41,1071.36,614,1047.9,614ZM730.3,703.44c-9.83,31-37.36,40.43-66.36,28.33-13.42-5.59-25.14-29.37-39.78-31.62-12.91-2-49.28,17-62,18.52-21.91,2.64,50.37-56.39,70.45-46.28,13.05,6.57,28.78,16.07,43.33,15.76,15-.32,27.8-11.42,42.43-5.81C726.71,685.55,733.3,694,730.3,703.44Zm112.28-97.73c-4.59,2.25-12.85-8.11-14.3-3.26C815,647,808.59,624.6,804.06,612.79c-5-13.08-1.07-27.39-10-38.43-10.54-13-20.88-77.56-7.92-59.73,10.8,14.83-.24,22,36.55,40.72C828.74,558.45,882.55,586.07,842.58,605.71Zm240.85,93.43c-7-4.63-15.42-5.48-22.89-9.16a59.12,59.12,0,0,1-16.84-13.08c-12.81-3.69-26.77-.38-39.21-5.36-13.3-5.33,20.8-7,25.72-14,4.71-6.71-14.13-9.95-12.77-18.14,1.75-10.53-7.23-19.61-2.8-22.42,5.92-3.74,24.15,2.68,24.15,14,0,12.84,10.43,22.59,19.39,32C1068.35,673.76,1094.24,706.27,1083.43,699.14Z" transform="translate(20.05 131.81)"/><path class="cls-3" d="M33.33,614c21.85,0,30.52-41.64,36.77-41.64,17,0,36.14,25.84,48.77,37.21s16.57,42.24,36.17,42.24c13.52,0,7.83-48.93,40.21-69.87,5.32-3.45,16.56-29.48,21.79-33.06,5.47-3.74,32.53-17.76,36.75-22.87,15.13-18.35,31.28-93.45,55-93.45,13.88,0,67.59,90,69.66,90.25,2.65.35,4.24,3,5.51,5.37,5.77,10.65,13.87,21.19,25.55,24.36,7.21,2,14.85.82,22.28,1.47,27,2.33,46.09,26.53,61.52,48.81,12.56,18.15,27.1,37.77,47.73,46.36V776.81c-6.29,4.75-274.31,16.58-311.37,21.27-42.64,5.38-248.41-13-248.41-13l-.11-120.53C-5.58,648.41,9.88,614,33.33,614Zm317.48,89.44c9.83,31,37.34,40.43,66.34,28.33,13.42-5.59,25.12-29.37,39.76-31.62,12.91-2,49.26,17,62,18.52,21.9,2.64-50.36-56.39-70.42-46.28-13,6.57-28.78,16.07-43.32,15.76-15-.32-27.78-11.42-42.41-5.81C354.4,685.55,347.82,694,350.81,703.44ZM238.58,605.71c4.58,2.25,12.84-8.11,14.29-3.26,13.3,44.56,19.68,22.15,24.21,10.34,5-13.08,1.07-27.39,10-38.43,10.54-13,20.88-77.56,7.92-59.73-10.79,14.83.25,22-36.53,40.72C252.41,558.45,198.63,586.07,238.58,605.71ZM-2.18,699.14c7-4.63,15.41-5.48,22.88-9.16A59.26,59.26,0,0,0,37.54,676.9c12.8-3.69,26.76-.38,39.19-5.36,13.29-5.33-20.79-7-25.71-14-4.71-6.71,14.12-9.95,12.76-18.14C62,628.85,71,619.77,66.58,617c-5.91-3.74-24.14,2.68-24.14,14,0,12.84-10.42,22.59-19.38,32C12.89,673.76-13,706.27-2.18,699.14Z" transform="translate(20.05 131.81)"/><path class="cls-4" d="M922.25,765.51c-96.81,46.72-89.34-108.19-190.14-108.19-66.5,0-90.51,57.41-128.1,70-27,9-64-13.95-64-13.95V897.3H1100V770.09s-40.33-20.6-72.43-30.35C988.77,728,951,751.64,922.25,765.51Z" transform="translate(20.05 131.81)"/><path class="cls-5" d="M922.25,847c-96.81,17.84-89.34-41.32-190.14-41.32-66.5,0-90.51,21.93-128.1,26.72-27,3.44-64-5.32-64-5.32V897.3H1100V848.72s-40.33-7.87-72.43-11.6C988.77,832.63,951,841.67,922.25,847Z" transform="translate(20.05 131.81)"/><path class="cls-6" d="M922.25,765.51c-31.92,15.4-52.5,8.88-69.37-6.78,22.28,27.83,43.73,50.13,89.66,32.58,26.58-10.16,79.31-39.19,113.67-28.52,27.89,8.67,43.74,37.35,43.74,37.35v-30s-40.33-20.6-72.43-30.35C988.78,728,951,751.64,922.25,765.51Z" transform="translate(20.05 131.81)"/><path class="cls-6" d="M732.11,657.32c-66.5,0-90.51,57.41-128.1,70-27,9-64-13.95-64-13.95v16.94s43.45,22.64,74.43,15.92c42.3-9.18,68.77-57.94,140-53.54,35.76,2.21,58.13,19.23,76.07,38.94C807.1,698.18,783.88,657.32,732.11,657.32Z" transform="translate(20.05 131.81)"/><path class="cls-6" d="M851.17,703.06c-2.08-7.56-7.12-8.29-7.33-3.41-.24,5.62-1.46,15.15,8.54,20.83s14.37-.57,14.32-5.36S853.24,710.62,851.17,703.06Z" transform="translate(20.05 131.81)"/><path class="cls-6" d="M834,678a5.08,5.08,0,1,0,2.45,6.74A5.08,5.08,0,0,0,834,678Z" transform="translate(20.05 131.81)"/><path class="cls-4" d="M158,754.31c97,46.72,89.54-108.19,190.57-108.19,66.65,0,90.71,57.41,128.39,70,27,9,64.09-14,64.09-14v184H-20V758.89s40.41-20.6,72.58-30.35C91.37,716.77,129.24,740.44,158,754.31Z" transform="translate(20.05 131.81)"/><path class="cls-5" d="M158,835.77c97,17.84,89.54-41.32,190.57-41.32,66.65,0,90.71,21.93,128.39,26.72,27,3.44,64.09-5.32,64.09-5.32V886.1H-20V837.52s40.41-7.87,72.58-11.6C91.37,821.43,129.24,830.47,158,835.77Z" transform="translate(20.05 131.81)"/><path class="cls-6" d="M158,754.31c32,15.4,52.62,8.88,69.52-6.78-22.33,27.83-43.83,50.13-89.85,32.58C111.07,770,58.22,740.92,23.78,751.59-4.17,760.26-20,788.94-20,788.94V758.89s40.41-20.6,72.58-30.35C91.36,716.77,129.24,740.44,158,754.31Z" transform="translate(20.05 131.81)"/><path class="cls-6" d="M348.61,646.12c66.65,0,90.71,57.41,128.39,70,27,9,64.09-14,64.09-14v16.94S497.55,741.73,466.51,735c-42.4-9.18-68.93-57.94-140.32-53.54-35.84,2.21-58.26,19.23-76.24,38.94C273.45,687,296.72,646.12,348.61,646.12Z" transform="translate(20.05 131.81)"/><path class="cls-6" d="M229.28,691.86c2.08-7.56,7.13-8.29,7.35-3.41.24,5.62,1.46,15.15-8.56,20.83s-14.41-.57-14.36-5.36S227.2,699.42,229.28,691.86Z" transform="translate(20.05 131.81)"/><path class="cls-6" d="M246.45,666.84a5.08,5.08,0,1,1-2.46,6.74A5.1,5.1,0,0,1,246.45,666.84Z" transform="translate(20.05 131.81)"/><path class="cls-3" d="M371.69,1007.19c-25.9-1.4-33.6-14.74-55.3-13.92s-35.46,2.55-35.46,13.75c0,19.13,21.82,20.65,46.66,16.48s19.93,9.94,61.37,3.82c41.07-6.07,46.9-14,46.9-14s-28.83-3.81-38.5-4.17C380.57,1008.55,397.59,1008.59,371.69,1007.19Z" transform="translate(20.05 131.81)"/><circle class="cls-7" cx="964.75" cy="503.84" r="25.16" transform="translate(73.63 1230.94) rotate(-60.73)"/><path class="cls-8" d="M959.17,501.67c-9.3-1-19.75-10.32-31.63-9.12-1.92.2-8.24,1.63-10.16,1.93-15.88,2.49-28.46-7.56-43.4-1.61-6.39,2.55-12.24,7.67-19.09,7-14.49-1.35-11.43,5.17-10.47,5.76,6.75,4.2,14.69,3.16,22.64,3.16,30.66,0,60.3,1.72,90.08-.87a8.07,8.07,0,0,0,4.25-1.22c1.2-.91,1.79-2.77.84-3.93A4.33,4.33,0,0,0,959.17,501.67Z" transform="translate(20.05 131.81)"/><path class="cls-8" d="M1062.15,449.88c-13.71-1-29.13-10.09-46.64-8.92-2.84.19-12.16,1.6-15,1.89-23.43,2.43-42-7.4-64-1.57-9.42,2.49-18,7.5-28.15,6.88-21.38-1.31-16.86,5.06-15.44,5.65,9.95,4.11,21.66,3.08,33.37,3.08,45.22,0,88.92,1.68,132.83-.84a16.77,16.77,0,0,0,6.28-1.2c1.75-.89,2.62-2.72,1.22-3.85C1065.61,450.16,1063.79,450,1062.15,449.88Z" transform="translate(20.05 131.81)"/><path class="cls-3" d="M1048.36,869.19c-39.43,0-54.6,17.21-126.22,17.21H540V928c20.72,1.45,41.85-3.37,62.55-5,43.33-3.44,49,15.49,124.6,14.63,26-.29,74.95-8.06,92.73-4.73,31.31,5.86,32.15,16.35,62.67,16.35,44.39,0,18.2-17.83,86.42-17.83,26,0,69,11.37,131,1.07V875.56C1080.6,876.08,1085,869.19,1048.36,869.19Z" transform="translate(20.05 131.81)"/><path class="cls-3" d="M32.68,869.42c39.43,0,54.6,17.22,126.22,17.22H541.09v41.57c-20.73,1.45-41.85-3.36-62.55-5-43.33-3.45-49,15.48-124.6,14.62-26-.29-74.95-8.06-92.73-4.73-31.31,5.86-32.15,16.35-62.67,16.35-44.39,0-18.2-17.82-86.42-17.82-26,0-69,11.37-131,1.06V875.8C.44,876.31-4,869.42,32.68,869.42Z" transform="translate(20.05 131.81)"/><path class="cls-9" d="M779,872.5a4.58,4.58,0,0,1-3.7-1.63c-16.9,2.89-34.77,5.3-46.11,5-37.6-.94-43.16-16.08-109.67-16.08-76,0-89,9.91-143.44,13.57-17.84,1.2-63-6.7-87-6.7-50.41,0-129,19.79-129,19.79H811.79C801.93,879.16,791.55,872.42,779,872.5Z" transform="translate(20.05 131.81)"/><path class="cls-7" d="M761.86,566.92c-5-17.44-8-72.85-15.81-56.4-33.11,69.55-57.59,64.16-54.18,103.37,6.86,78.74-14.5,141.73,54.69,147.93,47.38,4.25,27.05-37.75,37.05-79.43,8.18-34.09-14.58-38.08-17.52-59.51C763.82,606.28,766.83,584.37,761.86,566.92Z" transform="translate(20.05 131.81)"/><path class="cls-10" d="M750.24,767c-.4-3.12-.67-6.25-1.18-9.35l-1.72-9.29-1.74-9c-.58-3-1-6.09-1.43-9.14a253.36,253.36,0,0,1-2.5-37c0-12.4,1.2-24.8,2-37.16s1-24.76,1.25-37.17.42-24.81.09-37.28l-.67-.06c-2.26,12.29-3.61,24.67-4.67,37.07s-1.74,24.84-1.64,37.29c.1,6.23.37,12.46.61,18.69s.61,12.44.85,18.65c.39,12.44.48,24.87,1,37.36.18,3.12.24,6.26.53,9.39l1,9.4,1.12,9.12.92,9.16c1,12.24,1.74,24.55,1.71,36.9s-1,24.7-2.31,37-3.15,24.59-5.72,36.53l13.89,1.68c.46-25.35.73-50.18.31-75.2C751.77,792.05,751.62,779.52,750.24,767Z" transform="translate(20.05 131.81)"/><path class="cls-10" d="M727.83,687.53c-2-2.18-4.41-4.33-5.71-7.16a19.16,19.16,0,0,1-1.54-4.36,32.41,32.41,0,0,1-.55-4.61,53.16,53.16,0,0,0-1.09-9.59,61.37,61.37,0,0,0-2.44-9.34c-2.34-6-5.37-11.82-10-16.56l-.49.28c1.41,6.34,3.07,12.27,4.83,18.2.88,3,2,5.83,3,8.78s2,5.88,3.2,8.83,2.3,6.07,3.44,9.08a52,52,0,0,0,3.64,9.23c.46.7.89,1.42,1.41,2.09s1.11,1.25,1.7,1.85a26.26,26.26,0,0,0,3.88,3.18,20.05,20.05,0,0,0,9.28,3.57l.2-.52A139.47,139.47,0,0,1,727.83,687.53Z" transform="translate(20.05 131.81)"/><path class="cls-7" d="M774.9,559.72c-7.07-1.32,3.22,12.6,2.33,22.91s-2,17.24,5.92,16.22,7.9-4.76,7.9-10.45C791.05,571.77,778.27,560.35,774.9,559.72Z" transform="translate(20.05 131.81)"/><path class="cls-7" d="M768.19,547.47a4.22,4.22,0,1,0,4.22,4.22A4.22,4.22,0,0,0,768.19,547.47Z" transform="translate(20.05 131.81)"/><path class="cls-10" d="M761.09,876.85l4-2.44c-14.79-57.44,10.75-90,10.75-90C746.52,815.31,761.09,876.85,761.09,876.85Z" transform="translate(20.05 131.81)"/><path class="cls-11" d="M769.82,792c22.51,1.88,43.87-21.27,43.87-21.27C782.15,767.79,769.82,792,769.82,792Z" transform="translate(20.05 131.81)"/><path class="cls-10" d="M744.44,774.63S740.88,797.89,762,815C762,815,771,793.74,744.44,774.63Z" transform="translate(20.05 131.81)"/><path class="cls-10" d="M761.09,876.85l2.73-1.66c-10.07-39.14,7.33-61.36,7.33-61.36C751.16,834.92,761.09,876.85,761.09,876.85Z" transform="translate(20.05 131.81)"/><path class="cls-10" d="M768.38,816.59c14.58,4.94,32.5-6.87,32.5-6.87C780.52,802.58,768.38,816.59,768.38,816.59Z" transform="translate(20.05 131.81)"/><path class="cls-12" d="M740.52,817.14A31.4,31.4,0,0,0,761,839S762,823.29,740.52,817.14Z" transform="translate(20.05 131.81)"/><path class="cls-13" d="M703.2,844.46c0-9.44-11.56-1.77-27.27-1.77l-105.8-4.49c-15.7,0-17.48,14.38-11.37,21.58,19.66,23.16,119.88,19.72,119.88,19.72,15.71,0,27.16-7.66,25.73-17.06C703.5,856.7,703.2,845.12,703.2,844.46Z" transform="translate(20.05 131.81)"/><path class="cls-14" d="M708.42,722.44a13.17,13.17,0,0,1-2.83-.77c-4.1-1.82.48-6.59,1.6-9,2.58-5.58.83-11.2-3.81-15.34s-9.25-4.46-12.2-10.18c-4.41-8.54,2-14.1-3.24-22.42-2.3-3.66-7.47-3.64-10.7-5.53-2-1.19-3.22-4.38-4.76-6.13-5.56-6.31-15.86-6.75-23.18-3.61-4.68,2-6.85,8.25-12.42,8.28-3.61,0-8.06,1-9.34,4.86-1,3,.69,5.74.58,8.71A12.32,12.32,0,0,1,625,679c-2.87,3.22-7.23,3.77-9.37,7.82a15.87,15.87,0,0,0-1.69,6.91,23.56,23.56,0,0,0,2.76,12c1.85,3.47,4.51,6.42,6,10.1,2.27,5.63-2.07,11.52-2.14,17.24-.26,23.42,16.79,40.14,36,47.05,12.93,4.66,34.39,1.4,47.22-3.73,16-6.42,33-22,23.83-40.59C724,728.51,716.25,723.8,708.42,722.44Z" transform="translate(20.05 131.81)"/><path class="cls-15" d="M708.42,722.44a13.17,13.17,0,0,1-2.83-.77c-4.1-1.82.48-6.59,1.6-9,2.58-5.58.83-11.2-3.81-15.34s-9.25-4.46-12.2-10.18c-4.41-8.54,2-14.1-3.24-22.42-2.3-3.66-7.47-3.64-10.7-5.53-2-1.19-3.22-4.38-4.76-6.13-5.56-6.31-15.86-6.75-23.18-3.61-4.68,2-6.85,8.25-12.42,8.28-3.61,0-8.06,1-9.34,4.86,0,.07,0,.13,0,.19a24.14,24.14,0,0,1,9.07-2c9.18-.14,15,3.86,17.78,9.53,7.79-1.24,15.64.72,18.87,4.65,6.06,7.37,7.23,19.27-5.45,28.81a30.42,30.42,0,0,1,9.8,7.14c17.12,2.61,24.23,17.31,14.5,28.4-10.81,12.32-20.68,24.28-30.47,36.67a12.37,12.37,0,0,1-5.79,3.79c.26.09.51.2.76.3,12.93,4.66,34.39,1.4,47.22-3.73,16-6.42,33-22,23.83-40.59C724,728.51,716.25,723.8,708.42,722.44Z" transform="translate(20.05 131.81)"/><path class="cls-16" d="M527.34,760.64c-.43.7.87,5.24,1.46,5.81,1.81.93,1.77.07,3.26-.4a15.62,15.62,0,0,1-3.07-4.18C528.57,761,527.91,759.74,527.34,760.64Z" transform="translate(20.05 131.81)"/><path class="cls-16" d="M522.87,764.49a38.28,38.28,0,0,0-3.89-.19,2.57,2.57,0,0,0-2,1.74,1.32,1.32,0,0,0,.16,1.42c-.67,1,1.47,2,1.26,2.2-.83.83-.29,2.2,3.22,2.4.21,0,8.42,2.5,11.14,3a50,50,0,0,0,1.42-8.37,28.93,28.93,0,0,0-4.65-1.4C527.62,764.9,523.18,764.51,522.87,764.49Z" transform="translate(20.05 131.81)"/><path class="cls-16" d="M626.09,726.77c-7.44,5.91-25.68,30.53-36.66,40.64-13.48,12.41,0,17.38,5.28,14.94,13.94-6.42,49.14-30.68,46.55-38.25C640.14,740.82,627.44,725.7,626.09,726.77Z" transform="translate(20.05 131.81)"/><path class="cls-16" d="M593.64,770.49a6.1,6.1,0,0,0-1.85-.62c-10.16-1.46-48.71-.32-59.06-3.53-.32,3.51.48,6.58-.32,8.68,17.13,4.92,59.85,12.23,63.67,6.22C599.58,775.73,596.52,771.94,593.64,770.49Z" transform="translate(20.05 131.81)"/><path class="cls-17" d="M633.64,733.67a168.19,168.19,0,0,1-17.86,18.55c-5.86,8.64-14.24,18.29-23.13,21.55a57.14,57.14,0,0,1-8.9,2.37c-.75,5.88,7.17,8,11,6.21,13.94-6.42,49.14-30.68,46.55-38.25C640.7,742.44,637.17,737.76,633.64,733.67Z" transform="translate(20.05 131.81)"/><path class="cls-17" d="M592.65,773.77c-10.9,4-26.77,4.6-38.22,3.42-1.69-.18-12.42-.25-16.31-.68,19.41,4.73,54.52,10.15,58,4.73,2.52-4,1.62-7-.15-9A26,26,0,0,1,592.65,773.77Z" transform="translate(20.05 131.81)"/><path class="cls-18" d="M626.09,726.77c-5.25,4.17-16.47,17.45-27.11,27.44a114.89,114.89,0,0,0,10.28,12.94c1.36,1.45,5.32,6,6.78,7.3,14.38-9.65,27-25.3,25.22-30.35C640.14,740.82,627.44,725.7,626.09,726.77Z" transform="translate(20.05 131.81)"/><path class="cls-19" d="M630.41,730.1a14.6,14.6,0,0,1-3.2,11.24c-6.29,8.28-13.63,15.32-21.3,22,1.16,1.38,2.3,2.69,3.35,3.81,1.36,1.45,5.32,6,6.78,7.3,14.38-9.65,27-25.3,25.22-30.35C640.52,741.92,634.66,734.51,630.41,730.1Z" transform="translate(20.05 131.81)"/><path class="cls-16" d="M659.14,696.25c-1.87,1.21-12.67,7.12-15.86,6.64,0,.92,2.26,10.66.11,15.9.92,4.8,14,4.88,18-3A23.71,23.71,0,0,1,659.14,696.25Z" transform="translate(20.05 131.81)"/><path class="cls-16" d="M647.15,680c-6.12-.41-12,1-13.39,6.78-.49,2.07.4,20.74,10.36,23.57,4.22,1.19,12.31-6,12.65-10.92,0,0,.46-6.69.46-6.75C657.67,686.12,653.72,680.4,647.15,680Z" transform="translate(20.05 131.81)"/><path class="cls-17" d="M659.14,696.25a84,84,0,0,1-8.69,4.53c-.05.1-.09.21-.14.32a35.37,35.37,0,0,1,2.81,13.81,25.91,25.91,0,0,1-.87,7c3.61-.58,7.31-2.52,9.11-6.14A23.71,23.71,0,0,1,659.14,696.25Z" transform="translate(20.05 131.81)"/><path class="cls-17" d="M647.15,680c-.51,0-1,0-1.52,0a15.54,15.54,0,0,1,6.19,9.49c.64,3.08,1.2,6.6-.45,9.32-4.31,7.06-1.33,9.83.83,8.14,3-2.33,4.38-4.74,4.57-7.48,0,0,.46-6.69.46-6.75C657.67,686.12,653.72,680.4,647.15,680Z" transform="translate(20.05 131.81)"/><path class="cls-18" d="M692,742.77c-3.74-10.28-9.85-22-20.2-24.51-3.45-.83-10.24-2.82-10.24-2.82s-7.26,6.3-12,6.65c-3.3.23-6.09-3.3-6.09-3.3s-11.84,3.59-14,4.84c-8.34,4.85-8.48,13-9,19.81-4.88,67.65-7.91,90.13-7.91,96.56,0,3.49,19.48,4,33,5.12,27.18,2.2,60,12,58.94,4.41C699.06,811.77,693.12,745.94,692,742.77Z" transform="translate(20.05 131.81)"/><path class="cls-19" d="M673.27,718.71a22.51,22.51,0,0,1,.75,6,48,48,0,0,1-1.56,12.68c-.76,2.67-3.85,7.49-3.72,10.27.26,5.7,5.19,14.49,6.7,20.48,3.79,15.07,10.46,29.34,9.74,45.24-.73,16.09-7.36,27.47-17.24,34.71,20,3.27,37.24,7,36.46,1.46-5.34-37.76-11.28-103.59-12.43-106.76C688.42,733,682.72,721.92,673.27,718.71Z" transform="translate(20.05 131.81)"/><path class="cls-17" d="M657,690.05a5.5,5.5,0,0,0-2.72.94,77,77,0,0,0,2.85,7.51,5.88,5.88,0,0,0,3.35-4.62C660.39,692.19,658.68,690,657,690.05Z" transform="translate(20.05 131.81)"/><path class="cls-16" d="M609.87,829.29c-.93-.14-1.91-.56-1.93.71-.09.81,3.33,1.92,4.12,1.74,1.78-1,1.19-2,3-2.73A17.3,17.3,0,0,1,609.87,829.29Z" transform="translate(20.05 131.81)"/><path class="cls-16" d="M616.4,828.45a42.54,42.54,0,0,0-5.42,2.6c-2.11,1.17-6.54,4.29-6.84,4.52-.87.68-3.25,2.13-3.75,2.84a4.61,4.61,0,0,0-.44,2.7,1.38,1.38,0,0,0,1.29.85c.14,1.17,3,.25,2.93.55-.11,1.19,1.49,1.72,4.89-.82.21-.15,9.79-4.72,12.74-6.43C620.89,833.36,616.51,828.42,616.4,828.45Z" transform="translate(20.05 131.81)"/><path class="cls-16" d="M676.92,737.6c-3.11-1.54-22.78-3.3-23-1.6-1.11,9.43,3.31,39.75,2.65,54.67-.81,18.3,12.25,12.33,14.28,6.87C676.23,783.16,684.08,741.14,676.92,737.6Z" transform="translate(20.05 131.81)"/><path class="cls-18" d="M653.94,736c-3,6,.62,24,.12,38.58,6.22,2.72,17.61,4.17,26.37,2.32,3.39-17,3-32.48,1.07-37.46C676.56,726.63,657.83,728.26,653.94,736Z" transform="translate(20.05 131.81)"/><path class="cls-19" d="M674.37,731.73c5.49,20.18-3.39,41.74-3.58,46a43.3,43.3,0,0,0,9.64-.8c3.39-17,3-32.48,1.07-37.46A14,14,0,0,0,674.37,731.73Z" transform="translate(20.05 131.81)"/><path class="cls-16" d="M662.35,789.17a6,6,0,0,0-1.76.84c-8.29,6-35.12,33.75-44.77,38.67a34.16,34.16,0,0,1,4.78,7.22c15.71-8.41,52.46-33.77,51-40.73C670.27,788.78,665.43,788.2,662.35,789.17Z" transform="translate(20.05 131.81)"/><path class="cls-20" d="M610,849.88c-24.34-7.65-40.74-14.27-61.82-12.18-13.54,1.34-18.68,8.36-15.42,15.4,3.16,6.85,10.14,9,16.75,10.54a853.23,853.23,0,0,0,114.89,17.69c6.13-2.37,2.49-10.91,2.49-10.91C649.56,868.07,624.18,854.35,610,849.88Z" transform="translate(20.05 131.81)"/><path class="cls-13" d="M648.52,874.77c-3.67-.75-6.59-2.4-10.87-2.66-3.57-.22-7.12.37-11.09-.18-7.67-1.06-12.64-4.09-19.32-7.65-4.72-2.52-7.49-4.47-14.47-4.26-4.27.13-7.77,1.74-12.83,1.82-12.77.19-27.31-3.91-33.74-10.87-5-5.42-4.8-9.71-1.24-12.77-11.64,2.07-15.18,8.48-12.21,14.9,3.16,6.85,10.14,9,16.75,10.54,63.12,14.14,110.62,17.5,110.62,17.5,3.83-3.31,7.28-5.14,7.45-8.12C662,874.84,655.81,876.25,648.52,874.77Z" transform="translate(20.05 131.81)"/><path class="cls-21" d="M678.49,870.81a113.23,113.23,0,0,0-12.55-.52s.58,2.36-.79,2.32c-1.1,0-3.49.07-3.49.07a41.21,41.21,0,0,1-1.54,8.46s6.56.79,10,1.57c4,.9,6.83,2.31,9.88,2.94s4.51.44,5.76-2.5,2.12-6.88.13-9.23S682.36,871.37,678.49,870.81Z" transform="translate(20.05 131.81)"/><path class="cls-22" d="M676.93,882.27c-2.31-1.11.23-4.94-7.33-5.36a23.35,23.35,0,0,1-8.1-2.47,42.86,42.86,0,0,1-1.38,6.7s6.56.79,10,1.57c4,.9,6.83,2.31,9.88,2.94s4.51.44,5.76-2.5a17.51,17.51,0,0,0,1.13-3.72C684.56,883.37,681.12,884.28,676.93,882.27Z" transform="translate(20.05 131.81)"/><path class="cls-23" d="M678.49,870.81c-.52-.08-1.16-.14-1.88-.19,2.21.37,4.75,1,6,1.8,4.7,3.21,2.78,13.23-.63,13.5,0,0,3.33.29,4.17-2.51.9-3,1.77-7.14-.22-9.49S682.36,871.37,678.49,870.81Z" transform="translate(20.05 131.81)"/><path class="cls-20" d="M670.72,837.7c-21.08-2.09-37.49,4.53-61.82,12.18-14.2,4.47-39.58,18.19-56.9,20.54,0,0-3.64,8.54,2.5,10.91a853,853,0,0,0,114.88-17.69C676,862.15,683,860,686.14,853.1,689.4,846.06,684.25,839,670.72,837.7Z" transform="translate(20.05 131.81)"/><path class="cls-13" d="M673.93,838.2c3.56,3.06,3.76,7.35-1.25,12.77-6.43,7-21,11.06-33.73,10.87-5.07-.08-8.57-1.69-12.83-1.82-7-.21-9.75,1.74-14.48,4.26-6.67,3.56-11.64,6.59-19.31,7.65-4,.55-7.53,0-11.09.18-4.29.26-7.21,1.91-10.87,2.66-7.29,1.48-13.51.07-19-1.75.16,3,3.62,4.81,7.44,8.12,0,0,47.51-3.36,110.62-17.5C676,862.15,683,860,686.14,853.1,689.11,846.68,685.56,840.27,673.93,838.2Z" transform="translate(20.05 131.81)"/><path class="cls-21" d="M553.74,872.61c-1.38,0-.8-2.32-.8-2.32a113.15,113.15,0,0,0-12.54.52c-3.88.56-5.39.69-7.44,3.11s-1.11,6.35.12,9.23,2.83,3.09,5.76,2.5,5.88-2,9.89-2.94c3.47-.78,10-1.57,10-1.57a41.21,41.21,0,0,1-1.54-8.46S554.84,872.58,553.74,872.61Z" transform="translate(20.05 131.81)"/><path class="cls-22" d="M549.29,876.91c-7.57.42-5,4.25-7.34,5.36-4.19,2-7.62,1.1-10-2.84a16.94,16.94,0,0,0,1.12,3.72c1.26,2.94,2.83,3.09,5.76,2.5s5.88-2,9.89-2.94c3.47-.78,10-1.57,10-1.57a42.86,42.86,0,0,1-1.38-6.7A23.32,23.32,0,0,1,549.29,876.91Z" transform="translate(20.05 131.81)"/><path class="cls-23" d="M536.28,872.42c1.24-.85,3.79-1.43,6-1.8-.71,0-1.35.11-1.87.19-3.88.56-5.39.69-7.44,3.11s-1.12,6.48-.22,9.49c.83,2.8,4.16,2.51,4.16,2.51C533.49,885.65,531.57,875.63,536.28,872.42Z" transform="translate(20.05 131.81)"/><path class="cls-24" d="M303.8,577H292.33c-.61,0-1.1.9-1.1,2s.49,2,1.1,2H303.8c.61,0,1.1-.9,1.1-2S304.41,577,303.8,577Z" transform="translate(20.05 131.81)"/><path class="cls-24" d="M360.8,577H309.2c-.61,0-1.11.9-1.11,2s.5,2,1.11,2h51.6c.61,0,1.1-.9,1.1-2S361.41,577,360.8,577Z" transform="translate(20.05 131.81)"/><path class="cls-24" d="M316.13,585.33H309.2c-.61,0-1.11.9-1.11,2s.5,2,1.11,2h6.93c.61,0,1.1-.9,1.1-2S316.74,585.33,316.13,585.33Z" transform="translate(20.05 131.81)"/><path class="cls-24" d="M350.54,585.33H320.39c-.61,0-1.11.9-1.11,2s.5,2,1.11,2h30.15c.61,0,1.11-.9,1.11-2S351.15,585.33,350.54,585.33Z" transform="translate(20.05 131.81)"/><path class="cls-24" d="M360.8,625.73H309.2c-.61,0-1.11.91-1.11,2s.5,2,1.11,2h51.6c.61,0,1.1-.9,1.1-2S361.41,625.73,360.8,625.73Z" transform="translate(20.05 131.81)"/><path class="cls-24" d="M303.8,634H292.33c-.61,0-1.1.89-1.1,2s.49,2,1.1,2H303.8c.61,0,1.1-.9,1.1-2S304.41,634,303.8,634Z" transform="translate(20.05 131.81)"/><path class="cls-24" d="M316.13,634H309.2c-.61,0-1.11.89-1.11,2s.5,2,1.11,2h6.93c.61,0,1.1-.9,1.1-2S316.74,634,316.13,634Z" transform="translate(20.05 131.81)"/><path class="cls-24" d="M350.54,634H320.39c-.61,0-1.11.89-1.11,2s.5,2,1.11,2h30.15c.61,0,1.11-.9,1.11-2S351.15,634,350.54,634Z" transform="translate(20.05 131.81)"/><path class="cls-24" d="M377.07,593.63H309.2c-.61,0-1.11.9-1.11,2s.5,2,1.11,2h67.87c.61,0,1.1-.89,1.1-2S377.68,593.63,377.07,593.63Z" transform="translate(20.05 131.81)"/><path class="cls-24" d="M360.39,733.74h20.09a.65.65,0,0,1,.65.65v2.71a.65.65,0,0,1-.65.65H360.39a.66.66,0,0,1-.66-.66v-2.7A.65.65,0,0,1,360.39,733.74Z"/><path class="cls-24" d="M322.4,601.93H309.2c-.61,0-1.11.9-1.11,2s.5,2,1.11,2h13.2c.61,0,1.1-.9,1.1-2S323,601.93,322.4,601.93Z" transform="translate(20.05 131.81)"/><path class="cls-24" d="M336.87,601.93H326.08c-.61,0-1.1.9-1.1,2s.49,2,1.1,2h10.79c.61,0,1.1-.9,1.1-2S337.48,601.93,336.87,601.93Z" transform="translate(20.05 131.81)"/><path class="cls-24" d="M303.8,610H292.33c-.61,0-1.1.9-1.1,2s.49,2,1.1,2H303.8c.61,0,1.1-.9,1.1-2S304.41,610,303.8,610Z" transform="translate(20.05 131.81)"/><path class="cls-24" d="M377.07,610H309.2c-.61,0-1.11.9-1.11,2s.5,2,1.11,2h67.87c.61,0,1.1-.9,1.1-2S377.68,610,377.07,610Z" transform="translate(20.05 131.81)"/><path class="cls-24" d="M303.8,641.72H292.33c-.61,0-1.1.9-1.1,2s.49,2,1.1,2H303.8c.61,0,1.1-.9,1.1-2S304.41,641.72,303.8,641.72Z" transform="translate(20.05 131.81)"/><rect class="cls-24" x="359.74" y="773.53" width="29.6" height="4.02" rx="0.77"/><path class="cls-24" d="M322.4,641.72H309.2c-.61,0-1.11.9-1.11,2s.5,2,1.11,2h13.2c.61,0,1.1-.9,1.1-2S323,641.72,322.4,641.72Z" transform="translate(20.05 131.81)"/><path class="cls-24" d="M336.87,641.72H326.08c-.61,0-1.1.9-1.1,2s.49,2,1.1,2h10.79c.61,0,1.1-.9,1.1-2S337.48,641.72,336.87,641.72Z" transform="translate(20.05 131.81)"/><path class="cls-24" d="M303.8,649.74H292.33c-.61,0-1.1.91-1.1,2s.49,2,1.1,2H303.8c.61,0,1.1-.9,1.1-2S304.41,649.74,303.8,649.74Z" transform="translate(20.05 131.81)"/><path class="cls-24" d="M323.37,649.74H309.2c-.61,0-1.11.91-1.11,2s.5,2,1.11,2h14.17c.61,0,1.11-.9,1.11-2S324,649.74,323.37,649.74Z" transform="translate(20.05 131.81)"/><path class="cls-24" d="M303.8,618.25H292.33c-.61,0-1.1.9-1.1,2s.49,2,1.1,2H303.8c.61,0,1.1-.9,1.1-2S304.41,618.25,303.8,618.25Z" transform="translate(20.05 131.81)"/><rect class="cls-24" x="359.74" y="750.06" width="33.45" height="4.02" rx="0.82"/><path class="cls-24" d="M322.4,618.25H309.2c-.61,0-1.11.9-1.11,2s.5,2,1.11,2h13.2c.61,0,1.1-.9,1.1-2S323,618.25,322.4,618.25Z" transform="translate(20.05 131.81)"/><path class="cls-24" d="M336.87,618.25H326.08c-.61,0-1.1.9-1.1,2s.49,2,1.1,2h10.79c.61,0,1.1-.9,1.1-2S337.48,618.25,336.87,618.25Z" transform="translate(20.05 131.81)"/><path class="cls-24" d="M360.8,658.28H309.2c-.61,0-1.11.9-1.11,2s.5,2,1.11,2h51.6c.61,0,1.1-.9,1.1-2S361.41,658.28,360.8,658.28Z" transform="translate(20.05 131.81)"/><path class="cls-24" d="M316.13,666.58H309.2c-.61,0-1.11.89-1.11,2s.5,2,1.11,2h6.93c.61,0,1.1-.9,1.1-2S316.74,666.58,316.13,666.58Z" transform="translate(20.05 131.81)"/><path class="cls-24" d="M350.54,666.58H320.39c-.61,0-1.11.89-1.11,2s.5,2,1.11,2h30.15c.61,0,1.11-.9,1.11-2S351.15,666.58,350.54,666.58Z" transform="translate(20.05 131.81)"/><path class="cls-24" d="M360.8,707H309.2c-.61,0-1.11.9-1.11,2s.5,2,1.11,2h51.6c.61,0,1.1-.9,1.1-2S361.41,707,360.8,707Z" transform="translate(20.05 131.81)"/><path class="cls-24" d="M303.8,715.28H292.33c-.61,0-1.1.9-1.1,2s.49,2,1.1,2H303.8c.61,0,1.1-.9,1.1-2S304.41,715.28,303.8,715.28Z" transform="translate(20.05 131.81)"/><path class="cls-24" d="M316.13,715.28H309.2c-.61,0-1.11.9-1.11,2s.5,2,1.11,2h6.93c.61,0,1.1-.9,1.1-2S316.74,715.28,316.13,715.28Z" transform="translate(20.05 131.81)"/><path class="cls-24" d="M350.54,715.28H320.39c-.61,0-1.11.9-1.11,2s.5,2,1.11,2h30.15c.61,0,1.11-.9,1.11-2S351.15,715.28,350.54,715.28Z" transform="translate(20.05 131.81)"/><path class="cls-24" d="M303.8,674.87H292.33c-.61,0-1.1.9-1.1,2s.49,2,1.1,2H303.8c.61,0,1.1-.9,1.1-2S304.41,674.87,303.8,674.87Z" transform="translate(20.05 131.81)"/><rect class="cls-24" x="328.15" y="806.69" width="47" height="4.02" rx="0.75"/><path class="cls-24" d="M303.8,683.17H292.33c-.61,0-1.1.9-1.1,2s.49,2,1.1,2H303.8c.61,0,1.1-.9,1.1-2S304.41,683.17,303.8,683.17Z" transform="translate(20.05 131.81)"/><path class="cls-24" d="M322.4,683.17H309.2c-.61,0-1.11.9-1.11,2s.5,2,1.11,2h13.2c.61,0,1.1-.9,1.1-2S323,683.17,322.4,683.17Z" transform="translate(20.05 131.81)"/><path class="cls-24" d="M336.87,683.17H326.08c-.61,0-1.1.9-1.1,2s.49,2,1.1,2h10.79c.61,0,1.1-.9,1.1-2S337.48,683.17,336.87,683.17Z" transform="translate(20.05 131.81)"/><path class="cls-24" d="M303.8,691.2H292.33c-.61,0-1.1.9-1.1,2s.49,2,1.1,2H303.8c.61,0,1.1-.9,1.1-2S304.41,691.2,303.8,691.2Z" transform="translate(20.05 131.81)"/><rect class="cls-24" x="328.15" y="823.01" width="62.81" height="4.02" rx="0.84"/><path class="cls-24" d="M303.8,723H292.33c-.61,0-1.1.9-1.1,2s.49,2,1.1,2H303.8c.61,0,1.1-.9,1.1-2S304.41,723,303.8,723Z" transform="translate(20.05 131.81)"/><path class="cls-24" d="M377,723H340.79c-.61,0-1.11.9-1.11,2s.5,2,1.11,2H377c.61,0,1.11-.9,1.11-2S377.59,723,377,723Z" transform="translate(20.05 131.81)"/><path class="cls-24" d="M322.4,723H309.2c-.61,0-1.11.9-1.11,2s.5,2,1.11,2h13.2c.61,0,1.1-.9,1.1-2S323,723,322.4,723Z" transform="translate(20.05 131.81)"/><path class="cls-24" d="M336.87,723H326.08c-.61,0-1.1.9-1.1,2s.49,2,1.1,2h10.79c.61,0,1.1-.9,1.1-2S337.48,723,336.87,723Z" transform="translate(20.05 131.81)"/><rect class="cls-24" x="328.15" y="862.8" width="36.74" height="4.01" rx="0.68"/><path class="cls-24" d="M360.58,831.31h33.73a.84.84,0,0,1,.84.84v2.33a.84.84,0,0,1-.84.84H360.58a.85.85,0,0,1-.85-.85v-2.33A.84.84,0,0,1,360.58,831.31Z"/><path class="cls-24" d="M322.4,699.5H309.2c-.61,0-1.11.89-1.11,2s.5,2,1.11,2h13.2c.61,0,1.1-.9,1.1-2S323,699.5,322.4,699.5Z" transform="translate(20.05 131.81)"/><path class="cls-24" d="M336.87,699.5H326.08c-.61,0-1.1.89-1.1,2s.49,2,1.1,2h10.79c.61,0,1.1-.9,1.1-2S337.48,699.5,336.87,699.5Z" transform="translate(20.05 131.81)"/><path class="cls-24" d="M399.06,577H387.59c-.61,0-1.1.9-1.1,2s.49,2,1.1,2h11.47c.61,0,1.1-.9,1.1-2S399.67,577,399.06,577Z" transform="translate(20.05 131.81)"/><path class="cls-24" d="M456.06,577h-51.6c-.61,0-1.11.9-1.11,2s.5,2,1.11,2h51.6c.61,0,1.11-.9,1.11-2S456.67,577,456.06,577Z" transform="translate(20.05 131.81)"/><path class="cls-24" d="M411.39,585.33h-6.93c-.61,0-1.11.9-1.11,2s.5,2,1.11,2h6.93c.61,0,1.1-.9,1.1-2S412,585.33,411.39,585.33Z" transform="translate(20.05 131.81)"/><path class="cls-24" d="M445.81,585.33H415.65c-.61,0-1.11.9-1.11,2s.5,2,1.11,2h30.16c.61,0,1.1-.9,1.1-2S446.42,585.33,445.81,585.33Z" transform="translate(20.05 131.81)"/><path class="cls-24" d="M456.06,625.73h-51.6c-.61,0-1.11.91-1.11,2s.5,2,1.11,2h51.6c.61,0,1.11-.9,1.11-2S456.67,625.73,456.06,625.73Z" transform="translate(20.05 131.81)"/><path class="cls-24" d="M399.06,634H387.59c-.61,0-1.1.89-1.1,2s.49,2,1.1,2h11.47c.61,0,1.1-.9,1.1-2S399.67,634,399.06,634Z" transform="translate(20.05 131.81)"/><path class="cls-24" d="M411.39,634h-6.93c-.61,0-1.11.89-1.11,2s.5,2,1.11,2h6.93c.61,0,1.1-.9,1.1-2S412,634,411.39,634Z" transform="translate(20.05 131.81)"/><path class="cls-24" d="M445.81,634H415.65c-.61,0-1.11.89-1.11,2s.5,2,1.11,2h30.16c.61,0,1.1-.9,1.1-2S446.42,634,445.81,634Z" transform="translate(20.05 131.81)"/><path class="cls-24" d="M472.33,593.63H404.46c-.61,0-1.11.9-1.11,2s.5,2,1.11,2h67.87c.61,0,1.1-.89,1.1-2S472.94,593.63,472.33,593.63Z" transform="translate(20.05 131.81)"/><path class="cls-24" d="M455.65,733.74h20.09a.66.66,0,0,1,.66.66v2.7a.66.66,0,0,1-.66.66H455.65a.66.66,0,0,1-.66-.66v-2.7A.65.65,0,0,1,455.65,733.74Z"/><path class="cls-24" d="M417.66,601.93h-13.2c-.61,0-1.11.9-1.11,2s.5,2,1.11,2h13.2c.61,0,1.1-.9,1.1-2S418.27,601.93,417.66,601.93Z" transform="translate(20.05 131.81)"/><path class="cls-24" d="M432.13,601.93H421.34c-.61,0-1.1.9-1.1,2s.49,2,1.1,2h10.79c.61,0,1.1-.9,1.1-2S432.74,601.93,432.13,601.93Z" transform="translate(20.05 131.81)"/><path class="cls-24" d="M399.06,610H387.59c-.61,0-1.1.9-1.1,2s.49,2,1.1,2h11.47c.61,0,1.1-.9,1.1-2S399.67,610,399.06,610Z" transform="translate(20.05 131.81)"/><path class="cls-24" d="M472.33,610H404.46c-.61,0-1.11.9-1.11,2s.5,2,1.11,2h67.87c.61,0,1.1-.9,1.1-2S472.94,610,472.33,610Z" transform="translate(20.05 131.81)"/><path class="cls-24" d="M399.06,641.72H387.59c-.61,0-1.1.9-1.1,2s.49,2,1.1,2h11.47c.61,0,1.1-.9,1.1-2S399.67,641.72,399.06,641.72Z" transform="translate(20.05 131.81)"/><rect class="cls-24" x="455" y="773.53" width="29.61" height="4.02" rx="0.77"/><path class="cls-24" d="M417.66,641.72h-13.2c-.61,0-1.11.9-1.11,2s.5,2,1.11,2h13.2c.61,0,1.1-.9,1.1-2S418.27,641.72,417.66,641.72Z" transform="translate(20.05 131.81)"/><path class="cls-24" d="M432.13,641.72H421.34c-.61,0-1.1.9-1.1,2s.49,2,1.1,2h10.79c.61,0,1.1-.9,1.1-2S432.74,641.72,432.13,641.72Z" transform="translate(20.05 131.81)"/><path class="cls-24" d="M399.06,649.74H387.59c-.61,0-1.1.91-1.1,2s.49,2,1.1,2h11.47c.61,0,1.1-.9,1.1-2S399.67,649.74,399.06,649.74Z" transform="translate(20.05 131.81)"/><path class="cls-24" d="M418.63,649.74H404.46c-.61,0-1.11.91-1.11,2s.5,2,1.11,2h14.17c.61,0,1.11-.9,1.11-2S419.24,649.74,418.63,649.74Z" transform="translate(20.05 131.81)"/><path class="cls-24" d="M399.06,618.25H387.59c-.61,0-1.1.9-1.1,2s.49,2,1.1,2h11.47c.61,0,1.1-.9,1.1-2S399.67,618.25,399.06,618.25Z" transform="translate(20.05 131.81)"/><rect class="cls-24" x="455" y="750.06" width="33.45" height="4.02" rx="0.82"/><path class="cls-24" d="M417.66,618.25h-13.2c-.61,0-1.11.9-1.11,2s.5,2,1.11,2h13.2c.61,0,1.1-.9,1.1-2S418.27,618.25,417.66,618.25Z" transform="translate(20.05 131.81)"/><path class="cls-24" d="M432.13,618.25H421.34c-.61,0-1.1.9-1.1,2s.49,2,1.1,2h10.79c.61,0,1.1-.9,1.1-2S432.74,618.25,432.13,618.25Z" transform="translate(20.05 131.81)"/><path class="cls-24" d="M456.06,658.28h-51.6c-.61,0-1.11.9-1.11,2s.5,2,1.11,2h51.6c.61,0,1.11-.9,1.11-2S456.67,658.28,456.06,658.28Z" transform="translate(20.05 131.81)"/><path class="cls-24" d="M411.39,666.58h-6.93c-.61,0-1.11.89-1.11,2s.5,2,1.11,2h6.93c.61,0,1.1-.9,1.1-2S412,666.58,411.39,666.58Z" transform="translate(20.05 131.81)"/><path class="cls-24" d="M445.81,666.58H415.65c-.61,0-1.11.89-1.11,2s.5,2,1.11,2h30.16c.61,0,1.1-.9,1.1-2S446.42,666.58,445.81,666.58Z" transform="translate(20.05 131.81)"/><path class="cls-24" d="M456.06,707h-51.6c-.61,0-1.11.9-1.11,2s.5,2,1.11,2h51.6c.61,0,1.11-.9,1.11-2S456.67,707,456.06,707Z" transform="translate(20.05 131.81)"/><path class="cls-24" d="M399.06,715.28H387.59c-.61,0-1.1.9-1.1,2s.49,2,1.1,2h11.47c.61,0,1.1-.9,1.1-2S399.67,715.28,399.06,715.28Z" transform="translate(20.05 131.81)"/><path class="cls-24" d="M411.39,715.28h-6.93c-.61,0-1.11.9-1.11,2s.5,2,1.11,2h6.93c.61,0,1.1-.9,1.1-2S412,715.28,411.39,715.28Z" transform="translate(20.05 131.81)"/><path class="cls-24" d="M445.81,715.28H415.65c-.61,0-1.11.9-1.11,2s.5,2,1.11,2h30.16c.61,0,1.1-.9,1.1-2S446.42,715.28,445.81,715.28Z" transform="translate(20.05 131.81)"/><path class="cls-24" d="M399.06,674.87H387.59c-.61,0-1.1.9-1.1,2s.49,2,1.1,2h11.47c.61,0,1.1-.9,1.1-2S399.67,674.87,399.06,674.87Z" transform="translate(20.05 131.81)"/><rect class="cls-24" x="423.41" y="806.69" width="47" height="4.02" rx="0.75"/><path class="cls-24" d="M399.06,683.17H387.59c-.61,0-1.1.9-1.1,2s.49,2,1.1,2h11.47c.61,0,1.1-.9,1.1-2S399.67,683.17,399.06,683.17Z" transform="translate(20.05 131.81)"/><path class="cls-24" d="M417.66,683.17h-13.2c-.61,0-1.11.9-1.11,2s.5,2,1.11,2h13.2c.61,0,1.1-.9,1.1-2S418.27,683.17,417.66,683.17Z" transform="translate(20.05 131.81)"/><path class="cls-24" d="M432.13,683.17H421.34c-.61,0-1.1.9-1.1,2s.49,2,1.1,2h10.79c.61,0,1.1-.9,1.1-2S432.74,683.17,432.13,683.17Z" transform="translate(20.05 131.81)"/><path class="cls-24" d="M399.06,691.2H387.59c-.61,0-1.1.9-1.1,2s.49,2,1.1,2h11.47c.61,0,1.1-.9,1.1-2S399.67,691.2,399.06,691.2Z" transform="translate(20.05 131.81)"/><rect class="cls-24" x="423.41" y="823.01" width="62.81" height="4.02" rx="0.84"/><path class="cls-24" d="M399.06,723H387.59c-.61,0-1.1.9-1.1,2s.49,2,1.1,2h11.47c.61,0,1.1-.9,1.1-2S399.67,723,399.06,723Z" transform="translate(20.05 131.81)"/><path class="cls-24" d="M472.24,723H436.05c-.61,0-1.11.9-1.11,2s.5,2,1.11,2h36.19c.61,0,1.11-.9,1.11-2S472.85,723,472.24,723Z" transform="translate(20.05 131.81)"/><path class="cls-24" d="M417.66,723h-13.2c-.61,0-1.11.9-1.11,2s.5,2,1.11,2h13.2c.61,0,1.1-.9,1.1-2S418.27,723,417.66,723Z" transform="translate(20.05 131.81)"/><path class="cls-24" d="M432.13,723H421.34c-.61,0-1.1.9-1.1,2s.49,2,1.1,2h10.79c.61,0,1.1-.9,1.1-2S432.74,723,432.13,723Z" transform="translate(20.05 131.81)"/><rect class="cls-24" x="423.41" y="862.8" width="36.74" height="4.01" rx="0.68"/><rect class="cls-24" x="455" y="831.31" width="35.42" height="4.01" rx="0.84"/><path class="cls-24" d="M417.66,699.5h-13.2c-.61,0-1.11.89-1.11,2s.5,2,1.11,2h13.2c.61,0,1.1-.9,1.1-2S418.27,699.5,417.66,699.5Z" transform="translate(20.05 131.81)"/><path class="cls-24" d="M432.13,699.5H421.34c-.61,0-1.1.89-1.1,2s.49,2,1.1,2h10.79c.61,0,1.1-.9,1.1-2S432.74,699.5,432.13,699.5Z" transform="translate(20.05 131.81)"/><path class="cls-10" d="M499.73,878.73v0a7.72,7.72,0,0,0,7.69,7.7h181a7.72,7.72,0,0,0,7.69-7.7s0,0,0,0Z" transform="translate(20.05 131.81)"/><path class="cls-10" d="M479.85,717.29c-1.71-6.22-4.87-8.61-11.32-8.45l-113.26,0V884.54l153.33,1.93c9.39,0,9.94-7.26,9.32-9.78Z" transform="translate(20.05 131.81)"/><path class="cls-12" d="M512.1,878.72,472.23,712.07a4.67,4.67,0,0,0-.64-1.35,4.11,4.11,0,0,0-1.83-1.5,3.84,3.84,0,0,0-1.9-.45h-196a4.5,4.5,0,0,0-3.19,1.34,4.36,4.36,0,0,0-1.23,3.89,1.34,1.34,0,0,0,.08.48l36.74,155.68a22.27,22.27,0,0,0,21.47,16.29H508.29a3.58,3.58,0,0,0,1.46-.28l.59-.25s.08,0,.11-.08a5.19,5.19,0,0,0,.5-.31,4.49,4.49,0,0,0,1.38-1.68l.16-.42a.6.6,0,0,0,.06-.23,1.53,1.53,0,0,0,.11-.47,4.09,4.09,0,0,0-.08-2Z" transform="translate(20.05 131.81)"/><path class="cls-25" d="M472.21,712.08a4.5,4.5,0,0,0-4.34-3.31h-196a4.5,4.5,0,0,0-4.43,5.23,4.29,4.29,0,0,1,1.52-.3H465a4.52,4.52,0,0,1,4.35,3.31l40.37,168.67a4.44,4.44,0,0,1,.07.49,4.48,4.48,0,0,0,2.83-5.42Z" transform="translate(20.05 131.81)"/><path class="cls-26" d="M383.08,844.48a3.36,3.36,0,0,0-3.25-2.52H297.59l4.51,19h80.78a3.34,3.34,0,0,0,3.25-4.14Z" transform="translate(20.05 131.81)"/><g class="cls-27"><path class="cls-28" d="M447.9,826.39H443L441.27,819h4.86l-.14-.6h-4.86l-1.77-7.43h4.86l-.14-.6h-4.86l-1.78-7.43h4.87l-.14-.6H437.3l-1.77-7.43h4.87l-.14-.6h-4.87l-1.77-7.44h4.86l-.14-.59h-4.86l-1.77-7.43h4.86l-.14-.6h-4.86l-1.78-7.44h4.87l-.14-.59h-4.87l-1.77-7.44h4.87l-.15-.59h-4.86L426,754.71h4.86l-.14-.59h-4.86l-1.77-7.44h4.86l-.14-.59h-4.86l-1.77-7.44H427l-.14-.59H422l-1.77-7.44h4.87L425,730h-4.86l-1.21-5.1h-.59l1.21,5.1h-7.24l-1.22-5.1h-.59l1.21,5.1h-7.24l-1.22-5.1h-.59l1.22,5.1h-7.25l-1.21-5.1h-.6L396,730h-7.24l-1.22-5.1h-.59l1.21,5.1h-7.24l-1.22-5.1h-.59l1.22,5.1h-7.25l-1.22-5.1h-.59l1.22,5.1h-7.25l-1.21-5.1h-.6l1.22,5.1h-7.25l-1.21-5.1h-.59l1.21,5.1h-7.25l-1.21-5.1h-.59L349,730h-7.25l-1.21-5.1h-.59l1.21,5.1h-7.24l-1.22-5.1h-.58l1.21,5.1H326l-1.21-5.1h-.59l1.21,5.1h-6l.14.59h6l1.77,7.44h-6l.14.59h6l1.77,7.44h-6l.15.59h6l1.77,7.44h-6l.14.59h6l1.77,7.44h-6l.14.59h6l1.77,7.44h-6l.14.59h6l1.78,7.44h-6l.14.6h6l1.77,7.43h-6l.14.59h6l1.77,7.44h-6l.14.6h6l1.78,7.43h-6l.14.6h6l1.78,7.43h-6l.15.6h6l1.77,7.43h-6l.15.6h6l1.77,7.43h-6l.14.6h6l.91,3.83h.6l-.92-3.83h7.25l.91,3.83h.59L357,827h7.25l.91,3.83h.59L364.8,827h7.25l.92,3.83h.59l-.91-3.83h7.24l.91,3.83h.59l-.91-3.83h7.25l.91,3.83h.59l-.91-3.83h7.24l.92,3.83h.59l-.91-3.83h7.25l.91,3.83h.59L404,827h7.25l.91,3.83h.6l-.92-3.83h7.25l.91,3.83h.59l-.91-3.83h7.25l.91,3.83h.59l-.91-3.83h7.24l.92,3.83h.59l-.91-3.83h7.24l.92,3.83h.58l-.91-3.83h4.87Zm-7.36-8h-7.25l-1.77-7.43h7.25ZM384,778.21H376.7l-1.77-7.44h7.25Zm-1.18-7.44H390l1.77,7.44h-7.25Zm1.32,8,1.77,7.43h-7.24l-1.77-7.43Zm.59,0h7.25l1.77,7.43h-7.25Zm7.84,0h7.25l1.77,7.43h-7.25Zm-.14-.6-1.77-7.44h7.24l1.78,7.44Zm-1.91-8-1.77-7.44h7.24l1.77,7.44Zm-.59,0h-7.25l-1.77-7.44h7.25Zm-7.84,0h-7.25L373,762.74h7.25Zm-7.84,0H367l-1.77-7.44h7.25Zm.14.59,1.77,7.44h-7.25l-1.77-7.44Zm1.91,8,1.77,7.43h-7.24L369,778.81Zm1.91,8,1.77,7.44h-7.24l-1.77-7.44Zm.6,0H386l1.76,7.44h-7.24Zm7.83,0h7.25l1.77,7.44h-7.24Zm7.84,0h7.25l1.77,7.44H396.2Zm7.84,0h7.25l1.77,7.44H404Zm-.14-.59-1.77-7.43h7.24l1.77,7.43Zm-1.91-8-1.77-7.44h7.24l1.77,7.44Zm-1.91-8-1.77-7.44h7.24l1.77,7.44Zm-1.92-8-1.77-7.44h7.24l1.78,7.44Zm-.59,0h-7.25l-1.77-7.44H394Zm-7.83,0h-7.26l-1.77-7.44h7.25Zm-7.84,0h-7.25l-1.77-7.44h7.24Zm-7.85,0H365l-1.77-7.44h7.24Zm-7.83,0H357.2l-1.77-7.44h7.25Zm.14.59,1.77,7.44h-7.24l-1.78-7.44Zm1.91,8,1.78,7.44H361l-1.77-7.44Zm1.92,8,1.77,7.43h-7.25l-1.77-7.43Zm1.91,8,1.77,7.44h-7.25l-1.77-7.44Zm1.91,8L374,802.3h-7.24L365,794.87Zm.59,0h7.25l1.77,7.43H374.6Zm7.84,0h7.25l1.77,7.43h-7.25Zm7.84,0h7.25l1.77,7.43h-7.25Zm7.84,0h7.24l1.77,7.43h-7.24Zm7.84,0h7.24l1.77,7.43H406Zm7.83,0h7.25L421,802.3h-7.25Zm-.14-.6-1.77-7.44h7.24l1.78,7.44Zm-1.91-8-1.77-7.43h7.24l1.77,7.43Zm-1.91-8-1.78-7.44h7.25l1.77,7.44Zm-1.92-8-1.77-7.44h7.25l1.77,7.44Zm-1.91-8-1.77-7.44h7.24l1.78,7.44Zm-1.91-8-1.77-7.44h7.24l1.77,7.44Zm-.59,0h-7.25l-1.77-7.44H400Zm-7.84,0h-7.25l-1.77-7.44h7.25Zm-7.84,0H378.8L377,746.68h7.25Zm-7.84,0H371l-1.78-7.44h7.25Zm-7.84,0h-7.24l-1.78-7.44h7.25Zm-7.83,0h-7.25l-1.77-7.44h7.25Zm-7.84,0h-7.25l-1.77-7.44h7.25Zm.14.59,1.77,7.44h-7.25l-1.77-7.44Zm1.92,8,1.77,7.44h-7.25l-1.78-7.44Zm1.91,8,1.77,7.44h-7.25l-1.77-7.44Zm1.91,8,1.77,7.43H355.1l-1.77-7.43Zm1.91,8,1.77,7.44H357l-1.77-7.44Zm1.91,8,1.78,7.43h-7.25l-1.78-7.43Zm1.92,8,1.77,7.43h-7.25l-1.77-7.43Zm.59,0h7.24l1.77,7.43h-7.24Zm7.83,0H382l1.77,7.43h-7.25Zm7.84,0h7.25l1.77,7.43h-7.25Zm7.84,0h7.25l1.77,7.43h-7.25Zm7.84,0h7.24l1.78,7.43H400Zm7.84,0h7.24l1.77,7.43h-7.24Zm7.83,0h7.25l1.77,7.43h-7.24Zm7.84,0H429l1.78,7.43h-7.25Zm-.14-.6-1.77-7.43h7.24l1.78,7.43Zm-1.92-8-1.77-7.44h7.25l1.77,7.44Zm-1.91-8L416,778.81h7.25l1.77,7.43Zm-1.91-8-1.77-7.44h7.25l1.77,7.44Zm-1.91-8-1.77-7.44h7.24l1.77,7.44Zm-1.91-8-1.78-7.44h7.25l1.77,7.44Zm-1.91-8-1.78-7.44h7.25l1.77,7.44Zm-1.92-8-1.77-7.44h7.25l1.77,7.44Zm-.59,0H400.4l-1.77-7.44h7.25Zm-7.84,0h-7.24l-1.77-7.44H398Zm-7.83,0h-7.25L383,738.65h7.25Zm-7.84,0h-7.25l-1.77-7.44h7.25Zm-7.84,0h-7.25l-1.77-7.44h7.25Zm-7.84,0h-7.24l-1.78-7.44h7.25Zm-7.83,0h-7.25l-1.77-7.44h7.24Zm-7.84,0h-7.25l-1.77-7.44H351Zm-7.84,0H337.7l-1.77-7.44h7.25Zm.14.59,1.77,7.44h-7.25l-1.77-7.44Zm1.91,8,1.77,7.44h-7.24l-1.77-7.44Zm1.92,8,1.77,7.44h-7.25l-1.77-7.44Zm1.91,8,1.77,7.44h-7.25l-1.77-7.44Zm1.91,8,1.77,7.43h-7.25l-1.77-7.43Zm1.91,8,1.77,7.44h-7.24l-1.78-7.44Zm1.92,8,1.77,7.43h-7.25l-1.77-7.43Zm1.91,8,1.77,7.43H353l-1.77-7.43Zm1.91,8,1.77,7.43h-7.25l-1.77-7.43Zm.59,0h7.25l1.77,7.43h-7.25Zm7.84,0h7.25l1.76,7.43h-7.24Zm7.83,0h7.25l1.77,7.43h-7.24Zm7.84,0h7.25l1.77,7.43h-7.24Zm7.84,0h7.25l1.77,7.43H394.1Zm7.84,0h7.25l1.77,7.43h-7.25Zm7.84,0h7.24l1.77,7.43h-7.24Zm7.84,0h7.24l1.77,7.43h-7.24Zm7.83,0h7.25l1.77,7.43h-7.25Zm14.95-.6h-7.25l-1.77-7.43h7.24Zm-1.92-8h-7.24l-1.77-7.43H435Zm-1.91-8h-7.25l-1.77-7.44H433Zm-1.91-8h-7.25l-1.77-7.43h7.25Zm-1.91-8h-7.25L422,770.77h7.25Zm-1.91-8h-7.25l-1.77-7.44h7.24Zm-1.92-8h-7.24l-1.78-7.44h7.25Zm-1.91-8H418l-1.77-7.44h7.25Zm-1.91-8h-7.25l-1.77-7.44h7.24Zm-3.69-15.47,1.78,7.44h-7.25l-1.77-7.44Zm-7.84,0,1.78,7.44h-7.25l-1.77-7.44Zm-7.83,0,1.77,7.44h-7.25l-1.77-7.44Zm-7.84,0,1.77,7.44h-7.24l-1.78-7.44Zm-7.84,0,1.77,7.44h-7.24l-1.77-7.44Zm-7.83,0,1.77,7.44H375l-1.77-7.44Zm-7.84,0,1.77,7.44h-7.25l-1.77-7.44Zm-7.84,0,1.77,7.44H359.3l-1.77-7.44Zm-7.84,0,1.77,7.44h-7.25l-1.76-7.44Zm-7.84,0,1.78,7.44h-7.25l-1.77-7.44Zm-7.83,0,1.77,7.44h-7.25L334,730.62Zm-15.09,0h7.25l1.77,7.44H328Zm1.92,8h7.24l1.77,7.44h-7.24Zm1.91,8h7.24l1.78,7.44h-7.25Zm1.91,8h7.25l1.77,7.44h-7.25Zm1.91,8h7.25l1.77,7.44h-7.24Zm1.91,8H343l1.77,7.44h-7.24Zm1.92,8h7.24l1.77,7.43h-7.24Zm1.91,8h7.25l1.77,7.44h-7.25Zm1.91,8h7.25l1.77,7.43h-7.25Zm1.91,8h7.25l1.77,7.43h-7.24Zm1.92,8h7.24l1.78,7.43h-7.25ZM349,826.39,347.22,819h7.25l1.77,7.43Zm7.84,0L355.05,819h7.25l1.77,7.43Zm7.83,0L362.89,819h7.25l1.77,7.43Zm7.84,0L370.73,819H378l1.77,7.43Zm7.84,0L378.57,819h7.24l1.77,7.43Zm7.84,0L386.41,819h7.24l1.78,7.43Zm7.83,0L394.24,819h7.25l1.77,7.43Zm7.84,0L402.08,819h7.25l1.77,7.43Zm7.84,0L409.92,819h7.25l1.77,7.43Zm7.84,0L417.76,819H425l1.77,7.43Zm7.84,0L425.59,819h7.25l1.77,7.43Zm7.83,0L433.43,819h7.25l1.77,7.43Z" transform="translate(20.05 131.81)"/></g><path class="cls-29" d="M370.09,797.26c-3.24-9-6.17-18.23-10-27-.12-.25-.52-.07-.45.19s.11.36.17.54a.32.32,0,0,0-.49.09c-4.28,8.73,1.07,22.4,10,26.25a.69.69,0,0,1,0,.1C369.49,798,370.27,797.75,370.09,797.26Zm-10.22-25.85c2.53,8.43,5.92,16.7,9,25C361.2,791,356.53,780.45,359.87,771.41Z" transform="translate(20.05 131.81)"/><path class="cls-29" d="M386.56,798.55c-1.57-5.55-3.48-11-5.52-16.4a.43.43,0,0,0,0,0c.21-.62-.75-.87-1-.27s-.47,1.27-.7,1.9c-.62,0-1.24,0-1.86,0-.07,0-.07.1,0,.11h1.81l-1,2.7-1.44.14c-.08,0-.09.13,0,.13l1.39-.14c-.33.91-.67,1.82-1,2.73a6.93,6.93,0,0,1-1.44,0c-.06,0-.06.09,0,.09a6.48,6.48,0,0,0,1.39.06c-.29.8-.59,1.59-.88,2.39h-2.41a.06.06,0,0,0,0,.11h2.37c-.35.95-.7,1.89-1,2.83a5.06,5.06,0,0,0-2.2.43c-.05,0,0,.1,0,.08a5.4,5.4,0,0,1,2.13-.39l-.88,2.49-2.3.19a0,0,0,1,0,0,.09l2.27-.19c-.15.44-.31.87-.46,1.31a.31.31,0,0,0,.12.34.3.3,0,0,0,.24.39,24.33,24.33,0,0,0,11.75.09.44.44,0,0,0,.32-.62A.45.45,0,0,0,386.56,798.55Zm-12,.42a160.55,160.55,0,0,0,6.18-15.91c1.42,5.3,3,10.57,4.85,15.73A33.21,33.21,0,0,1,374.55,799Z" transform="translate(20.05 131.81)"/><path class="cls-29" d="M381.67,752.06c-14.09-1-27.61,11.6-27.5,25.69.11,13.42,9.64,27.67,24.46,26a.55.55,0,0,0,.34.13c13.47.32,25.74-9.72,26.69-23.45S395.85,753.07,381.67,752.06Zm22.56,23.63a12.4,12.4,0,0,0-2.79.11,19.29,19.29,0,0,0-.37-2.38,16.14,16.14,0,0,0,2.7-.25A23.76,23.76,0,0,1,404.23,775.69Zm-1.8-6.62c.25.59.48,1.19.68,1.8-.87,0-1.74,0-2.61,0-.08,0-.08.12,0,.13.89,0,1.77,0,2.66,0,.21.66.41,1.32.57,2-.9.11-1.79.19-2.69.25a21,21,0,0,0-1.34-4.13c.9,0,1.8,0,2.7,0C402.42,769.11,402.42,769.09,402.43,769.07Zm-10.35,25.64H392c.45-1,.91-2.08,1.36-3.15h0c2.76-6.47,5.45-13.64,6.1-20.41,2,9.42-.05,18.06-7.88,24.49l.35-.8h.09A.06.06,0,0,0,392.08,794.71ZM402.39,769c-.92-.05-1.84,0-2.76,0v0a.41.41,0,0,0-.1-.22c-.06-.12-.11-.25-.16-.37a.28.28,0,0,0-.52.21c0,.06,0,.12,0,.18a.35.35,0,0,0-.06.14c0,.09,0,.18-.07.28-1,0-2.08,0-3.12,0a.07.07,0,1,0,0,.13c1,0,2.06,0,3.08,0-.06.29-.13.58-.19.87a14.24,14.24,0,0,0-2.92.18,0,0,0,0,0,0,.09,18.24,18.24,0,0,1,2.86-.1c-.17.74-.35,1.47-.53,2.2l-1.9.18c-.1,0-.1.18,0,.17.62-.06,1.24-.1,1.85-.17-.24,1-.5,1.94-.77,2.91a8.22,8.22,0,0,1-1.92,0c-.11,0-.11.16,0,.17a6.51,6.51,0,0,0,1.87,0c-.32,1.14-.64,2.29-1,3.42h-1.73c-.11,0-.11.18,0,.19h1.67c-.43,1.42-.87,2.84-1.34,4.25a3.42,3.42,0,0,1-1.36-.21c-.1,0-.15.13,0,.17a3.78,3.78,0,0,0,1.33.25c-.39,1.2-.79,2.4-1.19,3.6a4.57,4.57,0,0,1-1.59-.17h0a45.24,45.24,0,0,0,2.54-10.49,10,10,0,0,0-.26-4c-.3-1-2-3.53-2.75-5.84,3.29.16,6.67.17,10,0a.08.08,0,0,0,.08-.07C401.77,767.61,402.1,768.29,402.39,769Zm-15.5-3a.48.48,0,0,0-.7-.5,34.76,34.76,0,0,0-6.37,0l-3.24.13c-.83,0-3.19.6-3.83-.07a.25.25,0,0,0-.27-.06.4.4,0,0,0-.42.17,2.57,2.57,0,0,0-.21,1.35,6.36,6.36,0,0,0,.16,1.44s0,0,.05.07a.33.33,0,0,0,.12.3c.81.64,2.3.38,3.3.07a31.21,31.21,0,0,0,2.41,8.65,38.34,38.34,0,0,0-2.09,5.72,34.75,34.75,0,0,0-1.38,4.48c-2.18-6.23-4.57-12.43-6.88-18.61.38.06.75.13,1.13.18s1,.25,1.4-.13l0,0a.42.42,0,0,0,.44-.43c0-.77,0-1.54,0-2.32a.56.56,0,0,0-.24-.45.38.38,0,0,0-.33-.34,39.21,39.21,0,0,0-6.5-.3c8.3-8.12,19.11-9.41,29.09-3.46-2.25.61-3,2.83-2.37,5.28,1,3.88,3.41,6,2.92,10.48a66.35,66.35,0,0,1-2.83,11.52A152.87,152.87,0,0,0,383.55,769a4.15,4.15,0,0,0,2.81,0,.38.38,0,0,0,.18-.33.4.4,0,0,0,.26-.33C386.94,767.53,386.77,766.72,386.89,765.94Zm7.94,31.6s0,0,0,0a53.86,53.86,0,0,1-6.33.64.07.07,0,0,0,0,.14,27.8,27.8,0,0,0,6.1-.59,24.37,24.37,0,0,1-3,1.91,38.23,38.23,0,0,1-6.24.35.06.06,0,0,0,0,.11,35.1,35.1,0,0,0,5.71-.19A26.17,26.17,0,0,1,379,802.72a.52.52,0,0,0-.46.24C364,801.69,354.58,791,355.34,776c.68-13.37,14.76-24.8,27.89-22.58a24.26,24.26,0,0,1,3.43.87c-.94-.06-1.88-.09-2.82-.1a.06.06,0,1,0,0,.12c1.2,0,2.38.13,3.57.24a25.79,25.79,0,0,1,3.26,1.47c-1.22-.06-2.45-.1-3.67-.14-.09,0-.08.13,0,.13,1.32.07,2.64.13,4,.17a26.36,26.36,0,0,1,3,1.93c-1.46-.07-2.92-.1-4.38-.16a.07.07,0,0,0,0,.14c1.53.06,3.07.15,4.61.2a26.14,26.14,0,0,1,2.19,1.88,7.23,7.23,0,0,1-3,0s-.06.05,0,.07a5.17,5.17,0,0,0,3.16.1,28.18,28.18,0,0,1,2.25,2.51,30,30,0,0,0-5.19.26c-.07,0-.08.13,0,.12,1.78-.17,3.55-.17,5.34-.2a27.81,27.81,0,0,1,2.49,3.85h0c-3.3-.14-6.69-.13-10,0-.65-2.08-.47-3.93,2.28-4.19.65-.07.68-1.08,0-1.05l-.18,0a.53.53,0,0,0-.18-.66,22.52,22.52,0,0,0-30.45,3.81.39.39,0,0,0,0,.5.56.56,0,0,0,.17,1.09c2.15,0,4.3-.08,6.45-.13a.15.15,0,0,0,0,.07,6.72,6.72,0,0,0,.1,1.94l-.61-.07c-.59-.06-1.16-.12-1.75-.16-.4,0-.57.48-.4.76a127.68,127.68,0,0,0,7.47,20.75c.2.43.93.13.77-.32l-.12-.34a20.3,20.3,0,0,0,2-5,39.93,39.93,0,0,0,1.84-6.19.37.37,0,0,0,.09-.39,85.12,85.12,0,0,0-2.48-8.67.45.45,0,0,0-.28-.24.37.37,0,0,0-.34-.44c-.61-.06-1.22-.07-1.83-.09a4.49,4.49,0,0,0-1.16,0c0-.33,0-.66,0-1s.05-.37.08-.56c1.11.69,3.26.21,4.33.19,2.84-.06,6,.15,8.77-.45a4,4,0,0,0-.1,2,11.52,11.52,0,0,0-1.18,0q-.9,0-1.8-.06a.44.44,0,0,0-.3.51,151.2,151.2,0,0,0,7.43,21.56.25.25,0,0,0,.36.13.43.43,0,0,0,.57-.25c.32-.85.63-1.71.93-2.57h0a4.42,4.42,0,0,0,1.57.21l-1.35,4-1.48.24c-.09,0-.05.16.05.15l1.38-.23c-.31.91-.62,1.82-.92,2.74a15.75,15.75,0,0,0-2.38-.11c-.08,0-.08.14,0,.14a22.58,22.58,0,0,1,2.33.11l-.47,1.41a.4.4,0,0,0,.38.48.75.75,0,0,0,1.17.38c.44-.35.86-.73,1.28-1.11,1.13,0,2.27,0,3.41,0A23.52,23.52,0,0,1,394.83,797.54Zm2.15-1.81c-1.14,0-2.29,0-3.43,0a24.88,24.88,0,0,0,2.56-2.78,8.51,8.51,0,0,0,3.58-.38c.1,0,.07-.19,0-.16a11.34,11.34,0,0,1-3.42.38c.51-.64,1-1.32,1.41-2a27.11,27.11,0,0,1,3.37,0A24.42,24.42,0,0,1,397,795.73Zm4.1-5.05c-.76,0-1.52,0-2.28,0-.29,0-.68-.06-1.05,0a26.42,26.42,0,0,0,1.72-3.24,10.19,10.19,0,0,0,3.26,0A24.07,24.07,0,0,1,401.08,790.68Zm1.76-3.54a12.86,12.86,0,0,1-3.28,0,23.77,23.77,0,0,0,1.2-3.44,13.24,13.24,0,0,0,3.07.22A24,24,0,0,1,402.84,787.14Zm1.53-6.71a23.4,23.4,0,0,1-.51,3.4c-1-.07-2-.14-3.05-.27a25.49,25.49,0,0,0,.56-3,9.06,9.06,0,0,0,2.75-.15.08.08,0,0,0,0-.15c-.91,0-1.8.12-2.7.09.07-.63.1-1.26.12-1.89,1,.07,1.94.14,2.91.18C404.43,779.22,404.42,779.83,404.37,780.43Zm-2.84-2.21c0-.75,0-1.5-.07-2.25a18.71,18.71,0,0,1,2.8-.07,23,23,0,0,1,.17,2.5C403.47,778.31,402.49,778.26,401.53,778.22Z" transform="translate(20.05 131.81)"/><path class="cls-29" d="M388,800.93a26.55,26.55,0,0,1-8,.51.06.06,0,0,0,0,.11,18.11,18.11,0,0,0,8.05-.48A.07.07,0,0,0,388,800.93Z" transform="translate(20.05 131.81)"/><path class="cls-29" d="M399.23,765c-2.67,0-5.34,0-8,0-.05,0-.05.09,0,.09,2.67,0,5.34.06,8,0A.07.07,0,1,0,399.23,765Z" transform="translate(20.05 131.81)"/></g></g></svg>