<svg xmlns="http://www.w3.org/2000/svg" viewBox="0 0 1122.8 1175.02"><defs><style>.cls-1{isolation:isolate;}.cls-2{fill:#fffaf8;}.cls-3{fill:#c9eefa;}.cls-4{fill:#e6a749;}.cls-5{fill:#f4bb61;}.cls-6{fill:#d4902b;}.cls-7{fill:#1f366d;}.cls-17,.cls-8{fill:#bec4e8;}.cls-9{fill:#001630;}.cls-10{fill:#063d71;}.cls-11,.cls-12{fill:#fff;}.cls-11{opacity:0.4;}.cls-13{fill:#ee5f3e;}.cls-14{fill:#6477ff;}.cls-15{fill:#054c90;}.cls-16{fill:#b42f69;}.cls-17,.cls-20{mix-blend-mode:multiply;}.cls-18{fill:#42292c;}.cls-19{fill:#0f94d2;}.cls-20{fill:#0178b0;opacity:0.2;}.cls-21{fill:#91184d;}.cls-22{fill:#2eb4f3;}.cls-23{fill:#65cdfe;}.cls-24{fill:#021324;}.cls-25{fill:#04356e;}.cls-26{fill:#ffc9b6;}.cls-27{fill:#fdaa8c;}.cls-28{fill:#4155e5;}.cls-29{fill:#ff6e53;}.cls-30{fill:#ededed;}</style></defs><title>lp-web-e-commerce</title><g class="cls-1"><g id="Layer_1" data-name="Layer 1"><path class="cls-2" d="M319.05,205.48c-26.94-32.51,5.6-75-33.16-96.66-36.41-20.32-99.41,33.55-133.84,26.52C121,129,125,57.41,95.37,46.94,52.62,31.84,16.27,57.79-21.4,33.78v256c46.45,20.36,90.82-46.76,193-11.54,11.89,4.09,44.46,35.3,86.36,33.91,24.12-.8,48.26-22.85,58.42-33.49C325,269.59,408,292,408,265.21,408,243.74,333.85,223.33,319.05,205.48Z" transform="translate(21.4 95.02)"/><path class="cls-2" d="M790.6,76.68c24.6-32.51-5.11-75,30.27-96.66C854.11-40.3,911.63,13.57,943.06,6.54,971.44.2,967.75-71.39,994.8-81.86,1033.83-97,1067-71,1101.4-95V161c-42.41,20.36-82.91-46.76-176.17-11.54-10.84,4.09-40.58,35.3-78.83,33.91-22-.8-44-22.85-53.33-33.49-7.93-9.08-83.67,13.37-83.67-13.46C709.4,114.94,777.09,94.53,790.6,76.68Z" transform="translate(21.4 95.02)"/><path class="cls-2" d="M831.13-20.4A16.08,16.08,0,0,0,815.05-4.32a16.08,16.08,0,0,0,16.08,16.08A16.08,16.08,0,0,0,847.21-4.32,16.08,16.08,0,0,0,831.13-20.4Z" transform="translate(21.4 95.02)"/><path class="cls-2" d="M772.56,313.5a16.08,16.08,0,1,0-12.47,29.64c8.18,3.44,25.41,3.58,28.86-4.6S780.74,316.94,772.56,313.5Z" transform="translate(21.4 95.02)"/><path class="cls-3" d="M1026.54,618.41c-19.62,0-35.72-61.64-41.34-61.64-15.26,0-49.35,49-60.69,58.1s-28.33,76-45.94,76c-12.14,0,.82-33.21-28.26-49.94-4.79-2.75,2.33-29.36-19.63-41.4-74.79-41-56.87-78.47-77.43-84.26-35.77-10.08-88.35,113-95,113.7-44.53,5-46.87,71-79.41,84.43-33.49,13.86-16,197.76,105.88,155.37,136-47.3,174.12-124.75,207.62-124.75,68.73,0,186,103.18,186,39.92C1078.3,760.85,1047.6,618.41,1026.54,618.41ZM772.26,740.21c-8.83,25.57-33.54,33.31-59.59,23.34-12-4.61-22.57-24.2-35.71-26-11.59-1.63-44.25,14-55.71,15.26-19.68,2.17,45.22-46.46,63.25-38.13,11.72,5.41,25.84,13.23,38.9,13,13.47-.26,25-9.41,38.1-4.79C769,725.47,775,732.42,772.26,740.21Zm51.68-42.7c-12.53-1-2.9-9.16-15.34-6.54-14.63,3.09-70.78-12.73-51.28-15.84,16.23-2.6,31.12-9.49,47.29-12.23,6-1,28.87-33.13,28.87,3.56,0,4.21-11.62,6.55-8.28,9.39C855.83,701.87,835.25,698.46,823.94,697.51Zm186.33-53.83c-6.23,3.09,7.77,13,3.69,18.47-5.23,7.09-1.3,17.37-5.9,17.68-6.12.42-18.48-11.55-14.35-19.94,4.67-9.49-.19-20.83-4-31.37-4.29-12-13.31-46.26-7.2-36.71,4,6.21,10.42,10.17,15.11,15.85,4,4.82,5.38,11.28,8.81,16.34,6.66,9.86,21.42,10.9,29.63,19.51C1044.87,652.71,1016.79,640.45,1010.27,643.68Z" transform="translate(21.4 95.02)"/><path class="cls-3" d="M500.14,660.41c-19.62,0-35.72-61.64-41.34-61.64-15.26,0-49.35,49-60.69,58.1s-28.33,76-45.94,76c-12.14,0,.82-33.21-28.26-49.94-4.79-2.75,2.33-29.36-19.63-41.4-74.79-41-56.87-78.47-77.43-84.26-35.77-10.08-88.35,113-95,113.7C87.31,676,85,742,52.43,755.44c-33.49,13.86-16,197.76,105.88,155.37,136-47.3,174.12-124.75,207.62-124.75,68.73,0,186,103.18,186,39.92C551.9,802.85,521.2,660.41,500.14,660.41ZM245.86,782.21c-8.83,25.57-33.54,33.31-59.59,23.34-12.05-4.61-22.57-24.2-35.71-26-11.59-1.63-44.25,14-55.71,15.26-19.68,2.17,45.22-46.46,63.25-38.13,11.72,5.41,25.84,13.23,38.9,13,13.47-.26,25-9.41,38.1-4.79C242.63,767.47,248.55,774.42,245.86,782.21Zm51.68-42.7c-12.53-1-2.9-9.16-15.34-6.54-14.63,3.09-70.78-12.73-51.28-15.84,16.23-2.6,31.12-9.49,47.29-12.23,6-1,28.87-33.13,28.87,3.56,0,4.21-11.62,6.55-8.28,9.39C329.43,743.87,308.85,740.46,297.54,739.51Zm186.33-53.83c-6.23,3.09,7.77,13,3.69,18.47-5.23,7.09-1.3,17.37-5.9,17.68-6.12.42-18.48-11.55-14.35-19.94,4.67-9.49-.19-20.83-4-31.37-4.29-12-13.31-46.26-7.2-36.71,4,6.21,10.42,10.17,15.11,15.85,4,4.82,5.38,11.28,8.81,16.34,6.66,9.86,21.42,10.9,29.63,19.51C518.47,694.71,490.39,682.45,483.87,685.68Z" transform="translate(21.4 95.02)"/><path class="cls-4" d="M1005.58,811.73c-38.59-6.79-32.53-55-97.51-55-98.5,0-68.08,138.55-162.68,94.05C717.31,837.63,664.85,813.34,616,872c-19,22.8-45.6,101.63-45.6,101.63h517.65S1114.62,830.93,1005.58,811.73Z" transform="translate(21.4 95.02)"/><path class="cls-5" d="M980.2,921.29c-38.59-2.64-27.52-66.65-83.86-39.68C868.6,894.9,840,943.2,745.39,925.9c-28.08-5.13-75.21-36.56-129.35,8.23-15.43,12.77-45.6,39.51-45.6,39.51h517.65S1089.23,928.76,980.2,921.29Z" transform="translate(21.4 95.02)"/><path class="cls-6" d="M1005.58,811.73c-38.59-6.79-32.53-55-97.51-55-98.5,0-68.08,138.55-162.68,94.05C717.31,837.63,664.85,813.34,616,872a65.83,65.83,0,0,0-4.55,6.31c48.53-30.88,97.72-14.08,125.39-4.46,104,36.15,69.27-88,177.59-88,71.47,0,66.12,50.67,108.56,56.19,21.07,2.75,37.53,8.6,50.36,16.36C1060.89,836.15,1040,817.79,1005.58,811.73Z" transform="translate(21.4 95.02)"/><path class="cls-4" d="M487.58,811.92C449,805.12,455.05,757,390.07,757c-98.5,0-68.08,138.54-162.68,94-28.08-13.21-80.54-37.5-129.35,21.17-19,22.8-45.6,101.63-45.6,101.63H570.09S596.62,831.12,487.58,811.92Z" transform="translate(21.4 95.02)"/><path class="cls-5" d="M462.2,921.48c-38.59-2.64-27.52-66.66-83.86-39.68C350.6,895.08,322,943.38,227.39,926.09,199.31,921,152.18,889.52,98,934.31c-15.43,12.77-45.6,39.51-45.6,39.51H570.09S571.23,928.94,462.2,921.48Z" transform="translate(21.4 95.02)"/><path class="cls-6" d="M487.58,811.92C449,805.12,455.05,757,390.07,757c-98.5,0-68.08,138.54-162.68,94-28.08-13.21-80.54-37.5-129.35,21.17a65.83,65.83,0,0,0-4.55,6.31C142,847.62,191.21,864.42,218.88,874c104,36.16,69.27-88,177.59-88,71.47,0,66.12,50.67,108.56,56.2,21.07,2.74,37.53,8.59,50.36,16.35C542.89,836.34,522,818,487.58,811.92Z" transform="translate(21.4 95.02)"/><path class="cls-3" d="M633,1036.39c-21.7-.82-30.81,20.19-56.71,21.59-8.24.45-16.3.53-24,.48A125.67,125.67,0,0,1,578,1069.59a13.08,13.08,0,0,1,7.64,2.64,13.12,13.12,0,0,1,8.27,2.93c10.53-1.89,22.84-3.07,41.18-.38,47.6,7,52.84-12.64,52.84-12.64C667.63,1069.14,654.7,1037.22,633,1036.39Z" transform="translate(21.4 95.02)"/><rect class="cls-7" x="323.77" y="630.63" width="210.61" height="438.04" rx="27.8"/><path class="cls-8" d="M498.54,556.77H316.81a6.27,6.27,0,0,0-6.34,6.12V944.31a20.06,20.06,0,0,0,20,20H485.66a19.21,19.21,0,0,0,19.22-19.22V562.86A6.27,6.27,0,0,0,498.54,556.77Z" transform="translate(21.4 95.02)"/><path class="cls-9" d="M298.25,635.4v47.31a4.13,4.13,0,0,0,4.12,4.12V631.28A4.13,4.13,0,0,0,298.25,635.4Z" transform="translate(21.4 95.02)"/><path class="cls-7" d="M513,705v55.54a4.13,4.13,0,0,0,4.12-4.12v-47.3A4.13,4.13,0,0,0,513,705Z" transform="translate(21.4 95.02)"/><path class="cls-7" d="M513,634v55.55a4.13,4.13,0,0,0,4.12-4.12V638.09A4.13,4.13,0,0,0,513,634Z" transform="translate(21.4 95.02)"/><path class="cls-7" d="M513,586.64v18.88a4.13,4.13,0,0,0,4.12-4.12V590.77A4.13,4.13,0,0,0,513,586.64Z" transform="translate(21.4 95.02)"/><rect class="cls-10" x="510.73" y="662.49" width="1.61" height="3.67"/><rect class="cls-10" x="512.8" y="662.49" width="1.61" height="3.67"/><rect class="cls-10" x="514.88" y="662.49" width="1.61" height="3.67"/><rect class="cls-10" x="516.95" y="662.49" width="1.61" height="3.67"/><rect class="cls-10" x="519.02" y="663.21" width="0.81" height="2.23"/><path class="cls-10" d="M479.51,570.6a.78.78,0,1,0,.78.78A.78.78,0,0,0,479.51,570.6Z" transform="translate(21.4 95.02)"/><path class="cls-10" d="M479.51,568.48a3.54,3.54,0,0,0-2,.64.53.53,0,0,0-.06.8.52.52,0,0,0,.67.06,2.48,2.48,0,0,1,2.82,0,.52.52,0,0,0,.6-.86A3.48,3.48,0,0,0,479.51,568.48Z" transform="translate(21.4 95.02)"/><path class="cls-10" d="M479.51,566.46a5.48,5.48,0,0,0-3.47,1.23.52.52,0,0,0-.05.78.51.51,0,0,0,.71,0,4.52,4.52,0,0,1,5.62,0,.51.51,0,0,0,.71,0,.52.52,0,0,0,0-.78A5.5,5.5,0,0,0,479.51,566.46Z" transform="translate(21.4 95.02)"/><path class="cls-10" d="M317.22,566.8c-.87,0-1.48.78-1.48,2.21s.58,2.2,1.41,2.2,1.48-.8,1.48-2.25S318.12,566.8,317.22,566.8Zm0,4c-.52,0-.86-.63-.86-1.74s.36-1.78.87-1.78.86.69.86,1.74S317.77,570.76,317.18,570.76Z" transform="translate(21.4 95.02)"/><path class="cls-10" d="M321.14,568.87v0a1.06,1.06,0,0,0,.7-1,1.09,1.09,0,0,0-1.24-1.05,1.19,1.19,0,0,0-1.32,1.13,1,1,0,0,0,.68,1v0a1.21,1.21,0,0,0-.85,1.14c0,.63.54,1.16,1.43,1.16A1.31,1.31,0,0,0,322,570,1.16,1.16,0,0,0,321.14,568.87Zm-1.31-1a.67.67,0,0,1,.74-.68.66.66,0,0,1,.72.7.84.84,0,0,1-.65.77C320.15,568.55,319.83,568.32,319.83,567.89Zm.74,2.9a.79.79,0,0,1-.86-.82.94.94,0,0,1,.77-.88c.58.17.94.42.94.94A.77.77,0,0,1,320.57,570.79Z" transform="translate(21.4 95.02)"/><path class="cls-10" d="M323,570.38a.42.42,0,1,0,.39.41A.38.38,0,0,0,323,570.38Z" transform="translate(21.4 95.02)"/><path class="cls-10" d="M325.33,566.8c-.86,0-1.48.78-1.48,2.21s.58,2.2,1.41,2.2,1.48-.8,1.48-2.25S326.23,566.8,325.33,566.8Zm0,4c-.53,0-.87-.63-.87-1.74s.37-1.78.87-1.78.87.69.87,1.74S325.88,570.76,325.3,570.76Z" transform="translate(21.4 95.02)"/><path class="cls-10" d="M328.71,566.8c-.87,0-1.49.78-1.49,2.21s.58,2.2,1.42,2.2,1.48-.8,1.48-2.25S329.61,566.8,328.71,566.8Zm0,4c-.53,0-.87-.63-.87-1.74s.37-1.78.88-1.78.86.69.86,1.74S329.26,570.76,328.67,570.76Z" transform="translate(21.4 95.02)"/><path class="cls-11" d="M434.8,950.08H377.08a3.1,3.1,0,1,0,0,6.19H434.8a3.1,3.1,0,1,0,0-6.19Z" transform="translate(21.4 95.02)"/><path class="cls-12" d="M384.4,543.8a2.73,2.73,0,1,0,2.73,2.73A2.72,2.72,0,0,0,384.4,543.8Z" transform="translate(21.4 95.02)"/><path class="cls-12" d="M418.75,545h-24.3a1.58,1.58,0,1,0,0,3.11h24.3a1.58,1.58,0,1,0,0-3.11Z" transform="translate(21.4 95.02)"/><polygon class="cls-13" points="343.99 832.17 394.91 832.17 395.57 783.74 343.99 783.74 343.99 832.17"/><polygon class="cls-14" points="402.39 832.17 454.73 832.17 455.38 783.74 403.04 783.74 402.39 832.17"/><polygon class="cls-15" points="462.21 832.17 513.98 832.17 513.98 783.74 462.86 783.74 462.21 832.17"/><polygon class="cls-15" points="343.99 887 394.56 887 395.22 838.57 343.99 838.57 343.99 887"/><polygon class="cls-15" points="402.04 887 454.38 887 455.03 838.57 402.69 838.57 402.04 887"/><polygon class="cls-13" points="461.86 887 513.98 887 513.98 838.57 462.51 838.57 461.86 887"/><polygon class="cls-15" points="343.99 941.82 394.67 941.82 395.31 893.39 343.99 893.39 343.99 941.82"/><polygon class="cls-16" points="402.14 941.82 454.48 941.82 455.13 893.39 402.79 893.39 402.14 941.82"/><polygon class="cls-15" points="461.96 941.82 513.98 941.82 513.98 893.39 462.61 893.39 461.96 941.82"/><path class="cls-17" d="M349.11,614.72l-38.64-14.4v14.4l18.86,28.78h0c-.74,7.92,4.17,14.37,10.94,14.37s12.8-6.45,13.44-14.37h0v0l0,0h0c-.74,7.92,4.18,14.37,10.94,14.37s12.8-6.45,13.45-14.37c-.74,7.92,4.18,14.37,10.94,14.37s12.81-6.45,13.45-14.37h0c-.73,7.92,4.18,14.37,10.95,14.37s12.7-6.36,13.42-14.21c-.66,7.85,4.22,14.21,10.94,14.21s12.81-6.45,13.45-14.37h0c-.74,7.92,4.18,14.37,10.94,14.37s12.8-6.45,13.45-14.37c-.74,7.92,4.17,14.37,10.94,14.37s12.8-6.45,13.45-14.37h0c-.74,7.92,4.18,14.37,10.95,14.37a11.58,11.58,0,0,0,6.08-1.87V632.26l-11.49-17.54Z" transform="translate(21.4 95.02)"/><polygon class="cls-17" points="448.31 738.52 448.32 738.52 448.31 738.5 448.31 738.52"/><polygon class="cls-12" points="429.46 695.35 448.32 724.13 472.71 724.13 453.85 695.35 429.46 695.35"/><polygon class="cls-13" points="453.85 695.35 472.71 724.13 497.1 724.13 478.24 695.35 453.85 695.35"/><polygon class="cls-12" points="478.24 695.35 497.1 724.13 521.49 724.13 502.63 695.35 478.24 695.35"/><polygon class="cls-13" points="502.63 695.35 521.49 724.13 545.88 724.13 527.02 695.35 502.63 695.35"/><path class="cls-18" d="M511,643.48c6.76,0,12.8-6.45,13.44-14.38H500.08C499.34,637,504.26,643.48,511,643.48Z" transform="translate(21.4 95.02)"/><path class="cls-3" d="M486.62,643.48c6.76,0,12.8-6.45,13.45-14.38H475.68C474.94,637,479.85,643.48,486.62,643.48Z" transform="translate(21.4 95.02)"/><path class="cls-18" d="M462.23,643.48c6.76,0,12.8-6.45,13.45-14.38H451.29C450.55,637,455.47,643.48,462.23,643.48Z" transform="translate(21.4 95.02)"/><path class="cls-3" d="M437.82,643.48c6.77,0,12.81-6.45,13.45-14.38H426.88C426.14,637,431.06,643.48,437.82,643.48Z" transform="translate(21.4 95.02)"/><polygon class="cls-13" points="356.28 695.35 375.14 724.13 399.53 724.13 380.67 695.35 356.28 695.35"/><polygon class="cls-12" points="380.67 695.35 399.53 724.13 423.92 724.13 405.06 695.35 380.67 695.35"/><polygon class="cls-13" points="405.06 695.35 423.92 724.13 448.31 724.13 429.45 695.35 405.06 695.35"/><polygon class="cls-12" points="331.87 695.35 350.73 724.13 375.12 724.13 356.26 695.35 331.87 695.35"/><path class="cls-3" d="M340.27,643.48c6.76,0,12.8-6.45,13.44-14.38H329.33C328.59,637,333.5,643.48,340.27,643.48Z" transform="translate(21.4 95.02)"/><path class="cls-18" d="M413.46,643.48c6.76,0,12.8-6.45,13.44-14.38H402.51C401.78,637,406.69,643.48,413.46,643.48Z" transform="translate(21.4 95.02)"/><path class="cls-3" d="M389.05,643.48c6.77,0,12.81-6.45,13.45-14.38H378.11C377.37,637,382.29,643.48,389.05,643.48Z" transform="translate(21.4 95.02)"/><path class="cls-18" d="M364.66,643.48c6.76,0,12.8-6.45,13.45-14.38H353.72C353,637,357.9,643.48,364.66,643.48Z" transform="translate(21.4 95.02)"/><path class="cls-13" d="M754.41,927.47c-23.28,8.47-19,28.16-62.77,28.16-27.76,0-59.21-25.74-85.63-25.36-36.75.53-56.13,30.53-82.6,25.36-57.4-11.2-87.5,18-87.5,18h382.2V959.84S800.61,910.67,754.41,927.47Z" transform="translate(21.4 95.02)"/><path class="cls-19" d="M356.9,973.76h21.45c34.93-36.94,30.11-92.31,30.11-92.31C353.57,902.19,356.9,973.76,356.9,973.76Z" transform="translate(21.4 95.02)"/><path class="cls-20" d="M399.7,885.43c.33,13.33-1,57.32-30.29,88.33h8.94c34.93-36.94,30.1-92.31,30.1-92.31A73,73,0,0,0,399.7,885.43Z" transform="translate(21.4 95.02)"/><path class="cls-7" d="M408,881.06c-.14.18-7.18,9.17-15.61,25a.5.5,0,0,0-.1.19c-1.91,3.59-3.88,7.54-5.86,11.8-.48-4.79-1.51-16.39-.87-21.88a.62.62,0,0,0-1.24-.14c-.8,7,.95,23,1.09,24.23-1.69,3.73-3.38,7.7-5,11.89,0,0,0,.07,0,.1-1.56,4-3.07,8.17-4.52,12.53-1.81-4.4-6.94-18.11-5.34-28.53a.62.62,0,1,0-1.22-.19c-1.92,12.45,5.2,28.8,6,30.53-1.42,4.38-2.77,8.93-4,13.66a.09.09,0,0,0,0,0c-1.13,4.31-2.17,8.74-3.09,13.32a.61.61,0,0,0,.48.73l.13,0a.63.63,0,0,0,.61-.5c.88-4.43,1.89-8.72,3-12.9a201.12,201.12,0,0,1,20.47-6.12.62.62,0,1,0-.29-1.21,205.91,205.91,0,0,0-19.81,5.88,246.08,246.08,0,0,1,8.66-26.42,210.22,210.22,0,0,1,21.18-1.63.62.62,0,0,0,.6-.64.6.6,0,0,0-.63-.61c-9.26.22-17.72,1.19-20.64,1.56a249.53,249.53,0,0,1,11.47-24.85A93,93,0,0,1,408,903.8a.62.62,0,0,0,.56-.68.63.63,0,0,0-.68-.55,89.43,89.43,0,0,0-13.74,2.84,181.85,181.85,0,0,1,14.81-23.58.61.61,0,0,0-.1-.87A.62.62,0,0,0,408,881.06Z" transform="translate(21.4 95.02)"/><path class="cls-7" d="M360.35,944.72a.6.6,0,0,0-.67-.57.63.63,0,0,0-.57.67c.77,9.34,9.94,22.85,10.33,23.42a.64.64,0,0,0,.51.27.63.63,0,0,0,.52-1C370.37,967.4,361.1,953.73,360.35,944.72Z" transform="translate(21.4 95.02)"/><path class="cls-16" d="M411.38,973.76H425c20.1-11.51,26.11-35,26.11-35C411.38,937.68,411.38,973.76,411.38,973.76Z" transform="translate(21.4 95.02)"/><path class="cls-21" d="M419.46,973.76H425c20.1-11.51,26.11-35,26.11-35-1.94-.05-3.77,0-5.52.11C445.07,940.55,438.76,962.7,419.46,973.76Z" transform="translate(21.4 95.02)"/><path class="cls-18" d="M442.94,944.86a54.61,54.61,0,0,0-9.53,6,.28.28,0,0,0-.11.08c-1.43,1.11-2.93,2.37-4.42,3.78.14-1.68.61-6,2.09-7.85a.29.29,0,0,0-.05-.4.28.28,0,0,0-.4,0c-1.87,2.36-2.22,8.11-2.25,8.79a47.52,47.52,0,0,0-4.39,4.88.12.12,0,0,0-.06.08,40.2,40.2,0,0,0-2.54,3.62c-.27-1.94-.81-7.32.65-12a.28.28,0,1,0-.54-.17c-1.75,5.58-.71,12.14-.57,12.91a38,38,0,0,0-2.25,4.41l0,.05c-.36.84-.7,1.71-1,2.6a.28.28,0,0,0,.18.36h.09a.28.28,0,0,0,.27-.19c.28-.84.6-1.65.94-2.44a31.61,31.61,0,0,1,9.21-.89.28.28,0,0,0,.3-.26.28.28,0,0,0-.27-.3,32.53,32.53,0,0,0-9,.79,39.89,39.89,0,0,1,4.92-8.13c1-.08,6.77-.5,10.86.56h.08a.28.28,0,0,0,.27-.21.28.28,0,0,0-.2-.35,37.48,37.48,0,0,0-10.53-.62,53.67,53.67,0,0,1,9-8.68,32.8,32.8,0,0,1,7,.25h0a.28.28,0,0,0,.28-.25.27.27,0,0,0-.24-.32,33.75,33.75,0,0,0-6.3-.32,54.76,54.76,0,0,1,8.67-5.35.28.28,0,0,0,.14-.38A.27.27,0,0,0,442.94,944.86Z" transform="translate(21.4 95.02)"/><path class="cls-22" d="M354.51,910.54c-.33-4.07-2.77-7.13-4.83-10.49a17.17,17.17,0,0,1-2.49-11.39c1-8.34,6.47-15.92,5.57-24.51-.69-6.76-5.85-12.34-13-10.71-7.38,1.7-11.2,8.57-12.52,15.51-1.57,8-.48,16.53-3.34,24.33-2.54,6.93-10.19,11.67-10.21,19.53,0,4.53,2,8.77,3.36,13a22.17,22.17,0,0,1,1.23,7.13c0,2.22-.92,3.5-2,5.37a36.66,36.66,0,0,0-4.4,22.88c1.35,4.67,3.67,9.38,7.29,12.56H352a10.84,10.84,0,0,0,3.81-8.51c-.23-9.71-7.81-17.41-8.45-27C346.67,928.3,355.36,920.44,354.51,910.54Z" transform="translate(21.4 95.02)"/><path class="cls-23" d="M330.7,859.81c-3.52,5.34-4.1,12-4.49,18.43s-.75,13.07-4,18.59c-2.62,4.47-7,8-8.22,13.08-1,4.36.55,8.74,2.08,13.11.57,1.63,1.13,3.27,1.54,4.89a15.36,15.36,0,0,1,.24,7.9,35.63,35.63,0,0,0-6,25.39A27.15,27.15,0,0,0,318.37,973a18,18,0,0,1-.58-4.16c.42-6.14,6.26-23.15,5.59-25.93a47.54,47.54,0,0,1-1.75-12.14,27.44,27.44,0,0,1,3.2-12.18c1.5-2.93,4.65-5.78,5.64-8.88,6.7-20.89-12.77-35.13,18.5-53.94a10.07,10.07,0,0,0-1.72-1.32C341.73,851.19,334.23,854.47,330.7,859.81Z" transform="translate(21.4 95.02)"/><path class="cls-12" d="M340.92,857.73c-3.82,3.5-3.65,9.3-2.85,13.54.19,1.05.45,2.11.69,3.15.76,3.37,1.56,6.85.95,10.21a26.66,26.66,0,0,1-2.94,7.2,26,26,0,0,0-3.08,7.56c-.59,3.22,0,6.46.55,9.59a28.42,28.42,0,0,1,.66,8.55,29.71,29.71,0,0,1-1.87,6.18,32.75,32.75,0,0,0-1.83,5.68c-1.08,5.64.86,11.42,2.89,16.32.31.76.62,1.49,1,2.23,1.8,4.24,3.65,8.6,4,13.17.35,4.4-1.19,10-5.28,12.65H336c3.46-3.15,4.76-8.37,4.41-12.77-.38-4.78-2.3-9.24-4.15-13.57l-.92-2.21c-2-4.73-3.84-10.27-2.82-15.58a33.87,33.87,0,0,1,1.75-5.45,21.59,21.59,0,0,0,1.28-15.44c-.57-3.15-1.09-6.13-.54-9.09a25.37,25.37,0,0,1,2.94-7.2,26.25,26.25,0,0,0,3.07-7.58c.67-3.63-.16-7.25-1-10.75-.23-1-.47-2.06-.66-3.11-.62-3.19-1.09-9,2.44-12.31a.68.68,0,0,0,0-1A.66.66,0,0,0,340.92,857.73Z" transform="translate(21.4 95.02)"/><path class="cls-13" d="M279.24,942.38s17.1,6.38,24.75,31.38h2.07S297.39,947.27,279.24,942.38Z" transform="translate(21.4 95.02)"/><path class="cls-13" d="M261.89,946s13.35,3.79,21.38-2.1C283.27,943.87,273.06,937.59,261.89,946Z" transform="translate(21.4 95.02)"/><path class="cls-13" d="M291.51,950.69a20.3,20.3,0,0,0-2.7-19.2C283.23,944.78,291.51,950.69,291.51,950.69Z" transform="translate(21.4 95.02)"/><path class="cls-13" d="M287.79,952.38s11.65,4.35,16.86,21.38h1.41S300.15,955.7,287.79,952.38Z" transform="translate(21.4 95.02)"/><path class="cls-13" d="M275.66,957.67s9.45.31,13.8-4.9C289.46,952.77,281.67,950.29,275.66,957.67Z" transform="translate(21.4 95.02)"/><path class="cls-13" d="M297.37,959.51a13.83,13.83,0,0,0,2.69-12.94C293.42,953.81,297.37,959.51,297.37,959.51Z" transform="translate(21.4 95.02)"/><path class="cls-7" d="M764.11,647a13.61,13.61,0,0,1-2.83-.77c-4.1-1.83.48-6.59,1.6-9,2.58-5.58.83-11.2-3.81-15.34s-9.25-4.46-12.2-10.18c-4.41-8.54,2-14.1-3.25-22.42-2.29-3.66-7.46-3.64-10.69-5.53-2-1.19-3.22-4.39-4.76-6.13-5.56-6.32-15.86-6.75-23.18-3.61-4.68,2-6.85,8.24-12.43,8.28-3.6,0-8,1-9.33,4.86-1,3,.69,5.74.57,8.71a12.31,12.31,0,0,1-3.07,7.7c-2.88,3.22-7.23,3.77-9.38,7.82a16.15,16.15,0,0,0-1.69,6.91,23.7,23.7,0,0,0,2.77,12c1.85,3.46,4.51,6.42,6,10.1,2.28,5.63-2.06,11.52-2.13,17.23-.27,23.43,16.79,40.15,36,47.06,12.93,4.65,34.39,1.4,47.22-3.74,16-6.41,33-22,23.83-40.58C779.71,653.08,771.94,648.37,764.11,647Z" transform="translate(21.4 95.02)"/><path class="cls-24" d="M764.11,647a13.61,13.61,0,0,1-2.83-.77c-4.1-1.83.48-6.59,1.6-9,2.58-5.58.83-11.2-3.81-15.34s-9.25-4.46-12.2-10.18c-4.42-8.54,2-14.1-3.25-22.42-2.29-3.66-7.46-3.64-10.69-5.53-2-1.19-3.22-4.39-4.76-6.13-5.56-6.32-15.86-6.75-23.18-3.61-4.68,2-6.85,8.24-12.43,8.28-3.6,0-8,1-9.33,4.86a1.33,1.33,0,0,0-.05.19,24.1,24.1,0,0,1,9.07-2c9.17-.14,15,3.86,17.78,9.53,7.78-1.25,15.64.72,18.87,4.65,6.06,7.37,7.23,19.27-5.45,28.81a30.13,30.13,0,0,1,9.79,7.14c17.12,2.6,24.24,17.31,14.51,28.4-10.81,12.31-20.68,24.28-30.47,36.67a12.45,12.45,0,0,1-5.79,3.79l.76.3c12.93,4.65,34.39,1.4,47.22-3.74,16-6.41,33-22,23.83-40.58C779.71,653.08,771.94,648.37,764.11,647Z" transform="translate(21.4 95.02)"/><path class="cls-15" d="M672.07,739c-1.19,8.58,17.06,220.16,17.06,220.16.09.36,5.36,3.68,9.88.29,6.78-31.76,6.93-67.74,10-94.79,4.5-39.88,7.3-75.94,8-79.89,2-11.7,0-42.1,0-42.1C700.84,743.72,677.42,741.33,672.07,739Z" transform="translate(21.4 95.02)"/><path class="cls-10" d="M692.51,854.36c.15,7.49,4,14.5,4.18,22,.28,11.75-5.64,22.13-4.21,33.87,1.3,10.78,3.75,20.26,2.35,31.21-.85,6.66-1.42,13-1.73,19.32a7.52,7.52,0,0,0,5.91-1.37c6.78-31.76,6.93-67.74,10-94.79,4.5-39.88,7.3-75.94,8-79.89a115.83,115.83,0,0,0,.87-17.5C716,771.32,692.21,838,692.51,854.36Z" transform="translate(21.4 95.02)"/><path class="cls-25" d="M700,954.61a28.2,28.2,0,0,1-7.09.14,7.15,7.15,0,0,0-.34-2.69c-1.14-.3-3.31-1.83-4.48-1.95.44,2.29,1,14.14-1.26,15.86-2.81,2.09-8.15,2.16-9,2.16-4.24,0-5.16,2.41-5.16,3.35a2,2,0,0,0,2.19,2.16c5.14,0,17,0,20.6,0,2.19,0,4.41.28,6.24-1.85a3.58,3.58,0,0,0,.28-3.31A104.7,104.7,0,0,1,700,954.61Z" transform="translate(21.4 95.02)"/><path class="cls-9" d="M700,954.61a24.63,24.63,0,0,1-5.56.26l.06.35a15.56,15.56,0,0,1-.33,5c-.12,5.31-3.84,8.94-9.54,9.62-1.21.14-2.48.08-3.7.22-.19.11-2,.56-2.06.58a49,49,0,0,1-6.17,1,2,2,0,0,0,2.17,2c5.14,0,17,0,20.6,0,2.19,0,4.41.28,6.24-1.85a3.58,3.58,0,0,0,.28-3.31A104.7,104.7,0,0,1,700,954.61Z" transform="translate(21.4 95.02)"/><path class="cls-26" d="M618.67,736c.06.81,3.78,3.72,4.58,3.84,2-.3,1.48-1,2.42-2.24a15.43,15.43,0,0,1-4.94-1.58C619.9,735.54,618.6,734.88,618.67,736Z" transform="translate(21.4 95.02)"/><path class="cls-26" d="M623.19,738.45c-1.79.77-5.62,3.07-5.89,3.23-.75.52-2.71,1.59-3.26,2.13a2.56,2.56,0,0,0-.59,2.57,1.3,1.3,0,0,0,1,1.06c0,1.17,2.37.77,2.32,1-.2,1.15,1,2,4,.06.18-.12,8.29-2.92,10.81-4.08a51,51,0,0,0-3.75-7.62A28.28,28.28,0,0,0,623.19,738.45Z" transform="translate(21.4 95.02)"/><path class="cls-26" d="M701.27,655.76c-2.83-2-21.16-7-22.93.11-2.28,9.22-2.43,34.53-5.4,49.16-3.64,18,10.18,14.09,13,9C693.51,700.66,707.8,660.38,701.27,655.76Z" transform="translate(21.4 95.02)"/><path class="cls-26" d="M678.16,705.06a5.91,5.91,0,0,0-1.86.58c-9.09,4.78-39.66,28.29-49.92,31.76,1.8,3,4.24,5.05,4.83,7.22,16.76-6,55.66-25.18,55.23-32.28C686,705.83,681.34,704.55,678.16,705.06Z" transform="translate(21.4 95.02)"/><path class="cls-27" d="M701.27,655.76c-1.43-1-7-2.74-12.29-4a167.79,167.79,0,0,1-3.6,25.5c.32,10.44-.81,23.17-6.11,31a56.6,56.6,0,0,1-5.82,7.13c2.84,5.21,10.48,2.25,12.53-1.39C693.51,700.66,707.8,660.38,701.27,655.76Z" transform="translate(21.4 95.02)"/><path class="cls-27" d="M681.05,705.14a25.33,25.33,0,0,1-1.78,3.16c-6.48,9.61-19,19.42-28.95,25.17-1.48.85-10.21,7.08-13.61,9,18.5-7.55,50.12-23.74,49.73-30.15C686.15,707.64,683.62,705.69,681.05,705.14Z" transform="translate(21.4 95.02)"/><path class="cls-14" d="M678,654.13c-3.62,5.65-2.27,20.28-5,34.61a114.53,114.53,0,0,0,15.92,4.46c1.94.38,7.81,1.73,9.77,1.94,6-16.25,7-36.29,2.64-39.38C698.44,653.76,683.46,645.59,678,654.13Z" transform="translate(21.4 95.02)"/><path class="cls-28" d="M684.28,650.78a14.67,14.67,0,0,1,4,11c-.24,10.39-2.07,20.39-4.36,30.3,1.75.44,3.44.83,5,1.13,1.94.38,7.81,1.73,9.77,1.94,6-16.25,7-36.29,2.64-39.38C699.39,654.43,690.3,651.87,684.28,650.78Z" transform="translate(21.4 95.02)"/><circle class="cls-12" cx="496.28" cy="963.01" r="10.51" transform="matrix(0.99, -0.16, 0.16, 0.99, -125.68, 186.39)"/><path class="cls-7" d="M496.28,955.47a7.55,7.55,0,1,0,7.55,7.54A7.55,7.55,0,0,0,496.28,955.47Z" transform="translate(21.4 95.02)"/><rect class="cls-12" x="507.5" y="1039.37" width="6.73" height="8.16"/><path class="cls-7" d="M494.9,953.49a2.66,2.66,0,0,0-.42-.82,10.51,10.51,0,0,0-8.67,9.49l4.34,3.39a7.54,7.54,0,0,0,4,1.36h2.57a1.57,1.57,0,0,0,1.59-2.13Z" transform="translate(21.4 95.02)"/><path class="cls-5" d="M495.27,951.82a3.18,3.18,0,0,0-2.85-2.13H486.3a2.23,2.23,0,0,0-2.22,2.22v4.73a5.15,5.15,0,0,0,1.75,3.58l4.69,3.66a7.62,7.62,0,0,0,4,1.37h2.57a1.56,1.56,0,0,0,1.58-2.13Z" transform="translate(21.4 95.02)"/><path class="cls-9" d="M496.28,962a1,1,0,1,0,1,1A1,1,0,0,0,496.28,962Z" transform="translate(21.4 95.02)"/><path class="cls-9" d="M493.09,962a1,1,0,1,0,1,1A1,1,0,0,0,493.09,962Z" transform="translate(21.4 95.02)"/><path class="cls-12" d="M651.71,952.5A10.51,10.51,0,1,0,662.22,963,10.51,10.51,0,0,0,651.71,952.5Z" transform="translate(21.4 95.02)"/><path class="cls-7" d="M651.71,955.47a7.55,7.55,0,1,0,7.55,7.54A7.55,7.55,0,0,0,651.71,955.47Z" transform="translate(21.4 95.02)"/><path class="cls-7" d="M641.86,933.24c-2-1-7.49-3.54-7.73-3.65l-2.8,6s5.67,2.63,7.55,3.56c1.27.64,2.68,2.08,2.68,3.13v9.58h6.67v-9.58C648.23,938.26,645,934.83,641.86,933.24Z" transform="translate(21.4 95.02)"/><path class="cls-7" d="M650.33,953.49a2.63,2.63,0,0,0-.41-.82,10.49,10.49,0,0,0-8.67,9.49l4.34,3.39a7.54,7.54,0,0,0,4,1.36h2.57a1.56,1.56,0,0,0,1.58-2.13Z" transform="translate(21.4 95.02)"/><path class="cls-5" d="M650.71,951.82a3.18,3.18,0,0,0-2.86-2.13h-6.11a2.23,2.23,0,0,0-2.22,2.22v4.73a5.11,5.11,0,0,0,1.75,3.58l4.69,3.66a7.56,7.56,0,0,0,4,1.37h2.57a1.56,1.56,0,0,0,1.58-2.13Z" transform="translate(21.4 95.02)"/><path class="cls-9" d="M651.71,962a1,1,0,1,0,1,1A1,1,0,0,0,651.71,962Z" transform="translate(21.4 95.02)"/><path class="cls-9" d="M648.53,962a1,1,0,1,0,1,1A1,1,0,0,0,648.53,962Z" transform="translate(21.4 95.02)"/><path class="cls-7" d="M450,790.35c4.36-.8,107.62-10.13,161.61-15l-.33-3.71c-6.38.57-156.35,14-162,15-7.32,1.36-7.32,7.57-7.32,9.91V855c0,7.12,4,11,8,11.63,2.93.49,132.06,12.69,137.56,13.21l.35-3.71c-46.4-4.38-134.8-12.77-137.3-13.17-2.24-.37-4.86-2.69-4.86-8V796.6C445.7,793.14,446.4,791,450,790.35Z" transform="translate(21.4 95.02)"/><path class="cls-7" d="M443.64,859.45c3,.48,137.33,12.68,143.05,13.2l.23-2.48C538.52,865.78,446.38,857.37,444,857Z" transform="translate(21.4 95.02)"/><path class="cls-7" d="M443.73,851.5c4.07.33,144.41,9.85,145.83,9.94l.16-2.47c-1.41-.1-141.74-9.61-145.78-10Z" transform="translate(21.4 95.02)"/><path class="cls-7" d="M443.79,843.53c5.12.2,147.2,6.64,148.63,6.71l.12-2.48c-1.44-.07-143.53-6.51-148.66-6.71Z" transform="translate(21.4 95.02)"/><path class="cls-7" d="M443.83,835.57c6.18,0,150,3.43,151.46,3.46l.06-2.48c-1.45,0-145.3-3.42-151.5-3.47Z" transform="translate(21.4 95.02)"/><path class="cls-7" d="M443.82,825.12l0,2.48c7.26-.09,152.84.22,154.31.22v-2.48C596.69,825.34,451.1,825,443.82,825.12Z" transform="translate(21.4 95.02)"/><path class="cls-7" d="M443.8,817.15l.07,2.49c8.33-.24,155.66-3,157.15-3l0-2.49C599.49,814.16,452.15,816.92,443.8,817.15Z" transform="translate(21.4 95.02)"/><path class="cls-7" d="M443.79,809.18l.1,2.48,160-6.25-.1-2.48Z" transform="translate(21.4 95.02)"/><path class="cls-7" d="M443.78,801.22l.12,2.48c10.49-.51,161.33-9.41,162.85-9.5l-.14-2.48C605.08,791.81,454.25,800.71,443.78,801.22Z" transform="translate(21.4 95.02)"/><path class="cls-7" d="M443.77,793.25l.14,2.48c11.56-.65,164.16-12.62,165.71-12.74l-.2-2.48C607.88,780.63,455.31,792.6,443.77,793.25Z" transform="translate(21.4 95.02)"/><rect class="cls-7" x="534.87" y="826.41" width="100.28" height="2.48" transform="translate(-323.97 1324.72) rotate(-78.12)"/><rect class="cls-7" x="524.64" y="826.45" width="97.68" height="2.48" transform="translate(-326.96 1327.88) rotate(-79.01)"/><rect class="cls-7" x="514.4" y="826.49" width="95.11" height="2.48" transform="translate(-329.55 1332.09) rotate(-79.98)"/><rect class="cls-7" x="504.14" y="826.54" width="92.56" height="2.48" transform="translate(-331.85 1337) rotate(-81)"/><rect class="cls-7" x="493.87" y="826.58" width="90.05" height="2.48" transform="translate(-333.8 1342.7) rotate(-82.09)"/><rect class="cls-7" x="483.58" y="826.62" width="87.57" height="2.49" transform="translate(-335.88 1348.18) rotate(-83.18)"/><rect class="cls-7" x="473.28" y="826.66" width="85.12" height="2.48" transform="translate(-336.78 1356.06) rotate(-84.44)"/><rect class="cls-7" x="462.95" y="826.7" width="82.72" height="2.48" transform="translate(-338.15 1362.93) rotate(-85.64)"/><rect class="cls-7" x="452.6" y="826.74" width="80.36" height="2.48" transform="translate(-338.18 1372.32) rotate(-87.04)"/><rect class="cls-7" x="442.22" y="826.78" width="78.04" height="2.48" transform="translate(-337.84 1382.19) rotate(-88.48)"/><rect class="cls-7" x="489.87" y="885.2" width="2.48" height="75.78"/><path class="cls-16" d="M440.64,795.26v58.38c0,7.13,4,12.83,8.73,13.6,2.93.48,10.64,1.4,11.8,1.4s3.34-.55,3.34-2.68V804.83c0-8.08.86-9.63,9.4-10.41s132.84-10.29,132.84-10.29l3.17-13.78c-6.38.58-156.35,14-162,15C440.64,786.71,440.64,792.93,440.64,795.26Z" transform="translate(21.4 95.02)"/><path class="cls-5" d="M440.64,795.26v58.38c0,7.13,4,12.83,8.73,13.6,1,.16,2.43.36,4,.56-3.71-1.89-6.55-6.84-6.55-12.82V796.6c0-2.34,0-8.55,7.32-9.91,5-.93,125.16-11.71,155.34-14.41l.44-1.93c-6.38.58-156.35,14-162,15C440.64,786.71,440.64,792.93,440.64,795.26Z" transform="translate(21.4 95.02)"/><path class="cls-7" d="M629.27,909.58c-2.89-2-23.95-12-29.62-15.22-7-4-9.44-10-7.32-18.11,1.39-5.27,28.87-123,29.8-127l-7.58-1.75c-.23,1-28.38,121.6-29.74,126.77-3,11.57.87,21.1,11,26.85,5.92,3.34,26.64,13.16,29,14.81,3.4,2.39,7.44,8.41,4.62,15.18-2.4,5.75-7.84,7.33-25.29,7.33H481.62a3.89,3.89,0,1,0,0,7.77H604.13c16.56,0,27.77-.84,32.47-12.11C640.7,924.26,636,914.32,629.27,909.58Z" transform="translate(21.4 95.02)"/><path class="cls-13" d="M645.21,740.75l-27.27,3.47a4.27,4.27,0,0,0,1.07,8.47l27.28-3.47a4.27,4.27,0,0,0-1.08-8.47Z" transform="translate(21.4 95.02)"/><path class="cls-15" d="M755.75,858.24c.89-15.85-.94-116.39-2-121-5.13,2.8-42.37,13.19-58.53,13.55,0,0,6.1,22.58,12.63,45.44,5.68,19.94,12.43,40.69,16.48,58.06,10.56,45.27,34.42,101.82,34.42,101.82,4.73,2.17,9.85-2.35,9.91-2.71C765.93,915.2,755,871.12,755.75,858.24Z" transform="translate(21.4 95.02)"/><path class="cls-10" d="M755.75,858.24c.89-15.85-.94-116.39-2-121-5.13,2.81-42.37,13.2-58.53,13.56,0,0-1.2,42.45,28.27,38.74,11.41-1.44,19.9,3,22.06,13.94,2.74,13.84-3.58,28.11-5.78,41.76-1.3,8.13,19.9,95,26.15,110.22a9,9,0,0,0,2.74-2.05C765.93,915.2,755,871.12,755.75,858.24Z" transform="translate(21.4 95.02)"/><path class="cls-26" d="M714.83,620.82C713,622,702.15,627.94,699,627.46c0,.92,2.26,10.66.11,15.89.92,4.81,14,4.89,18-3A23.68,23.68,0,0,1,714.83,620.82Z" transform="translate(21.4 95.02)"/><path class="cls-26" d="M702.84,604.52c-6.12-.42-12,1-13.39,6.78-.49,2.07.4,20.74,10.36,23.57,4.22,1.19,12.31-6,12.64-10.92,0,0,.46-6.69.47-6.76C713.36,610.69,709.41,605,702.84,604.52Z" transform="translate(21.4 95.02)"/><path class="cls-27" d="M714.83,620.82a82.49,82.49,0,0,1-8.69,4.52l-.14.32a35.45,35.45,0,0,1,2.81,13.82,26.24,26.24,0,0,1-.87,7c3.6-.58,7.31-2.51,9.11-6.13A23.71,23.71,0,0,1,714.83,620.82Z" transform="translate(21.4 95.02)"/><path class="cls-27" d="M702.84,604.52c-.52,0-1,0-1.53,0A15.45,15.45,0,0,1,707.5,614c.65,3.08,1.2,6.6-.45,9.31-4.3,7.07-1.32,9.83.84,8.14,3-2.32,4.38-4.73,4.56-7.47,0,0,.46-6.69.47-6.76C713.36,610.69,709.41,605,702.84,604.52Z" transform="translate(21.4 95.02)"/><path class="cls-14" d="M730.21,643.75c-3.47-.85-13.72-3.74-13.72-3.74s-7.31,6.41-12.08,6.76c-3.27.23-6-3.37-6-3.37s-11.69,3.62-13.81,4.87c-8.17,4.85-8.36,13.07-8.88,19.86-5.14,67.17-8.32,109.25-6.32,113,4.91,9.22,90.08,7.61,88.62-3.91-4.88-38.46-8.23-111.42-9.37-114.69C745,651.94,740.67,646.32,730.21,643.75Z" transform="translate(21.4 95.02)"/><path class="cls-28" d="M730.21,643.75l-.37-.1c7,5.61,3,55.19,2.61,71.25-.42,17.91.23,35.76.45,53.57.08,5.8-.29,11.62-.79,17.44,14.9-1.52,26.46-4.44,25.92-8.68-4.88-38.46-8.23-111.42-9.37-114.69C745,651.94,740.67,646.32,730.21,643.75Z" transform="translate(21.4 95.02)"/><path class="cls-27" d="M712.67,614.62a5.53,5.53,0,0,0-2.73.94c.63,2.22,2.12,5.76,2.85,7.51,1.57-.5,3.42-3,3.35-4.62S714.37,614.55,712.67,614.62Z" transform="translate(21.4 95.02)"/><path class="cls-26" d="M644,734.53c-.29.76,2.72,2.71,3.53,2.75,2-.51,1.67-1.67,3.59-1.88a17.51,17.51,0,0,1-5.08-1.06C645.16,734,644.33,733.3,644,734.53Z" transform="translate(21.4 95.02)"/><path class="cls-26" d="M646.64,736.32c-2.34.59-7.42,2.47-7.77,2.6-1,.45-3.69,1.22-4.35,1.79a4.54,4.54,0,0,0-1.12,2.49,1.37,1.37,0,0,0,1,1.16c-.16,1.16,2.8,1,2.69,1.28-.42,1.13,1,2.05,4.94.47.24-.09,10.68-2,14-2.93-.38-2.06-3.35-8-3.46-8A44,44,0,0,0,646.64,736.32Z" transform="translate(21.4 95.02)"/><path class="cls-26" d="M712.66,655.57c-3.5,8.82-7,39.26-11.54,53.5-5.49,17.48,8.66,15.08,12,10.32,8.89-12.51,27.31-51.08,21.3-56.36C731.84,660.74,713.29,654,712.66,655.57Z" transform="translate(21.4 95.02)"/><path class="cls-14" d="M712.66,655.57c-4.46,5-5.58,23.34-9.83,37.3,5.31,4.24,15.94,8.57,24.88,9C735.36,686.38,739,671.3,738.4,666,736.93,652.34,718.42,649.1,712.66,655.57Z" transform="translate(21.4 95.02)"/><path class="cls-28" d="M733.5,656.71c.1,20.91-14,39.45-15.31,43.49a44.25,44.25,0,0,0,9.52,1.72C735.36,686.38,739,671.3,738.4,666A14,14,0,0,0,733.5,656.71Z" transform="translate(21.4 95.02)"/><path class="cls-26" d="M707.08,709.1a6.55,6.55,0,0,0-1.92.37c-9.57,3.7-42.64,23.55-53.23,25.82a33.75,33.75,0,0,1,2.76,8.2c17.35-4.07,59.39-19.1,59.78-26.21C714.83,710.77,710.3,709,707.08,709.1Z" transform="translate(21.4 95.02)"/><path class="cls-25" d="M769,950.83a35.79,35.79,0,0,1-7.83,1.34,7,7,0,0,0-.73-2.62c-1.16-.12-3.92-1-5.09-1,.76,2.19,3.48,13.53,1.44,15.56-2.47,2.48-7.74,3.32-8.58,3.45-4.19.62-4.75,3.14-4.61,4.06a2,2,0,0,0,2.48,1.83c5.09-.75,16.83-2.54,20.37-3.06,2.17-.32,4.4-.37,5.9-2.74a3.55,3.55,0,0,0-.2-3.31C771.39,963,769.63,954.26,769,950.83Z" transform="translate(21.4 95.02)"/><path class="cls-9" d="M769,950.83a18.73,18.73,0,0,1-3.55.83,9,9,0,0,1-.51,6.83c-4.27,9.15-12.39,12.09-21.28,13.37a2,2,0,0,0,2.42,1.63c5.09-.75,16.83-2.54,20.37-3.06,2.17-.32,4.4-.37,5.9-2.74a3.55,3.55,0,0,0-.2-3.31C771.39,963,769.63,954.26,769,950.83Z" transform="translate(21.4 95.02)"/><path class="cls-29" d="M874.61,541.3a25.16,25.16,0,1,0,25.16,25.16A25.15,25.15,0,0,0,874.61,541.3Z" transform="translate(21.4 95.02)"/><path class="cls-30" d="M1048.08,524.06c-6.85.64-12.7-4.48-19.09-7-14.94-6-27.51,4.09-43.4,1.61-1.92-.3-8.23-1.74-10.16-1.93-11.88-1.2-22.33,8.11-31.63,9.11a4.42,4.42,0,0,0-3.06,1.14c-.94,1.16-.36,3,.84,3.94a8.07,8.07,0,0,0,4.25,1.22c29.78,2.58,59.42.86,90.09.86,7.94,0,15.88,1,22.63-3.15C1059.51,529.23,1062.58,522.72,1048.08,524.06Z" transform="translate(21.4 95.02)"/><path class="cls-30" d="M913.48,486.14c-6.84-3.06-18.72-6.61-28.13-10.36-22-8.79-40.56,6-64,2.36-2.82-.44-12.14-2.55-15-2.84-17.5-1.77-32.91,12-46.62,13.43-1.64.18-3.46.42-4.5,1.69-1.4,1.71-.53,4.46,1.23,5.79s4.07,1.62,6.27,1.81c43.89,3.8,101.28,1.27,146.48,1.27,11.71,0,23.06-1.48,19.67-9C927.11,486.27,917.5,487.94,913.48,486.14Z" transform="translate(21.4 95.02)"/><path class="cls-3" d="M541.4,1032.47c62.05,10.3,105-13.89,131-13.89,68.24,0,59.19,61.18,103.57,61.18,30.52,0,55.64-75.49,86.94-81.36,17.78-3.34,25.34,26.37,51.33,26.37,39.23,0,35.67-15.68,78.87-20.3,44.3-4.76,108.28-30.88,108.28-30.88h-560Z" transform="translate(21.4 95.02)"/><path class="cls-3" d="M541.4,1032.71c-62.36,10.3-105.55-13.89-131.67-13.89-68.57,0-59.48,61.18-104.09,61.18-30.67,0-55.91-75.49-87.37-81.37C200.4,995.3,192.8,1025,166.69,1025c-39.43,0-35.85-15.68-79.27-20.3C42.9,1000-21.4,973.82-21.4,973.82H541.4Z" transform="translate(21.4 95.02)"/><path class="cls-3" d="M988.62,1050.68c-5.8-.54-11.78,7.84-18.69,8.75s-13.46-.4-17.94,0c-2.59.23-10.28,2.72-10.28,2.72a110.31,110.31,0,0,1,18.5,9.47c10.84,6.71,12.71-5.8,25.42-1.23s56.56-1.42,52.81-5C1033.34,1060.45,994.41,1051.22,988.62,1050.68Z" transform="translate(21.4 95.02)"/><path class="cls-3" d="M185,1050.68c-5.8-.54-11.78,7.84-18.69,8.75s-13.46-.4-17.94,0c-2.59.23-10.28,2.72-10.28,2.72a110.31,110.31,0,0,1,18.5,9.47c10.84,6.71,12.71-5.8,25.42-1.23s56.56-1.42,52.81-5C229.74,1060.45,190.81,1051.22,185,1050.68Z" transform="translate(21.4 95.02)"/></g></g></svg>