<svg xmlns="http://www.w3.org/2000/svg" viewBox="0 0 1120.12 1100.39"><defs><style>.cls-1{isolation:isolate;}.cls-2{fill:#fffaf8;}.cls-3{fill:#c9eefa;}.cls-4{fill:#e6a749;}.cls-5{fill:#f4bb61;}.cls-6{fill:#d4902b;}.cls-7{fill:#fdcb81;}.cls-8{fill:#42292c;}.cls-9{fill:#ff6e53;}.cls-10{fill:#b42f69;}.cls-11{fill:#ee5f3e;}.cls-12,.cls-13{fill:#063d71;}.cls-12,.cls-19,.cls-20,.cls-21,.cls-22{fill-rule:evenodd;}.cls-14,.cls-22{fill:#021324;}.cls-15{fill:#ffc9b6;}.cls-16{fill:#fdaa8c;}.cls-17{fill:#6477ff;}.cls-18{fill:#4155e5;}.cls-19{fill:#054c90;}.cls-20{fill:#04356e;}.cls-21{fill:#001630;}.cls-23{fill:#bec4e8;}.cls-24{fill:#fff;}.cls-25{fill:#e1e3f2;}.cls-26{fill:#0f94d2;}.cls-27{fill:#0178b0;opacity:0.2;mix-blend-mode:multiply;}.cls-28{fill:#1f366d;}.cls-29{fill:#91184d;}.cls-30{fill:#2eb4f3;}.cls-31{fill:#65cdfe;}.cls-32{fill:#ededed;}</style></defs><title>lp-web-graphic</title><g class="cls-1"><g id="Layer_1" data-name="Layer 1"><path class="cls-2" d="M320.51,362.29c-26.94-32.51,5.6-75-33.16-96.66-36.41-20.32-99.42,33.55-133.84,26.52-31.1-6.34-27-77.93-56.68-88.4-42.75-15.1-79.11,10.85-116.77-13.17v256C26.51,467,70.88,399.84,173,435.06c11.89,4.09,44.46,35.3,86.36,33.91,24.12-.81,48.26-22.85,58.42-33.48,8.68-9.09,91.65,13.36,91.65-13.47C409.46,400.55,335.31,380.14,320.51,362.29Z" transform="translate(20.06 20.39)"/><path class="cls-2" d="M747.87,239.09c27.88-32.51-5.79-75,34.3-96.66C819.84,122.11,885,176,920.63,169c32.17-6.34,28-77.93,58.64-88.4,44.22-15.1,81.82,10.85,120.79-13.17v256c-48,20.36-93.95-46.76-199.62-11.54-12.3,4.09-46,35.3-89.34,33.91-25-.81-49.92-22.85-60.43-33.48-9-9.09-94.81,13.36-94.81-13.47C655.86,277.35,732.57,256.94,747.87,239.09Z" transform="translate(20.06 20.39)"/><path class="cls-2" d="M829.78-20.39A16.07,16.07,0,0,0,813.71-4.31a16.07,16.07,0,0,0,16.07,16.08A16.07,16.07,0,0,0,845.86-4.31,16.07,16.07,0,0,0,829.78-20.39Z" transform="translate(20.06 20.39)"/><path class="cls-2" d="M771.22,313.51a16.08,16.08,0,1,0-12.47,29.64c8.18,3.44,25.41,3.58,28.85-4.6S779.4,317,771.22,313.51Z" transform="translate(20.06 20.39)"/><path class="cls-3" d="M1069,676.69c-11.68-24.66-18.16-44.12-45.22-46.47-7.46-.65-8.1-35.12-54.8-50.54-11.53-3.81-53.78-74.83-67.7-74.83-23.84,0-74.17,75.8-89.34,94.31-4.23,5.16-31.37,19.32-36.85,23.09-5.25,3.61-16.52,29.89-21.86,33.36-32.47,21.14-29.29,65.53-42.85,65.53-19.66,0-19.53-33.86-32.2-45.34s-23.71-39.13-40.75-39.13c-6.27,0-24.68,51.31-46.58,51.31-22.7,0-37.94,32.34-50.89,49.26V860.78c17.4,1.54,207,18.16,247.84,13,37.17-4.73,306-16.67,312.28-21.47V723.48C1079.36,714.8,1079.71,699.35,1069,676.69ZM634.35,746.05c-12.47,5-26.46,1.68-39.31,5.41a59.39,59.39,0,0,1-16.88,13.2c-7.5,3.71-15.91,4.57-22.95,9.25-10.83,7.19,15.12-25.63,25.31-36.46,9-9.54,19.44-19.38,19.44-32.34,0-11.45,18.28-17.93,24.21-14.15,4.45,2.83-4.56,12-2.81,22.63,1.37,8.26-17.52,11.54-12.8,18.3C613.5,739,647.68,740.67,634.35,746.05ZM887.14,612.66c-1.4,9.89-33.93-.25-38.92-1.56-43.47-11.41,19.18-24.57,21.73-29.37,6.86-12.86,30.61-49.13,30.61-49.13s-6.48,37-13.39,48.4C881.29,590.74,888.69,601.71,887.14,612.66ZM1030.93,716c-.84,9-33.57-2.85-43.57-3.15-32.82-1-53.52,4.11-49.67-27.19,1.78-14.48,21.69-32.3,19.88-47-1.59-13-14.33-59.49-14.33-59.49s47.94,37.84,43.59,60c-2.83,14.4-7.77,32.18-3.52,46.13C987.71,699.58,1032.39,700.29,1030.93,716Z" transform="translate(20.06 20.39)"/><path class="cls-3" d="M509,690.69c-11.68-24.66-18.16-44.12-45.22-46.47-7.46-.65-8.1-35.12-54.8-50.54-11.53-3.81-53.78-74.83-67.7-74.83-23.84,0-74.17,75.8-89.34,94.31-4.23,5.16-31.37,19.32-36.85,23.09-5.25,3.61-16.52,29.89-21.86,33.36-32.47,21.14-29.29,65.53-42.85,65.53-19.66,0-19.53-33.86-32.2-45.34s-23.71-39.13-40.75-39.13c-6.27,0-24.68,51.31-46.58,51.31-22.7,0-37.94,32.34-50.89,49.26V874.78c17.4,1.54,207.05,18.16,247.84,13,37.17-4.73,306-16.67,312.28-21.47V737.48C519.36,728.8,519.71,713.35,509,690.69ZM74.35,760.05c-12.47,5-26.46,1.68-39.31,5.41a59.39,59.39,0,0,1-16.88,13.2c-7.5,3.71-15.91,4.57-22.95,9.25-10.83,7.19,15.12-25.63,25.31-36.46,9-9.54,19.44-19.38,19.44-32.34,0-11.45,18.28-17.93,24.21-14.15,4.45,2.83-4.56,12-2.81,22.63,1.37,8.26-17.52,11.54-12.8,18.3C53.5,753,87.68,754.67,74.35,760.05ZM327.14,626.66c-1.4,9.89-33.93-.25-38.92-1.56-43.47-11.41,19.18-24.57,21.73-29.37,6.86-12.86,30.61-49.13,30.61-49.13s-6.48,37-13.39,48.4C321.29,604.74,328.69,615.71,327.14,626.66ZM470.93,730c-.84,9-33.57-2.85-43.57-3.15-32.82-1-53.52,4.11-49.67-27.19,1.78-14.48,21.69-32.3,19.88-47-1.59-13-14.33-59.49-14.33-59.49s47.94,37.84,43.59,60c-2.83,14.4-7.77,32.18-3.52,46.13C427.71,713.58,472.39,714.29,470.93,730Z" transform="translate(20.06 20.39)"/><path class="cls-4" d="M1064.58,852.25c-22.82-13.52-38.25-60-84.91-72.25-84.1-22.07-77.22,117.83-176.47,61.88-34.29-19.33-83.48-53-139.53-49.8-51.43,2.92-123.61,17.78-123.61,17.78v163.8h560V849.43S1080,861.41,1064.58,852.25Z" transform="translate(20.06 20.39)"/><path class="cls-5" d="M1064.58,927.3c-22.82-5.17-38.25-22.92-84.91-27.6-84.1-8.43-77.22,45-176.47,23.63-34.29-7.38-83.48-20.24-139.53-19-51.43,1.12-123.61,6.79-123.61,6.79v62.56h560V926.22S1080,930.79,1064.58,927.3Z" transform="translate(20.06 20.39)"/><path class="cls-6" d="M803.2,841.88c-34.29-19.33-83.49-53-139.53-49.8-51.43,2.92-123.61,17.78-123.61,17.78v38.7S571,837.4,619.41,833.64c54.32-4.21,126.52,16.61,159.85,31.26,52.5,23.09,75.06,4.22,97.31-18.68C859.84,858.38,838.49,861.78,803.2,841.88Z" transform="translate(20.06 20.39)"/><path class="cls-6" d="M1064.58,852.25c-22.82-13.52-38.25-60-84.91-72.25-40.93-10.74-60.79,19.75-81.91,45.12,16.25-14.38,35.64-25,64.77-20.43,52,8.26,69.56,48.83,95.85,60,18,7.69,41.68-3.87,41.68-3.87V849.43S1080,861.4,1064.58,852.25Z" transform="translate(20.06 20.39)"/><path class="cls-6" d="M927.22,767.05c-7.79.37-21,.15-27.6,11.31-6.47,10.93,2.4,14.76,8.82,14.23s4.65-14.39,14.77-17.39S934,766.72,927.22,767.05Z" transform="translate(20.06 20.39)"/><path class="cls-6" d="M940.67,759.45a4.55,4.55,0,0,0-6.1,2.43,4.84,4.84,0,0,0,2.13,6.35,4.54,4.54,0,0,0,6.07-2.39A4.83,4.83,0,0,0,940.67,759.45Z" transform="translate(20.06 20.39)"/><path class="cls-4" d="M504.58,852.25c-22.82-13.52-38.25-60-84.91-72.25-84.1-22.07-77.22,117.83-176.47,61.88-34.29-19.33-83.48-53-139.53-49.8C52.24,795-19.94,809.86-19.94,809.86v163.8h560V849.43S520,861.41,504.58,852.25Z" transform="translate(20.06 20.39)"/><path class="cls-5" d="M504.58,927.3c-22.82-5.17-38.25-22.92-84.91-27.6-84.1-8.43-77.22,45-176.47,23.63-34.29-7.38-83.48-20.24-139.53-19-51.43,1.12-123.61,6.79-123.61,6.79v62.56h560V926.22S520,930.79,504.58,927.3Z" transform="translate(20.06 20.39)"/><path class="cls-6" d="M243.2,841.88c-34.29-19.33-83.49-53-139.53-49.8C52.24,795-19.94,809.86-19.94,809.86v38.7S11,837.4,59.41,833.64c54.32-4.21,126.52,16.61,159.85,31.26,52.5,23.09,75.06,4.22,97.31-18.68C299.84,858.38,278.49,861.78,243.2,841.88Z" transform="translate(20.06 20.39)"/><path class="cls-6" d="M504.58,852.25c-22.82-13.52-38.25-60-84.91-72.25-40.93-10.74-60.79,19.75-81.91,45.12,16.25-14.38,35.64-25,64.77-20.43,52,8.26,69.56,48.83,95.85,60,18,7.69,41.68-3.87,41.68-3.87V849.43S520,861.4,504.58,852.25Z" transform="translate(20.06 20.39)"/><path class="cls-6" d="M367.22,767.05c-7.79.37-21,.15-27.6,11.31-6.47,10.93,2.4,14.76,8.82,14.23s4.65-14.39,14.77-17.39S374,766.72,367.22,767.05Z" transform="translate(20.06 20.39)"/><path class="cls-6" d="M380.67,759.45a4.55,4.55,0,0,0-6.1,2.43,4.84,4.84,0,0,0,2.13,6.35,4.54,4.54,0,0,0,6.07-2.39A4.83,4.83,0,0,0,380.67,759.45Z" transform="translate(20.06 20.39)"/><path class="cls-7" d="M645.13,836.68a48.57,48.57,0,0,0-2.58,20.48l19.5,11.17-17.28-1.45c4.71,12.61,17.45,25.36,48.2,30.16-.49-.68-1-1.36-1.52-2C689.34,892.27,665.46,852,645.13,836.68Z" transform="translate(20.06 20.39)"/><path class="cls-8" d="M701.78,955.68l.64,0h.64c.25-12.28.4-19.81.49-24.45l-1.27-.34C702.09,940.3,701.78,955.68,701.78,955.68Z" transform="translate(20.06 20.39)"/><path class="cls-9" d="M645.13,836.68c7.61,7.62,47.82,58.45,48.13,58.85C693.17,886.73,689.35,843.47,645.13,836.68Z" transform="translate(20.06 20.39)"/><path class="cls-8" d="M649.47,840.36c-.07,0,43,56,43.5,56.68,4.74,6.54,7.63,12.63,8.84,18.63.29-.38.6-.77.91-1.15-1.4-6.12-4.51-12.32-9.46-19C693,895.13,654.4,843.85,649.47,840.36Z" transform="translate(20.06 20.39)"/><path class="cls-8" d="M692.68,918.94c-.12.56-.24,1.1-.35,1.64a81.74,81.74,0,0,0-1.76,14.36,90.23,90.23,0,0,1,8.34-12.75l.72-1c2.47-3.35,5-6.71,7.63-10.06l-4.11-8.5a.62.62,0,0,1,.29-.85.65.65,0,0,1,.86.29l3.84,7.94q3.36-4.31,6.83-8.57l2.09-2.54a.63.63,0,0,1,.32-.39c2.85-3.44,5.59-6.64,8.3-9.71l-3.31-8.46a.67.67,0,0,1,.37-.83.64.64,0,0,1,.82.37l3.08,7.85c1.47-1.64,19.75-18.44,20.65-19.32C710.21,872.7,696.86,900.53,692.68,918.94Z" transform="translate(20.06 20.39)"/><path class="cls-8" d="M733.06,882.81l11.77-.2a.64.64,0,0,1,.65.63.67.67,0,0,1-.36.59.66.66,0,0,1-.27.06l-13.07.22c-1.61,1.67-3.25,3.42-4.88,5.26-2.63,3-5.27,6-8,9.35l15.26,3.57a.64.64,0,0,1,.47.77.6.6,0,0,1-.34.42.56.56,0,0,1-.42,0L718,899.82c-.67.81-11.36,14.18-15.76,20.07l16.53-1a.65.65,0,0,1,.68.6.67.67,0,0,1-.36.62l-.24.06-17.62,1.06c-.18.25-7.16,9.67-9.33,13.95,2.65-.33,5.2-.71,7.62-1.15l1.3-.25c28-5.39,40.69-17.92,46-30.59L735.13,894l14.57-1.76a55.84,55.84,0,0,0-2.41-23.84Z" transform="translate(20.06 20.39)"/><path class="cls-10" d="M747.29,868.43c-.25-.25-19.18,17.68-20.65,19.32l-3.08-7.85a.64.64,0,0,0-.82-.37.67.67,0,0,0-.37.83l3.31,8.46c-2.71,3.07-5.45,6.27-8.3,9.71a.63.63,0,0,0-.32.39L715,901.46q-3.47,4.26-6.83,8.57l-3.84-7.94a.65.65,0,0,0-.86-.29.62.62,0,0,0-.29.85l4.11,8.5c-2.6,3.35-5.16,6.71-7.63,10.06l-.72,1a90.23,90.23,0,0,0-8.34,12.75,25.19,25.19,0,0,0-1.9,4.92c-1.94,7.72-1,14.87,3,23.16l1.05,1.83,1.14-.55a.09.09,0,0,0,0,0l-1.05-1.83c-3.86-8-4.76-14.84-2.9-22.25a24.44,24.44,0,0,1,2-5c2.17-4.28,9.15-13.7,9.33-13.95l17.62-1.06.24-.06a.67.67,0,0,0,.36-.62.65.65,0,0,0-.68-.6l-16.53,1c4.4-5.89,15.09-19.26,15.76-20.07l15.88,3.71a.56.56,0,0,0,.42,0,.6.6,0,0,0,.34-.42.64.64,0,0,0-.47-.77l-15.26-3.57c2.74-3.3,5.38-6.39,8-9.35,1.63-1.84,3.27-3.59,4.88-5.26l13.07-.22a.66.66,0,0,0,.27-.06.67.67,0,0,0,.36-.59.64.64,0,0,0-.65-.63l-11.77.2C737.09,878.73,747.54,868.68,747.29,868.43Z" transform="translate(20.06 20.39)"/><path class="cls-11" d="M756.36,927.48c-23.28,8.47-19,28.16-62.77,28.16-27.76,0-59.21-25.74-85.63-25.36-36.76.52-56.13,30.53-82.6,25.36-57.4-11.21-87.5,18-87.5,18h382.2V959.85S802.56,910.68,756.36,927.48Z" transform="translate(20.06 20.39)"/><path class="cls-9" d="M756.35,620.72c-5.35-18.8-8.59-78.49-17-60.77-35.68,74.93-62.06,69.13-58.38,111.38,7.39,84.84-15.62,152.71,58.93,159.39,51,4.58,29.15-40.68,39.92-85.59,8.81-36.73-15.71-41-18.87-64.11C758.47,663.13,761.71,639.53,756.35,620.72Z" transform="translate(20.06 20.39)"/><path class="cls-8" d="M743.07,836.42c-.42-3.35-.72-6.71-1.24-10l-1.77-10-1.79-9.77c-.59-3.26-.94-6.58-1.43-9.88a306.34,306.34,0,0,1-2.51-40c0-13.37,1-26.73,1.71-40.07s1-26.69,1.4-40.06.7-26.73.66-40.15l-.56,0c-2.11,13.26-3.43,26.61-4.47,40-.49,6.68-.93,13.37-1.22,20.06s-.49,13.4-.5,20.1.25,13.42.43,20.12l.73,20.09c.35,13.4.56,26.79,1.26,40.22.23,3.35.34,6.72.68,10.08l1.15,10.08,1.29,9.85,1,9.9c1.11,13.22,1.85,26.51,1.83,39.83s-.9,26.65-2.18,39.91-3,26.55-5.52,39.51l11.55,1.4c1-27.15,1.64-53.91,1.28-80.83C744.74,863.32,744.51,849.84,743.07,836.42Z" transform="translate(20.06 20.39)"/><path class="cls-8" d="M719.24,751c-2.11-2.44-4.54-4.89-5.9-8a23.93,23.93,0,0,1-1.69-4.72,41.49,41.49,0,0,1-.74-5,65.38,65.38,0,0,0-1.43-10.24,76.31,76.31,0,0,0-2.7-10c-2.44-6.45-5.54-12.75-10.15-18l-.4.24c1.92,6.63,3.87,13,5.84,19.4l3.16,9.53c1,3.2,2,6.39,3.18,9.61.61,1.64,1.17,3.29,1.73,4.92s1.11,3.27,1.81,4.85a52.8,52.8,0,0,0,4.18,9.69,27,27,0,0,0,7.41,7.6,23.51,23.51,0,0,0,9.68,4.2l.17-.44A90.15,90.15,0,0,1,719.24,751Z" transform="translate(20.06 20.39)"/><path class="cls-9" d="M770.4,613c-7.61-1.41,3.47,13.59,2.52,24.7s-2.16,18.57,6.38,17.47,8.51-5.13,8.51-11.26C787.81,625.94,774,613.64,770.4,613Z" transform="translate(20.06 20.39)"/><path class="cls-9" d="M763.18,599.76a4.54,4.54,0,1,0,4.54,4.54A4.54,4.54,0,0,0,763.18,599.76Z" transform="translate(20.06 20.39)"/><path class="cls-12" d="M599,823.33l-103.69-4.49c-15.39,0-17.12,14.39-11.14,21.58,19.27,23.16,87.31,18.49,118.72,18.49,20.47,0,30-14.45,21.17-33C620,817.34,614.39,823.33,599,823.33Z" transform="translate(20.06 20.39)"/><path class="cls-13" d="M633.89,703.09a14,14,0,0,1-2.83-.78c-4.1-1.82.49-6.59,1.6-9,2.58-5.58.84-11.2-3.8-15.34s-9.25-4.46-12.21-10.17c-4.41-8.54,2-14.11-3.24-22.43-2.29-3.66-7.47-3.64-10.69-5.53-2-1.18-3.23-4.38-4.77-6.13-5.55-6.31-15.85-6.75-23.18-3.6-4.68,2-6.84,8.24-12.42,8.27-3.6,0-8.05,1-9.34,4.86-1,3,.69,5.75.58,8.72a12.24,12.24,0,0,1-3.08,7.69c-2.87,3.22-7.23,3.78-9.37,7.82a16,16,0,0,0-1.69,6.92,23.64,23.64,0,0,0,2.77,12c1.85,3.47,4.5,6.42,6,10.1,2.27,5.63-2.07,11.52-2.13,17.24-.27,23.43,16.78,40.14,36,47,12.92,4.66,34.38,1.41,47.22-3.73,16-6.42,33-22,23.83-40.59C649.5,709.16,641.73,704.44,633.89,703.09Z" transform="translate(20.06 20.39)"/><path class="cls-14" d="M633.89,703.09a14,14,0,0,1-2.83-.78c-4.1-1.82.49-6.59,1.6-9,2.58-5.58.84-11.2-3.8-15.34s-9.25-4.46-12.21-10.17c-4.41-8.54,2-14.11-3.24-22.43-2.29-3.66-7.47-3.64-10.69-5.53-2-1.18-3.23-4.38-4.77-6.13-5.55-6.31-15.85-6.75-23.18-3.6-4.68,2-6.84,8.24-12.42,8.27-3.6,0-8.05,1-9.34,4.86,0,.07,0,.13,0,.19a24.29,24.29,0,0,1,9.07-2c9.17-.14,15,3.86,17.77,9.53,7.79-1.24,15.64.72,18.87,4.65,6.06,7.37,7.23,19.28-5.45,28.81a30.21,30.21,0,0,1,9.8,7.14c17.12,2.61,24.23,17.31,14.5,28.4-10.81,12.32-20.68,24.28-30.47,36.67a12.39,12.39,0,0,1-5.78,3.79c.25.09.5.21.76.3,12.92,4.66,34.38,1.41,47.22-3.73,16-6.42,33-22,23.83-40.59C649.5,709.16,641.73,704.44,633.89,703.09Z" transform="translate(20.06 20.39)"/><path class="cls-15" d="M452.81,741.29c-.43.69.88,5.23,1.46,5.79,1.81.94,1.77.08,3.27-.39a15.41,15.41,0,0,1-3.07-4.18C454.05,741.67,453.38,740.38,452.81,741.29Z" transform="translate(20.06 20.39)"/><path class="cls-15" d="M448.34,745.13a38,38,0,0,0-3.89-.18,2.54,2.54,0,0,0-2,1.73,1.3,1.3,0,0,0,.16,1.42c-.68,1,1.46,2,1.26,2.21-.84.82-.3,2.19,3.21,2.39.21,0,8.42,2.5,11.14,3a50.1,50.1,0,0,0,1.43-8.37A28.05,28.05,0,0,0,455,746C453.1,745.54,448.65,745.15,448.34,745.13Z" transform="translate(20.06 20.39)"/><path class="cls-15" d="M551.56,707.41c-7.43,5.91-25.67,30.53-36.66,40.64-13.47,12.41,0,17.38,5.29,14.94,13.94-6.42,49.13-30.68,46.55-38.25C565.62,721.46,552.91,706.34,551.56,707.41Z" transform="translate(20.06 20.39)"/><path class="cls-15" d="M519.11,751.13a6.1,6.1,0,0,0-1.85-.62c-10.16-1.46-48.71-.32-59.06-3.53-.31,3.51.48,6.58-.31,8.68,17.12,4.93,59.85,12.23,63.66,6.22C525.05,756.38,522,752.58,519.11,751.13Z" transform="translate(20.06 20.39)"/><path class="cls-16" d="M559.12,714.31a166.47,166.47,0,0,1-17.87,18.54c-5.86,8.65-14.24,18.3-23.13,21.56a56.85,56.85,0,0,1-8.9,2.37c-.75,5.88,7.17,8,11,6.21,13.94-6.42,49.13-30.68,46.55-38.25C566.17,723.08,562.64,718.4,559.12,714.31Z" transform="translate(20.06 20.39)"/><path class="cls-16" d="M518.12,754.41c-10.89,4-26.77,4.6-38.22,3.42-1.69-.17-12.42-.25-16.31-.67,19.41,4.73,54.52,10.14,58,4.72,2.53-4,1.62-7-.15-9A25.4,25.4,0,0,1,518.12,754.41Z" transform="translate(20.06 20.39)"/><path class="cls-17" d="M551.56,707.41c-5.25,4.17-16.47,17.45-27.1,27.44a112.81,112.81,0,0,0,10.27,12.94c1.36,1.45,5.32,6,6.78,7.3,14.38-9.65,27-25.3,25.23-30.35C565.62,721.46,552.91,706.34,551.56,707.41Z" transform="translate(20.06 20.39)"/><path class="cls-18" d="M555.88,710.74A14.63,14.63,0,0,1,552.69,722c-6.29,8.28-13.64,15.32-21.3,22,1.15,1.38,2.3,2.69,3.34,3.81,1.36,1.45,5.32,6,6.78,7.3,14.38-9.65,27-25.3,25.23-30.35C566,722.56,560.13,715.15,555.88,710.74Z" transform="translate(20.06 20.39)"/><path class="cls-15" d="M584.62,676.9c-1.87,1.2-12.68,7.11-15.87,6.63,0,.92,2.27,10.66.12,15.9.91,4.8,14,4.88,18-3A23.68,23.68,0,0,1,584.62,676.9Z" transform="translate(20.06 20.39)"/><path class="cls-15" d="M572.62,660.6c-6.11-.42-12,1-13.38,6.77-.49,2.07.4,20.74,10.36,23.57,4.21,1.19,12.3-6,12.64-10.91,0,0,.46-6.69.46-6.76C583.15,666.76,579.19,661,572.62,660.6Z" transform="translate(20.06 20.39)"/><path class="cls-16" d="M584.62,676.89a81.1,81.1,0,0,1-8.69,4.53l-.15.32a35.23,35.23,0,0,1,2.81,13.81,25.91,25.91,0,0,1-.86,7c3.6-.58,7.31-2.52,9.1-6.14A23.7,23.7,0,0,1,584.62,676.89Z" transform="translate(20.06 20.39)"/><path class="cls-16" d="M572.62,660.6c-.51,0-1,0-1.52-.05a15.54,15.54,0,0,1,6.19,9.49c.64,3.08,1.2,6.6-.45,9.32-4.31,7.07-1.33,9.83.83,8.14,3-2.33,4.38-4.74,4.57-7.47,0,0,.46-6.69.46-6.76C583.15,666.76,579.19,661,572.62,660.6Z" transform="translate(20.06 20.39)"/><path class="cls-17" d="M617.44,723.41c-3.73-10.28-9.84-22-20.19-24.51-3.45-.83-10.24-2.82-10.24-2.82s-7.26,6.3-12.06,6.65c-3.29.24-6.08-3.3-6.08-3.3s-11.85,3.59-14,4.84c-8.35,4.84-8.49,13-9,19.81C541,791.73,538,814.21,538,820.64c0,3.49,19.49,4,32.95,5.12,27.18,2.2,60,12,58.94,4.41C624.54,792.41,618.6,726.58,617.44,723.41Z" transform="translate(20.06 20.39)"/><path class="cls-18" d="M598.74,699.35a22.11,22.11,0,0,1,.75,6A47.66,47.66,0,0,1,597.93,718c-.75,2.66-3.84,7.48-3.72,10.26.26,5.7,5.19,14.49,6.7,20.48,3.8,15.07,10.46,29.34,9.74,45.24-.73,16.1-7.36,27.46-17.24,34.71,20,3.27,37.24,7,36.46,1.46-5.33-37.76-11.27-103.59-12.43-106.76C613.89,713.64,608.19,702.56,598.74,699.35Z" transform="translate(20.06 20.39)"/><path class="cls-16" d="M582.46,670.69a5.5,5.5,0,0,0-2.73.94,77,77,0,0,0,2.85,7.51,5.88,5.88,0,0,0,3.35-4.61C585.86,672.83,584.15,670.63,582.46,670.69Z" transform="translate(20.06 20.39)"/><path class="cls-15" d="M535.34,809.93c-.93-.14-1.91-.56-1.93.71-.08.81,3.33,1.92,4.12,1.74,1.78-1,1.19-2,3-2.73A17.28,17.28,0,0,1,535.34,809.93Z" transform="translate(20.06 20.39)"/><path class="cls-15" d="M541.87,809.09a43.87,43.87,0,0,0-5.42,2.6c-2.11,1.17-6.53,4.29-6.84,4.52-.86.68-3.25,2.13-3.74,2.84a4.53,4.53,0,0,0-.44,2.7,1.37,1.37,0,0,0,1.28.85c.15,1.17,3,.25,2.94.54-.12,1.21,1.49,1.73,4.89-.81.2-.15,9.79-4.72,12.73-6.43C546.37,814,542,809.06,541.87,809.09Z" transform="translate(20.06 20.39)"/><path class="cls-15" d="M602.39,718.24c-3.11-1.54-22.78-3.3-23-1.59-1.11,9.42,3.31,39.74,2.66,54.66-.81,18.3,12.24,12.34,14.27,6.87C601.7,763.8,609.56,721.79,602.39,718.24Z" transform="translate(20.06 20.39)"/><path class="cls-17" d="M579.41,716.65c-3,6,.63,24,.12,38.57,6.22,2.72,17.62,4.17,26.37,2.33,3.39-17,3-32.49,1.07-37.47C602,707.27,583.31,708.9,579.41,716.65Z" transform="translate(20.06 20.39)"/><path class="cls-18" d="M599.84,712.37c5.49,20.18-3.39,41.74-3.57,46a43.15,43.15,0,0,0,9.63-.8c3.39-17,3-32.48,1.07-37.46A14,14,0,0,0,599.84,712.37Z" transform="translate(20.06 20.39)"/><path class="cls-15" d="M587.82,769.81a6.48,6.48,0,0,0-1.75.84c-8.3,6.05-35.13,33.75-44.78,38.67a34.52,34.52,0,0,1,4.79,7.22c15.7-8.41,52.45-33.77,51-40.73C595.74,769.42,590.9,768.84,587.82,769.81Z" transform="translate(20.06 20.39)"/><path class="cls-19" d="M535.46,830.52c-24.33-7.65-40.74-14.27-61.82-12.18-13.54,1.34-18.68,8.36-15.42,15.4,3.17,6.85,10.14,9.06,16.76,10.54A853,853,0,0,0,589.86,862c6.13-2.37,2.49-10.91,2.49-10.91C575,848.72,549.66,835,535.46,830.52Z" transform="translate(20.06 20.39)"/><path class="cls-12" d="M574,855.41c-3.66-.75-6.59-2.4-10.87-2.66-3.56-.22-7.11.37-11.09-.17-7.67-1.06-12.64-4.1-19.31-7.66-4.73-2.52-7.49-4.47-14.48-4.26-4.26.13-7.76,1.74-12.83,1.82-12.76.2-27.31-3.9-33.73-10.87-5-5.42-4.81-9.7-1.25-12.77-11.64,2.08-15.18,8.48-12.21,14.9,3.17,6.85,10.14,9.06,16.76,10.54,63.11,14.14,110.62,17.5,110.62,17.5,3.82-3.31,7.27-5.13,7.44-8.12C587.5,855.48,581.28,856.89,574,855.41Z" transform="translate(20.06 20.39)"/><path class="cls-20" d="M604,851.45a113.23,113.23,0,0,0-12.55-.52s.58,2.36-.79,2.32c-1.1,0-3.48.08-3.48.08a41.2,41.2,0,0,1-1.54,8.45s6.56.79,10,1.57c4,.9,6.83,2.32,9.89,2.94s4.5.44,5.76-2.5,2.11-6.88.13-9.23S607.83,852,604,851.45Z" transform="translate(20.06 20.39)"/><path class="cls-21" d="M602.41,862.91c-2.32-1.11.23-4.94-7.34-5.36a23.26,23.26,0,0,1-8.09-2.47,42.86,42.86,0,0,1-1.38,6.7s6.56.79,10,1.57c4,.9,6.83,2.32,9.89,2.94s4.5.44,5.76-2.5a16.77,16.77,0,0,0,1.12-3.72C610,864,606.6,864.92,602.41,862.91Z" transform="translate(20.06 20.39)"/><path class="cls-22" d="M604,851.45c-.52-.08-1.16-.14-1.87-.19,2.21.37,4.75,1,6,1.8,4.71,3.21,2.79,13.23-.63,13.5,0,0,3.33.29,4.17-2.51.9-3,1.77-7.14-.21-9.49S607.83,852,604,851.45Z" transform="translate(20.06 20.39)"/><path class="cls-19" d="M596.19,818.34c-21.08-2.09-37.48,4.53-61.82,12.18-14.19,4.46-39.57,18.2-56.89,20.54,0,0-3.64,8.54,2.49,10.91a853,853,0,0,0,114.88-17.69c6.62-1.48,13.59-3.69,16.76-10.54C614.87,826.7,609.73,819.68,596.19,818.34Z" transform="translate(20.06 20.39)"/><path class="cls-12" d="M599.4,818.84c3.56,3.07,3.76,7.35-1.25,12.77-6.42,7-21,11.07-33.73,10.87-5.06-.08-8.56-1.69-12.83-1.82-7-.21-9.75,1.74-14.47,4.26-6.68,3.56-11.65,6.6-19.32,7.66-4,.54-7.53-.05-11.09.17-4.28.26-7.21,1.91-10.87,2.66-7.29,1.48-13.51.07-19-1.75.17,3,3.62,4.81,7.45,8.12,0,0,47.5-3.36,110.61-17.5,6.62-1.48,13.59-3.69,16.76-10.54C614.58,827.32,611,820.92,599.4,818.84Z" transform="translate(20.06 20.39)"/><path class="cls-20" d="M479.21,853.25c-1.37,0-.79-2.32-.79-2.32a113.23,113.23,0,0,0-12.55.52c-3.87.56-5.39.69-7.44,3.11s-1.11,6.35.13,9.23,2.83,3.09,5.76,2.5,5.88-2,9.88-2.94c3.48-.78,10-1.57,10-1.57a41.2,41.2,0,0,1-1.54-8.45S480.31,853.22,479.21,853.25Z" transform="translate(20.06 20.39)"/><path class="cls-21" d="M474.76,857.55c-7.56.42-5,4.25-7.33,5.36-4.19,2-7.63,1.11-10-2.84a16.78,16.78,0,0,0,1.13,3.72c1.25,2.94,2.83,3.09,5.76,2.5s5.88-2,9.88-2.94c3.48-.78,10-1.57,10-1.57a42.86,42.86,0,0,1-1.38-6.7A23.35,23.35,0,0,1,474.76,857.55Z" transform="translate(20.06 20.39)"/><path class="cls-22" d="M461.75,853.06c1.24-.85,3.79-1.43,6-1.8-.72,0-1.35.11-1.88.19-3.87.56-5.39.69-7.44,3.11s-1.12,6.48-.22,9.49c.84,2.8,4.17,2.51,4.17,2.51C459,866.29,457.05,856.27,461.75,853.06Z" transform="translate(20.06 20.39)"/><rect class="cls-8" x="516.23" y="846.55" width="7.51" height="169.81"/><rect class="cls-9" x="523.75" y="846.55" width="2.48" height="169.81"/><rect class="cls-8" x="325.29" y="846.55" width="7.51" height="169.81"/><rect class="cls-9" x="332.8" y="846.55" width="2.48" height="169.81"/><rect class="cls-8" x="570.99" y="846.55" width="7.51" height="169.81"/><rect class="cls-9" x="578.51" y="846.55" width="2.48" height="169.81"/><rect class="cls-23" x="280" y="837.55" width="330.01" height="10.82"/><rect class="cls-24" x="561.37" y="837.55" width="52.91" height="10.82"/><rect class="cls-8" x="291.05" y="848.23" width="259.83" height="5.41"/><rect class="cls-9" x="550.89" y="848.23" width="45.99" height="5.41"/><path class="cls-24" d="M482.31,684.66H344.71a8.94,8.94,0,0,0-8.9,9.71l7.67,87.8a8.92,8.92,0,0,0,8.9,8.15H490a8.93,8.93,0,0,0,8.9-9.7l-7.67-87.81A8.92,8.92,0,0,0,482.31,684.66Z" transform="translate(20.06 20.39)"/><path class="cls-23" d="M478.81,684.65H341.21a8.94,8.94,0,0,0-8.9,9.72L340,782.16a8.92,8.92,0,0,0,8.9,8.16h137.6a8.94,8.94,0,0,0,8.91-9.71s-7.75-88.41-7.81-88.71A8.91,8.91,0,0,0,478.81,684.65Z" transform="translate(20.06 20.39)"/><path class="cls-25" d="M448.66,708.48H357.08a3.15,3.15,0,0,0-2.32,1,3.18,3.18,0,0,0-.82,2.41l5.1,58.43a3.12,3.12,0,0,0,3.14,2.87h91.57a3.11,3.11,0,0,0,2.33-1,3.08,3.08,0,0,0,.81-2.39c-1.71-19.56-4.95-56.44-5.18-58.87A3.12,3.12,0,0,0,448.66,708.48Z" transform="translate(20.06 20.39)"/><path class="cls-23" d="M406.64,759.24c11.57,0,14.81,12.5,14.81,12.5h5.36C420.71,756.17,406.64,759.24,406.64,759.24Z" transform="translate(20.06 20.39)"/><path class="cls-23" d="M372.51,814.49a2.67,2.67,0,0,0,2.67,2.67h30.24v-5.34H375.18A2.68,2.68,0,0,0,372.51,814.49Z" transform="translate(20.06 20.39)"/><path class="cls-3" d="M421.73,775.94a15.16,15.16,0,1,0-30.17-3L389.06,798a5.16,5.16,0,0,0,1.5,4.16l9.68,9.71h29.58l-10.39-13.36Z" transform="translate(20.06 20.39)"/><path class="cls-24" d="M423.46,798.33l3.35-26.59h-5.23L418.18,798a5.16,5.16,0,0,0,1.5,4.16l9.71,9.71H404.3a2.67,2.67,0,0,0,0,5.34h25.48a5.17,5.17,0,0,0,5.07-4.13,5.4,5.4,0,0,0-1.56-4.87Z" transform="translate(20.06 20.39)"/><path class="cls-10" d="M406.64,769a5.76,5.76,0,1,0,5.76,5.76A5.76,5.76,0,0,0,406.64,769Z" transform="translate(20.06 20.39)"/><path class="cls-26" d="M407.54,973.65H432.9c41.3-43.67,35.59-109.13,35.59-109.13C403.6,889,407.54,973.65,407.54,973.65Z" transform="translate(20.06 20.39)"/><path class="cls-27" d="M458.14,869.23C458.53,885,457,937,422.33,973.65H432.9c41.3-43.66,35.59-109.12,35.59-109.12A85.26,85.26,0,0,0,458.14,869.23Z" transform="translate(20.06 20.39)"/><path class="cls-28" d="M467.92,864.07c-.17.21-8.49,10.84-18.46,29.57a.88.88,0,0,0-.12.21c-2.25,4.25-4.58,8.92-6.92,14-.57-5.67-1.78-19.38-1-25.87a.74.74,0,0,0-.65-.81.71.71,0,0,0-.81.64c-1,8.26,1.12,27.18,1.28,28.65-2,4.41-4,9.11-5.94,14.06,0,0,0,.08,0,.12-1.84,4.7-3.64,9.66-5.35,14.81-2.14-5.2-8.2-21.41-6.31-33.73a.73.73,0,0,0-.61-.84.72.72,0,0,0-.83.61c-2.27,14.72,6.15,34.06,7.06,36.09-1.68,5.18-3.28,10.56-4.75,16.16a.15.15,0,0,1,0,.06c-1.33,5.09-2.56,10.33-3.65,15.75a.74.74,0,0,0,.57.86h.15a.74.74,0,0,0,.72-.58c1.05-5.24,2.24-10.31,3.52-15.25a237.09,237.09,0,0,1,24.21-7.24.74.74,0,0,0,.54-.89.75.75,0,0,0-.89-.54c-12,3-20.32,5.83-23.41,7a290.64,290.64,0,0,1,10.23-31.23,249.9,249.9,0,0,1,25-1.93.75.75,0,0,0,.72-.75.72.72,0,0,0-.76-.72c-10.94.25-20.94,1.4-24.4,1.84a295.5,295.5,0,0,1,13.57-29.38A109,109,0,0,1,468,891a.73.73,0,0,0,.65-.8.74.74,0,0,0-.8-.66,106.23,106.23,0,0,0-16.25,3.36c9.54-17.66,17.36-27.67,17.52-27.87a.74.74,0,0,0-.12-1A.72.72,0,0,0,467.92,864.07Z" transform="translate(20.06 20.39)"/><path class="cls-28" d="M411.62,939.32a.72.72,0,0,0-.79-.67.74.74,0,0,0-.67.79c.91,11,11.75,27,12.21,27.69a.73.73,0,0,0,1,.19.74.74,0,0,0,.19-1C423.47,966.14,412.5,950,411.62,939.32Z" transform="translate(20.06 20.39)"/><path class="cls-10" d="M472,973.65h16c23.76-13.6,30.87-41.43,30.87-41.43C472,931,472,973.65,472,973.65Z" transform="translate(20.06 20.39)"/><path class="cls-29" d="M512.34,932.35c-.56,2-8,28.23-30.84,41.3H488c23.76-13.6,30.87-41.43,30.87-41.43C516.58,932.16,514.41,932.21,512.34,932.35Z" transform="translate(20.06 20.39)"/><path class="cls-8" d="M509.25,939.49A65.09,65.09,0,0,0,498,946.57a.29.29,0,0,0-.12.1c-1.7,1.31-3.47,2.8-5.23,4.46.16-2,.73-7.07,2.47-9.27a.35.35,0,0,0-.06-.48.33.33,0,0,0-.47.06c-2.22,2.8-2.63,9.59-2.67,10.39a58.32,58.32,0,0,0-5.18,5.77.23.23,0,0,0-.08.09,51.72,51.72,0,0,0-3,4.28c-.32-2.29-.95-8.65.77-14.16a.34.34,0,0,0-.64-.2c-2.07,6.59-.83,14.36-.67,15.27a43.2,43.2,0,0,0-2.66,5.21l0,0c-.43,1-.83,2-1.18,3.08a.31.31,0,0,0,.21.42.18.18,0,0,0,.1,0,.32.32,0,0,0,.32-.23c.34-1,.72-1.94,1.11-2.88a37.1,37.1,0,0,1,10.89-1,.34.34,0,1,0,0-.67,38.38,38.38,0,0,0-10.6.94,46.65,46.65,0,0,1,5.82-9.61c1.14-.09,8-.59,12.85.66h.08a.34.34,0,0,0,.33-.25.34.34,0,0,0-.25-.41c-4.42-1.15-10.3-.88-12.44-.73a63.39,63.39,0,0,1,10.61-10.27,37.82,37.82,0,0,1,8.31.31h.05a.34.34,0,0,0,.34-.29.34.34,0,0,0-.28-.38,39.13,39.13,0,0,0-7.45-.37,65.4,65.4,0,0,1,10.24-6.34.32.32,0,0,0,.17-.44A.33.33,0,0,0,509.25,939.49Z" transform="translate(20.06 20.39)"/><path class="cls-30" d="M404.72,898.92c-.39-4.82-3.28-8.43-5.72-12.4a20.39,20.39,0,0,1-2.93-13.47c1.14-9.86,7.64-18.82,6.57-29-.81-8-6.91-14.59-15.37-12.66-8.73,2-13.24,10.14-14.81,18.34-1.85,9.49-.56,19.54-3.95,28.76-3,8.2-12,13.8-12.07,23.1,0,5.34,2.41,10.36,4,15.37a26.21,26.21,0,0,1,1.46,8.43c-.06,2.63-1.1,4.14-2.35,6.35a43.25,43.25,0,0,0-5.21,27c1.59,5.52,4.34,11.09,8.62,14.84h38.81a12.84,12.84,0,0,0,4.51-10c-.28-11.48-9.24-20.58-10-32C395.45,919.92,405.73,910.62,404.72,898.92Z" transform="translate(20.06 20.39)"/><path class="cls-31" d="M376.57,838.94c-4.17,6.31-4.85,14.23-5.31,21.79s-.89,15.45-4.71,22c-3.09,5.29-8.3,9.5-9.72,15.46-1.23,5.15.66,10.33,2.47,15.5.67,1.93,1.33,3.86,1.81,5.78a18.07,18.07,0,0,1,.29,9.34,42.14,42.14,0,0,0-7.08,30c1.47,5.1,3.94,10.22,7.68,13.93a20.72,20.72,0,0,1-.69-4.93c.5-7.26,7.39-27.36,6.6-30.64-1.12-4.69-2.17-9.51-2.06-14.36a32.49,32.49,0,0,1,3.77-14.4c1.79-3.46,5.51-6.84,6.68-10.49,7.92-24.7-15.09-41.55,21.86-63.78a10.83,10.83,0,0,0-2-1.56C389.6,828.75,380.74,832.62,376.57,838.94Z" transform="translate(20.06 20.39)"/><path class="cls-24" d="M388.64,836.48c-4.5,4.14-4.31,11-3.36,16,.23,1.24.54,2.5.82,3.73.89,4,1.84,8.09,1.12,12.07-.56,3-2,5.65-3.48,8.51a30.87,30.87,0,0,0-3.64,8.93c-.7,3.81,0,7.65.65,11.34.59,3.33,1.23,6.78.78,10.11a34.69,34.69,0,0,1-2.21,7.31,37.37,37.37,0,0,0-2.15,6.72c-1.29,6.66,1,13.49,3.41,19.29.36.89.73,1.76,1.12,2.63,2.13,5,4.31,10.16,4.76,15.57.42,5.21-1.4,11.82-6.24,14.95h2.63c4.09-3.72,5.63-9.88,5.21-15.09-.45-5.66-2.72-10.92-4.9-16-.37-.87-.73-1.74-1.09-2.61-2.33-5.6-4.54-12.15-3.34-18.42a38.32,38.32,0,0,1,2.07-6.44,33.33,33.33,0,0,0,2.3-7.67c.48-3.56-.14-7.15-.78-10.59-.68-3.72-1.29-7.25-.65-10.75a30.23,30.23,0,0,1,3.47-8.51,30.49,30.49,0,0,0,3.64-9c.79-4.29-.19-8.57-1.14-12.72-.28-1.2-.56-2.43-.79-3.66-.72-3.78-1.28-10.7,2.89-14.56a.8.8,0,1,0-1.1-1.15Z" transform="translate(20.06 20.39)"/><path class="cls-11" d="M320.68,905.63s23.85,15.3,27.25,55.73l3.14.68S346.61,919,320.68,905.63Z" transform="translate(20.06 20.39)"/><path class="cls-11" d="M293.17,905.38s19,10.13,33.14,3.84C326.31,909.22,312.87,896.34,293.17,905.38Z" transform="translate(20.06 20.39)"/><path class="cls-11" d="M336.56,922.28a31.55,31.55,0,0,0,2.22-30C325.94,910.58,336.56,922.28,336.56,922.28Z" transform="translate(20.06 20.39)"/><path class="cls-11" d="M330.36,923.6s16.25,10.43,18.56,38l2.15.46S348,932.72,330.36,923.6Z" transform="translate(20.06 20.39)"/><path class="cls-11" d="M310.23,927.65s14.23,3.58,22.54-2.89C332.77,924.76,321.77,918.44,310.23,927.65Z" transform="translate(20.06 20.39)"/><path class="cls-11" d="M342.56,937.58a21.51,21.51,0,0,0,8.33-18.75C338.44,927.63,342.56,937.58,342.56,937.58Z" transform="translate(20.06 20.39)"/><path class="cls-3" d="M71.55,1028c-21.7-.83-30.81,20.19-56.71,21.59-12.12.66-23.92.56-34.78.34v18.74c39.15,9.36,46.63-9.18,93.58-2.28,47.6,7,52.84-12.64,52.84-12.64C106.18,1060.75,93.25,1028.83,71.55,1028Z" transform="translate(20.06 20.39)"/><path class="cls-9" d="M678.16,520a25.17,25.17,0,1,0,25.16,25.16A25.17,25.17,0,0,0,678.16,520Z" transform="translate(20.06 20.39)"/><path class="cls-32" d="M817.06,546.68c-9.3-1-19.75-10.32-31.63-9.12-1.93.2-8.25,1.63-10.16,1.93-15.89,2.49-28.47-7.56-43.4-1.6-6.39,2.54-12.24,7.67-19.09,7-14.5-1.35-11.43,5.17-10.47,5.76,6.74,4.2,14.68,3.16,22.63,3.16,30.67,0,60.3,1.72,90.08-.87a8,8,0,0,0,4.26-1.22c1.19-.9,1.78-2.77.83-3.93A4.39,4.39,0,0,0,817.06,546.68Z" transform="translate(20.06 20.39)"/><path class="cls-32" d="M1084.65,559.13c-9.3-1-19.75-10.31-31.63-9.11-1.93.19-8.24,1.63-10.16,1.93-15.89,2.49-28.46-7.57-43.4-1.61-6.39,2.55-12.24,7.67-19.09,7-14.5-1.35-11.43,5.17-10.47,5.77,6.75,4.19,14.69,3.15,22.63,3.15,30.67,0,60.31,1.72,90.09-.87a8.07,8.07,0,0,0,4.25-1.22c1.2-.9,1.78-2.77.83-3.93A4.34,4.34,0,0,0,1084.65,559.13Z" transform="translate(20.06 20.39)"/><path class="cls-32" d="M679.78,446.88c-13.71-1.47-29.12-15.19-46.62-13.43-2.84.29-12.16,2.41-15,2.85-23.42,3.66-42-11.15-64-2.37-9.41,3.75-18,11.3-28.14,10.37-21.36-2-16.84,7.62-15.43,8.5,10,6.18,21.65,4.65,33.36,4.65,45.21,0,88.9,2.53,132.79-1.28,2.2-.19,4.51-.47,6.27-1.8s2.63-4.09,1.23-5.8C683.24,447.3,681.42,447.06,679.78,446.88Z" transform="translate(20.06 20.39)"/><path class="cls-32" d="M247.18,521.28c-13.71-1.47-29.12-15.19-46.62-13.43-2.84.29-12.16,2.41-15,2.85-23.42,3.66-42-11.15-64-2.37-9.41,3.75-18,11.3-28.14,10.37-21.36-2-16.84,7.62-15.43,8.5,10,6.18,21.65,4.65,33.36,4.65,45.21,0,88.9,2.53,132.79-1.28,2.2-.19,4.51-.47,6.27-1.8s2.63-4.09,1.23-5.8C250.64,521.7,248.82,521.46,247.18,521.28Z" transform="translate(20.06 20.39)"/><path class="cls-3" d="M611.2,956.39c-36.64,0-51.8,6.89-71.14,6.37v69.72c62.06,10.3,105-13.9,131-13.9,68.22,0,59.17,61.19,103.57,61.19,30.51,0,55.63-75.5,86.94-81.36,17.79-3.33,25.33,26.38,51.31,26.38,39.23,0,35.67-15.68,78.89-20.31,44.3-4.75,108.27-30.88,108.27-30.88H717.86C698.68,971.19,675.24,956.39,611.2,956.39Z" transform="translate(20.06 20.39)"/><path class="cls-3" d="M468.91,956.62c36.64,0,51.8,6.89,71.15,6.38v69.71c-62.06,10.3-105-13.9-131-13.9-68.22,0-59.17,61.19-103.56,61.19-30.52,0-55.64-75.5-87-81.36-17.78-3.32-25.33,26.38-51.31,26.38-39.22,0-35.67-15.67-78.89-20.31C44,1000-19.94,973.83-19.94,973.83h382.2C381.44,971.42,404.87,956.62,468.91,956.62Z" transform="translate(20.06 20.39)"/><path class="cls-3" d="M987.27,1050.68c-5.79-.53-11.77,7.85-18.68,8.76s-13.46-.4-17.94,0c-2.59.23-10.28,2.72-10.28,2.72a110.31,110.31,0,0,1,18.5,9.47c10.84,6.71,12.71-5.8,25.42-1.24s56.56-1.41,52.81-5C1032,1060.46,993.07,1051.22,987.27,1050.68Z" transform="translate(20.06 20.39)"/></g></g></svg>