<svg id="b0225cde-a2d2-4693-8ce5-502a1e8a6144" xmlns="http://www.w3.org/2000/svg" viewBox="0 0 1077.38 752.86"><defs><style>.cls-1{fill:#f2f2f2;}.cls-2{fill:#6c63ff;}.cls-3{fill:#5333ed;}.cls-4{fill:#3f3d56;}.cls-5{opacity:0.1;isolation:isolate;}.cls-6{fill:#2f2e41;}.cls-7{fill:#a0616a;}.cls-8{fill:#d0cde1;}</style></defs><title>M</title><circle class="cls-1" cx="440.69" cy="422.88" r="342"/><path class="cls-2" d="M900.4,171.05l-35.68,42.3c-1.92,18.22-4.65,38.58-8.52,59.94l58.62-60.64.27,1.06c-3.33-16.3-8.38-31.09-15-43.66Z"/><path class="cls-2" d="M865.06,210.16l34.56-41c-7.55-14-17.1-25.23-28.51-32.58-.6-.38-1.2-.74-1.79-1.1C869.32,140.48,869.18,169.72,865.06,210.16Z"/><path class="cls-2" d="M909.33,341.3l.07,1.23q3-11.28,5.13-22.59l-85,54.89-.06-.56c-1.6,4.37-3.26,8.67-5,12.89Z"/><path class="cls-2" d="M919.46,274.61l.17,1.16a258.82,258.82,0,0,0-4.31-60.93l-59.74,61.8q-5.58,30-13.13,57.12Z"/><path class="cls-2" d="M768.73,171.2a216.2,216.2,0,0,0-22.8,37.1l98.45,112.39c4.06-15.76,7.33-31.05,10-45.31L768.22,172.32Z"/><path class="cls-2" d="M739,223.73l.5-1.13L840.58,334.78q1.63-5.76,3.12-11.46l-98.82-112.8.51-1.13Q742,216.32,739,223.73Z"/><path class="cls-2" d="M914.68,317.29l.12,1.2a309.33,309.33,0,0,0,4.77-41.38l-78.05,59.95q-5.14,18-11.14,34.66Z"/><path class="cls-2" d="M802,433.89c-13.22,23-28.21,42.49-44.81,58.16,18.36-7.4,92.33-40,130.67-98.87Z"/><path class="cls-2" d="M723.59,280.83a298.24,298.24,0,0,0-1.72,40l.61-1.2,79.3,111.25a371,371,0,0,0,19.46-40.07Z"/><path class="cls-2" d="M863.6,210c4.44-43.75,4.21-74.24,4.2-74.67l.76-.31c-17.86-10.35-37.58-10-56.8-.79Z"/><path class="cls-2" d="M823.17,390.41c-.53,1.3-1.07,2.62-1.61,3.9A368.29,368.29,0,0,1,804,430.44l85-40.33,0,1.2a146.3,146.3,0,0,0,15.83-33.38Q907.13,351,909,344Z"/><path class="cls-2" d="M854.86,272.54c3.81-21.12,6.5-41.24,8.4-59.25l-53-77.51.56-1.06c-14.44,7.14-28.56,19.27-41.35,35.59Z"/><path class="cls-2" d="M800.62,432.91,721.9,322.48c1.9,80,29.23,165.47,31,170.91C771.79,476.46,787.53,455.65,800.62,432.91Z"/><path class="cls-2" d="M822.16,388.43l.08-.05a502.27,502.27,0,0,0,17.61-51L738.49,224.89q-4.11,10.06-7.63,21a179.28,179.28,0,0,0-6.92,32Z"/><path class="cls-2" d="M980.61,499.7l-54.46,9.82c-13.1,12.81-28.19,26.75-44.79,40.73l83.83-9.32-.47,1c7.83-14.68,13.37-29.29,16.28-43.2Z"/><path class="cls-2" d="M928.45,507.27l52.75-9.52c3.14-15.61,2.92-30.33-1.18-43.27-.21-.67-.44-1.33-.68-2C976.17,456.33,957.41,478.76,928.45,507.27Z"/><path class="cls-2" d="M878.9,636.51l-.73,1q9.51-6.76,18.36-14.12l-100.48-12,.31-.46q-6,3.51-12,6.76Z"/><path class="cls-2" d="M929.24,591.61l-.61,1a258.27,258.27,0,0,0,35.54-49.67l-85.43,9.49Q855.31,572,832.2,588Z"/><path class="cls-2" d="M879.1,415.83a216.6,216.6,0,0,0-41.22,14L842,579.22c13.18-9.56,25.45-19.25,36.57-28.55L878,416.36Z"/><path class="cls-2" d="M822.68,437.31l1.1-.55,6.33,150.89q4.92-3.4,9.71-6.84L835.66,430.9l1.11-.54Q829.77,433.56,822.68,437.31Z"/><path class="cls-2" d="M898.34,621.43l-.68,1a308.9,308.9,0,0,0,30.07-28.82L829.38,590q-15.48,10.62-30.69,19.59Z"/><path class="cls-2" d="M737.19,639.38c-24.87,9.3-48.83,14.73-71.61,16.21,18.86,6,96.65,28.06,163.7,7.2Z"/><path class="cls-2" d="M774.41,471.47a299.56,299.56,0,0,0-26.82,29.7l1.24-.53L739,636.89a371.57,371.57,0,0,0,40.54-18.44Z"/><path class="cls-2" d="M927.4,506.24c31.33-30.86,50.59-54.49,50.87-54.83l.78.25c-7.15-19.36-22.58-31.67-43.24-36.84Z"/><path class="cls-2" d="M781.22,619.39c-1.25.66-2.49,1.33-3.73,2A369.17,369.17,0,0,1,740.9,638l91.23,23.18-.74,1a146.08,146.08,0,0,0,33.48-15.62q6.15-3.91,12.06-8.1Z"/><path class="cls-2" d="M880.8,548.81c16.41-13.83,31.31-27.61,44.26-40.27l8.6-93.52,1.11-.46c-15.68-3.71-34.29-3.37-54.56,1Z"/><path class="cls-2" d="M736.74,637.73l9.81-135.26c-49.6,62.86-83,146.09-85.14,151.4C686.77,652.89,712.16,646.89,736.74,637.73Z"/><path class="cls-2" d="M781.7,617.21l.09,0a499,499,0,0,0,46.11-28.08l-6.33-151.26Q812,443,802.31,449.17a180.6,180.6,0,0,0-25.71,20.22Z"/><path class="cls-2" d="M697.76,317.59,676.9,368.85c3.81,17.92,7.5,38.13,10.42,59.64l37-75.8.59.93c-8.21-14.47-17.58-27-27.78-36.88Z"/><path class="cls-3" d="M665.58,586.43h-114V323.63l-67.51,223.8H362.57l-67.5-223.8v262.8h-114v-420h158.1L423.47,419l84-252.6H665.58Z"/><path class="cls-2" d="M676.23,365.71l20.21-49.65c-11.51-11-24.06-18.71-37.19-22.17-.68-.18-1.36-.34-2-.5C658.75,298.13,667.65,326,676.23,365.71Z"/><path class="cls-2" d="M758.87,476.74l.45,1.15q-.63-11.65-2.1-23.07L693.34,533.3l-.23-.52c-.18,4.67-.42,9.26-.73,13.8Z"/><path class="cls-2" d="M747.89,410.19l.53,1.05a259.28,259.28,0,0,0-22.94-56.61l-37.71,77.24q4,30.25,5.16,58.38Z"/><path class="cls-2" d="M572.59,358.44a216.21,216.21,0,0,0-10.23,42.32l128.38,76.46c-1-16.24-2.64-31.79-4.54-46.16l-113.76-71.4Z"/><path class="cls-2" d="M560.52,417.59l.12-1.23L691.48,491.8q-.24-6-.58-11.87L562.05,403.2l.14-1.23Q561.14,409.59,560.52,417.59Z"/><path class="cls-2" d="M756.54,452.25l.49,1.11a308.55,308.55,0,0,0-8.26-40.83l-55.7,81.14q.69,18.76.12,36.41Z"/><path class="cls-2" d="M685.43,598c-5.46,26-13.7,49.12-24.64,69.16,15.17-12.72,75.44-66.62,93.71-134.42Z"/><path class="cls-2" d="M563.54,476.65a298.74,298.74,0,0,0,10.72,38.55l.22-1.33,109.8,81.29A372.36,372.36,0,0,0,690.4,551Z"/><path class="cls-2" d="M674.8,366c-9.29-43-18.94-71.9-19.08-72.32l.63-.52c-20.18-4.33-38.83,2.11-54.26,16.8Z"/><path class="cls-2" d="M692.12,550.08c-.11,1.41-.21,2.82-.33,4.21a370,370,0,0,1-5.56,39.79l68.41-64.64.42,1.14a146.68,146.68,0,0,0,4.73-36.65c0-4.85-.14-9.69-.39-14.51Z"/><path class="cls-2" d="M685.81,428.19c-2.9-21.26-6.56-41.23-10.32-58.94L601.1,311.92l.21-1.18C589.78,322,580.1,337.9,573,357.37Z"/><path class="cls-2" d="M683.8,597.47l-109-80.69c26.55,75.54,79,148.34,82.3,153C669.85,647.8,678.38,623.14,683.8,597.47Z"/><path class="cls-2" d="M690.54,548.51l.06-.07a501.08,501.08,0,0,0,1-54L560.42,418.84q-.79,10.85-.78,22.31A179.56,179.56,0,0,0,563,473.69Z"/><ellipse class="cls-4" cx="527.88" cy="726.98" rx="498.44" ry="17.1"/><path class="cls-5" d="M730.69,701.12c0,62.19-86.69,43-192.83,43s-191.55,19.24-191.55-43S433,625.39,539.13,625.39,730.69,638.92,730.69,701.12Z"/><path class="cls-4" d="M730.69,685.8c0,62.2-86.69,43-192.83,43S346.31,748,346.31,685.8,433,610.08,539.13,610.08,730.69,623.61,730.69,685.8Z"/><path class="cls-6" d="M751.66,426.57s0,104.39,5.58,127.5,25.5,106.78,25.5,106.78l27.1-5.58s-4.79-110.77-9.57-126.7,5.58-81.28,19.13-95.63S813,409.83,813,409.83Z"/><path class="cls-5" d="M751.66,426.57s0,104.39,5.58,127.5,25.5,106.78,25.5,106.78l27.1-5.58s-4.79-110.77-9.57-126.7,5.58-81.28,19.13-95.63S813,409.83,813,409.83Z"/><path class="cls-6" d="M817,640.92s-35.86,14.35-38.25,14.35-4,41.44-4,41.44,2.39,24.7-36.65,32.67,31.08,25.5,43.83,16.73S800.27,731,800.27,731l4.78-8-1.59,13.55,5.58.8,12.75-25.5s3.19-19.13-.8-23.91S817,640.92,817,640.92Z"/><polygon class="cls-7" points="636.92 491.11 642.49 522.19 668.79 519.8 664.01 497.49 636.92 491.11"/><path class="cls-6" d="M766,359.63l-4.78,8s-137.86-19.12-137.86,31.87-6.38,81.29-8,83.68,41.44,27.89,51,26.29c0,0,6.38-8.76,5.58-19.92s6.37-52.59,0-55c0,0,8-3.19,7.17-8,0,0,112.36,15.94,126.7,12.75s23.91-13.55,26.3-19.92,7.51-31.25,7.51-31.25l-1.14-42.07-12.75-15.14-19.12-2.39-29.49,18.33Z"/><path class="cls-7" d="M851.27,435.33s-11.15,25.5,1.6,25.5,17.53-22.31,17.53-22.31Z"/><path class="cls-8" d="M766,229l-4-4.79S717.4,123.76,734.93,96.67s94-31.08,96.42-29.49,9.56,7.17,8.77,8.77S823.38,81.53,829,91.09c0,0-8,2.39-9.56-.8s-6.38-4-8-.8-27.09,10.36-27.09,12.75-4,14.35-8,15.94.79,25.5,8.76,31.88S798.68,174,798.68,174l-4,35.86Z"/><path class="cls-6" d="M788.81,94.86c-4.76,2.42-9.5,5.52-12.38,10.4-5.88,10-2.12,23.67-5.77,34.91-1.55,4.8-4.38,8.92-6.72,13.3s-4.24,9.39-3.63,14.44,3.52,9.16,4.89,13.92c2.37,8.18,0,17.06-2.68,25.13q-2.19,6.63-4.67,13.14c-1,2.52-2.11,5.22-4.31,6.43l18.86,1.55c5.48.45,11.54.71,15.84-3.09a18.25,18.25,0,0,0,4.13-5.9c4.26-8.89,4.94-19.37,4.46-29.44s-2.07-20.05-2-30.13a30.46,30.46,0,0,1,1.32-9.77,55.5,55.5,0,0,1,3.54-7.17c4.3-8.29,6.08-17.86,7.79-27.24,1.17-6.43,3-15.75-.31-21.79S793.35,92.55,788.81,94.86Z"/><circle class="cls-7" cx="807.45" cy="132.53" r="32.67"/><path class="cls-7" d="M794.7,160.42s5.18,20.32,2,30.67,43.43-13.94,43.43-13.94-14.35-19.12-14.35-25.5Z"/><path class="cls-8" d="M854.46,191.49s-10.36-8-10.36-12-7.17-12.75-7.17-12.75-34.27,17.53-35.86,17.53S798.68,174,798.68,174L762,224.16s-11.95,28.69-8,51,10.35,45.43,7.17,66.14.79,27.89,5.58,25.5,0-10.36,10.35-9.56S822.59,346.88,825,342.1s11.95,10.36,12.75,19.13-1.6,32.67,0,31.87,4-14.34,4.78-20.72,3.18-27.09,0-30.28-.8-8,1.59-9.56,41.44-100.41,41.44-100.41-4-20.72-17.53-27.89S854.46,191.49,854.46,191.49Z"/><path class="cls-8" d="M872.79,218.59l12.75,13.54v71.72s16.73,86.06,6.37,90.84-15.14,3.19-15.14,3.19,2.39,43.83-4.78,43.83-18.33-3.19-24.7-1.6c0,0,1.59-15.93,6.37-23.1s4.78-19.93,4.78-19.93-7.17,0-7.17-10.35-.79-16.74-1.59-19.13S843.3,323,843.3,323Z"/><path class="cls-6" d="M800.47,93.2c5.52-3.5,12.83-.85,19.24-2.14,7-1.4,12.76-7.48,19.86-7.13,5.9.29,10.56,4.94,14.39,9.45a66.68,66.68,0,0,1,9.16,13.12c2.62,5.26,4,11,5.45,16.71l4.71,19.12c1.6,6.48,3.21,13,6.12,19s7.22,11.54,13.08,14.72a38.45,38.45,0,0,1-22,.07,45.13,45.13,0,0,0,13.25,18.54c-5.31,1.62-11,0-16.58.34a23.55,23.55,0,0,0-19.08,12.5c-2.9,5.65-3.34,12.2-5.07,18.3-5.16,18.23-23.13,32-42.08,32.28,5.31-7.66,10.89-16.55,8.83-25.63-1.24-5.5-5.16-10.11-6.32-15.62-1.24-5.89.81-11.9,2.21-17.75s2-12.58-1.66-17.39c-3.85-5.09-11.57-6.77-14.05-12.65a18,18,0,0,1-1-6.79l-.16-10.48a22.15,22.15,0,0,1,.55-6.54c.82-2.81,2.7-5.16,4.49-7.47,3.41-4.39,6.72-9.06,8-14.45,1.61-6.56-.88-10.62-4.07-15.93C795,102.82,795.68,96.25,800.47,93.2Z"/><path class="cls-7" d="M835.34,72.76s36.65,31.88,27.09,43-24.7-20.72-24.7-20.72L821.79,83.12Z"/><path class="cls-6" d="M682.34,500.68s-42.24,10.36-47,19.12c0,0-5.58,27.09-5.58,38.25s-2.39,31.88-24.7,35.86-38.25,11.16-8,16.73,39,7.18,47.82-4.78,13.54-15.14,13.54-15.14l6.38,15.94h4L683.93,574s1.6-15.94-2.39-25.5S682.34,500.68,682.34,500.68Z"/><path class="cls-8" d="M839.72,75.55S838.5,88.3,821.18,90.69l-3.77-12,12-10.36Z"/></svg>