<svg aria-labelledby="moz-logo-title" class="mgn-moz-logo" width="83" height="24" role="img" xmlns="http://www.w3.org/2000/svg" viewBox="0 0 83 24">
            <title id="moz-logo-title">Moz</title>
            <path d="M71 16L82.99 3h-25.1c-.48.018-.866.4-.89.882v2.736C54.697 2.696 49.97 0 44.5 0 38.036 0 32.61 3.76 31 8.863V3h-4.38c-1.043.015-1.957.478-2.62 1.177l-8.498 9.325L7 4.177C6.34 3.477 5.427 3.015 4.383 3H0v19h5.117c.492-.024.863-.42.883-.91V12l9.5 10.5L25 12v9.09c.017.49.415.886.905.91H31v-6.863C32.61 20.24 38.036 24 44.5 24c7.732 0 14-5.373 14-12 0-1.038-.17-2.04-.46-3H69L57 22h25.104c.48-.018.872-.403.896-.884V16H71zm-26.452 1.96c-3.764 0-6.818-2.668-6.818-5.96 0-3.293 3.053-5.96 6.818-5.96 3.768 0 6.822 2.668 6.822 5.96s-3.053 5.96-6.822 5.96z"></path>
          </svg>