<?xml version="1.0" encoding="utf-8"?>
<!-- Generator: Adobe Illustrator 21.1.0, SVG Export Plug-In . SVG Version: 6.00 Build 0)  -->
<svg version="1.1" id="Layer_1" xmlns="http://www.w3.org/2000/svg" xmlns:xlink="http://www.w3.org/1999/xlink" x="0px" y="0px"
	 viewBox="0 0 80 80" enable-background="new 0 0 80 80" xml:space="preserve">
<title>icons/services/mysql@2x</title>
<desc>Created with Sketch.</desc>
<g id="SANDBOX">
	<g id="NL_Sandboxes-Box---stacks-logos" transform="translate(-420.000000, -846.000000)">
		<g id="icons_x2F_services_x2F_mysql" transform="translate(400.000000, 826.000000)">
			<rect id="Rectangle-10-Copy-24" x="19.5" y="20" fill="none" width="80" height="80"/>
			<g id="mysql" transform="translate(20.000000, 20.000000)">
				<path id="Shape" fill="#00546B" d="M56.9,50.8c-2.2-0.1-3.9,0.2-5.4,0.8c-0.4,0.2-1.1,0.2-1.1,0.7c0.2,0.2,0.2,0.6,0.4,0.9
					c0.3,0.6,0.9,1.3,1.4,1.7c0.6,0.4,1.2,0.9,1.8,1.3c1.1,0.7,2.3,1,3.3,1.7c0.6,0.4,1.2,0.9,1.8,1.3c0.3,0.2,0.5,0.6,0.9,0.7v-0.1
					c-0.2-0.2-0.2-0.6-0.4-0.9c-0.3-0.3-0.6-0.5-0.8-0.8C58,57,57,56.1,56,55.3c-0.9-0.6-2.8-1.4-3.2-2.5c0,0,0,0-0.1-0.1
					c0.6-0.1,1.3-0.3,1.9-0.4c0.9-0.2,1.8-0.2,2.8-0.4c0.4-0.1,0.9-0.2,1.3-0.4v-0.2c-0.5-0.5-0.9-1.2-1.4-1.6
					c-1.4-1.2-3-2.4-4.6-3.4c-0.9-0.6-2-0.9-2.9-1.4c-0.3-0.2-0.9-0.2-1.1-0.5c-0.5-0.6-0.8-1.4-1.1-2.1c-0.8-1.5-1.6-3.2-2.3-4.8
					c-0.5-1.1-0.8-2.2-1.4-3.1c-2.8-4.7-5.9-7.5-10.7-10.3c-1-0.6-2.2-0.8-3.5-1.1c-0.7,0-1.4-0.1-2.1-0.1c-0.4-0.2-0.9-0.7-1.3-1
					c-1.6-1-5.6-3.1-6.8-0.3c-0.7,1.8,1.1,3.6,1.7,4.5c0.5,0.6,1.1,1.4,1.4,2.1c0.2,0.5,0.2,1,0.4,1.5c0.4,1.2,0.9,2.6,1.4,3.7
					c0.3,0.6,0.6,1.2,1,1.7c0.2,0.3,0.6,0.4,0.7,0.9c-0.4,0.6-0.4,1.4-0.6,2.1c-1,3.1-0.6,7,0.8,9.3c0.4,0.7,1.5,2.2,2.9,1.6
					c1.2-0.5,1-2.1,1.3-3.5c0.1-0.3,0-0.6,0.2-0.8c0,0,0,0.1,0,0.1c0.4,0.8,0.8,1.5,1.1,2.3c0.9,1.4,2.3,2.8,3.6,3.7
					c0.7,0.5,1.2,1.4,2,1.7v-0.1h-0.1c-0.2-0.2-0.4-0.4-0.6-0.6c-0.5-0.5-1-1.1-1.4-1.7c-1.2-1.5-2.2-3.3-3.1-5
					c-0.4-0.9-0.8-1.8-1.2-2.7c-0.2-0.3-0.2-0.8-0.4-1c-0.4,0.6-1,1.1-1.3,1.9c-0.5,1.2-0.6,2.7-0.8,4.2c-0.1,0-0.1,0-0.1,0.1
					c-0.9-0.2-1.2-1.1-1.5-1.9c-0.8-2-1-5.1-0.2-7.4c0.2-0.6,1-2.4,0.7-3c-0.2-0.5-0.7-0.8-1-1.2c-0.4-0.5-0.7-1.2-1-1.8
					c-0.7-1.5-1-3.3-1.7-4.8c-0.3-0.7-0.9-1.5-1.4-2.1C22,24.5,21.4,23.9,21,23c-0.1-0.3-0.3-0.8-0.1-1.1c0.1-0.2,0.2-0.3,0.4-0.4
					c0.4-0.3,1.4,0.1,1.7,0.2c1,0.4,1.9,0.8,2.7,1.4c0.4,0.3,0.8,0.8,1.3,0.9h0.6c0.9,0.2,1.9,0.1,2.7,0.3c1.5,0.5,2.8,1.2,4,1.9
					c3.6,2.3,6.6,5.6,8.6,9.4c0.3,0.6,0.5,1.2,0.8,1.9c0.6,1.4,1.3,2.7,1.9,4.1c0.6,1.3,1.1,2.6,2,3.7c0.4,0.6,2.1,0.9,2.8,1.2
					c0.6,0.2,1.4,0.5,1.9,0.8c0.9,0.6,1.9,1.2,2.8,1.9C55.4,49.6,56.8,50.3,56.9,50.8L56.9,50.8L56.9,50.8z"/>
				<path id="Shape_1_" fill="#00546B" d="M28.7,26.8c-0.5,0-0.8,0.1-1.1,0.1c0,0,0,0,0,0.1h0.1c0.2,0.4,0.6,0.7,0.9,1.1
					c0.2,0.4,0.4,0.9,0.6,1.3c0,0,0.1-0.1,0.1-0.1c0.4-0.3,0.6-0.7,0.6-1.4c-0.2-0.2-0.2-0.4-0.3-0.6C29.3,27.2,29,27,28.7,26.8
					L28.7,26.8L28.7,26.8z"/>
			</g>
		</g>
	</g>
</g>
</svg>
