<svg id="b0225cde-a2d2-4693-8ce5-502a1e8a6144" xmlns="http://www.w3.org/2000/svg" viewBox="0 0 1077.38 752.86"><defs><style>.cls-1{fill:#f2f2f2;}.cls-2{fill:#575a89;}.cls-3{fill:#ffb9b9;}.cls-4{fill:#3f3d56;}.cls-5{fill:#6c63ff;}.cls-6{fill:#46455b;}.cls-7{fill:#a8a8a8;}.cls-8{opacity:0.2;isolation:isolate;}.cls-9{fill:#5333ed;}</style></defs><title>O</title><path class="cls-1" d="M739.51,586.51q151.46-1.78,302.91,2c8.68.22,17.7.5,25.37,2.8s13.57,7.24,11.47,12q-59.12,1.74-118.36,1.08c-8.6,4.21-18,10.56-12.76,16.24,3.66,3.93,12.69,5.1,20.58,5.11,14.3,0,28.66-2.33,42.75-.95s28.15,8.78,24,16.48c-3.13,5.84-15,8.73-25.84,9.25s-21.91-.56-32.48.82c-10,1.32-18.76,4.73-28.17,7.12-14.84,3.76-31.29,4.92-47.47,5.91C777.26,672,652,671.93,527,671.86c-50.61,0-101.9-.1-150.77-7.49-27.86-4.21-54.55-10.75-82.76-14.14-33.69-4.06-68.51-3.51-103-3.38q-90.73.31-181.32-3.5c-4.49-.19-10-.83-11.22-3.27-1.42-2.85,4.33-5.07,9.18-6.2A533.49,533.49,0,0,1,90.75,621.4c14.27-1,29-1.52,42.1-4.82s24.58-10.23,24.46-18.31c0-2.46-1.08-5.1,1-7.27,2.73-2.89,9.45-3.56,15.25-3.87,64.27-3.5,128.89-5,193.45-4.37,22.71.21,45.51.66,68.06-.87,18.48-1.25,36.57-3.82,54.78-6,24.44-2.9,130.81-17.93,146.33-5.74,11.61,9.13-12.37,11.1,18.79,14.82C682.07,588.23,712,586.83,739.51,586.51Z"/><path class="cls-2" d="M853.35,564.41s-12.1,3.63-18.16,10.89c0,0-10.89,4.84-17.55,3.63s-18.75,10.89-9.07,14.52,69,13.32,70.19,10.29S880,569.85,880,569.85Z"/><path class="cls-2" d="M948.42,559.21s-11.31,5.64-16,13.83c0,0-9.9,6.63-16.67,6.58s-16.62,13.93-6.46,15.86,70.24,1.33,70.92-1.86-4.6-33.59-4.6-33.59Z"/><circle class="cls-3" cx="873.02" cy="121.74" r="27.23"/><path class="cls-3" d="M895.1,126.28s3,20.58,8.47,23a39.86,39.86,0,0,1,10.29,7.26l-15.13,7.26L869.08,162s2.42-13.32-1.81-20S895.1,126.28,895.1,126.28Z"/><path class="cls-3" d="M951.38,223.71s13.92,35.7,0,70.2-20,39.94-20,39.94l-4.23-45.39,4.87-4.42s3-13.77.55-21.92,1.23-33.57,1.23-33.57Z"/><path class="cls-4" d="M847.3,301.17s-17.55,39.94-15.74,59.3S847.3,461.53,847.3,461.53s-1.82,105.3,3.63,105.3,31.46,9.68,31.46,3,5.45-166.41,5.45-166.41,30.86,70.19,33.89,75.64,22.39,90.77,29,90.77,27.23-6.05,25.41-10.29S953.8,460.93,942.3,436.72s-9.07-115.58-9.07-115.58l-19.37-42.36Z"/><path class="cls-4" d="M864.85,109.34s-17-1.21-18.16-5.45S843.06,96,844.27,96s1.82-3,1.82-3,1.21-.61,1.81,0,1.21-4.24,1.21-4.24.61-1.81,1.21-.6.61.6,1.21-1.21,3.63-3,3.63-3,11.5.61,13.32-1.81,22.39-.61,26.62,2.42,23,13.91,20,23-13.92,29.05-13.92,32.07-4.23,2.43-5.44-.6-10.89-6.66-10.89-8.47-5.45-18.76-8.48-17.55-6.65,10.89-7.86,9.08S864.85,109.34,864.85,109.34Z"/><path class="cls-5" d="M948.36,192.24s-24.82-36.31-32.08-38.12-23.6-6.66-23.6-6.66-16.34,2.42-21.18,4.84-23,6.66-23.6,13.92,4.84,76.85,1.82,83.51-13.32,70.2-8.47,69,1.21-17,22.39-17.55,32.67-13.31,40.54,1.81,30.26,26.63,30.26,26.63a145.09,145.09,0,0,1,2.42-14.52c1.81-8.48-4.84-29-4.84-29s.6-47.81,3-53.25S948.36,192.24,948.36,192.24Z"/><path class="cls-5" d="M939.28,191l9.08,1.21s-.61,12.11,1.81,15.74,6.66,22.39,4.24,23-24.21,4.24-24.21,4.24L929,207.37Z"/><path class="cls-3" d="M841.25,212.82s-6.06,39.33-9.08,44.17S814,329.61,814,329.61s-24.87,34.6-12.77,34S826.12,332,826.12,332s37.52-68.38,37.52-75.64,9.07-43.57,9.07-43.57Z"/><path class="cls-5" d="M858.79,159.56,847.9,163.8S834,213.42,837,217.66,876.34,215.84,877,214,870.29,159.56,858.79,159.56Z"/><path class="cls-6" d="M94.28,488c0,59,37,106.67,82.7,106.67"/><path class="cls-5" d="M177,594.63c0-59.62,41.28-107.87,92.29-107.87"/><path class="cls-5" d="M124.25,493.31c0,56,23.59,101.32,52.73,101.32"/><path class="cls-6" d="M177,594.63c0-76.18,47.71-137.83,106.67-137.83"/><path class="cls-7" d="M159.59,595.38s11.72-.36,15.26-2.87,18-5.53,18.92-1.49,17.62,20.08,4.38,20.18-30.77-2.06-34.29-4.21S159.59,595.38,159.59,595.38Z"/><path class="cls-8" d="M198.39,609.8c-13.24.11-30.77-2.06-34.3-4.21-2.68-1.64-3.75-7.51-4.11-10.22h-.39s.74,9.46,4.27,11.61,21,4.32,34.29,4.21c3.82,0,5.14-1.39,5.07-3.4C202.69,609,201.23,609.78,198.39,609.8Z"/><path class="cls-9" d="M760.69,376.43c0,125.4-92.1,217.8-222,217.8s-222-92.4-222-217.8,92.1-217.8,222-217.8S760.69,251,760.69,376.43Zm-325.5,0c0,64.2,42.3,108.6,103.5,108.6s103.5-44.4,103.5-108.6-42.3-108.6-103.5-108.6S435.19,312.23,435.19,376.43Z"/></svg>