<svg id="b0225cde-a2d2-4693-8ce5-502a1e8a6144" xmlns="http://www.w3.org/2000/svg" viewBox="0 0 1077.38 752.86"><defs><style>.cls-1{fill:#5333ed;}.cls-2{fill:#fbbebe;}.cls-3{fill:#2f2e41;}.cls-4{fill:#3f3d56;}.cls-5{opacity:0.1;isolation:isolate;}.cls-6{fill:#a0616a;}.cls-7{fill:#6c63ff;}.cls-8{fill:none;stroke:#3f3d56;stroke-miterlimit:10;}.cls-9{fill:#57b894;}</style></defs><title>P</title><path class="cls-1" d="M477.64,454.13v132.3h-114v-420h187.2c106.8,0,162.9,58.8,162.9,145.2,0,84.6-56.1,142.5-161.4,142.5Zm0-185.4v85.5h72c28.2,0,48.9-15.3,48.9-42.6s-20.7-42.9-48.9-42.9Z"/><path class="cls-2" d="M714.36,556.9s8,29,8,33,13,3,13,3l10-16s-8-16-10-24S714.36,556.9,714.36,556.9Z"/><path class="cls-3" d="M729.36,583.9s12,3,12-6,5-5,5-5,12,7,7,14-14,15-17,22-12,26-22,22-3-13-3-13,8-12,6-22-3-15,0-15,8-3,8,1S729.36,583.9,729.36,583.9Z"/><circle class="cls-3" cx="728.86" cy="174.4" r="38"/><circle class="cls-3" cx="724.86" cy="142.4" r="34"/><polygon class="cls-4" points="706.86 343.4 686.86 341.4 678.69 321.43 679.86 303.4 706.86 303.4 706.86 343.4"/><polygon class="cls-5" points="706.86 343.4 686.86 341.4 678.69 321.43 679.86 303.4 706.86 303.4 706.86 343.4"/><path class="cls-2" d="M708.36,199.9s-1,25-5,28,6,15,6,15l16-4,12-11-5-1s0-14,3-18S708.36,199.9,708.36,199.9Z"/><path class="cls-5" d="M708.36,199.9s-1,25-5,28,6,15,6,15l16-4,12-11-5-1s0-14,3-18S708.36,199.9,708.36,199.9Z"/><path class="cls-2" d="M680.36,297.9s10,26,8,48,45,3,45,3l14-9s4-27,0-33-12-27-12-27l-21-3Z"/><path class="cls-2" d="M848.5,412.69s17-18.85,19.9-20.66-3.75-10.63-3.75-10.63l-15.94.12s-7.78,13-12.58,18S848.5,412.69,848.5,412.69Z"/><path class="cls-3" d="M861,389.76s-3.3-9.92-9.71-5.84-5.84-1.3-5.84-1.3-.44-11.73,6.81-11.33,17,3.18,23.4,2.15,24-3.23,25.66,5.71-7.91,8-7.91,8-12.19-.26-18.41,5.7-9.34,8.94-10.7,6.8-5.76-4.35-2.91-6.16S861,389.76,861,389.76Z"/><path class="cls-2" d="M697.36,217.9s-12-7-15-27-24-90-24-90-14-48-19-32,6,34,6,34l14,65s12,84,18,88S697.36,217.9,697.36,217.9Z"/><path class="cls-2" d="M746.05,221.79s13.9-.15,26.39-16.06,65.36-66.36,65.36-66.36,35.9-34.8,32.34-18.42-22,26.59-22,26.59l-44.3,49.57s-52,67.09-59.16,67.6S746.05,221.79,746.05,221.79Z"/><circle class="cls-2" cx="725.36" cy="190.9" r="25"/><path class="cls-3" d="M749.14,324.17s-34.78,24.73-47.78,20.73-15-7-15-7-12,82-3,114c0,0,1,32,10,44l21,69s23-1,23-9c0,0-3-17-3-29s-16-42-16-42l11-84s42,84,59,78,65-69,65-69l-15-14s-42,25-47,38C791.36,433.9,757.91,331.43,749.14,324.17Z"/><path class="cls-4" d="M722.36,230.9s13-10,15-10h13s10,24,6,34c0,0-5,26-6,28s0,8,2,14,8,19,5,22-6,11-8,11-18-15-21-25-3-13-10-9-38,2-36,18a223.69,223.69,0,0,0,4,24s-12,4-14-15-4-20,2-27-2-36-2-36,10-17,12-26,10-18,10-18,5-3,8-1,4.6,1,4.6,1-5.6,14,.4,14S722.36,230.9,722.36,230.9Z"/><ellipse class="cls-5" cx="707.36" cy="336.4" rx="1.5" ry="3"/><ellipse class="cls-3" cx="727.86" cy="168.4" rx="30" ry="19"/><ellipse class="cls-3" cx="239.5" cy="241.61" rx="42" ry="57"/><path class="cls-6" d="M250,277.71s17-16.6,19-22.6,26-108,26-108,20-57,29-43-15,47-15,47-6,63-10,78-18,71-27,77l-9,18-10,2-9-25,1-10Z"/><path class="cls-6" d="M300,543.11s24,7,27,3,14,20,14,20v9l-10,2s-30-13-35-13S300,543.11,300,543.11Z"/><path class="cls-3" d="M331,558.11s-14-12-11-14,15-16,21-8,33,52,26,62-12,4-12,4-18.6-25-25.8-25C329.2,577.11,339,566.11,331,558.11Z"/><path class="cls-6" d="M231,633.11s1,33-8,43,12,8,12,8l22-15s-6-16-4-31Z"/><path class="cls-3" d="M257,661.11s-2-2-7,4-15,13-21,7-6-1-6-1-13,21-24,24-3,13,7,9,59-21,59-21S264,669.11,257,661.11Z"/><path class="cls-6" d="M184,395.11l-15,23s-37,29-18,32,30-27,30-27l13-16Z"/><path class="cls-7" d="M179,391.11s17,25,25,27,5-19,5-19Z"/><path class="cls-5" d="M179,391.11s17,25,25,27,5-19,5-19Z"/><path class="cls-3" d="M201,389.11l3,52s-11,77,6,95c0,0,10,27,10,37s7,70,7,70h29s6-83-10-109v-142Z"/><path class="cls-5" d="M200.5,492.16c.15,18.34,2.34,36.37,9.5,43.95,0,0,10,27,10,37s7,70,7,70h29s6-83-10-109V497"/><path class="cls-3" d="M232,401.11l-30,79s-18,68,4,75,79,5,88,12,14-21,11-24-51-19-71-19c0,0,53-72,40-88S243,400.11,232,401.11Z"/><path class="cls-6" d="M225,249.11s1,27-4,28a76.45,76.45,0,0,0-12,4v15l8,5,20-12,8-7,8-7s-5-14,0-23Z"/><path class="cls-5" d="M225,249.11s1,27-4,28a76.45,76.45,0,0,0-12,4v15l8,5,20-12,8-7,8-7s-5-14,0-23Z"/><path class="cls-7" d="M221,292.11s17-16,21-15,15.5-6.5,15.5-6.5a127.81,127.81,0,0,0-4.5,23.5c-.55,6.5.67,10.07,1.9,12a31.69,31.69,0,0,1,3.46,6.88c1.65,4.84,4.72,10.68,8.64,4.15,0,0-2,11-4,43s9,54,9,54,9,24,5,29c0,0-31-20-29-29,0,0-72-10-72-23a22.83,22.83,0,0,1,10-19,83.51,83.51,0,0,1,4-18s-11-23-1-42c0,0-9-26,3-32s27-3,27-3-14,9-5,14Z"/><circle class="cls-6" cx="240" cy="236.11" r="25"/><ellipse class="cls-3" cx="242" cy="221.11" rx="27.5" ry="14.5"/><circle class="cls-3" cx="209.5" cy="194.61" r="8"/><circle class="cls-3" cx="269.5" cy="194.61" r="8"/><line class="cls-8" x1="101.86" y1="704.4" x2="953.08" y2="704.4"/><path class="cls-9" d="M908.5,580.22a20.81,20.81,0,1,0,2.77-39.92l.52,10.71-5.07-9.18a20.81,20.81,0,0,0,1.78,38.39Z"/><path class="cls-8" d="M933.58,704.46c-1.79-9.11,6-17.19,13.62-22.44s16.6-10.41,19.21-19.31c3.76-12.81-7.43-24.53-16.13-34.65a124.68,124.68,0,0,1-16.52-24.55,33.78,33.78,0,0,1-4-11.17c-.68-5.68,1.14-11.32,3-16.74q9.18-27,19.63-53.65"/><path class="cls-8" d="M909.36,577.46a20.81,20.81,0,1,0,2.77-39.92l.52,10.71-5.07-9.18A20.74,20.74,0,0,0,896.9,550.8a20.07,20.07,0,0,0-1.2,5.63A20.81,20.81,0,0,0,909.36,577.46Z"/><path class="cls-9" d="M931,518.25a20.78,20.78,0,0,1,15-13.19l1.72,10.18,3.17-10.7A20.79,20.79,0,1,1,931,518.25Z"/><path class="cls-8" d="M932.18,514.58a20.78,20.78,0,0,1,15-13.2l1.72,10.18,3.18-10.69a20.81,20.81,0,1,1-21.12,20.5A20.4,20.4,0,0,1,932.18,514.58Z"/><path class="cls-9" d="M946.63,628.27a20.81,20.81,0,0,0,18.41-37l-2.44,8.22-1.73-10.31,0,0a20.81,20.81,0,0,0-14.2,39.13Z"/><path class="cls-8" d="M947.62,624.55a20.81,20.81,0,0,0,18.41-37l-2.44,8.22-1.73-10.3-.05,0a20.81,20.81,0,0,0-14.2,39.12Z"/><path class="cls-9" d="M925,662.83a20.8,20.8,0,1,0,4-16.29l9.27,14-12.67-7.41A20.65,20.65,0,0,0,925,662.83Z"/><path class="cls-8" d="M925.82,660.07a20.8,20.8,0,1,0,4-16.29l9.27,14-12.67-7.4A20.6,20.6,0,0,0,925.82,660.07Z"/></svg>