<?xml version="1.0" encoding="utf-8"?>
<!-- Generator: Adobe Illustrator 23.0.1, SVG Export Plug-In . SVG Version: 6.00 Build 0)  -->
<svg version="1.1" id="Layer_1" xmlns="http://www.w3.org/2000/svg" xmlns:xlink="http://www.w3.org/1999/xlink" x="0px" y="0px"
	 viewBox="0 0 502 502" style="enable-background:new 0 0 502 502;" xml:space="preserve">
<style type="text/css">
	.st0{fill:none;stroke:#C5C9E0;stroke-width:1.142;}
	.st1{fill:none;stroke:#C5C9E0;stroke-width:1.142;stroke-dasharray:11.416;}
	.st2{fill:none;stroke:#5333ED;stroke-width:1.142;}
	.st3{filter:url(#a);}
	.st4{fill-rule:evenodd;clip-rule:evenodd;}
	.st5{fill-rule:evenodd;clip-rule:evenodd;fill:url(#SVGID_1_);}
	.st6{filter:url(#d);}
	.st7{fill-rule:evenodd;clip-rule:evenodd;fill:url(#SVGID_2_);}
	.st8{fill-rule:evenodd;clip-rule:evenodd;fill:#5333ED;}
	.st9{fill-rule:evenodd;clip-rule:evenodd;fill:#FFFFFF;}
	.st10{fill:none;stroke:#FFFFFF;stroke-width:2;stroke-linecap:round;stroke-linejoin:round;}
	.st11{fill-rule:evenodd;clip-rule:evenodd;fill:#8585F9;}
	.st12{fill-rule:evenodd;clip-rule:evenodd;fill:#6C62F9;}
	.st13{fill-rule:evenodd;clip-rule:evenodd;fill:#5A45F4;}
</style>
<filter  filterUnits="objectBoundingBox" height="119.5%" id="d" width="126.1%" x="-13.1%" y="-7.4%">
	<feOffset  dy="5" in="SourceAlpha" result="shadowOffsetOuter1"></feOffset>
	<feGaussianBlur  in="shadowOffsetOuter1" result="shadowBlurOuter1" stdDeviation="7.5"></feGaussianBlur>
	
		<feColorMatrix  in="shadowBlurOuter1" result="shadowMatrixOuter1" values="0 0 0 0 0.145098039 0 0 0 0 0.17254902 0 0 0 0 0.380392157 0 0 0 0.15 0">
		</feColorMatrix>
	<feOffset  dy="2" in="SourceAlpha" result="shadowOffsetOuter2"></feOffset>
	<feGaussianBlur  in="shadowOffsetOuter2" result="shadowBlurOuter2" stdDeviation="2"></feGaussianBlur>
	
		<feColorMatrix  in="shadowBlurOuter2" result="shadowMatrixOuter2" values="0 0 0 0 0.364705882 0 0 0 0 0.392156863 0 0 0 0 0.580392157 0 0 0 0.2 0">
		</feColorMatrix>
	<feMerge>
		<feMergeNode  in="shadowMatrixOuter1"></feMergeNode>
		<feMergeNode  in="shadowMatrixOuter2"></feMergeNode>
	</feMerge>
</filter>
<filter  filterUnits="objectBoundingBox" height="118.6%" id="a" width="125.9%" x="-12.9%" y="-7.1%">
	<feOffset  dy="5" in="SourceAlpha" result="shadowOffsetOuter1"></feOffset>
	<feGaussianBlur  in="shadowOffsetOuter1" result="shadowBlurOuter1" stdDeviation="7.5"></feGaussianBlur>
	
		<feColorMatrix  in="shadowBlurOuter1" result="shadowMatrixOuter1" values="0 0 0 0 0.145098039 0 0 0 0 0.17254902 0 0 0 0 0.380392157 0 0 0 0.15 0">
		</feColorMatrix>
	<feOffset  dy="2" in="SourceAlpha" result="shadowOffsetOuter2"></feOffset>
	<feGaussianBlur  in="shadowOffsetOuter2" result="shadowBlurOuter2" stdDeviation="2"></feGaussianBlur>
	
		<feColorMatrix  in="shadowBlurOuter2" result="shadowMatrixOuter2" values="0 0 0 0 0.364705882 0 0 0 0 0.392156863 0 0 0 0 0.580392157 0 0 0 0.2 0">
		</feColorMatrix>
	<feMerge>
		<feMergeNode  in="shadowMatrixOuter1"></feMergeNode>
		<feMergeNode  in="shadowMatrixOuter2"></feMergeNode>
	</feMerge>
</filter>
<g>
	<g>
		<path class="st0" d="M237.3,215.8L149.4,1 M215.6,232.6L2.1,142.4"/>
		<path class="st1" d="M215.6,260.1L1,348"/>
		<path class="st0" d="M237.3,286.2l-90.2,213.7 M264.7,286.2L352.6,501"/>
		<path class="st2" d="M286.4,260.1l212.3,90.3"/>
		<path class="st1" d="M286.4,232.6l214.6-88"/>
		<path class="st0" d="M264.7,215.8L354.9,2.1 M251.6,212.1L251,48.7"/>
		<path class="st1" d="M225.9,222.4L82.1,78.4"/>
		<path class="st0" d="M217.9,246.4l-204.3,0.6 M225.9,273.8l-143.8,144"/>
		<path class="st1" d="M251,293.2l0.6,204.5"/>
		<path class="st0" d="M275,273.8l143.8,144 M285.2,246.9l204.3-0.6 M275,222.4l143.8-144"/>
	</g>
	<g transform="translate(124 84)">
		<g class="st3">
			<path id="b_1_" class="st4" d="M4,0h216c2.2,0,4,1.8,4,4v303c0,2.2-1.8,4-4,4H4c-2.2,0-4-1.8-4-4V4C0,1.8,1.8,0,4,0z"/>
		</g>
		<g>
			
				<linearGradient id="SVGID_1_" gradientUnits="userSpaceOnUse" x1="-410.2143" y1="706.074" x2="-410.2143" y2="707.074" gradientTransform="matrix(224 0 0 -311 92000 219900)">
				<stop  offset="0" style="stop-color:#F5F5FA"/>
				<stop  offset="1" style="stop-color:#FFFFFF"/>
			</linearGradient>
			<path class="st5" d="M4,0h216c2.2,0,4,1.8,4,4v303c0,2.2-1.8,4-4,4H4c-2.2,0-4-1.8-4-4V4C0,1.8,1.8,0,4,0z"/>
		</g>
		<g class="st6">
			<path id="e_1_" class="st4" d="M37,39h214c2.2,0,4,1.8,4,4v289c0,2.2-1.8,4-4,4H37c-2.2,0-4-1.8-4-4V43C33,40.8,34.8,39,37,39z"
				/>
		</g>
		<g>
			
				<linearGradient id="SVGID_2_" gradientUnits="userSpaceOnUse" x1="-410.2027" y1="706.0303" x2="-410.2027" y2="707.0303" gradientTransform="matrix(222 0 0 -297 91209 210027)">
				<stop  offset="0" style="stop-color:#F5F5FA"/>
				<stop  offset="1" style="stop-color:#FFFFFF"/>
			</linearGradient>
			<path class="st7" d="M37,39h214c2.2,0,4,1.8,4,4v289c0,2.2-1.8,4-4,4H37c-2.2,0-4-1.8-4-4V43C33,40.8,34.8,39,37,39z"/>
		</g>
		<g transform="translate(202 52)">
			<ellipse class="st8" cx="18.8" cy="18.8" rx="18.8" ry="18.8"/>
			<path class="st9" d="M27.6,13.6v2c-0.8-0.5-1.7-0.7-2.6-0.7c-0.5,0-0.9,0.1-1.2,0.3c-0.3,0.2-0.4,0.5-0.4,0.9
				c0,0.2,0,0.4,0.1,0.5s0.2,0.3,0.5,0.5c0.2,0.1,0.4,0.3,0.6,0.3c0.2,0.1,0.4,0.2,0.7,0.4c0.4,0.2,0.7,0.3,1,0.5
				c0.3,0.1,0.6,0.4,0.9,0.6c0.3,0.3,0.5,0.6,0.7,0.9c0.1,0.4,0.2,0.8,0.2,1.2c0,0.8-0.3,1.5-0.8,2.1c-0.5,0.5-1.2,0.9-2.1,1v1.8
				h-1.6V24c-0.9-0.1-1.6-0.3-2.2-0.6v-2.1c0.9,0.7,1.9,1,3,1c0.5,0,0.9-0.1,1.2-0.4c0.3-0.2,0.5-0.6,0.5-1c0-0.1,0-0.2-0.1-0.3
				c0-0.1-0.1-0.2-0.1-0.3c-0.1-0.1-0.1-0.2-0.2-0.2c-0.1-0.1-0.2-0.1-0.3-0.2c-0.1-0.1-0.2-0.1-0.4-0.2c-0.1-0.1-0.2-0.1-0.4-0.2
				c-0.1-0.1-0.3-0.1-0.5-0.2c-0.2-0.1-0.3-0.1-0.4-0.2c-0.7-0.3-1.3-0.7-1.8-1.2c-0.4-0.5-0.6-1.1-0.6-1.8c0-0.8,0.3-1.5,0.8-2.1
				c0.6-0.5,1.3-0.9,2.3-1v-1.8h1.6v1.8C26.6,13.2,27.1,13.4,27.6,13.6z"/>
			<g>
				<path class="st10" d="M10.7,15.3l7,7 M17.7,15.3v7h-7"/>
			</g>
		</g>
		<g transform="translate(67 90)">
			<ellipse class="st11" cx="76.5" cy="76.4" rx="76.5" ry="76.4"/>
			<path class="st8" d="M53.9,35.3h45.5c2.5,0,4.6,1.8,5.1,4.2l14.2,72.7c0.5,2.8-1.3,5.5-4.1,6.1c-0.3,0.1-0.7,0.1-1,0.1H99.7
				c-2.2,0-4.2-1.4-4.9-3.5L82,77.4c-0.9-2.7-3.9-4.1-6.6-3.2c-1.6,0.5-2.8,1.8-3.3,3.3l-11.8,37.3c-0.7,2.2-2.7,3.6-4.9,3.6H38.8
				c-2.9,0-5.2-2.3-5.2-5.2c0-0.4,0-0.7,0.1-1l15.1-72.7C49.3,37.1,51.5,35.3,53.9,35.3z"/>
		</g>
		<path class="st12" d="M63.5,287h130c4.1,0,7.5,3.4,7.5,7.5l0,0c0,4.1-3.4,7.5-7.5,7.5h-130c-4.1,0-7.5-3.4-7.5-7.5l0,0
			C56,290.4,59.4,287,63.5,287z"/>
		<path class="st13" d="M60,272h46c2.2,0,4,1.8,4,4l0,0c0,2.2-1.8,4-4,4H60c-2.2,0-4-1.8-4-4l0,0C56,273.8,57.8,272,60,272z"/>
	</g>
</g>
</svg>
