<svg id="Layer_1" data-name="Layer 1" xmlns="http://www.w3.org/2000/svg" xmlns:xlink="http://www.w3.org/1999/xlink" viewBox="0 0 716.21 636.88"><defs><style>.cls-1{fill:url(#linear-gradient);}.cls-2{fill:url(#linear-gradient-2);}.cls-3{fill:url(#linear-gradient-3);}.cls-4{opacity:0.25;}.cls-5{fill:#00004d;}.cls-6{fill:#ddeaf8;}.cls-7{fill:#b4c3d1;}.cls-8{fill:#cad5dd;}.cls-9{fill:#f5f5fd;}.cls-10{fill:#aaafd7;}.cls-11,.cls-12,.cls-13,.cls-16{fill:none;stroke-linecap:round;stroke-linejoin:round;}.cls-11{stroke:#92cdf5;}.cls-11,.cls-12{stroke-width:1.97px;}.cls-12{stroke:#3836bd;}.cls-13{stroke:#f2516c;stroke-width:4px;}.cls-14{fill:#ffc6c2;}.cls-15{fill:#ffa69b;}.cls-16{stroke:#ffdad9;stroke-width:2px;}.cls-17{fill:#0bc8f4;}.cls-18{fill:#0f9fb7;}.cls-19{fill:#11e7c4;}.cls-20{fill:#fff;}.cls-21{fill:#3836bd;}.cls-22{fill:#00bf9a;}.cls-23{fill:#f2516c;}.cls-24{fill:#db3e5f;}.cls-25{fill:#2c218a;}</style><linearGradient id="linear-gradient" x1="309.08" y1="329.89" x2="729.07" y2="749.87" gradientUnits="userSpaceOnUse"><stop offset="0" stop-color="#5c30f1"/><stop offset="1" stop-color="#00004d"/></linearGradient><linearGradient id="linear-gradient-2" x1="25.5" y1="619.2" x2="720.47" y2="537.95" gradientTransform="matrix(-0.7, -0.65, 0.7, -0.71, 314.36, 1150.59)" gradientUnits="userSpaceOnUse"><stop offset="0" stop-color="#5333ed"/><stop offset="0.06" stop-color="#5c3fee" stop-opacity="0.93"/><stop offset="0.41" stop-color="#9388f2" stop-opacity="0.54"/><stop offset="0.69" stop-color="#bbbdf5" stop-opacity="0.25"/><stop offset="0.9" stop-color="#d4ddf7" stop-opacity="0.07"/><stop offset="1" stop-color="#ddeaf8" stop-opacity="0"/></linearGradient><linearGradient id="linear-gradient-3" x1="600.47" y1="165.69" x2="715.37" y2="165.69" gradientTransform="translate(797.51 -550.08) rotate(98.59)" xlink:href="#linear-gradient"/></defs><title>problem</title><path class="cls-1" d="M806.09,488.46c-87.42,144,12,373-305,305-164.7-35.33-376.22,14-305-305,48-215,236.82-53.69,322-199C586.09,173.46,908.09,320.46,806.09,488.46Z" transform="translate(-181.89 -221.56)"/><path class="cls-2" d="M747.75,747.46c-157.52-5.08-284.8,119.8-483.93-67.17-132.18-124.1-95.94-317.21,198.29-407.57C604.36,229,561,475.61,773.59,426.63,894.9,398.69,989.74,755.28,747.75,747.46Z" transform="translate(-181.89 -221.56)"/><circle class="cls-3" cx="535.37" cy="75.7" r="57.45"/><g class="cls-4"><path class="cls-5" d="M386.3,781l72,77.22a77.72,77.72,0,0,0,9,.17L386.77,772A77.81,77.81,0,0,0,386.3,781Z" transform="translate(-181.89 -221.56)"/><path class="cls-5" d="M388.61,799.36l51.51,55.26a78.68,78.68,0,0,0,11.48,2.78l-65-69.69A79.63,79.63,0,0,0,388.61,799.36Z" transform="translate(-181.89 -221.56)"/><path class="cls-5" d="M477,703.5l65,69.68a78.53,78.53,0,0,0-2-11.65l-51.51-55.25A77.41,77.41,0,0,0,477,703.5Z" transform="translate(-181.89 -221.56)"/><path class="cls-5" d="M497.92,710.06l38.95,41.78a78,78,0,0,0-38.95-41.78Z" transform="translate(-181.89 -221.56)"/><path class="cls-5" d="M407.23,833.64a77.82,77.82,0,0,0,23.44,17.19l-38.94-41.77A77.86,77.86,0,0,0,407.23,833.64Z" transform="translate(-181.89 -221.56)"/><path class="cls-5" d="M461.27,702.52l80.55,86.41a77.75,77.75,0,0,0,.47-9l-72-77.23A77.93,77.93,0,0,0,461.27,702.52Z" transform="translate(-181.89 -221.56)"/><path class="cls-5" d="M416.91,718.49,522.78,832.07c1.46-1.66,2.83-3.37,4.13-5.11L422.29,714.73C420.46,715.9,418.66,717.14,416.91,718.49Z" transform="translate(-181.89 -221.56)"/><path class="cls-5" d="M411.11,723.39c-.8.74-1.57,1.5-2.33,2.27l106.27,114c.82-.71,1.64-1.42,2.44-2.16s1.56-1.51,2.32-2.28l-106.27-114C412.72,721.93,411.9,722.64,411.11,723.39Z" transform="translate(-181.89 -221.56)"/><path class="cls-5" d="M401.68,733.93,506.3,846.17c1.83-1.18,3.63-2.42,5.38-3.76L405.81,728.83C404.35,730.48,403,732.19,401.68,733.93Z" transform="translate(-181.89 -221.56)"/><path class="cls-5" d="M395.67,743.37l100.8,108.14c2-.93,4.06-1.94,6-3.06L399.14,737.56Q397.27,740.4,395.67,743.37Z" transform="translate(-181.89 -221.56)"/><path class="cls-5" d="M426.08,712.44l103.37,110.9q1.88-2.85,3.48-5.81L432.12,709.39C430.08,710.31,428.06,711.33,426.08,712.44Z" transform="translate(-181.89 -221.56)"/><path class="cls-5" d="M436.39,707.6,535,813.4c1-2.17,1.92-4.38,2.72-6.62L443.18,705.36C440.89,706,438.62,706.75,436.39,707.6Z" transform="translate(-181.89 -221.56)"/><path class="cls-5" d="M448,704.16l91.26,97.91q1.08-3.78,1.79-7.62l-85.33-91.54C453.12,703.2,450.54,703.62,448,704.16Z" transform="translate(-181.89 -221.56)"/><path class="cls-5" d="M390.87,754.12l94.54,101.42q3.43-1,6.8-2.25L393.59,747.5Q392.08,750.75,390.87,754.12Z" transform="translate(-181.89 -221.56)"/><path class="cls-5" d="M387.55,766.44,472.88,858a77.52,77.52,0,0,0,7.72-1.24l-91.26-97.91Q388.26,762.6,387.55,766.44Z" transform="translate(-181.89 -221.56)"/></g><path class="cls-6" d="M318.53,400.26c-3.72,11.62,4.05,22.22,8.29,32.82a54,54,0,0,1,2.53,24.81c-.13,2-.28,3.93-.43,5.87q-.76,9.57-1.77,18.61-.34,3-.7,6c-.81,2.24-1.64,4.47-2.36,6.71-.09,3.74-1.51,7.27-.8,10.1a53.63,53.63,0,0,1,2.86,8,36,36,0,0,1,1.28,29.55,48.56,48.56,0,0,1-3.14,6.61c-8.07,13-18.66,27.86-31.38,29.27-31.09,2.83-38.15-34.61-33.24-60.82-.39-2.2-.8-4.43-1.2-6.71-.79-4.55-1.53-9.28-2.21-14.16-.21-1.73-.41-3.48-.45-5.26-.34-12,11.67-21.14,8.84-33.85s-15.54-22.61-14-36.92c0-2.13-.06-4.27-.08-6.42-.74-3.29.68-6.82,1.38-10.36,2.83-9.18,9.89-17.66,9.19-27.55-.71-12.72-9.89-23.31-7.43-35.8.19-1.94.39-3.84.6-5.74,1.88-18.51,12.48-33.35,21.66-49.6a8.31,8.31,0,0,0,.71-7.06,50.5,50.5,0,0,1-2.5-5.4,54.25,54.25,0,0,1-1.83-14.07c0-2.58.08-5.22.3-7.86,2.62-9.41-3.74-20.71,1.91-26.36,10.6-10.6,27.55,8.47,35.28,19.23a67.83,67.83,0,0,1,3.39,6.9,152,152,0,0,1,6.89,21.57c.55,2.26,1,4.55,1.37,6.87a117.17,117.17,0,0,1,1.26,21.09,14.22,14.22,0,0,1-.15,4.88c-2.82,12-19.78,18.36-12,31.79,7.07,13.42,20.49,23.31,19.81,39.26a14.15,14.15,0,0,1-.15,5.64c-1.22,5.26-5.24,9.52-8.6,13.84A28.91,28.91,0,0,0,318.53,400.26Z" transform="translate(-181.89 -221.56)"/><path class="cls-7" d="M289.45,327.46l-4.12,319.75a4.11,4.11,0,0,0,4.12,4.17h0a4.11,4.11,0,0,0,4.11-4.17Z" transform="translate(-181.89 -221.56)"/><path class="cls-7" d="M271.89,419.4l18.4,28.35a1,1,0,0,1-.43,1.31h0a1,1,0,0,1-1.35-.23Z" transform="translate(-181.89 -221.56)"/><path class="cls-7" d="M307.37,375.6,289,404a1,1,0,0,0,.43,1.3h0a1,1,0,0,0,1.35-.22Z" transform="translate(-181.89 -221.56)"/><path class="cls-7" d="M314.85,465.58l-25.14,38.77a1.3,1.3,0,0,0,.56,1.76h0a1.29,1.29,0,0,0,1.83-.32Z" transform="translate(-181.89 -221.56)"/><path class="cls-7" d="M264.82,510.09,290,548.85a1.3,1.3,0,0,1-.56,1.77h0a1.29,1.29,0,0,1-1.82-.32Z" transform="translate(-181.89 -221.56)"/><path class="cls-6" d="M623.44,374V658.55a7,7,0,0,1-7,7H408.3a7,7,0,0,1-7-7V374a7,7,0,0,1,7-7H616.48A7,7,0,0,1,623.44,374Z" transform="translate(-181.89 -221.56)"/><path class="cls-8" d="M623.44,445.69V658.55a7,7,0,0,1-7,7H408.3a7,7,0,0,1-7-7V562.49Z" transform="translate(-181.89 -221.56)"/><polygon class="cls-9" points="390.46 421.31 237.59 421.31 237.59 166.26 423.41 166.26 423.41 387.08 390.46 421.31"/><polygon class="cls-10" points="390.46 421.31 390.46 387.08 423.41 387.08 390.46 421.31"/><line class="cls-11" x1="293.14" y1="227.94" x2="350.03" y2="227.94"/><line class="cls-11" x1="293.14" y1="245.18" x2="313.43" y2="245.18"/><line class="cls-11" x1="324.13" y1="245.18" x2="372.52" y2="245.18"/><line class="cls-11" x1="301.48" y1="236.56" x2="393.13" y2="236.56"/><line class="cls-11" x1="408.03" y1="227.94" x2="367.35" y2="227.94"/><rect class="cls-12" x="259.03" y="227.94" width="21.71" height="21.71"/><polyline class="cls-13" points="266.33 236.57 271.23 241.68 289.95 227.94"/><line class="cls-11" x1="293.14" y1="263.46" x2="311.63" y2="263.46"/><line class="cls-11" x1="293.14" y1="280.7" x2="306.23" y2="280.7"/><line class="cls-11" x1="324.13" y1="280.7" x2="382.96" y2="280.7"/><line class="cls-11" x1="301.48" y1="272.08" x2="335.83" y2="272.08"/><line class="cls-11" x1="344.92" y1="272.08" x2="405.07" y2="272.08"/><line class="cls-11" x1="359.35" y1="263.46" x2="324.13" y2="263.46"/><rect class="cls-12" x="259.03" y="261.47" width="21.71" height="21.71"/><polyline class="cls-13" points="266.33 270.69 271.23 275.8 289.95 262.06"/><line class="cls-11" x1="293.14" y1="298.97" x2="324.13" y2="298.97"/><line class="cls-11" x1="293.14" y1="316.21" x2="351.5" y2="316.21"/><line class="cls-11" x1="366.93" y1="316.21" x2="398.11" y2="316.21"/><line class="cls-11" x1="301.48" y1="307.59" x2="340.64" y2="307.59"/><line class="cls-11" x1="392.33" y1="307.59" x2="359.35" y2="307.59"/><line class="cls-11" x1="408.03" y1="298.97" x2="335.83" y2="298.97"/><rect class="cls-12" x="259.03" y="294.99" width="21.71" height="21.71"/><path class="cls-13" d="M471.84,516.56" transform="translate(-181.89 -221.56)"/><path class="cls-13" d="M448.23,525.19" transform="translate(-181.89 -221.56)"/><line class="cls-11" x1="293.14" y1="334.49" x2="350.03" y2="334.49"/><line class="cls-11" x1="293.14" y1="351.73" x2="313.43" y2="351.73"/><line class="cls-11" x1="324.13" y1="351.73" x2="372.52" y2="351.73"/><line class="cls-11" x1="301.48" y1="343.11" x2="393.13" y2="343.11"/><line class="cls-11" x1="408.03" y1="334.49" x2="367.35" y2="334.49"/><rect class="cls-12" x="259.03" y="328.52" width="21.71" height="21.71"/><polyline class="cls-13" points="266.33 336.57 271.23 341.68 289.95 327.93"/><path class="cls-14" d="M572.53,357.51H545.84a7.37,7.37,0,0,1-7.34-8.5,26.54,26.54,0,0,0-25.78-31,26.5,26.5,0,0,0-26.83,26.5,26.87,26.87,0,0,0,.28,3.83,8.11,8.11,0,0,1-8.07,9.21H452.25a7.31,7.31,0,0,0-7.18,7.31v22.23a7.3,7.3,0,0,0,4,6.51,7.14,7.14,0,0,0,3.19.8H572.53a7.31,7.31,0,0,0,7.18-7.31V364.82A7.31,7.31,0,0,0,572.53,357.51ZM512.39,330a14.45,14.45,0,1,1-14.45,14.45A14.45,14.45,0,0,1,512.39,330Z" transform="translate(-181.89 -221.56)"/><path class="cls-15" d="M579.71,364.82v22.23a7.31,7.31,0,0,1-7.18,7.31H452.25a7.14,7.14,0,0,1-3.19-.8L552.51,357.5h20A7.31,7.31,0,0,1,579.71,364.82Z" transform="translate(-181.89 -221.56)"/><line class="cls-16" x1="271.88" y1="143.05" x2="389.11" y2="143.05"/><line class="cls-16" x1="271.88" y1="150.06" x2="389.11" y2="150.06"/><line class="cls-16" x1="271.88" y1="157.08" x2="389.11" y2="157.08"/><path class="cls-14" d="M638.09,410,635,422.75s16.25,10.85,25.14-6.39l-10-12.5Z" transform="translate(-181.89 -221.56)"/><polygon class="cls-17" points="449.9 292.8 437.15 360.22 492.74 414.37 501.06 403.92 467.29 355.12 476.55 284.86 449.9 292.8"/><polygon class="cls-17" points="471.94 286.48 502.13 275.89 474.72 419.39 459.76 417.26 471.94 286.48"/><polygon class="cls-18" points="475.33 294.17 467.29 355.12 459.83 349.23 475.33 294.17"/><polygon class="cls-18" points="462.75 385.15 475.43 415.68 478.22 401.06 462.75 385.15"/><path class="cls-19" d="M635.23,416.69s12.9,17.05,24.28-2.36L684,423.94l9.4,26-14.26,9.22-4.62-14.41-2.55,24,14.19,33.86L631.8,514.36l-14.45-66.13-6.76,3.11-8.19-15.51L621.5,421Z" transform="translate(-181.89 -221.56)"/><polygon class="cls-14" points="428.7 229.78 420.51 214.27 414.27 220.18 417.78 195.77 429.49 178.44 418.44 170.18 411.94 175.69 410.05 171.34 407.19 173.19 412.61 181.8 399.53 222.24 402.55 239.47 428.7 229.78"/><polygon class="cls-15" points="436.63 291.26 424.55 305.11 441.79 305.11 436.63 291.26"/><polygon class="cls-15" points="455.04 193.18 465.67 195.49 469.47 183.81 468.27 182.3 456.2 188.41 455.04 193.18"/><polygon class="cls-14" points="448.48 176.58 455.32 190.28 464.63 191 470.12 182.85 462.66 163.99 445.98 170.5 448.48 176.58"/><path class="cls-14" d="M634.15,400.59a2.12,2.12,0,1,1-4.07,1.17,2.12,2.12,0,0,1,4.07-1.17Z" transform="translate(-181.89 -221.56)"/><circle class="cls-14" cx="465.78" cy="172.96" r="2.12"/><path class="cls-20" d="M638.88,402.15h8.28a0,0,0,0,1,0,0v1.93a2.21,2.21,0,0,1-2.21,2.21h-3.85a2.21,2.21,0,0,1-2.21-2.21v-1.93A0,0,0,0,1,638.88,402.15Z" transform="matrix(0.91, -0.41, 0.41, 0.91, -290.68, 74.68)"/><polygon class="cls-15" points="456.89 171.41 456.49 180.12 461.25 178.83 456.89 171.41"/><path class="cls-21" d="M647.68,394.52s2.25-2.14-1.38-10.74c0,0-1.24-1.9-3.15-1.63,0,0-4-6.88-15-1.72,0,0-14.92,6.75,2.64,18.63,0,0,3.92,1.28,6.48-6.87a6.41,6.41,0,0,1,5.17-4.46c1.41-.19,2.75,0,3.28,1.39Z" transform="translate(-181.89 -221.56)"/><polygon class="cls-22" points="492.64 223.15 480.94 248.44 494.07 284.33 504.29 281.05 490.1 247.19 492.64 223.15"/><polygon class="cls-23" points="436.63 291.26 536.06 250.2 542.21 265.12 441.79 305.11 436.63 291.26"/><path class="cls-15" d="M718,471.76l3-1.24a8.08,8.08,0,0,1,10.53,4.38h0a8.08,8.08,0,0,1-4.4,10.55l-3,1.23Z" transform="translate(-181.89 -221.56)"/><polygon class="cls-22" points="435.45 226.66 438.11 209.57 428.7 229.78 435.45 226.66"/><polygon class="cls-15" points="417.78 195.77 410.59 219.67 414.27 220.18 417.78 195.77"/><polygon class="cls-24" points="542.21 265.12 441.79 305.11 440.38 301.34 540.95 262.06 542.21 265.12"/><polygon class="cls-14" points="494.07 284.33 504.29 256.16 497.26 237.56 511.53 228.34 521.41 254.52 507.47 281.58 498.79 293.36 488.4 294.17 482.85 288.75 494.07 284.33"/><polygon class="cls-15" points="494.07 284.33 488.4 294.17 482.85 288.75 494.07 284.33"/><path class="cls-25" d="M676.5,635.48l1.71,12.64A3.74,3.74,0,0,1,678,650l-3.09,8.06a3.79,3.79,0,0,0,1,4.21h0a3.79,3.79,0,0,0,5.9-1.17l12-24.36a3.79,3.79,0,0,0-1.76-5.1l-7.46-3.57a3.78,3.78,0,0,0-4.6,1.05l-2.78,3.49A3.78,3.78,0,0,0,676.5,635.48Z" transform="translate(-181.89 -221.56)"/><path class="cls-25" d="M643,643.06l-.3,1a4.59,4.59,0,0,1-.17.48L640,650.61a4.73,4.73,0,0,0-.23,3l2,7.81A4.71,4.71,0,0,0,646.3,665H648a4.71,4.71,0,0,0,4.06-2.32l3.1-5.29a4.7,4.7,0,0,0,.27-4.24l-2.66-6.21a4.68,4.68,0,0,1-.37-2.15h0a4.72,4.72,0,0,0-4-5l-.21,0A4.71,4.71,0,0,0,643,643.06Z" transform="translate(-181.89 -221.56)"/><path class="cls-6" d="M742.57,739.58A1.38,1.38,0,0,1,741.2,738l2.41-16.88a1.41,1.41,0,0,1,.85-1.08,1.38,1.38,0,0,1,1.87,1.47l-2.41,16.88A1.36,1.36,0,0,1,742.57,739.58Z" transform="translate(-181.89 -221.56)"/><path class="cls-6" d="M758.72,726.83a1.37,1.37,0,0,1-1.11-2.17l6.87-9.63a1.38,1.38,0,1,1,2.24,1.6l-6.88,9.62A1.34,1.34,0,0,1,758.72,726.83Z" transform="translate(-181.89 -221.56)"/><path class="cls-6" d="M767.05,734.5a1.37,1.37,0,0,1-.51-2.65l12.3-4.92a1.39,1.39,0,0,1,1.36.19,1.37,1.37,0,0,1,.51,1.28,1.36,1.36,0,0,1-.85,1.08l-12.3,4.92A1.45,1.45,0,0,1,767.05,734.5Z" transform="translate(-181.89 -221.56)"/><path class="cls-6" d="M750.23,750.49a1.5,1.5,0,0,1-.47-.08L737.63,746a1.38,1.38,0,1,1,.94-2.59l12.13,4.41a1.38,1.38,0,0,1-.47,2.67Z" transform="translate(-181.89 -221.56)"/><path class="cls-6" d="M758.72,795.58S745.45,784.36,738.43,763a1.38,1.38,0,0,1,2.42-1.26l17.87,25.56Z" transform="translate(-181.89 -221.56)"/><path class="cls-6" d="M760.1,715.83v79.75a1.38,1.38,0,0,1-1.38,1.38,1.42,1.42,0,0,1-1.14-.61h0a1.36,1.36,0,0,1-.23-.76V715.83a1.38,1.38,0,1,1,2.75,0Z" transform="translate(-181.89 -221.56)"/><path class="cls-6" d="M758.72,762.58a1.39,1.39,0,0,1-1.12-.58l-30.25-43.06a1.37,1.37,0,1,1,2.25-1.58l30.25,43a1.39,1.39,0,0,1,.09,1.43A1.37,1.37,0,0,1,758.72,762.58Z" transform="translate(-181.89 -221.56)"/><path class="cls-6" d="M758.72,747.45a1.37,1.37,0,0,1-1.15-2.11l12.37-19.25a1.38,1.38,0,0,1,2.32,1.48l-12.38,19.25A1.34,1.34,0,0,1,758.72,747.45Z" transform="translate(-181.89 -221.56)"/><path class="cls-6" d="M736.4,730.82a1.54,1.54,0,0,1-.51-.1l-13.43-5.36a1.38,1.38,0,0,1,1-2.56l13.43,5.36a1.38,1.38,0,0,1-.51,2.66Z" transform="translate(-181.89 -221.56)"/><path class="cls-6" d="M758.72,742a1.36,1.36,0,0,1-1.12-.57l-6.87-9.63a1.37,1.37,0,0,1,1-2.16,1.38,1.38,0,0,1,1.25.57l6.87,9.62a1.37,1.37,0,0,1-1.12,2.17Z" transform="translate(-181.89 -221.56)"/><path class="cls-6" d="M758.72,754.33a1.38,1.38,0,0,1-.61-2.61l13.75-6.87a1.38,1.38,0,0,1,1.23,2.46l-13.75,6.88A1.44,1.44,0,0,1,758.72,754.33Z" transform="translate(-181.89 -221.56)"/><path class="cls-6" d="M787.56,738.81c-3.58,10.68-14.78,43.65-22.92,55.77a5.44,5.44,0,0,1-4.53,2.38h-1.39a1.42,1.42,0,0,1-1.14-.61h0c.39-1.05,1.27-3.39,2.52-6.58,5.06-12.85,16.25-39.58,26.18-51.66a.75.75,0,0,1,1.28.71Z" transform="translate(-181.89 -221.56)"/></svg>