<svg id="Layer_1" data-name="Layer 1" xmlns="http://www.w3.org/2000/svg" viewBox="0 0 928.77 584.99"><defs><style>.cls-1{fill:#5333ed;}.cls-2{fill:#f1f1f1;}.cls-10,.cls-3{fill:#6c63ff;}.cls-4{fill:#2f2e41;}.cls-5{fill:#9f616a;}.cls-6{fill:#a0616a;}.cls-7{fill:none;stroke:#3f3d56;stroke-miterlimit:10;stroke-width:2px;}.cls-8{fill:#3f3d56;}.cls-9{fill:#ff6584;}.cls-10{opacity:0.3;isolation:isolate;}</style></defs><title>process</title><path class="cls-1" d="M313.32,613.6H165.73v-368l-118,42V144.41l265.59-99.6Z" transform="translate(-47.73 -44.81)"/><circle class="cls-2" cx="801.49" cy="68.03" r="10.33"/><circle class="cls-2" cx="740.59" cy="467.73" r="10.33"/><circle class="cls-2" cx="483.69" cy="167.43" r="10.33"/><ellipse class="cls-2" cx="387.67" cy="568.89" rx="109.9" ry="16.1"/><path class="cls-3" d="M493.46,497.48l27.59-8.64a101.36,101.36,0,0,0-10.31-32.9l-27.59,8.65A62.06,62.06,0,0,1,493.46,497.48Z" transform="translate(-47.73 -44.81)"/><circle class="cls-4" cx="379.41" cy="219.84" r="25.76"/><polygon class="cls-5" points="351.62 542.64 346.72 563.64 358.62 563.64 363.52 539.84 351.62 542.64"/><polygon class="cls-5" points="409.02 542.64 409.02 562.24 420.92 563.64 420.92 542.64 409.02 542.64"/><path class="cls-5" d="M395.85,364.85s1.4,30.1,2.8,32.2,14,32.2,14,32.2l6.3-19.6s-9.8-16.1-8.4-25.2.52-20.3.52-20.3Z" transform="translate(-47.73 -44.81)"/><circle class="cls-5" cx="388.02" cy="227.64" r="19.6"/><path class="cls-5" d="M419.65,274.55s.7,28-4.2,32.2,28,.7,28,.7-7-19.6-1.4-23.8S419.65,274.55,419.65,274.55Z" transform="translate(-47.73 -44.81)"/><path class="cls-4" d="M445.55,306.05s-4.2-7.7-9.8-7-23.8,2.1-24.5,3.5-2.8,6.3-4.2,7.7-11.9,3.5-12.6,11.9,25.2,59.5,25.2,59.5-3.5,11.9-2.8,14.7-3.5,11.2-2.8,14.7-10.5,24.5-4.9,51.8V507s-18.9,76.3-13.3,81.9,24.5,2.1,28,0,18.2-107.8,18.2-107.8l7-35.7.7,78.4s-1.4,65.8,3.5,67.9,23.8,2.8,25.2-1.4c1.09-3.28,6.44-90.43,8.74-128.64a142.71,142.71,0,0,0-3.08-39.32c-2.91-13.21-7.14-28.74-12-35-9.1-11.9-14.7-49.7-14.7-49.7l11.9-21.7s-7-7-11.2-7S445.55,306.05,445.55,306.05Z" transform="translate(-47.73 -44.81)"/><path class="cls-4" d="M398.65,317.25,395,319.76s-2.61,45.09-.51,47.89,16.7,1.43,17.8-1S398.65,317.25,398.65,317.25Z" transform="translate(-47.73 -44.81)"/><path class="cls-5" d="M456.05,359.25s.7,29.4,4.9,37.8,19.6,43.4,19.6,43.4-.89,38.52,6.9,29.06,2.9-31.86,2.9-31.86l-13.3-51.8s-7-23.1-6.3-30.1S456.05,359.25,456.05,359.25Z" transform="translate(-47.73 -44.81)"/><path class="cls-4" d="M468.65,595.71s.7-.56,2.8,1.54,7.7,4.9,7,12.6-4.9,9.1-4.9,9.1v-2.1h-2.1v3.5s-3.5,11.2-19.6,4.2c0,0-.7-5.6,0-9.1s.7-20.3,2.8-19.6,7.7,1.4,9.1,4.2S469.35,601.87,468.65,595.71Z" transform="translate(-47.73 -44.81)"/><path class="cls-4" d="M396.55,596.41s-.7-.56-2.8,1.54-7.7,4.9-7,12.6,4.9,9.1,4.9,9.1v-2.1h2.1v3.5s3.5,11.2,19.6,4.2c0,0,.7-5.6,0-9.1s-.7-20.3-2.8-19.6-7.7,1.4-9.1,4.2S395.85,602.57,396.55,596.41Z" transform="translate(-47.73 -44.81)"/><path class="cls-4" d="M459.55,313.75l9.8,2.1s0,15.4,2.8,21.7,7.7,21,5.6,21.7-21.7,10.5-23.1,4.9S449.75,313.75,459.55,313.75Z" transform="translate(-47.73 -44.81)"/><circle class="cls-4" cx="351.51" cy="185.92" r="25.76"/><path class="cls-4" d="M377,252.06a25.77,25.77,0,0,0,36-5.79,25.4,25.4,0,0,0,3.81-7.74,25.76,25.76,0,0,1-51.12-6.42,26.49,26.49,0,0,1,.87-4.14A25.76,25.76,0,0,0,377,252.06Z" transform="translate(-47.73 -44.81)"/><circle class="cls-4" cx="372.54" cy="224.13" r="18.89"/><ellipse class="cls-4" cx="388.43" cy="217.05" rx="16.74" ry="13.09"/><ellipse class="cls-6" cx="392.89" cy="230.47" rx="3.18" ry="5.62"/><rect class="cls-2" x="595.51" y="104.02" width="300.3" height="373.8" transform="translate(204.85 876.61) rotate(-73.29)"/><line class="cls-7" x1="705.59" y1="132.72" x2="790.39" y2="166.99"/><polygon class="cls-8" points="707.74 139.76 709.01 139.17 706.09 132.92 712.53 130.46 712.03 129.15 704.18 132.15 707.74 139.76"/><polygon class="cls-8" points="783.94 170.56 783.44 169.25 789.89 166.79 786.96 160.54 788.23 159.95 791.79 167.56 783.94 170.56"/><circle class="cls-8" cx="747.99" cy="149.86" r="7.7"/><line class="cls-7" x1="699.13" y1="370.34" x2="777.25" y2="322.77"/><polygon class="cls-8" points="706.07 372.82 706.35 371.44 699.59 370.06 701.46 363.42 700.11 363.04 697.83 371.13 706.07 372.82"/><polygon class="cls-8" points="776.26 330.07 774.91 329.7 776.79 323.05 770.03 321.67 770.31 320.3 778.55 321.98 776.26 330.07"/><circle class="cls-8" cx="738.19" cy="346.56" r="7.7"/><line class="cls-7" x1="600.97" y1="219.62" x2="601" y2="311.09"/><polygon class="cls-8" points="595.25 224.26 596.27 225.22 600.97 220.16 605.67 225.22 606.7 224.26 600.97 218.1 595.25 224.26"/><polygon class="cls-8" points="595.27 306.45 596.3 305.49 601 310.55 605.7 305.49 606.72 306.45 601 312.61 595.27 306.45"/><circle class="cls-8" cx="600.99" cy="265.36" r="7.7"/><rect class="cls-8" x="536.07" y="33.39" width="127.4" height="158.2"/><path class="cls-9" d="M639.53,137.09H610.62a101.26,101.26,0,0,1,0-34.47h28.91A62.15,62.15,0,0,0,639.53,137.09Z" transform="translate(-47.73 -44.81)"/><path class="cls-3" d="M655.47,154.58h28.91a101.26,101.26,0,0,0,0-34.47H655.47A62.15,62.15,0,0,1,655.47,154.58Z" transform="translate(-47.73 -44.81)"/><path class="cls-3" d="M628.17,212h28.91a101.26,101.26,0,0,0,0-34.47H628.17A62.15,62.15,0,0,1,628.17,212Z" transform="translate(-47.73 -44.81)"/><rect class="cls-8" x="801.37" y="183.89" width="127.4" height="158.2"/><rect class="cls-3" x="819.57" y="217.49" width="91" height="4.2"/><rect class="cls-3" x="819.57" y="232.19" width="91" height="4.2"/><rect class="cls-3" x="819.57" y="246.89" width="91" height="4.2"/><rect class="cls-3" x="819.57" y="261.59" width="91" height="4.2"/><rect class="cls-3" x="819.57" y="276.29" width="91" height="4.2"/><rect class="cls-3" x="841.27" y="291.69" width="47.6" height="16.8"/><rect class="cls-8" x="547.27" y="346.29" width="127.4" height="158.2"/><rect class="cls-3" x="565.68" y="434.36" width="91" height="4.2"/><rect class="cls-3" x="565.68" y="449.06" width="91" height="4.2"/><rect class="cls-3" x="565.68" y="463.76" width="91" height="4.2"/><rect class="cls-3" x="565.68" y="478.46" width="91" height="4.2"/><path class="cls-10" d="M641.28,447.41H612.37a101.26,101.26,0,0,1,0-34.47h28.91A62.15,62.15,0,0,0,641.28,447.41Z" transform="translate(-47.73 -44.81)"/><rect class="cls-10" x="605.58" y="371.36" width="53.2" height="3.5"/><rect class="cls-10" x="605.58" y="383.96" width="53.2" height="3.5"/><rect class="cls-10" x="605.58" y="396.56" width="53.2" height="3.5"/><rect class="cls-10" x="605.58" y="409.16" width="53.2" height="3.5"/></svg>