<svg id="b0225cde-a2d2-4693-8ce5-502a1e8a6144" xmlns="http://www.w3.org/2000/svg" viewBox="0 0 1077.38 752.86"><defs><style>.cls-1{fill:#5333ed;}.cls-2{fill:#fbbebe;}.cls-3{fill:none;stroke:#3f3d56;stroke-miterlimit:10;}.cls-4{fill:#3f3d56;}.cls-5{opacity:0.1;}.cls-5,.cls-7{isolation:isolate;}.cls-6{fill:#6c63ff;}.cls-7{opacity:0.2;}.cls-8{fill:#57b894;}.cls-9{fill:#46455b;}.cls-10{fill:#a8a8a8;}</style></defs><title>R</title><path class="cls-1" d="M710.89,306.23c0,64.8-37.5,111.3-108.6,126l114.3,154.2H582.19l-101.1-149.1h-6.3v149.1h-114v-420H548C654.79,166.43,710.89,221.63,710.89,306.23Zm-236.1-37.5v74.7h72c28.2,0,48.9-11.7,48.9-37.2s-20.7-37.5-48.9-37.5Z"/><circle class="cls-2" cx="567.69" cy="425.44" r="11"/><line class="cls-3" x1="77.11" y1="728.57" x2="901.11" y2="728.57"/><circle class="cls-4" cx="426.12" cy="727.88" r="7.69"/><circle class="cls-5" cx="426.12" cy="727.88" r="7.69"/><circle class="cls-4" cx="369.33" cy="664.25" r="7.69"/><circle class="cls-5" cx="369.33" cy="664.25" r="7.69"/><path class="cls-6" d="M364.63,647.6s6.83-1.71,14.52,12.81L442.35,733s7.36,5.55,15.21,2.35c0,0,1,3.63-10.94,2.78s-35.87-29.89-35.87-29.89S363.78,655.29,364.63,647.6Z"/><circle class="cls-4" cx="374.03" cy="675.78" r="7.69"/><circle class="cls-4" cx="431.25" cy="738.13" r="7.69"/><path class="cls-2" d="M508.45,537.69s53.81,70,58.08,74.3c0,0-10.25,31.6-7.69,41.85s-5.12,35-5.12,35l9.39,12h7.69s5.83-34.29,12.81-51.25c17.94-43.55,9.4-48.68,0-66.61s-32.45-53-34.16-53S508.45,537.69,508.45,537.69Z"/><circle class="cls-4" cx="529.81" cy="353.22" r="35.02"/><path class="cls-2" d="M521.69,373.29s15.38,29-11.1,25.62l1.71,36.72s17.93,10.25,18.79,10.25,27.33-8.54,27.33-8.54l6-6.83.86-31.6s-20.5-1.71-21.35-24.77S521.69,373.29,521.69,373.29Z"/><path class="cls-5" d="M521.69,373.29s15.38,29-11.1,25.62l1.71,36.72s17.93,10.25,18.79,10.25,27.33-8.54,27.33-8.54l6-6.83.86-31.6s-20.5-1.71-21.35-24.77S521.69,373.29,521.69,373.29Z"/><path class="cls-2" d="M500.34,467.23l-13.66,9.4,18.79,32.45,21.35-1.71L547.31,498s0-14.52,5.13-23.06S500.34,467.23,500.34,467.23Z"/><path class="cls-2" d="M551.58,362.19a22.21,22.21,0,0,1-44.41,0h0a22.21,22.21,0,1,1,44.41,0Z"/><path class="cls-2" d="M510.69,398.44s-12.06-5.51-21.45-4.65-27.33,3.41-32.46,0-31.6,2.56-31.6,2.56-.85,8.54,22.21,14.52,40.14,6.83,44.41,13.66,10.25,15.37,10.25,15.37l12-24.76Z"/><path class="cls-7" d="M510.1,373.19a22,22,0,0,1-2.93-11h0c5.16-.31,11.05.15,16.23,2.57C532.25,368.88,519.09,371.78,510.1,373.19Z"/><path class="cls-2" d="M440.56,401.47s15.37-5.12,19.64-11.1,42.7-18.79,42.7-18.79,33.31-3.42,20.5-9.39-29.89,0-29.89,0-63.2,21.35-65.76,25.62a18.14,18.14,0,0,0-2.56,8.54l6,2.56Z"/><path class="cls-2" d="M464.47,507.37s-17.08,25.62-1.71,88c0,0,0,31.6-2.56,42.7s0,69.18,0,69.18l8.54,8.54,7.69-5.12s-5.55-21.78,3.84-44,2.56-51.24,2.56-51.24,17.51-59.36,13.24-79S464.47,507.37,464.47,507.37Z"/><path class="cls-4" d="M467,706.37s-7.68-12-9.39-8.54-4.27,13.66-15.37,17.93-18.79,4.27-7.69,12.81,13.66,8.54,18.79,6,13.66-4.27,16.23-3.42,12.81-2.56,11.95-7.68-5.12-10.25-5.12-10.25-1.71-9.4-3.42-6.83S467,706.37,467,706.37Z"/><path class="cls-4" d="M567.81,694.41S555.2,682.27,556,679.8s-14.61-2.47-12.05,6.92,9.39,20.5,9.39,20.5c-.85,11.1-.85,20.5,8.54,23.91s20.5.86,17.08-9.39-6.2-26-6.2-26Z"/><path class="cls-4" d="M490.52,472.78s-30.32,17.51-32,41.43c0,0,8.54,23.91,39.29,28.18,0,0,7.38-3.42,11,0s34.31,0,43.71-8.54c0,0-5.55-36.3-3.85-44,0,0-27.75,23.48-40.56,3.84S490.52,472.78,490.52,472.78Z"/><path class="cls-2" d="M563.54,401.47s16.23-8.54,24.77,10.25,25.62,47.83,24.77,58.08-53,39.28-53,39.28-22.2,23.06-23.91,13.67,16.23-22.21,16.23-22.21,39.28-23.06,39.28-31.6-19.64-42.7-23.91-42.7S563.54,401.47,563.54,401.47Z"/><path class="cls-6" d="M512.3,397.2l-6.83-.85s8.55,28.11-7.26,38c0,0,9,26.93-3.85,34.62s51.25,23.91,57.22,17.08,25.15-50.21,23.68-51.58-11.72-9.06-9.16-18.45a70.23,70.23,0,0,0,2.59-16.55l-8-2L555,426.24s-25.62,10.25-36.72-5.13Z"/><rect class="cls-4" x="510.16" y="335.28" width="34.16" height="18.79" rx="6.19"/><circle class="cls-4" cx="532.37" cy="318.2" r="15.37"/><path class="cls-4" d="M782.09,560.2a38.39,38.39,0,0,0,5.08-19.49c0-17.62-10.91-31.9-24.36-31.9s-24.37,14.28-24.37,31.9a38.4,38.4,0,0,0,5.09,19.49,39.91,39.91,0,0,0,0,39,39.89,39.89,0,0,0,0,39,39.91,39.91,0,0,0,0,39,38.4,38.4,0,0,0-5.09,19.49c0,17.62,10.91,31.9,24.37,31.9s24.36-14.28,24.36-31.9a38.39,38.39,0,0,0-5.08-19.49,39.91,39.91,0,0,0,0-39,39.89,39.89,0,0,0,0-39A39.91,39.91,0,0,0,782.09,560.2Z"/><ellipse class="cls-4" cx="762.81" cy="501.72" rx="24.37" ry="31.9"/><ellipse class="cls-4" cx="762.81" cy="462.74" rx="24.37" ry="31.9"/><path class="cls-8" d="M854,196a117.58,117.58,0,0,0,9.08-13.36l-64-10.52,69.25.52a116.91,116.91,0,0,0,2.22-92.48L777.65,128.3l85.67-63A116.72,116.72,0,1,0,670.55,196a116.6,116.6,0,0,0-13.31,21.28l83.11,43.18-88.62-29.74a116.78,116.78,0,0,0,18.82,109.6,116.71,116.71,0,1,0,183.47,0A116.73,116.73,0,0,0,854,196Z"/><path class="cls-5" d="M645.57,268.11a116.18,116.18,0,0,0,25,72.16,116.71,116.71,0,1,0,183.47,0C869.66,320.41,645.57,255,645.57,268.11Z"/><path class="cls-9" d="M90.74,604.8c0,59,37,106.68,82.7,106.68"/><path class="cls-6" d="M173.44,711.48c0-59.63,41.27-107.87,92.28-107.87"/><path class="cls-6" d="M120.7,610.15c0,56,23.59,101.33,52.74,101.33"/><path class="cls-9" d="M173.44,711.48c0-76.19,47.71-137.84,106.67-137.84"/><path class="cls-10" d="M156,712.23s11.73-.36,15.26-2.88,18-5.52,18.92-1.49,17.62,20.08,4.38,20.19-30.76-2.07-34.29-4.21S156,712.23,156,712.23Z"/><path class="cls-7" d="M194.84,726.64c-13.24.11-30.77-2.06-34.29-4.21-2.69-1.64-3.76-7.51-4.12-10.22l-.39,0s.74,9.46,4.27,11.6,21.05,4.32,34.29,4.22c3.82,0,5.15-1.39,5.07-3.41C199.14,725.86,197.68,726.62,194.84,726.64Z"/><path class="cls-8" d="M621.08,169.61c-3.5-3.51-7.43-5.61-10.49-5.9l3.14,5.6-5.15-5.49A3.85,3.85,0,0,0,606.5,165c-2.58,2.95-.24,9.79,5.23,15.28s12,7.54,14.57,4.59S626.55,175.1,621.08,169.61Z"/><path class="cls-5" d="M623,173c-.94,1.38-1.39,3.21-2.44,4.48s-2.9,2-5.39.84c-1.34-.6-2.73-1.66-4.1-2.41a9.12,9.12,0,0,0-3.58-1.18,25.6,25.6,0,0,0,4.28,5.6c5.46,5.49,12,7.54,14.57,4.59,2.17-2.48.87-7.7-2.84-12.56A7.84,7.84,0,0,0,623,173Z"/><path class="cls-8" d="M624.72,342.24c4.53-2,7.9-4.92,9.27-7.67l-6.35.92,7-2.85a3.87,3.87,0,0,0-.39-2.36c-1.83-3.47-9.06-3.74-16.14-.6s-11.33,8.49-9.5,12S617.64,345.38,624.72,342.24Z"/><path class="cls-5" d="M620.9,342.8c-.95-1.38-2.49-2.46-3.31-3.89s-.78-3.4,1.15-5.33c1-1,2.53-2,3.72-3a9.29,9.29,0,0,0,2.39-2.93,25.83,25.83,0,0,0-6.77,2c-7.08,3.14-11.33,8.5-9.5,12,1.54,2.92,6.88,3.57,12.74,1.85A4.89,4.89,0,0,0,620.9,342.8Z"/><path class="cls-8" d="M341.91,315.23c-4.94-.39-9.29.57-11.8,2.34l6,2.21-7.48-.82a3.88,3.88,0,0,0-.79,2.27c0,3.92,6.18,7.6,13.91,8.21s14-2.07,14.05-6S349.64,315.85,341.91,315.23Z"/><path class="cls-5" d="M345.54,316.57c.18,1.66,1,3.34,1,5s-.92,3.37-3.54,4.14c-1.42.42-3.16.52-4.68.83a9.35,9.35,0,0,0-3.5,1.44,25.83,25.83,0,0,0,6.9,1.47c7.72.62,14-2.07,14.05-6,0-3.29-4.34-6.41-10.32-7.69A7.32,7.32,0,0,0,345.54,316.57Z"/><path class="cls-8" d="M456.93,444c2.14-4.47,2.8-8.88,2.05-11.85L454.75,437l3.45-6.69a3.9,3.9,0,0,0-1.83-1.55c-3.65-1.44-9.32,3.05-12.65,10s-3.09,13.83.56,15.27S453.59,451,456.93,444Z"/><path class="cls-5" d="M454.39,446.93c-1.62-.42-3.49-.25-5.05-.81s-2.81-2.07-2.59-4.79c.12-1.47.65-3.13.9-4.67a9.21,9.21,0,0,0-.09-3.77,25.79,25.79,0,0,0-3.84,5.9c-3.34,7-3.09,13.83.56,15.27,3.06,1.22,7.54-1.76,10.88-6.88A6.91,6.91,0,0,0,454.39,446.93Z"/><path class="cls-8" d="M882.91,341.23c-4.94-.39-9.29.57-11.8,2.34l6,2.21-7.48-.82a3.88,3.88,0,0,0-.79,2.27c0,3.92,6.18,7.6,13.91,8.21s14-2.07,14.05-6S890.64,341.85,882.91,341.23Z"/><path class="cls-5" d="M886.54,342.57c.18,1.66,1,3.34,1.05,5s-.92,3.37-3.54,4.14c-1.42.42-3.16.52-4.68.83a9.35,9.35,0,0,0-3.5,1.44,25.83,25.83,0,0,0,6.9,1.47c7.72.62,14-2.07,14.05-6,0-3.29-4.34-6.41-10.32-7.69A7.32,7.32,0,0,0,886.54,342.57Z"/><path class="cls-8" d="M997.93,470c2.14-4.47,2.8-8.88,2.05-11.85L995.75,463l3.45-6.69a3.9,3.9,0,0,0-1.83-1.55c-3.65-1.44-9.32,3.05-12.65,10s-3.09,13.83.56,15.27S994.59,477,997.93,470Z"/><path class="cls-5" d="M995.39,472.93c-1.62-.42-3.49-.25-5-.81s-2.81-2.07-2.59-4.79c.12-1.47.65-3.13.9-4.67a9.21,9.21,0,0,0-.09-3.77,25.79,25.79,0,0,0-3.84,5.9c-3.34,7-3.09,13.83.56,15.27,3.06,1.22,7.54-1.76,10.88-6.88A6.91,6.91,0,0,0,995.39,472.93Z"/><path class="cls-8" d="M972,277.41c-1.52-4.71-4.08-8.37-6.67-10l.26,6.41-2.11-7.22a3.83,3.83,0,0,0-2.39.13c-3.64,1.47-4.66,8.63-2.27,16s7.28,12.16,10.92,10.7S974.39,284.78,972,277.41Z"/><path class="cls-5" d="M972.16,281.27c-1.46.81-2.7,2.23-4.21,2.89s-3.47.43-5.18-1.7c-.93-1.14-1.69-2.71-2.56-4a9.3,9.3,0,0,0-2.66-2.68,25.67,25.67,0,0,0,1.27,6.94c2.39,7.36,7.28,12.15,10.92,10.69,3-1.23,4.26-6.47,3.16-12.48A5,5,0,0,0,972.16,281.27Z"/><path class="cls-8" d="M897.06,433c5,.26,9.27-.81,11.73-2.65l-6.07-2.05,7.5.62a3.89,3.89,0,0,0,.73-2.28c-.06-3.93-6.39-7.44-14.12-7.85s-14,2.44-13.89,6.36S889.32,432.56,897.06,433Z"/><path class="cls-5" d="M893.4,431.73c-.23-1.65-1.11-3.31-1.19-5s.84-3.38,3.44-4.22c1.4-.46,3.14-.61,4.65-1a9.36,9.36,0,0,0,3.46-1.53,26.35,26.35,0,0,0-6.93-1.29c-7.74-.41-14,2.44-13.89,6.36,0,3.3,4.51,6.3,10.52,7.42A5.52,5.52,0,0,0,893.4,431.73Z"/></svg>