<?xml version="1.0" encoding="utf-8"?>
<!-- Generator: Adobe Illustrator 21.1.0, SVG Export Plug-In . SVG Version: 6.00 Build 0)  -->
<svg version="1.1" id="Layer_1" xmlns="http://www.w3.org/2000/svg" xmlns:xlink="http://www.w3.org/1999/xlink" x="0px" y="0px"
	 viewBox="0 0 80 80" enable-background="new 0 0 80 80" xml:space="preserve">
<title>icons/services/rails@2x</title>
<desc>Created with Sketch.</desc>
<g id="SANDBOX">
	<g id="NL_Sandboxes-Box---stacks-logos" transform="translate(-412.000000, -456.000000)">
		<g id="icons_x2F_services_x2F_rails" transform="translate(400.000000, 426.000000)">
			<rect id="Rectangle-10-Copy-23" x="12" y="30" fill="none" width="80" height="80"/>
			<g id="stack-rails" transform="translate(12.000000, 30.000000)">
				<path id="Shape" fill="#CC0000" d="M36,46.5c0,0,2.5-0.2,2.5-3.4c0-3.2-3-3.5-3-3.5h-5.4v10.1h2.7v-2.4l2.3,2.4h4L36,46.5z
					 M34.9,44.4h-2.2v-2.3h2.2c0,0,0.6,0.2,0.6,1.1S34.9,44.4,34.9,44.4z M45.1,39.7h-2.8c-2,0-2.6,1.8-2.6,2.6v7.4h2.8v-1.8h2.6
					v1.8h2.7v-7.4C47.7,40.1,45.8,39.7,45.1,39.7z M45.1,45h-2.6v-2.4c0,0,0-0.6,0.9-0.6h0.9c0.8,0,0.8,0.6,0.8,0.6L45.1,45L45.1,45
					z M49,39.7h2.9v10H49V39.7z M55.9,47.1v-7.4H53v7.4v2.6h2.8h3.9v-2.6H55.9z M60.7,47.1v2.6h4.6c0.9,0,2.6-0.7,2.6-2.6v-1
					c0-1.7-1.4-2.6-2.6-2.6H63v-1.2h4.6v-2.6h-4.4c-1.1,0-2.6,0.9-2.6,2.7v0.9c0,1.7,1.5,2.6,2.6,2.6c3.2,0-0.8,0,2.2,0v1.2
					L60.7,47.1z"/>
				<path id="Shape_1_" fill="#CC0000" d="M13,49.6h11.1c0,0-2.1-9.7,4.9-13.7c1.5-0.7,6.4-3.5,14.4,2.4C43.8,38.2,44,38,44,38
					s-7.3-7.3-15.5-6.5c-4.1,0.4-9.2,4.1-12.1,9S13,49.6,13,49.6z M36.2,32.3l0.1-0.9c-0.1-0.1-0.5-0.2-1.4-0.5l-0.1,0.9
					C35.3,31.9,35.8,32.1,36.2,32.3z M34.9,35.3l-0.1,0.9c0.5,0,0.9,0.1,1.4,0.2l0.1-0.9C35.8,35.3,35.3,35.3,34.9,35.3z M29.6,30.9
					h0.1L29.5,30c-0.4,0-0.9,0-1.4,0.1l0.3,0.8C28.8,30.9,29.2,30.9,29.6,30.9z M30.3,36.1l0.3,1c0.4-0.2,0.8-0.4,1.2-0.5l-0.3-0.9
					C31.1,35.7,30.7,35.9,30.3,36.1z M23.9,32.3l-0.6-1c-0.4,0.2-0.7,0.4-1.1,0.6l0.6,1C23.2,32.7,23.6,32.5,23.9,32.3z M26.8,38.7
					l0.7,1c0.2-0.4,0.5-0.7,0.8-1l-0.6-1C27.4,38,27.1,38.4,26.8,38.7z M24.8,43.2l1.1,0.9c0.1-0.6,0.2-1.1,0.3-1.7l-1-0.8
					C25,42.2,24.9,42.7,24.8,43.2z M18.6,36.5l-1-0.9c-0.4,0.4-0.7,0.7-1,1.1l1.1,0.9C17.9,37.3,18.2,36.9,18.6,36.5z M14.3,42.8
					l-1.6-0.6c-0.3,0.6-0.6,1.3-0.7,1.7l1.6,0.6C13.8,44,14.1,43.4,14.3,42.8z M24.6,46.8c0,0.7,0.1,1.4,0.2,1.8l1.7,0.6
					c-0.1-0.6-0.3-1.2-0.3-1.8L24.6,46.8z"/>
			</g>
		</g>
	</g>
</g>
</svg>
