<?xml version="1.0" encoding="utf-8"?>
<!-- Generator: Adobe Illustrator 21.1.0, SVG Export Plug-In . SVG Version: 6.00 Build 0)  -->
<svg version="1.1" id="Layer_1" xmlns="http://www.w3.org/2000/svg" xmlns:xlink="http://www.w3.org/1999/xlink" x="0px" y="0px"
	 viewBox="0 0 80 80" enable-background="new 0 0 80 80" xml:space="preserve">
<title>icons/services/react@2x</title>
<desc>Created with Sketch.</desc>
<g id="SANDBOX">
	<g id="NL_Sandboxes-Box---stacks-logos" transform="translate(-861.000000, -330.000000)">
		<g id="icons_x2F_services_x2F_react" transform="translate(848.000000, 314.000000)">
			<rect id="Rectangle-10-Copy-13" x="13" y="16" fill="none" width="80" height="80"/>
			<g id="stack-react" transform="translate(13.000000, 16.000000)">
				<path id="Shape" fill="#00D8FF" d="M57.3,31.5c-0.6-0.2-1.1-0.4-1.7-0.5c0.1-0.4,0.2-0.8,0.3-1.2c1.3-6.4,0.5-11.5-2.5-13.2
					c-2.8-1.6-7.4,0.1-12.1,4.1c-0.4,0.4-0.9,0.8-1.3,1.2c-0.3-0.3-0.6-0.6-0.9-0.8c-4.9-4.3-9.7-6.1-12.7-4.4
					c-2.8,1.6-3.6,6.5-2.5,12.5c0.1,0.6,0.2,1.2,0.4,1.8c-0.7,0.2-1.4,0.4-2,0.6c-5.7,2-9.4,5.1-9.4,8.3c0,3.3,3.9,6.7,9.9,8.7
					c0.5,0.2,1,0.3,1.5,0.5c-0.2,0.7-0.3,1.3-0.4,1.9c-1.1,5.9-0.2,10.7,2.6,12.3c2.9,1.7,7.7,0,12.5-4.2c0.4-0.3,0.7-0.7,1.1-1
					c0.5,0.5,1,0.9,1.5,1.3c4.6,3.9,9.1,5.5,11.9,3.9c2.9-1.7,3.8-6.7,2.6-12.9c-0.1-0.5-0.2-1-0.3-1.4c0.3-0.1,0.7-0.2,1-0.3
					c6.2-2,10.2-5.4,10.2-8.7C66.9,36.7,63.1,33.5,57.3,31.5L57.3,31.5z M56,46.5c-0.3,0.1-0.6,0.2-0.9,0.3
					c-0.7-2.2-1.6-4.5-2.7-6.8c1.1-2.3,2-4.6,2.6-6.7c0.6,0.2,1.1,0.3,1.6,0.5c5,1.7,8,4.3,8,6.2C64.6,42,61.3,44.7,56,46.5L56,46.5
					z M53.8,50.9c0.5,2.7,0.6,5.2,0.3,7.1c-0.3,1.7-1,2.9-1.8,3.3c-1.7,1-5.3-0.3-9.2-3.7c-0.4-0.4-0.9-0.8-1.4-1.2
					c1.5-1.7,3-3.6,4.5-5.7c2.6-0.2,5.1-0.6,7.3-1.1C53.6,50,53.7,50.4,53.8,50.9L53.8,50.9z M31.4,61.2c-1.7,0.6-3,0.6-3.8,0.1
					c-1.7-1-2.4-4.8-1.4-9.8c0.1-0.6,0.2-1.2,0.4-1.8c2.2,0.5,4.7,0.8,7.3,1.1c1.5,2.1,3.1,4,4.6,5.7c-0.3,0.3-0.7,0.6-1,0.9
					C35.3,59.2,33.2,60.5,31.4,61.2L31.4,61.2z M23.6,46.5c-2.6-0.9-4.8-2.1-6.3-3.3c-1.3-1.1-2-2.3-2-3.2c0-2,2.9-4.5,7.8-6.2
					c0.6-0.2,1.2-0.4,1.9-0.6c0.7,2.2,1.6,4.5,2.6,6.8c-1.1,2.4-2,4.7-2.7,6.9C24.5,46.8,24,46.6,23.6,46.5L23.6,46.5z M26.2,28.7
					c-1-5.2-0.3-9.1,1.4-10.1c1.8-1,5.8,0.4,10,4.2c0.3,0.2,0.5,0.5,0.8,0.7c-1.6,1.7-3.1,3.6-4.6,5.7c-2.5,0.2-5,0.6-7.2,1.1
					C26.4,29.8,26.3,29.3,26.2,28.7L26.2,28.7z M49.5,34.5c-0.5-0.9-1.1-1.8-1.6-2.7c1.7,0.2,3.4,0.5,4.9,0.9c-0.5,1.5-1,3-1.7,4.6
					C50.5,36.4,50,35.4,49.5,34.5L49.5,34.5z M40,25.2c1.1,1.2,2.1,2.4,3.2,3.8C42.1,29,41,29,39.9,29c-1.1,0-2.1,0-3.2,0.1
					C37.8,27.7,38.9,26.4,40,25.2L40,25.2z M30.4,34.5c-0.5,0.9-1,1.9-1.5,2.8c-0.7-1.6-1.2-3.2-1.7-4.7c1.5-0.3,3.2-0.6,4.9-0.8
					C31.5,32.7,31,33.6,30.4,34.5L30.4,34.5L30.4,34.5z M32.1,48.2c-1.8-0.2-3.4-0.5-5-0.8c0.5-1.5,1.1-3.1,1.7-4.8
					c0.5,0.9,1,1.9,1.5,2.8h0C31,46.4,31.6,47.3,32.1,48.2L32.1,48.2z M40,54.8c-1.1-1.2-2.2-2.5-3.2-3.9c1,0,2.1,0.1,3.2,0.1
					c1.1,0,2.2,0,3.3-0.1C42.2,52.3,41.1,53.6,40,54.8L40,54.8z M51,42.6c0.7,1.6,1.3,3.2,1.8,4.7c-1.6,0.4-3.2,0.6-5,0.9
					c0.6-0.9,1.1-1.8,1.7-2.7C50,44.5,50.5,43.6,51,42.6L51,42.6z M47.5,44.3c-0.8,1.5-1.7,2.9-2.6,4.2c-1.6,0.1-3.3,0.2-4.9,0.2
					c-1.7,0-3.3-0.1-4.9-0.2c-0.9-1.3-1.8-2.7-2.6-4.2h0c-0.8-1.4-1.6-2.9-2.3-4.3c0.7-1.4,1.5-2.9,2.3-4.3l0,0
					c0.8-1.4,1.7-2.8,2.6-4.2c1.6-0.1,3.2-0.2,4.9-0.2h0c1.7,0,3.3,0.1,4.9,0.2c0.9,1.3,1.8,2.7,2.6,4.1c0.8,1.5,1.6,2.9,2.3,4.3
					C49.1,41.4,48.3,42.9,47.5,44.3L47.5,44.3z M52.2,18.6c1.8,1,2.5,5.2,1.4,10.7c-0.1,0.4-0.2,0.7-0.2,1.1
					c-2.2-0.5-4.7-0.9-7.2-1.1c-1.5-2.1-3-4-4.6-5.7c0.4-0.4,0.8-0.8,1.2-1.1C46.8,19,50.5,17.6,52.2,18.6L52.2,18.6z M39.9,35.1
					c2.7,0,4.8,2.2,4.8,4.8c0,2.7-2.2,4.8-4.8,4.8c-2.7,0-4.8-2.2-4.8-4.8C35.1,37.3,37.3,35.1,39.9,35.1L39.9,35.1z"/>
			</g>
		</g>
	</g>
</g>
</svg>
