<?xml version="1.0" encoding="iso-8859-1"?>
<!-- Generator: Adobe Illustrator 19.0.0, SVG Export Plug-In . SVG Version: 6.00 Build 0)  -->
<svg version="1.1" id="Capa_1" xmlns="http://www.w3.org/2000/svg" xmlns:xlink="http://www.w3.org/1999/xlink" x="0px" y="0px"
	 viewBox="0 0 511.97 511.97" style="enable-background:new 0 0 511.97 511.97;" xml:space="preserve">
<ellipse style="fill:#473CBA;" cx="249.585" cy="501.87" rx="210" ry="10.1"/>
<path style="fill:#79A1E8;" d="M16.185,360.07c0,52.3,8.7,82.8,71,78.9c84.4-5.3,165.8-154.8,231.7-148.4s217.5-65.4,86.3-175.1
	c-102.9-86-81-124.2-183.8-113.8c-116.9,11.8-185.2,97.7-197,209.8C16.085,288.87,16.185,343.27,16.185,360.07z"/>
<path style="fill:#473CBA;" d="M466.985,420.17h-380.1v-234.8c0-15.3,12.4-27.8,27.8-27.8h324.6c15.3,0,27.8,12.4,27.8,27.8v234.8
	H466.985z"/>
<path style="fill:#4B31AA;" d="M87.285,382.47c1.2-1.1,2.5-2,4-2.8v-173.9c-3.6-1-6.6-3.2-8.7-6v187.2
	C83.785,385.17,85.385,383.67,87.285,382.47z"/>
<path style="fill:#D7ECF9;" d="M453.185,420.17h-380.1v-234.8c0-15.3,12.4-27.8,27.8-27.8h324.6c15.3,0,27.8,12.4,27.8,27.8v234.8
	H453.185z"/>
<rect x="18.585" y="415.77" style="fill:#7693DD;" width="406.4" height="31.6"/>
<rect x="409.685" y="415.77" style="fill:#473CBA;" width="57.4" height="31.6"/>
<path style="fill:#4B31AA;" d="M439.285,153.27h-338.4c-17.7,0-32.1,14.4-32.1,32.1v226h-50.1c-2.4,0-4.4,2-4.4,4.4v31.6
	c0,2.4,2,4.4,4.4,4.4h448.4c2.4,0,4.4-2,4.4-4.4v-27.2v-4.4v-230.4C471.385,167.67,456.985,153.27,439.285,153.27z M77.485,185.37
	c0-12.9,10.5-23.4,23.4-23.4h324.6c12.9,0,23.4,10.5,23.4,23.4v226h-371.4V185.37z M22.985,420.17h382.3v22.9h-382.3V420.17z
	 M462.685,442.97h-48.7v-22.9h48.7V442.97z M462.685,411.37h-5.1v-226c0-7.9-2.9-15.2-7.7-20.8c7.6,3.9,12.8,11.8,12.8,20.8V411.37z
	"/>
<rect x="95.985" y="181.57" style="fill:#FFFFFF;" width="336.6" height="233.1"/>
<polygon style="fill:#CFDDF7;" points="429.185,184.37 137.985,412.07 429.185,412.07 "/>
<path style="fill:#4B31AA;" d="M432.485,419.07h-336.6c-2.4,0-4.4-2-4.4-4.4v-233.1c0-2.4,2-4.4,4.4-4.4h336.6c2.4,0,4.4,2,4.4,4.4
	v233.1C436.885,417.07,434.885,419.07,432.485,419.07z M100.285,410.37h327.9v-224.4h-327.9V410.37z"/>
<g>
	<path style="fill:#F7931E;" d="M157.685,198.07h13.1c14.4,0,26.1,11.7,26.1,26.1c0,14.4-11.7,26.1-26.1,26.1h-13.1"/>
	<circle style="fill:#F7931E;" cx="157.685" cy="224.27" r="26.1"/>
	<path style="fill:#F7931E;" d="M453.885,89.27h13.1c14.4,0,26.1,11.7,26.1,26.1c0,14.4-11.7,26.1-26.1,26.1h-13.1"/>
</g>
<circle style="fill:#F9D015;" cx="453.885" cy="115.37" r="26.1"/>
<path style="fill:#F7931E;" d="M256.385,89.27h13.1c14.4,0,26.1,11.7,26.1,26.1c0,14.4-11.7,26.1-26.1,26.1h-13.1"/>
<circle style="fill:#F9D015;" cx="256.385" cy="115.37" r="26.1"/>
<path style="fill:#F7931E;" d="M59.585,89.27h13.1c14.4,0,26.1,11.7,26.1,26.1c0,14.4-11.7,26.1-26.1,26.1h-13.1"/>
<circle style="fill:#F9D015;" cx="59.585" cy="115.37" r="26.1"/>
<g>
	<path style="fill:#7693DD;" d="M394.085,364.27c-2.4,0-4.4-2-4.4-4.4v-65.4c0-2.4,2-4.4,4.4-4.4s4.4,2,4.4,4.4v65.4
		C398.485,362.27,396.485,364.27,394.085,364.27z"/>
	<path style="fill:#7693DD;" d="M363.585,364.27c-2.4,0-4.4-2-4.4-4.4v-43.6c0-2.4,2-4.4,4.4-4.4s4.4,2,4.4,4.4v43.6
		C367.985,362.27,365.985,364.27,363.585,364.27z"/>
	<path style="fill:#7693DD;" d="M339.585,364.27c-2.4,0-4.4-2-4.4-4.4v-21.8c0-2.4,2-4.4,4.4-4.4s4.4,2,4.4,4.4v21.8
		C343.985,362.27,342.085,364.27,339.585,364.27z"/>
	<path style="fill:#7693DD;" d="M133.185,364.27c-2.4,0-4.4-2-4.4-4.4v-65.4c0-2.4,2-4.4,4.4-4.4s4.4,2,4.4,4.4v65.4
		C137.585,362.27,135.585,364.27,133.185,364.27z"/>
	<path style="fill:#7693DD;" d="M163.685,364.27c-2.4,0-4.4-2-4.4-4.4v-43.6c0-2.4,2-4.4,4.4-4.4s4.4,2,4.4,4.4v43.6
		C168.085,362.27,166.085,364.27,163.685,364.27z"/>
	<path style="fill:#7693DD;" d="M187.685,364.27c-2.4,0-4.4-2-4.4-4.4v-21.8c0-2.4,2-4.4,4.4-4.4s4.4,2,4.4,4.4v21.8
		C191.985,362.27,190.085,364.27,187.685,364.27z"/>
</g>
<path style="fill:#F7931E;" d="M254.985,303.37h13.1c14.4,0,26.1,11.7,26.1,26.1s-11.7,26.1-26.1,26.1h-13.1"/>
<circle style="fill:#F15A24;" cx="254.985" cy="329.57" r="26.1"/>
<g>
	<path style="fill:#F7931E;" d="M354.485,198.07h13.1c14.4,0,26.1,11.7,26.1,26.1c0,14.4-11.7,26.1-26.1,26.1h-13.1"/>
	<circle style="fill:#F7931E;" cx="354.485" cy="224.27" r="26.1"/>
</g>
<path style="fill:#4B31AA;" d="M466.885,84.87h-13.1c-16.8,0-30.5,13.7-30.5,30.5c0,8.1,3.1,15.4,8.3,20.9l-58.1,58.1
	c-1.9-0.4-4-0.6-6-0.6h-13.1c-5.3,0-10.3,1.4-14.6,3.7l-55.5-55.5c9.3-5.2,15.5-15.2,15.5-26.6c0-16.8-13.7-30.5-30.5-30.5h-13.1
	c-16.8,0-30.5,13.7-30.5,30.5c0,9.8,4.6,18.5,11.8,24l-56.2,56.2c-3.3-1.2-6.9-1.9-10.7-1.9h-12.9c-6.8,0-13.1,2.2-18.2,6
	l-55.9-55.9c11.4-4.4,19.6-15.5,19.6-28.5c0-16.8-13.7-30.5-30.5-30.5h-13.1c-16.8,0-30.5,13.7-30.5,30.5s13.7,30.5,30.5,30.5h13.1
	c0.2,0,0.4,0,0.6,0l60,60c-3.8,5.1-6.1,11.4-6.1,18.3c0,16.8,13.7,30.5,30.5,30.5h13.1c2.1,0,4.1-0.2,6.1-0.6l55.3,55.3
	c-4.7,5.4-7.6,12.4-7.6,20.1c0,16.8,13.7,30.5,30.5,30.5h13.1c16.8,0,30.5-13.7,30.5-30.5c0-9.9-4.8-18.8-12.1-24.3l53.9-53.9
	c4.2,2.2,9,3.5,14.1,3.5h13.1c16.8,0,30.5-13.7,30.5-30.5c0-11.4-6.3-21.3-15.5-26.5l56-56c4.5,2.6,9.8,4.2,15.4,4.2h13.1
	c16.8,0,30.5-13.7,30.5-30.5S483.785,84.87,466.885,84.87z M83.485,96.57c6.5,3.8,10.9,10.8,10.9,18.8s-4.4,15.1-10.9,18.8
	c4.1-5.2,6.5-11.7,6.5-18.8C90.085,108.27,87.585,101.77,83.485,96.57z M37.785,115.37c0-12,9.8-21.8,21.8-21.8s21.8,9.8,21.8,21.8
	s-9.8,21.8-21.8,21.8C47.585,137.17,37.785,127.47,37.785,115.37z M280.285,96.57c6.5,3.8,10.9,10.8,10.9,18.8s-4.4,15.1-10.9,18.8
	c4.1-5.2,6.5-11.7,6.5-18.8C286.885,108.27,284.385,101.77,280.285,96.57z M234.585,115.37c0-12,9.8-21.8,21.8-21.8
	c12,0,21.8,9.8,21.8,21.8s-9.8,21.8-21.8,21.8C244.385,137.17,234.585,127.47,234.585,115.37z M181.685,205.37
	c6.5,3.8,10.9,10.8,10.9,18.8s-4.4,15.1-10.9,18.8c4.1-5.2,6.5-11.7,6.5-18.8C188.185,217.17,185.685,210.57,181.685,205.37z
	 M135.885,224.27c0-12,9.8-21.8,21.8-21.8s21.8,9.8,21.8,21.8s-9.8,21.8-21.8,21.8S135.885,236.27,135.885,224.27z M254.985,351.27
	c-12,0-21.8-9.8-21.8-21.8s9.8-21.8,21.8-21.8c12,0,21.8,9.8,21.8,21.8C276.785,341.57,266.985,351.27,254.985,351.27z
	 M289.885,329.57c0,8-4.4,15.1-10.9,18.8c4.1-5.2,6.5-11.7,6.5-18.8c0-7.1-2.5-13.7-6.5-18.8
	C285.485,314.47,289.885,321.47,289.885,329.57z M278.385,300.87c-3.2-1.2-6.7-1.8-10.4-1.8h-13.1c-6,0-11.5,1.7-16.2,4.7l-53-53
	c9.2-5.3,15.5-15.2,15.5-26.5c0-9.8-4.7-18.6-11.9-24.2l56.2-56.2c3.4,1.3,7,2,10.9,2h13.1c2,0,4-0.2,6-0.6l57.4,57.4
	c-5.5,5.5-8.9,13.1-8.9,21.5c0,8.6,3.5,16.3,9.2,21.8L278.385,300.87z M354.485,246.07c-12,0-21.8-9.8-21.8-21.8s9.8-21.8,21.8-21.8
	s21.8,9.8,21.8,21.8C376.285,236.27,366.485,246.07,354.485,246.07z M389.285,224.27c0,8-4.4,15.1-10.9,18.8
	c4.1-5.2,6.5-11.7,6.5-18.8s-2.5-13.7-6.5-18.8C384.885,209.17,389.285,216.17,389.285,224.27z M453.885,137.17
	c-12,0-21.8-9.8-21.8-21.8s9.8-21.8,21.8-21.8s21.8,9.8,21.8,21.8S465.885,137.17,453.885,137.17z M477.785,134.27
	c4.1-5.2,6.5-11.7,6.5-18.8s-2.5-13.7-6.5-18.8c6.5,3.8,10.9,10.8,10.9,18.8S484.285,130.47,477.785,134.27z"/>
<g>
</g>
<g>
</g>
<g>
</g>
<g>
</g>
<g>
</g>
<g>
</g>
<g>
</g>
<g>
</g>
<g>
</g>
<g>
</g>
<g>
</g>
<g>
</g>
<g>
</g>
<g>
</g>
<g>
</g>
</svg>
