<svg id="b0225cde-a2d2-4693-8ce5-502a1e8a6144" xmlns="http://www.w3.org/2000/svg" viewBox="0 0 1077.38 752.86"><defs><style>.cls-1{fill:#5333ed;}.cls-2,.cls-9{opacity:0.2;}.cls-3{fill:#3f3d56;}.cls-4,.cls-7{fill:#6c63ff;}.cls-11,.cls-5,.cls-7{opacity:0.1;}.cls-5,.cls-7,.cls-9{isolation:isolate;}.cls-6{fill:#3a3768;}.cls-8{fill:#a8a8a8;}.cls-10{fill:#fbbebe;}</style></defs><title>S</title><path class="cls-1" d="M669.19,296.18c-27.6-15.6-69.3-35.1-121.2-35.1-30.6,0-54,8.4-54,27.3,0,23.7,42.9,26.1,85.8,34.5l13.5,2.7c86.7,16.8,130.8,58.5,130.8,123,0,106.2-89.7,145.5-179.1,145.5-75.3,0-143.7-18-191.7-52.2l55.8-93c33.3,20.1,73.5,43.2,137.4,43.2,30.6,0,53.1-8.4,53.1-29.1,0-21.9-26.1-25.8-78.3-34.8l-15.9-2.7c-96.6-16.5-136.8-58.2-134.7-132.6,2.1-80.4,69.6-134.1,170.4-134.1,54.9,0,104.4,5.7,177.3,44.1Z"/><g class="cls-2"><path class="cls-3" d="M119.43,670.84a46.92,46.92,0,0,0-.43,7.86q26.15.42,52.5,1.75c.12-.68.24-1.38.34-2.09a41.65,41.65,0,0,0-2.45-21.73c-3.62-8.83-10.37-15.14-18.82-16.35s-16.69,2.94-22.64,10.36A41.7,41.7,0,0,0,119.43,670.84Z"/><ellipse class="cls-3" cx="151.32" cy="631.04" rx="34.65" ry="26.48" transform="translate(-494.69 692.51) rotate(-81.95)"/><ellipse class="cls-3" cx="157.7" cy="590.75" rx="34.66" ry="26.48" transform="translate(-449.48 662.8) rotate(-81.82)"/><ellipse class="cls-3" cx="163.73" cy="548.83" rx="34.66" ry="26.48" transform="translate(-402.81 632.8) rotate(-81.82)"/><ellipse class="cls-3" cx="169.75" cy="506.89" rx="34.66" ry="26.48" transform="translate(-356.14 602.8) rotate(-81.82)"/><path class="cls-4" d="M309.09,234a127.63,127.63,0,0,0,11.82-13l-67.22-21.17,74.39,11.26A127.05,127.05,0,0,0,344.77,112L237.4,149.51,339.28,95A126.83,126.83,0,1,0,111.76,205.67a127.11,127.11,0,0,0-17.61,20.84l82.71,59.28L86.15,240.11a126.9,126.9,0,0,0,3.3,120.79,126.82,126.82,0,1,0,197.33,28.35A126.83,126.83,0,0,0,309.09,234Z"/><path class="cls-5" d="M73.74,279.43A126.37,126.37,0,0,0,89.45,360.9a126.82,126.82,0,1,0,197.33,28.35C306.69,370.31,75.77,265.34,73.74,279.43Z"/></g><path class="cls-6" d="M.19,493.91c0,98.38,61.72,178,138,178"/><path class="cls-4" d="M138.19,671.91c0-99.49,68.88-180,154-180"/><path class="cls-4" d="M50.19,502.83c0,93.45,39.36,169.08,88,169.08"/><path class="cls-6" d="M138.19,671.91c0-127.13,79.61-230,178-230"/><ellipse class="cls-7" cx="132.2" cy="700.12" rx="34.31" ry="5.8"/><path class="cls-8" d="M109.16,673.16s19.57-.6,25.47-4.8,30.1-9.21,31.56-2.48,29.42,33.5,7.32,33.68-51.34-3.44-57.23-7S109.16,673.16,109.16,673.16Z"/><path class="cls-9" d="M173.91,697.22c-22.1.17-51.34-3.45-57.23-7-4.48-2.73-6.27-12.53-6.87-17h-.65s1.24,15.79,7.12,19.37,35.14,7.21,57.23,7c6.38,0,8.58-2.32,8.46-5.68C181.08,695.91,178.69,697.18,173.91,697.22Z"/><ellipse class="cls-7" cx="560.87" cy="720.62" rx="511" ry="16.99"/><path class="cls-10" d="M818.59,473.29c.3,4,1.42,8.74,5.2,10.12a9.74,9.74,0,0,0,5.56-.09,23.6,23.6,0,0,0,12.34-7.07c3.14-3.66,4.72-8.83,3.39-13.46-1.26-4.42-4.83-7.72-7.34-11.57-2.93-4.49-3.87-9.57-5.91-14.39C815.69,438.38,817.69,461.27,818.59,473.29Z"/><path class="cls-3" d="M801.59,280.51c-2.15,7,5.47,14.62,7.93,21.5s5.77,13.5,7.1,20.7c.91,5,.86,10,1.22,15.05.66,9.45,2.76,18.72,5,27.91q4.75,19.92,10.17,39.67a147.78,147.78,0,0,1,4.23,18.23,70.07,70.07,0,0,1-.08,20.09,25.65,25.65,0,0,0-19.08,1.75,56.78,56.78,0,0,1-7.25-23.59,123.36,123.36,0,0,1,.14-14.77c.64-13.91-5.39-27.84-5.59-41.76a78.88,78.88,0,0,0-1.14-14.4c-.66-3.27-.6-9.39-1.31-12.65-1.13-5.18,3.73-7.57,3.46-12.88l-1.48-29C804.6,291.28,799.5,285.05,801.59,280.51Z"/><path class="cls-5" d="M801.59,280.51c-2.15,7,5.47,14.62,7.93,21.5s5.77,13.5,7.1,20.7c.91,5,.86,10,1.22,15.05.66,9.45,2.76,18.72,5,27.91q4.75,19.92,10.17,39.67a147.78,147.78,0,0,1,4.23,18.23,70.07,70.07,0,0,1-.08,20.09,25.65,25.65,0,0,0-19.08,1.75,56.78,56.78,0,0,1-7.25-23.59,123.36,123.36,0,0,1,.14-14.77c.64-13.91-5.39-27.84-5.59-41.76a78.88,78.88,0,0,0-1.14-14.4c-.66-3.27-.6-9.39-1.31-12.65-1.13-5.18,3.73-7.57,3.46-12.88l-1.48-29C804.6,291.28,799.5,285.05,801.59,280.51Z"/><path class="cls-10" d="M728.57,258a11.16,11.16,0,0,0,2.29,4.62,256.93,256.93,0,0,0,34.44,39,18.63,18.63,0,0,0,3.23-4.55,68.84,68.84,0,0,0,8.41-34.6c-5.79-1.86-12.34-4.46-14.2-10.24-1.46-4.56.51-10-2.08-14.06-3.66-5.72-19.24-6.46-24.25-2.3-3.27,2.72-2.1,5.26-3.14,8.94C732.12,248.86,727.93,253.75,728.57,258Z"/><path class="cls-5" d="M728.57,258a11.16,11.16,0,0,0,2.29,4.62,256.93,256.93,0,0,0,34.44,39,18.63,18.63,0,0,0,3.23-4.55,68.84,68.84,0,0,0,8.41-34.6c-5.79-1.86-12.34-4.46-14.2-10.24-1.46-4.56.51-10-2.08-14.06-3.66-5.72-19.24-6.46-24.25-2.3-3.27,2.72-2.1,5.26-3.14,8.94C732.12,248.86,727.93,253.75,728.57,258Z"/><path class="cls-3" d="M733.77,720.29a13.37,13.37,0,0,0,5.48,2.3,183.6,183.6,0,0,0,58.2,4.79c2.6-.2,6.08-1.6,5.44-4.13s-4-2.22-6.3-2.93-3.8-2.41-5.41-4c-6-6-13.27-10.54-20.42-15.08a18.68,18.68,0,0,0-5.75-2.78c-2.48-.56-5.06-.09-7.55.39-6.3,1.19-18.32,1-23.3,5.66C730.17,708.21,729.58,716.63,733.77,720.29Z"/><path class="cls-3" d="M806.84,715.3c0,1.55.17,3.29,1.36,4.29a5,5,0,0,0,3.23.87,22.53,22.53,0,0,0,19.76-12l28-3.27c5.3-.62,10.7-1.26,15.56-3.46,5.75-2.59,10.34-7.17,14.8-11.64a5.89,5.89,0,0,0,1.72-2.48c.47-1.77-.88-3.62-2.57-4.32a10.25,10.25,0,0,0-5.41-.29c-13.67,1.88-27.39,8-40.76,4.59-3.28-.83-6.52-2.24-9.89-2a20.2,20.2,0,0,0-5.29,1.42c-4.35,1.6-17.35,3.86-20.23,7.55S806.84,710.9,806.84,715.3Z"/><path class="cls-6" d="M736.06,402.65c-4,6.24-12.42,7.59-18.31,12.06-9,6.87-10.59,19.67-11.1,31-.36,7.85-.57,15.8,1.17,23.46,1.21,5.34,3.35,10.41,5,15.65,3.5,11.36,4.47,23.34,5,35.23,1.38,30,.16,60.18,4,90,1.1,8.52,2.62,17,3.45,25.55,2.76,28.32-1.91,57.52,5.67,84.94a44.12,44.12,0,0,1,31.75-14.22c2.51,0,5.12.15,7.42-.86s4.11-3.69,3.16-6a19.28,19.28,0,0,0-2-2.83c-3.3-5,2.32-12.08-.09-17.59-.92-2.11-2.94-3.68-3.52-5.92-.63-2.42.59-4.9.93-7.38.67-5-2.2-9.65-3.69-14.45-2.25-7.25-1.35-15-.57-22.59a641.93,641.93,0,0,0,3.4-74.66c-.22-16.87-1.06-34.1,3.8-50.26A127.85,127.85,0,0,1,794.65,533c3.88,6.62,7.23,13.68,8.52,21.24,1,5.54.76,11.21.57,16.84l-2.88,86.3c-.59,17.39-1.09,35.3,4.95,51.63,15.32-8.17,31-16,46.33-24.21-.26-5.66-7.85-7.72-10.66-12.64a15.74,15.74,0,0,1-1.59-6.59c-1.95-23.38,2.83-46.74,7.24-69.78,1.68-8.78,3.31-17.62,3.31-26.56,0-14.18-4.16-28-8.44-41.5-4.54-14.32-9.29-28.57-14-42.82-3-9.15-6.1-18.31-9.91-27.17-3.61-8.37-7.89-16.47-11-25-4.93-13.78-6.61-28.47-8.27-43C778,393.88,756.84,398.51,736.06,402.65Z"/><circle class="cls-10" cx="746.54" cy="219.14" r="29.22"/><path class="cls-4" d="M757.46,289.78l-2.12-15.84a9.71,9.71,0,0,0-5.06-8.56l-20.36-14.87c-1-.76-2.38-1.56-3.53-1a3.37,3.37,0,0,0-1.42,2.07c-3.21,9.51-1.23,19.86-.1,29.83.94,8.31,1.26,16.68,1.58,25a186.54,186.54,0,0,1,0,22.68c-1.11,13.08-5,26.25-2.39,39.11,1.71,8.51,4.75,16.42,5.46,25.08.48,6,.33,12.1,2.23,17.79,7-3,14.92-2.68,22.54-2.27l18.46,1a34.18,34.18,0,0,0,7.7-.18,26,26,0,0,0,8.06-3.16,55.29,55.29,0,0,0,16.86-14.7c-3.12-15.07-.1-30.63-2.17-45.88-1.2-8.79-4.17-17.25-5.57-26-1.73-10.8-1-22-4.15-32.49A93.29,93.29,0,0,0,786.85,272a28.43,28.43,0,0,0-12.72-12.95,6.93,6.93,0,0,0-3.33-.85c-2.95.16-4.77,3.28-5.58,6.12-1,3.41-1.29,7-2.06,10.41C762,279.77,760.36,285.57,757.46,289.78Z"/><path class="cls-3" d="M697.57,478.29c3.9,4.11,11,3.1,15.52-.29,9.85-7.36,10.76-21.47,11.3-33.75.19-4.41.49-9,2.56-12.86,3.17-6,9.71-9.1,15.15-13.08,12.9-9.45,20.48-25,22.74-40.79s-.33-32-4.69-47.37c-7.54-26.57-20.24-51.34-33.13-75.76a5.46,5.46,0,0,0-1.8-2.29c-2.62-1.63-5.46,1.58-7.25,4.09-6.07,8.51-16.07,13.06-25.23,18.09s-18.53,11.73-21.3,21.8c-1.86,6.76-.41,13.93,1,20.78s6.34,12.29,10.07,18.06a176,176,0,0,1,11.68,19.89,37.29,37.29,0,0,1,3,8.07,47.87,47.87,0,0,1,.79,10c.22,20.72.43,41.51-2.08,62.09-1.41,11.63-3.69,23.31-2.65,35C693.53,473.14,695.36,475.94,697.57,478.29Z"/><path class="cls-10" d="M722.27,439.66c4.17,1.87,8.37,3.79,12.88,4.53s9.42.14,13-2.64,5.45-8.08,3.41-12.16a61.56,61.56,0,0,0,9.6-.45c1.82-.24,4-.94,4.32-2.75.33-2.13-2.24-3.4-4.31-4L750,419.11a29.6,29.6,0,0,0-16.41-1.23l-16.92,2.63a3,3,0,0,0-1.28.4,3,3,0,0,0-1,1.68c-.82,2.6-4.61,9.84-3.31,12.41C712.17,437.17,719.94,438.51,722.27,439.66Z"/><path class="cls-3" d="M828.83,450.62A17.32,17.32,0,0,1,818,460.13a5.92,5.92,0,0,1-3.23.21c-2-.55-3.1-2.64-3.93-4.54-19.81-45.09-18.7-96.4-31.29-144-3.74-14.13-8.74-28.33-7.84-42.92.16-2.61.71-5.54,2.89-7,1.94-1.3,4.58-.95,6.71,0s4,2.5,6,3.56c3.31,1.69,7.16,2.17,10.34,4.08,4.72,2.84,7.13,8.24,9.24,13.32,4.51,10.85,9,22,9.36,33.76.76,22.84-9.37,44.79-4.09,67a133,133,0,0,0,4.08,12.94,392.93,392.93,0,0,1,13,46.81C829.8,446.06,829.93,448.13,828.83,450.62Z"/><path class="cls-6" d="M727.59,221.71c1.74-2.84,4.17-5.33,5.12-8.52.67-2.26.53-4.73,1.33-6.95,2-5.48,9-7.5,14.69-6.55s10.93,4,16.54,5.53c3.11.85,7.44.59,8.32-2.51.58-2.06-.82-4.11-2.14-5.8L754.89,175.7c-2.19.56-4.62,1.09-6.6,0-1.15-.62-2-1.74-3.28-2.09-3.45-1-6.34,4.31-9.8,3.38-1-.26-1.79-1-2.79-1.08-2.79-.23-3.84,4.39-6.63,4.62-1.16.1-2.27-.64-3.43-.53a4.37,4.37,0,0,0-2.59,1.61c-5.54,5.89-7.8,14.34-7.5,22.43s-1.09,15.91,2,23.38c1.37,3.25,4.12,7.09,7.48,6,0-4.4,4.1-8.79,4.15-13.18"/><g class="cls-11"><path d="M784.05,517.51a126.85,126.85,0,0,0-21.58-26.72c-4.86,16.16-4,33.39-3.8,50.26a641.93,641.93,0,0,1-3.4,74.66c-.78,7.55-1.68,15.34.57,22.59,1.49,4.8,4.36,9.47,3.69,14.45-.34,2.48-1.56,5-.93,7.38s2.6,3.81,3.52,5.92c2.41,5.51-3.21,12.56.09,17.59a19.28,19.28,0,0,1,2,2.83c1,2.32-.86,5-3.16,6s-4.91.84-7.42.86a44.19,44.19,0,0,0-26.14,9.11,117.36,117.36,0,0,0,3.41,18.1,44.11,44.11,0,0,1,31.79-14.22c2.51,0,5.12.15,7.42-.86s4.11-3.69,3.16-6a19.28,19.28,0,0,0-2-2.83c-3.3-5,2.32-12.08-.09-17.59-.92-2.11-2.94-3.68-3.52-5.92-.63-2.42.59-4.9.93-7.38.67-5-2.2-9.65-3.69-14.45-2.25-7.25-1.35-15-.57-22.59a641.93,641.93,0,0,0,3.4-74.66c-.22-16.87-1.06-34.1,3.8-50.26A122.47,122.47,0,0,1,784.05,517.51Z"/></g><g class="cls-11"><path d="M712.29,205v-4.14a31.25,31.25,0,0,0,0,3.21C712.28,204.36,712.29,204.67,712.29,205Z"/><path d="M765.27,201.22c-5.61-1.54-10.79-4.59-16.54-5.53S736,196.76,734,202.24c-.8,2.22-.66,4.69-1.33,6.95-1,3.19-3.38,5.68-5.12,8.52l-1.65-1.46c0,4.39-4.1,8.78-4.15,13.18-3.36,1.09-6.11-2.75-7.48-6a30.33,30.33,0,0,1-2.07-11.26c-.09,5.23,0,10.33,2.07,15.26,1.37,3.26,4.12,7.1,7.48,6,0-4.4,4.1-8.79,4.15-13.18l1.65,1.46c1.74-2.84,4.17-5.33,5.12-8.52.67-2.26.53-4.73,1.33-6.95,2-5.48,9-7.5,14.69-6.55s10.93,4,16.54,5.53c3.11.85,7.44.59,8.32-2.51a4.44,4.44,0,0,0-.4-3.12C771.8,201.85,768.06,202,765.27,201.22Z"/></g><path class="cls-3" d="M670.76,325.87A149.3,149.3,0,0,1,667.08,344l-7,28.53c-.75,3-1.51,6.16-1.17,9.27.46,4.19,2.84,7.9,5.25,11.36a226.87,226.87,0,0,0,49.53,51.44c-1.11-5.69,2.84-11,6.56-15.48s7.32-8.77,12.17-11.67Q714.24,400.29,697.2,382a18.65,18.65,0,0,1-3.06-3.95c-2.74-5.29,0-11.61,2.39-17.08,7.53-17.39,11.08-37.12,6.25-55.45-1.82-6.88-5-13.77-10.79-18-2.53-1.84-6-3.1-8.76-1.7a9.66,9.66,0,0,0-3,2.69C671.26,299.42,672.33,312.57,670.76,325.87Z"/><g class="cls-2"><path class="cls-3" d="M961.8,647.76a43.68,43.68,0,0,0,1.75,6.65q21.33-6.87,43.07-13c-.09-.6-.17-1.22-.28-1.84a36.63,36.63,0,0,0-7.79-17.36c-5.29-6.33-12.45-9.71-19.63-8.38s-12.76,7-15.61,14.84A37.43,37.43,0,0,0,961.8,647.76Z"/><ellipse class="cls-3" cx="977.82" cy="607.11" rx="22.64" ry="30.29" transform="translate(-82.86 160.25) rotate(-8.99)"/><ellipse class="cls-3" cx="971.52" cy="570.64" rx="22.64" ry="30.29" transform="matrix(0.99, -0.16, 0.16, 0.99, -77.23, 158.82)"/><ellipse class="cls-3" cx="965.21" cy="534.16" rx="22.64" ry="30.29" transform="matrix(0.99, -0.16, 0.16, 0.99, -71.61, 157.39)"/><ellipse class="cls-3" cx="958.91" cy="497.69" rx="22.64" ry="30.29" transform="translate(-65.99 155.95) rotate(-8.99)"/><path class="cls-4" d="M999.16,232.82a113.12,113.12,0,0,0,6.14-14l-60.21.94,63.36-11.17a113.08,113.08,0,0,0,1.88-47.46,111.72,111.72,0,0,0-14.78-39.43l-77.11,60.71,68.12-73.33c-24.08-29.18-62.3-44.76-101.74-37.5C825.92,82.43,786.6,140.11,797,200.41a110.76,110.76,0,0,0,34.48,63.31,113.46,113.46,0,0,0-8.72,22.15l82.92,26.38L819.9,299.34a113.6,113.6,0,0,0,.42,36.06,110.76,110.76,0,0,0,34.48,63.31,112.93,112.93,0,0,0-11.17,71.71C854,530.73,910.23,570.82,969.14,560s98.22-68.53,87.81-128.83a110.76,110.76,0,0,0-34.48-63.31,113,113,0,0,0,11.22-71.71A110.62,110.62,0,0,0,999.16,232.82Z"/><path class="cls-5" d="M820.32,335.4a110.76,110.76,0,0,0,34.48,63.31,112.93,112.93,0,0,0-11.17,71.71C854,530.73,910.23,570.82,969.14,560s98.22-68.53,87.81-128.83a110.76,110.76,0,0,0-34.48-63.31C1033.56,346.63,818.21,323.15,820.32,335.4Z"/></g><path class="cls-6" d="M909.19,564.41c0,52.31,32.81,94.64,73.37,94.64"/><path class="cls-4" d="M982.56,659.05c0-52.9,36.62-95.7,81.87-95.7"/><path class="cls-4" d="M935.77,569.16c0,49.68,20.93,89.89,46.79,89.89"/><path class="cls-6" d="M982.56,659.05c0-67.59,42.32-122.28,94.63-122.28"/><ellipse class="cls-7" cx="974.08" cy="669.31" rx="18.68" ry="3.16"/><path class="cls-8" d="M961.54,654.64s10.65-.33,13.86-2.62,16.39-5,17.19-1.35,16,18.24,4,18.34-28-1.88-31.15-3.83S961.54,654.64,961.54,654.64Z"/><path class="cls-9" d="M996.78,667.73c-12,.1-27.94-1.87-31.15-3.83-2.44-1.48-3.41-6.82-3.74-9.28h-.35s.67,8.59,3.88,10.54,19.12,3.92,31.15,3.83c3.47,0,4.67-1.27,4.6-3.1C1000.69,667,999.37,667.71,996.78,667.73Z"/></svg>