<svg xmlns="http://www.w3.org/2000/svg" viewBox="0 0 80 80"><radialGradient id="a" cx=".09" cy="80.344" r=".147" gradientTransform="matrix(226.3741 0 0 -226.3741 3.32 18242.387)" gradientUnits="userSpaceOnUse"><stop offset="0" stop-color="#212121"/><stop offset="1" stop-color="#b8b8b8"/></radialGradient><path fill="url(#a)" d="M28.5 25h19.9c3.3 0 5.9 2.6 5.9 5.9v19.9c0 3.3-2.6 5.9-5.9 5.9H28.5c-3.3 0-5.9-2.6-5.9-5.9V30.9c0-3.3 2.6-5.9 5.9-5.9z"/><path fill="#2B2B2B" d="M28.5 25.4c-3 0-5.5 2.5-5.5 5.5v19.9c0 3 2.5 5.5 5.5 5.5h19.9c3 0 5.5-2.5 5.5-5.5V30.9c0-3-2.5-5.5-5.5-5.5H28.5zm0-.9h19.9c3.5 0 6.4 2.8 6.4 6.4v19.9c0 3.5-2.8 6.4-6.4 6.4H28.5c-3.5 0-6.4-2.8-6.4-6.4V30.9c0-3.5 2.9-6.4 6.4-6.4z"/><linearGradient id="b" gradientUnits="userSpaceOnUse" x1=".133" y1="80.32" x2=".133" y2="80.509" gradientTransform="matrix(211.4817 0 0 -156.6909 10.352 12641.215)"><stop offset="0" stop-color="#4b4b4b"/><stop offset="1" stop-color="#fff"/></linearGradient><path opacity=".81" fill="url(#b)" d="M28.6 26.1h19.5c2.8 0 5.1 2.3 5.1 5.1V43c0 2.8-2.3 5.1-5.1 5.1H28.6c-2.8 0-5.1-2.3-5.1-5.1V31.2c.1-2.8 2.3-5.1 5.1-5.1z"/><path fill="#EEE" d="M36.1 42l-2.9 1c-.4-1.2-1.2-1.7-2.5-1.7-1.4 0-2 .4-2 1.3 0 .4.1.6.4.9.3.2.8.5 1.7.6 1.5.3 2.6.6 3.3.9.7.3 1.3.8 1.8 1.5s.7 1.4.7 2.3c0 1.3-.5 2.5-1.5 3.4-1 1-2.5 1.4-4.5 1.4-1.5 0-2.8-.3-3.8-1-1.1-.7-1.7-1.7-2.1-3l3.2-.7c.4 1.4 1.4 2 3 2 .8 0 1.4-.2 1.8-.5.4-.3.6-.7.6-1.1 0-.4-.2-.8-.5-1-.4-.2-1-.5-2-.7-1.9-.4-3.2-.9-4-1.6-.8-.7-1.2-1.6-1.2-2.9 0-1.3.5-2.4 1.4-3.3.9-.9 2.2-1.3 3.9-1.3 2.5.1 4.4 1.2 5.2 3.5zm11.5 6.5h-7v.5c0 .8.2 1.4.6 1.7.4.4.9.6 1.5.6 1.1 0 1.7-.6 1.9-1.7l2.9.2c-.8 2.5-2.4 3.8-4.9 3.8-1.1 0-2-.2-2.7-.6-.8-.4-1.4-1.1-1.9-1.9-.5-.8-.7-1.8-.7-3 0-1.7.5-3.1 1.5-4.2s2.2-1.6 3.8-1.6c1.4 0 2.6.5 3.6 1.5.9 1 1.4 2.6 1.4 4.7zm-7-1.8h3.8c-.1-1.5-.7-2.2-1.8-2.2-1.2 0-1.9.7-2 2.2z"/><path fill="#232323" d="M30.5 38.8c-1.6 0-2.8.4-3.7 1.3-.9.8-1.3 1.9-1.3 3.1 0 1.2.4 2.1 1.1 2.7.8.6 2 1.1 3.9 1.5 1 .2 1.7.4 2.1.7.4.3.6.7.6 1.2s-.2.9-.7 1.3c-.4.3-1.1.5-1.9.5-1.6 0-2.7-.7-3.2-2l-2.7.6c.3 1.2 1 2 1.9 2.6 1 .7 2.2 1 3.7 1 1.9 0 3.4-.5 4.4-1.4 1-.9 1.4-2 1.4-3.2 0-.8-.2-1.5-.7-2.1-.4-.6-1-1.1-1.6-1.4-.7-.3-1.8-.6-3.2-.9-.9-.2-1.5-.4-1.8-.7-.3-.3-.5-.7-.5-1.1 0-1 .8-1.6 2.3-1.6 1.3 0 2.2.6 2.6 1.7l2.4-.8c-.7-2-2.4-3-5.1-3zm2.5 4.5l-.1-.2c-.4-1.1-1.1-1.6-2.3-1.6-1.2 0-1.8.4-1.8 1.1 0 .3.1.5.3.7.2.2.7.4 1.6.6 1.5.3 2.6.6 3.3.9.7.3 1.4.9 1.9 1.6.5.7.8 1.5.8 2.4 0 1.4-.5 2.6-1.6 3.6s-2.6 1.5-4.7 1.5c-1.5 0-2.9-.4-4-1.1-1.1-.7-1.8-1.8-2.2-3.2l-.1-.3 3.7-.8.1.2c.3 1.2 1.2 1.9 2.7 1.9.7 0 1.3-.1 1.6-.4.3-.3.5-.5.5-.9 0-.3-.1-.6-.4-.8-.3-.2-1-.4-1.9-.6-1.9-.4-3.3-.9-4.1-1.6-.9-.7-1.3-1.8-1.3-3.1 0-1.4.5-2.5 1.5-3.5 1-.9 2.3-1.4 4-1.4 3 0 4.9 1.2 5.8 3.6l.1.2-3.4 1.2zm12.9.7c-.9-.9-2.1-1.4-3.4-1.4-1.5 0-2.7.5-3.6 1.5-.9 1-1.4 2.3-1.4 4 0 1.1.2 2.1.7 2.9.5.8 1.1 1.4 1.8 1.8.7.4 1.6.6 2.6.6 2.3 0 3.8-1.1 4.6-3.3l-2.3-.2c-.3 1.1-1 1.7-2.1 1.7-.6 0-1.2-.2-1.6-.7-.5-.4-.7-1.1-.7-1.9v-.7h7c-.2-2-.7-3.4-1.6-4.3zm-5.1 5c0 .7.2 1.2.5 1.6.4.3.8.5 1.3.5.9 0 1.5-.5 1.7-1.5v-.2l3.4.3v.3c-.8 2.6-2.6 3.9-5.2 3.9-1.1 0-2.1-.2-2.9-.7-.8-.5-1.4-1.1-2-2-.5-.9-.8-1.9-.8-3.1 0-1.8.5-3.2 1.5-4.3 1-1.1 2.4-1.7 4-1.7 1.5 0 2.7.5 3.8 1.5 1.1 1 1.6 2.7 1.6 4.9v.3h-7c.1.1.1.2.1.2zm-.5-2.1v-.3c.2-1.6.9-2.5 2.3-2.5 1.3 0 2 .9 2.1 2.5v.3h-4.4zm3.9-.5c-.1-1.2-.6-1.7-1.6-1.7s-1.5.5-1.7 1.7h3.3z"/><linearGradient id="c" gradientUnits="userSpaceOnUse" x1="-.441" y1="80.238" x2="-.406" y2="80.315" gradientTransform="matrix(145.8345 0 0 -131.8838 107.916 10620.41)"><stop offset="0" stop-color="#26761e"/><stop offset="1" stop-color="#2cb134" stop-opacity=".996"/></linearGradient><path fill="url(#c)" d="M37.3 34.9l5.9 6.4 14.5-15-2-3.5-12.1 12.7-4.1-3.9z"/><radialGradient id="d" cx="-.655" cy="80.264" r=".073" gradientTransform="matrix(113.5031 0 0 -113.5031 117.897 9140.691)" gradientUnits="userSpaceOnUse"><stop offset="0" stop-color="#fff"/><stop offset="1" stop-color="#fff" stop-opacity="0"/></radialGradient><path fill="url(#d)" d="M37.5 34.4l5.9 4.3 13.8-13.4-1.4-2.5-12.1 12.9-4.1-3.7z"/><path d="M55.8 22.4l2.3 4-14.9 15.3-6.3-6.7 2.5-3.8 4.2 3.9 12.2-12.7zM43.2 40.9l14.2-14.7-1.7-3-12 12.6-4.2-3.8-2 2.9 5.7 6z"/></svg>