<svg id="Layer_1" data-name="Layer 1" xmlns="http://www.w3.org/2000/svg" xmlns:xlink="http://www.w3.org/1999/xlink" viewBox="0 0 893.7 609.39"><defs><style>.cls-1{fill:#5333ed;}.cls-12,.cls-2{fill:#6c63ff;}.cls-19,.cls-2,.cls-5{opacity:0.1;}.cls-2,.cls-25,.cls-5,.cls-9{isolation:isolate;}.cls-3{fill:#eaecf0;}.cls-4{fill:#3a3768;}.cls-6{fill:#efc6cd;}.cls-7{fill:#d48a9b;}.cls-8{fill:#dfe6f5;}.cls-9{opacity:0.15;}.cls-10{fill:#4c4c56;}.cls-11{fill:#d1d9ec;}.cls-13{fill:url(#linear-gradient);}.cls-14{fill:url(#linear-gradient-2);}.cls-15{fill:#d38884;}.cls-16{fill:#a36468;}.cls-17{fill:#444053;}.cls-18{fill:#67647e;}.cls-20{fill:#d3dae1;}.cls-21{fill:#fff;}.cls-22{fill:#d5e1f4;}.cls-23{fill:url(#linear-gradient-3);}.cls-24{fill:#efb7b9;}.cls-25{opacity:0.05;}.cls-26{opacity:0.7;}.cls-27{fill:#2e001e;}.cls-28{fill:#ff2bc2;}.cls-29{fill:#ea6c00;}.cls-30{fill:#fdad00;}.cls-31{fill:#fdd231;}.cls-32{fill:#feeeb7;}</style><linearGradient id="linear-gradient" x1="443.53" y1="-38.71" x2="443.53" y2="-38.71" gradientTransform="matrix(1, 0, 0, -1, -17.96, 579.97)" gradientUnits="userSpaceOnUse"><stop offset="0" stop-color="gray" stop-opacity="0.25"/><stop offset="0.54" stop-color="gray" stop-opacity="0.12"/><stop offset="1" stop-color="gray" stop-opacity="0.1"/></linearGradient><linearGradient id="linear-gradient-2" x1="266.77" y1="63.51" x2="456.64" y2="63.51" xlink:href="#linear-gradient"/><linearGradient id="linear-gradient-3" x1="-1298.78" y1="-57.38" x2="-1298.78" y2="168.47" gradientTransform="matrix(1, 0, 0, -1, 1979.37, 579.97)" xlink:href="#linear-gradient"/></defs><title>sketch</title><path class="cls-1" d="M51.73,144c38-45.2,105.2-100.8,214.79-100.8,119.2,0,198.4,70.8,198.4,181.59,0,65.2-24,110.8-93.2,176.4l-80,76h184.4V613.6H83.33V498L273.72,318.4c25.2-24,38-48.8,38-74.8,0-36-28.4-58.79-63.6-58.79-47.19,0-81.59,29.19-112.79,61.19Z" transform="translate(-51.73 -43.21)"/><path class="cls-2" d="M939.21,586.16a58.34,58.34,0,0,1-16.1,19.32c-1,.77-1.92,1.5-2.91,2.22-1.33.94-2.69,1.85-4.09,2.75-10.84,6.88-23.54,11.59-35.93,15q-5.07,1.39-10.18,2.63c-2.87.7-5.74,1.34-8.61,1.95l-3.28.7c-1.09.23-2.34.47-3.5.7l-1.66.31c-32.07,5.92-64.57,7-97.3,5.56l-1.55-.08-2.49-.12q-10-.52-20-1.33l-2.52-.2L728,635.5q-5.6-.46-11.2-1-7.37-.71-14.77-1.55l-.64-.07-.52-.06h0c-17.6-2-35.25-4.36-52.92-6.8l-2.5-.35L641,625l-3.78-.52h0l-1.12-.16q-9-1.25-17.9-2.47l-1-.14c-11.2-1.53-22.47-3-33.69-4.35l-1.47-.18h0q-6.89-.81-13.78-1.56l-3.5-.37-4.65-.47c-12.91-1.28-25.8-2.3-38.67-2.94q-9.27-.45-18.6-.7-7.69-.17-15.4-.2-10.44,0-20.93.12H465c-9.85.16-19.72.44-29.6.78l-1.78,0H433c-21,.74-42,1.73-62.94,2.44l-5.12.17h-.74q-10.92.35-21.82.54h-4.32l-3.25,0c-3.38,0-6.74,0-10.1,0h-4.13c-12.33,0-24.61-.3-36.82-.94l-1.36-.08a467.27,467.27,0,0,1-70.22-8.73c-2.38-.5-4.76-1-7.14-1.57a327.35,327.35,0,0,1-46.76-14.22c-7.17-2.8-14.38-6-19.83-11.51-13.83-14-8.64-41.42,9.36-49.39,14.08-6.24,30.57-1.16,45.71-4a21.72,21.72,0,0,0,2.75-.7,37.48,37.48,0,0,0,5.6-2.31c.62-.3,1.23-.63,1.86-1a46.79,46.79,0,0,0,4.14-2.53,63.61,63.61,0,0,0,6.3-4.78c.89-.76,1.75-1.54,2.59-2.35a49.57,49.57,0,0,0,7.64-9.15,30.52,30.52,0,0,0,2.1-3.95,22.61,22.61,0,0,0,1.71-5.42c.88-5.19-.55-10.26-5.52-14.54a14.29,14.29,0,0,0-1.4-1.06,20.89,20.89,0,0,0-3-1.76l-1.31-.59c-6.4-2.69-14.66-3.73-21.61-5.6h0a36.88,36.88,0,0,1-6.19-2.15c-1.27-.58-2.53-1.2-3.77-1.84h0l-.33-.19h0a84.14,84.14,0,0,1-27.3-22.4,73,73,0,0,1-5.08-7.37c-.47-.77-.92-1.56-1.36-2.36-12.3-22.19-13.56-50.62-.77-72.44a70.18,70.18,0,0,1,5.18-7.6c.62-.8,1.26-1.58,1.91-2.35C169.79,335.93,187.29,326.19,205,319c23.72-9.67,48.55-15.79,73.85-19.81q7.71-1.23,15.4-2.2c21.49-2.74,43.23-4.2,64.82-5.3q30.3-1.55,60.85-2,10.35-.14,20.72-.11,23.38,0,46.75.9,7.69.28,15.4.7,19.74,1,39.42,2.8,9.45.86,18.85,1.88c47.77,5.22,94.85,14.08,140.3,27.85q7.74,2.34,15.4,4.9A593.68,593.68,0,0,1,773,350.35l5.2,2.35q17.2,7.89,33.93,17a374.59,374.59,0,0,1,42.42,26.6q7.92,5.81,15.4,12.12a221.6,221.6,0,0,1,24.58,24.25c.67.78,1.34,1.56,2,2.35q5.13,6.15,9.73,12.75c15,21.53,25,46.15,32.46,71.31C945.24,541.06,949.59,565.7,939.21,586.16Z" transform="translate(-51.73 -43.21)"/><path class="cls-2" d="M929.8,511.07H870V435h26.6c-.66-.79-1.33-1.57-2-2.35H870V408.4q-7.47-6.3-15.4-12.13v36.4H716.76v-80h61.47L773,350.3H716.76V328.55q-7.69-2.55-15.4-4.9v26.6H504.6l-.46-.45,56.91-54q-9.4-1-18.86-1.88L502.78,331.3V291.12q-7.71-.4-15.4-.7v43.46l-46.75-44.36q-10.36,0-20.73.12l63.4,60.16-.47.45H294.23V297q-7.71,1-15.4,2.2v51.1H157.61c-.65.77-1.29,1.55-1.91,2.35H278.81v80H151.27c.43.79.88,1.58,1.35,2.35H278.81v76.07H216.74c-.84.81-1.7,1.59-2.59,2.35h64.66v77.84q7.71,1.1,15.4,2.3V513.42H487.36V611q7.71,0,15.4.2V513.42H701.35v119.4l.63.07q7.39.83,14.78,1.54v-121H854.58v118c1.18-.22,2.36-.45,3.5-.7s2.19-.44,3.28-.7c2.87-.61,5.75-1.26,8.62-2V513.42h60.28C930.11,512.63,930,511.85,929.8,511.07Zm-442.44,0H294.23V435H487.36Zm0-78.4H294.23v-80h190.4l2.71,2.14Zm214,78.4H502.78V435H701.35Zm0-78.4H502.78v-80H701.35Zm153.23,78.4H716.76V435H854.58Z" transform="translate(-51.73 -43.21)"/><path class="cls-3" d="M338.6,618.47c0,.07-.06.15-.08.23h0a.55.55,0,0,1,.09-.23Z" transform="translate(-51.73 -43.21)"/><path class="cls-3" d="M342.25,615.12h-4.32l-3.25,0-.36-3.69L334,608l-1.52-16-.05-.49v-.22L332,586.8l6.54-2.45.8,6.52.05.48v.06L341,604.64l.5,4.06.28,2.36.25,2v.07Z" transform="translate(-51.73 -43.21)"/><polygon class="cls-4" points="314 575.25 314.07 575.48 313.56 575.48 313.48 575.25 314 575.25"/><path class="cls-4" d="M425.57,618.68Z" transform="translate(-51.73 -43.21)"/><path class="cls-4" d="M467.11,526.24v.3S461,543.22,459,557.46c-.13.93-.25,1.86-.34,2.8s-.17,2-.21,2.89c-.06,1.1-.07,2.16,0,3.17v.7c0,.47,0,1,.07,1.45s.07,1,.11,1.52.09,1,.14,1.47c1.5,15.4,7.22,37.94,7.22,37.94s.19.61.44,1.65h-1.59c-9.85.16-19.72.44-29.59.77l-1.78.06h-.59c-21,.74-42,1.73-62.94,2.44l-5.12.16h-.74q-10.92.36-21.82.54h-1.93a12.83,12.83,0,0,1,1.7-1.91,12.24,12.24,0,0,1,1.71-1.33,38.64,38.64,0,0,1,10.75-4.61,8.51,8.51,0,0,1,2.46-.3l4.9.1h.75l7.52.14,64.48,1.28h.16l.46-.09a11.3,11.3,0,0,0,2.18-.77A7.66,7.66,0,0,0,442,601.6c0-.22,0-.45.07-.7a8.68,8.68,0,0,0,0-1,3.25,3.25,0,0,0-.06-.75c-.05-.26-.07-.52-.12-.79-1.55-8.68-4.2-35.42-4.2-35.42V563s0-1.14.07-3.06v-.88c0-.43,0-.89.07-1.4,0-.3.05-.61.07-.93,0-.47.07-1,.12-1.46a.14.14,0,0,1,0-.09c0-.32.05-.64.08-1,0-.49,0-.07,0-.1,1-10.33,4.33-26.67,14.7-32.73,4.86-2.84,8.08-3.42,10.21-2.86,3.09.81,3.87,4,4,6.13v.4A9.55,9.55,0,0,1,467.11,526.24Z" transform="translate(-51.73 -43.21)"/><path class="cls-5" d="M338.6,618.47c0,.07-.06.15-.08.23h0a.55.55,0,0,1,.09-.23Z" transform="translate(-51.73 -43.21)"/><polygon class="cls-5" points="314 575.25 314.07 575.48 313.56 575.48 313.48 575.25 314 575.25"/><path class="cls-5" d="M425.57,618.68Z" transform="translate(-51.73 -43.21)"/><path class="cls-5" d="M467.11,526.24v.21a190.79,190.79,0,0,0-7.43,26.95h0c-.17.93-.32,1.83-.46,2.7-.07.45-.14.9-.2,1.35-.13.93-.25,1.87-.34,2.8s-.17,2-.21,2.89c-.06,1.1-.07,2.16,0,3.18v.7c0,.47,0,1,.07,1.45s.07,1,.11,1.51.09,1,.14,1.47.1,1,.15,1.46c.23,2,.51,4.06.83,6.18,2.19,14.25,6.24,30.23,6.24,30.23s.2.64.45,1.72h-1.58c-9.85.16-19.72.44-29.6.78l-1.78,0h-.58c-21,.75-42,1.73-62.95,2.44l-5.12.17h-.74q-10.92.35-21.82.54h-2a11,11,0,0,1,1.75-2,10.65,10.65,0,0,1,1.72-1.35,39,39,0,0,1,10.74-4.61,9.26,9.26,0,0,1,2.46-.3l4.9.1h.76l7.53.15,64.54,1.27h.11a1.81,1.81,0,0,0,.5-.1,11.22,11.22,0,0,0,2.19-.79,7.64,7.64,0,0,0,4.53-5.82c0-.22.06-.45.07-.7a8.68,8.68,0,0,0,0-1,3.89,3.89,0,0,0-.05-.75c-.06-.26-.07-.57-.12-.86-1.56-8.69-4.2-35.43-4.2-35.43s0-1.14.06-3.06v-.88c0-.43.05-.89.08-1.4,0-.3,0-.61.06-.93s.08-.95.12-1.46V555c0-.31.06-.64.08-1,0-.49,0-.07,0-.11.13-1.29.3-2.67.51-4.12,1.45-10.14,5.09-23.37,14.17-28.7,4.74-2.8,7.91-3.39,10-2.91,3.28.75,4.06,4.13,4.2,6.25v.41A8.93,8.93,0,0,1,467.11,526.24Z" transform="translate(-51.73 -43.21)"/><path class="cls-4" d="M338.6,618.47c0,.07-.06.15-.08.23h0a.55.55,0,0,1,.09-.23Z" transform="translate(-51.73 -43.21)"/><polygon class="cls-4" points="314 575.25 314.07 575.48 313.56 575.48 313.48 575.25 314 575.25"/><path class="cls-4" d="M425.57,618.68Z" transform="translate(-51.73 -43.21)"/><path class="cls-4" d="M465.32,525.64s-9.13,25-8.69,39.9,7.57,43,7.57,43,.31,1,.64,2.56c-9.85.16-19.72.44-29.6.78l-1.78.05h-.58c-21,.75-42,1.73-62.95,2.44l-5.12.17h-.74q-10.92.35-21.82.54h-4.32a12.46,12.46,0,0,1,3.84-4l.19-.14a39.05,39.05,0,0,1,10.74-4.51,8.84,8.84,0,0,1,2.45-.29l6.47.12h.76l7.79.16L433,607.64a10.29,10.29,0,0,0,2.6-.85,7.6,7.6,0,0,0,.8-.42h0a8.51,8.51,0,0,0,2.1-1.72,8,8,0,0,0,1.62-7c-1.56-8.69-4.2-35.43-4.2-35.43s-.45-32.53,15.14-41.67c6.3-3.69,9.85-3.56,11.83-2.1l.17.13C465.78,520.78,465.32,525.64,465.32,525.64Z" transform="translate(-51.73 -43.21)"/><path class="cls-3" d="M214,586.89l-.25,2.61-1.53,16c-2.38-.49-4.76-1-7.14-1.56l1.79-14.57.6-4.95Z" transform="translate(-51.73 -43.21)"/><polygon class="cls-6" points="117.42 538.5 155.54 457.37 309.1 469.34 323.26 538.5 117.42 538.5"/><polygon class="cls-7" points="117.42 545.58 117.42 538.5 323.26 538.5 323.26 548.85 117.42 545.58"/><path class="cls-8" d="M227.19,569.86l92.1,1.88a1.29,1.29,0,0,0,1.3-1.25,1.59,1.59,0,0,0-.06-.43l-14.36-38.72-62-1.18-18.35,37.56a1.52,1.52,0,0,0,.79,2A1.42,1.42,0,0,0,227.19,569.86Z" transform="translate(-51.73 -43.21)"/><path class="cls-9" d="M227.19,569.86l92.1,1.88a1.29,1.29,0,0,0,1.3-1.25,1.59,1.59,0,0,0-.06-.43l-14.36-38.72-62-1.18-18.35,37.56a1.52,1.52,0,0,0,.79,2A1.42,1.42,0,0,0,227.19,569.86Z" transform="translate(-51.73 -43.21)"/><path class="cls-8" d="M226.45,568.24l93.05,2-12.65-38.31a3.17,3.17,0,0,0-2.94-2.17l-59.79-1.13Z" transform="translate(-51.73 -43.21)"/><path class="cls-10" d="M234.14,559.57,245.29,535a3,3,0,0,1,2.7-1.73H275.7a3,3,0,0,1,3,3v26.51a3,3,0,0,1-3,3h-.13l-38.87-2a3,3,0,0,1-2.81-3.11A3.05,3.05,0,0,1,234.14,559.57Z" transform="translate(-51.73 -43.21)"/><path class="cls-11" d="M288.79,556.46l.48-14a2.16,2.16,0,0,1,2.14-2.1h8.19a2.14,2.14,0,0,1,2.1,1.78l2.41,13.92a2.16,2.16,0,0,1-1.75,2.49c-.12,0-.23,0-.35,0l-11.08.09a2.14,2.14,0,0,1-2.14-2.14Z" transform="translate(-51.73 -43.21)"/><path class="cls-10" d="M180.29,465.41l30.88-2.58a2.1,2.1,0,0,1,2.2,1.24l29.2,66.09-16.3,36.58c.51-1.15.89,7.78-2.8,0L177.07,470C176.44,468.68,178.85,465.59,180.29,465.41Z" transform="translate(-51.73 -43.21)"/><path class="cls-9" d="M180.29,465.41l30.88-2.58a2.1,2.1,0,0,1,2.2,1.24l29.2,66.09-16.3,36.58c.51-1.15.89,7.78-2.8,0L177.07,470C176.44,468.68,178.85,465.59,180.29,465.41Z" transform="translate(-51.73 -43.21)"/><path class="cls-10" d="M180.29,465.41l32.45-4.15a2.1,2.1,0,0,1,2.2,1.24l29.2,66.09-17.67,39.65-47.83-99.83a2.08,2.08,0,0,1,1.65-3Z" transform="translate(-51.73 -43.21)"/><path class="cls-12" d="M188.39,470.05l23.46-3.65a2.11,2.11,0,0,1,2.28,1.29l24.57,60.1a1.92,1.92,0,0,1,0,1.54L227.4,552.84a1.89,1.89,0,0,1-2.52.91,1.91,1.91,0,0,1-.91-.91L186.8,473a2.11,2.11,0,0,1,1-2.8A2,2,0,0,1,188.39,470.05Z" transform="translate(-51.73 -43.21)"/><path class="cls-13" d="M425.57,618.68Z" transform="translate(-51.73 -43.21)"/><path class="cls-14" d="M438.68,605.48s-.48.79-1.19,2.1l-.06.11c-.63,1.12-1.4,2.59-2.19,4.2l-1.78.06h-.58c-21,.74-42,1.73-62.95,2.44l-5.12.16h-.74q-10.92.36-21.82.54h-4.32l-3.25,0q-5.06,0-10.1.05h-4c-12.33,0-24.61-.31-36.82-.94l-1.36-.08c2.4-5.22,6.69-13.78,10.18-16.52,2.69-2.1,22.05-4.43,39.85-6.14l1.87-.18h0l5-.46c6.81-.63,13-1.13,17.4-1.47l.4,0-2.29-7.7-3.33-11.2.95-9.41.08-.75h-.11a6.2,6.2,0,0,1-2.8-.35l-33.24-1.15h-.6L303,558.35h0c-6.85-.25-11.71-.43-11.9-.47a2.46,2.46,0,0,1-.59-.16,2.58,2.58,0,0,1-.81-.49,3.14,3.14,0,0,1-.7-.84h-.45l-1.81.12-.91.06c0-.09-.07-.19-.1-.28-.09-.28-.17-.53-.25-.8H285l-6.3-.13h-.11s-16.26,1.24-24.75-1.86h0c-3.11-1.13-5.18-2.85-5-5.42a5.8,5.8,0,0,1,.36-1.7c-2.73-5.11,10.61-14.42,20.77-11.85a17.86,17.86,0,0,0,8.44.35,10.84,10.84,0,0,0,4.2-1.91c.13-.09.24-.18.35-.27a5.25,5.25,0,0,0-.51-.28,7.5,7.5,0,0,0-2.22-.77l2.76-.81h0s9.8-.89,16.18-1.25h0c1.9-.1,3.5-.16,4.45-.13,4.2.12,12.39-2.89,12.74-3.81s4.08,0,4.08,0l3.27-1.28c3.27-1.26,5.14-3,5.14-4.27s2.92-2.65,2.92-2.65c1.32-2.21,3.9-4.58,6.61-6.68a80.1,80.1,0,0,1,6.59-4.56,131.39,131.39,0,0,1,2.8-13.47c1.23-4.14,5.08-7.2,6.46-8.2l.5-.33a36.49,36.49,0,0,0-1.54-5.13,3.69,3.69,0,0,0-.17-.42c-.14-.32-.28-.65-.43-1l-.22-.42c-.36.07-.7.14-1.08.18a24.09,24.09,0,0,1-26.7-17.24v0a23.5,23.5,0,0,1-.84-6.3,22.9,22.9,0,0,1,.8-6.05h0c.1-.42.23-.83.36-1.24a.58.58,0,0,1,0-.14c.06-.19.13-.39.2-.58a25.45,25.45,0,0,1-3.13.28h-.7a14.85,14.85,0,0,1-5.86-1h0a7.42,7.42,0,0,1-1.3-.7.1.1,0,0,1-.05,0,6.63,6.63,0,0,1-1.45-1.14,7.41,7.41,0,0,0,2.85-5c.19-1.51-.06-3.19.84-4.43a6.66,6.66,0,0,1,1.64-1.4c3.73-2.54,6.68-6,10.05-9s7.44-5.6,12-5.74c6.07-.19,11.42,4,17.44,4.84a48.56,48.56,0,0,1,5.55.62,19.24,19.24,0,0,1,5.64,2.86,14,14,0,0,1,4,3.42,11.83,11.83,0,0,1,1.64,3.91,43.19,43.19,0,0,1,1.4,9c.16,3.17,0,6.36.34,9.51a16.3,16.3,0,0,0,2.69,7.65h.09a8.75,8.75,0,0,0,.87,1.06c-.6.19-1.19.36-1.8.51a29.42,29.42,0,0,1-3.08.61,11.33,11.33,0,0,1-1.43.12,4.85,4.85,0,0,1-1-.1l.62.42,1.71,1.15h0l.64.42,1.3.86c.29-.86.7-1.09,1.17-1,.95-.9,2.37,1,2.37,1,.83,1.6,3.07,3.18,5.05,4.36,1.17.69,2.37,1.31,3.59,1.88,26.16,15.59,24.5,38.91,26,40.76s1.64,8.54,1.64,8.54,3.86,22.74,5.6,24.71.11,2.65,1.63,4.85,1.17,8.08,1.17,8.08,1,13.85,4.79,16.85c3.35,2.7,7.83,25.37,8.72,30Z" transform="translate(-51.73 -43.21)"/><path class="cls-15" d="M285.36,532.51s-3.64,5.72-13.93,3.08-23.9,7.33-20,12.24,28.94-1.4,28.94-1.4l9.61-1.95-.63-8Z" transform="translate(-51.73 -43.21)"/><path class="cls-5" d="M285.36,532.51s-3.64,5.72-13.93,3.08-23.9,7.33-20,12.24,28.94-1.4,28.94-1.4l9.61-1.95-.63-8Z" transform="translate(-51.73 -43.21)"/><path class="cls-16" d="M288.7,532.2l-4.46-.23-2.74.8s8.69,1.26,6.3,13l9.37-.57Z" transform="translate(-51.73 -43.21)"/><path class="cls-5" d="M288.7,532.2l-4.46-.23-2.74.8s8.69,1.26,6.3,13l9.37-.57Z" transform="translate(-51.73 -43.21)"/><path class="cls-17" d="M347.73,505.85s-12.24,7-15.68,12.82c0,0-2.85,1.4-2.85,2.63s-1.84,3-5,4.2L321,526.76s-3.66-.92-4,0-8.35,3.89-12.47,3.77-20.25,1.4-20.25,1.4a14.33,14.33,0,0,1,8.12,15.9l38.1-1.6,14.4-3.2,8.47-8.46Z" transform="translate(-51.73 -43.21)"/><path class="cls-5" d="M347.73,505.85s-12.24,7-15.68,12.82c0,0-2.85,1.4-2.85,2.63s-1.84,3-5,4.2L321,526.76s-3.66-.92-4,0-8.35,3.89-12.47,3.77-20.25,1.4-20.25,1.4a14.33,14.33,0,0,1,8.12,15.9l38.1-1.6,14.4-3.2,8.47-8.46Z" transform="translate(-51.73 -43.21)"/><path class="cls-15" d="M291.59,556.46l-5.39-.1-6.3-.14s-29.75,2.29-29.16-7.22,23.46-12.85,26.64-10.12c2.42,2.06,8,3.73,10.55,4.41l1.31.33Z" transform="translate(-51.73 -43.21)"/><path class="cls-5" d="M291.59,556.46l-5.39-.1c-2.14-7.39.35-11.46,1.76-13.05.81.22,1.31.33,1.31.33Z" transform="translate(-51.73 -43.21)"/><path class="cls-16" d="M295.23,556.87l-5.6.39-2.66.18c-3.66-10.75,2.25-15,2.25-15H291l2.86.34Z" transform="translate(-51.73 -43.21)"/><path class="cls-15" d="M363.06,485.5l-6.64,12.6s-1-12.77-4-18.78c-.75-1.54-1.64-2.63-2.66-3-2.8-.88,13.3-18.53,13.3-18.53a65.26,65.26,0,0,1,7.39,4.67c4.15,2.8,9.15,6.22,12.51,8.4C389.36,475,363.06,485.5,363.06,485.5Z" transform="translate(-51.73 -43.21)"/><path class="cls-17" d="M354.55,485.73s-5.34,3.43-6.82,8.46a140,140,0,0,0-2.87,14.07s2.41,21.62,3.67,22.64,6,22.65,6,22.65l4.62-3.09-6.07-27.22S357.14,488.26,354.55,485.73Z" transform="translate(-51.73 -43.21)"/><path class="cls-5" d="M354.55,485.73s-5.34,3.43-6.82,8.46a140,140,0,0,0-2.87,14.07s2.41,21.62,3.67,22.64,6,22.65,6,22.65l4.62-3.09-6.07-27.22S357.14,488.26,354.55,485.73Z" transform="translate(-51.73 -43.21)"/><polygon class="cls-16" points="326.03 490.75 299.37 490.75 303.69 448.69 326.03 448.69 326.03 490.75"/><path class="cls-18" d="M316,618.47h.32l-.6.23Z" transform="translate(-51.73 -43.21)"/><path class="cls-18" d="M366.14,599.31l-5.21,2-.7.26-18.77,7.22-7.17,2.75-9.74,3.74h-4c-12.33,0-24.61-.31-36.82-.94,2.36-5.19,6.5-13.49,9.87-16.17,2.64-2.1,21.47-4.37,38.85-6.08l6.4-.6.49,0c6.9-.63,13.15-1.14,17.5-1.49l.7-.06,5.48-.42.57-.57.7,3,.58,2.39Z" transform="translate(-51.73 -43.21)"/><path class="cls-5" d="M316,618.47h.32l-.6.23Z" transform="translate(-51.73 -43.21)"/><path class="cls-5" d="M366.14,599.31l-5.21,2-.7.26-18.77,7.22-7.17,2.75-9.74,3.74h-4c-12.33,0-24.61-.31-36.82-.94,2.36-5.19,6.5-13.49,9.87-16.17,2.64-2.1,21.47-4.37,38.85-6.08l6.4-.6.49,0c6.9-.63,13.15-1.14,17.5-1.49l.7-.06,5.48-.42.57-.57.7,3,.58,2.39Z" transform="translate(-51.73 -43.21)"/><path class="cls-18" d="M316,618.47h.32l-.6.23Z" transform="translate(-51.73 -43.21)"/><path class="cls-18" d="M338.6,618.47c0,.07-.06.15-.08.23h0a.55.55,0,0,1,.09-.23Z" transform="translate(-51.73 -43.21)"/><polygon class="cls-18" points="314.07 575.48 313.56 575.48 313.48 575.25 314 575.25 314.07 575.48"/><path class="cls-18" d="M370.6,592l-.43,14.41v.85l-.22,7.14-5.11.16h-.75q-10.92.36-21.82.54H338l-3.25,0q-5.06,0-10.1.05h-4c3.64-2.25,8.36-4.74,13.42-7.22,2.28-1.12,4.64-2.24,7-3.33,6.3-2.93,12.68-5.7,17.88-7.9l.67-.28c2-.85,3.84-1.62,5.4-2.26,3.37-1.4,5.52-2.24,5.66-2.3Z" transform="translate(-51.73 -43.21)"/><path class="cls-5" d="M323.85,532.79c1.31,2.73,2.66,5.51,4.82,7.64.35.34.94.65,1.25.28a.88.88,0,0,0,.13-.52,6.57,6.57,0,0,0-1.26-3.57c-.7-1.08-1.52-2.06-2.15-3.18s-1.33-3.28-2.73-3.57C322.11,529.49,323.45,532,323.85,532.79Z" transform="translate(-51.73 -43.21)"/><path class="cls-5" d="M370.45,462.48c-.1.35-.2.7-.32,1a23.57,23.57,0,0,1-17.68,15.78c-.75-1.54-1.64-2.63-2.66-3-2.8-.88,13.3-18.53,13.3-18.53A75,75,0,0,1,370.45,462.48Z" transform="translate(-51.73 -43.21)"/><path class="cls-15" d="M371.29,455.75a23.51,23.51,0,1,1,0-.1Z" transform="translate(-51.73 -43.21)"/><path class="cls-18" d="M356.76,490.75s-4.9,5.95-4.11,9.85h5.94l4.35-4.9Z" transform="translate(-51.73 -43.21)"/><path class="cls-5" d="M374.19,465.63l-18.69,25.7s4.81,6.86,7.1,7.21,15.34-30.4,15.34-30.4Z" transform="translate(-51.73 -43.21)"/><path class="cls-16" d="M374.43,465.17,355.74,490.9s4.8,6.86,7.09,7.2,15.34-30.38,15.34-30.38Z" transform="translate(-51.73 -43.21)"/><path class="cls-18" d="M353.33,498.08s-.91,14.41-1.83,17.27,0,29.16,0,29.16l8.58-3.54-1.49-40.38Z" transform="translate(-51.73 -43.21)"/><polygon class="cls-5" points="314 575.25 314.07 575.48 313.56 575.48 313.48 575.25 314 575.25"/><path class="cls-5" d="M425.57,618.68Z" transform="translate(-51.73 -43.21)"/><path class="cls-5" d="M436,606.06l-.42.7c-.27.43-.56,1-.93,1.66a.56.56,0,0,0-.05.08c-.52,1-1.13,2.13-1.75,3.42-21,.74-42,1.72-62.95,2.43l-5.12.17h-.74l-2.2-7.42V607l-.23-.78-1.4-4.66-1.4-4.74-1.45-5.06-.53-1.83-.14-.46-2.28-7.77-3.09-10.55,1-10.07h0l.07-.76.9-9,.13-2.67h0l.07-1.4v-.4h0l.15-3.25.46-9.66.24-4.94h0l0-.75h0l.48-9.92,1.35-4.05.7-2,1.55-4.68.34-1.15h0c.49-1.76,1.48-5.23,2.4-8.57h0l.08-.29h0l.07-.22L362,495l.81-3c.31-1.17.52-2,.56-2.29a44.41,44.41,0,0,1,3.14-5.6h0c3.5-5.79,8.76-14.31,9.37-17.17v-.07a3.23,3.23,0,0,1,.14-.51c.29-.85.7-1.08,1.14-1a1.39,1.39,0,0,1,.55.22,4.35,4.35,0,0,1,1.09,1.05c.82,1.57,3,3.15,5,4.32l.38.22.22.13c1.61.92,2.92,1.5,2.92,1.5,25.62,15.45,24,38.55,25.5,40.38s1.61,8.47,1.61,8.47,3.77,22.53,5.48,24.5.12,2.63,1.61,4.81,1.14,7.93,1.14,7.93,1,13.72,4.69,16.69S436,606.06,436,606.06Z" transform="translate(-51.73 -43.21)"/><path class="cls-17" d="M436.72,605.83l-.31.54h0c-.24.43-.64,1.11-1.11,2l0,.09c-.54,1-1.17,2.19-1.79,3.5h-.59c-21,.75-42,1.73-62.94,2.44l-5.12.17-2.19-7.45V607l-.23-.78-1.45-4.9-1.4-4.76-1.4-4.75-.55-1.91h0l-2.4-8.17L352,571l.87-8.75.12-1.17,1-9.95h0l.37-7.76.46-9.37.11-2.46.14-2.84.05-1.2.46-9.36,1.35-4.05.58-1.74,1.36-4.1.29-.86s1.3-4.6,2.57-9.16c.05-.17.1-.34.14-.5l.33-1.17h0c.11-.39.22-.78.32-1.16.35-1.28.7-2.47.93-3.45.35-1.28.58-2.21.63-2.51a40.14,40.14,0,0,1,3.2-5.7c3.31-5.47,8.14-13.3,9.16-16.55.05-.16.1-.34.14-.51h0a2.64,2.64,0,0,1,.61-1.4c.94-.9,2.33,1,2.33,1,.82,1.57,3,3.15,5,4.32a35.41,35.41,0,0,0,3.5,1.85c25.62,15.44,24,38.55,25.51,40.38s1.6,8.47,1.6,8.47,3.77,22.53,5.49,24.5.12,2.63,1.6,4.8,1.14,8,1.14,8,1,13.72,4.69,16.7S436.72,605.83,436.72,605.83Z" transform="translate(-51.73 -43.21)"/><path class="cls-5" d="M384.48,471.05c-2.52,3.66-6.61,10.08-7.7,14.7,0,0-4,4.13-5.5,3.9s1.4,3.08,1.4,3.08L357,514.53l2.24-6.7s4.69-16.47,4.9-17.95,11.6-18.49,12.5-22.77c.7-3.42,2.94-.34,2.94-.34C380.34,468.31,382.53,469.9,384.48,471.05Z" transform="translate(-51.73 -43.21)"/><path class="cls-17" d="M384.48,470.6c-2.52,3.65-6.61,10.08-7.7,14.67,0,0-4,4.11-5.5,3.89s1.4,3.08,1.4,3.08L357,514l2.24-6.7s4.69-16.47,4.9-18,11.6-18.48,12.5-22.76c.7-3.43,2.94-.34,2.94-.34C380.34,467.86,382.53,469.43,384.48,470.6Z" transform="translate(-51.73 -43.21)"/><path class="cls-5" d="M405.6,515.76c.12,5-7.2,11.83-7.54,12.23s-22.77,18.9-22.77,18.9l-16.1,12.34a13.68,13.68,0,0,1-6.3,2.92l1.1-11,1.09-22.4c2.51-2.8,4.95-5.74,5-6.68.11-1.94,4.2-4,4.2-4s2.87-2.4,2.4-3.77,1.52-7.95,1.52-7.95c1-18.65,20.25-20.47,20.25-20.47a132.42,132.42,0,0,1,15.78,7.54C410.75,497.26,405.49,510.77,405.6,515.76Z" transform="translate(-51.73 -43.21)"/><path class="cls-5" d="M295.23,556.87l-5.6.39c-2.37-4,.89-14.81.89-14.81H291l2.86.35Z" transform="translate(-51.73 -43.21)"/><path class="cls-17" d="M388.45,484.69s-19.22,1.83-20.25,20.48c0,0-1.94,6.52-1.49,7.89s-2.4,3.78-2.4,3.78-4.12,2-4.2,4-10.5,12.56-10.5,12.56-4.34,4.94-14.41,5.46-14.75,3.6-14.75,3.6-4.9-3.44-8.47-2.41-20.93,2.41-20.93,2.41-4.61,15.28,1.14,16.24c.7.11,57.33,2.06,57.33,2.06s3.87,1.83,9.7-2.63,16.1-12.36,16.1-12.36,22.4-18.53,22.77-18.9,7.7-7.23,7.54-12.22,5.15-18.49-1.4-22.4A132.94,132.94,0,0,0,388.45,484.69Z" transform="translate(-51.73 -43.21)"/><path class="cls-5" d="M371.29,455.75a23.47,23.47,0,0,1-1.16,7.3,10.31,10.31,0,0,1-.86-1.19l-3.29-5a13.46,13.46,0,0,0-3.34-3.94,4.65,4.65,0,0,0-4.9-.51,4.89,4.89,0,0,0-2.1,3.92,44.93,44.93,0,0,0,.12,4.64,2.53,2.53,0,0,1-.42,1.67,2.8,2.8,0,0,1-1.81.7l-2.1.29a1.52,1.52,0,0,1-1.92-.92v0c-1.74-3.16-2.95-7.08-6.22-8.6-2-.94-4.67-.87-6-2.68-.88-1.23-.76-2.9-.5-4.4a34.26,34.26,0,0,1,1.22-5c.37-1.14,1.2-3.43-.63-3.66-1.25-.17-3,1.16-3.6,2.1a17.85,17.85,0,0,0-1.23,3.26,7.81,7.81,0,0,1-4.31,4,11.78,11.78,0,0,1-3,.81,23.56,23.56,0,0,1,46,7.24Z" transform="translate(-51.73 -43.21)"/><path class="cls-17" d="M333.8,439.8a19.79,19.79,0,0,0-1.23,3.25,7.74,7.74,0,0,1-4.3,4,16.46,16.46,0,0,1-5.9,1.05c-3.26.1-6.9-.4-9-2.9a7.32,7.32,0,0,0,2.8-4.9c.18-1.49-.06-3.17.83-4.39a6.23,6.23,0,0,1,1.59-1.35c3.66-2.52,6.54-6,9.85-8.95s7.28-5.55,11.72-5.69c5.94-.18,11.2,4,17.08,4.79a48.75,48.75,0,0,1,5.43.62,18.49,18.49,0,0,1,5.53,2.8,14.38,14.38,0,0,1,3.94,3.39,12.34,12.34,0,0,1,1.6,3.88,43.7,43.7,0,0,1,1.4,8.88c.16,3.14,0,6.3.34,9.42a14.92,14.92,0,0,0,3.46,8.61,31.12,31.12,0,0,1-4.77,1.1,4.92,4.92,0,0,1-3-.24,5.44,5.44,0,0,1-1.85-2l-3.28-5a13.59,13.59,0,0,0-3.34-3.94,4.65,4.65,0,0,0-4.9-.51,4.92,4.92,0,0,0-2.1,3.92,44.86,44.86,0,0,0,.12,4.64,2.48,2.48,0,0,1-.43,1.67,2.73,2.73,0,0,1-1.81.7l-2.1.29a1.52,1.52,0,0,1-1.92-.92v0c-1.74-3.17-2.95-7.08-6.22-8.6-2-.94-4.67-.87-6-2.68-.88-1.23-.76-2.9-.5-4.4a34.26,34.26,0,0,1,1.22-5c.37-1.14,1.2-3.43-.63-3.67C336.16,437.48,334.43,438.8,333.8,439.8Z" transform="translate(-51.73 -43.21)"/><path class="cls-5" d="M387.1,495.15a10.18,10.18,0,0,1,5.29.27c-4.31-1.77-11.34-1.09-15.28,1.35C377.47,497.58,385.73,495.34,387.1,495.15Z" transform="translate(-51.73 -43.21)"/><path class="cls-5" d="M389.17,500.89c4.3.29,8.75.89,12.83-.51-3.42-1.18-7.18-.44-10.77-.79-2.87-.29-5.79-1.28-8.59-.56-1.17.3-5.48,2.29-5.18,3.73A23.29,23.29,0,0,1,389.17,500.89Z" transform="translate(-51.73 -43.21)"/><path class="cls-5" d="M377.76,510.3a6.39,6.39,0,0,1,2.68.28,40.86,40.86,0,0,0,9.85,1.08c2.54,0,5.27-.38,7.12-2.1Z" transform="translate(-51.73 -43.21)"/><path class="cls-5" d="M363.9,532.2a19.79,19.79,0,0,0,9.62,1.75,42.68,42.68,0,0,0,9.69-1.86c1.4-.42,2.93-.93,3.75-2.15Z" transform="translate(-51.73 -43.21)"/><path class="cls-5" d="M394.89,535.28a51.48,51.48,0,0,0,21.36,6.62q-5.69-2.29-11.47-4.32a83.61,83.61,0,0,0-12.07-3.24A6.22,6.22,0,0,1,394.89,535.28Z" transform="translate(-51.73 -43.21)"/><path class="cls-5" d="M405.46,531.27a18.4,18.4,0,0,0,4,.22,2.26,2.26,0,0,0,1.94-.7,34.57,34.57,0,0,1-8.89-1.31c-.84-.2-2.34-.66-3-.16C400.79,530.27,403.78,530.93,405.46,531.27Z" transform="translate(-51.73 -43.21)"/><path class="cls-5" d="M423.52,593.8a39.79,39.79,0,0,0,5.34,7.7,37.61,37.61,0,0,0,4,3.44c-2.6-6.62-5.24-13.3-9.4-19.09-1.05-1.45-2.62-3.54-4.53-3.8-.54,1.61.84,4.48,1.5,6A57.65,57.65,0,0,0,423.52,593.8Z" transform="translate(-51.73 -43.21)"/><path class="cls-5" d="M347,544.28a4.77,4.77,0,0,0,.44,3.28,2.35,2.35,0,0,0,1.33.91c-.34-.08-.7-3.37-.79-3.82-.15-.91,0-2.63-.65-3.31C347.15,542.31,347.09,543.3,347,544.28Z" transform="translate(-51.73 -43.21)"/><path class="cls-5" d="M350.63,543a7.41,7.41,0,0,0,3.5,4.74c-1.23-1.51-1.63-3.5-2.69-5.16-.35-.53-.74-1.29-1.4-1.4A16.1,16.1,0,0,0,350.63,543Z" transform="translate(-51.73 -43.21)"/><path class="cls-5" d="M347.55,522.83a8.73,8.73,0,0,1-6.93.88c-.53-.15-1.75-.7-1.46-1.47s1.71-.24,2.3-.17l3,.39C345.06,522.53,347.09,523.1,347.55,522.83Z" transform="translate(-51.73 -43.21)"/><path class="cls-5" d="M337.24,527.82c1.44-.18,2.72.81,4.07,1.35a12.47,12.47,0,0,0,4.62.61,2.56,2.56,0,0,0,2.15-.7C344.44,528.25,341,527.33,337.24,527.82Z" transform="translate(-51.73 -43.21)"/><polygon class="cls-16" points="302.82 442.52 303.05 442.52 304.76 448.69 302.82 450.76 302.82 442.52"/><g class="cls-19"><path d="M316.62,436.83a14.83,14.83,0,0,0-.32,3.05,5.47,5.47,0,0,0,.19-1C316.58,438.22,316.57,437.52,316.62,436.83Z" transform="translate(-51.73 -43.21)"/><path d="M337.5,437.63a1.23,1.23,0,0,1,1.16,1.3s0,.07,0,.1c.33-1.16.51-2.59-.92-2.8-1.24-.15-3,1.17-3.6,2.13a20,20,0,0,0-1.23,3.27,7.76,7.76,0,0,1-4.3,4,16.25,16.25,0,0,1-5.9,1.05c-3,.09-6.25-.32-8.4-2.28a6,6,0,0,1-.83.76c2.1,2.5,5.74,3,9,2.9a16.67,16.67,0,0,0,5.89-1.05,7.86,7.86,0,0,0,4.31-4,20.22,20.22,0,0,1,1.22-3.26C334.54,438.77,336.25,437.48,337.5,437.63Z" transform="translate(-51.73 -43.21)"/><path d="M374.47,462a4.92,4.92,0,0,1-3-.24,5.33,5.33,0,0,1-1.84-2l-3.29-5a13.55,13.55,0,0,0-3.33-3.94,4.63,4.63,0,0,0-4.9-.51,5,5,0,0,0-2.13,3.92v.19a4.41,4.41,0,0,1,1.91-2.74,4.66,4.66,0,0,1,4.9.52,13.86,13.86,0,0,1,3.34,3.93q1.63,2.52,3.28,5a5.31,5.31,0,0,0,1.85,2,5,5,0,0,0,3,.23,29.74,29.74,0,0,0,4.77-1.1,10.82,10.82,0,0,1-.85-1.05A29,29,0,0,1,374.47,462Z" transform="translate(-51.73 -43.21)"/><path d="M355.65,460.54a2.8,2.8,0,0,1-1.8.7l-2.1.29a1.51,1.51,0,0,1-1.92-.92l0,0c-1.74-3.16-2.94-7.08-6.21-8.6-2-.93-4.67-.87-6-2.68a5.17,5.17,0,0,1-.62-3.67c0,.22-.08.43-.12.64-.25,1.5-.38,3.17.51,4.4,1.3,1.81,4,1.75,6,2.69,3.27,1.51,4.48,5.43,6.22,8.59a2,2,0,0,0,.8,1,2.07,2.07,0,0,0,1.13.05l2.1-.29a2.7,2.7,0,0,0,1.81-.7,2.53,2.53,0,0,0,.42-1.67h0A1.57,1.57,0,0,1,355.65,460.54Z" transform="translate(-51.73 -43.21)"/></g><path class="cls-3" d="M645.37,625.6l-4.48-.62V558.74l.91.28,2.8.86v6.38l0,2.87.06,5.92v8.08L645,613v.8l.12,10.5v.16Z" transform="translate(-51.73 -43.21)"/><path class="cls-20" d="M647.89,626l-2.49-.35v-1.36l-.12-10.5v-.8l-.34-29.82V575l-.06-5.92,0-2.88v-6.38h2.7v8.56l.05,6.4v6.77h0l.26,31.31v.8l.09,10.41v.17Z" transform="translate(-51.73 -43.21)"/><path class="cls-20" d="M647.89,629.69Z" transform="translate(-51.73 -43.21)"/><path class="cls-3" d="M920.19,550.53V607.7c-1.33.94-2.69,1.85-4.08,2.75l-.06-47.6V557.8Z" transform="translate(-51.73 -43.21)"/><path class="cls-20" d="M923.11,549.7v55.79c-1,.76-1.93,1.5-2.92,2.22V550.53Z" transform="translate(-51.73 -43.21)"/><path class="cls-3" d="M858.1,630.72q-2.58.54-5.18,1L852.86,580v-2.24l5-2.1v4.75Z" transform="translate(-51.73 -43.21)"/><path class="cls-20" d="M861.39,574v56l-3.27.7-.23-50.31v-4.74l.33-.16h0Z" transform="translate(-51.73 -43.21)"/><path class="cls-3" d="M564.7,615.23l-4.66-.47-.59-58.34v-2.78H564v3.17Z" transform="translate(-51.73 -43.21)"/><path class="cls-20" d="M568.16,615.6l-3.5-.37-.7-58.42v-3.17h3.54v3.48Z" transform="translate(-51.73 -43.21)"/><polygon class="cls-5" points="806.45 532.3 809.65 530.8 809.65 537.86 806.54 538.9 806.45 532.3"/><polygon class="cls-5" points="871.37 506.48 871.37 517.29 868.47 518.26 864.32 519.64 864.31 514.58 868.47 507.31 871.37 506.48"/><polygon class="cls-7" points="871.37 485.7 871.37 515.63 806.54 537.24 806.12 505.23 871.37 485.7"/><polygon class="cls-6" points="506.86 483.62 592.07 467.41 871.37 485.7 806.12 505.23 506.86 483.62"/><polygon class="cls-5" points="515.8 510.43 515.83 513.9 512.3 513.6 507.71 513.21 507.69 510.43 515.8 510.43"/><polygon class="cls-5" points="595.63 520.76 592.94 520.53 589.16 520.21 589.16 515.53 592.9 516.66 595.6 516.66 595.63 520.76"/><polygon class="cls-7" points="506.86 483.62 506.86 511.47 806.54 537.24 806.12 505.23 506.86 483.62"/><polygon class="cls-7" points="744.47 516.73 705.33 516.73 705.33 502.53 744.47 505.29 744.47 516.73"/><polygon class="cls-5" points="744.47 516.73 705.33 516.73 705.33 502.53 744.47 505.29 744.47 516.73"/><polygon class="cls-5" points="652.75 499.42 652.75 521.86 803 533.29 803 509.39 744.4 506.06 738.58 511.26 714.68 509.6 706.16 503.36 652.75 499.42"/><polygon class="cls-21" points="651.91 498.58 651.91 521.03 802.17 532.46 802.17 508.56 743.57 505.23 737.75 510.43 713.84 508.77 705.33 502.53 651.91 498.58"/><polygon class="cls-7" points="559.23 492.56 594.77 495.05 594.35 506.35 571.15 506.35 555.63 500.25 559.23 492.56"/><polygon class="cls-5" points="559.23 492.56 594.77 495.05 594.35 506.35 571.15 506.35 555.63 500.25 559.23 492.56"/><polygon class="cls-5" points="511.85 489.44 511.85 509.6 648.18 520.41 648.18 499 595.6 495.88 589.99 500.04 568.79 498.79 560.06 493.39 511.85 489.44"/><polygon class="cls-21" points="511.02 488.61 511.02 508.77 647.34 519.58 647.34 498.17 594.77 495.05 589.16 499.2 567.96 497.96 559.23 492.56 511.02 488.61"/><polygon class="cls-5" points="803.02 488.68 822.13 489.94 790.47 499.42 774.34 498.25 803.02 488.68"/><polygon class="cls-21" points="803.02 487.86 822.13 489.1 790.47 498.58 774.34 497.42 803.02 487.86"/><path class="cls-20" d="M852.46,533.22c.76-.33,1.56.28,2.37.43.45.09.93,0,1.4.09.94.13,1.86.75,2.76.43Z" transform="translate(-51.73 -43.21)"/><path class="cls-20" d="M851.48,533.78c.74-.32,1.55.29,2.35.44.47.09.94,0,1.4.09.94.12,1.87.75,2.76.44Z" transform="translate(-51.73 -43.21)"/><path class="cls-20" d="M849.21,534.93c.75-.32,1.55.28,2.36.43.46.1.93,0,1.4.1.93.12,1.87.75,2.75.43Z" transform="translate(-51.73 -43.21)"/><polygon class="cls-5" points="674.08 478.2 716.69 480.99 707.61 494.03 660.77 489.03 674.08 478.2"/><polygon class="cls-4" points="673.25 477.37 715.86 480.15 706.78 493.2 659.93 488.19 673.25 477.37"/><polygon class="cls-22" points="675.13 478.32 712.29 480.6 704.37 491.23 663.51 487.14 675.13 478.32"/><path class="cls-4" d="M647.89,629.69Z" transform="translate(-51.73 -43.21)"/><path class="cls-5" d="M647.89,629.69Z" transform="translate(-51.73 -43.21)"/><path class="cls-4" d="M647.57,629.69Z" transform="translate(-51.73 -43.21)"/><path class="cls-4" d="M701.93,628.1a3.82,3.82,0,0,1,0,.59,4.29,4.29,0,0,1-.06.53,11.9,11.9,0,0,1-1,3.56h0c-17.61-2-35.25-4.36-52.92-6.8l-2.5-.35-4.49-.62-3.78-.53h0a91.47,91.47,0,0,1-12.35-1.15,64.26,64.26,0,0,1-7.63-1.61c-11.2-1.54-22.46-3-33.69-4.36l-1.46-.17c.27-1.19.49-1.91.49-1.91s2.41-9.47,4.41-20h0c.44-2.3.86-4.64,1.23-7,.29-1.85.56-3.68.78-5.45.13-1,.23-1.92.32-2.85,0-.47.09-.93.13-1.4s.07-1,.11-1.48,0-.91.07-1.35v-.66c0-1,0-1.93,0-3a86.23,86.23,0,0,0-2.38-15c-.19-.84-.39-1.68-.6-2.5l-.21-.79c-2.26-8.75-4.9-15.91-4.9-15.91v-.12a.11.11,0,0,0,0-.08.54.54,0,0,0,0-.18v-1.24a10.61,10.61,0,0,1,.38-2.17c.08-.25.17-.5.27-.74a4.61,4.61,0,0,1,3.15-2.92h0c2-.51,5,0,9.5,2.68a17.44,17.44,0,0,1,2.1,1.45,8.84,8.84,0,0,1,1,.84c5.18,4.83,7.93,12.79,9.4,20,.06.26.11.52.16.78.17.89.32,1.77.45,2.63.24,1.51.43,3,.57,4.32,0,.36.08.7.11,1.07s.07.7.09,1c.09,1.09.16,2.1.2,3,.12,2.27.1,3.66.1,3.66v.07a1.62,1.62,0,0,1,0,.3V573c0,.29-.06.64-.1,1-.07.6-.14,1.31-.22,2.1h0c-.06.59-.13,1.22-.2,1.89-.15,1.4-.32,3-.5,4.74,0,.32-.08.64-.11,1-.16,1.47-.33,3-.51,4.53h0c-.19,1.75-.4,3.5-.6,5.23-.05.38-.1.76-.14,1.13-.52,4.2-1,8-1.45,10.39a7.5,7.5,0,0,0-.14,1.06,2.16,2.16,0,0,0,0,.36,5.13,5.13,0,0,0,0,1c.34,6,6.8,7,6.8,7l29.34-.59,4.35-.08,2.53,0,22.87-.45h0l2.1,0,11.38-.22a8.07,8.07,0,0,1,2.29.27,36.56,36.56,0,0,1,9.94,4.35,11.93,11.93,0,0,1,2.57,2.24.48.48,0,0,1,.09.11,12.12,12.12,0,0,1,2.76,6.55V627A6.58,6.58,0,0,1,701.93,628.1Z" transform="translate(-51.73 -43.21)"/><path class="cls-5" d="M647.57,629.69Z" transform="translate(-51.73 -43.21)"/><path class="cls-5" d="M701.93,628.1a3.82,3.82,0,0,1,0,.59,4.29,4.29,0,0,1-.06.53,12,12,0,0,1-1.05,3.56c-17.6-2-35.25-4.36-52.92-6.8l-2.5-.35-4.48-.62-3.78-.53h0a91.17,91.17,0,0,1-12.35-1.15,64.26,64.26,0,0,1-7.63-1.61c-11.2-1.54-22.46-3-33.69-4.36l-1.46-.17h0c.26-1.23.5-2,.5-2s2-7.7,3.84-17h0c.13-.64.25-1.28.38-1.93l.19-1h0c.43-2.29.85-4.64,1.22-7,.3-1.86.56-3.69.79-5.45.12-1,.23-1.93.32-2.86,0-.46.09-.92.13-1.4s.07-1,.11-1.48,0-.91.07-1.35v-.66c0-.94,0-1.93,0-2.94a85.36,85.36,0,0,0-2.36-15c-.19-.85-.39-1.68-.6-2.5-.07-.27-.14-.52-.21-.78-2.27-8.79-4.9-16-4.9-16v0a.14.14,0,0,0,0-.09.49.49,0,0,0,0-.17v-1.25a11.43,11.43,0,0,1,.36-2.17c.08-.24.16-.5.26-.74a4.62,4.62,0,0,1,3.32-3c2-.46,4.94.11,9.36,2.7a16.53,16.53,0,0,1,2.19,1.53h0c.33.27.64.55,1,.84,5.14,4.85,7.87,12.8,9.33,20,.06.26.1.53.15.79.18.88.33,1.77.46,2.62.24,1.51.42,3,.56,4.31,0,.37.08.73.1,1.08s.07.7.09,1c.1,1.09.16,2.1.2,3,.12,2.27.1,3.66.1,3.66v.37a.06.06,0,0,0,0,.06V573c0,.29-.06.63-.11,1-.06.6-.13,1.31-.21,2.1h0q-.1.87-.21,1.89c-.15,1.4-.32,3-.5,4.74,0,.32-.08.64-.11,1-.16,1.47-.34,3-.51,4.55h0c-.2,1.75-.4,3.5-.61,5.22-.05.38-.09.75-.14,1.12-.51,4.2-1,8-1.44,10.32a8.87,8.87,0,0,0-.14,1.14,2.29,2.29,0,0,0,0,.37,5,5,0,0,0,0,.95c.39,5.91,6.8,6.89,6.8,6.89l29.34-.57,4.34-.09,2.54,0,22.92-.45,2.14,0,11.33-.22a7.37,7.37,0,0,1,2.29.27,36.18,36.18,0,0,1,10,4.3,11.81,11.81,0,0,1,2.6,2.29.52.52,0,0,1,.1.11,11.93,11.93,0,0,1,2.71,6.58v.48A9.08,9.08,0,0,0,701.93,628.1Z" transform="translate(-51.73 -43.21)"/><path class="cls-4" d="M647.57,629.69Z" transform="translate(-51.73 -43.21)"/><path class="cls-4" d="M702,632.89l-1.15-.13h0c-17.61-2-35.25-4.37-52.92-6.81l-2.5-.35-4.49-.62-3.78-.53h0a91.47,91.47,0,0,1-12.35-1.15,64.26,64.26,0,0,1-7.63-1.61c-11.2-1.53-22.46-3-33.69-4.36.19-1,.42-2,.7-2.91,0,0,6.65-26.18,7.07-40.11.14-5-.84-11.13-2.18-17h0c-.2-.84-.39-1.68-.6-2.51l-.19-.78c-2.37-9.21-5.2-16.91-5.2-16.91a11.36,11.36,0,0,1,.17-2.85c0-.25.1-.5.16-.75a5.69,5.69,0,0,1,1.81-3h0l.13-.1c1.84-1.4,5.15-1.5,11,2a17,17,0,0,1,3.28,2.51l.83.83c4.72,5.12,7.23,13,8.54,20l.15.78c.15.88.29,1.74.41,2.57v.07h0c.16,1.11.3,2.16.41,3.17h0a80.9,80.9,0,0,1,.5,8.94s-.27,2.76-.7,6.75c-.16,1.56-.35,3.31-.55,5.16v.28l-.1,1c-.36,3.22-.75,6.67-1.15,9.86,0,.39-.09.78-.14,1.15-.45,3.6-.9,6.79-1.27,8.87-1.46,8.1,6.65,9.35,6.65,9.35l27.68-.55,4.34-.08,2.54-.06h1.41l21.95-.43h2.1l12.6-.25a7.73,7.73,0,0,1,2.29.28,35.86,35.86,0,0,1,10,4.29,12,12,0,0,1,2.36,2l.12.14A12.12,12.12,0,0,1,702,632.89Z" transform="translate(-51.73 -43.21)"/><polygon class="cls-10" points="749.21 463.15 757.77 481.49 756.33 481.49 746.3 463.37 749.21 463.15"/><polygon class="cls-5" points="749.21 463.15 757.77 481.49 756.33 481.49 746.3 463.37 749.21 463.15"/><polygon class="cls-10" points="749.21 481.49 757.77 481.49 757.77 483.41 749.21 483.62 749.21 481.49"/><polygon class="cls-5" points="749.21 481.49 757.77 481.49 757.77 483.41 749.21 483.62 749.21 481.49"/><path class="cls-10" d="M734.34,438.87v64a4.76,4.76,0,0,0,4.76,4.76H845.85a4.72,4.72,0,0,0,4.72-4.73v-.09l-1.21-64.1a4.72,4.72,0,0,0-4.72-4.63H739.1A4.75,4.75,0,0,0,734.34,438.87Z" transform="translate(-51.73 -43.21)"/><path class="cls-5" d="M734.34,438.87v64a4.76,4.76,0,0,0,4.76,4.76H845.85a4.72,4.72,0,0,0,4.72-4.73v-.09l-1.21-64.1a4.72,4.72,0,0,0-4.72-4.63H739.1A4.75,4.75,0,0,0,734.34,438.87Z" transform="translate(-51.73 -43.21)"/><path class="cls-10" d="M730.49,438.87v64a4.76,4.76,0,0,0,4.76,4.76H842a4.73,4.73,0,0,0,4.72-4.72v-.1l-1.22-64.1a4.71,4.71,0,0,0-4.71-4.63H735.28a4.76,4.76,0,0,0-4.79,4.72Z" transform="translate(-51.73 -43.21)"/><path class="cls-12" d="M734.69,442.87v56.39a4.76,4.76,0,0,0,4.76,4.75h98.84a4.72,4.72,0,0,0,4.73-4.72h0V442.84a4.72,4.72,0,0,0-4.73-4.72H739.45A4.76,4.76,0,0,0,734.69,442.87Z" transform="translate(-51.73 -43.21)"/><polygon class="cls-10" points="725.74 463.41 735.12 481.49 756.33 481.49 745.73 460.8 725.74 463.41"/><polygon class="cls-10" points="718.26 481.49 716.69 483.41 749.21 483.41 749.21 481.49 718.26 481.49"/><path class="cls-23" d="M632.89,458.31c-2.33-6.55-2.32-13.83-5.15-20.18a24.71,24.71,0,0,1-1.18-2.8,7.47,7.47,0,0,1-.32-1.82l-.18,0-.17.05-.18.07h0l-.16.1c0,.2.1.41.16.61a23.12,23.12,0,0,0,1.2,2.8c2.88,6.39,2.86,13.69,5.23,20.3a2,2,0,0,0,.45.78,1.15,1.15,0,0,0,.35.22C632.92,458.4,632.9,458.36,632.89,458.31Zm0,0c-2.33-6.55-2.32-13.83-5.15-20.18a24.71,24.71,0,0,1-1.18-2.8,7.47,7.47,0,0,1-.32-1.82l-.18,0-.17.05-.18.07h0l-.16.1c0,.2.1.41.16.61a23.12,23.12,0,0,0,1.2,2.8c2.88,6.39,2.86,13.69,5.23,20.3a2,2,0,0,0,.45.78,1.15,1.15,0,0,0,.35.22C632.92,458.4,632.9,458.36,632.89,458.31Zm0,0c-2.33-6.55-2.32-13.83-5.15-20.18a24.71,24.71,0,0,1-1.18-2.8,7.47,7.47,0,0,1-.32-1.82l-.18,0-.17.05-.18.07h0l-.16.1c0,.2.1.41.16.61a23.12,23.12,0,0,0,1.2,2.8c2.88,6.39,2.86,13.69,5.23,20.3a2,2,0,0,0,.45.78,1.15,1.15,0,0,0,.35.22C632.92,458.4,632.9,458.36,632.89,458.31Zm0,0c-2.33-6.55-2.32-13.83-5.15-20.18a24.71,24.71,0,0,1-1.18-2.8,7.47,7.47,0,0,1-.32-1.82l-.18,0-.17.05-.18.07h0l-.16.1c0,.2.1.41.16.61a23.12,23.12,0,0,0,1.2,2.8c2.88,6.39,2.86,13.69,5.23,20.3a2,2,0,0,0,.45.78,1.15,1.15,0,0,0,.35.22C632.92,458.4,632.9,458.36,632.89,458.31Zm0,0c-2.33-6.55-2.32-13.83-5.15-20.18a24.71,24.71,0,0,1-1.18-2.8,7.47,7.47,0,0,1-.32-1.82l-.18,0-.17.05-.18.07h0l-.16.1c0,.2.1.41.16.61a23.12,23.12,0,0,0,1.2,2.8c2.88,6.39,2.86,13.69,5.23,20.3a2,2,0,0,0,.45.78,1.15,1.15,0,0,0,.35.22C632.92,458.4,632.9,458.36,632.89,458.31Zm0,0c-2.33-6.55-2.32-13.83-5.15-20.18a24.71,24.71,0,0,1-1.18-2.8,7.47,7.47,0,0,1-.32-1.82l-.18,0-.17.05-.18.07h0l-.16.1c0,.2.1.41.16.61a23.12,23.12,0,0,0,1.2,2.8c2.88,6.39,2.86,13.69,5.23,20.3a2,2,0,0,0,.45.78,1.15,1.15,0,0,0,.35.22C632.92,458.4,632.9,458.36,632.89,458.31Zm0,0c-2.33-6.55-2.32-13.83-5.15-20.18a24.71,24.71,0,0,1-1.18-2.8,7.47,7.47,0,0,1-.32-1.82l-.18,0-.17.05-.18.07h0l-.16.1c0,.2.1.41.16.61a23.12,23.12,0,0,0,1.2,2.8c2.88,6.39,2.86,13.69,5.23,20.3a2,2,0,0,0,.45.78,1.15,1.15,0,0,0,.35.22C632.92,458.4,632.9,458.36,632.89,458.31Zm121.62,65.24h0l-.54-.1.7-.15h0l.21,0h0c.77-.17,1.54-.36,2.3-.56h0l.79-.23h0l.11,0c6.53-1.93-1.08-3.7-10.76-5h0C736.85,516,724,515.1,724,515.1l-4,.53h0c-4.9.65-12.63,1.71-13.86,2.1-1.5.5-14.21,1.11-18.64,1.3a2.1,2.1,0,0,0-.66-.7l-13.07-.6v1.8h0l-.1,0a17.92,17.92,0,0,0-1.77-7l-.1-.2c-3.37-6.4-4-8-4-8h0a1.56,1.56,0,0,0-.09-.34c-1.14-3.94-5.31-10.77-12.4-20.59L655,483l-.89-4.36-.16-.76H649.5a59.09,59.09,0,0,1,3.1-11.07c.09-.22.18-.44.28-.66l0-.13c.1-.23.21-.46.32-.7H654a21.29,21.29,0,0,0,20.46-19.81,0,0,0,0,0,0,0c0-.44,0-.87,0-1.3a20.9,20.9,0,0,0-2.8-10.5l-.18-.3-.11-.19-.25-.39c1.59-.38,3.5.35,4.9-.55a3.48,3.48,0,0,0,1.19-1.44,7.12,7.12,0,0,0,.7-2.1h0a.24.24,0,0,0,0-.12,0,0,0,0,0,0,0,9.07,9.07,0,0,0-.38-4.35,8,8,0,0,0-4.51-4.52,28.74,28.74,0,0,0-3.27-.89c-4.48-1.2-8.27-4.15-12.6-5.8a22.89,22.89,0,0,0-9.45-1.46,13.66,13.66,0,0,0-5.6,1.4,24.23,24.23,0,0,0-3.74,2.71c-3.11,2.46-6.65,4.56-9.35,7.49a15.6,15.6,0,0,0-1.36,1.68l-.7,1.05a1.89,1.89,0,0,0-1.69-.7H625a8.55,8.55,0,0,0-.87.09c-.7.12-5.92,1.5-5.92,2.22a24.45,24.45,0,0,0-6,3.68c-4.2,3.84-5.14,9.93-5.67,15.55a144,144,0,0,0-.7,19.6c.1,2.37.29,4.75.18,7.14a52.9,52.9,0,0,1-1.24,8.31q-.9,4.28-1.95,8.51c-.34,1.4-.88,3-2.25,3.41l.51.07a2.38,2.38,0,0,1-.51.24,17.59,17.59,0,0,0,1.78.18h.41a5.58,5.58,0,0,0,1-.12,3.88,3.88,0,0,0,1.27-.59l.15-.43a2.32,2.32,0,0,0,.84-1.3,9,9,0,0,1-.14,2.37,1.37,1.37,0,0,1-.07.34,9.53,9.53,0,0,1-2.41,4.56l.7-.53a9.28,9.28,0,0,1-.7.85c1-.76,2-1.53,3-2.32h0a1.09,1.09,0,0,0,.17-.13h0l1.72-1.36v1.36h0v.31c-.14,4.83-.34,16.7.76,19.53.06.17.13.34.19.5,1.25,3.23,1.79,4.62,1.63,6.3-.11,1.17.76,4.51,1.25,7.17a8.89,8.89,0,0,1,.22,3.25,4.67,4.67,0,0,0,.13,1.93c.06.31.14.63.22,1a1.81,1.81,0,0,0,.09.37c.64,2.55,1.54,5.7.6,6.95a5.25,5.25,0,0,0-.7,1.4c-.78,2.1-.91,5-1.8,6.13-1,1.35-.7,3.75-.62,4.06v0s0,.27-.15.7-.3,1.49-.54,2.49V559a35.75,35.75,0,0,1-1.21,4.15h0c-.36.95-.7,1.64-1.1,1.77-1.4.51-2.1,7.08-2.1,7.08s-3.21,5.21-2.6,6.49c.14.29.29.58.46.86l-.31.47c-1.72,2.75-4.2,7.75-1.79,10.44a11.81,11.81,0,0,0,2.87,2.19c-.13.28-.26.58-.4.91-2.65,6.2-6.72,20.61,8.95,26.69,1.56.59,3.14,1.12,4.75,1.56a64.26,64.26,0,0,0,7.63,1.61,95.48,95.48,0,0,0,11.2,1c1.67,0,3.31.07,4.9,0s3,0,4.48-.11c.85,0,1.68-.07,2.5-.12a131,131,0,0,0,14.37-1.58l22.4-4s9.4.34,12.87,2.32l.1.07s.57-.33,1.52-1h0c.42-.28.91-.61,1.45-1A47.25,47.25,0,0,0,713.9,604l.08-.13.76-.1h.18l.55-.07,1.13-.16h.2c2.84-.42,5.52-.87,5.52-.87s.1,3.13.23,6.75c0,1.11.08,2.26.12,3.38.13,3.84.25,7.33.25,7.44s2.88,7.7,6.11,15.35l2.52.2q10,.79,20,1.32l2.48.13,1.56.08c-1.12-6.79-2-13.25-2-13.25l-4.16-19.37s-.44-4-3.55-21.84c-2.52-14.45-17.36-13.17-22.92-12.15-.57.1-1,.2-1.4.28v-1.09s-10.66.9-20.3,1.33l-2.34.1c-2.24.08-4.36.13-6.22.13a47.11,47.11,0,0,1-4.9-.19c-7.44-.86-15.93,1.7-15.93,1.7s-10.84,1.75-12.29,1.11a3.64,3.64,0,0,0-1.22-.25h-.7a1.14,1.14,0,0,0,.7-1.25c-.44-1.79-.61-4.27.61-6,.53-.75,1.4-1.94,2.17-3L663,561v-.21l0-.76.46-6.8,1.09-6.3.07-.4.1-.56.07-.41.21.07h0c3.1,1.08,6.61,1.83,9.1,1h.05a4.11,4.11,0,0,0,.57-.25h.11v.47l0,.82L686.6,547h.17s.46-2.25,1-5.36q0-.37.12-.78c0-.26.1-.7.15-1a4.61,4.61,0,0,1,.07-.5h.7c5.42-.19,13-.65,16.06-1.77h0a3.63,3.63,0,0,0,1.06-.57c1.3-1.13,6-2.76,10.61-4.16h0l1.85-.54c1.33-.4,2.62-.76,3.76-1.08,2.65-.7,4.54-1.22,4.54-1.22s18.2,1.69,31.79-2.24h0l.23-.06C763.77,526.08,760.59,524.7,754.51,523.55Zm-129.14-91a3.29,3.29,0,0,0,.08.62h0a1.26,1.26,0,0,0,0,.27.52.52,0,0,0,0,.27c.05.21.1.41.16.62a24.56,24.56,0,0,0,1.2,2.8c2.89,6.38,2.86,13.68,5.24,20.3a1.8,1.8,0,0,0,.44.77,1,1,0,0,0,.36.22l.16.06h.2l-.08.13a.47.47,0,0,1-.05.1l0,.07c-.94,1.59-1.94,3.14-3,4.51a6.56,6.56,0,0,0-2.43,1l-.39.26-.17.12c-.24-1.2-.58-2.39-.89-3.58a83.26,83.26,0,0,1-2.7-19.42v-1.32c0-1.7,0-3.38.15-5.08a4.13,4.13,0,0,1,.59-2.22h0a1.55,1.55,0,0,1,1-.51Zm7.52,25.77c-2.33-6.56-2.32-13.83-5.15-20.18a25.5,25.5,0,0,1-1.18-2.8,7.55,7.55,0,0,1-.32-1.83l-.18.05-.17.05-.18.07h0l-.16.09a6.25,6.25,0,0,0,.16.62,23.82,23.82,0,0,0,1.2,2.8c2.88,6.38,2.86,13.68,5.23,20.3a2,2,0,0,0,.45.78,1,1,0,0,0,.35.21c0-.08,0-.12-.05-.17Zm0,0c-2.33-6.56-2.32-13.83-5.15-20.18a25.5,25.5,0,0,1-1.18-2.8,7.55,7.55,0,0,1-.32-1.83l-.18.05-.17.05-.18.07h0l-.16.09a6.25,6.25,0,0,0,.16.62,23.82,23.82,0,0,0,1.2,2.8c2.88,6.38,2.86,13.68,5.23,20.3a2,2,0,0,0,.45.78,1,1,0,0,0,.35.21c0-.08,0-.12-.05-.17Zm0,0c-2.33-6.56-2.32-13.83-5.15-20.18a25.5,25.5,0,0,1-1.18-2.8,7.55,7.55,0,0,1-.32-1.83l-.18.05-.17.05-.18.07h0l-.16.09a6.25,6.25,0,0,0,.16.62,23.82,23.82,0,0,0,1.2,2.8c2.88,6.38,2.86,13.68,5.23,20.3a2,2,0,0,0,.45.78,1,1,0,0,0,.35.21c0-.08,0-.12-.05-.17Zm0,0c-2.33-6.56-2.32-13.83-5.15-20.18a25.5,25.5,0,0,1-1.18-2.8,7.55,7.55,0,0,1-.32-1.83l-.18.05-.17.05-.18.07h0l-.16.09a6.25,6.25,0,0,0,.16.62,23.82,23.82,0,0,0,1.2,2.8c2.88,6.38,2.86,13.68,5.23,20.3a2,2,0,0,0,.45.78,1,1,0,0,0,.35.21c0-.08,0-.12-.05-.17Zm0,0c-2.33-6.56-2.32-13.83-5.15-20.18a25.5,25.5,0,0,1-1.18-2.8,7.55,7.55,0,0,1-.32-1.83l-.18.05-.17.05-.18.07h0l-.16.09a6.25,6.25,0,0,0,.16.62,23.82,23.82,0,0,0,1.2,2.8c2.88,6.38,2.86,13.68,5.23,20.3a2,2,0,0,0,.45.78,1,1,0,0,0,.35.21c0-.08,0-.12-.05-.17Zm0,0c-2.33-6.56-2.32-13.83-5.15-20.18a25.5,25.5,0,0,1-1.18-2.8,7.55,7.55,0,0,1-.32-1.83l-.18.05-.17.05-.18.07h0l-.16.09a6.25,6.25,0,0,0,.16.62,23.82,23.82,0,0,0,1.2,2.8c2.88,6.38,2.86,13.68,5.23,20.3a2,2,0,0,0,.45.78,1,1,0,0,0,.35.21c0-.08,0-.12-.05-.17Z" transform="translate(-51.73 -43.21)"/><path class="cls-24" d="M656.29,462a16.27,16.27,0,0,0-2.68,4.16c-.11.23-.21.45-.31.7-3.1,7-4.15,16.9-4.15,16.9s-1.91-.86-4.63-2.2c-5.06-2.51-12.87-6.68-16-10-1.4-1.51-1.9-2.84-.74-3.77a8,8,0,0,0,.77-.7,23.27,23.27,0,0,0,2.44-2.9c1-1.4,2-3,2.94-4.56.55-.94,1.08-1.89,1.57-2.8l.2-.37c2.1-4,3.63-7.38,3.63-7.38s.7.22,1.83.62C646.36,451.56,660.76,457.24,656.29,462Z" transform="translate(-51.73 -43.21)"/><path class="cls-24" d="M752.11,624.17s.85,6.35,1.94,13l-2.49-.13q-10-.51-19.95-1.32c-3.78-8.76-7.7-19.15-7.7-19.32s-.12-3.58-.25-7.4c0-1.35-.1-2.73-.14-4h0c-.07-2-.13-3.76-.17-4.86,0-.76,0-1.21,0-1.21s-3.6.64-6.83,1.08l-1.43.19c-.75.09-1.4.16-2,.2a5,5,0,0,1-1.55,0c-1.1-.43,1.19-11.2,1.19-11.2l5.72-13.83,1.59-3.85.7-.17c.34-.09.81-.18,1.36-.29,5.45-1,20-2.27,22.49,12.1,3.06,17.76,3.5,21.75,3.5,21.75Z" transform="translate(-51.73 -43.21)"/><path class="cls-24" d="M757.63,652.6h0Z" transform="translate(-51.73 -43.21)"/><path class="cls-25" d="M752.11,624.17s.85,6.35,1.94,13l-2.49-.13q-10-.51-19.95-1.32c-3.78-8.76-7.7-19.15-7.7-19.32s-.12-3.58-.25-7.4c0-1.35-.1-2.73-.14-4h0c-.07-2-.13-3.76-.17-4.86,0-.76,0-1.21,0-1.21s-3.6.64-6.83,1.08l-1.43.19c-.75.09-1.4.16-2,.2a5,5,0,0,1-1.55,0c-1.1-.43,1.19-11.2,1.19-11.2l5.72-13.83,1.59-3.85.7-.17c.34-.09.81-.18,1.36-.29,5.45-1,20-2.27,22.49,12.1,3.06,17.76,3.5,21.75,3.5,21.75Z" transform="translate(-51.73 -43.21)"/><path class="cls-25" d="M757.63,652.6h0Z" transform="translate(-51.73 -43.21)"/><path class="cls-24" d="M751.56,637.08q-10-.51-19.95-1.32l-2.52-.2-1.12-.1c-3.13-7.56-5.92-15-5.92-15.09s-.12-3.59-.25-7.41c-.16-4.78-.34-10.09-.34-10.09l-.47.07-.2,0h-.25l-1.13.19-.61.09c-1.12.19-2.46.39-3.78.58l-.29,0-.77.1-.7.08h0c-.54.07-1,.13-1.51.17l-.57,0a5,5,0,0,1-1.55,0c-1.1-.43,1.19-11.2,1.19-11.2l7.31-17.68.25-.07c.39-.09,1.2-.28,2.3-.47.41-.07.87-.14,1.36-.2,6.34-.82,18.41-.59,20.64,12.39,3.06,17.75,3.5,21.74,3.5,21.74l4.08,19.31S750.79,632.09,751.56,637.08Z" transform="translate(-51.73 -43.21)"/><path class="cls-5" d="M721.8,613c-.16-4.78-.34-10.1-.34-10.1s-7,1.22-10.26,1.46l.65-2.22s12-3.32,12.24-1.45C724.27,602,722.73,608.92,721.8,613Z" transform="translate(-51.73 -43.21)"/><path class="cls-5" d="M722.05,571v5.06s-.59,9.1-5.27,23c-.1.3-.2.59-.31.89a31.68,31.68,0,0,1-1.74,3.91c-1.32.18-2.59.33-3.53.4a5,5,0,0,1-1.55,0c-1.11-.43,1.18-11.2,1.18-11.2l7.31-17.67.26-.07,1.59-3.85A16.29,16.29,0,0,1,722.05,571Z" transform="translate(-51.73 -43.21)"/><path class="cls-17" d="M720.69,570.24v5.86s-.59,9.1-5.27,23c-.12.36-.25.7-.38,1.07s-.31.81-.48,1.2c-.39.93-.82,1.84-1.28,2.7h0a46.73,46.73,0,0,1-12.78,14.63l-1.4,1h0c-.7.47-1.2.82-1.52,1l-.35.22c-3.32-2-12.75-2.38-12.75-2.38l-22,4a126.59,126.59,0,0,1-14.54,1.65l-2.49.12c-1.45.06-2.94.09-4.48.1-1.24,0-2.5,0-3.78,0h0a91.47,91.47,0,0,1-12.35-1.15,60.92,60.92,0,0,1-6.66-1.48,47,47,0,0,1-4.61-1.54c-15.4-6-11.39-20.39-8.79-26.6l.39-.91c.58-1.27,1-2,1-2l1-2.47h0l1.67-4,.37-.89.11-.26,1.24-3,17.5-2.27,12.85-1.67,3.92-.5,2.65-.34,5.06-.66,1.91-.25a24.72,24.72,0,0,1,3.54-.28,5,5,0,0,1,1.89.28c1.4.64,12.07-1.1,12.07-1.1s8.33-2.55,15.63-1.7a87.45,87.45,0,0,0,10.86.07h0l.9,0,1.16,0h.25C710.19,571.13,720.69,570.24,720.69,570.24Z" transform="translate(-51.73 -43.21)"/><path class="cls-5" d="M657.73,587.82s-8.4,19.12-8.75,19.45-.34,6.31,0,6,12-26.16,12-26.16Z" transform="translate(-51.73 -43.21)"/><path class="cls-5" d="M698.43,571.65s-4.25,2.75-5.53,5S680,600.82,677.11,604.05a70,70,0,0,0-6.47,9.19c-.33.58-.33,4.23,1.71.75s1.53-4.08,5.52-8.4,8.4-14.11,10.11-16.06,4.08-7.82,7-11.31l5.7-6.65Z" transform="translate(-51.73 -43.21)"/><path class="cls-5" d="M699.45,609.4s-3-2-5.78,1.44S699.45,609.4,699.45,609.4Z" transform="translate(-51.73 -43.21)"/><path class="cls-5" d="M703.1,610.45s-2.46,4.3-3.65,4.64S703.1,610.45,703.1,610.45Z" transform="translate(-51.73 -43.21)"/><path class="cls-5" d="M699.45,611.52s-2,3.41-3.65,3.06Z" transform="translate(-51.73 -43.21)"/><path class="cls-24" d="M685.69,519.68s18-.77,19.8-1.36,17.58-2.63,17.58-2.63,46.82,3.31,33.49,7.3-31.44,2.29-31.44,2.29-17.68,4.6-20.39,7S682,534.75,682,534.75Z" transform="translate(-51.73 -43.21)"/><path class="cls-25" d="M685.69,519.68s18-.77,19.8-1.36,17.58-2.63,17.58-2.63,46.82,3.31,33.49,7.3-31.44,2.29-31.44,2.29-17.68,4.6-20.39,7S682,534.75,682,534.75Z" transform="translate(-51.73 -43.21)"/><path class="cls-16" d="M621.62,478.64s-16.48,5.6-8.49,19.88,18.27,21,18.27,21l26.5,18.36s11.13,6.37,16.23,3.74l8.32-.7,1.4-21.84s-7,5.43-14.61-2.11-17-12.66-17.76-16.73S631.22,475.16,621.62,478.64Z" transform="translate(-51.73 -43.21)"/><path class="cls-18" d="M673.7,524.86s8.59,3.06,8.25,3.23-8.25,3.14-8.25,3.14l.6,11.65,11.64-.64s4.25-21.2.59-23.33l-12.83-.59Z" transform="translate(-51.73 -43.21)"/><path class="cls-5" d="M673.7,524.86s8.59,3.06,8.25,3.23-8.25,3.14-8.25,3.14l.6,11.65,11.64-.64s4.25-21.2.59-23.33l-12.83-.59Z" transform="translate(-51.73 -43.21)"/><path class="cls-5" d="M656.29,462a16.27,16.27,0,0,0-2.68,4.16c-.11.23-.21.45-.31.7-6.25,0-10.75-4.86-14.58-9.21-.7-.8-2.47.42-3.05-.49l-.2-.31.2-.37c2.1-4,3.63-7.38,3.63-7.38s.7.22,1.83.62C646.36,451.56,660.76,457.24,656.29,462Z" transform="translate(-51.73 -43.21)"/><path class="cls-24" d="M674.49,445.08a21.07,21.07,0,0,1-20.87,21.07h-.2A21.07,21.07,0,0,1,637.61,459a22,22,0,0,1-1.93-2.56,21.08,21.08,0,1,1,38.81-11.37Z" transform="translate(-51.73 -43.21)"/><path class="cls-5" d="M653.06,575.75s-1.6,2-3.37,3.79a13.19,13.19,0,0,1-3.69,3c-2.1.77-11.72,8.07-11.72,8.07s-7.64,5.19-9.6,6.71-9,.6-9,.6-6.79-1.48-11-4.2a25.94,25.94,0,0,1,1.4-2.91l4.41-10.71,17.5-2.26Z" transform="translate(-51.73 -43.21)"/><path class="cls-18" d="M652.72,574.4s-1.6,2-3.37,3.78a13.76,13.76,0,0,1-3.68,3c-2.1.77-11.73,8.07-11.73,8.07s-7.65,5.19-9.6,6.72-9,.59-9,.59-9.69-2.1-13.09-6c-2.38-2.68.08-7.65,1.76-10.39a21.68,21.68,0,0,1,1.3-1.93Z" transform="translate(-51.73 -43.21)"/><path class="cls-18" d="M665.3,508.55c-5.79-.51-24.82-23.8-24.82-23.8l.44-.6,4-5.52h9.33l1,5.09c7.09,10,11.27,16.88,12.41,20.84C668.5,507.45,667.72,508.76,665.3,508.55Z" transform="translate(-51.73 -43.21)"/><path class="cls-5" d="M665.3,508.55c-5.79-.51-24.82-23.8-24.82-23.8l.44-.6a106.91,106.91,0,0,1,9.59,10c13.93,16.39,16.69,11.81,17.17,10.38C668.5,507.45,667.72,508.76,665.3,508.55Z" transform="translate(-51.73 -43.21)"/><path class="cls-5" d="M652.72,574.4s-1.6,2-3.37,3.78a9.42,9.42,0,0,1-2.92.63c-2.21-.08-7.31,3.41-7.31,3.41s-9-.52-10.7.41-8.25,1.11-8.25,1.11c-12,3.42-15.28-1.77-16.16-3.5a20,20,0,0,1,1.3-1.93Z" transform="translate(-51.73 -43.21)"/><path class="cls-16" d="M673.52,523.8a7.58,7.58,0,0,1-.1,1c0,.32-.09.64-.14.94a15.14,15.14,0,0,1-1.53,5c-1.53,2.55-6.2,12.49-6.2,12.49l-.32,1.84-.16,1-.17.94-1.14,6.7-.51,7.73s-2.8,3.91-4,5.6-1,4.17-.59,6-3.91,2-3.91,2-6.12,3-8.33,2.89-7.31,3.39-7.31,3.39-9-.51-10.7.43-8.25,1.1-8.25,1.1c-12.82,3.65-15.71-2.55-16.31-3.83s2.55-6.45,2.55-6.45.7-6.54,2-7.06,3-9.17,3-9.17-.51-2.63.6-4.08,1-5.52,2.46-7.47-1.52-8.5-1-10.2-1.62-8.58-1.45-10.37-.42-3.23-1.79-6.8c-1.16-3-.83-16.57-.7-20.45,0-.66,0-1,0-1s1.19-3.82,4.33-11.47c2.38-5.79,7.74-8,10.19-8.69a11.57,11.57,0,0,1,1.29-.32,8.65,8.65,0,0,1,1.8.46c2.48.83,7.44,3.19,14.51,9.8a109.65,109.65,0,0,1,8.84,9.32c15.94,18.73,17.24,10,17.24,10s.7,1.6,4,8A20.2,20.2,0,0,1,673.52,523.8Z" transform="translate(-51.73 -43.21)"/><path class="cls-5" d="M647.28,477.6l-16-12.75s-5.76.7-8.14,10.37l16.46,14.41Z" transform="translate(-51.73 -43.21)"/><path class="cls-18" d="M647.28,477.6l-2.8,3.91-2.84,4-2.15,3.15L626.36,477.6l-2.27-2-1.26-1.08c1.28-5.23,3.55-7.84,5.37-9.1a6.58,6.58,0,0,1,2.8-1.25Z" transform="translate(-51.73 -43.21)"/><path class="cls-24" d="M757.23,528.09c-13.34,4-31.44,2.3-31.44,2.3s-17.67,4.58-20.39,7c-1.75,1.53-10.69,2.1-16.8,2.33-3.4.12-5.94.13-5.94.13l3.73-15.07,2.16-.1c4.84-.22,16.24-.8,17.64-1.26,1.79-.6,17.58-2.64,17.58-2.64S770.56,524.09,757.23,528.09Z" transform="translate(-51.73 -43.21)"/><path class="cls-5" d="M673.28,525.68a15.21,15.21,0,0,1-1.53,5c-1.53,2.55-6.2,12.49-6.2,12.49l-.65,3.77a47.79,47.79,0,0,1-6.3-2.9l-26.53-18.37s-10.28-6.72-18.27-21,8.5-19.88,8.5-19.88c9.6-3.5,29.06,17.5,29.82,21.58s10.12,9.17,17.76,16.73A15.43,15.43,0,0,0,673.28,525.68Z" transform="translate(-51.73 -43.21)"/><path class="cls-5" d="M673.52,523.8c-.06.67-.14,1.3-.24,1.91a15.14,15.14,0,0,1-1.53,5c-1.53,2.55-6.2,12.49-6.2,12.49l-.32,1.84a45.74,45.74,0,0,1-6.65-3l-26.51-18.38s-10.28-6.71-18.27-21,8.5-19.89,8.5-19.89c9.6-3.5,29.06,17.5,29.82,21.58s10.12,9.18,17.76,16.75A15.58,15.58,0,0,0,673.52,523.8Z" transform="translate(-51.73 -43.21)"/><path class="cls-16" d="M684.5,524.18,683.14,546l-8.33.7a3.61,3.61,0,0,1-.57.24c-5.3,1.95-15.66-4-15.66-4l-26.51-18.37s-10.28-6.72-18.27-21,8.5-19.88,8.5-19.88c9.6-3.5,29.06,17.5,29.82,21.58s10.12,9.17,17.76,16.73a15.23,15.23,0,0,0,3.82,2.8A10.42,10.42,0,0,0,684.5,524.18Z" transform="translate(-51.73 -43.21)"/><path class="cls-5" d="M684.5,524.18,683.14,546l-8.33.7a3.61,3.61,0,0,1-.57.24l-.54-10.61s7.91-3,8.25-3.14S673.7,530,673.7,530v-5.07A10.45,10.45,0,0,0,684.5,524.18Z" transform="translate(-51.73 -43.21)"/><path class="cls-5" d="M688.56,539.68c-3.39.13-5.93.14-5.93.14l3.76-15,2.16-.1C689.94,527.07,689.34,534.08,688.56,539.68Z" transform="translate(-51.73 -43.21)"/><path class="cls-18" d="M674.38,530s8.58,3.06,8.25,3.23-8.25,3.14-8.25,3.14L675,548l11.64-.64s4.25-21.19.59-23.32l-12.83-.59Z" transform="translate(-51.73 -43.21)"/><path class="cls-5" d="M623.49,543.9s-2.89,2.71-5.27,3.43Z" transform="translate(-51.73 -43.21)"/><path class="cls-5" d="M616.61,552s7-.26,7.9-1.7S616.61,552,616.61,552Z" transform="translate(-51.73 -43.21)"/><path class="cls-5" d="M613.13,562.08c.42,0,8.91-1.19,9.26-2.3Z" transform="translate(-51.73 -43.21)"/><path class="cls-5" d="M610.49,568.54c3.06-.09,8.24-3.41,8.24-3.41Z" transform="translate(-51.73 -43.21)"/><path class="cls-5" d="M630.29,570.23s18.44,0,19.28-3.39S630.29,570.23,630.29,570.23Z" transform="translate(-51.73 -43.21)"/><path class="cls-5" d="M644.14,522.74c.34,0,14.53,0,15.89-2S644.14,522.74,644.14,522.74Z" transform="translate(-51.73 -43.21)"/><path class="cls-5" d="M628.51,467.1a12.32,12.32,0,0,1,.18,2.1,13,13,0,0,1-.21,2.33,20.3,20.3,0,0,1-1.31,4.25l-.15.34q-.32.74-.66,1.44a39.16,39.16,0,0,1-3.67,6.05,66,66,0,0,1-11,11.45c-.71.6-1.43,1.19-2.16,1.78,0-.66,0-1,0-1s1.19-3.83,4.33-11.48c2.38-5.78,7.73-8,10.19-8.69l-1.27-1.08c1.28-5.23,3.56-7.84,5.37-9.1C628.29,466,628.43,466.53,628.51,467.1Z" transform="translate(-51.73 -43.21)"/><path class="cls-5" d="M671.41,434.14a2.7,2.7,0,0,0-.61.25c-1.33.73-1.72,2.48-2.8,3.58-1.25,1.29-3.21,1.49-5,1.71s-3.78.67-4.72,2.2c-.7,1.14-.64,2.58-.89,3.89a1,1,0,0,1-1.13.93c-3.5.24-6-1-9.32-1.81a5,5,0,0,0-4.51.7,5.1,5.1,0,0,0-1.33,4v.13a26.77,26.77,0,0,1,.12,4.2,6.9,6.9,0,0,1-3.66,5.13,6.42,6.42,0,0,1-2.64.75,2.09,2.09,0,0,1-1-.15c.62-1.06,1.21-2.1,1.76-3.16A21.08,21.08,0,0,1,671,433.56l.36.58Z" transform="translate(-51.73 -43.21)"/><path class="cls-17" d="M677.18,431.46a3.53,3.53,0,0,1-1.17,1.43c-1.59,1-3.88-.1-5.55.82-1.33.73-1.71,2.48-2.8,3.58-1.24,1.29-3.2,1.49-5,1.71s-3.77.67-4.72,2.2c-.7,1.14-.63,2.57-.89,3.89a1.21,1.21,0,0,1-.27.65,1.33,1.33,0,0,1-.86.28c-3.5.24-6-1-9.32-1.81a5,5,0,0,0-4.5.7,4.86,4.86,0,0,0-1.34,4,29.52,29.52,0,0,1,.13,4.31,7,7,0,0,1-6.3,5.89,1.71,1.71,0,0,1-1.29-.33,1.89,1.89,0,0,1-.43-.77c-2.33-6.55-2.31-13.83-5.14-20.18a23.7,23.7,0,0,1-1.18-2.8c0-.2-.11-.4-.15-.6a8.66,8.66,0,0,1-.17-1.23,1.82,1.82,0,0,0-.8.33,1.26,1.26,0,0,0-.22.24,4.13,4.13,0,0,0-.59,2.22,84.18,84.18,0,0,0,2.52,26,26.87,26.87,0,0,1,1.21,6.53,17.48,17.48,0,0,1-1.68,6.92c-4.39,10.12-13.21,17.54-22,24.23a9.73,9.73,0,0,0,2.6-7.23,2.83,2.83,0,0,1-2.21,2,8.45,8.45,0,0,1-3.13-.05c1.34-.44,1.87-2,2.2-3.39.69-2.8,1.32-5.63,1.91-8.48a52.56,52.56,0,0,0,1.23-8.27c.11-2.37-.07-4.74-.17-7.12a144.15,144.15,0,0,1,.7-19.49c.52-5.6,1.46-11.66,5.56-15.48a24.57,24.57,0,0,1,5.88-3.67c0-.7,5.14-2.1,5.81-2.19a5,5,0,0,1,.86-.1,1.77,1.77,0,0,1,1.83,1,14.79,14.79,0,0,1,.82-1.33,16.63,16.63,0,0,1,1.33-1.68c2.67-2.94,6.13-5,9.21-7.5a24.07,24.07,0,0,1,3.67-2.7,13.17,13.17,0,0,1,5.5-1.4,22.37,22.37,0,0,1,9.27,1.45c4.26,1.64,8,4.58,12.38,5.77a29.94,29.94,0,0,1,3.21.89,7.77,7.77,0,0,1,4.37,10.1,5.37,5.37,0,0,1-.31.69Z" transform="translate(-51.73 -43.21)"/><g class="cls-19"><path d="M606.29,494.15a9.69,9.69,0,0,0,.64-4.13,2.86,2.86,0,0,1-2.23,2,3.6,3.6,0,0,1-.81.12,3.52,3.52,0,0,1-2,2.55,8.67,8.67,0,0,0,3.13.06A3.38,3.38,0,0,0,606.29,494.15Z" transform="translate(-51.73 -43.21)"/><path d="M677.69,425.88a7.78,7.78,0,0,1-.84,3.17,3.56,3.56,0,0,1-1.18,1.4c-1.59,1-3.88-.09-5.55.82-1.33.74-1.72,2.49-2.8,3.58-1.25,1.3-3.21,1.5-5,1.72s-3.78.7-4.72,2.19c-.7,1.15-.64,2.58-.89,3.9a1,1,0,0,1-1,.94h-.11c-3.5.24-6.05-1-9.32-1.82a5,5,0,0,0-4.51.7,5.12,5.12,0,0,0-1.33,4,28.18,28.18,0,0,1,.12,4.31,7,7,0,0,1-6.3,5.89,1.71,1.71,0,0,1-1.29-.33,1.89,1.89,0,0,1-.43-.77c-2.33-6.56-2.31-13.83-5.14-20.18a25.5,25.5,0,0,1-1.18-2.8,8.1,8.1,0,0,1-.33-1.82,1.52,1.52,0,0,0-1,.56,4.32,4.32,0,0,0-.59,2.22,85,85,0,0,0,.7,16.8,85.13,85.13,0,0,1-.34-14.1,4.13,4.13,0,0,1,.59-2.22,1.48,1.48,0,0,1,1-.56,8.57,8.57,0,0,0,.32,1.82,24.71,24.71,0,0,0,1.18,2.8c2.8,6.36,2.8,13.63,5.14,20.18a2,2,0,0,0,.44.78,1.69,1.69,0,0,0,1.28.38,7,7,0,0,0,6.3-5.89,29.52,29.52,0,0,0-.13-4.31,5.24,5.24,0,0,1,1.34-4,4.89,4.89,0,0,1,4.5-.7c3.28.84,5.81,2.05,9.32,1.81a1.33,1.33,0,0,0,.86-.28,1.21,1.21,0,0,0,.27-.65c.26-1.32.18-2.75.89-3.89.95-1.53,2.94-2,4.72-2.2s3.76-.42,5-1.71c1.06-1.1,1.43-2.84,2.8-3.59,1.66-.91,3.95.23,5.55-.81a3.55,3.55,0,0,0,1.17-1.43A8,8,0,0,0,677.69,425.88Z" transform="translate(-51.73 -43.21)"/><path d="M628,466.12a17.3,17.3,0,0,1-1.67,6.92c-3.93,9-11.4,15.94-19.21,22.08a9.81,9.81,0,0,1-2.43,4.9c8.76-6.69,17.6-14.1,22-24.23a17.44,17.44,0,0,0,1.68-6.92,15.58,15.58,0,0,0-.36-3A2.44,2.44,0,0,1,628,466.12Z" transform="translate(-51.73 -43.21)"/></g><path class="cls-5" d="M628.89,425.8c-.63,2.9-1.5,6.66-2.15,8.6a10,10,0,0,1-.17-1.22,1.67,1.67,0,0,0-.79.33c0-2,.25-5.07.46-7.34a1.77,1.77,0,0,1,1.83,1A11.62,11.62,0,0,1,628.89,425.8Z" transform="translate(-51.73 -43.21)"/><path class="cls-18" d="M628.55,425.8c-.63,2.9-1.49,6.66-2.15,8.6a9.93,9.93,0,0,1-.16-1.22,1.67,1.67,0,0,0-.8.33c0-2,.24-5.07.46-7.34a1.77,1.77,0,0,1,1.83,1C628,426.68,628.29,426.23,628.55,425.8Z" transform="translate(-51.73 -43.21)"/><g class="cls-26"><path class="cls-27" d="M771.09,268.7h116V381.5h-116Z" transform="translate(-51.73 -43.21)"/><path class="cls-28" d="M765.85,263.4V386.77H892.36V263.4Zm5.27,5.28h116V381.5h-116Z" transform="translate(-51.73 -43.21)"/><path class="cls-28" d="M857.73,315.24a7.15,7.15,0,0,0-3.06-.53c-6.64,0-11.07,5.12-11.07,13.6,0,9.7,4.54,13.6,10.44,13.6a9.82,9.82,0,0,0,3.64-.58V315.24Zm-23.64,13.5c0-12.29,7.91-21.88,20.88-21.88a20.93,20.93,0,0,1,2.74.11V293.26a.53.53,0,0,1,.53-.53h8.48c.42,0,.53.16.53.43v48.17a37.23,37.23,0,0,0,.26,5.17c0,.37,0,.42-.31.58a31.54,31.54,0,0,1-13.5,3.06c-11.44,0-19.6-7.07-19.6-21.4Zm-18-8.54,14.78,28.6c.26.42.1.84-.32.84h-9.17a1,1,0,0,1-1.11-.7Q815.24,338.5,810,327.27h-.1c-3.17,7.07-6.65,14.77-10,21.7a1,1,0,0,1-1,.59h-8.75c-.53,0-.58-.43-.32-.75L804.27,321l-14-27.54a.46.46,0,0,1,0-.66.45.45,0,0,1,.35-.13h9.07c.52,0,.79.1.94.58,3.33,7,6.7,13.92,9.86,21h.11c3.05-7,6.42-14,9.64-20.87.26-.43.42-.7,1-.7h8.49c.42,0,.57.31.32.79l-13.92,26.72Z" transform="translate(-51.73 -43.21)"/></g><g class="cls-26"><path class="cls-29" d="M290.41,314.12l39.64,77.57-66.62-77.57Z" transform="translate(-51.73 -43.21)"/><path id="dcb2c17a-6570-4f03-a416-11c2a206e419" class="cls-29" d="M369.69,314.12l-39.64,77.57,66.61-77.57Z" transform="translate(-51.73 -43.21)"/><path id="d2c5ae9b-dccc-4d4c-8aa0-840002be2480" class="cls-30" d="M290.41,314.12h79.26l-39.62,77.57Z" transform="translate(-51.73 -43.21)"/><path class="cls-31" d="M330.05,271.14l-37.55,4-2.1,39Z" transform="translate(-51.73 -43.21)"/><path id="ca73b31d-b223-4f6c-ac2e-edd2597912ec" class="cls-31" d="M330.05,271.14l37.54,4,2.1,39Z" transform="translate(-51.73 -43.21)"/><path class="cls-30" d="M396.66,314.12l-29.06-39,2.1,39Z" transform="translate(-51.73 -43.21)"/><path class="cls-30" d="M263.43,314.12l29.07-39-2.1,39Z" transform="translate(-51.73 -43.21)"/><path class="cls-32" d="M330.05,271.14l-39.64,43h79.26Z" transform="translate(-51.73 -43.21)"/></g></svg>