<svg id="Capa_1" data-name="Capa 1" xmlns="http://www.w3.org/2000/svg" xmlns:xlink="http://www.w3.org/1999/xlink" viewBox="0 0 501.59 493.93"><defs><style>.cls-1{fill:none;}.cls-2{fill:#473cba;}.cls-3{fill:#79a1e8;}.cls-4{fill:#d7ecf9;}.cls-5{fill:#f9d015;}.cls-6{fill:#7693dd;}.cls-7{fill:#4b31aa;}.cls-8{opacity:0.48;}.cls-9{fill:#c2c3c9;}.cls-10{fill:url(#Degradado_sin_nombre_9);}.cls-11{fill:#fff;}.cls-12{fill:#7bc5f8;}.cls-13{fill:#395398;}.cls-14{clip-path:url(#clip-path);}</style><linearGradient id="Degradado_sin_nombre_9" x1="188.99" y1="171.1" x2="372.51" y2="17.95" gradientUnits="userSpaceOnUse"><stop offset="0" stop-color="#f9ed32"/><stop offset="0.05" stop-color="#f8e236"/><stop offset="0.13" stop-color="#f7c441"/><stop offset="0.24" stop-color="#f49354"/><stop offset="0.38" stop-color="#f0506d"/><stop offset="0.45" stop-color="#ee2a7b"/><stop offset="0.54" stop-color="#bd2a96"/><stop offset="0.71" stop-color="#6d2ac3"/><stop offset="0.85" stop-color="#322ae3"/><stop offset="0.95" stop-color="#0e2af7"/><stop offset="1" stop-color="#002aff"/></linearGradient><clipPath id="clip-path" transform="translate(-10.2 -6.03)"><path class="cls-1" d="M345.43,204.93a104,104,0,0,0-62,2.15c-22.46,7.89-47.07,25-35.8,61.95,19.32,63.23,71.75,75,96.6,49.18C357.89,304,420.52,225.55,345.43,204.93Z"/></clipPath></defs><title>social-media</title><ellipse class="cls-2" cx="443.1" cy="484.43" rx="32.5" ry="9.5"/><path class="cls-3" d="M473.8,179.86c32.8-23.8,68.7-107.1-6.4-157s-199.5,29.2-267.3,7.3C133,8.46-23.8-14.74,38.5,170.76c48.9,145.6-66,243.5,48,289.6s253.6-98.2,265.8-187.1S443.3,201.86,473.8,179.86Z" transform="translate(-10.2 -6.03)"/><polygon class="cls-4" points="443.1 137.63 421.7 180.23 464.4 180.23 443.1 137.63"/><polygon class="cls-5" points="421.7 180.23 421.7 180.23 421.7 394.73 464.4 394.73 464.4 180.23 464.4 180.23 421.7 180.23"/><path class="cls-6" d="M431.9,400.76v20.6a21.42,21.42,0,0,0,21.4,21.4h0a21.42,21.42,0,0,0,21.4-21.4v-20.6Z" transform="translate(-10.2 -6.03)"/><path class="cls-7" d="M474.6,190.36H431.9a4.1,4.1,0,1,1,0-8.2h42.7a4.1,4.1,0,0,1,0,8.2Z" transform="translate(-10.2 -6.03)"/><rect class="cls-4" x="421.7" y="386.93" width="42.7" height="14.2"/><path class="cls-7" d="M454,309.66a4.06,4.06,0,0,1-4.1-4.1v-41.3a4.1,4.1,0,0,1,8.2,0v41.3A4.12,4.12,0,0,1,454,309.66Z" transform="translate(-10.2 -6.03)"/><path class="cls-7" d="M454,392.16a4.06,4.06,0,0,1-4.1-4.1v-61.9a4.1,4.1,0,0,1,8.2,0v61.9A4.06,4.06,0,0,1,454,392.16Z" transform="translate(-10.2 -6.03)"/><path class="cls-6" d="M55.5,165.06a4,4,0,0,1-2.9-1.2,4.1,4.1,0,0,1,0-5.8l41.3-41.3a4.1,4.1,0,1,1,5.8,5.8l-41.2,41.3A4.23,4.23,0,0,1,55.5,165.06Z" transform="translate(-10.2 -6.03)"/><path class="cls-6" d="M107.2,165.06a4,4,0,0,1-2.9-1.2,4.1,4.1,0,0,1,0-5.8l41.3-41.3a4.1,4.1,0,1,1,5.8,5.8l-41.3,41.3A4.18,4.18,0,0,1,107.2,165.06Z" transform="translate(-10.2 -6.03)"/><path class="cls-7" d="M478.8,186.26h0a2,2,0,0,0-.1-.8v-.1a1.85,1.85,0,0,0-.2-.7c0-.1,0-.1-.1-.2s0-.1-.1-.2l-20.9-41.7v-3.4a4.1,4.1,0,1,0-8.2,0v3.4l-20.9,41.7c0,.1,0,.1-.1.2s-.1.1-.1.2a1.45,1.45,0,0,0-.2.7v.1c0,.2-.1.5-.1.7v235.3a25.5,25.5,0,0,0,51,0V186.26Zm-25.5-33.4,14.7,29.3H438.6Zm17.2,37.5v198.4H436V190.36ZM436,403.06v-6h34.5v6Zm17.3,35.6a17.2,17.2,0,0,1-17.2-17.2v-10.1h34.5v10.1A17.35,17.35,0,0,1,453.3,438.66Z" transform="translate(-10.2 -6.03)"/><ellipse class="cls-2" cx="192.4" cy="484.43" rx="134.2" ry="9.5"/><path class="cls-7" d="M14.3,443.86a4.06,4.06,0,0,1-4.1-4.1v-31a4.1,4.1,0,0,1,8.2,0v31A4.19,4.19,0,0,1,14.3,443.86Z" transform="translate(-10.2 -6.03)"/><path class="cls-7" d="M34.9,474.76a4.06,4.06,0,0,1-4.1-4.1v-31a4.1,4.1,0,0,1,8.2,0v31A4.06,4.06,0,0,1,34.9,474.76Z" transform="translate(-10.2 -6.03)"/><path class="cls-7" d="M453.3,103.16a4.06,4.06,0,0,1-4.1-4.1v-31a4.1,4.1,0,1,1,8.2,0v31A4.06,4.06,0,0,1,453.3,103.16Z" transform="translate(-10.2 -6.03)"/><g class="cls-8"><rect class="cls-9" x="190.47" y="50.41" width="129.15" height="129.15" rx="60.77"/></g><path class="cls-10" d="M290.69,58.15a104.07,104.07,0,0,0-62,2.15c-22.46,7.89-47.07,25-35.8,62,19.32,63.23,71.75,75,96.61,49.18C303.14,157.24,365.77,78.77,290.69,58.15Z" transform="translate(-10.2 -6.03)"/><path class="cls-11" d="M275,160.94H238.68a29.27,29.27,0,0,1-29.23-29.23v-32a29.26,29.26,0,0,1,29.23-29.23H275A29.27,29.27,0,0,1,304.23,99.7v32A29.27,29.27,0,0,1,275,160.94ZM238.68,77A22.75,22.75,0,0,0,216,99.7v32a22.75,22.75,0,0,0,22.73,22.73H275a22.76,22.76,0,0,0,22.73-22.73v-32A22.76,22.76,0,0,0,275,77Z" transform="translate(-10.2 -6.03)"/><path class="cls-11" d="M256.84,141.72a26,26,0,1,1,26-26A26,26,0,0,1,256.84,141.72Zm0-45.54a19.53,19.53,0,1,0,19.52,19.52A19.55,19.55,0,0,0,256.84,96.18Z" transform="translate(-10.2 -6.03)"/><path class="cls-11" d="M287.86,90.48a5.4,5.4,0,1,1-5.4-5.39A5.4,5.4,0,0,1,287.86,90.48Z" transform="translate(-10.2 -6.03)"/><g class="cls-8"><rect class="cls-9" x="54.76" y="213.11" width="129.15" height="129.15" rx="60.77"/></g><path class="cls-12" d="M152,221.27a104.23,104.23,0,0,0-62,2.15c-22.45,7.9-47.07,25.06-35.79,62,19.32,63.23,71.75,75,96.6,49.18C164.48,320.37,227.12,241.9,152,221.27Z" transform="translate(-10.2 -6.03)"/><polygon class="cls-11" points="146.81 245.12 146.81 245.12 146.81 245.12 146.81 245.12"/><path class="cls-11" d="M153.88,259.28a11,11,0,0,1-3.1.4l.06-.33c1.61-1.29,5.67-5.25,6.21-7.1.23-.8,0-1.07-.05-1.1l-5.19,2.2-4.34,2h0a17.34,17.34,0,0,0-12.61-5.19c-9,0-16.35,6.39-16.35,14.29a21.4,21.4,0,0,0,.67,5.39c0,.41,0-.42,0,0-5.82-.16-13.27-2.55-19.9-5.91-13.1-6.63-13.91-11.22-13.91-11.22-2.06,2.18-3.12,9.41-1,15.08,1.34,3.62,5.92,6.88,5.92,6.88h0a13.81,13.81,0,0,1-4.2-.69,9.18,9.18,0,0,1-3-1.44c-1.27,3.11,1.29,8.68,5.72,12.67,2.58,2.33,7.3,3.78,7.3,3.78l-7.37.21c-.42,7.16,15,11.42,15,11.42h0a25.28,25.28,0,0,1-15.4,5.59A29.34,29.34,0,0,1,80,304.94c7.44,6.12,17,10.35,27.37,9.8,27.56-1.44,43.11-25.13,43.85-48.39l0,0a19.62,19.62,0,0,0,4-3.41,28.33,28.33,0,0,0,4.47-6S155.61,258.8,153.88,259.28Z" transform="translate(-10.2 -6.03)"/><path class="cls-11" d="M157,251.15c0,.44,0,0,0,0Z" transform="translate(-10.2 -6.03)"/><g class="cls-8"><rect class="cls-9" x="247.08" y="199.06" width="129.15" height="129.15" rx="60.77"/></g><path class="cls-13" d="M345.43,204.93a104,104,0,0,0-62,2.15c-22.46,7.89-47.07,25-35.8,61.95,19.32,63.23,71.75,75,96.6,49.18C357.89,304,420.52,225.55,345.43,204.93Z" transform="translate(-10.2 -6.03)"/><g class="cls-14"><path class="cls-11" d="M321.18,334.76V288h15.69l2.35-18.21h-18V258.18c0-5.28,1.47-8.87,9-8.87h9.64V233a130,130,0,0,0-14.05-.71c-13.91,0-23.43,8.49-23.43,24.07v13.44H286.64V288h15.73v46.74Z" transform="translate(-10.2 -6.03)"/></g></svg>