<?xml version="1.0" encoding="utf-8"?>
<!-- Generator: Adobe Illustrator 23.0.1, SVG Export Plug-In . SVG Version: 6.00 Build 0)  -->
<svg version="1.1"
	 id="svg5103" xmlns:cc="http://creativecommons.org/ns#" xmlns:dc="http://purl.org/dc/elements/1.1/" xmlns:rdf="http://www.w3.org/1999/02/22-rdf-syntax-ns#" xmlns:svg="http://www.w3.org/2000/svg"
	 xmlns="http://www.w3.org/2000/svg" xmlns:xlink="http://www.w3.org/1999/xlink" x="0px" y="0px" viewBox="0 0 60 37"
	 style="enable-background:new 0 0 60 37;" xml:space="preserve">
<style type="text/css">
	.st0{fill:#150773;}
	.st1{fill:none;stroke:#11E7C4;stroke-width:5.5714;stroke-miterlimit:10;}
</style>
<g id="layer1" transform="translate(0,-1015.3622)">
	<g id="g5423" transform="translate(-662.91326,653.12321)">
		<g id="g3053" transform="matrix(0.89971518,0,0,-0.89516851,673.73282,380.73944)">
			<path id="path3055" class="st0" d="M0,0c0-11.4,9.3-20.7,20.7-20.7S41.3-11.4,41.3,0c0,11.4-9.3,20.7-20.7,20.7S0,11.4,0,0"/>
		</g>
		<g id="g3057" transform="matrix(0.89971518,0,0,-0.89516851,665.49125,389.29251)">
			<path id="path3059" class="st1" d="M0,0c1.3-4.5,15.9-4.3,32.8,0.4S62.2,12.5,61,17c-1.3,4.5-15.9,4.3-32.8-0.4
				C11.4,12-1.3,4.5,0,0z"/>
		</g>
		<g id="g3061" transform="matrix(0.89971518,0,0,-0.89516851,692.32633,362.239)">
			<path id="path3063" class="st0" d="M0,0c-11.4,0-20.7-9.3-20.7-20.7c0-2.3,0.4-4.5,1.1-6.5l39.6,11.5C17.8-6.7,9.7,0,0,0"/>
		</g>
	</g>
</g>
</svg>
