<svg id="Capa_1" data-name="Capa 1" xmlns="http://www.w3.org/2000/svg" viewBox="0 0 512 512"><defs><style>.cls-1{fill:#79a1e8;}.cls-2{fill:#473cba;}.cls-3{fill:#d7ecf9;}.cls-4{fill:#b3d4e5;}.cls-5{fill:#f9d015;}.cls-6{fill:#fbb03b;}.cls-7{fill:#4b31aa;}.cls-8{fill:#fff;}.cls-9{fill:#cfddf7;}.cls-10{fill:#f7931e;}.cls-11{fill:#e07e1e;}</style></defs><title>speed-2</title><path class="cls-1" d="M75.44,95.86c-37,7-91.19,80.7-48,152s188.77,26.67,218,85.47S430.77,477.22,465,303.86c23.92-121.2,50-185.47-9.16-247.55C377-26.41,285-8.14,217,47.86,154.75,99.11,130.52,85.47,75.44,95.86Z"/><path class="cls-2" d="M488.6,373.33H309.51a17.59,17.59,0,0,1-17.59-17.59V176.07a17.59,17.59,0,0,1,17.59-17.59H488.6a17.6,17.6,0,0,1,17.59,17.59V355.74A17.6,17.6,0,0,1,488.6,373.33Z"/><path class="cls-3" d="M476.7,373.33H297.61A17.59,17.59,0,0,1,280,355.74V176.07a17.59,17.59,0,0,1,17.59-17.59H476.7a17.6,17.6,0,0,1,17.59,17.59V355.74A17.6,17.6,0,0,1,476.7,373.33Z"/><path class="cls-4" d="M476.7,158.48h-8.07L280,347.1v8.64a17.6,17.6,0,0,0,17.59,17.59H476.69a17.59,17.59,0,0,0,17.59-17.59V176.07A17.58,17.58,0,0,0,476.7,158.48Z"/><path class="cls-5" d="M494.29,176.07a17.6,17.6,0,0,0-17.59-17.59H297.61A17.59,17.59,0,0,0,280,176.07v11.72H494.29V176.07Z"/><path class="cls-6" d="M494.29,176.07a17.6,17.6,0,0,0-17.59-17.59h-8.07l-29.31,29.31h55Z"/><path class="cls-7" d="M488.6,154.48h-191A21.62,21.62,0,0,0,276,176.07V355.74a21.62,21.62,0,0,0,21.6,21.59h191a21.62,21.62,0,0,0,21.59-21.59V176.07A21.62,21.62,0,0,0,488.6,154.48ZM284,176.07a13.61,13.61,0,0,1,13.6-13.59H476.7a13.61,13.61,0,0,1,13.59,13.59v7.72H284ZM329.7,369.33H297.6A13.61,13.61,0,0,1,284,355.74v-164H490.28v164a13.6,13.6,0,0,1-13.59,13.59Zm172.49-13.59A13.6,13.6,0,0,1,494.46,368a21.44,21.44,0,0,0,3.83-12.24V176.07a21.44,21.44,0,0,0-3.83-12.24,13.6,13.6,0,0,1,7.73,12.24V355.74Z"/><circle class="cls-7" cx="300.85" cy="173.36" r="2.98"/><path class="cls-7" d="M300.85,180.34a7,7,0,1,1,7-7A7,7,0,0,1,300.85,180.34Zm0-8a1,1,0,1,0,1,1A1,1,0,0,0,300.85,172.34Z"/><circle class="cls-7" cx="318.7" cy="173.36" r="2.98"/><path class="cls-7" d="M318.7,180.34a7,7,0,1,1,7-7A7,7,0,0,1,318.7,180.34Zm0-8a1,1,0,1,0,1,1A1,1,0,0,0,318.7,172.34Z"/><circle class="cls-7" cx="336.56" cy="173.36" r="2.98"/><path class="cls-7" d="M336.56,180.34a7,7,0,1,1,7-7A7,7,0,0,1,336.56,180.34Zm0-8a1,1,0,1,0,1,1A1,1,0,0,0,336.56,172.34Z"/><path class="cls-2" d="M214.4,373.33H35.31a17.59,17.59,0,0,1-17.59-17.59V176.07a17.59,17.59,0,0,1,17.59-17.59H214.4A17.6,17.6,0,0,1,232,176.07V355.74A17.6,17.6,0,0,1,214.4,373.33Z"/><path class="cls-7" d="M214.4,377.33H35.31a21.61,21.61,0,0,1-21.59-21.59V176.07a21.61,21.61,0,0,1,21.59-21.59H214.4A21.62,21.62,0,0,1,236,176.07V355.74A21.62,21.62,0,0,1,214.4,377.33ZM35.31,162.48a13.6,13.6,0,0,0-13.59,13.59V355.74a13.6,13.6,0,0,0,13.59,13.59H214.4A13.61,13.61,0,0,0,228,355.74V176.07a13.61,13.61,0,0,0-13.59-13.59Z"/><path class="cls-3" d="M202.49,373.33H23.4A17.6,17.6,0,0,1,5.81,355.74V176.07A17.6,17.6,0,0,1,23.4,158.48H202.49a17.59,17.59,0,0,1,17.59,17.59V355.74A17.59,17.59,0,0,1,202.49,373.33Z"/><path class="cls-4" d="M213.45,162.33l-204,204a17.55,17.55,0,0,0,14,7H202.49a17.59,17.59,0,0,0,17.59-17.59V176.07A17.52,17.52,0,0,0,213.45,162.33Z"/><path class="cls-5" d="M220.08,176.07a17.59,17.59,0,0,0-17.59-17.59H23.4A17.6,17.6,0,0,0,5.81,176.07v11.72H220.08V176.07Z"/><path class="cls-7" d="M202.49,154.48H23.4A21.62,21.62,0,0,0,1.81,176.07V355.74A21.62,21.62,0,0,0,23.4,377.33H202.49a21.61,21.61,0,0,0,21.59-21.59V176.07A21.61,21.61,0,0,0,202.49,154.48ZM9.81,176.07A13.61,13.61,0,0,1,23.4,162.48H202.49a13.6,13.6,0,0,1,13.59,13.59v7.72H9.81ZM202.49,369.33H23.4A13.61,13.61,0,0,1,9.81,355.74v-164H216.08v164A13.6,13.6,0,0,1,202.49,369.33Z"/><path class="cls-7" d="M26.64,166.39a7,7,0,1,0,7,7A7,7,0,0,0,26.64,166.39Z"/><path class="cls-7" d="M44.5,166.39a7,7,0,1,0,7,7A7,7,0,0,0,44.5,166.39Z"/><path class="cls-7" d="M62.35,166.39a7,7,0,1,0,7,7A7,7,0,0,0,62.35,166.39Z"/><path class="cls-2" d="M375.82,402.57H157.13a21.48,21.48,0,0,1-21.47-21.48V161.7a21.48,21.48,0,0,1,21.47-21.48H375.82A21.48,21.48,0,0,1,397.3,161.7V381.09A21.48,21.48,0,0,1,375.82,402.57Z"/><path class="cls-8" d="M361.29,402.57H142.6a21.48,21.48,0,0,1-21.48-21.48V161.7a21.48,21.48,0,0,1,21.48-21.48H361.28a21.48,21.48,0,0,1,21.48,21.48V381.09A21.48,21.48,0,0,1,361.29,402.57Z"/><path class="cls-9" d="M361.29,140.22H347.55L121.12,366.66v14.43a21.48,21.48,0,0,0,21.48,21.48H361.28a21.48,21.48,0,0,0,21.48-21.48V161.7A21.48,21.48,0,0,0,361.29,140.22Z"/><path class="cls-10" d="M382.76,161.7a21.48,21.48,0,0,0-21.47-21.48H142.6a21.48,21.48,0,0,0-21.48,21.48V176H382.76Z"/><path class="cls-11" d="M382.76,161.7a21.48,21.48,0,0,0-21.47-21.48H347.55L311.77,176h71V161.7Z"/><path class="cls-7" d="M375.82,136.22H142.6a25.51,25.51,0,0,0-25.48,25.48V381.09a25.51,25.51,0,0,0,25.48,25.48H375.82a25.51,25.51,0,0,0,25.48-25.48V161.7A25.51,25.51,0,0,0,375.82,136.22ZM125.12,161.7a17.5,17.5,0,0,1,17.48-17.48H361.28a17.5,17.5,0,0,1,17.48,17.48V172H125.12ZM142.6,398.57a17.5,17.5,0,0,1-17.48-17.48V180H378.76V381.09a17.5,17.5,0,0,1-17.48,17.48Zm250.7-17.48A17.51,17.51,0,0,1,380.37,398a25.41,25.41,0,0,0,6.39-16.86V161.7a25.41,25.41,0,0,0-6.39-16.86A17.51,17.51,0,0,1,393.3,161.7Z"/><circle class="cls-7" cx="146.56" cy="158.39" r="3.63"/><path class="cls-7" d="M146.56,166a7.64,7.64,0,1,1,7.63-7.64A7.65,7.65,0,0,1,146.56,166Zm0-8a.37.37,0,0,0-.37.36.38.38,0,0,0,.37.37.37.37,0,0,0,.36-.37A.36.36,0,0,0,146.56,158Z"/><circle class="cls-7" cx="168.36" cy="158.39" r="3.63"/><path class="cls-7" d="M168.36,166a7.64,7.64,0,1,1,7.63-7.64A7.64,7.64,0,0,1,168.36,166Zm0-8a.37.37,0,0,0-.37.36.37.37,0,1,0,.74,0A.37.37,0,0,0,168.36,158Z"/><circle class="cls-7" cx="190.16" cy="158.39" r="3.63"/><path class="cls-7" d="M190.16,166a7.64,7.64,0,1,1,7.64-7.64A7.65,7.65,0,0,1,190.16,166Zm0-8a.36.36,0,0,0-.36.36.37.37,0,1,0,.73,0A.36.36,0,0,0,190.16,158Z"/><ellipse class="cls-2" cx="259.21" cy="505.74" rx="130" ry="6.26"/><ellipse class="cls-2" cx="380" cy="447.75" rx="117.31" ry="5.64"/><ellipse class="cls-2" cx="128.49" cy="447.75" rx="117.31" ry="5.64"/><path class="cls-3" d="M332.77,299.53a80.83,80.83,0,1,0-136.52,58.54H307.64A80.57,80.57,0,0,0,332.77,299.53Z"/><path class="cls-3" d="M251.94,218.7a80.81,80.81,0,0,0-55.69,139.37H216.6l102.9-102.9A80.74,80.74,0,0,0,251.94,218.7Z"/><path class="cls-7" d="M327,253.17a85,85,0,0,0-53.62-36.67l-.64-.13c-1.24-.25-2.48-.48-3.73-.67l-.44-.06c-1.15-.17-2.3-.32-3.46-.44l-.71-.08c-1.23-.12-2.47-.22-3.72-.28l-.79,0c-1.3-.06-2.6-.1-3.9-.1A84.73,84.73,0,0,0,197.55,361a4,4,0,0,0,2.76,1.1H311.69a4,4,0,0,0,2.76-1.1A84.71,84.71,0,0,0,327,253.17Z"/><path class="cls-7" d="M185.35,347.36a85,85,0,0,0,53.89,36.26l.64.13c1.24.24,2.49.46,3.74.64l.43.06c1.15.16,2.31.3,3.47.41l.71.08c1.23.11,2.47.19,3.72.25l.8,0c1.29,0,2.59.08,3.89.07A84.72,84.72,0,0,0,314,238.58a4,4,0,0,0-2.76-1.08l-111.39.85a4,4,0,0,0-2.74,1.12,84.71,84.71,0,0,0-11.74,107.89Z"/></svg>