<?xml version="1.0" encoding="utf-8"?>
<!-- Generator: Adobe Illustrator 23.0.1, SVG Export Plug-In . SVG Version: 6.00 Build 0)  -->
<svg version="1.1" id="Layer_1" xmlns="http://www.w3.org/2000/svg" xmlns:xlink="http://www.w3.org/1999/xlink" x="0px" y="0px"
	 viewBox="0 0 720 288" style="enable-background:new 0 0 720 288;" xml:space="preserve">
<style type="text/css">
	.st0{display:none;}
	.st1{display:inline;fill:none;stroke:url(#SVGID_1_);stroke-linecap:round;stroke-miterlimit:10;}
	.st2{display:inline;fill:none;stroke:url(#SVGID_2_);stroke-linecap:round;stroke-miterlimit:10;}
	.st3{display:inline;fill:none;stroke:url(#SVGID_3_);stroke-linecap:round;stroke-miterlimit:10;}
	.st4{display:inline;fill:none;stroke:url(#SVGID_4_);stroke-linecap:round;stroke-miterlimit:10;}
	.st5{display:inline;fill:none;stroke:url(#SVGID_5_);stroke-linecap:round;stroke-miterlimit:10;}
	.st6{display:inline;fill:none;stroke:url(#SVGID_6_);stroke-linecap:round;stroke-miterlimit:10;}
	.st7{display:inline;fill:none;stroke:url(#SVGID_7_);stroke-linecap:round;stroke-miterlimit:10;}
	.st8{display:inline;fill:none;stroke:url(#SVGID_8_);stroke-linecap:round;stroke-miterlimit:10;}
	.st9{display:inline;fill:none;stroke:url(#SVGID_9_);stroke-linecap:round;stroke-miterlimit:10;}
	.st10{display:inline;fill:none;stroke:url(#SVGID_10_);stroke-linecap:round;stroke-miterlimit:10;}
	.st11{display:inline;fill:none;stroke:url(#SVGID_11_);stroke-linecap:round;stroke-miterlimit:10;}
	.st12{display:inline;fill:none;stroke:url(#SVGID_12_);stroke-linecap:round;stroke-miterlimit:10;}
	.st13{display:inline;fill:none;stroke:url(#SVGID_13_);stroke-linecap:round;stroke-miterlimit:10;}
	.st14{display:inline;fill:none;stroke:url(#SVGID_14_);stroke-linecap:round;stroke-miterlimit:10;}
	.st15{display:inline;fill:none;stroke:url(#SVGID_15_);stroke-linecap:round;stroke-miterlimit:10;}
	.st16{display:inline;fill:none;stroke:url(#SVGID_16_);stroke-linecap:round;stroke-miterlimit:10;}
	.st17{display:inline;fill:none;stroke:url(#SVGID_17_);stroke-linecap:round;stroke-miterlimit:10;}
	.st18{display:inline;fill:none;stroke:url(#SVGID_18_);stroke-linecap:round;stroke-miterlimit:10;}
	.st19{display:inline;fill:none;stroke:url(#SVGID_19_);stroke-linecap:round;stroke-miterlimit:10;}
	.st20{display:inline;fill:none;stroke:url(#SVGID_20_);stroke-linecap:round;stroke-miterlimit:10;}
	.st21{display:inline;fill:none;stroke:url(#SVGID_21_);stroke-linecap:round;stroke-miterlimit:10;}
	.st22{display:inline;fill:none;stroke:url(#SVGID_22_);stroke-linecap:round;stroke-miterlimit:10;}
	.st23{display:inline;fill:none;stroke:url(#SVGID_23_);stroke-linecap:round;stroke-miterlimit:10;}
	.st24{display:inline;fill:none;stroke:url(#SVGID_24_);stroke-linecap:round;stroke-miterlimit:51;}
	.st25{display:inline;fill:none;stroke:url(#SVGID_25_);stroke-miterlimit:77;}
	.st26{fill:none;stroke:url(#SVGID_26_);stroke-linecap:round;stroke-miterlimit:10;}
	.st27{fill:none;stroke:url(#SVGID_27_);stroke-linecap:round;stroke-miterlimit:10;}
	.st28{fill:none;stroke:url(#SVGID_28_);stroke-linecap:round;stroke-miterlimit:10;}
	.st29{fill:none;stroke:url(#SVGID_29_);stroke-linecap:round;stroke-miterlimit:10;}
	.st30{fill:none;stroke:url(#SVGID_30_);stroke-linecap:round;stroke-miterlimit:10;}
	.st31{fill:none;stroke:url(#SVGID_31_);stroke-linecap:round;stroke-miterlimit:10;}
	.st32{fill:none;stroke:url(#SVGID_32_);stroke-linecap:round;stroke-miterlimit:10;}
	.st33{fill:none;stroke:url(#SVGID_33_);stroke-linecap:round;stroke-miterlimit:10;}
	.st34{fill:none;stroke:url(#SVGID_34_);stroke-linecap:round;stroke-miterlimit:10;}
	.st35{fill:none;stroke:url(#SVGID_35_);stroke-linecap:round;stroke-miterlimit:10;}
	.st36{fill:none;stroke:url(#SVGID_36_);stroke-linecap:round;stroke-miterlimit:10;}
	.st37{fill:none;stroke:url(#SVGID_37_);stroke-linecap:round;stroke-miterlimit:10;}
	.st38{fill:none;stroke:url(#SVGID_38_);stroke-linecap:round;stroke-miterlimit:10;}
	.st39{fill:none;stroke:url(#SVGID_39_);stroke-linecap:round;stroke-miterlimit:10;}
	.st40{fill:none;stroke:url(#SVGID_40_);stroke-linecap:round;stroke-miterlimit:10;}
	.st41{fill:none;stroke:url(#SVGID_41_);stroke-linecap:round;stroke-miterlimit:10;}
	.st42{fill:none;stroke:url(#SVGID_42_);stroke-linecap:round;stroke-miterlimit:10;}
	.st43{fill:none;stroke:url(#SVGID_43_);stroke-linecap:round;stroke-miterlimit:10;}
	.st44{fill:none;stroke:url(#SVGID_44_);stroke-linecap:round;stroke-miterlimit:10;}
	.st45{fill:none;stroke:url(#SVGID_45_);stroke-linecap:round;stroke-miterlimit:10;}
	.st46{fill:none;stroke:url(#SVGID_46_);stroke-linecap:round;stroke-miterlimit:10;}
	.st47{fill:none;stroke:url(#SVGID_47_);stroke-linecap:round;stroke-miterlimit:10;}
	.st48{fill:none;stroke:url(#SVGID_48_);stroke-linecap:round;stroke-miterlimit:10;}
	.st49{fill:none;stroke:url(#SVGID_49_);stroke-linecap:round;stroke-miterlimit:10;}
	.st50{fill:none;stroke:url(#SVGID_50_);stroke-linecap:round;stroke-miterlimit:10;}
	.st51{fill:none;stroke:url(#SVGID_51_);stroke-linecap:round;stroke-miterlimit:10;}
	.st52{fill:none;stroke:url(#SVGID_52_);stroke-linecap:round;stroke-miterlimit:10;}
	.st53{fill:none;stroke:url(#SVGID_53_);stroke-linecap:round;stroke-miterlimit:10;}
	.st54{fill:none;stroke:url(#SVGID_54_);stroke-linecap:round;stroke-miterlimit:10;}
	.st55{fill:none;stroke:url(#SVGID_55_);stroke-linecap:round;stroke-miterlimit:10;}
	.st56{fill:none;stroke:url(#SVGID_56_);stroke-linecap:round;stroke-miterlimit:10;}
	.st57{fill:none;stroke:url(#SVGID_57_);stroke-linecap:round;stroke-miterlimit:10;}
	.st58{fill:none;stroke:url(#SVGID_58_);stroke-linecap:round;stroke-miterlimit:10;}
	.st59{fill:none;stroke:url(#SVGID_59_);stroke-linecap:round;stroke-miterlimit:10;}
	.st60{fill:none;stroke:url(#SVGID_60_);stroke-linecap:round;stroke-miterlimit:10;}
	.st61{fill:none;stroke:url(#SVGID_61_);stroke-linecap:round;stroke-miterlimit:10;}
	.st62{fill:none;stroke:url(#SVGID_62_);stroke-linecap:round;stroke-miterlimit:10;}
	.st63{fill:none;stroke:url(#SVGID_63_);stroke-linecap:round;stroke-miterlimit:10;}
	.st64{fill:none;stroke:url(#SVGID_64_);stroke-linecap:round;stroke-miterlimit:10;}
	.st65{fill:none;stroke:url(#SVGID_65_);stroke-linecap:round;stroke-miterlimit:10;}
	.st66{fill:none;stroke:url(#SVGID_66_);stroke-linecap:round;stroke-miterlimit:10;}
	.st67{fill:none;stroke:url(#SVGID_67_);stroke-linecap:round;stroke-miterlimit:10;}
	.st68{fill:none;stroke:url(#SVGID_68_);stroke-linecap:round;stroke-miterlimit:10;}
	.st69{fill:none;stroke:url(#SVGID_69_);stroke-linecap:round;stroke-miterlimit:10;}
	.st70{fill:none;stroke:url(#SVGID_70_);stroke-linecap:round;stroke-miterlimit:10;}
	.st71{fill:none;stroke:url(#SVGID_71_);stroke-linecap:round;stroke-miterlimit:10;}
	.st72{fill:none;stroke:url(#SVGID_72_);stroke-linecap:round;stroke-miterlimit:10;}
	.st73{fill:none;stroke:url(#SVGID_73_);stroke-linecap:round;stroke-miterlimit:10;}
	.st74{fill:none;stroke:url(#SVGID_74_);stroke-linecap:round;stroke-miterlimit:10;}
	.st75{fill:none;stroke:url(#SVGID_75_);stroke-linecap:round;stroke-miterlimit:10;}
	.st76{fill:none;stroke:url(#SVGID_76_);stroke-linecap:round;stroke-miterlimit:10;}
	.st77{fill:none;stroke:url(#SVGID_77_);stroke-linecap:round;stroke-miterlimit:10;}
	.st78{fill:none;stroke:url(#SVGID_78_);stroke-linecap:round;stroke-miterlimit:10;}
	.st79{fill:none;stroke:url(#SVGID_79_);stroke-linecap:round;stroke-miterlimit:10;}
	.st80{fill:none;stroke:url(#SVGID_80_);stroke-linecap:round;stroke-miterlimit:10;}
	.st81{fill:none;stroke:url(#SVGID_81_);stroke-linecap:round;stroke-miterlimit:10;}
	.st82{fill:none;stroke:url(#SVGID_82_);stroke-linecap:round;stroke-miterlimit:10;}
	.st83{fill:none;stroke:url(#SVGID_83_);stroke-linecap:round;stroke-miterlimit:10;}
	.st84{fill:none;stroke:url(#SVGID_84_);stroke-linecap:round;stroke-miterlimit:10;}
	.st85{fill:none;stroke:url(#SVGID_85_);stroke-linecap:round;stroke-miterlimit:10;}
	.st86{fill:none;stroke:url(#SVGID_86_);stroke-linecap:round;stroke-miterlimit:10;}
	.st87{fill:none;stroke:url(#SVGID_87_);stroke-linecap:round;stroke-miterlimit:10;}
	.st88{fill:none;stroke:url(#SVGID_88_);stroke-linecap:round;stroke-miterlimit:10;}
	.st89{fill:none;stroke:url(#SVGID_89_);stroke-linecap:round;stroke-miterlimit:10;}
	.st90{fill:none;stroke:url(#SVGID_90_);stroke-linecap:round;stroke-miterlimit:10;}
	.st91{fill:none;stroke:url(#SVGID_91_);stroke-linecap:round;stroke-miterlimit:10;}
	.st92{fill:none;stroke:url(#SVGID_92_);stroke-linecap:round;stroke-miterlimit:10;}
	.st93{fill:none;stroke:url(#SVGID_93_);stroke-linecap:round;stroke-miterlimit:10;}
	.st94{fill:none;stroke:url(#SVGID_94_);stroke-linecap:round;stroke-miterlimit:10;}
	.st95{fill:none;stroke:url(#SVGID_95_);stroke-linecap:round;stroke-miterlimit:10;}
	.st96{fill:none;stroke:url(#SVGID_96_);stroke-linecap:round;stroke-miterlimit:10;}
	.st97{fill:none;stroke:url(#SVGID_97_);stroke-linecap:round;stroke-miterlimit:10;}
	.st98{fill:none;stroke:url(#SVGID_98_);stroke-linecap:round;stroke-miterlimit:10;}
	.st99{fill:none;stroke:url(#SVGID_99_);stroke-linecap:round;stroke-miterlimit:10;}
	.st100{fill:none;stroke:url(#SVGID_100_);stroke-linecap:round;stroke-miterlimit:10;}
	.st101{fill:none;stroke:url(#SVGID_101_);stroke-linecap:round;stroke-miterlimit:10;}
	.st102{fill:none;stroke:url(#SVGID_102_);stroke-linecap:round;stroke-miterlimit:10;}
	.st103{fill:none;stroke:url(#SVGID_103_);stroke-linecap:round;stroke-miterlimit:10;}
	.st104{fill:none;stroke:url(#SVGID_104_);stroke-linecap:round;stroke-miterlimit:10;}
	.st105{fill:none;stroke:url(#SVGID_105_);stroke-linecap:round;stroke-miterlimit:37.3333;}
	.st106{fill:none;stroke:url(#SVGID_106_);stroke-linecap:round;stroke-miterlimit:64.6667;}
	.st107{fill:none;stroke:url(#SVGID_107_);stroke-linecap:round;stroke-miterlimit:92;}
	.st108{fill:none;stroke:url(#SVGID_108_);stroke-miterlimit:62;}
	.st109{fill:none;stroke:url(#SVGID_109_);stroke-linecap:round;stroke-miterlimit:10;}
	.st110{fill:none;stroke:url(#SVGID_110_);stroke-linecap:round;stroke-miterlimit:10;}
</style>
<g class="st0">
	<linearGradient id="SVGID_1_" gradientUnits="userSpaceOnUse" x1="30.1327" y1="-214.2839" x2="71.466" y2="-214.2839">
		<stop  offset="0" style="stop-color:#5262FC;stop-opacity:0"/>
		<stop  offset="1" style="stop-color:#5262FC"/>
	</linearGradient>
	<path class="st1" d="M68.2-308.7L71-171.8c0,0,2,35.2-40.3,51.9"/>
	<linearGradient id="SVGID_2_" gradientUnits="userSpaceOnUse" x1="30.1327" y1="-208.5135" x2="97.3415" y2="-208.5135">
		<stop  offset="0" style="stop-color:#5262FC;stop-opacity:0"/>
		<stop  offset="1" style="stop-color:#5262FC"/>
	</linearGradient>
	<path class="st2" d="M95-308.7l1.9,136.8c0,0,1.2,40-47.6,58.2c-2.3,1.2-15.7,4.4-18.6,5.4"/>
	<linearGradient id="SVGID_3_" gradientUnits="userSpaceOnUse" x1="29.1197" y1="-204.5124" x2="123.8544" y2="-204.5124">
		<stop  offset="0" style="stop-color:#5262FC;stop-opacity:0"/>
		<stop  offset="1" style="stop-color:#5262FC"/>
	</linearGradient>
	<path class="st3" d="M121.5-308.7l1.8,136.6c0,0,1.9,47.5-55.7,63.5l-38,8.3"/>
	<linearGradient id="SVGID_4_" gradientUnits="userSpaceOnUse" x1="30.1327" y1="-200.8655" x2="150.4428" y2="-200.8655">
		<stop  offset="0" style="stop-color:#5262FC;stop-opacity:0"/>
		<stop  offset="1" style="stop-color:#5262FC"/>
	</linearGradient>
	<path class="st4" d="M148.1-308.7l1.8,136.9c0,0,1.6,46.4-50.1,63.2L30.6-93"/>
	<linearGradient id="SVGID_5_" gradientUnits="userSpaceOnUse" x1="31.1457" y1="-196.6236" x2="177.6327" y2="-196.6236">
		<stop  offset="0" style="stop-color:#5262FC;stop-opacity:0"/>
		<stop  offset="1" style="stop-color:#5262FC"/>
	</linearGradient>
	<path class="st5" d="M175.8-308.7l1.3,137.6c0,0,1.2,47.3-44.5,62.3L31.6-84.5"/>
	<linearGradient id="SVGID_6_" gradientUnits="userSpaceOnUse" x1="31.1457" y1="-190.6602" x2="205.385" y2="-190.6602">
		<stop  offset="0" style="stop-color:#5262FC;stop-opacity:0"/>
		<stop  offset="1" style="stop-color:#5262FC"/>
	</linearGradient>
	<path class="st6" d="M203.5-308.7l1.3,137.4c0,0,3,48.7-39.4,62.6L31.6-72.6"/>
	<linearGradient id="SVGID_7_" gradientUnits="userSpaceOnUse" x1="31.1457" y1="-182.4364" x2="232.303" y2="-182.4364">
		<stop  offset="0" style="stop-color:#5262FC;stop-opacity:0"/>
		<stop  offset="1" style="stop-color:#5262FC"/>
	</linearGradient>
	<path class="st7" d="M31.6-56.2l167.1-52.4c29.8-12.3,31.7-46.2,32.8-64.3c0.9-16-0.7-106.7-0.7-135.9"/>
	<linearGradient id="SVGID_8_" gradientUnits="userSpaceOnUse" x1="35.7128" y1="-171.5606" x2="259.9734" y2="-171.5606">
		<stop  offset="0" style="stop-color:#5262FC;stop-opacity:0"/>
		<stop  offset="1" style="stop-color:#5262FC"/>
	</linearGradient>
	<path class="st8" d="M259.2-308.7c-0.1,34.7,1.2,132.6-0.9,149c-1.6,13-4.2,38.1-24.3,49.9L36.2-34.4"/>
	<linearGradient id="SVGID_9_" gradientUnits="userSpaceOnUse" x1="79.9946" y1="-165.572" x2="286.7636" y2="-165.572">
		<stop  offset="0" style="stop-color:#5262FC;stop-opacity:0"/>
		<stop  offset="1" style="stop-color:#5262FC"/>
	</linearGradient>
	<path class="st9" d="M286.2-308.7v143.2c0,0,2.5,38.5-20,54.3L80.5-22.4"/>
	<linearGradient id="SVGID_10_" gradientUnits="userSpaceOnUse" x1="157.5811" y1="-165.572" x2="312.0301" y2="-165.572">
		<stop  offset="0" style="stop-color:#5262FC;stop-opacity:0"/>
		<stop  offset="1" style="stop-color:#5262FC"/>
	</linearGradient>
	<path class="st10" d="M311.5-308.7v144.9c0,0,1.4,41.5-15.5,53.7L158.1-22.4"/>
	<linearGradient id="SVGID_11_" gradientUnits="userSpaceOnUse" x1="234.2854" y1="-165.572" x2="338.3048" y2="-165.572">
		<stop  offset="0" style="stop-color:#5262FC;stop-opacity:0"/>
		<stop  offset="1" style="stop-color:#5262FC"/>
	</linearGradient>
	<path class="st11" d="M337.4-308.7l0.4,153.6c0,0,1.4,35.9-16.6,54.7l-86.4,78.1"/>
	<linearGradient id="SVGID_12_" gradientUnits="userSpaceOnUse" x1="311.9612" y1="-165.572" x2="364.7079" y2="-165.572">
		<stop  offset="0" style="stop-color:#5262FC;stop-opacity:0"/>
		<stop  offset="1" style="stop-color:#5262FC"/>
	</linearGradient>
	<path class="st12" d="M363.8-308.7l0.4,163.4c0,0,1.3,31.9-15.9,63l-35.8,59.9"/>
	<linearGradient id="SVGID_13_" gradientUnits="userSpaceOnUse" x1="389.4296" y1="-165.1433" x2="391.9428" y2="-165.1433">
		<stop  offset="0" style="stop-color:#5262FC;stop-opacity:0.5"/>
		<stop  offset="1" style="stop-color:#5262FC;stop-opacity:0.5"/>
	</linearGradient>
	<path class="st13" d="M390.8-308.7l0,171.2c0,0,0,29.8-0.4,66.2c2,7.5-2.7,40.9,1,49.7"/>
	<linearGradient id="SVGID_14_" gradientUnits="userSpaceOnUse" x1="417.5314" y1="-164.7146" x2="472.5544" y2="-164.7146">
		<stop  offset="0" style="stop-color:#5262FC"/>
		<stop  offset="1" style="stop-color:#5262FC;stop-opacity:0"/>
	</linearGradient>
	<path class="st14" d="M418-308.7l0,165.7c0,0-0.7,25.5,14.7,55c2,9.3,34.1,55.2,39.3,67.3"/>
	<linearGradient id="SVGID_15_" gradientUnits="userSpaceOnUse" x1="444.1117" y1="-165.1433" x2="552.076" y2="-165.1433">
		<stop  offset="0" style="stop-color:#5262FC"/>
		<stop  offset="1" style="stop-color:#5262FC;stop-opacity:0"/>
	</linearGradient>
	<path class="st15" d="M445-308.7l-0.4,147.6c0,0-1.8,42.8,18.7,62.6l88.2,76.9"/>
	<linearGradient id="SVGID_16_" gradientUnits="userSpaceOnUse" x1="470.4898" y1="-165.572" x2="632.4259" y2="-165.572">
		<stop  offset="0" style="stop-color:#5262FC"/>
		<stop  offset="1" style="stop-color:#5262FC;stop-opacity:0"/>
	</linearGradient>
	<path class="st16" d="M631.9-22.4l-143.8-85.2c-8.3-5.4-18.9-37.2-16.9-73.9l0.1-127.2"/>
	<linearGradient id="SVGID_17_" gradientUnits="userSpaceOnUse" x1="497.8539" y1="-166.0697" x2="711.9235" y2="-166.0697">
		<stop  offset="0" style="stop-color:#5262FC"/>
		<stop  offset="1" style="stop-color:#5262FC;stop-opacity:0"/>
	</linearGradient>
	<path class="st17" d="M498.4-308.7l0.3,123.7c-2,36.7,9.8,71.7,22.9,77l189.9,84.6"/>
	<linearGradient id="SVGID_18_" gradientUnits="userSpaceOnUse" x1="525.4498" y1="-173.1548" x2="750.1196" y2="-173.1548">
		<stop  offset="0" style="stop-color:#5262FC"/>
		<stop  offset="1" style="stop-color:#5262FC;stop-opacity:0"/>
	</linearGradient>
	<path class="st18" d="M749.6-37.6l-195-70.8c-13.1-5.3-29.5-40-28.5-74.7l-0.1-125.6"/>
	<linearGradient id="SVGID_19_" gradientUnits="userSpaceOnUse" x1="552.9088" y1="-184.271" x2="750.1196" y2="-184.271">
		<stop  offset="0" style="stop-color:#5262FC"/>
		<stop  offset="1" style="stop-color:#5262FC;stop-opacity:0"/>
	</linearGradient>
	<path class="st19" d="M555.2-308.7l-1.8,128.9c-1,34.7,15.4,62.2,35.3,71.4l160.9,48.6"/>
	<linearGradient id="SVGID_20_" gradientUnits="userSpaceOnUse" x1="579.8546" y1="-191.9906" x2="750.1196" y2="-191.9906">
		<stop  offset="0" style="stop-color:#5262FC"/>
		<stop  offset="1" style="stop-color:#5262FC;stop-opacity:0"/>
	</linearGradient>
	<path class="st20" d="M749.6-75.3l-127.5-33.1c-19.9-9.3-40.9-38.6-41.8-65.1l1.9-135.2"/>
	<linearGradient id="SVGID_21_" gradientUnits="userSpaceOnUse" x1="606.4241" y1="-197.308" x2="750.1196" y2="-197.308">
		<stop  offset="0" style="stop-color:#5262FC"/>
		<stop  offset="1" style="stop-color:#5262FC;stop-opacity:0"/>
	</linearGradient>
	<path class="st21" d="M606.9-308.7v135c0.9,26.5,21.9,58.2,45.7,65.1l97,22.8"/>
	<linearGradient id="SVGID_22_" gradientUnits="userSpaceOnUse" x1="631.9901" y1="-201.5223" x2="750.1196" y2="-201.5223">
		<stop  offset="0" style="stop-color:#5262FC"/>
		<stop  offset="1" style="stop-color:#5262FC;stop-opacity:0"/>
	</linearGradient>
	<path class="st22" d="M749.6-94.3l-65.9-14.3c-23.8-6.9-50.4-39.2-51.2-63.4l1-136.7"/>
	<linearGradient id="SVGID_23_" gradientUnits="userSpaceOnUse" x1="657.4937" y1="-205.1989" x2="750.1196" y2="-205.1989">
		<stop  offset="0" style="stop-color:#5262FC"/>
		<stop  offset="1" style="stop-color:#5262FC;stop-opacity:0"/>
	</linearGradient>
	<path class="st23" d="M659.9-308.7L658-172.8c0.8,24.2,25.4,54.3,57.1,64.2l34.6,7"/>
	<linearGradient id="SVGID_24_" gradientUnits="userSpaceOnUse" x1="683.8971" y1="-208.6354" x2="750.1196" y2="-208.6354">
		<stop  offset="0" style="stop-color:#5262FC"/>
		<stop  offset="1" style="stop-color:#5262FC;stop-opacity:0"/>
	</linearGradient>
	<path class="st24" d="M749.6-108.6c0,0-12.8-3.1-17.1-5.6c-26-10.1-43.9-28.8-46.6-49.3c-2-5.6-1.4-18.6-1.4-18.6l2.2-126.6"/>
	<linearGradient id="SVGID_25_" gradientUnits="userSpaceOnUse" x1="710.4222" y1="-214.6046" x2="749.8391" y2="-214.6046">
		<stop  offset="0" style="stop-color:#5262FC"/>
		<stop  offset="1" style="stop-color:#5262FC;stop-opacity:0"/>
	</linearGradient>
	<path class="st25" d="M713.4-308.7l-2.4,131.2c0,20.1,25.6,50.2,38.7,56.6"/>
</g>
<g>
	<linearGradient id="SVGID_26_" gradientUnits="userSpaceOnUse" x1="0.7141" y1="91.7886" x2="30.2903" y2="91.7886">
		<stop  offset="0" style="stop-color:#5262FC;stop-opacity:0"/>
		<stop  offset="1" style="stop-color:#5262FC"/>
	</linearGradient>
	<path class="st26" d="M26.5,1.2l3.3,137.3c0,0,1.3,28.7-28.6,43.9"/>
	<linearGradient id="SVGID_27_" gradientUnits="userSpaceOnUse" x1="1.7271" y1="95.5895" x2="43.0604" y2="95.5895">
		<stop  offset="0" style="stop-color:#5262FC;stop-opacity:0"/>
		<stop  offset="1" style="stop-color:#5262FC"/>
	</linearGradient>
	<path class="st27" d="M39.8,1.2l2.7,136.9c0,0,2,35.2-40.3,51.9"/>
	<linearGradient id="SVGID_28_" gradientUnits="userSpaceOnUse" x1="2.7401" y1="99.3905" x2="55.8311" y2="99.3905">
		<stop  offset="0" style="stop-color:#5262FC;stop-opacity:0"/>
		<stop  offset="1" style="stop-color:#5262FC"/>
	</linearGradient>
	<path class="st28" d="M53.2,1.2l2.1,136.5c0,0,2.8,41.7-52.1,59.9"/>
	<linearGradient id="SVGID_29_" gradientUnits="userSpaceOnUse" x1="2.0647" y1="100.7034" x2="64.5642" y2="100.7034">
		<stop  offset="0" style="stop-color:#5262FC;stop-opacity:0"/>
		<stop  offset="1" style="stop-color:#5262FC"/>
	</linearGradient>
	<path class="st29" d="M62.1,1.2l1.9,136.7c0,0,1.5,37.8-44,56.6c-3,1.6-13.7,4.4-17.5,5.7"/>
	<linearGradient id="SVGID_30_" gradientUnits="userSpaceOnUse" x1="1.3894" y1="102.0164" x2="73.3095" y2="102.0164">
		<stop  offset="0" style="stop-color:#5262FC;stop-opacity:0"/>
		<stop  offset="1" style="stop-color:#5262FC"/>
	</linearGradient>
	<path class="st30" d="M71,1.2l1.8,137c0,0,0.8,42.2-51.2,59.7c-1.5,0.8-17.8,4.4-19.7,5"/>
	<linearGradient id="SVGID_31_" gradientUnits="userSpaceOnUse" x1="0.7141" y1="103.3294" x2="82.0592" y2="103.3294">
		<stop  offset="0" style="stop-color:#5262FC;stop-opacity:0"/>
		<stop  offset="1" style="stop-color:#5262FC"/>
	</linearGradient>
	<path class="st31" d="M80,1.2l1.6,137.2c0,0,0.1,46.5-58.5,62.8l-21.9,4.4"/>
	<linearGradient id="SVGID_32_" gradientUnits="userSpaceOnUse" x1="0.7141" y1="104.6839" x2="90.9833" y2="104.6839">
		<stop  offset="0" style="stop-color:#5262FC;stop-opacity:0"/>
		<stop  offset="1" style="stop-color:#5262FC"/>
	</linearGradient>
	<path class="st32" d="M88.7,1.2l1.7,136.8c0,0,1.3,47.2-56.6,63.3l-32.6,7"/>
	<linearGradient id="SVGID_33_" gradientUnits="userSpaceOnUse" x1="0.7141" y1="106.0383" x2="99.9181" y2="106.0383">
		<stop  offset="0" style="stop-color:#5262FC;stop-opacity:0"/>
		<stop  offset="1" style="stop-color:#5262FC"/>
	</linearGradient>
	<path class="st33" d="M97.5,1.2l1.9,136.4c0,0,2.5,47.8-54.8,63.7l-43.4,9.6"/>
	<linearGradient id="SVGID_34_" gradientUnits="userSpaceOnUse" x1="0.7141" y1="107.3928" x2="108.8715" y2="107.3928">
		<stop  offset="0" style="stop-color:#5262FC;stop-opacity:0"/>
		<stop  offset="1" style="stop-color:#5262FC"/>
	</linearGradient>
	<path class="st34" d="M106.3,1.2l2.1,136c0,0,3.6,48.5-53,64.2L1.2,213.6"/>
	<linearGradient id="SVGID_35_" gradientUnits="userSpaceOnUse" x1="1.3894" y1="108.4696" x2="117.6432" y2="108.4696">
		<stop  offset="0" style="stop-color:#5262FC;stop-opacity:0"/>
		<stop  offset="1" style="stop-color:#5262FC"/>
	</linearGradient>
	<path class="st35" d="M115.2,1.2l1.9,136.6c0,0,2.2,47.1-51,63.5L1.9,215.8"/>
	<linearGradient id="SVGID_36_" gradientUnits="userSpaceOnUse" x1="2.0647" y1="109.5463" x2="126.4356" y2="109.5463">
		<stop  offset="0" style="stop-color:#5262FC;stop-opacity:0"/>
		<stop  offset="1" style="stop-color:#5262FC"/>
	</linearGradient>
	<path class="st36" d="M124.2,1.2l1.7,137.1c0,0,0.9,45.7-49.1,62.9L2.6,217.9"/>
	<linearGradient id="SVGID_37_" gradientUnits="userSpaceOnUse" x1="2.7401" y1="110.6231" x2="135.2397" y2="110.6231">
		<stop  offset="0" style="stop-color:#5262FC;stop-opacity:0"/>
		<stop  offset="1" style="stop-color:#5262FC"/>
	</linearGradient>
	<path class="st37" d="M133.2,1.2l1.6,137.7c0,0-0.5,44.3-47.1,62.2l-84.4,19"/>
	<linearGradient id="SVGID_38_" gradientUnits="userSpaceOnUse" x1="2.7401" y1="112.3743" x2="144.5631" y2="112.3743">
		<stop  offset="0" style="stop-color:#5262FC;stop-opacity:0"/>
		<stop  offset="1" style="stop-color:#5262FC"/>
	</linearGradient>
	<path class="st38" d="M142.7,1.2l1.4,137.6c0,0,0.6,46.3-45.4,62.3L3.2,223.6"/>
	<linearGradient id="SVGID_39_" gradientUnits="userSpaceOnUse" x1="2.7401" y1="114.1254" x2="153.8948" y2="114.1254">
		<stop  offset="0" style="stop-color:#5262FC;stop-opacity:0"/>
		<stop  offset="1" style="stop-color:#5262FC"/>
	</linearGradient>
	<path class="st39" d="M152.2,1.2l1.2,137.5c0,0,1.8,48.4-43.7,62.4l-106.5,26"/>
	<linearGradient id="SVGID_40_" gradientUnits="userSpaceOnUse" x1="2.7401" y1="115.8766" x2="163.2467" y2="115.8766">
		<stop  offset="0" style="stop-color:#5262FC;stop-opacity:0"/>
		<stop  offset="1" style="stop-color:#5262FC"/>
	</linearGradient>
	<path class="st40" d="M161.7,1.2l1,137.4c0,0,2.9,50.4-42,62.5L3.2,230.6"/>
	<linearGradient id="SVGID_41_" gradientUnits="userSpaceOnUse" x1="2.7401" y1="118.101" x2="172.4017" y2="118.101">
		<stop  offset="0" style="stop-color:#5262FC;stop-opacity:0"/>
		<stop  offset="1" style="stop-color:#5262FC"/>
	</linearGradient>
	<path class="st41" d="M170.7,1.2l1.2,137.4c0,0,3,49.2-40.2,62.6L3.2,235"/>
	<linearGradient id="SVGID_42_" gradientUnits="userSpaceOnUse" x1="2.7401" y1="120.3255" x2="181.5573" y2="120.3255">
		<stop  offset="0" style="stop-color:#5262FC;stop-opacity:0"/>
		<stop  offset="1" style="stop-color:#5262FC"/>
	</linearGradient>
	<path class="st42" d="M179.6,1.2l1.4,137.4c0,0,3,48.1-38.5,62.7L3.2,239.5"/>
	<linearGradient id="SVGID_43_" gradientUnits="userSpaceOnUse" x1="2.7401" y1="122.5499" x2="190.7137" y2="122.5499">
		<stop  offset="0" style="stop-color:#5262FC;stop-opacity:0"/>
		<stop  offset="1" style="stop-color:#5262FC"/>
	</linearGradient>
	<path class="st43" d="M188.6,1.2l1.6,137.4c0,0,3.1,46.9-36.8,62.8L3.2,243.9"/>
	<linearGradient id="SVGID_44_" gradientUnits="userSpaceOnUse" x1="2.7401" y1="125.808" x2="199.4371" y2="125.808">
		<stop  offset="0" style="stop-color:#5262FC;stop-opacity:0"/>
		<stop  offset="1" style="stop-color:#5262FC"/>
	</linearGradient>
	<path class="st44" d="M3.2,250.5l161.4-49.1c33.2-13.5,33.4-51.7,34.1-63.8c0.6-10.7-1-116.9-1-136.4"/>
	<linearGradient id="SVGID_45_" gradientUnits="userSpaceOnUse" x1="2.7401" y1="129.0661" x2="208.3867" y2="129.0661">
		<stop  offset="0" style="stop-color:#5262FC;stop-opacity:0"/>
		<stop  offset="1" style="stop-color:#5262FC"/>
	</linearGradient>
	<path class="st45" d="M3.2,257L176,201.3c26.5-11.1,30-40.6,31.5-64.8c1.2-21.3-0.5-96.4-0.4-135.3"/>
	<linearGradient id="SVGID_46_" gradientUnits="userSpaceOnUse" x1="2.7401" y1="132.3242" x2="217.4232" y2="132.3242">
		<stop  offset="0" style="stop-color:#5262FC;stop-opacity:0"/>
		<stop  offset="1" style="stop-color:#5262FC"/>
	</linearGradient>
	<path class="st46" d="M3.2,263.5l184-62.2c37.3-16.5,28.7-75.6,29.1-200.1"/>
	<linearGradient id="SVGID_47_" gradientUnits="userSpaceOnUse" x1="5.0237" y1="135.3186" x2="224.4955" y2="135.3186">
		<stop  offset="0" style="stop-color:#5262FC;stop-opacity:0"/>
		<stop  offset="1" style="stop-color:#5262FC"/>
	</linearGradient>
	<path class="st47" d="M223.5,1.2c-0.2,52,1.8,125.5-1.3,150c-2.5,19.5-7.5,39.9-25.8,49.5L5.5,269.5"/>
	<linearGradient id="SVGID_48_" gradientUnits="userSpaceOnUse" x1="7.3072" y1="138.3129" x2="231.5678" y2="138.3129">
		<stop  offset="0" style="stop-color:#5262FC;stop-opacity:0"/>
		<stop  offset="1" style="stop-color:#5262FC"/>
	</linearGradient>
	<path class="st48" d="M230.8,1.2c-0.1,34.7,1.2,132.6-0.9,149c-1.6,13-4.2,38.1-24.3,49.9L7.8,275.5"/>
	<linearGradient id="SVGID_49_" gradientUnits="userSpaceOnUse" x1="9.5908" y1="141.3072" x2="238.6401" y2="141.3072">
		<stop  offset="0" style="stop-color:#5262FC;stop-opacity:0"/>
		<stop  offset="1" style="stop-color:#5262FC"/>
	</linearGradient>
	<path class="st49" d="M238,1.2c-0.1,17.3,0.6,139.8-0.4,148c-0.8,6.5-0.9,36.2-22.8,50.3l-204.6,82"/>
	<linearGradient id="SVGID_50_" gradientUnits="userSpaceOnUse" x1="11.8744" y1="144.3015" x2="245.7822" y2="144.3015">
		<stop  offset="0" style="stop-color:#5262FC;stop-opacity:0"/>
		<stop  offset="1" style="stop-color:#5262FC"/>
	</linearGradient>
	<path class="st50" d="M245.2,1.2v146.9c0,0,2.4,34.4-21.3,50.7L12.4,287.4"/>
	<linearGradient id="SVGID_51_" gradientUnits="userSpaceOnUse" x1="31.7317" y1="144.3015" x2="252.0699" y2="144.3015">
		<stop  offset="0" style="stop-color:#5262FC;stop-opacity:0"/>
		<stop  offset="1" style="stop-color:#5262FC"/>
	</linearGradient>
	<path class="st51" d="M251.5,1.2v145.1c0,0,2.5,36.4-20.7,52.5L32.2,287.4"/>
	<linearGradient id="SVGID_52_" gradientUnits="userSpaceOnUse" x1="51.5891" y1="144.3015" x2="258.358" y2="144.3015">
		<stop  offset="0" style="stop-color:#5262FC;stop-opacity:0"/>
		<stop  offset="1" style="stop-color:#5262FC"/>
	</linearGradient>
	<path class="st52" d="M257.8,1.2v143.2c0,0,2.5,38.5-20,54.3L52.1,287.4"/>
	<linearGradient id="SVGID_53_" gradientUnits="userSpaceOnUse" x1="71.4464" y1="144.3015" x2="264.6466" y2="144.3015">
		<stop  offset="0" style="stop-color:#5262FC;stop-opacity:0"/>
		<stop  offset="1" style="stop-color:#5262FC"/>
	</linearGradient>
	<path class="st53" d="M264.1,1.2v141.4c0,0,2.5,40.5-19.3,56.1L71.9,287.4"/>
	<linearGradient id="SVGID_54_" gradientUnits="userSpaceOnUse" x1="91.3037" y1="144.3015" x2="270.9357" y2="144.3015">
		<stop  offset="0" style="stop-color:#5262FC;stop-opacity:0"/>
		<stop  offset="1" style="stop-color:#5262FC"/>
	</linearGradient>
	<path class="st54" d="M270.3,1.2v139.6c0,0,2.5,42.6-18.6,57.9L91.8,287.4"/>
	<linearGradient id="SVGID_55_" gradientUnits="userSpaceOnUse" x1="110.2396" y1="144.3015" x2="277.2768" y2="144.3015">
		<stop  offset="0" style="stop-color:#5262FC;stop-opacity:0"/>
		<stop  offset="1" style="stop-color:#5262FC"/>
	</linearGradient>
	<path class="st55" d="M276.7,1.2v142.2c0,0,2,42-17.1,55.8l-148.9,88.3"/>
	<linearGradient id="SVGID_56_" gradientUnits="userSpaceOnUse" x1="129.1755" y1="144.3015" x2="283.6245" y2="144.3015">
		<stop  offset="0" style="stop-color:#5262FC;stop-opacity:0"/>
		<stop  offset="1" style="stop-color:#5262FC"/>
	</linearGradient>
	<path class="st56" d="M283.1,1.2V146c0,0,1.4,41.5-15.5,53.7l-137.9,87.7"/>
	<linearGradient id="SVGID_57_" gradientUnits="userSpaceOnUse" x1="148.1114" y1="144.3015" x2="289.981" y2="144.3015">
		<stop  offset="0" style="stop-color:#5262FC;stop-opacity:0"/>
		<stop  offset="1" style="stop-color:#5262FC"/>
	</linearGradient>
	<path class="st57" d="M289.5,1.2v147.5c0,0,0.9,41-13.9,51.7l-126.9,87.1"/>
	<linearGradient id="SVGID_58_" gradientUnits="userSpaceOnUse" x1="167.0472" y1="144.3015" x2="296.3483" y2="144.3015">
		<stop  offset="0" style="stop-color:#5262FC;stop-opacity:0"/>
		<stop  offset="1" style="stop-color:#5262FC"/>
	</linearGradient>
	<path class="st58" d="M295.8,1.2v150.2c0,0,0.3,40.4-12.4,49.6l-115.9,86.5"/>
	<linearGradient id="SVGID_59_" gradientUnits="userSpaceOnUse" x1="186.4635" y1="144.3015" x2="303.1194" y2="144.3015">
		<stop  offset="0" style="stop-color:#5262FC;stop-opacity:0"/>
		<stop  offset="1" style="stop-color:#5262FC"/>
	</linearGradient>
	<path class="st59" d="M302.4,1.2l0.2,151.9c0,0,0.9,38.1-14.5,52.1L187,287.4"/>
	<linearGradient id="SVGID_60_" gradientUnits="userSpaceOnUse" x1="205.8798" y1="144.3015" x2="309.8992" y2="144.3015">
		<stop  offset="0" style="stop-color:#5262FC;stop-opacity:0"/>
		<stop  offset="1" style="stop-color:#5262FC"/>
	</linearGradient>
	<path class="st60" d="M309,1.2l0.4,153.6c0,0,1.4,35.9-16.6,54.7l-86.4,78.1"/>
	<linearGradient id="SVGID_61_" gradientUnits="userSpaceOnUse" x1="225.2961" y1="144.3015" x2="316.6856" y2="144.3015">
		<stop  offset="0" style="stop-color:#5262FC;stop-opacity:0"/>
		<stop  offset="1" style="stop-color:#5262FC"/>
	</linearGradient>
	<path class="st61" d="M315.6,1.2l0.6,155.2c0,0,2,33.6-18.7,57.2l-71.6,73.8"/>
	<linearGradient id="SVGID_62_" gradientUnits="userSpaceOnUse" x1="244.7123" y1="144.3015" x2="323.4767" y2="144.3015">
		<stop  offset="0" style="stop-color:#5262FC;stop-opacity:0"/>
		<stop  offset="1" style="stop-color:#5262FC"/>
	</linearGradient>
	<path class="st62" d="M322.1,1.2l0.8,156.9c0,0,2.5,31.3-20.9,59.7l-56.8,69.6"/>
	<linearGradient id="SVGID_63_" gradientUnits="userSpaceOnUse" x1="264.1339" y1="144.3015" x2="329.8863" y2="144.3015">
		<stop  offset="0" style="stop-color:#5262FC;stop-opacity:0"/>
		<stop  offset="1" style="stop-color:#5262FC"/>
	</linearGradient>
	<path class="st63" d="M328.8,1.2l0.6,160.2c0,0,1.9,31.6-18.4,61.4l-46.3,64.7"/>
	<linearGradient id="SVGID_64_" gradientUnits="userSpaceOnUse" x1="283.5555" y1="144.3015" x2="336.3024" y2="144.3015">
		<stop  offset="0" style="stop-color:#5262FC;stop-opacity:0"/>
		<stop  offset="1" style="stop-color:#5262FC"/>
	</linearGradient>
	<path class="st64" d="M335.4,1.2l0.4,163.4c0,0,1.3,31.9-15.9,63l-35.8,59.9"/>
	<linearGradient id="SVGID_65_" gradientUnits="userSpaceOnUse" x1="302.9771" y1="144.3015" x2="342.728" y2="144.3015">
		<stop  offset="0" style="stop-color:#5262FC;stop-opacity:0"/>
		<stop  offset="1" style="stop-color:#5262FC"/>
	</linearGradient>
	<path class="st65" d="M342,1.2l0.2,166.6c0,0,0.6,32.2-13.5,64.7l-25.3,55"/>
	<linearGradient id="SVGID_66_" gradientUnits="userSpaceOnUse" x1="322.3987" y1="144.3015" x2="349.1655" y2="144.3015">
		<stop  offset="0" style="stop-color:#5262FC;stop-opacity:0"/>
		<stop  offset="1" style="stop-color:#5262FC"/>
	</linearGradient>
	<path class="st66" d="M348.7,1.2V171c0,0,0,32.5-11,66.3l-14.8,50.2"/>
	<linearGradient id="SVGID_67_" gradientUnits="userSpaceOnUse" x1="342.2262" y1="144.5158" x2="356.0381" y2="144.5158">
		<stop  offset="0" style="stop-color:#5262FC;stop-opacity:0.25"/>
		<stop  offset="1" style="stop-color:#5262FC;stop-opacity:0.75"/>
	</linearGradient>
	<path class="st67" d="M355.5,1.2l0,170.5c0,0,0,31.2-5.7,66.3c1,3.7-8.7,45.5-6.9,49.9"/>
	<linearGradient id="SVGID_68_" gradientUnits="userSpaceOnUse" x1="368.7141" y1="144.9445" x2="383.6065" y2="144.9445">
		<stop  offset="0" style="stop-color:#5262FC;stop-opacity:0.75"/>
		<stop  offset="1" style="stop-color:#5262FC;stop-opacity:0.25"/>
	</linearGradient>
	<path class="st68" d="M369.2,1.2l0.1,171.9c0,0,0,28.5,4.9,66.2c2.9,11.2,3.3,36.3,9,49.5"/>
	<linearGradient id="SVGID_69_" gradientUnits="userSpaceOnUse" x1="375.5636" y1="145.1588" x2="403.6757" y2="145.1588">
		<stop  offset="0" style="stop-color:#5262FC"/>
		<stop  offset="1" style="stop-color:#5262FC;stop-opacity:0"/>
	</linearGradient>
	<path class="st69" d="M376.1,1.2l0.1,172.6c0,0-0.1,52,27,115.4"/>
	<linearGradient id="SVGID_70_" gradientUnits="userSpaceOnUse" x1="382.3447" y1="145.1588" x2="423.9123" y2="145.1588">
		<stop  offset="0" style="stop-color:#5262FC"/>
		<stop  offset="1" style="stop-color:#5262FC;stop-opacity:0"/>
	</linearGradient>
	<path class="st70" d="M382.8,1.2l0.1,169.1c0,0-0.4,22.6,10.5,52.4c3,14,22.2,48.2,30,66.5"/>
	<linearGradient id="SVGID_71_" gradientUnits="userSpaceOnUse" x1="389.1258" y1="145.1588" x2="444.1488" y2="145.1588">
		<stop  offset="0" style="stop-color:#5262FC"/>
		<stop  offset="1" style="stop-color:#5262FC;stop-opacity:0"/>
	</linearGradient>
	<path class="st71" d="M389.6,1.2l0,165.7c0,0-0.7,25.5,14.7,55c2,9.3,34.1,55.2,39.3,67.3"/>
	<linearGradient id="SVGID_72_" gradientUnits="userSpaceOnUse" x1="395.9069" y1="145.1588" x2="464.3854" y2="145.1588">
		<stop  offset="0" style="stop-color:#5262FC"/>
		<stop  offset="1" style="stop-color:#5262FC;stop-opacity:0"/>
	</linearGradient>
	<path class="st72" d="M396.4,1.2l0,162.2c0,0-1,28.4,18.9,57.6c1,4.7,45.9,62.1,48.5,68.2"/>
	<linearGradient id="SVGID_73_" gradientUnits="userSpaceOnUse" x1="402.6757" y1="145.1588" x2="484.6219" y2="145.1588">
		<stop  offset="0" style="stop-color:#5262FC"/>
		<stop  offset="1" style="stop-color:#5262FC;stop-opacity:0"/>
	</linearGradient>
	<path class="st73" d="M403.2,1.2v158.7c0,0-1.3,31.2,23.1,60.2l57.8,69.1"/>
	<linearGradient id="SVGID_74_" gradientUnits="userSpaceOnUse" x1="409.1941" y1="144.9445" x2="504.1462" y2="144.9445">
		<stop  offset="0" style="stop-color:#5262FC"/>
		<stop  offset="1" style="stop-color:#5262FC;stop-opacity:0"/>
	</linearGradient>
	<path class="st74" d="M409.9,1.2l-0.2,153.2c0,0-1.6,37,20.9,61.4l73,73"/>
	<linearGradient id="SVGID_75_" gradientUnits="userSpaceOnUse" x1="415.7061" y1="144.7301" x2="523.6705" y2="144.7301">
		<stop  offset="0" style="stop-color:#5262FC"/>
		<stop  offset="1" style="stop-color:#5262FC;stop-opacity:0"/>
	</linearGradient>
	<path class="st75" d="M416.6,1.2l-0.4,147.6c0,0-1.8,42.8,18.7,62.6l88.2,76.9"/>
	<linearGradient id="SVGID_76_" gradientUnits="userSpaceOnUse" x1="422.2088" y1="144.5158" x2="543.1947" y2="144.5158">
		<stop  offset="0" style="stop-color:#5262FC"/>
		<stop  offset="1" style="stop-color:#5262FC;stop-opacity:0"/>
	</linearGradient>
	<path class="st76" d="M423.3,1.2l-0.6,142c0,0-2,48.6,16.5,63.8l103.4,80.8"/>
	<linearGradient id="SVGID_77_" gradientUnits="userSpaceOnUse" x1="428.698" y1="144.3015" x2="562.719" y2="144.3015">
		<stop  offset="0" style="stop-color:#5262FC"/>
		<stop  offset="1" style="stop-color:#5262FC;stop-opacity:0"/>
	</linearGradient>
	<path class="st77" d="M430.1,1.2l-0.8,136.5c0,0-2.3,54.3,14.4,65.1l118.6,84.7"/>
	<linearGradient id="SVGID_78_" gradientUnits="userSpaceOnUse" x1="435.425" y1="144.3015" x2="583.3697" y2="144.3015">
		<stop  offset="0" style="stop-color:#5262FC"/>
		<stop  offset="1" style="stop-color:#5262FC;stop-opacity:0"/>
	</linearGradient>
	<path class="st78" d="M582.9,287.4l-131.2-85c-12.5-8-16.6-51.1-15.6-69.5l0.4-131.9"/>
	<linearGradient id="SVGID_79_" gradientUnits="userSpaceOnUse" x1="442.0842" y1="144.3015" x2="604.0203" y2="144.3015">
		<stop  offset="0" style="stop-color:#5262FC"/>
		<stop  offset="1" style="stop-color:#5262FC;stop-opacity:0"/>
	</linearGradient>
	<path class="st79" d="M603.5,287.4l-143.8-85.2c-8.3-5.4-18.9-37.2-16.9-73.9l0.1-127.2"/>
	<linearGradient id="SVGID_80_" gradientUnits="userSpaceOnUse" x1="448.7409" y1="144.3015" x2="624.671" y2="144.3015">
		<stop  offset="0" style="stop-color:#5262FC"/>
		<stop  offset="1" style="stop-color:#5262FC;stop-opacity:0"/>
	</linearGradient>
	<path class="st80" d="M624.2,287.4l-156.4-85.4c-4.2-2.7-21.2-23.3-18.2-78.3L449.3,1.2"/>
	<linearGradient id="SVGID_81_" gradientUnits="userSpaceOnUse" x1="455.2747" y1="144.3015" x2="645.3217" y2="144.3015">
		<stop  offset="0" style="stop-color:#5262FC"/>
		<stop  offset="1" style="stop-color:#5262FC;stop-opacity:0"/>
	</linearGradient>
	<path class="st81" d="M644.8,287.4l-169-85.6c0,0-23.4-9.4-19.5-82.8l-0.6-118"/>
	<linearGradient id="SVGID_82_" gradientUnits="userSpaceOnUse" x1="462.3615" y1="144.0526" x2="664.4198" y2="144.0526">
		<stop  offset="0" style="stop-color:#5262FC"/>
		<stop  offset="1" style="stop-color:#5262FC;stop-opacity:0"/>
	</linearGradient>
	<path class="st82" d="M462.9,1.2l0.4,120.8c-2.9,55,14.6,77.2,21.2,79.9l179.4,85.1"/>
	<linearGradient id="SVGID_83_" gradientUnits="userSpaceOnUse" x1="469.4483" y1="143.8038" x2="683.5179" y2="143.8038">
		<stop  offset="0" style="stop-color:#5262FC"/>
		<stop  offset="1" style="stop-color:#5262FC;stop-opacity:0"/>
	</linearGradient>
	<path class="st83" d="M469.9,1.2l0.3,123.7c-2,36.7,9.8,71.7,22.9,77L683,286.4"/>
	<linearGradient id="SVGID_84_" gradientUnits="userSpaceOnUse" x1="476.5351" y1="143.5549" x2="702.616" y2="143.5549">
		<stop  offset="0" style="stop-color:#5262FC"/>
		<stop  offset="1" style="stop-color:#5262FC;stop-opacity:0"/>
	</linearGradient>
	<path class="st84" d="M477,1.2l0.1,126.6c-1,18.3,4.9,66.1,24.6,74.1L702.1,286"/>
	<linearGradient id="SVGID_85_" gradientUnits="userSpaceOnUse" x1="483.6219" y1="143.3061" x2="721.7141" y2="143.3061">
		<stop  offset="0" style="stop-color:#5262FC"/>
		<stop  offset="1" style="stop-color:#5262FC;stop-opacity:0"/>
	</linearGradient>
	<path class="st85" d="M484.1,1.2v129.5c0,0,0,60.6,26.3,71.2l210.8,83.6"/>
	<linearGradient id="SVGID_86_" gradientUnits="userSpaceOnUse" x1="490.3331" y1="140.0124" x2="721.7141" y2="140.0124">
		<stop  offset="0" style="stop-color:#5262FC"/>
		<stop  offset="1" style="stop-color:#5262FC;stop-opacity:0"/>
	</linearGradient>
	<path class="st86" d="M721.2,278.9l-202.9-77.2c-19.7-8-27.9-55.6-27.4-73l0-127.5"/>
	<linearGradient id="SVGID_87_" gradientUnits="userSpaceOnUse" x1="497.0442" y1="136.7187" x2="721.7141" y2="136.7187">
		<stop  offset="0" style="stop-color:#5262FC"/>
		<stop  offset="1" style="stop-color:#5262FC;stop-opacity:0"/>
	</linearGradient>
	<path class="st87" d="M721.2,272.3l-195-70.8c-13.1-5.3-29.5-40-28.5-74.7L497.5,1.2"/>
	<linearGradient id="SVGID_88_" gradientUnits="userSpaceOnUse" x1="503.7554" y1="133.425" x2="721.7141" y2="133.425">
		<stop  offset="0" style="stop-color:#5262FC"/>
		<stop  offset="1" style="stop-color:#5262FC;stop-opacity:0"/>
	</linearGradient>
	<path class="st88" d="M721.2,265.7l-187.2-64.4c-6.6-2.7-31.2-24.4-29.7-76.5L504.3,1.2"/>
	<linearGradient id="SVGID_89_" gradientUnits="userSpaceOnUse" x1="510.4665" y1="130.1313" x2="721.7141" y2="130.1313">
		<stop  offset="0" style="stop-color:#5262FC"/>
		<stop  offset="1" style="stop-color:#5262FC;stop-opacity:0"/>
	</linearGradient>
	<path class="st89" d="M721.2,259.1l-179.3-58.1c0,0-32.8-8.8-30.8-78.2L511,1.2"/>
	<linearGradient id="SVGID_90_" gradientUnits="userSpaceOnUse" x1="519.8572" y1="127.1121" x2="721.7141" y2="127.1121">
		<stop  offset="0" style="stop-color:#5262FC"/>
		<stop  offset="1" style="stop-color:#5262FC;stop-opacity:0"/>
	</linearGradient>
	<path class="st90" d="M521.5,1.2l-1.1,126.5c-1.4,46.3,20.5,67.5,33.8,73.7l167,51.7"/>
	<linearGradient id="SVGID_91_" gradientUnits="userSpaceOnUse" x1="529.1492" y1="124.0928" x2="721.7141" y2="124.0928">
		<stop  offset="0" style="stop-color:#5262FC"/>
		<stop  offset="1" style="stop-color:#5262FC;stop-opacity:0"/>
	</linearGradient>
	<path class="st91" d="M532.1,1.2l-2.4,131.3c-0.7,23.1,10.3,56.8,36.8,69.2L721.2,247"/>
	<linearGradient id="SVGID_92_" gradientUnits="userSpaceOnUse" x1="538.4401" y1="121.0736" x2="721.7141" y2="121.0736">
		<stop  offset="0" style="stop-color:#5262FC"/>
		<stop  offset="1" style="stop-color:#5262FC;stop-opacity:0"/>
	</linearGradient>
	<path class="st92" d="M542.7,1.2l-3.8,136.1c0,0,0,46.1,39.8,64.6L721.2,241"/>
	<linearGradient id="SVGID_93_" gradientUnits="userSpaceOnUse" x1="547.1126" y1="118.9464" x2="721.7141" y2="118.9464">
		<stop  offset="0" style="stop-color:#5262FC"/>
		<stop  offset="1" style="stop-color:#5262FC;stop-opacity:0"/>
	</linearGradient>
	<path class="st93" d="M721.2,236.7l-132.5-35.1c-26.5-12.4-40.5-47.3-41.1-65l2.5-135.5"/>
	<linearGradient id="SVGID_94_" gradientUnits="userSpaceOnUse" x1="555.7854" y1="116.8192" x2="721.7141" y2="116.8192">
		<stop  offset="0" style="stop-color:#5262FC"/>
		<stop  offset="1" style="stop-color:#5262FC;stop-opacity:0"/>
	</linearGradient>
	<path class="st94" d="M721.2,232.5l-122.4-31.2c-13.3-6.2-41.3-30-42.5-65.3l1.3-134.9"/>
	<linearGradient id="SVGID_95_" gradientUnits="userSpaceOnUse" x1="564.4581" y1="114.692" x2="721.7141" y2="114.692">
		<stop  offset="0" style="stop-color:#5262FC"/>
		<stop  offset="1" style="stop-color:#5262FC;stop-opacity:0"/>
	</linearGradient>
	<path class="st95" d="M721.2,228.2l-112.4-27.2c0,0-42-12.6-43.8-65.6V1.2"/>
	<linearGradient id="SVGID_96_" gradientUnits="userSpaceOnUse" x1="573.4984" y1="113.2743" x2="721.7141" y2="113.2743">
		<stop  offset="0" style="stop-color:#5262FC"/>
		<stop  offset="1" style="stop-color:#5262FC;stop-opacity:0"/>
	</linearGradient>
	<path class="st96" d="M574,1.2v134.7c1.2,35.3,29.2,60.6,45.1,65.3l102.1,24.2"/>
	<linearGradient id="SVGID_97_" gradientUnits="userSpaceOnUse" x1="582.5386" y1="111.8566" x2="721.7141" y2="111.8566">
		<stop  offset="0" style="stop-color:#5262FC"/>
		<stop  offset="1" style="stop-color:#5262FC;stop-opacity:0"/>
	</linearGradient>
	<path class="st97" d="M583,1.2v135.2c0.6,17.7,14.6,55.7,46.4,64.9l91.8,21.3"/>
	<linearGradient id="SVGID_98_" gradientUnits="userSpaceOnUse" x1="591.5788" y1="110.4389" x2="721.7141" y2="110.4389">
		<stop  offset="0" style="stop-color:#5262FC"/>
		<stop  offset="1" style="stop-color:#5262FC;stop-opacity:0"/>
	</linearGradient>
	<path class="st98" d="M592.1,1.2v135.7c0,0,0,50.7,47.6,64.5l81.5,18.4"/>
	<linearGradient id="SVGID_99_" gradientUnits="userSpaceOnUse" x1="599.5826" y1="109.0471" x2="721.7141" y2="109.0471">
		<stop  offset="0" style="stop-color:#5262FC"/>
		<stop  offset="1" style="stop-color:#5262FC;stop-opacity:0"/>
	</linearGradient>
	<path class="st99" d="M721.2,216.9l-71.1-15.7c-31.8-9.2-49.5-47.7-50-63.8l0.7-136.4"/>
	<linearGradient id="SVGID_100_" gradientUnits="userSpaceOnUse" x1="607.5864" y1="107.6552" x2="721.7141" y2="107.6552">
		<stop  offset="0" style="stop-color:#5262FC"/>
		<stop  offset="1" style="stop-color:#5262FC;stop-opacity:0"/>
	</linearGradient>
	<path class="st100" d="M721.2,214.2l-60.7-12.9c-15.9-4.6-51.3-30.8-52.5-63l1.4-137.1"/>
	<linearGradient id="SVGID_101_" gradientUnits="userSpaceOnUse" x1="615.5901" y1="106.2634" x2="721.7141" y2="106.2634">
		<stop  offset="0" style="stop-color:#5262FC"/>
		<stop  offset="1" style="stop-color:#5262FC;stop-opacity:0"/>
	</linearGradient>
	<path class="st101" d="M721.2,211.4l-50.3-10.2c0,0-53.2-13.9-54.9-62.2l2.1-137.8"/>
	<linearGradient id="SVGID_102_" gradientUnits="userSpaceOnUse" x1="624.5887" y1="105.2041" x2="721.7141" y2="105.2041">
		<stop  offset="0" style="stop-color:#5262FC"/>
		<stop  offset="1" style="stop-color:#5262FC;stop-opacity:0"/>
	</linearGradient>
	<path class="st102" d="M627.1,1.2l-2,136.5c1.1,32.2,35.2,57,56.3,63.5l39.8,8.1"/>
	<linearGradient id="SVGID_103_" gradientUnits="userSpaceOnUse" x1="633.5874" y1="104.1449" x2="721.7141" y2="104.1449">
		<stop  offset="0" style="stop-color:#5262FC"/>
		<stop  offset="1" style="stop-color:#5262FC;stop-opacity:0"/>
	</linearGradient>
	<path class="st103" d="M635.9,1.2l-1.9,135.3c0.6,16.1,15.5,51.7,57.8,64.8l29.3,5.9"/>
	<linearGradient id="SVGID_104_" gradientUnits="userSpaceOnUse" x1="642.5317" y1="103.0857" x2="721.7141" y2="103.0857">
		<stop  offset="0" style="stop-color:#5262FC"/>
		<stop  offset="1" style="stop-color:#5262FC;stop-opacity:0"/>
	</linearGradient>
	<path class="st104" d="M644.8,1.2l-1.7,134.1c0,0-4.1,46.4,59.3,66.1l18.9,3.7"/>
	<linearGradient id="SVGID_105_" gradientUnits="userSpaceOnUse" x1="651.1755" y1="101.8539" x2="721.7141" y2="101.8539">
		<stop  offset="0" style="stop-color:#5262FC"/>
		<stop  offset="1" style="stop-color:#5262FC;stop-opacity:0"/>
	</linearGradient>
	<path class="st105" d="M721.2,202.5c0,0-14.8-3.3-17.7-5c-29.5-10.5-46.1-29.7-49.8-48.4c-2.7-7.4-2-18.9-2-18.9l2-129.1"/>
	<linearGradient id="SVGID_106_" gradientUnits="userSpaceOnUse" x1="659.7969" y1="100.6222" x2="721.7141" y2="100.6222">
		<stop  offset="0" style="stop-color:#5262FC"/>
		<stop  offset="1" style="stop-color:#5262FC;stop-opacity:0"/>
	</linearGradient>
	<path class="st106" d="M721.2,200.1c0,0-10.8-2.9-16.5-6.2c-22.5-9.8-41.7-28-43.5-50.3c-1.3-3.7-0.8-18.3-0.8-18.3l2.3-124.2"/>
	<linearGradient id="SVGID_107_" gradientUnits="userSpaceOnUse" x1="668.1522" y1="99.3905" x2="721.7141" y2="99.3905">
		<stop  offset="0" style="stop-color:#5262FC"/>
		<stop  offset="1" style="stop-color:#5262FC;stop-opacity:0"/>
	</linearGradient>
	<path class="st107" d="M721.2,197.6c0,0-52.6-19.3-52.6-59.5l3-136.9"/>
	<linearGradient id="SVGID_108_" gradientUnits="userSpaceOnUse" x1="695.8669" y1="90.9283" x2="721.4335" y2="90.9283">
		<stop  offset="0" style="stop-color:#5262FC"/>
		<stop  offset="1" style="stop-color:#5262FC;stop-opacity:0"/>
	</linearGradient>
	<path class="st108" d="M698.2,1.2l-1.8,125.5c0,0-1.4,40.8,24.8,53.6"/>
	
		<linearGradient id="SVGID_109_" gradientUnits="userSpaceOnUse" x1="138.0049" y1="94.7886" x2="179.3382" y2="94.7886" gradientTransform="matrix(-1 0 0 1 860.7875 0)">
		<stop  offset="0" style="stop-color:#5262FC;stop-opacity:0"/>
		<stop  offset="1" style="stop-color:#5262FC"/>
	</linearGradient>
	<path class="st109" d="M684.7,0.4L682,137.3c0,0-2,35.2,40.3,51.9"/>
	<linearGradient id="SVGID_110_" gradientUnits="userSpaceOnUse" x1="362.3462" y1="144.1789" x2="363.3462" y2="144.1789">
		<stop  offset="0" style="stop-color:#5262FC;stop-opacity:0.5"/>
		<stop  offset="1" style="stop-color:#5262FC;stop-opacity:0.5"/>
	</linearGradient>
	<line class="st110" x1="362.8" y1="0.4" x2="362.8" y2="288"/>
</g>
</svg>
