<svg id="b0225cde-a2d2-4693-8ce5-502a1e8a6144" xmlns="http://www.w3.org/2000/svg" xmlns:xlink="http://www.w3.org/1999/xlink" viewBox="0 0 1077.38 752.86"><defs><style>.cls-1{opacity:0.5;}.cls-2{fill:#d0d2d5;}.cls-12,.cls-3,.cls-7{opacity:0.1;}.cls-3,.cls-7{isolation:isolate;}.cls-4{fill:#3f3d56;}.cls-5{fill:#fbbebe;}.cls-6{fill:#f86d70;}.cls-7,.cls-9{fill:#5333ed;}.cls-8{fill:none;stroke:#3f3d56;stroke-miterlimit:10;stroke-width:12px;}.cls-10{fill:#2f2e41;}.cls-11{fill:url(#linear-gradient);}</style><linearGradient id="linear-gradient" x1="1439.4" y1="17.57" x2="1439.4" y2="280.28" gradientTransform="matrix(-1, -0.04, 0.04, -1, 2259.92, 728)" gradientUnits="userSpaceOnUse"><stop offset="0" stop-color="gray" stop-opacity="0.25"/><stop offset="0.54" stop-color="gray" stop-opacity="0.12"/><stop offset="1" stop-color="gray" stop-opacity="0.1"/></linearGradient></defs><title>V</title><g class="cls-1"><rect class="cls-2" x="869.38" y="355.09" width="107.2" height="107.2" rx="11.3"/><path class="cls-3" d="M907.78,385.9h30.4s25.6,22.4,0,45.6h-30.4S882.18,410.7,907.78,385.9Z"/><rect class="cls-4" x="910.98" y="398.69" width="4" height="12"/><rect class="cls-4" x="930.98" y="397.09" width="4" height="14.4"/><path class="cls-4" d="M923,417.89h0a4.8,4.8,0,0,1,4.8,4.8v4h-9.6v-4A4.8,4.8,0,0,1,923,417.89Z"/></g><path class="cls-5" d="M749.94,120.62a12.2,12.2,0,0,1,4.25-1,9.12,9.12,0,0,1,2.73.63,12.77,12.77,0,0,1,4.35,2.24,5.19,5.19,0,0,1,1.93,4.32,6.41,6.41,0,0,1-2.66,4,10.64,10.64,0,0,1-6.21,2.4c-2.54,0-4.94-1.11-7.4-1.79a21.68,21.68,0,0,0-5.49-.8,11.36,11.36,0,0,1-2.79-.17,3,3,0,0,1-2.14-1.65,4.09,4.09,0,0,1,0-2.4c.18-1,.15-3.34,1-3.94.7-.48,3.2-.09,4.06-.16A40.22,40.22,0,0,0,749.94,120.62Z"/><path class="cls-6" d="M692.83,104.52a37,37,0,0,1,6.2,8c2.81,4.91,4.6,10.62,8.84,14.4a30.06,30.06,0,0,0,3.58,2.58,10.38,10.38,0,0,0,3.25,1.6c3.81.86,8.08-.34,11.79-1.6a73.91,73.91,0,0,0,10.66-4.8,8.86,8.86,0,0,0,1.25,4.38c.89,1.26,2.71,2,4,1.2a47.88,47.88,0,0,0-9.22,5.71c-1.1.93-2.11,1.95-3.28,2.79-4.22,3-10,3.34-13.95,6.78a3.74,3.74,0,0,1-4.32.52c-1.36-.8-2.28-2.18-3.39-3.29-2.19-2.19-5.17-3.47-7.32-5.71-1-1-1.8-2.25-2.82-3.26-1.47-1.44-3.37-2.4-4.71-4-1-1.18-1.6-2.61-2.54-3.86-.8-1.09-1.74-2-2.46-3.2-1.74-2.78-1.72-6.4-.72-9.52S691,107.23,692.83,104.52Z"/><path class="cls-3" d="M692.83,104.52a37,37,0,0,1,6.2,8c2.81,4.91,4.6,10.62,8.84,14.4a30.06,30.06,0,0,0,3.58,2.58,10.38,10.38,0,0,0,3.25,1.6c3.81.86,8.08-.34,11.79-1.6a73.91,73.91,0,0,0,10.66-4.8,8.86,8.86,0,0,0,1.25,4.38c.89,1.26,2.71,2,4,1.2a47.88,47.88,0,0,0-9.22,5.71c-1.1.93-2.11,1.95-3.28,2.79-4.22,3-10,3.34-13.95,6.78a3.74,3.74,0,0,1-4.32.52c-1.36-.8-2.28-2.18-3.39-3.29-2.19-2.19-5.17-3.47-7.32-5.71-1-1-1.8-2.25-2.82-3.26-1.47-1.44-3.37-2.4-4.71-4-1-1.18-1.6-2.61-2.54-3.86-.8-1.09-1.74-2-2.46-3.2-1.74-2.78-1.72-6.4-.72-9.52S691,107.23,692.83,104.52Z"/><path class="cls-5" d="M690.39,122a17.49,17.49,0,0,1-6.4-5,29.2,29.2,0,0,1-2.4-3.56,107.58,107.58,0,0,1-7.8-16c3.4.69,7,1.32,10.33.36a14.13,14.13,0,0,0,4.8-2.54A40.72,40.72,0,0,0,694,90.24a47,47,0,0,0,4,6.4c.85,1.16,3.75,3.5,3.53,5.07s-3.41,2.35-4.71,3.09l-.13.09a18.23,18.23,0,0,0-4.92,4.59C689.23,113,688.36,118,690.39,122Z"/><path class="cls-3" d="M696.87,104.77a15,15,0,0,1-7.88-9.6,42,42,0,0,0,5-4.93,50.39,50.39,0,0,0,4,6.4c.86,1.15,3.75,3.49,3.54,5.06S698.16,104,696.87,104.77Z"/><circle class="cls-5" cx="704.07" cy="90.96" r="14.98"/><path class="cls-6" d="M671.29,184.3a7,7,0,0,1-6.9.17,13.46,13.46,0,0,1-3-2.51c-4.92-5-9.6-10.4-12.89-16.66a11.67,11.67,0,0,1-1.46-4.3,4.73,4.73,0,0,1,1.55-4.09,3.16,3.16,0,0,0,.8-.75,3,3,0,0,0,.26-1.36,4.27,4.27,0,0,1,2.83-3.54c-.8-.54-.48-1.75,0-2.53s1.25-1.6,1.12-2.49a14.05,14.05,0,0,0-.73-1.75c-.29-1,.23-2,.51-3,.58-2,.23-4.12.09-6.2-.43-6.16,1.07-12.28,2.55-18.27a49.3,49.3,0,0,1,2.82-8.88,24,24,0,0,1,1.23-2.31,60.77,60.77,0,0,1,5-7,9.05,9.05,0,0,1,3.43-3.07,3.25,3.25,0,0,1,.4-.15,9,9,0,0,1,3.06-.23c2.7.17,5.54.8,7.47,2.71s2.55,4.57,3.42,7.15a21,21,0,0,0,1,2.52,25.23,25.23,0,0,0,5.39,6.5l2.21,2.14c1.12,1.07,3,.8,4.09,1.93a5,5,0,0,1,.94,1.79,28,28,0,0,1,2,9.06,17.83,17.83,0,0,1-.12,2.07,10.86,10.86,0,0,1-3,6.4c-1.92,1.85-4.59,2.76-6.5,4.62a17.31,17.31,0,0,0-3.44,5.6q-2.64,5.81-5.29,11.63a67.44,67.44,0,0,0-3.29,8.2C675.29,173.33,676.23,181.22,671.29,184.3Z"/><path class="cls-3" d="M655.23,148.72a4.31,4.31,0,0,0-2,.6c1.47-.52,3.25.85,4.6.2.64-.3.54-.39,0-.57C657,148.68,656.05,148.92,655.23,148.72Z"/><rect class="cls-2" x="849.07" y="423.2" width="62.4" height="11.2" transform="translate(-92.74 319.28) rotate(-19.55)"/><path class="cls-2" d="M868.67,455.85l53.52-19a5.6,5.6,0,0,1,7.15,3.41h0a5.6,5.6,0,0,1-3.4,7.15l-53.53,19h0l-3.74-10.56Z"/><path class="cls-4" d="M817.67,423l13-4.63A46.41,46.41,0,0,1,890,446.59l4.63,13a18.15,18.15,0,0,1-11,23.17L843.9,496.88a18.14,18.14,0,0,1-23.17-11l-14.08-39.67A18.14,18.14,0,0,1,817.67,423Z"/><path class="cls-3" d="M654.51,156.52a3.1,3.1,0,0,0-1.68-.1,3.55,3.55,0,0,0-2.2,1.08,1.2,1.2,0,0,0,1,0,6.14,6.14,0,0,1,1.6-.18c.46,0,1.85.52,2.21.29C656,157.27,654.87,156.66,654.51,156.52Z"/><path class="cls-3" d="M698.51,131.29a15.06,15.06,0,0,1-3.43-1.65c-2.81-1.78-5.17-4.2-7.94-6a43.71,43.71,0,0,0-4.35-2.4l-9.36-4.8a9.84,9.84,0,0,0-2.28-.93c-1.52-.33-3.24.69-4.8.48a5.8,5.8,0,0,1-3.9-2.7,14,14,0,0,1-1.76-4.54,23,23,0,0,1-.54-2.87,13.34,13.34,0,0,1,0-3,7.61,7.61,0,0,1,2.64-5.17,9.68,9.68,0,0,1,3.71-1.6,15.83,15.83,0,0,1,2.57-.42,9.14,9.14,0,0,1,1.48,0c3.53.28,6.53,2.68,8.89,5.32,1.24,1.39,2.4,2.89,3.58,4.3a19.77,19.77,0,0,0,1,2.52,25,25,0,0,0,5.38,6.51l2.22,2.13c1.11,1.07,3,.8,4.09,1.93a5.28,5.28,0,0,1,.93,1.79,27.91,27.91,0,0,1,2,9.09A17.83,17.83,0,0,1,698.51,131.29Z"/><ellipse class="cls-7" cx="440.8" cy="595.88" rx="340" ry="26.4"/><path class="cls-8" d="M697,174.44,727.49,134a28.79,28.79,0,0,1,6.21-6.63c7.2-5,17.75-2,23.77,4.35s8.56,15.24,10.4,23.82a252.51,252.51,0,0,1,5.73,60.12c-.25,10.63-1.21,21.38-4.59,31.46-5.14,15.35-15.54,28.27-23.41,42.4-12.66,22.78-18,53.16-1.93,73.71C748.89,369.88,756,375,760.83,382c5.44,7.89,7.56,17.55,9.6,26.93,3,14.16,6.07,28.4,6.63,42.88,1.81,46.79-24.87,93.54-66.07,115.8-28.6,15.45-63.2,19.93-88.08,40.89-8.8,7.38-16.38,18.24-14.22,29.49,1.76,9.13,9.78,16.06,18.58,19.08s18.34,2.77,27.62,2.24a509.41,509.41,0,0,0,66.4-8.2c18.58-3.55,37.14-6.62,53.34-16.39a11.27,11.27,0,0,0,4-3.63,13.19,13.19,0,0,0,1.36-5.91c.44-6,.86-12.24-1.26-17.88-2.47-6.59-8.11-11.58-10.82-18.08s-2.21-14-.46-20.8c2.16-8.43,6.09-16.29,10-24,3.85-7.55,7.75-15.08,12.28-22.24C802.56,502,820,485.34,837.23,468.9"/><path class="cls-9" d="M605.89,586.43H471.49l-153-420h120.9l100.2,300.9,100.2-300.9h119.1Z"/><ellipse class="cls-7" cx="741.38" cy="663.28" rx="220" ry="28.62"/><rect class="cls-2" x="444.11" y="592.1" width="189.16" height="4.57"/><path class="cls-5" d="M747.49,116.42a11.93,11.93,0,0,1,4.25-1,9.42,9.42,0,0,1,2.73.62,13,13,0,0,1,4.36,2.25,5.18,5.18,0,0,1,1.92,4.32,6.39,6.39,0,0,1-2.66,4,10.55,10.55,0,0,1-6.21,2.4c-2.54,0-4.94-1.11-7.4-1.79a20.76,20.76,0,0,0-5.49-.8,12.44,12.44,0,0,1-2.79-.19,3,3,0,0,1-2.14-1.64,4.3,4.3,0,0,1,0-2.36c.19-1,.16-3.35,1-3.94.7-.47,3.2-.09,4.06-.16A41.53,41.53,0,0,0,747.49,116.42Z"/><path class="cls-6" d="M736.39,117.22c-3.31,1.52-7.2.26-10.8.25-1.76,0-3.52.29-5.28.4a47.57,47.57,0,0,1-5.85-.15l-5.86-.4a50.4,50.4,0,0,1-10.23-1.41c-2.86-3.38-7.51-4.87-11-7.62-2.77-2.21-4.75-5.21-7.11-7.86s-5.35-5-8.88-5.32a13.25,13.25,0,0,0-4.06.43,9.55,9.55,0,0,0-3.7,1.6,7.57,7.57,0,0,0-2.64,5.17,17.52,17.52,0,0,0,.58,5.9,14.25,14.25,0,0,0,1.76,4.55,5.85,5.85,0,0,0,3.92,2.69c1.54.21,3.25-.8,4.8-.48a9.52,9.52,0,0,1,2.27.93l9.37,4.8a44.7,44.7,0,0,1,4.34,2.4c2.78,1.82,5.14,4.25,7.94,6s6.36,2.91,9.48,1.74c9.6-3.58,20.41-1.91,30.6-1-.07-.19.35-.36.47-.52a8.62,8.62,0,0,0,1.6-6A29.61,29.61,0,0,0,736.39,117.22Z"/><path class="cls-10" d="M720.29,90.27a5.49,5.49,0,0,0,2.4-2.15c.91-1.68.35-3.76-.27-5.6s-1.26-3.44-1.95-5.14a12.43,12.43,0,0,0-2.23-3.9c-1.41-1.51-3.44-2.27-5.13-3.46-2-1.42-3.49-3.42-5.18-5.19s-3.75-3.41-6.18-3.71a12,12,0,0,0-5.46,1c-14.61,5.37-26.55,16-39.63,24.43-5.09,3.29-10.8,6.35-16.8,5.91l5.37,8.53c1.36,2.19,2.9,4.5,5.3,5.43,2.12.8,4.49.4,6.71,0a17.85,17.85,0,0,0,5.11-1.53c3.2-1.74,5.26-5.35,8.7-6.6,2.57-.94,5.43-.36,8,.53s5.09,2.12,7.79,2.48c4.8.65,9.6-1.52,13.6-4.32,2.4-1.66,4.59-3.57,7.2-4.8a10.83,10.83,0,0,1,6.4-1.12C716.47,91.41,717.89,91.52,720.29,90.27Z"/><path class="cls-3" d="M722.69,88.12c.9-1.65.37-3.68-.24-5.47a4.77,4.77,0,0,1-.4,3,5.59,5.59,0,0,1-2.4,2.14c-2.4,1.27-3.86,1.15-6.32.75a11,11,0,0,0-6.4,1.12c-2.6,1.26-4.8,3.2-7.2,4.8-4,2.8-8.8,5-13.6,4.32-2.71-.36-5.22-1.6-7.79-2.48s-5.45-1.48-8-.54c-3.43,1.26-5.47,4.87-8.69,6.6a18.29,18.29,0,0,1-5.11,1.54c-2.23.43-4.6.85-6.71,0-2.4-.93-3.94-3.25-5.32-5.44l-3.8-6h-.92l5.37,8.53c1.37,2.19,2.91,4.5,5.31,5.43,2.12.8,4.48.4,6.71,0a17.94,17.94,0,0,0,5.11-1.53c3.2-1.74,5.26-5.35,8.7-6.6,2.56-.94,5.43-.36,8,.53s5.08,2.12,7.79,2.48c4.8.65,9.6-1.52,13.6-4.32,2.4-1.66,4.58-3.57,7.2-4.8A10.83,10.83,0,0,1,714,91c2.46.4,3.92.51,6.31-.75A5.42,5.42,0,0,0,722.69,88.12Z"/><path class="cls-11" d="M764.05,635.35a8,8,0,0,1,1.74-1.94c3.5-3.29,5.12-8.14,6-12.89s1.11-9.6,2.49-14.25a45.45,45.45,0,0,1,2.82-6.94c.8-1.71,1.8-5.07,3.27-6.26a2.17,2.17,0,0,1,1-.49,11.79,11.79,0,0,1,2.9-3.86c2.28-2.07,5.08-3.72,6.6-6.4a14.19,14.19,0,0,1,1.55-2.63c1-1.14,2.66-1.6,3.61-2.81,1.24-1.55,1-3.76.8-5.75s0-4.34,1.72-5.37c1-.63,2.34-.58,3.4-1.13,1.6-.8,2.24-2.82,2.2-4.62s-.59-3.56-.73-5.35c-.45-5.73,3.33-11.42,1.86-17-.55-2.11-1.8-3.94-2.74-5.89a14,14,0,0,1-.8-2,28.54,28.54,0,0,1-7.78,1.88c4.4-9.89,3.28-21.39,5.34-32l-.26-.37a16.5,16.5,0,0,1-3.38-9.48c0-4,1.85-7.66,2.68-11.52.7-3.3.68-6.73,1.6-10a29.76,29.76,0,0,1,2.54-5.78c1-1.85,2-3.67,3.14-5.46q1.53-5.08,3.08-10.18c1.44-4.8,2.92-9.6,5.72-13.71,1-1.51,1.33-4.56,2.91-5.47a7,7,0,0,1,4.16-.73c2.23-1.25,4.18-3.05,4.46-5.51a5.73,5.73,0,0,0-.16-1.6h-.27c-3.53-.33-5.31-3.43-7.14-6.15-3-4.4-1.83-10.36,0-15.36a10.38,10.38,0,0,1,2.4-4.23c2.57-2.4,6.63-1.87,9.94-3,1.08-.47,2.17-.88,3.29-1.24a9.82,9.82,0,0,1,6.52,1.22c2,1,3.9,2.33,6,3.13s4.72,1.43,5.24,3.6a4,4,0,0,1-.18,2.19,8.26,8.26,0,0,1-2.47,3.56,14.29,14.29,0,0,1-8.69,19.86c-.61,1-1.18,2-1.7,3a9.94,9.94,0,0,0-1.4,5.83,17.65,17.65,0,0,1,1.6,1.95c2.3,3.2,3.6,7,4.8,10.7a112,112,0,0,1,3.87,14.62c1.95,4.14,4.34,8.11,5.75,12.47a28,28,0,0,0,7.51-1l6.75-1.53c2.34-.53,4.8-1.11,6.64-2.66,1-.8,1.74-1.86,2.73-2.66s3-1.72,4.07-1.07a2.82,2.82,0,0,1,.55.43c1-2,7.28,6.18,3,7l.28.8c.56,1.65,1.77,3.67,1.47,5.4L856.29,487a18.5,18.5,0,0,1-6,1.33,9.31,9.31,0,0,1-2.4-.32v1.6c-.08,10.55,1.6,21,1.91,31.58.06,1.92,0,4-1.21,5.5-1.36,1.65-3.78,2-5.88,1.6a15.19,15.19,0,0,1-1.49-.32,56.73,56.73,0,0,0-1.54,8.08l-2,14.2a21.32,21.32,0,0,0-.31,4.44c.23,3.34,2,6.35,3.28,9.44s2,6.8.35,9.69c-.52.9-1.25,1.67-1.72,2.59a10.56,10.56,0,0,0-.8,4.54q-.18,6.48-.35,12.94a1.55,1.55,0,0,1,1,.21c1.66,1.29,1.48,7.47,1.6,9.38.13,3.2,0,6.46.17,9.69A57.12,57.12,0,0,0,843,626.07a8.34,8.34,0,0,0,1.83,3.69,7.78,7.78,0,0,0,3.25,1.68,37.09,37.09,0,0,0,12.33,1.68,12.26,12.26,0,0,1,5,.43c1.57.64,2.83,2.4,2.26,4-.48,1.34-2,2-3.3,2.49a51.85,51.85,0,0,0-8.8,4A22.47,22.47,0,0,1,852.2,646a17.57,17.57,0,0,1-3.5.87l-14.18,2.4c-2.9.5-6.4.8-8.25-1.6a7.26,7.26,0,0,1-1.09-4.7c.08-3.2.72-6.46.29-9.66a28.25,28.25,0,0,0-1.48-5.55l-4.25-12.57a66,66,0,0,1-3.42-12.88c-.2-1.6-.18-3.42,1-4.42a2.81,2.81,0,0,1,1.06-.54c.05-3.86.55-7.72.33-11.58,0-1-.15-1.93-.23-2.89a13.41,13.41,0,0,0-2,2.34c-1.36,2.13-1.87,5-3.95,6.4-1.78,1.21-4.41,1.15-5.66,2.91a8.58,8.58,0,0,0-.9,2.17,15.45,15.45,0,0,1-3.2,5.08,26.49,26.49,0,0,1-2,5.07q-1.77,3.72-3.52,7.44c-1.26,2.66-2.52,5.31-4,7.82a21.71,21.71,0,0,0-2.68,5.17c-1.13,4,.7,8.29,3.62,11.2s6.75,4.59,10.53,6.15a2.9,2.9,0,0,1,1.08.64,2,2,0,0,1,.48,1.39,4.5,4.5,0,0,1-3.26,4,12.14,12.14,0,0,1-5.46.2c-10.22-1.24-20.42-3.74-29.46-8.71a10.46,10.46,0,0,1-3.52-2.71A4.16,4.16,0,0,1,764.05,635.35Z"/><path class="cls-6" d="M807.27,456q-2.55,3.92-4.8,8.05a29.24,29.24,0,0,0-2.54,5.72c-.94,3.2-.9,6.63-1.6,9.89-.8,3.84-2.67,7.51-2.67,11.43a16.47,16.47,0,0,0,3.37,9.42,45.45,45.45,0,0,0,7.06,7.28,149.9,149.9,0,0,0,10-49,17.31,17.31,0,0,0-.75-6.88c-.53-1.36-3-5.09-4.62-3.62-.59.53-.74,3-1.1,3.75A28.82,28.82,0,0,1,807.27,456Z"/><path class="cls-3" d="M807.27,456q-2.55,3.92-4.8,8.05a29.24,29.24,0,0,0-2.54,5.72c-.94,3.2-.9,6.63-1.6,9.89-.8,3.84-2.67,7.51-2.67,11.43a16.47,16.47,0,0,0,3.37,9.42,45.45,45.45,0,0,0,7.06,7.28,149.9,149.9,0,0,0,10-49,17.31,17.31,0,0,0-.75-6.88c-.53-1.36-3-5.09-4.62-3.62-.59.53-.74,3-1.1,3.75A28.82,28.82,0,0,1,807.27,456Z"/><path class="cls-5" d="M893.15,464.69c3.12-.52,6.6-.26,9,1.76a7.45,7.45,0,0,1,2.59,4.93c.21,2.23-1.08,4.85-3.3,5a10.67,10.67,0,0,1-1.6-.11,23.66,23.66,0,0,0-4.2.35,17.16,17.16,0,0,1-14.59-5.89c-1.9-2.35.61-3.43,2.87-3.91C887,466.19,890.06,465.22,893.15,464.69Z"/><path class="cls-4" d="M839.64,537l-2,14.09a21,21,0,0,0-.31,4.4c.24,3.32,2,6.31,3.28,9.38s2,6.74.36,9.6c-.52.9-1.26,1.65-1.72,2.57a10.26,10.26,0,0,0-.8,4.51l-.55,20a127.48,127.48,0,0,1-18.54-.1,1.06,1.06,0,0,1-.69-.18,1.12,1.12,0,0,1-.23-.73c-.27-4.68.54-9.37.28-14-.1-1.72-.35-3.42-.37-5.14-.1-7,3.34-13.79,2.3-20.69a43.21,43.21,0,0,0-1.28-5.13c-3.28-12-2.59-24.62-1.87-37a1,1,0,0,1,.16-.56,1,1,0,0,1,.44-.24,22.8,22.8,0,0,1,20.63,3.92c.87.71,3.07,1.39,3.64,2.22.8,1.18-.25,2.34-.71,3.58A45.83,45.83,0,0,0,839.64,537Z"/><path class="cls-3" d="M839.64,537l-2,14.09a21,21,0,0,0-.31,4.4c.24,3.32,2,6.31,3.28,9.38s2,6.74.36,9.6c-.52.9-1.26,1.65-1.72,2.57a10.26,10.26,0,0,0-.8,4.51l-.55,20a127.48,127.48,0,0,1-18.54-.1,1.06,1.06,0,0,1-.69-.18,1.12,1.12,0,0,1-.23-.73c-.27-4.68.54-9.37.28-14-.1-1.72-.35-3.42-.37-5.14-.1-7,3.34-13.79,2.3-20.69a43.21,43.21,0,0,0-1.28-5.13c-3.28-12-2.59-24.62-1.87-37a1,1,0,0,1,.16-.56,1,1,0,0,1,.44-.24,22.8,22.8,0,0,1,20.63,3.92c.87.71,3.07,1.39,3.64,2.22.8,1.18-.25,2.34-.71,3.58A45.83,45.83,0,0,0,839.64,537Z"/><path class="cls-4" d="M802.55,532.69c.93,1.95,2.19,3.76,2.74,5.85,1.46,5.51-2.3,11.2-1.86,16.85.15,1.78.7,3.52.74,5.3s-.62,3.77-2.2,4.59c-1.06.55-2.4.49-3.4,1.12-1.69,1-1.88,3.37-1.71,5.33s.44,4.17-.8,5.72c-.95,1.19-2.59,1.64-3.61,2.77a13.79,13.79,0,0,0-1.55,2.62c-1.53,2.66-4.31,4.3-6.6,6.4s-4.23,5.17-3.2,8.06c.75,2.14,2.86,3.45,4.89,4.45a52.52,52.52,0,0,0,11.66,4.12,2.16,2.16,0,0,0,2.5-.74c2.36-2.31,4.8-4.73,5.89-7.84a8.37,8.37,0,0,1,.9-2.16c1.25-1.74,3.87-1.68,5.65-2.88,2.08-1.42,2.59-4.24,3.95-6.36s3.35-3.37,4.8-5.24c2.4-3.11,3-7.24,4.8-10.79.74-1.51,1.69-2.91,2.29-4.49a24.19,24.19,0,0,0,1.09-5.78c1.13-9.34,4-18.75,2.19-28-.4-2-1-4-1.27-6.1-.45-3.63.26-7.33-.28-11a3,3,0,0,0-1.21-2.32,3.23,3.23,0,0,0-1.37-.28,95.24,95.24,0,0,0-14.23.32c-2.4.24-5.09.72-6.52,2.68-1.23,1.68-1.16,3.93-1.6,6-.48,2.51-1.76,3.88-3.09,5.85S801.56,530.67,802.55,532.69Z"/><path class="cls-10" d="M821,597.7c-1.26,0-2.66-.07-3.64.73-1.21,1-1.24,2.82-1,4.39a65.64,65.64,0,0,0,3.43,12.8L824,628.11a28.29,28.29,0,0,1,1.48,5.5c.43,3.2-.21,6.4-.29,9.6a7.54,7.54,0,0,0,1.1,4.67c1.81,2.32,5.34,2,8.24,1.55L848.7,647a16.89,16.89,0,0,0,3.5-.86,22.31,22.31,0,0,0,3.4-1.92,52.82,52.82,0,0,1,8.8-4c1.33-.49,2.82-1.13,3.3-2.47.57-1.6-.7-3.35-2.27-4a11.86,11.86,0,0,0-5-.42,37.26,37.26,0,0,1-12.32-1.68,7.59,7.59,0,0,1-3.25-1.67,8.06,8.06,0,0,1-1.84-3.65,56.72,56.72,0,0,1-2.14-12.8c-.16-3.2,0-6.4-.18-9.6-.08-1.9.1-8-1.6-9.31-1.27-1-6.51,1.72-8.22,2.11A39.45,39.45,0,0,1,821,597.7Z"/><path class="cls-10" d="M774.32,606.6c-1.37,4.59-1.6,9.43-2.49,14.14s-2.48,9.53-6,12.8a8,8,0,0,0-1.74,1.92,4,4,0,0,0,.6,4.18,10.63,10.63,0,0,0,3.51,2.7c9,4.93,19.2,7.41,29.45,8.64a12.28,12.28,0,0,0,5.46-.19,4.49,4.49,0,0,0,3.25-4,2,2,0,0,0-.47-1.38,3.1,3.1,0,0,0-1.08-.63c-3.78-1.55-7.62-3.25-10.53-6.1s-4.75-7.2-3.63-11.09a21.62,21.62,0,0,1,2.68-5.13c1.46-2.52,2.8-5.11,4-7.76l3.52-7.38a19.38,19.38,0,0,0,2.24-6.77,32.57,32.57,0,0,1-13-2.07,20.7,20.7,0,0,1-5.34-3.2c-1.36-1.14-2.6-3.25-4.43-1.77-1.47,1.18-2.4,4.51-3.27,6.21A46.74,46.74,0,0,0,774.32,606.6Z"/><path class="cls-5" d="M825.89,423.25c-.35,3.07-3.33,5.1-6.17,6.31l18,5.74c-1.16-2.22-.22-4.94.94-7.2a40.56,40.56,0,0,1,3.2-5.12c.17-.25.37-.57.24-.85a.89.89,0,0,0-.5-.39c-3.7-1.65-7.5-3.35-11.54-3.95-1.17-.18-3.38-.64-4.25.55S826.08,421.84,825.89,423.25Z"/><path class="cls-3" d="M825.89,423.25c-.35,3.07-3.33,5.1-6.17,6.31l18,5.74c-1.16-2.22-.22-4.94.94-7.2a40.56,40.56,0,0,1,3.2-5.12c.17-.25.37-.57.24-.85a.89.89,0,0,0-.5-.39c-3.7-1.65-7.5-3.35-11.54-3.95-1.17-.18-3.38-.64-4.25.55S826.08,421.84,825.89,423.25Z"/><circle class="cls-5" cx="836.36" cy="411.64" r="14.1"/><path class="cls-6" d="M848.54,527.62c-1.36,1.6-3.77,2-5.87,1.6-4.92-.8-9-4.42-13.76-5.73-5.91-1.6-12.16.46-17.73,3s-11.12,5.56-17.22,6c5.51-12.29,2.36-27.08,7.63-39.47,1.29-3,3.09-5.95,3.38-9.23.36-4.07-1.67-8-2-12.05-.29-3.61.8-7.2,1.83-10.63l3.86-12.68c1.44-4.72,2.92-9.53,5.71-13.6,1-1.5,1.35-4.52,2.92-5.43,3.42-2,8.61.52,12.32.65s7.1,2.78,9.27,5.76c2.29,3.15,3.6,6.91,4.8,10.62a99.33,99.33,0,0,1,4.27,17c.12.87.22,1.73.3,2.6.8,8.22-.36,16.48-.43,24.73v.06c-.07,10.47,1.6,20.88,1.92,31.34C849.81,524.09,849.76,526.18,848.54,527.62Z"/><path class="cls-3" d="M847.84,490.82a18.06,18.06,0,0,1-7.4-4.42,31.3,31.3,0,0,1-4.91-5.56,40.35,40.35,0,0,1-4.23-8.93,103.29,103.29,0,0,1-5.6-25.83c-.21-2.4-.27-5,1.16-6.87a5.78,5.78,0,0,1,7-1.7c1.9.93,3.12,2.79,4.25,4.57a59.3,59.3,0,0,1,6,11.05c.64,1.75,1.11,3.55,1.73,5.3a50.47,50.47,0,0,0,2.19,5.06c.12.87.23,1.73.31,2.6C849,474.27,847.91,482.53,847.84,490.82Z"/><path class="cls-6" d="M826.89,437.66c-1.42,1.9-1.36,4.5-1.16,6.87a103.75,103.75,0,0,0,5.6,25.82,39.48,39.48,0,0,0,4.23,8.93,31.3,31.3,0,0,0,4.91,5.56c2.72,2.48,6,4.7,9.72,4.73a18.49,18.49,0,0,0,6-1.32l30-10.19c.3-1.72-.9-3.71-1.47-5.36l-1.6-4.75c-.46-1.31-1-2.72-2.18-3.43s-3.08.26-4.07,1.05-1.75,1.83-2.72,2.64c-1.86,1.54-4.3,2.11-6.64,2.63l-6.74,1.52a28.43,28.43,0,0,1-7.51,1c-1.88-5.74-5.45-10.8-7.48-16.49-.62-1.75-1.1-3.55-1.74-5.29a59.65,59.65,0,0,0-6-11.06c-1.13-1.78-2.35-3.64-4.25-4.56A5.8,5.8,0,0,0,826.89,437.66Z"/><path class="cls-10" d="M831.87,414.82a7,7,0,0,1,.84-2.63,2.24,2.24,0,0,1,2.4-1.07c1.41.44,1.88,2.63,3.36,2.7,1,.05,1.7-1,2-1.91a5.74,5.74,0,0,1,1.23-2.69,4.46,4.46,0,0,1,1.74-.8c3.42-1.08,6.94-3.08,8.08-6.48a3.89,3.89,0,0,0,.18-2.16c-.52-2.15-3.2-2.8-5.24-3.58s-4-2.1-6-3.11a9.8,9.8,0,0,0-6.52-1.21,32.38,32.38,0,0,0-3.28,1.23c-3.32,1.14-7.38.61-9.95,3a10.38,10.38,0,0,0-2.4,4.2c-1.8,5-2.93,10.88,0,15.25,1.83,2.69,3.61,5.77,7.13,6.09C829.59,422,831.22,418.28,831.87,414.82Z"/><g class="cls-12"><path d="M838.12,410.21a5.92,5.92,0,0,1,1.22-2.69,4.84,4.84,0,0,1,1.74-.8c3.43-1.08,6.95-3.07,8.09-6.48a4,4,0,0,0,.18-2.16,2.81,2.81,0,0,0-.43-.95,4.16,4.16,0,0,1,2.76,2.65,3.89,3.89,0,0,1-.18,2.16c-1.14,3.4-4.67,5.4-8.08,6.48a4.57,4.57,0,0,0-1.75.8,5.83,5.83,0,0,0-1.22,2.69c-.31.94-1,2-2,1.91s-1.47-.95-2.1-1.71C837.2,412,837.83,411.08,838.12,410.21Z"/><path d="M823.15,419.94c4.11.38,5.73-3.36,6.4-6.82a7.05,7.05,0,0,1,.84-2.63,2.23,2.23,0,0,1,2.4-1.05c.76.23,1.25,1,1.77,1.6a2.4,2.4,0,0,0-1.81,1.12,6.94,6.94,0,0,0-.84,2.63c-.65,3.45-2.28,7.2-6.4,6.81a6.57,6.57,0,0,1-4.23-2.18A6.05,6.05,0,0,0,823.15,419.94Z"/></g><path class="cls-9" d="M237.43,581.17l15.31-9a37.25,37.25,0,0,0-7.83-9.36l-28.89,9,22.67-13.31a36.8,36.8,0,0,0-54.48,32.28c0,20.32,16.47,21,36.8,21s36.8-.71,36.8-21a36.39,36.39,0,0,0-3.2-14.93Z"/><path class="cls-3" d="M241.32,600.93a29,29,0,0,0-5.42-4.26c-2.79-1.85-5.66-3.74-8.94-4.36-2.88-.55-5.85-.09-8.8-.25a20.51,20.51,0,0,1-13.45-6.17c-2.08-2.16-3.73-4.8-6.24-6.47a13.74,13.74,0,0,0-9.37-1.72,26.16,26.16,0,0,0-2.77.57,36.89,36.89,0,0,0-2.18,12.49c0,20.32,16.48,21,36.8,21,9.87,0,18.82-.17,25.43-2.67l-1.11-2.06A28.9,28.9,0,0,0,241.32,600.93Z"/><path class="cls-9" d="M568,632.62l-20.31-11.94a48.86,48.86,0,0,1,10.4-12.42l38.31,11.91-30-17.65a48.79,48.79,0,0,1,72.24,42.8c0,27-21.84,27.89-48.8,27.89s-48.8-.93-48.8-27.89a48.77,48.77,0,0,1,4.19-19.8Z"/><path class="cls-3" d="M562.79,658.82a38.55,38.55,0,0,1,7.2-5.66c3.69-2.44,7.51-4.94,11.85-5.77,3.82-.73,7.75-.11,11.63-.34a27.18,27.18,0,0,0,17.84-8.17c2.77-2.87,5-6.4,8.29-8.58,3.59-2.4,8.15-2.87,12.42-2.28a32.87,32.87,0,0,1,3.68.75,48.91,48.91,0,0,1,2.88,16.56c0,26.95-21.85,27.88-48.8,27.88-13.08,0-24.95-.21-33.72-3.52l1.46-2.74A39.07,39.07,0,0,1,562.79,658.82Z"/></svg>