<svg height="117" viewBox="0 0 648 117" width="648" xmlns="http://www.w3.org/2000/svg"><path d="m646.883 58.688c0 10.995-27.764 15.467-62.736 23.895-17.997 4.337-37.68 19.786-62.549 23.05-19.986 2.62-43.144-6.877-66.621-5.106-20.778 1.567-42.105 14.551-64.995 15.35-21.21.74-43.41-10.663-65.952-10.663-22.54 0-44.737 11.402-65.948 10.663-22.891-.799-44.22-13.783-64.998-15.35-23.479-1.771-46.638 7.726-66.624 5.104-24.87-3.262-44.552-18.712-62.549-23.05-34.97-8.426-62.731-12.897-62.731-23.892 0-10.996 27.764-15.466 62.736-23.894 17.998-4.338 37.679-19.787 62.549-23.05 19.985-2.621 43.143 6.876 66.621 5.105 20.777-1.568 42.105-14.552 64.995-15.35 21.21-.74 43.41 10.664 65.95 10.664 22.542 0 44.74-11.404 65.948-10.664 22.892.798 44.221 13.782 65 15.35 23.478 1.771 46.637-7.726 66.624-5.105 24.87 3.264 44.552 18.712 62.548 23.05 34.971 8.428 62.733 12.9 62.733 23.894z" fill="none" stroke="#5262fc"/></svg>