<svg height="69" viewBox="0 0 377 69" width="377" xmlns="http://www.w3.org/2000/svg"><path d="m376.19 34.834c0 6.385-16.476 8.702-36.783 13.597-10.45 2.518-21.774 12.05-36.214 13.945-11.604 1.522-25.11-4.563-38.742-3.534-12.064.91-24.417 9.022-37.708 9.485-12.316.43-25.216-6.764-38.306-6.764s-25.988 7.194-38.304 6.764c-13.293-.463-25.646-8.575-37.71-9.485-13.634-1.029-27.14 5.056-38.746 3.533-14.441-1.894-25.764-11.427-36.214-13.945-20.305-4.894-36.778-7.211-36.778-13.596 0-6.384 16.474-8.702 36.782-13.596 10.45-2.518 21.773-12.052 36.213-13.946 11.604-1.522 25.11 4.562 38.744 3.534 12.063-.91 24.415-9.022 37.706-9.484 12.317-.43 25.217 6.764 38.307 6.764 13.089 0 25.988-7.195 38.304-6.764 13.292.462 25.645 8.574 37.71 9.484 13.633 1.028 27.14-5.056 38.745-3.534 14.441 1.895 25.765 11.428 36.214 13.947 20.305 4.894 36.78 7.211 36.78 13.595z" fill="none" stroke="#5262fc"/></svg>