<svg height="274" viewBox="0 0 1548 274" width="1548" xmlns="http://www.w3.org/2000/svg"><path d="m1547.204 137.199c0 26.365-65.394 38.013-149.254 58.224-43.155 10.4-90.695 45.57-150.33 53.392-47.92 6.288-103.254-14.589-159.55-10.342-49.82 3.759-101.065 32.986-155.954 34.9-50.856 1.775-104.049-23.66-158.099-23.66-54.047 0-107.239 25.436-158.094 23.66-54.89-1.914-106.138-31.141-155.96-34.9-56.297-4.247-111.632 16.63-159.555 10.342-59.634-7.824-107.176-42.994-150.33-53.394-83.856-20.21-149.246-31.858-149.246-58.222 0-26.365 65.393-38.014 149.252-58.225 43.155-10.4 90.697-45.569 150.331-53.392 47.921-6.288 103.255 14.59 159.55 10.341 49.82-3.757 101.066-32.983 155.955-34.899 50.856-1.775 104.05 23.661 158.098 23.661s107.24-25.436 158.095-23.66c54.89 1.913 106.138 31.14 155.96 34.9 56.298 4.246 111.633-16.63 159.555-10.342 59.635 7.823 107.176 42.992 150.33 53.393 83.856 20.21 149.247 31.858 149.247 58.223z" fill="none" opacity=".2" stroke="#5262fc"/></svg>