<svg height="179" viewBox="0 0 1008 179" width="1008" xmlns="http://www.w3.org/2000/svg"><path d="m1006.813 89.493c0 17.143-42.816 24.485-97.344 37.627-28.06 6.762-58.886 30.099-97.661 35.186-31.16 4.088-67.188-9.961-103.793-7.2-32.394 2.444-65.688 21.926-101.378 23.17-33.069 1.155-67.666-15.862-102.81-15.862s-69.74 17.017-102.807 15.862c-35.691-1.244-68.987-20.726-101.383-23.17-36.607-2.761-72.636 11.287-103.796 7.199-38.777-5.087-69.602-28.424-97.662-35.187-54.525-13.14-97.338-20.482-97.338-37.625s42.815-24.485 97.343-37.627c28.06-6.762 58.886-30.1 97.662-35.186 31.16-4.088 67.187 9.961 103.792 7.2 32.395-2.445 65.69-21.926 101.379-23.171 33.068-1.153 67.665 15.863 102.81 15.863 35.143 0 69.74-17.016 102.807-15.863 35.69 1.245 68.986 20.726 101.383 23.17 36.606 2.762 72.636-11.287 103.796-7.199 38.776 5.087 69.601 28.425 97.662 35.187 54.524 13.142 97.338 20.484 97.338 37.626z" fill="none" opacity=".8" stroke="#5262fc"/></svg>