<svg height="227" viewBox="0 0 1279 227" width="1279" xmlns="http://www.w3.org/2000/svg"><path d="m1277.51 113.346c0 21.754-54.104 31.25-123.298 47.926-35.607 8.582-74.79 37.834-123.995 44.29-39.54 5.187-85.221-12.277-131.672-8.772-41.107 3.102-83.378 27.456-128.665 29.036-41.963 1.464-85.858-19.763-130.455-19.763-44.596 0-88.49 21.227-130.452 19.763-45.29-1.58-87.562-25.934-128.67-29.036-46.453-3.505-92.135 13.959-131.677 8.77-49.204-6.455-88.388-35.707-123.996-44.29-69.19-16.674-123.292-26.17-123.292-47.923 0-21.754 54.104-31.25 123.298-47.925 35.609-8.582 74.792-37.835 123.996-44.29 39.541-5.187 85.221 12.276 131.672 8.771 41.106-3.102 83.378-27.456 128.665-29.037 41.963-1.463 85.858 19.762 130.456 19.762 44.595 0 88.489-21.225 130.45-19.762 45.29 1.581 87.563 25.934 128.672 29.036 46.452 3.505 92.133-13.958 131.675-8.77 49.205 6.455 88.389 35.708 123.997 44.29 69.189 16.675 123.291 26.171 123.291 47.924z" fill="none" opacity=".5" stroke="#5262fc"/></svg>