<svg height="211" viewBox="0 0 1188 211" width="1188" xmlns="http://www.w3.org/2000/svg"><path d="m1187.28 105.395c0 20.216-50.342 28.994-114.647 44.492-33.092 7.975-69.49 35.256-115.218 41.255-36.747 4.82-79.21-11.504-122.379-8.247-38.202 2.882-77.481 25.612-119.57 27.08-38.998 1.36-79.793-18.462-121.24-18.462-41.445 0-82.239 19.822-121.236 18.462-42.09-1.468-81.37-24.198-119.575-27.08-43.17-3.257-85.635 13.067-122.382 8.247-45.73-6-82.127-33.281-115.218-41.256-64.302-15.498-114.642-24.275-114.642-44.491 0-20.218 50.343-28.996 114.648-44.493 33.091-7.975 69.488-35.256 115.218-41.256 36.746-4.82 79.21 11.504 122.377 8.248 38.203-2.882 77.482-25.612 119.57-27.08 39-1.36 79.794 18.462 121.24 18.462 41.445 0 82.24-19.822 121.236-18.462 42.09 1.468 81.372 24.198 119.576 27.08 43.17 3.257 85.634-13.067 122.382-8.247 45.73 5.999 82.127 33.281 115.218 41.256 64.302 15.498 114.641 24.275 114.641 44.492z" fill="none" opacity=".6" stroke="#5262fc"/></svg>