<svg height="85" viewBox="0 0 467 85" width="467" xmlns="http://www.w3.org/2000/svg"><path d="m466.42 42.786c0 7.921-20.237 10.956-45.434 17.03-12.965 3.124-27.074 14.628-44.992 16.98-14.397 1.887-31.12-5.335-48.034-4.058-14.97 1.129-30.313 10.864-46.804 11.44-15.28.533-31.28-8.065-47.521-8.065-16.24 0-32.239 8.598-47.519 8.065-16.492-.576-31.837-10.311-46.807-11.44-16.915-1.277-33.64 5.945-48.038 4.057-17.917-2.35-32.026-13.856-44.992-16.98-25.193-6.074-45.43-9.109-45.43-17.031 0-7.921 20.238-10.955 45.434-17.028 12.965-3.125 27.074-14.63 44.992-16.98 14.398-1.89 31.121 5.333 48.035 4.057 14.968-1.13 30.313-10.865 46.803-11.44 15.281-.534 31.281 8.065 47.522 8.065 16.24 0 32.238-8.599 47.518-8.065 16.493.575 31.838 10.31 46.808 11.44 16.914 1.276 33.64-5.946 48.037-4.057 17.917 2.35 32.027 13.856 44.992 16.98 25.193 6.073 45.43 9.108 45.43 17.029z" fill="none" stroke="#5262fc"/></svg>