<svg height="290" viewBox="0 0 1638 290" width="1638" xmlns="http://www.w3.org/2000/svg"><path d="m1637.435 145.15c0 27.901-69.156 40.269-157.904 61.657-45.672 11.008-95.999 48.148-159.11 56.427-50.714 6.654-109.265-15.36-168.842-10.865-52.725 3.977-106.962 34.828-165.05 36.855-53.82 1.877-110.113-24.962-167.313-24.962-57.198 0-113.49 26.84-167.31 24.962-58.09-2.027-112.329-32.878-165.055-36.855-59.58-4.496-118.133 17.519-168.848 10.864-63.112-8.279-113.439-45.42-159.11-56.427-88.743-21.39-157.896-33.756-157.896-61.656 0-27.901 69.155-40.268 157.905-61.657 45.67-11.007 95.998-48.147 159.109-56.427 50.714-6.654 109.264 15.36 168.842 10.865 52.725-3.976 106.962-34.829 165.05-36.855 53.82-1.876 110.113 24.962 167.313 24.962 57.198 0 113.49-26.84 167.31-24.962 58.09 2.026 112.328 32.879 165.055 36.855 59.579 4.497 118.132-17.518 168.848-10.864 63.111 8.28 113.438 45.42 159.108 56.427 88.745 21.389 157.898 33.756 157.898 61.656z" fill="none" opacity=".1" stroke="#5262fc"/></svg>