<svg height="53" viewBox="0 0 287 53" width="287" xmlns="http://www.w3.org/2000/svg"><path d="m285.958 26.884c0 4.847-12.712 6.447-28.13 10.163-7.934 1.911-16.472 9.472-27.436 10.91-8.81 1.157-19.099-3.79-29.45-3.008-9.159.69-18.52 7.177-28.61 7.53-9.352.325-19.153-5.466-29.093-5.466-9.937 0-19.737 5.791-29.088 5.465-10.093-.352-19.455-6.84-28.615-7.53-10.352-.78-20.641 4.165-29.452 3.01-10.965-1.439-19.502-9-27.436-10.911-15.416-3.717-28.128-5.317-28.128-10.163 0-4.848 12.714-6.447 28.13-10.164 7.936-1.912 16.472-9.473 27.437-10.91 8.81-1.157 19.1 3.79 29.45 3.009 9.16-.691 18.52-7.178 28.611-7.53 9.352-.326 19.153 5.465 29.091 5.465 9.939 0 19.739-5.79 29.09-5.465 10.092.351 19.454 6.839 28.614 7.53 10.351.781 20.642-4.166 29.452-3.01 10.965 1.439 19.502 9 27.437 10.912 15.415 3.716 28.126 5.315 28.126 10.163z" fill="none" stroke="#5262fc"/></svg>