<?xml version="1.0" encoding="iso-8859-1"?>
<!-- Generator: Adobe Illustrator 19.0.0, SVG Export Plug-In . SVG Version: 6.00 Build 0)  -->
<svg version="1.1" id="Capa_1" xmlns="http://www.w3.org/2000/svg" xmlns:xlink="http://www.w3.org/1999/xlink" x="0px" y="0px"
	 viewBox="0 0 512 512" style="enable-background:new 0 0 512 512;" xml:space="preserve">
<path style="fill:#79A1E8;" d="M477.786,212.977C589.529,327.741,401.69,482.6,284.977,372.469
	C132.29,228.393,40.437,396.95,40.437,240.01S38.609,92.032,211.508,21.659C362.286-39.711,354.633,86.494,477.786,212.977z"/>
<path style="fill:#473CBA;" d="M367.736,261.333h53.768v152.341c0,14.848-12.036,26.884-26.884,26.884h-26.884L367.736,261.333
	L367.736,261.333z"/>
<path style="fill:#4B31AA;" d="M421.504,257.258h-53.768c-2.251,0-4.076,1.825-4.076,4.076v1.443
	c2.974,1.112,5.758,2.737,8.151,4.807v-2.174h45.616v148.265c0,12.576-10.232,22.808-22.808,22.808h-12.561
	c1.591,1.466,3.028,3.16,4.32,5.165c0.616,0.955,1.128,1.956,1.558,2.987h6.683c17.071,0,30.96-13.889,30.96-30.96V261.333
	C425.579,259.083,423.754,257.258,421.504,257.258z"/>
<rect x="288.166" y="173.324" style="fill:#473CBA;" width="178.17" height="197.26"/>
<rect x="277.873" y="173.324" style="fill:#FFFFFF;" width="178.17" height="197.26"/>
<polygon style="fill:#CFDDF7;" points="456.044,194.074 279.535,370.583 456.044,370.583 "/>
<path style="fill:#4B31AA;" d="M466.335,169.878H277.874c-1.903,0-3.446,1.543-3.446,3.446v197.26c0,1.903,1.543,3.446,3.446,3.446
	h188.462c1.903,0,3.446-1.543,3.446-3.446v-197.26C469.781,171.421,468.238,169.878,466.335,169.878z M281.32,367.138V176.769
	h171.278v190.368H281.32z M462.89,367.138h-3.4V176.769h3.4V367.138z"/>
<rect x="294.996" y="192.281" style="fill:#79A1E8;" width="143.924" height="120.585"/>
<polygon style="fill:#473CBA;" points="438.933,252.255 401.052,229.526 340.442,274.984 340.442,312.865 438.933,312.865 "/>
<polygon style="fill:#5275C6;" points="294.997,274.984 333.623,244.679 416.962,312.865 294.997,312.865 "/>
<path style="fill:#4B31AA;" d="M438.921,188.835H294.997c-1.903,0-3.446,1.543-3.446,3.446v120.584c0,1.903,1.543,3.446,3.446,3.446
	h143.924c1.903,0,3.446-1.543,3.446-3.446V192.281C442.366,190.378,440.824,188.835,438.921,188.835z M435.475,195.727v50.435
	l-32.651-19.59c-1.201-0.721-2.719-0.643-3.84,0.198l-42.683,32.012l-20.496-16.769c-1.248-1.022-3.039-1.039-4.309-0.045
	L298.442,267.9v-72.173L435.475,195.727L435.475,195.727z M298.442,309.419V276.66l35.136-27.566l73.731,60.325H298.442z
	 M418.192,309.419l-56.398-46.143l39.471-29.603l34.21,20.525v55.221L418.192,309.419L418.192,309.419z"/>
<circle style="fill:#FBB03B;" cx="356.352" cy="221.95" r="17.426"/>
<path style="fill:#4B31AA;" d="M356.352,242.821c-11.508,0-20.871-9.362-20.871-20.871s9.363-20.871,20.871-20.871
	c11.509,0,20.871,9.363,20.871,20.871S367.861,242.821,356.352,242.821z M356.352,207.97c-7.708,0-13.98,6.271-13.98,13.98
	c0,7.708,6.271,13.979,13.98,13.979s13.98-6.271,13.98-13.979S364.06,207.97,356.352,207.97z"/>
<rect x="13.738" y="173.324" style="fill:#473CBA;" width="178.17" height="197.26"/>
<rect x="3.445" y="173.324" style="fill:#FFFFFF;" width="178.17" height="197.26"/>
<polygon style="fill:#CFDDF7;" points="130.363,173.324 3.446,300.241 3.446,370.583 181.616,370.583 181.616,173.324 "/>
<path style="fill:#4B31AA;" d="M191.907,169.878H3.446c-1.903,0-3.446,1.543-3.446,3.446v197.26c0,1.903,1.543,3.446,3.446,3.446
	h188.462c1.903,0,3.446-1.543,3.446-3.446v-197.26C195.353,171.421,193.81,169.878,191.907,169.878z M6.892,367.138V176.769H178.17
	v190.368H6.892z M188.462,367.138h-3.4V176.769h3.4V367.138z"/>
<rect x="20.568" y="192.281" style="fill:#79A1E8;" width="143.924" height="120.585"/>
<polygon style="fill:#473CBA;" points="164.505,252.255 126.624,229.526 66.014,274.984 66.014,312.865 164.505,312.865 "/>
<polygon style="fill:#5275C6;" points="20.569,274.984 59.195,244.679 142.534,312.865 20.569,312.865 "/>
<path style="fill:#4B31AA;" d="M164.493,188.835H20.569c-1.903,0-3.446,1.543-3.446,3.446v120.584c0,1.903,1.543,3.446,3.446,3.446
	h143.924c1.903,0,3.446-1.543,3.446-3.446V192.281C167.938,190.378,166.396,188.835,164.493,188.835z M161.047,195.727v50.435
	l-32.651-19.59c-1.201-0.721-2.719-0.643-3.84,0.198l-42.683,32.012l-20.496-16.769c-1.248-1.022-3.039-1.039-4.309-0.045
	L24.014,267.9v-72.173L161.047,195.727L161.047,195.727z M24.014,309.419V276.66l35.136-27.566l73.731,60.325H24.014z
	 M143.764,309.419l-56.398-46.143l39.471-29.603l34.21,20.525v55.221L143.764,309.419L143.764,309.419z"/>
<circle style="fill:#FBB03B;" cx="81.924" cy="221.95" r="17.426"/>
<path style="fill:#4B31AA;" d="M81.924,242.821c-11.508,0-20.871-9.362-20.871-20.871s9.363-20.871,20.871-20.871
	c11.509,0,20.871,9.363,20.871,20.871S93.433,242.821,81.924,242.821z M81.924,207.97c-7.708,0-13.98,6.271-13.98,13.98
	c0,7.708,6.271,13.979,13.98,13.979c7.708,0,13.98-6.271,13.98-13.979S89.632,207.97,81.924,207.97z"/>
<rect x="134.928" y="124.726" style="fill:#473CBA;" width="210.74" height="233.319"/>
<rect x="122.755" y="124.726" style="fill:#FFFFFF;" width="210.74" height="233.319"/>
<polygon style="fill:#CFDDF7;" points="122.755,334.788 122.755,358.046 333.495,358.046 333.495,124.726 332.817,124.726 "/>
<path style="fill:#4B31AA;" d="M345.668,120.65H122.755c-2.251,0-4.076,1.825-4.076,4.076v233.32c0,2.251,1.825,4.076,4.076,4.076
	h222.913c2.251,0,4.076-1.825,4.076-4.076v-233.32C349.743,122.475,347.919,120.65,345.668,120.65z M126.83,353.97V128.802h202.589
	V353.97L126.83,353.97L126.83,353.97z M341.592,353.97h-4.022V128.802h4.022V353.97z"/>
<rect x="143.008" y="147.149" style="fill:#79A1E8;" width="170.234" height="142.628"/>
<polygon style="fill:#473CBA;" points="313.257,218.087 268.45,191.203 196.76,244.97 196.76,289.777 313.257,289.777 "/>
<polygon style="fill:#5275C6;" points="143.008,244.97 188.695,209.125 287.269,289.777 143.008,289.777 "/>
<path style="fill:#4B31AA;" d="M313.242,143.073H143.008c-2.251,0-4.076,1.825-4.076,4.076v142.627c0,2.251,1.825,4.076,4.076,4.076
	h170.234c2.251,0,4.076-1.825,4.076-4.076V147.149C317.317,144.898,315.493,143.073,313.242,143.073z M309.166,151.225v59.655
	l-38.619-23.171c-1.421-0.853-3.216-0.76-4.542,0.234l-50.486,37.864l-24.243-19.835c-1.476-1.209-3.595-1.229-5.097-0.053
	l-39.096,30.673v-85.367L309.166,151.225L309.166,151.225z M147.083,285.701v-38.748l41.559-32.605l87.209,71.353H147.083z
	 M288.724,285.701l-66.708-54.578l46.687-35.015l40.463,24.277v65.316L288.724,285.701L288.724,285.701z"/>
<circle style="fill:#FBB03B;" cx="215.58" cy="182.242" r="20.611"/>
<path style="fill:#4B31AA;" d="M215.579,206.928c-13.612,0-24.686-11.074-24.686-24.686c0-13.612,11.074-24.687,24.686-24.687
	c13.613,0,24.687,11.075,24.687,24.687C240.266,195.854,229.192,206.928,215.579,206.928z M215.579,165.706
	c-9.117,0-16.535,7.418-16.535,16.535s7.418,16.535,16.535,16.535s16.535-7.417,16.535-16.535
	C232.115,173.125,224.697,165.706,215.579,165.706z"/>
<ellipse style="fill:#473CBA;" cx="247.591" cy="496.931" rx="187.99" ry="9.409"/>
<path style="fill:#FFFFFF;" d="M58.09,229.079v182.206c0,16.167,13.106,29.273,29.273,29.273H394.62
	c-14.847,0-26.884-12.036-26.884-26.884V252.372h-179.29l-14.372-23.293H58.09z"/>
<path style="fill:#CFDDF7;" d="M367.736,413.675V252.372h-37.239L142.311,440.558H394.62
	C379.773,440.558,367.736,428.522,367.736,413.675z"/>
<path style="fill:#4B31AA;" d="M394.62,444.634H87.364c-18.389,0-33.349-14.96-33.349-33.349V229.079
	c0-2.251,1.825-4.076,4.076-4.076h115.983c1.413,0,2.726,0.732,3.469,1.935l13.178,21.357h177.015c2.251,0,4.076,1.825,4.076,4.076
	v161.302c0,12.576,10.232,22.808,22.808,22.808c2.251,0,4.076,1.825,4.076,4.076C398.695,442.809,396.87,444.634,394.62,444.634z
	 M62.166,233.155v178.13c0,13.894,11.304,25.197,25.198,25.197h286.342c-6.171-5.664-10.046-13.792-10.046-22.808V256.448H188.446
	c-1.413,0-2.726-0.732-3.469-1.935l-13.178-21.357L62.166,233.155L62.166,233.155z"/>
<path style="fill:#F9D015;" d="M278.005,376.27H131.437c-10.118,0-18.32-8.202-18.32-18.32v-23.489
	c0-10.118,8.202-18.32,18.32-18.32h146.567c10.118,0,18.32,8.202,18.32,18.32v23.489C296.324,368.068,288.122,376.27,278.005,376.27
	z"/>
<path style="fill:#DDB510;" d="M278.005,316.141h-42.863l-60.129,60.129h102.991c10.118,0,18.32-8.202,18.32-18.32v-23.489
	C296.324,324.343,288.122,316.141,278.005,316.141z"/>
<path style="fill:#4B31AA;" d="M278.005,380.345H131.437c-12.349,0-22.396-10.047-22.396-22.395v-23.489
	c0-12.349,10.047-22.396,22.396-22.396h146.567c12.348,0,22.395,10.047,22.395,22.396v23.489
	C300.4,370.299,290.353,380.345,278.005,380.345z M131.437,320.217c-7.854,0-14.244,6.39-14.244,14.245v23.489
	c0,7.854,6.39,14.244,14.244,14.244h146.567c7.854,0,14.244-6.39,14.244-14.244v-23.489c0-7.855-6.39-14.245-14.244-14.245H131.437z
	"/>
<g>
</g>
<g>
</g>
<g>
</g>
<g>
</g>
<g>
</g>
<g>
</g>
<g>
</g>
<g>
</g>
<g>
</g>
<g>
</g>
<g>
</g>
<g>
</g>
<g>
</g>
<g>
</g>
<g>
</g>
</svg>
