<?xml version="1.0" encoding="utf-8"?>
<!-- Generator: Adobe Illustrator 23.0.1, SVG Export Plug-In . SVG Version: 6.00 Build 0)  -->
<svg version="1.1" id="Layer_1" xmlns="http://www.w3.org/2000/svg" xmlns:xlink="http://www.w3.org/1999/xlink" x="0px" y="0px"
	 viewBox="0 0 252 66" style="enable-background:new 0 0 252 66;" xml:space="preserve">
<style type="text/css">
	.st0{fill:#5333ED;}
	.st1{fill:#FF3C2B;}
	.st2{fill:#FFFFFF;}
	.st3{font-family:'BrandonText-Bold';}
	.st4{font-size:14px;}
</style>
<title>webzool-2</title>
<path class="st0" d="M25.4,43.1L16.6,66L0,24.8h5.8l10.7,26.5l8.9-23.1l8.9,23.1L45,24.8h5.8L34.1,66L25.4,43.1z"/>
<path class="st0" d="M86.4,52.5l4.6,2.6c-1.7,3.2-4.3,6-7.4,7.9c-9.8,5.8-22.5,2.6-28.3-7.2c-1.9-3.1-2.9-6.7-2.9-10.4
	c-0.1-5.5,2.1-10.8,6.1-14.6c8.2-8,21.3-7.9,29.3,0.3c0.9,1,1.8,2,2.5,3.2L63.6,57.7c5,3.7,11.8,4.1,17.2,0.9
	C83.2,57.1,85.1,55,86.4,52.5z M60.1,53.9l22.8-20.2c-6.3-5.6-16-4.9-21.6,1.4c-2.5,2.8-3.8,6.5-3.8,10.2
	C57.5,48.4,58.4,51.4,60.1,53.9L60.1,53.9z"/>
<path class="st0" d="M100.4,5.2h-6.5L96.8,0h8.9v31.6c7.6-8.5,20.6-9.2,29.1-1.7s9.2,20.6,1.7,29.1c-7.6,8.5-20.6,9.2-29.1,1.7
	c-0.4-0.4-0.8-0.8-1.2-1.2l-5.7,5.2L100.4,5.2z M121,30c-8.4,0.1-15,7-14.9,15.3c0.1,8.4,7,15,15.3,14.9c8.4-0.1,15-7,14.9-15.3
	c-0.1-3.9-1.6-7.7-4.4-10.5C129.1,31.5,125.1,29.9,121,30z"/>
<polygon class="st0" points="169.3,30.3 172.1,24.8 145.9,24.8 145.9,30.3 163.2,30.3 "/>
<path class="st0" d="M154.4,60.5h18.1V66h-27l13-26.4h6.1L154.4,60.5z M202.6,51.9c0,5.8-4.7,10.4-10.4,10.4s-10.4-4.7-10.4-10.4
	s4.7-10.4,10.4-10.4l0,0C197.9,41.5,202.6,46.1,202.6,51.9z M197.5,51.9c0-2.9-2.4-5.3-5.3-5.3s-5.3,2.4-5.3,5.3
	c0,2.9,2.4,5.3,5.3,5.3l0,0C195.1,57.2,197.5,54.8,197.5,51.9z M227.5,51.9c0,5.8-4.7,10.4-10.4,10.4c-5.8,0-10.4-4.7-10.4-10.4
	s4.7-10.4,10.4-10.4S227.4,46.1,227.5,51.9L227.5,51.9z M222.4,51.9c0-2.9-2.4-5.3-5.3-5.3s-5.3,2.4-5.3,5.3c0,2.9,2.4,5.3,5.3,5.3
	l0,0C220,57.2,222.3,54.8,222.4,51.9L222.4,51.9z M246.2,24.8l-10,41.2h5.9l9.9-41.2H246.2z"/>
<g>
	<path class="st1" d="M172.3,18.1h-57c-2.3,0-4.1-1.8-4.1-4.1V4.8c0-2.2,1.9-4.1,4.1-4.1h57c2.3,0,4.1,1.8,4.1,4.1V14
		C176.4,16.3,174.5,18.1,172.3,18.1z"/>
	<text transform="matrix(1 0 0 1 125.8145 13.1959)" class="st2 st3 st4">hiring</text>
</g>
</svg>
