<svg id="Layer_1" data-name="Layer 1" xmlns="http://www.w3.org/2000/svg" viewBox="0 0 252.03 65.99"><defs><style>.cls-1{fill:#fff;}</style></defs><title>webzool</title><path class="cls-1" d="M439.35,550.12,430.57,573,414,531.79h5.75l10.73,26.53,8.88-23.12,8.87,23.12L459,531.79h5.76L448.13,573Z" transform="translate(-413.99 -507)"/><path class="cls-1" d="M500.38,559.52l4.57,2.57a20.22,20.22,0,0,1-7.43,7.86,20.68,20.68,0,0,1-31.26-17.58,19.67,19.67,0,0,1,6.1-14.58,20.71,20.71,0,0,1,31.83,3.43L477.6,564.66a15.54,15.54,0,0,0,17.2.86A15.16,15.16,0,0,0,500.38,559.52Zm-26.3,1.42,22.77-20.2a15.27,15.27,0,0,0-25.35,11.63A15.22,15.22,0,0,0,474.08,560.94Z" transform="translate(-413.99 -507)"/><path class="cls-1" d="M514.39,512.25h-6.48l2.86-5.25h8.86v31.64a20.6,20.6,0,1,1,.47,27.93l-5.71,5.24ZM535,537a15.13,15.13,0,1,0,10.91,4.43A14.78,14.78,0,0,0,535,537Z" transform="translate(-413.99 -507)"/><polygon class="cls-1" points="169.33 30.31 172.07 24.76 145.87 24.76 145.87 30.31 163.2 30.31 169.33 30.31"/><path class="cls-1" d="M568.42,567.45h18.14V573h-27l13-26.37h6.13Zm48.14-8.57a10.43,10.43,0,1,1-10.43-10.43A10.43,10.43,0,0,1,616.56,558.88Zm-5.1,0a5.34,5.34,0,1,0-5.33,5.33A5.34,5.34,0,0,0,611.46,558.88Zm30,0A10.43,10.43,0,1,1,631,548.45,10.43,10.43,0,0,1,641.43,558.88Zm-5.1,0a5.34,5.34,0,1,0-5.33,5.33A5.34,5.34,0,0,0,636.33,558.88Zm23.81-27.1L650.19,573h5.88L666,531.78Z" transform="translate(-413.99 -507)"/></svg>