<?xml version="1.0" encoding="utf-8"?>
<!-- Generator: Adobe Illustrator 22.0.0, SVG Export Plug-In . SVG Version: 6.00 Build 0)  -->
<svg version="1.1" id="Layer_1" xmlns="http://www.w3.org/2000/svg" xmlns:xlink="http://www.w3.org/1999/xlink" x="0px" y="0px"
	 viewBox="0 0 80 80" style="enable-background:new 0 0 80 80;" xml:space="preserve">
<style type="text/css">
	.st0{fill:none;}
	.st1{fill:#464342;}
</style>
<title>icons/services/wordpress copy</title>
<desc>Created with Sketch.</desc>
<g id="SANDBOX">
	<g id="NL_Sandboxes-Box---stacks-logos" transform="translate(-416.000000, -1048.000000)">
		<g id="icons_x2F_services_x2F_wordpress" transform="translate(400.000000, 1032.000000)">
			<rect id="Rectangle-10-Copy-10" x="16" y="16" class="st0" width="80" height="80"/>
			<g id="stack-wordpress" transform="translate(16.000000, 16.000000)">
				<path id="Shape" class="st1" d="M19.4,39.9C19.4,48,24.1,55,31,58.4l-9.8-26.8C20,34.1,19.4,36.9,19.4,39.9L19.4,39.9z
					 M53.8,38.9c0-2.5-0.9-4.3-1.7-5.7c-1-1.7-2-3.1-2-4.8c0-1.9,1.4-3.6,3.4-3.6c0.1,0,0.2,0,0.3,0c-3.6-3.3-8.5-5.4-13.8-5.4
					c-7.2,0-13.5,3.7-17.1,9.2c0.5,0,0.9,0,1.3,0c2.1,0,5.5-0.3,5.5-0.3c1.1-0.1,1.2,1.6,0.1,1.7c0,0-1.1,0.1-2.3,0.2L35,52.4
					L39.3,39l-3.2-8.8c-1.1,0-2.1-0.1-2.1-0.1c-1.1-0.1-1-1.8,0.1-1.7c0,0,3.4,0.3,5.4,0.3c2.1,0,5.5-0.3,5.5-0.3
					c1.1-0.1,1.2,1.6,0.1,1.7c0,0-1.1,0.1-2.3,0.2l7.4,22l2-6.8C53.1,42.7,53.8,40.6,53.8,38.9L53.8,38.9z M40.3,41.7l-6.2,17.9
					c1.8,0.5,3.8,0.8,5.8,0.8c2.4,0,4.7-0.4,6.8-1.2c-0.1-0.1-0.1-0.2-0.1-0.3L40.3,41.7L40.3,41.7z M57.9,30.1
					c0.1,0.7,0.1,1.4,0.1,2.1c0,2.1-0.4,4.4-1.6,7.3l-6.3,18.1c6.1-3.6,10.2-10.2,10.2-17.7C60.4,36.3,59.5,33,57.9,30.1L57.9,30.1z
					 M39.9,16C26.7,16,16,26.7,16,39.9s10.7,23.9,23.9,23.9s23.9-10.7,23.9-23.9C63.8,26.7,53.1,16,39.9,16L39.9,16z M39.9,62.7
					c-12.6,0-22.8-10.2-22.8-22.8s10.2-22.8,22.8-22.8s22.8,10.2,22.8,22.8S52.5,62.7,39.9,62.7L39.9,62.7z"/>
			</g>
		</g>
	</g>
</g>
</svg>
