<svg id="b0225cde-a2d2-4693-8ce5-502a1e8a6144" xmlns="http://www.w3.org/2000/svg" xmlns:xlink="http://www.w3.org/1999/xlink" viewBox="0 0 1077.38 752.86"><defs><style>.cls-1,.cls-2{fill:#5333ed;}.cls-16,.cls-2,.cls-7{opacity:0.1;}.cls-10,.cls-13,.cls-2,.cls-6,.cls-7{isolation:isolate;}.cls-3{fill:#30374e;}.cls-4{fill:#444053;}.cls-5{fill:#afc0e0;}.cls-6{fill:#fff;opacity:0.2;}.cls-8{fill:#e3e8f4;}.cls-9{fill:none;stroke:#535461;stroke-miterlimit:10;stroke-width:2px;}.cls-10{opacity:0.25;}.cls-11{fill:url(#linear-gradient);}.cls-12{fill:#434175;}.cls-13{opacity:0.05;}.cls-14{fill:#565387;}.cls-15{fill:#ee8e9e;}</style><linearGradient id="linear-gradient" x1="770.32" y1="12.46" x2="770.32" y2="410.53" gradientTransform="matrix(1, 0, 0, -1, -29.72, 697.64)" gradientUnits="userSpaceOnUse"><stop offset="0" stop-color="gray" stop-opacity="0.25"/><stop offset="0.54" stop-color="gray" stop-opacity="0.12"/><stop offset="1" stop-color="gray" stop-opacity="0.1"/></linearGradient></defs><title>Y</title><path class="cls-1" d="M597.49,427.43v159h-114V428.93l-158.4-262.5h130.8l84.9,158.7,84.6-158.7h126.9Z"/><path class="cls-2" d="M89.47,393.09c16.13-26.34,52.6-21.75,78.46-8s51.68,34.28,80.14,30.34c24-3.33,43.68-24.26,54.31-48.4s13.75-51.37,16.75-78q5.64-50.24,11.27-100.56c1.37-12.26,3-25.2,9.89-34.91,9.12-12.8,25.82-16.73,40.11-12.89s26.47,14.17,36.89,25.68C450.69,203.18,469.61,253,498.8,294c5.94,8.36,12.65,16.61,21.53,20.64,12.8,5.8,27.5,1.7,40-4.76,40.8-21,68.21-64,95.15-104,13.1-19.46,29.08-40.28,50.88-42.4,22.93-2.28,42.85,17.27,56.33,38C806,268.07,815.22,359,867.49,417.06c6.48,7.2,13.64,13.85,21.89,18.33a57.08,57.08,0,0,0,8.48,3.72c45.6,15.78,60.8,79.14,27.07,116.71-.72.8-1.47,1.6-2.22,2.4-5,5.29-10.68,10.29-17.45,11.86-6.29,1.46-12.8-.22-19-2-39.89-11.64-79.29-29.43-120.53-28.57-40.13.8-78.2,19.34-117.88,26C621.13,570,594,569.07,567,568.11q-134.76-4.86-269.48-11.28c-44.57-2.05-89.16-4-133.73-6.28-34.34-1.79-56.21-5.72-60.19-45.56C100.12,470.09,68.79,426.88,89.47,393.09Z"/><ellipse class="cls-3" cx="714.38" cy="661.15" rx="215.99" ry="30.18"/><path class="cls-1" d="M201.45,530.94s10.56-2.4,17.48,4.69c0,0-4.44,4-14.91-.43Z"/><path class="cls-1" d="M200.29,530.83s-6.26,8.87-2.29,18c0,0,5.41-2.6,5.25-14Z"/><path class="cls-1" d="M193.25,517.47s3.75-8.12,21.6,1.7c0,0-1.92,5.42-9.51,5.5S195.49,521.47,193.25,517.47Z"/><path class="cls-1" d="M192.11,517s-8.94-.42-8.43,19.93c0,0,5.7.8,9.26-5.9S194.61,520.84,192.11,517Z"/><path class="cls-1" d="M185.89,501.14s4-14.15,22.77-5.51c0,0-3.28,13-20.64,10.12Z"/><path class="cls-1" d="M178.92,480.87s8.46-14.6,26-2.76c0,0-4.95,13.5-24.23,7.64Z"/><path class="cls-1" d="M175.61,461.35s10.1-13.56,27.48-1.85c0,0-9.64,11.95-27.27,5.12Z"/><path class="cls-1" d="M172.61,442.37s10.21-14.13,26.88-2.52c0,0-11.75,12.66-26.67,5.66Z"/><path class="cls-1" d="M172.47,425.36s10.52-18,26.12-7.33c0,0-11.54,15.65-25.9,10.6Z"/><path class="cls-1" d="M173.89,405.38s11.2-17.92,26.47-5.75c0,0-13.68,15.8-26.3,8.92Z"/><path class="cls-1" d="M176.79,387.41s13.6-17.05,26.84-11.5c0,0-14.14,18.08-27.2,15.81Z"/><path class="cls-1" d="M180.79,370.29s15.63-20.8,25.9-14.9c0,0-11.45,16.08-26.87,18.68Z"/><path class="cls-1" d="M186.89,350.34s13.73-17.06,24.8-13.79c0,0-11.56,17.51-26.48,18.94Z"/><path class="cls-1" d="M192.37,331.69s15.34-16.48,22.64-14.26c0,0-10.68,17.89-23.13,17.72Z"/><path class="cls-1" d="M197.78,314.44s12.87-19.32,20.66-18.4c0,0-7.45,16.95-20.53,20.27Z"/><path class="cls-1" d="M203.37,291.31s11.52-14.92,18.25-15.34c0,0-8.57,19.47-18.45,20Z"/><path class="cls-1" d="M206.57,276l10.07-30.16s2.4,26.48-11.2,35.7Z"/><path class="cls-1" d="M209.29,243.26s.35-24.63-1.07-26.54c0,0,10,19.79,1.71,37.37Z"/><path class="cls-1" d="M185.37,500.84s-13-6.89-19.81,12.59c0,0,11.6,6.62,21.6-7.85Z"/><path class="cls-1" d="M178.46,480.11s-15.77-6-21.88,14.3c0,0,12.38,7.32,23.61-9.41Z"/><path class="cls-1" d="M175,462.57s-11.83-12.09-27.48,1.86c0,0,11.15,10.56,27.7,1.44Z"/><path class="cls-1" d="M172.24,442.4s-12-12.65-27,1.09c0,0,13.33,11,27.2,2Z"/><path class="cls-1" d="M172.5,425.84s-9.09-18.77-25.46-9.33c0,0,10.29,16.5,25,12.59Z"/><path class="cls-1" d="M174.82,405.23s-9.06-19.12-25.65-8.85c0,0,11.73,17.29,25.08,11.94Z"/><path class="cls-1" d="M178.45,387.39s-4.52-21.32-18.84-22.29c0,0,4.54,22.5,17.2,26.3Z"/><path class="cls-1" d="M181.16,370.31s-2.94-25.85-14.77-26c0,0,1.72,19.65,13.69,29.72Z"/><path class="cls-1" d="M188.06,349.51s-5-21.32-16.37-23.2c0,0,2.8,20.8,15.62,28.58Z"/><path class="cls-1" d="M193.71,331.75s-1.6-22.45-8.72-25.29c0,0-2.89,20.62,6.92,28.3Z"/><path class="cls-1" d="M198.29,314.16s-2.52-23.08-9.84-25.85c0,0-1.2,18.47,8.88,27.44Z"/><path class="cls-1" d="M204.49,293.09s-1.31-18.81-6.68-22.89c0,0-3.66,20.95,4.28,26.85Z"/><path class="cls-1" d="M205.89,275.06l-7-31s-5,26.11,7.65,36.62Z"/><path class="cls-1" d="M204.79,243.86s-14.1-20.23-14-22.58c0,0,2.83,22,19.53,31.91Z"/><path class="cls-1" d="M205.89,237.55s-14-29.12-19.55-31.2c0,0,17.67,7.54,20.49,30.24Z"/><path class="cls-4" d="M203.12,296.12l-.8-.2c7.88-33.6,9-54.78,3.12-59.65l.54-.65C212.17,240.77,211.2,261.7,203.12,296.12Z"/><path class="cls-4" d="M180.49,375.05l-1.24-.34c.88-3.09,1.82-6.24,2.83-9.33,8.8-27,16.11-52,20.6-71.15l1-.6c-4.49,19.2-11.6,45.14-20.39,72.14C182.3,368.86,181.36,372,180.49,375.05Z"/><path class="cls-4" d="M218.13,554.57c-.17-.17-17.77-17.5-31.29-48.19A186,186,0,0,1,172,449.76c-2.4-24.42.88-52.1,8-77.52l1,1.06c-16,57.05-4.95,104.27,7.39,132.32,13.38,30.4,30.78,47.56,31,47.73Z"/><path class="cls-1" d="M237.51,463.2s6.4-1.46,10.58,2.84c0,0-2.7,2.4-9-.26Z"/><path class="cls-1" d="M236.81,463.15S233,468.51,235.44,474c0,0,3.26-1.6,3.2-8.44Z"/><path class="cls-1" d="M232.56,455.06s2.26-4.91,13,1c0,0-1.16,3.27-5.75,3.32S233.93,457.47,232.56,455.06Z"/><path class="cls-1" d="M231.87,454.76s-5.41-.25-5.1,12.05c0,0,3.44.48,5.6-3.57S233.38,457.1,231.87,454.76Z"/><path class="cls-1" d="M228.09,445.19s2.45-8.56,13.78-3.35c0,0-2,7.83-12.47,6.11Z"/><path class="cls-1" d="M223.89,432.93s5.12-8.8,15.72-1.66c0,0-3,8.16-14.65,4.61Z"/><path class="cls-1" d="M221.89,421.13s6.11-8.2,16.61-1.12c0,0-5.82,7.2-16.48,3.1Z"/><path class="cls-1" d="M220.08,409.66s6.17-8.55,16.25-1.52c0,0-7.1,7.65-16.12,3.41Z"/><path class="cls-1" d="M220,399.37s6.4-10.89,15.78-4.43c0,0-7,9.46-15.65,6.4Z"/><path class="cls-1" d="M220.83,387.3s6.79-10.84,16-3.51c0,0-8.27,9.56-15.9,5.4Z"/><path class="cls-1" d="M222.61,376.43s8.21-10.3,16.22-6.94c0,0-8.55,10.93-16.42,9.55Z"/><path class="cls-1" d="M225,366.08s9.45-12.57,15.66-9c0,0-6.92,9.72-16.24,11.3Z"/><path class="cls-1" d="M228.71,354s8.3-10.31,15-8.33c0,0-7,10.58-16,11.45Z"/><path class="cls-1" d="M232,342.75s9.27-10,13.69-8.62c0,0-6.45,10.81-14,10.71Z"/><path class="cls-1" d="M235.29,332.32s7.79-11.68,12.49-11.13c0,0-4.49,10.24-12.41,12.25Z"/><path class="cls-1" d="M238.69,318.34s7-9,11-9.28c0,0-5.19,11.77-11.16,12.07Z"/><path class="cls-1" d="M240.61,309l6.08-18.21s1.44,16-6.8,21.6Z"/><path class="cls-1" d="M242.25,289.28s.21-14.89-.64-16c0,0,6,12,1,22.59Z"/><path class="cls-1" d="M227.79,445s-7.86-4.18-12,7.6c0,0,7,4,13.06-4.74Z"/><path class="cls-1" d="M223.62,432.43s-9.54-3.6-13.23,8.65c0,0,7.48,4.43,14.27-5.68Z"/><path class="cls-1" d="M221.5,421.87s-7.14-7.31-16.61,1.12c0,0,6.74,6.4,16.75.86Z"/><path class="cls-1" d="M219.85,409.67s-7.25-7.64-16.3.67c0,0,8.06,6.63,16.43,1.23Z"/><path class="cls-1" d="M220,399.63s-5.49-11.35-15.4-5.64c0,0,6.23,10,15.12,7.61Z"/><path class="cls-1" d="M221.41,387.19s-5.48-11.56-15.52-5.35c0,0,7.08,10.46,15.16,7.2Z"/><path class="cls-1" d="M223.61,376.43s-2.73-12.89-11.4-13.48c0,0,2.75,13.6,10.4,15.9Z"/><path class="cls-1" d="M225.25,366.09s-1.76-15.62-9-15.7c0,0,1,11.88,8.27,18Z"/><path class="cls-1" d="M229.41,353.52s-3-12.89-9.89-14c0,0,1.69,12.57,9.45,17.27Z"/><path class="cls-1" d="M232.83,342.79s-1-13.6-5.26-15.3c0,0-1.76,12.47,4.17,17.11Z"/><path class="cls-1" d="M235.61,332.15s-1.52-14-6-15.64c0,0-.72,11.2,5.37,16.6Z"/><path class="cls-1" d="M239.35,319.41s-.8-11.37-4-13.84c0,0-2.22,12.67,2.58,16.23Z"/><path class="cls-1" d="M240.21,308.51,236,289.77s-3,15.79,4.62,22.14Z"/><path class="cls-1" d="M239.53,289.65S231,277.43,231.08,276c0,0,1.7,13.29,11.8,19.29Z"/><path class="cls-1" d="M240.17,285.83s-8.44-17.6-11.81-18.84c0,0,10.69,4.56,12.38,18.28Z"/><path class="cls-4" d="M238.52,321.23l-.51-.12c4.8-20.31,5.44-33.12,1.89-36.05l.33-.4C244,287.78,243.41,300.43,238.52,321.23Z"/><path class="cls-4" d="M224.85,369l-.76-.21c.53-1.87,1.11-3.76,1.72-5.6,5.3-16.32,9.73-31.44,12.44-43l.62-.37c-2.72,11.6-7,27.3-12.33,43.63C225.93,365.23,225.37,367.1,224.85,369Z"/><path class="cls-4" d="M247.6,477.49c-.11-.1-10.75-10.58-18.92-29.14a112.5,112.5,0,0,1-9-34.22c-1.47-14.77.53-31.5,4.85-46.87l.61.64c-9.67,34.49-3,63,4.47,80,8.09,18.4,18.6,28.74,18.72,28.85Z"/><path class="cls-5" d="M271.66,517.49a31.35,31.35,0,0,0-6,1.71c-43.15,17.23-42.43,130-42.43,130h-12.7s-4-48.4-21.44-117.47c-15.7-62.13,48.71-117.82,61.79-128.38,1.47-1.18,2.29-1.8,2.29-1.8C318,425.42,271.66,517.49,271.66,517.49Z"/><path class="cls-6" d="M257.89,403.54c-1.5-.69-3-1.35-4.68-2l-2.29,1.8c-13.08,10.56-77.49,66.25-61.79,128.39,17.44,69.06,21.4,117.45,21.4,117.45h7.14s-4-48.4-21.43-117.47C180.6,469.91,244.38,414.43,257.89,403.54Z"/><path class="cls-5" d="M485.69,531.78c-17.47,69.06-21.4,117.45-21.4,117.45H451.56s.8-117.88-45.39-131a26.33,26.33,0,0,0-3-.72s-46.4-92.07,18.49-115.89c0,0,.66.49,1.84,1.44C435.49,412.64,501.57,468.92,485.69,531.78Z"/><path class="cls-7" d="M271.66,517.49a31.35,31.35,0,0,0-6,1.71,783.46,783.46,0,0,1-14.78-115.81c1.47-1.17,2.29-1.8,2.29-1.8C318,425.42,271.66,517.49,271.66,517.49Z"/><path class="cls-7" d="M423.49,403a721.37,721.37,0,0,1-17.29,115.2,26.45,26.45,0,0,0-3.05-.71s-46.4-92.07,18.5-115.89C421.62,401.59,422.28,402.08,423.49,403Z"/><path class="cls-8" d="M399.73,535Q393,561.45,384,589.35c-9,27.88-28.57,29.76-97.6,0,0,0-6.89-19.44-14.48-52.49-16.69-72.67-36.72-211.14,6-353.37a529.22,529.22,0,0,1,53.74-122s36.45,41.85,63.2,122S438.57,381.92,399.73,535Z"/><circle class="cls-5" cx="337.39" cy="296.4" r="57.3"/><path class="cls-1" d="M378,296.43a40.65,40.65,0,0,1-66.4,31.44A41.55,41.55,0,0,1,304,319.6a40.36,40.36,0,0,1-7.25-23.17v-1a40.7,40.7,0,0,1,29.6-38.18,42.09,42.09,0,0,1,9.79-1.49h1.22A40.64,40.64,0,0,1,378,296.42Z"/><path class="cls-5" d="M394.78,183.47c-65,31.12-117,0-117,0A529.63,529.63,0,0,1,331.59,61.52S368,103.37,394.78,183.47Z"/><path class="cls-5" d="M399.73,535q-4.56,17.94-10.16,36.52-2.65,8.85-5.6,17.85c-2.94,9-28.57,29.77-97.6,0,0,0-2.24-6.31-5.6-17.85-2.51-8.72-5.64-20.41-8.9-34.64,0,0,25.7,11,62.17,11A171.29,171.29,0,0,0,399.73,535Z"/><path class="cls-8" d="M389.57,571.47q-2.65,8.85-5.6,17.85c-2.94,9-28.57,29.77-97.6,0,0,0-2.24-6.31-5.6-17.85C280.77,571.47,351.12,591.71,389.57,571.47Z"/><path class="cls-6" d="M326.38,257.23l-.09.07-29.52,38.11v1a40.55,40.55,0,0,0,4.64,18.85l34.78-59.48Z"/><path class="cls-6" d="M335.81,291.63l-24.18,36.2a41.23,41.23,0,0,1-7.62-8.26l28.8-30.91Z"/><path class="cls-6" d="M301.82,589.33s-6.89-19.45-14.48-52.49c-16.69-72.67-36.72-211.14,6-353.37A530.78,530.78,0,0,1,340.37,73c-5.42-7.59-8.8-11.46-8.8-11.46a529.07,529.07,0,0,0-53.76,121.94c-42.67,142.23-22.64,280.7-5.95,353.37,7.59,33,14.48,52.49,14.48,52.49,27.27,11.75,48.23,14.22,63.6,12.9C336.81,601.23,320.85,597.53,301.82,589.33Z"/><path class="cls-9" d="M832.05,644.67s37.39-46.53,34.91-93.13a90.41,90.41,0,0,1,14.83-55.25,152.61,152.61,0,0,1,17.6-21.6"/><path class="cls-1" d="M898,445.35c-2.67,6.48,1.33,30.14,1.33,30.14s19.5-14,22.17-20.47a12.71,12.71,0,1,0-23.5-9.67Z"/><path class="cls-1" d="M863.75,473.3c1.29,6.89,17.5,24.57,17.5,24.57s8.8-22.32,7.48-29.23a12.71,12.71,0,1,0-25,4.66Z"/><path class="cls-1" d="M839.32,535.07c4.59,5.31,27.52,12.39,27.52,12.39s-3.71-23.71-8.31-29a12.7,12.7,0,0,0-19.2,16.63Z"/><path class="cls-1" d="M831.36,586c3.62,6,25,16.85,25,16.85s.35-24-3.27-30A12.71,12.71,0,0,0,831.36,586Z"/><path class="cls-1" d="M905.41,509.29c-6.52,2.6-30.13-1.64-30.13-1.64s14.17-19.35,20.69-22a12.71,12.71,0,0,1,9.44,23.6Z"/><path class="cls-1" d="M895.34,568.71c-7,.53-28.25-10.58-28.25-10.58s19.31-14.23,26.31-14.77a12.71,12.71,0,0,1,1.94,25.35Z"/><path class="cls-1" d="M877.64,625.11c-6.81,1.71-29.64-5.65-29.64-5.65s16.63-17.29,23.44-19a12.7,12.7,0,1,1,6.2,24.64Z"/><path class="cls-10" d="M898,445.35c-2.67,6.48,1.33,30.14,1.33,30.14s19.5-14,22.17-20.47a12.71,12.71,0,1,0-23.5-9.67Z"/><path class="cls-10" d="M863.75,473.3c1.29,6.89,17.5,24.57,17.5,24.57s8.8-22.32,7.48-29.23a12.71,12.71,0,1,0-25,4.66Z"/><path class="cls-10" d="M839.32,535.07c4.59,5.31,27.52,12.39,27.52,12.39s-3.71-23.71-8.31-29a12.7,12.7,0,0,0-19.2,16.63Z"/><path class="cls-10" d="M831.36,586c3.62,6,25,16.85,25,16.85s.35-24-3.27-30A12.71,12.71,0,0,0,831.36,586Z"/><path class="cls-10" d="M905.41,509.29c-6.52,2.6-30.13-1.64-30.13-1.64s14.17-19.35,20.69-22a12.71,12.71,0,0,1,9.44,23.6Z"/><path class="cls-10" d="M895.34,568.71c-7,.53-28.25-10.58-28.25-10.58s19.31-14.23,26.31-14.77a12.71,12.71,0,0,1,1.94,25.35Z"/><path class="cls-10" d="M877.64,625.11c-6.81,1.71-29.64-5.65-29.64-5.65s16.63-17.29,23.44-19a12.7,12.7,0,1,1,6.2,24.64Z"/><path class="cls-9" d="M832.38,642.72s53-27.39,69.66-71a90.38,90.38,0,0,1,36-44.5,151,151,0,0,1,24.8-12.61"/><path class="cls-1" d="M973.42,487.2c-5.07,4.86-11,28.11-11,28.11s23.49-4.89,28.56-9.74a12.72,12.72,0,1,0-17.56-18.4h0Z"/><path class="cls-1" d="M930.81,498.89c-1.6,6.83,6,29.6,6,29.6s17-16.86,18.68-23.73a12.7,12.7,0,0,0-24.72-5.87Z"/><path class="cls-1" d="M883.44,545.47c2,6.71,20.14,22.47,20.14,22.47s6.22-23.2,4.17-29.88a12.71,12.71,0,0,0-24.31,7.41Z"/><path class="cls-1" d="M855.53,588.78c.88,7,16.05,25.55,16.05,25.55s10-21.78,9.16-28.75a12.71,12.71,0,1,0-25.21,3.2Z"/><path class="cls-1" d="M954.31,548.67c-7-.25-26.88-13.7-26.88-13.7s20.8-11.94,27.82-11.69a12.7,12.7,0,0,1-.94,25.39Z"/><path class="cls-1" d="M921,598.91c-6.62-2.34-21.55-21.12-21.55-21.12s23.43-5.17,30-2.83A12.71,12.71,0,0,1,921,598.91Z"/><path class="cls-1" d="M882,643.31c-6.91-1.2-24.8-17.18-24.8-17.18s22.22-9.06,29.13-7.86a12.7,12.7,0,0,1-4.32,25h0Z"/><path class="cls-11" d="M907.8,617l-41.11-59.62s-.8-14.76-3.46-18.21-.58-11.12-.58-11.12,2.88-4.22.39-4.6-.39-9.79-.39-9.79l-.19-14.95s2.31-14.4.39-17.82a5.65,5.65,0,0,1,.19-6.14s2.3-8.25,0-10.35-1.73-15-1.15-25.12-4-15.91-4-17.45-15.2-16.49-15.2-17.82-9.6-6.91-15.37-8.44-8.65-2.68-8.46-3.45-9-3.83-9-3.83-8.07-.58-11.15-4.61-12.47-5.18-12.75-5.22c0-.27-.12-.54-.17-.8s-.12-.58-.18-.87c.73-1.22,1.4-2.47,2-3.76l.53-1.17c3.37-.15,6.82-.87,9.46-2.93a12.87,12.87,0,0,0,4.6-9.19,20,20,0,0,0-2.25-10.22c-1.68-3.46-4.15-7-3.3-10.78.38-1.6,1.34-3,1.84-4.62.94-3,.07-6.3-1.38-9.08s-3.48-5.23-5.1-7.93a31.12,31.12,0,0,1-4.06-11.2c-.32-2.08-.45-4.27-1.5-6.1a11.38,11.38,0,0,0-3.37-3.4,33.69,33.69,0,0,0-20.65-6.27c-5.24.19-10.45,1.6-15.64,1a57.21,57.21,0,0,1-9.14-2.4c-6.45-1.91-13.88-2.69-19.5,1s-7.84,10.94-11.64,16.61c-3.36,5-8.29,9.23-10.85,14.55a1.29,1.29,0,0,1,.08-.31,17.31,17.31,0,0,0-1.43,3.87c-1,4.18-.16,8.55.85,12.72.52,2.15,1.24,4.48,3.11,5.68s4.5.92,6.71,1.32c-.08.36-.18.72-.26,1.09a43.92,43.92,0,0,0,30.47,51.2v1.17a28.1,28.1,0,0,1-.2,3.3h0s-19.32-4-24.51-1.28-15.37,4.8-16.91,6.32-5.38.38-8.8,9.4-3.84,18.2-8.26,22.4-6.72,7.09-6.92,10.16.58,3.84-1.16,4.8-4.22,5-3.45,6.52c0,0,1,3.84-2.11,5.75s-2.7,5.75-2.7,5.75-1.15,4.22-3.84,5.18-4.42,7.28-4.42,7.28l-8.75,10-17.27-19.12a7.28,7.28,0,0,0-10.28-.52l-8.48,7.64a16.84,16.84,0,0,0-8.49,5.06,22,22,0,0,0-4.39,6.54L589.54,497a11.82,11.82,0,0,0-1.19,13l11.06,12.24.08.1a19.56,19.56,0,0,0-10.71,4.36c-16.52,14.57-16.72,28-14.21,34.12S598,590.57,598,590.57s12.16,15.82,29.73,24.23h0l-.13.14c-.35.37-.69.8-1,1.2l-.29.37-.26.36-.31.47c-.09.12-.17.25-.25.37s-.22.36-.33.56l-.21.36c-.13.24-.27.49-.4.75l-.12.25c-.16.33-.32.68-.48,1,0,.12-.1.26-.16.39s-.2.5-.29.8-.12.33-.18.49-.17.5-.25.76-.11.36-.16.53-.16.56-.23.85-.09.34-.13.52q-.16.66-.3,1.38a2.69,2.69,0,0,1-.1.54c-.06.32-.12.65-.16,1s-.07.47-.1.7l-.12.95-.07.74c0,.35-.07.72-.09,1.09a3.82,3.82,0,0,1,0,.67c0,.61-.06,1.21-.07,1.85-.39,22.4.93,25.69.93,25.69s2.71,7.15,10.2,7.66a12.87,12.87,0,0,0,3.28-.18c10-1.73,33.44-5.75,41.7-4.21,5,.92,14.17-.44,20.72-1.68l1.72-.33,1.2,3.81,3.8-1,3.2,1.86,2,1.17c3.79,12.86,19.2,8.48,19.2,8.48l3.62,2.09,37.08,1s8,4.8,13.13,6.31a13.27,13.27,0,0,0,1.87.41,84.77,84.77,0,0,0,10.33.19c2.84-.07,5-.19,5-.19s-.37-10.08-.92-21.35c14.18-.59,26.75-1.48,34.35-2.81,19.81-3.48,28.08-21.49,31.12-31.12a91.25,91.25,0,0,1,1.94,12,86.61,86.61,0,0,0,3.08,10.35,34.86,34.86,0,0,0,4.22,7.66c14.61-5,5.77-12.45,2.69-15.72s2.12-5.94,2.12-5.94,4-2.68,3.65-5.18-.58-5.17,12.49-5S907.8,617,907.8,617ZM704.87,494.61c.17,1.1,2,12.91,3.64,16,.34.66.48,3,.43,6.31-7.74-.61-15.81-.94-15.81-.94a1.8,1.8,0,0,1,.42,1l-1.22-.27-1.76-.43,14.26-21.7Zm-28.26,45L690,541.7l1.13.17a44.88,44.88,0,0,0-.69,6.33c0,.2.3.44.73.72a18.1,18.1,0,0,0-.26,3.2c.21,1.07,6.48,3.35,13.66,5.26-.09.38-.19.75-.29,1.09h0c-6.34-3.33-16.34-4.89-17.49-7.37s-35.2-14.4-35.2-14.4-1.24-.66-3.39-1.7l9,1.7,2.47-.25a132.17,132.17,0,0,0,17,3.1Z"/><path class="cls-12" d="M864.05,625.35s-5.32,32.19-32.37,36.95-117.33,3.81-117.33,3.81-51.62-7.43-70.28-51-30.66-61-14.66-61.72,102.28,29.15,107.2,29.52S868.81,516.59,864.05,625.35Z"/><path class="cls-13" d="M864.05,625.35s-5.32,32.19-32.37,36.95-117.33,3.81-117.33,3.81-51.62-7.43-70.28-51-30.66-61-14.66-61.72,102.28,29.15,107.2,29.52S868.81,516.59,864.05,625.35Z"/><path class="cls-14" d="M621.94,661.15s2.7,7.11,10.11,7.61a13.17,13.17,0,0,0,3.26-.17c9.9-1.72,33.14-5.72,41.33-4.2,4.93.92,14-.44,20.53-1.66,4.32-.8,7.47-1.6,7.47-1.6S697,635.8,696.06,635s-34.28-20.76-34.28-20.76l-26.4-1.89h-.08a13.82,13.82,0,0,0-8.94,5.25c-2.79,3.37-5.19,8.91-5.35,18C620.65,657.91,621.94,661.15,621.94,661.15Z"/><path class="cls-13" d="M621.94,661.15s2.7,7.11,10.11,7.61a110.18,110.18,0,0,1-7.2-10.46l.14-18.47a32.47,32.47,0,0,1,10.4-27.42h-.08s-13.9.94-14.29,23.2S621.94,661.15,621.94,661.15Z"/><path class="cls-7" d="M736.45,620.78,761,601.58l38.67-38.1s-4.18-.2-10.47-.47c-1.6,1-6,4.14-6.12,8-.2,4.66-10.46.32-15.79,3s-31.42,36.07-36,35.85-8.18-2.32-10.09.92c0,.07-.09.14-.14.21Z"/><path class="cls-7" d="M626.37,617.66c.87.42,1.75.8,2.65,1.21,18.67,8,41.71,24.8,43.43,27.81,1,1.86,14.4,10,24.72,16.05,4.32-.8,7.47-1.6,7.47-1.6S697,635.8,696.06,635s-34.28-20.76-34.28-20.76l-26.4-1.89h-.08A13.9,13.9,0,0,0,626.37,617.66Z"/><path class="cls-12" d="M574.56,563.07c2.47,6.09,23.2,29.52,23.2,29.52s13.13,17.14,31.81,25.14,41.71,24.8,43.42,27.81c1.1,2,16,10.92,26.46,17.08L701.8,664l5.2,3,2.75,1.6s6.4-5.12,12.73-10.27,12.5-10.2,12.61-10.49c.18-.57,2.65-7.05,2.08-7.42-.29-.2-1.6-2.84-4-5.9a27.06,27.06,0,0,0-9.7-8c-8.8-4-12.57-13.1-12.57-13.1s-.8-.61-2.1-1.41c-2.26-1.42-5.88-3.47-8.56-3.82-4.2-.52-12-9.09-12-9.09s-5.34-3.43-7.43-7.81c-2-4.18-31.54-24.46-34.28-26.34l71.61,46,17.14,11,24.57-19.2,38.67-38.09s-5.2-.26-12.8-.58c-18.79-.8-52.17-2.09-56.39-1.13a32.11,32.11,0,0,1-10.48.68s-9.5.43-15.79-2.89-16.2-4.87-17.34-7.33-34.86-14.28-34.86-14.28-45.89-24.38-62.28-9.9S572.08,557,574.56,563.07Z"/><path class="cls-15" d="M722.54,423.27l5.91,19.62,7.61,44.18,28,1.91,8.11-13.44,8.12-13.42s5-17.85,8.66-35.13c3.2-15.28,5.3-30.11,1.81-31.72-3.09-1.43-5.12-6.57-6.4-12.11-.17-.68-.32-1.37-.47-2.07a107.75,107.75,0,0,1-1.85-14.2s-58.67-3-50.47,21.14a38.43,38.43,0,0,1,2.2,12.87,28,28,0,0,1-11.23,22.37Z"/><path class="cls-8" d="M710.35,420l2.1,33.33,4.76,28.38,5.33,13.14,4.76,71.91s45.93,5.31,57.1-.1a4.94,4.94,0,0,0,2-1.6c13.49-20.34,9.07-79.35,9.07-79.35l5.14-38.11-3.43-19.77-8.28-.88-6.4-.68s-1.44,1.77-3.52,4.52c-5.65,7.45-16,22.12-15.34,28.24,1,8.38-1.14,16.95-4.38,18.29s-5.91,3.61-6.47,1.33-1.15-2.85-.58-6.09-2.48-13.15-2.48-13.15-5.14-11.61-4.8-16.57-.57-10.67-2.1-12-3.61-2.67-1.9-8.8-7.51-18-7.51-18Z"/><path class="cls-7" d="M771,503.27l1.91,57,11,6.09a4.86,4.86,0,0,0,2-1.6c13.5-20.37,9.07-79.37,9.07-79.37l5.15-38.1-3.43-19.77-8.29-.88c3.2-15.28,5.29-30.11,1.81-31.72-3.09-1.43-5.12-6.57-6.44-12.11h0l-5.92,40.32s.49,3.63.67,7.38c.13,2.78.09,5.6-.48,7.09-1.34,3.43-.39,9.53-.39,9.53-3.43,6.05-5.14,17.26-6,28.08C770.58,489.56,771,503.27,771,503.27Z"/><path class="cls-14" d="M784,381.89s9.6,1.19,12.64,5.19,11,4.55,11,4.55,9.14,3.05,9,3.81,2.66,1.91,8.38,3.43,15.2,7.05,15.2,8.39,15,16.18,15,17.71,4.58,7.2,4,17.33-1.14,22.85,1.15,24.95,0,10.29,0,10.29a5.58,5.58,0,0,0-.12,6.09c1.9,3.44-.38,17.72-.38,17.72l.18,14.86s-2.09,9.33.39,9.71-.39,4.57-.39,4.57-2.09,7.62.58,11,3.42,18.09,3.42,18.09l40.8,59.2s.58,10.86-12.37,10.67-12.8,2.48-12.39,5-3.61,5.14-3.61,5.14-5.15,2.67-2.1,5.91,11.81,10.66-2.66,15.61a34.62,34.62,0,0,1-4.19-7.61,85.4,85.4,0,0,1-3.05-10.28s-1.34-14.48-4-16.39-2.29-11-2.29-11,3.81-7.43-1.52-10.48S774,559.45,774,559.45l-1.91-57s-1.33-42.09,6.67-56.19c0,0-1-6.09.38-9.52s-.19-14.48-.19-14.48Z"/><path class="cls-7" d="M734.07,404.74s-19.14-3.95-24.29-1.28-15.2,4.8-16.8,6.29-5.33.38-8.76,9.33-3.81,18.09-8.19,22.28-6.66,7.05-6.86,10.1.57,3.81-1.14,4.8-4.19,4.95-3.43,6.48,39.69,35,39.69,35,1.91,12.8,3.62,16-1.9,47.81-5.71,50.85,25.71,2.77,25.71,2.77,1.33-29.24,2.47-30.77-.8-32.8-.8-32.8-.19-26.66,2.29-33.71,2.2-30.45,2.2-30.45,2.19-14.05,4.86-17.33S734.07,404.74,734.07,404.74Z"/><path class="cls-14" d="M733.5,404.17s-19.15-3.94-24.29-1.28-15.2,4.76-16.76,6.29-5.33.37-8.8,9.33-3.81,18.09-8.2,22.28-6.66,7-6.85,10.1.57,3.81-1.14,4.76-4.19,5-3.43,6.47,39.62,35.05,39.62,35.05,1.9,12.8,3.61,16-1.9,47.8-5.71,50.85,25.71,2.77,25.71,2.77,1.34-29.24,2.48-30.76-.8-32.8-.8-32.8-.18-26.67,2.29-33.72,2.2-30.48,2.2-30.48,2.19-14,4.85-17.32S733.5,404.17,733.5,404.17Z"/><path class="cls-7" d="M731.49,388a38.43,38.43,0,0,1,2.2,12.87,43.7,43.7,0,0,0,50.12-19.81,107.75,107.75,0,0,1-1.85-14.2S723.3,363.85,731.49,388Z"/><path class="cls-15" d="M702.54,357.94a43.65,43.65,0,1,0,1-9.07A43.62,43.62,0,0,0,702.54,357.94Z"/><path class="cls-14" d="M674.54,458.88l-10.47,3.24s.95,3.81-2.1,5.71-2.66,5.72-2.66,5.72-1.14,4.19-3.81,5.14-4.38,7.2-4.38,7.2L642.36,496s-3.24,2.66-2.67,4-3.43,1.71-3.43,1.71l2.1,33.93,18.09,3.44,11.2-1.15,9.15-3.43,8-4.8,3.65-9.26,16-24.37Z"/><path class="cls-15" d="M638.93,504.43s-23.2-33.52-40.57-15.43,7,47.43,12.76,46.47,33-2.47,33-2.47Z"/><rect class="cls-3" x="595.76" y="483.58" width="49.14" height="55.84" rx="10.1" transform="translate(-182.89 547.16) rotate(-42.05)"/><rect class="cls-7" x="595.76" y="483.58" width="49.14" height="55.84" rx="10.1" transform="translate(-182.89 547.16) rotate(-42.05)"/><rect class="cls-3" x="596.42" y="480.82" width="49.14" height="55.84" rx="10.1" transform="translate(-180.88 546.89) rotate(-42.05)"/><circle class="cls-1" cx="620.37" cy="510.11" r="10.86"/><circle class="cls-7" cx="620.37" cy="510.11" r="10.86"/><circle class="cls-1" cx="620.98" cy="508.74" r="10.86"/><path class="cls-15" d="M623.89,511.45c-.2,25.14,51.8,30.47,51.8,30.47L689,544l6,1,2.48-24.55s-2.73-.4-6.14-1.2c-5-1.17-11.55-3.2-12.92-6C676.07,508.43,624.07,486.31,623.89,511.45Z"/><path class="cls-7" d="M703.49,348.87a5.21,5.21,0,0,1,3.2,1.43c1.47,1.56,1.55,4.33,3.46,5.29a3.94,3.94,0,0,0,2.27.26c5.07-.72,8-6.4,12.86-8,2.77-.9,5.81-.31,8.52.73a6.36,6.36,0,0,1,2.82,1.81c1.6,2.11.49,5.2,1.24,7.76,1,3.53,5.27,4.94,8.93,5.4s7.78.72,10.22,3.48a9.31,9.31,0,0,1,1.81,7.37,6,6,0,0,0,0,2.73c1,2.86,5.95,2.4,7.24.18,1-1.64.66-3,2.88-3.46,1.51-.31,3.27.32,4.67.8a34.08,34.08,0,0,0,12.06,1.86,43.63,43.63,0,1,0-82.18-27.64Z"/><path class="cls-12" d="M758.8,376a5.73,5.73,0,0,1,0-2.73,9.29,9.29,0,0,0-1.82-7.37c-2.4-2.76-6.56-3-10.21-3.48s-7.88-1.86-8.93-5.4c-.75-2.55.38-5.65-1.24-7.76a6.28,6.28,0,0,0-2.82-1.81,13.16,13.16,0,0,0-8.53-.73c-4.85,1.6-7.79,7.29-12.85,8a3.84,3.84,0,0,1-2.27-.27c-1.92-1-2-3.72-3.47-5.28-2.31-2.44-6.7-.87-9.53-2.68-1.85-1.2-2.56-3.51-3.08-5.64-1-4.15-1.81-8.49-.84-12.64,1.65-7.08,8-11.94,12-18,3.76-5.64,5.88-12.8,11.54-16.51s12.94-2.89,19.32-1a59.46,59.46,0,0,0,9,2.4c5.15.63,10.32-.8,15.5-1a33.32,33.32,0,0,1,20.47,6.22,11.25,11.25,0,0,1,3.35,3.38c1,1.83,1.17,4,1.48,6.07a30.79,30.79,0,0,0,4,11.14c1.6,2.68,3.61,5.11,5.05,7.88s2.3,6,1.37,9c-.49,1.6-1.45,3-1.81,4.59-.85,3.72,1.6,7.27,3.27,10.7A20,20,0,0,1,800,363.31a12.77,12.77,0,0,1-4.56,9.12c-2.69,2.12-6.24,2.82-9.65,2.93a34.14,34.14,0,0,1-12.31-1.85c-1.4-.48-3.2-1.11-4.66-.8-2.23.46-1.94,1.82-2.88,3.46C764.74,378.41,759.81,378.83,758.8,376Z"/><path class="cls-7" d="M735.3,621.92l24.57-19.2,38.67-38.09s-5.2-.26-12.8-.58a8.28,8.28,0,0,0-2.69,5.2c-.2,4.66-10.46.33-15.79,3s-31.42,36.06-36,35.84-8.18-2.32-10.09.92a1.64,1.64,0,0,1-.14.22,5.42,5.42,0,0,1-2.9,1.72Z"/><path class="cls-12" d="M685.78,620.59,698.13,660l1.93,6.2,5.88-1.6,13-3.56,57.73-15.86a50.25,50.25,0,0,0,20.8-5.54,62.86,62.86,0,0,1,35.87-7.83c7.63.71,16.12-2.57,23.2-15.58,0,0,16-47.2-24.38-60.8s-42.31,7.2-42.31,7.2-.2.11-.54.33c-1.6,1-6,4.15-6.12,8-.19,4.66-10.46.32-15.78,3s-31.43,36.06-36,35.85-8.19-2.32-10.1.92c0,.07-.09.13-.14.2-1.4,2-5.64,2.4-8.45,2.48-1.53,0-2.64,0-2.64,0l-.36.11-3,.83Z"/><path class="cls-7" d="M689,544l6,1,2.48-24.55s-2.73-.4-6.14-1.2C692.17,522.63,690.13,535.89,689,544Z"/><path class="cls-7" d="M844.72,429.23s17.71-5.14,13.33,45.15-37.14,82-37.14,82S783.2,573,766.25,570.34a288.67,288.67,0,0,0-29.33-3.2,43.11,43.11,0,0,0-17.15-4.57c-9.52-.38-29.52-6.29-29.9-8.19s5-29.91,2.66-32c0,0,26.67,1.09,29.34,3s6.47.55,9.33,0,11.62-8.17,28.95-1.49c0,0,5.9.56,8.19-1s5.95-.38,5.95-.38,3.6-1.34,4.15-2.14,5.13,0,5.13,0a2,2,0,0,0,2.72-.93,1.93,1.93,0,0,0,.15-.4,12.56,12.56,0,0,1,2.66-4.19S794.25,486,804,475.11c0,0,2.85-2.48,2.09-5.53S821.89,423.13,844.72,429.23Z"/><path class="cls-14" d="M844.29,425.36s17.71-5.14,13.33,45.15-37.18,82.08-37.18,82.08-37.71,16.57-54.67,13.91-29.32-3.24-29.32-3.24a43,43,0,0,0-17.15-4.57c-9.52-.38-29.52-6.29-29.9-8.19s5-29.91,2.67-32c0,0,26.66,1.09,29.33,3s6.48.55,9.33,0,11.62-8.16,29-1.49c0,0,5.9.56,8.18-1s6-.38,6-.38,3.57-1.34,4.14-2.1,5.14,0,5.14,0a2,2,0,0,0,2.71-.92,2.74,2.74,0,0,0,.15-.4,12.35,12.35,0,0,1,2.66-4.2s5.14-28.95,14.86-39.8c0,0,2.85-2.48,2.09-5.52S821.39,419.27,844.29,425.36Z"/><path class="cls-7" d="M706.69,614.33l25.15,30.4c.09-.09.16-.15.16-.18.19-.57,2.66-7,2.09-7.43s-5-9.9-13.71-13.9a25.83,25.83,0,0,1-10.77-9.8Z"/><path class="cls-7" d="M707,667l2.75,1.6s6.4-5.12,12.73-10.27,12.5-10.2,12.61-10.49c.18-.57,2.65-7.05,2.09-7.42-.3-.2-1.6-2.84-4-5.9-17.06-4.8-6.2,7.07-4.76,7.61,0,0-20.8-4.8-21.9,17.85A26.68,26.68,0,0,0,707,667Z"/><path class="cls-14" d="M728.06,676.59l3.63,2.09,36.8,1s7.88,4.8,13,6.26a10.94,10.94,0,0,0,1.85.41,83.34,83.34,0,0,0,10.24.19c2.82-.07,5-.19,5-.19s-1.74-46.4-3.05-51.2c-.63-2.34-3.71-1.83-6.75-.66a44.2,44.2,0,0,0-6.58,3.34s-15.62,1.51-18.1,2.85-9.52-.8-13.9,0S738,635.47,738,635.47c-21.33-7-9.33,6.1-7.81,6.68,0,0-20.75-4.8-21.9,17.84S728.06,676.59,728.06,676.59Z"/><path class="cls-14" d="M781.21,658.68c.4,9.6,7.88,21.51,12.33,27.81,2.82-.07,5-.19,5-.19s-1.74-46.4-3-51.2c-.63-2.34-3.71-1.83-6.75-.66C785.09,641.32,780.89,651,781.21,658.68Z"/><path class="cls-7" d="M781.21,658.68c.4,9.6,7.88,21.51,12.33,27.81,2.82-.07,5-.19,5-.19s-1.74-46.4-3-51.2c-.63-2.34-3.71-1.83-6.75-.66C785.09,641.32,780.89,651,781.21,658.68Z"/><path class="cls-13" d="M774.92,660c2.53,9.27,2.5,19.66,6.53,25.94a10.94,10.94,0,0,0,1.85.41,83.34,83.34,0,0,0,10.24.19c2.82-.07,5-.19,5-.19s-1.74-46.4-3-51.2c-.63-2.34-3.71-1.83-6.75-.66a44.2,44.2,0,0,0-6.58,3.34S771.69,648.1,774.92,660Z"/><path class="cls-7" d="M648.1,566s18.26,5.92,33.73,27Z"/><g class="cls-16"><path d="M796.47,337.44c0,.14-.07.27-.11.4a14.76,14.76,0,0,1-.63,1.6A11.48,11.48,0,0,1,796.47,337.44Z"/><path d="M693.17,328.2a17.82,17.82,0,0,1,1.42-3.85c-.1.33-.2.66-.28,1-1,4.14-.16,8.48.85,12.63.52,2.13,1.22,4.45,3.07,5.64,2.84,1.81,7.2.23,9.54,2.68,1.47,1.56,1.55,4.33,3.47,5.29a3.92,3.92,0,0,0,2.27.26c5.06-.72,8-6.4,12.86-8,2.76-.9,5.8-.31,8.52.74a6.22,6.22,0,0,1,2.81,1.8c1.6,2.11.49,5.21,1.24,7.76,1,3.53,5.27,4.94,8.93,5.4s7.78.72,10.22,3.48a9.31,9.31,0,0,1,1.81,7.37,6,6,0,0,0,0,2.73c1,2.86,6,2.4,7.2.18.95-1.64.67-3,2.89-3.46,1.5-.31,3.26.32,4.66.8A34.27,34.27,0,0,0,787,372.5c3.42-.12,7-.8,9.66-2.93a11.45,11.45,0,0,0,3-3.6,12.1,12.1,0,0,1-4.08,6.46c-2.69,2.12-6.24,2.82-9.66,2.93a34.08,34.08,0,0,1-12.3-1.85c-1.4-.48-3.2-1.11-4.66-.8-2.22.46-1.94,1.82-2.88,3.46-1.3,2.26-6.23,2.68-7.25-.18a6,6,0,0,1,0-2.72,9.24,9.24,0,0,0-1.81-7.37c-2.44-2.76-6.56-3-10.22-3.48s-7.88-1.87-8.92-5.4c-.76-2.55.38-5.66-1.24-7.76a6.33,6.33,0,0,0-2.82-1.81,13.14,13.14,0,0,0-8.52-.74c-4.87,1.6-7.8,7.3-12.86,8a3.92,3.92,0,0,1-2.27-.26c-1.92-1-2-3.73-3.47-5.28-2.32-2.45-6.7-.87-9.53-2.69-1.86-1.19-2.56-3.5-3.08-5.64C693,336.69,692.2,332.35,693.17,328.2Z"/></g><path class="cls-7" d="M799.42,480.64c-3.49,4.71-7.47,9.07-10.56,14.06s-5.27,10.8-4.62,16.62c3.2-3.28,4.65-7.81,6.67-11.92,3.41-7,8.51-12.86,12.8-19.26.8-1.23,6.09-8.28,3.42-8.62C804.94,471.24,800.61,479,799.42,480.64Z"/></svg>