<svg width="1217" height="339" viewBox="0 0 1217 339" xmlns="http://www.w3.org/2000/svg" xmlns:xlink="http://www.w3.org/1999/xlink"><title>Page 1</title><defs><path id="a" d="M0 0h1296v417H0z"/><linearGradient x1="50%" y1="0%" x2="50%" y2="100%" id="c"><stop stop-color="#FFF" stop-opacity="0" offset="0%"/><stop stop-color="#FFF" offset="100%"/></linearGradient></defs><g transform="translate(-39)" fill="none" fill-rule="evenodd"><mask id="b" fill="#fff"><use xlink:href="#a"/></mask><g mask="url(#b)"><path stroke="#5068FC" stroke-width="1.111" d="M177.762 252.09H51.713V100.373L213.06-122.924h186.012V39.268h43.34v212.821h-43.34v68.81h-221.31z"/><path stroke="#4A74FC" stroke-width="1.222" d="M189.053 240.798H63.005V104.027l155.826-215.66h168.95V50.56h43.34v190.239h-43.34v68.809H189.053z"/><path stroke="#4581FC" stroke-width="1.333" d="M200.343 229.508H74.295V107.68l150.308-208.023H376.49V61.85h43.341v167.659h-43.34v68.809H200.342z"/><path stroke="#3F8DFC" stroke-width="1.444" d="M211.633 218.217H85.585V111.331l144.79-200.383H365.2V73.14h43.34v145.077H365.2v68.81H211.633z"/><path stroke="#3A9AFD" stroke-width="1.556" d="M222.924 206.926H96.876v-91.942L236.146-77.76h117.763V84.431h43.34v122.495h-43.34v68.81H222.924z"/><path stroke="#34A6FD" stroke-width="1.667" d="M234.215 195.636H108.167v-77l133.75-185.107h100.701V95.721h43.341v99.915h-43.34v68.809H234.214z"/><path stroke="#2FB3FD" stroke-width="1.778" d="M245.505 184.345H119.457V122.29l128.231-177.47h83.64v162.193h43.34v77.333h-43.34v68.81h-85.823z"/><path stroke="#29BFFD" stroke-width="1.889" d="M256.796 173.054H130.747V125.94L253.46-43.89h66.577v162.193h43.34v54.751h-43.34v68.81h-63.241z"/><path stroke="#24CCFD" stroke-width="2" d="M268.087 161.764H142.039v-32.17L259.232-32.6h49.515v162.192h43.34v32.17h-43.34v68.81h-40.66z"/><path stroke="#5068FC" stroke-width="1.111" d="M979.294 252.09H853.246V100.373l161.347-223.298h186.01V39.268h43.341v212.821h-43.34v68.81h-221.31z"/><path stroke="#4A74FC" stroke-width="1.222" d="M990.585 240.798H864.536V104.027l155.828-215.66h168.95V50.56h43.34v190.239h-43.34v68.809h-198.73z"/><path stroke="#4581FC" stroke-width="1.333" d="M1001.876 229.508H875.828V107.68l150.307-208.023h151.888V61.85h43.34v167.659h-43.34v68.809h-176.147z"/><path stroke="#3F8DFC" stroke-width="1.444" d="M1013.166 218.217H887.118V111.331l144.789-200.383h134.825V73.14h43.34v145.077h-43.34v68.81h-153.566z"/><path stroke="#3A9AFD" stroke-width="1.556" d="M1024.456 206.926H898.408v-91.942l139.27-192.745h117.764V84.431h43.34v122.495h-43.34v68.81h-130.986z"/><path stroke="#34A6FD" stroke-width="1.667" d="M1035.747 195.636H909.699v-77L1043.45-66.471h100.7V95.721h43.341v99.915h-43.34v68.809h-108.404z"/><path stroke="#2FB3FD" stroke-width="1.778" d="M1047.038 184.345H920.99V122.29l128.231-177.47h83.639v162.193h43.34v77.333h-43.34v68.81h-85.822z"/><path stroke="#29BFFD" stroke-width="1.889" d="M1058.328 173.054H932.28V125.94l122.713-169.83h66.577v162.193h43.34v54.751h-43.34v68.81h-63.242z"/><path stroke="#24CCFD" stroke-width="2" d="M1069.619 161.764H943.57v-32.17L1060.764-32.6h49.514v162.192h43.341v32.17h-43.34v68.81h-40.66zM544.31 99.21c0-75.064 38.873-137.17 103.66-137.17 64.788 0 103.66 62.106 103.66 137.17 0 79.086-36.638 136.725-103.66 136.725-67.021 0-103.66-57.64-103.66-136.725z"/><path d="M1211.894 27.977v-162.192h-203.072L852.758 81.773c-1.213-21.926-4.714-43.204-10.472-63.453-7.912-27.831-19.87-53.052-35.54-74.96-18.065-25.258-40.4-45.29-66.383-59.54-28.308-15.525-59.393-23.397-92.393-23.397s-64.085 7.872-92.394 23.397c-25.982 14.251-48.316 34.283-66.382 59.54-15.67 21.908-27.626 47.129-35.54 74.96a272.944 272.944 0 0 0-2.555 9.657h-40.737v-162.192H207.289L40.423 96.723v166.656h126.048v68.81h243.89v-68.81h43.342V182.94c7.724 27.459 19.432 52.319 34.91 73.763 18.352 25.424 41.32 45.369 68.268 59.281 27.718 14.31 58.364 21.566 91.09 21.566 32.724 0 63.371-7.255 91.088-21.565 26.947-13.913 49.916-33.858 68.267-59.282 15.291-21.182 26.903-45.699 34.63-72.76v79.436h126.047v68.81h243.89v-68.81h43.343V27.977h-43.342z" stroke="#555BFC"/><path d="M647.97-128.286c31.43 0 60.915 7.582 87.649 22.419 24.569 13.636 45.648 32.807 62.658 56.906 14.731 20.863 25.968 44.873 33.397 71.338 6.82 24.287 10.282 50.138 10.282 76.833 0 58.41-14.883 110.185-43.066 149.768-17.277 24.284-38.958 43.368-64.464 56.669-26.187 13.651-55.263 20.613-86.456 20.613-31.192 0-60.266-6.961-86.453-20.612-25.506-13.3-47.188-32.384-64.466-56.669-28.183-39.582-43.066-91.36-43.066-149.77 0-26.693 3.462-52.544 10.281-76.83 7.428-26.464 18.664-50.472 33.394-71.334 17.01-24.1 38.09-43.273 62.657-56.91 26.736-14.838 56.222-22.421 87.653-22.421z" stroke="#5068FC" stroke-width="1.111"/><path d="M647.97-116.995c29.86 0 57.742 7.292 82.904 21.439 23.154 13.023 42.978 31.332 58.935 54.275 13.792 19.817 24.309 42.616 31.253 67.715 6.368 22.995 9.603 47.482 9.603 72.776 0 55.402-13.887 104.495-40.211 142.041-16.201 23.148-36.598 41.37-60.661 54.058-24.656 12.994-52.162 19.66-81.823 19.66-29.657 0-57.161-6.665-81.816-19.656-24.066-12.687-44.463-30.912-60.666-54.058-26.325-37.546-40.212-86.641-40.212-142.045 0-25.292 3.235-49.777 9.601-72.77 6.944-25.099 17.459-47.895 31.25-67.711 15.955-22.944 35.78-41.255 58.932-54.28 25.165-14.15 53.048-21.444 82.911-21.444z" stroke="#4A74FC" stroke-width="1.222"/><path d="M647.97-105.705c28.29 0 54.57 7.004 78.16 20.462 21.74 12.41 40.309 29.857 55.21 51.641 12.855 18.773 22.65 40.36 29.111 64.093 5.913 21.704 8.924 44.826 8.924 68.719 0 52.395-12.891 98.805-37.358 134.315-15.125 22.009-34.236 39.371-56.857 51.447-23.126 12.336-49.06 18.706-77.19 18.706-28.124 0-54.056-6.369-77.18-18.701-22.624-12.075-41.736-29.438-56.864-51.446-24.468-35.51-37.36-81.923-37.36-134.321 0-23.89 3.01-47.01 8.922-68.711 6.46-23.731 16.252-45.315 29.104-64.087 14.901-21.786 33.47-39.237 55.208-51.649 23.592-13.462 49.876-20.468 78.17-20.468z" stroke="#4581FC" stroke-width="1.333"/><path d="M647.97-94.414c26.72 0 51.4 6.715 73.416 19.483 20.324 11.795 37.639 28.383 51.486 49.009 11.915 17.728 20.99 38.102 26.967 60.47 5.46 20.412 8.245 42.17 8.245 64.662 0 49.39-11.895 93.115-34.503 126.59-14.05 20.87-31.875 37.37-53.054 48.834-21.596 11.677-45.96 17.754-72.557 17.754-26.59 0-50.95-6.074-72.544-17.746-21.183-11.462-39.01-27.965-53.063-48.835-22.61-33.475-34.506-77.204-34.506-126.597 0-22.488 2.783-44.244 8.242-64.651 5.977-22.365 15.047-42.737 26.96-60.463 13.845-20.63 31.16-37.22 51.483-49.018 22.02-12.774 46.702-19.492 73.428-19.492z" stroke="#3F8DFC" stroke-width="1.444"/><path d="M647.97-83.123c25.15 0 48.228 6.425 68.672 18.505 18.909 11.182 34.97 26.907 47.761 46.375 10.977 16.683 19.33 35.846 24.824 56.848 5.009 19.12 7.566 39.514 7.566 60.605 0 46.383-10.898 87.425-31.648 118.863-12.976 19.731-29.514 35.373-49.25 46.223-20.066 11.02-42.86 16.8-67.925 16.8-25.057 0-47.846-5.777-67.908-16.79-19.741-10.849-36.283-26.49-49.261-46.223-20.753-31.44-31.653-72.486-31.653-118.873 0-21.086 2.557-41.475 7.563-60.592 5.491-20.997 13.84-40.158 24.814-56.838 12.79-19.473 28.85-35.203 47.758-46.389 20.448-12.085 43.53-18.514 68.687-18.514z" stroke="#3A9AFD" stroke-width="1.556"/><path d="M647.97-71.833c23.58 0 45.057 6.136 63.927 17.526 17.494 10.57 32.3 25.433 44.037 43.743 10.039 15.639 17.671 33.59 22.68 53.226 4.557 17.828 6.889 36.857 6.889 56.548 0 43.376-9.903 81.735-28.794 111.137-11.9 18.592-27.152 33.374-45.448 43.612-18.534 10.362-39.758 15.847-63.29 15.847-23.525 0-44.742-5.481-63.273-15.836-18.3-10.237-33.556-25.017-45.46-43.611-18.895-29.405-28.8-67.767-28.8-111.15 0-19.684 2.332-38.708 6.884-56.531 5.007-19.63 12.636-37.579 22.669-53.214 11.735-18.316 26.54-33.185 44.033-43.758 18.875-11.398 40.359-17.539 63.946-17.539z" stroke="#34A6FD" stroke-width="1.667"/><path d="M647.97-60.543c22.01 0 41.885 5.848 59.184 16.55 16.079 9.953 29.63 23.957 40.311 41.11 9.1 14.592 16.012 31.333 20.539 49.602 4.102 16.536 6.208 34.202 6.208 52.49 0 40.37-8.907 76.046-25.94 103.412-10.825 17.455-24.79 31.374-41.643 41-17.006 9.703-36.658 14.895-58.659 14.895-21.991 0-41.636-5.187-58.636-14.882-16.858-9.623-30.829-23.544-41.658-40.999-17.038-27.368-25.947-63.05-25.947-103.425 0-18.283 2.105-35.942 6.204-52.474 4.524-18.263 11.43-34.999 20.524-49.588 10.68-17.16 24.23-31.168 40.309-41.127 17.303-10.711 37.185-16.564 59.204-16.564z" stroke="#2FB3FD" stroke-width="1.778"/><path d="M647.97-49.251c20.44 0 38.713 5.557 54.44 15.57 14.663 9.34 26.96 22.482 36.587 38.476 8.162 13.548 14.352 29.078 18.395 45.98 3.648 15.245 5.53 31.546 5.53 48.435 0 37.362-7.912 70.354-23.085 95.684-9.751 16.317-22.43 29.377-37.841 38.39-15.475 9.045-33.557 13.94-54.026 13.94-20.457 0-38.53-4.89-54-13.925-15.418-9.011-28.102-22.072-37.857-38.388-15.18-25.332-23.093-58.331-23.093-95.701 0-16.881 1.88-33.174 5.525-48.414 4.039-16.896 10.224-32.42 18.378-45.964 9.625-16.002 21.92-29.15 36.585-38.498 15.73-10.022 34.011-15.585 54.462-15.585z" stroke="#29BFFD" stroke-width="1.889"/><path fill="url(#c)" d="M0 0h1216v497H0z" transform="translate(40 -159)"/></g></g></svg>