<?xml version="1.0" encoding="utf-8"?>
<!-- Generator: Adobe Illustrator 23.0.1, SVG Export Plug-In . SVG Version: 6.00 Build 0)  -->
<svg version="1.1" id="Layer_1" xmlns="http://www.w3.org/2000/svg" xmlns:xlink="http://www.w3.org/1999/xlink" x="0px" y="0px"
	 viewBox="0 0 1600 589" style="enable-background:new 0 0 1600 589;" xml:space="preserve">
<style type="text/css">
	.st0{opacity:0.3;}
	.st1{opacity:0.5;fill:none;stroke:#C5C9E0;enable-background:new    ;}
	.st2{opacity:0.5;fill:none;stroke:#C5C9E0;stroke-dasharray:10;enable-background:new    ;}
	.st3{fill:none;stroke:#5468FF;}
</style>
<g class="st0">
	<path vector-effect="non-scaling-stroke" class="st1" d="M154.1,36.8V1.3 M154.1,1.3v35.5l30.7,17.7l30.7-17.7V1.3 M215.6,1.3v35.5
		l30.7,17.7l30.7-17.7V1.3 M277.1,1.3v35.5 M154.1,143.5V108 M154.1,108l30.7-17.7V54.8L154.1,37 M215.6,143.5V108l-30.7-17.7
		L154.1,108v35.5l30.7,17.7L215.6,143.5z"/>
	<path vector-effect="non-scaling-stroke" class="st1" d="M246.4,90.2V54.8L215.6,37l-30.7,17.7v35.5l30.7,17.7L246.4,90.2z
		 M277.1,143.5V108l-30.7-17.7L215.6,108v35.5l30.7,17.7L277.1,143.5z"/>
	<path vector-effect="non-scaling-stroke" class="st1" d="M277.1,37l-30.7,17.7v35.5l30.7,17.7l30.7-17.7 M338.6,143.5V108
		l-30.7-17.7L277.1,108v35.5l30.7,17.7L338.6,143.5z M307.8,90.2l30.7,17.7l30.7-17.7 M400,143.5V108l-30.7-17.7L338.6,108v35.5
		l30.7,17.7L400,143.5z M369.3,90.2L400,108l30.7-17.7V54.8"/>
	<path vector-effect="non-scaling-stroke" class="st1" d="M461.5,143.5V108l-30.7-17.7L400,108v35.5l30.7,17.7L461.5,143.5z
		 M492.3,90.2V54.8L461.5,37l-30.7,17.7v35.5l30.7,17.7L492.3,90.2z"/>
	<path vector-effect="non-scaling-stroke" class="st1" d="M523,143.5V108l-30.7-17.7L461.5,108v35.5l30.7,17.7L523,143.5z
		 M553.7,90.2V54.8L523,37l-30.7,17.7v35.5L523,108L553.7,90.2z"/>
	<path vector-effect="non-scaling-stroke" class="st1" d="M553.7,90.2L523,108v35.5l30.7,17.7 M553.7,54.8v35.5 M-30.3,214.7v35.5
		l30.7,17.7l30.7-17.7 M31.2,250.2l30.7,17.7l30.7-17.7 M184.9,161.5l-30.7-17.7 M246.4,161.5l-30.7-17.7l-30.7,17.7"/>
	<path vector-effect="non-scaling-stroke" class="st1" d="M307.8,161.5l-30.7-17.7l-30.7,17.7"/>
	<path vector-effect="non-scaling-stroke" class="st1" d="M369.3,161.5l-30.7-17.7l-30.7,17.7 M430.8,196.9v-35.5L400,143.7
		l-30.7,17.7 M430.8,267.9l30.7-17.7v-35.5l-30.7-17.7"/>
	<path vector-effect="non-scaling-stroke" class="st2" d="M492.3,196.9v-35.5l-30.7-17.7l-30.7,17.7v35.5l30.7,17.7L492.3,196.9
		L492.3,196.9z"/>
	<path vector-effect="non-scaling-stroke" class="st1" d="M523,250.2v-35.5l-30.7-17.7l-30.7,17.7v35.5l30.7,17.7L523,250.2z
		 M553.7,196.9v-35.5L523,143.7l-30.7,17.7v35.5l30.7,17.7L553.7,196.9z M584.5,250.2v-35.5l-30.7-17.7L523,214.7v35.5l30.7,17.7
		L584.5,250.2z"/>
	<path vector-effect="non-scaling-stroke" class="st1" d="M553.7,161.5v35.5l30.7,17.7l30.7-17.7 M646,250.2v-35.5l-30.7-17.7
		l-30.7,17.7v35.5l30.7,17.7L646,250.2z M615.2,196.9l30.7,17.7l30.7-17.7"/>
	<path vector-effect="non-scaling-stroke" class="st1" d="M676.7,196.9L646,214.7v35.5 M0.4,303.6v-35.5l-30.7-17.7L-61,268.2v35.5
		l30.7,17.7L0.4,303.6z M31.2,356.9v-35.5L0.4,303.6l-30.7,17.7v35.5l30.7,17.7L31.2,356.9z"/>
	<path vector-effect="non-scaling-stroke" class="st1" d="M61.9,303.6v-35.5l-30.7-17.7L0.4,268.2v35.5l30.7,17.7L61.9,303.6z"/>
	<path vector-effect="non-scaling-stroke" class="st2" d="M92.7,356.9v-35.5l-30.7-17.7l-30.7,17.7v35.5l30.7,17.7L92.7,356.9z"/>
	<path vector-effect="non-scaling-stroke" class="st1" d="M92.7,250.4l-30.7,17.7v35.5l30.7,17.7 M92.7,321.4v35.5 M553.7,303.6
		v-35.5L523,250.4l-30.7,17.7v35.5l30.7,17.7L553.7,303.6z M584.5,356.9v-35.5l-30.7-17.7L523,321.4v35.5l30.7,17.7L584.5,356.9z
		 M615.2,303.6v-35.5l-30.7-17.7l-30.7,17.7v35.5l30.7,17.7L615.2,303.6z"/>
	<path vector-effect="non-scaling-stroke" class="st1" d="M615.2,303.6l-30.7,17.7v35.5l30.7,17.7 M646,250.4l-30.7,17.7v35.5
		 M0.4,410.3v-35.5l-30.7-17.7L-61,374.8v35.5l30.7,17.7L0.4,410.3z M31.2,463.5v-35.5L0.4,410.3l-30.7,17.7v35.5l30.7,17.7
		L31.2,463.5z"/>
	<path vector-effect="non-scaling-stroke" class="st1" d="M61.9,410.3v-35.5l-30.7-17.7L0.4,374.8v35.5l30.7,17.7L61.9,410.3z
		 M92.7,463.5v-35.5l-30.7-17.7l-30.7,17.7v35.5l30.7,17.7L92.7,463.5z"/>
	<path vector-effect="non-scaling-stroke" class="st1" d="M92.7,357.1l-30.7,17.7v35.5l30.7,17.7l30.7-17.7 M154.1,463.5v-35.5
		l-30.7-17.7l-30.7,17.7v35.5l30.7,17.7L154.1,463.5z"/>
	<path vector-effect="non-scaling-stroke" class="st1" d="M123.4,410.3l30.7,17.7l30.7-17.7 M215.6,463.5v-35.5l-30.7-17.7
		l-30.7,17.7v35.5l30.7,17.7L215.6,463.5z"/>
	<path vector-effect="non-scaling-stroke" class="st1" d="M184.9,410.3l30.7,17.7l30.7-17.7 M277.1,463.5v-35.5l-30.7-17.7
		l-30.7,17.7v35.5l30.7,17.7L277.1,463.5z"/>
	<path vector-effect="non-scaling-stroke" class="st1" d="M246.4,410.3l30.7,17.7l30.7-17.7 M338.6,463.5v-35.5l-30.7-17.7
		l-30.7,17.7v35.5l30.7,17.7L338.6,463.5z M307.8,410.3l30.7,17.7l30.7-17.7"/>
	<path vector-effect="non-scaling-stroke" class="st1" d="M400,463.5v-35.5l-30.7-17.7l-30.7,17.7v35.5l30.7,17.7L400,463.5z
		 M369.3,410.3l30.7,17.7l30.7-17.7v-35.5"/>
	<path vector-effect="non-scaling-stroke" class="st1" d="M461.5,463.5v-35.5l-30.7-17.7L400,428.1v35.5l30.7,17.7L461.5,463.5z
		 M492.3,410.3v-35.5l-30.7-17.7l-30.7,17.7v35.5l30.7,17.7L492.3,410.3z"/>
	<path vector-effect="non-scaling-stroke" class="st1" d="M523,463.5v-35.5l-30.7-17.7l-30.7,17.7v35.5l30.7,17.7L523,463.5z
		 M553.7,410.3v-35.5L523,357.1l-30.7,17.7v35.5l30.7,17.7L553.7,410.3z M584.5,463.5v-35.5l-30.7-17.7L523,428.1v35.5l30.7,17.7
		L584.5,463.5z M615.2,410.3v-35.5l-30.7-17.7l-30.7,17.7v35.5l30.7,17.7L615.2,410.3z M646,463.5v-35.5l-30.7-17.7l-30.7,17.7v35.5
		l30.7,17.7L646,463.5z M615.2,374.8v35.5l30.7,17.7l30.7-17.7 M707.4,463.5v-35.5l-30.7-17.7L646,428.1v35.5l30.7,17.7L707.4,463.5
		z M676.7,410.3l30.7,17.7l30.7-17.7 M0.4,517v-35.5l-30.7-17.7L-61,481.5V517l30.7,17.7L0.4,517z M31.2,570.2v-35.5L0.4,517
		l-30.7,17.7v35.5L0.4,588L31.2,570.2z"/>
	<path vector-effect="non-scaling-stroke" class="st1" d="M61.9,517v-35.5l-30.7-17.7L0.4,481.5V517l30.7,17.7L61.9,517z
		 M92.7,534.8L61.9,517l-30.7,17.7v35.5 M123.4,517v-35.5l-30.7-17.7l-30.7,17.7V517l30.7,17.7L123.4,517z"/>
	<path vector-effect="non-scaling-stroke" class="st1" d="M154.1,534.8L123.4,517l-30.7,17.7 M184.9,517v-35.5l-30.7-17.7
		l-30.7,17.7V517l30.7,17.7L184.9,517z M184.9,517l-30.7,17.7 M246.4,481.5l-30.7-17.7l-30.7,17.7V517"/>
	<path vector-effect="non-scaling-stroke" class="st1" d="M307.8,481.5l-30.7-17.7l-30.7,17.7 M369.3,517v-35.5l-30.7-17.7
		l-30.7,17.7 M400,570.2v-35.5L369.3,517"/>
	<path vector-effect="non-scaling-stroke" class="st1" d="M430.8,517v-35.5L400,463.8l-30.7,17.7V517l30.7,17.7L430.8,517z"/>
	<path vector-effect="non-scaling-stroke" class="st1" d="M492.3,517v-35.5l-30.7-17.7l-30.7,17.7V517l30.7,17.7L492.3,517z
		 M492.3,517l-30.7,17.7"/>
	<path vector-effect="non-scaling-stroke" class="st1" d="M553.7,481.5L523,463.8l-30.7,17.7V517 M615.2,481.5l-30.7-17.7
		l-30.7,17.7"/>
	<path vector-effect="non-scaling-stroke" class="st1" d="M676.7,481.5L646,463.8l-30.7,17.7 M738.2,481.5l-30.7-17.7l-30.7,17.7
		 M154.1,1.3L184.9,19l30.7-17.7 M215.6,1.3L246.4,19l30.7-17.7 M246.4,54.8V19.3L215.6,1.5l-30.7,17.7v35.5l30.7,17.7L246.4,54.8z
		 M277.1,108V72.5l-30.7-17.7l-30.7,17.7V108l30.7,17.7L277.1,108z"/>
	<path vector-effect="non-scaling-stroke" class="st1" d="M277.1,1.5l-30.7,17.7v35.5l30.7,17.7 M277.1,72.5V108l30.7,17.7
		l30.7-17.7 M338.6,108l30.7,17.7L400,108"/>
	<path vector-effect="non-scaling-stroke" class="st1" d="M400,108l30.7,17.7l30.7-17.7V72.5l-30.7-17.7"/>
	<path vector-effect="non-scaling-stroke" class="st1" d="M523,108V72.5l-30.7-17.7l-30.7,17.7V108l30.7,17.7L523,108z"/>
	<path vector-effect="non-scaling-stroke" class="st1" d="M553.7,54.8L523,72.5V108l30.7,17.7 M-30.3,179.2v35.5l30.7,17.7
		 M154.1,179.2l30.7-17.7V126l-30.7-17.7 M215.6,179.2l-30.7-17.7l-30.7,17.7"/>
	<path vector-effect="non-scaling-stroke" class="st1" d="M246.4,161.5V126l-30.7-17.7L184.9,126v35.5l30.7,17.7L246.4,161.5z
		 M277.1,179.2l-30.7-17.7l-30.7,17.7"/>
	<path vector-effect="non-scaling-stroke" class="st1" d="M307.8,161.5V126l-30.7-17.7L246.4,126v35.5l30.7,17.7L307.8,161.5z
		 M338.6,179.2l-30.7-17.7l-30.7,17.7"/>
	<path vector-effect="non-scaling-stroke" class="st1" d="M369.3,161.5V126l-30.7-17.7L307.8,126v35.5l30.7,17.7L369.3,161.5z
		 M400,179.2l-30.7-17.7l-30.7,17.7"/>
	<path vector-effect="non-scaling-stroke" class="st1" d="M430.8,161.5V126L400,108.2L369.3,126v35.5l30.7,17.7L430.8,161.5z
		 M430.8,232.4l30.7-17.7v-35.5l-30.7-17.7L400,179.2"/>
	<path vector-effect="non-scaling-stroke" class="st1" d="M492.3,161.5V126l-30.7-17.7L430.8,126v35.5l30.7,17.7L492.3,161.5z
		 M523,214.7v-35.5l-30.7-17.7l-30.7,17.7v35.5l30.7,17.7L523,214.7z"/>
	<path vector-effect="non-scaling-stroke" class="st1" d="M553.7,161.5V126L523,108.2L492.3,126v35.5l30.7,17.7L553.7,161.5z
		 M584.5,214.7v-35.5l-30.7-17.7L523,179.2v35.5l30.7,17.7L584.5,214.7z M553.7,126v35.5l30.7,17.7 M584.5,179.2v35.5l30.7,17.7
		l30.7-17.7 M646,214.7l30.7,17.7 M0.4,268.2v-35.5l-30.7-17.7L-61,232.7v35.5l30.7,17.7L0.4,268.2z M31.2,321.4v-35.5L0.4,268.2
		l-30.7,17.7v35.5l30.7,17.7L31.2,321.4z"/>
	<path vector-effect="non-scaling-stroke" class="st1" d="M0.4,232.7v35.5l30.7,17.7l30.7-17.7v-35.5 M430.8,268.2v-35.5
		 M492.3,268.2v-35.5l-30.7-17.7l-30.7,17.7v35.5l30.7,17.7L492.3,268.2z"/>
	<path vector-effect="non-scaling-stroke" class="st1" d="M553.7,268.2v-35.5L523,214.9l-30.7,17.7v35.5l30.7,17.7L553.7,268.2z
		 M584.5,321.4v-35.5l-30.7-17.7L523,285.9v35.5l30.7,17.7L584.5,321.4z M615.2,268.2v-35.5l-30.7-17.7l-30.7,17.7v35.5l30.7,17.7
		L615.2,268.2z"/>
	<path vector-effect="non-scaling-stroke" class="st1" d="M615.2,268.2l-30.7,17.7v35.5l30.7,17.7 M676.7,232.7L646,214.9
		l-30.7,17.7v35.5 M0.4,374.8v-35.5l-30.7-17.7L-61,339.4v35.5l30.7,17.7L0.4,374.8z M31.2,428.1v-35.5L0.4,374.8l-30.7,17.7v35.5
		l30.7,17.7L31.2,428.1z"/>
	<path vector-effect="non-scaling-stroke" class="st1" d="M61.9,374.8v-35.5l-30.7-17.7L0.4,339.4v35.5l30.7,17.7L61.9,374.8z
		 M92.7,428.1v-35.5l-30.7-17.7l-30.7,17.7v35.5l30.7,17.7L92.7,428.1z"/>
	<path vector-effect="non-scaling-stroke" class="st1" d="M92.7,321.6l-30.7,17.7v35.5l30.7,17.7 M92.7,392.6v35.5l30.7,17.7
		l30.7-17.7v-35.5"/>
	<path vector-effect="non-scaling-stroke" class="st1" d="M154.1,392.6v35.5l30.7,17.7l30.7-17.7v-35.5 M277.1,392.6v35.5l30.7,17.7
		l30.7-17.7v-35.5 M400,392.6l30.7-17.7v-35.5 M461.5,428.1v-35.5l-30.7-17.7L400,392.6v35.5l30.7,17.7L461.5,428.1z"/>
	<path vector-effect="non-scaling-stroke" class="st1" d="M523,428.1v-35.5l-30.7-17.7l-30.7,17.7v35.5l30.7,17.7L523,428.1z
		 M553.7,374.8v-35.5L523,321.6l-30.7,17.7v35.5l30.7,17.7L553.7,374.8z M584.5,428.1v-35.5l-30.7-17.7L523,392.6v35.5l30.7,17.7
		L584.5,428.1z M615.2,374.8v-35.5l-30.7-17.7l-30.7,17.7v35.5l30.7,17.7L615.2,374.8z"/>
	<path vector-effect="non-scaling-stroke" class="st1" d="M615.2,374.8l-30.7,17.7v35.5l30.7,17.7l30.7-17.7 M615.2,339.4v35.5
		 M646,428.1l30.7,17.7l30.7-17.7 M0.4,481.5v-35.5l-30.7-17.7L-61,446.1v35.5l30.7,17.7L0.4,481.5z M31.2,534.8v-35.5L0.4,481.5
		l-30.7,17.7v35.5l30.7,17.7L31.2,534.8z"/>
	<path vector-effect="non-scaling-stroke" class="st1" d="M61.9,481.5v-35.5l-30.7-17.7L0.4,446.1v35.5l30.7,17.7L61.9,481.5z
		 M92.7,534.8v-35.5l-30.7-17.7l-30.7,17.7v35.5 M123.4,481.5v-35.5l-30.7-17.7l-30.7,17.7v35.5l30.7,17.7L123.4,481.5z"/>
	<path vector-effect="non-scaling-stroke" class="st1" d="M154.1,534.8v-35.5l-30.7-17.7l-30.7,17.7v35.5l30.7,17.7L154.1,534.8z
		 M184.9,481.5v-35.5l-30.7-17.7l-30.7,17.7v35.5l30.7,17.7L184.9,481.5z M215.6,499.3l-30.7-17.7l-30.7,17.7v35.5l30.7,17.7
		 M246.4,481.5v-35.5l-30.7-17.7l-30.7,17.7v35.5l30.7,17.7L246.4,481.5z M277.1,499.3l-30.7-17.7l-30.7,17.7"/>
	<path vector-effect="non-scaling-stroke" class="st1" d="M307.8,481.5v-35.5l-30.7-17.7l-30.7,17.7v35.5l30.7,17.7L307.8,481.5z
		 M338.6,499.3l-30.7-17.7l-30.7,17.7"/>
	<path vector-effect="non-scaling-stroke" class="st1" d="M369.3,481.5v-35.5l-30.7-17.7l-30.7,17.7v35.5l30.7,17.7L369.3,481.5z"/>
	<path vector-effect="non-scaling-stroke" class="st1" d="M430.8,481.5v-35.5L400,428.3l-30.7,17.7v35.5l30.7,17.7L430.8,481.5z
		 M461.5,534.8v-35.5l-30.7-17.7L400,499.3v35.5l30.7,17.7L461.5,534.8z"/>
	<path vector-effect="non-scaling-stroke" class="st1" d="M492.3,481.5v-35.5l-30.7-17.7l-30.7,17.7v35.5l30.7,17.7L492.3,481.5z
		 M492.3,481.5l-30.7,17.7v35.5l30.7,17.7"/>
	<path vector-effect="non-scaling-stroke" class="st1" d="M553.7,481.5v-35.5L523,428.3l-30.7,17.7v35.5 M615.2,481.5v-35.5
		l-30.7-17.7l-30.7,17.7v35.5"/>
	<path vector-effect="non-scaling-stroke" class="st1" d="M676.7,481.5v-35.5L646,428.3l-30.7,17.7v35.5 M738.2,481.5v-35.5
		l-30.7-17.7l-30.7,17.7v35.5 M1414.4,54.5l30.7-17.7V1.3 M1445.2,1.3v35.5l30.7,17.7l30.7-17.7V1.3 M1506.6,1.3v35.5l30.7,17.7
		 M953.3,108v35.5 M1260.7,143.5V108L1230,90.3l-30.7,17.7v35.5l30.7,17.7L1260.7,143.5z M1322.2,143.5V108l-30.7-17.7l-30.7,17.7
		v35.5l30.7,17.7L1322.2,143.5z M1291.5,90.2l30.7,17.7l30.7-17.7"/>
	<path vector-effect="non-scaling-stroke" class="st1" d="M1383.7,143.5V108l-30.7-17.7l-30.7,17.7v35.5l30.7,17.7L1383.7,143.5z
		 M1352.9,90.2l30.7,17.7l30.7-17.7V54.8"/>
	<path vector-effect="non-scaling-stroke" class="st1" d="M1445.2,143.5V108l-30.7-17.7l-30.7,17.7v35.5l30.7,17.7L1445.2,143.5z
		 M1475.9,90.2V54.8L1445.2,37l-30.7,17.7v35.5l30.7,17.7L1475.9,90.2z M1506.6,143.5V108l-30.7-17.7l-30.7,17.7v35.5l30.7,17.7
		L1506.6,143.5z"/>
	<path vector-effect="non-scaling-stroke" class="st1" d="M1537.4,90.2V54.8L1506.6,37l-30.7,17.7v35.5l30.7,17.7L1537.4,90.2z
		 M1537.4,90.2l-30.7,17.7v35.5l30.7,17.7 M1537.4,54.8v35.5 M891.9,250.2v-35.5l-30.7-17.7l-30.7,17.7v35.5l30.7,17.7L891.9,250.2z
		 M922.6,196.9v-35.5l-30.7-17.7l-30.7,17.7v35.5l30.7,17.7L922.6,196.9z"/>
	<path vector-effect="non-scaling-stroke" class="st1" d="M953.3,250.2v-35.5l-30.7-17.7l-30.7,17.7v35.5l30.7,17.7L953.3,250.2z
		 M953.3,143.7l-30.7,17.7v35.5l30.7,17.7 M953.3,214.7v35.5l30.7,17.7l30.7-17.7 M1014.8,250.2l30.7,17.7l30.7-17.7 M1291.5,161.5
		l-30.7-17.7l-30.7,17.7 M1352.9,161.5l-30.7-17.7l-30.7,17.7 M1414.4,196.9v-35.5l-30.7-17.7l-30.7,17.7 M1414.4,267.9l30.7-17.7
		v-35.5l-30.7-17.7"/>
	<path vector-effect="non-scaling-stroke" class="st1" d="M1475.9,196.9v-35.5l-30.7-17.7l-30.7,17.7v35.5l30.7,17.7L1475.9,196.9z"
		/>
	<path vector-effect="non-scaling-stroke" class="st2" d="M1506.6,250.2v-35.5l-30.7-17.7l-30.7,17.7v35.5l30.7,17.7L1506.6,250.2
		L1506.6,250.2z"/>
	<path vector-effect="non-scaling-stroke" class="st1" d="M1537.4,196.9v-35.5l-30.7-17.7l-30.7,17.7v35.5l30.7,17.7L1537.4,196.9z
		 M1568.1,250.2v-35.5l-30.7-17.7l-30.7,17.7v35.5l30.7,17.7L1568.1,250.2z"/>
	<path vector-effect="non-scaling-stroke" class="st1" d="M1537.4,161.5v35.5l30.7,17.7l30.7-17.7 M1629.6,250.2v-35.5l-30.7-17.7
		l-30.7,17.7v35.5l30.7,17.7L1629.6,250.2z M1598.8,196.9l30.7,17.7l30.7-17.7 M830.4,356.9v-35.5 M891.9,356.9v-35.5l-30.7-17.7
		l-30.7,17.7v35.5l30.7,17.7L891.9,356.9z M922.6,303.6v-35.5l-30.7-17.7l-30.7,17.7v35.5l30.7,17.7L922.6,303.6z"/>
	<path vector-effect="non-scaling-stroke" class="st1" d="M953.3,356.9v-35.5l-30.7-17.7l-30.7,17.7v35.5l30.7,17.7L953.3,356.9z
		 M984.1,303.6v-35.5l-30.7-17.7l-30.7,17.7v35.5l30.7,17.7L984.1,303.6z"/>
	<path vector-effect="non-scaling-stroke" class="st1" d="M1014.8,356.9v-35.5l-30.7-17.7l-30.7,17.7v35.5l30.7,17.7L1014.8,356.9z
		 M1045.6,303.6v-35.5l-30.7-17.7l-30.7,17.7v35.5l30.7,17.7L1045.6,303.6z"/>
	<path vector-effect="non-scaling-stroke" class="st2" d="M1076.3,356.9v-35.5l-30.7-17.7l-30.7,17.7v35.5l30.7,17.7L1076.3,356.9z"
		/>
	<path vector-effect="non-scaling-stroke" class="st1" d="M1076.3,250.4l-30.7,17.7v35.5l30.7,17.7 M1076.3,321.4v35.5
		 M1537.4,303.6v-35.5l-30.7-17.7l-30.7,17.7v35.5l30.7,17.7L1537.4,303.6z M1568.1,356.9v-35.5l-30.7-17.7l-30.7,17.7v35.5
		l30.7,17.7L1568.1,356.9z"/>
	<path vector-effect="non-scaling-stroke" class="st1" d="M1598.8,303.6v-35.5l-30.7-17.7l-30.7,17.7v35.5l30.7,17.7L1598.8,303.6z
		 M1598.8,303.6l-30.7,17.7v35.5l30.7,17.7"/>
	<path vector-effect="non-scaling-stroke" class="st1" d="M1629.6,250.4l-30.7,17.7v35.5 M707.4,428.1l30.7-17.7v-35.5 M768.9,428.1
		l-30.7-17.7l-30.7,17.7"/>
	<path vector-effect="non-scaling-stroke" class="st1" d="M738.2,374.8v35.5l30.7,17.7l30.7-17.7v-35.5 M830.4,428.1l-30.7-17.7
		l-30.7,17.7"/>
	<path vector-effect="non-scaling-stroke" class="st2" d="M799.6,374.8v35.5l30.7,17.7l30.7-17.7v-35.5l-30.7-17.7"/>
	<path vector-effect="non-scaling-stroke" class="st1" d="M891.9,463.5v-35.5l-30.7-17.7l-30.7,17.7 M922.6,410.3v-35.5l-30.7-17.7
		l-30.7,17.7v35.5l30.7,17.7L922.6,410.3z"/>
	<path vector-effect="non-scaling-stroke" class="st1" d="M953.3,463.5v-35.5l-30.7-17.7l-30.7,17.7v35.5l30.7,17.7L953.3,463.5z
		 M984.1,410.3v-35.5l-30.7-17.7l-30.7,17.7v35.5l30.7,17.7L984.1,410.3z"/>
	<path vector-effect="non-scaling-stroke" class="st1" d="M1014.8,463.5v-35.5l-30.7-17.7l-30.7,17.7v35.5l30.7,17.7L1014.8,463.5z
		 M1045.6,410.3v-35.5l-30.7-17.7l-30.7,17.7v35.5l30.7,17.7L1045.6,410.3z M1076.3,463.5v-35.5l-30.7-17.7l-30.7,17.7v35.5
		l30.7,17.7L1076.3,463.5z"/>
	<path vector-effect="non-scaling-stroke" class="st1" d="M1076.3,357.1l-30.7,17.7v35.5l30.7,17.7l30.7-17.7 M1137.8,463.5v-35.5
		l-30.7-17.7l-30.7,17.7v35.5l30.7,17.7L1137.8,463.5z"/>
	<path vector-effect="non-scaling-stroke" class="st1" d="M1107,410.3l30.7,17.7l30.7-17.7 M1199.2,463.5v-35.5l-30.7-17.7
		l-30.7,17.7v35.5l30.7,17.7L1199.2,463.5z M1168.5,410.3l30.7,17.7l30.7-17.7"/>
	<path vector-effect="non-scaling-stroke" class="st1" d="M1260.7,463.5v-35.5l-30.7-17.7l-30.7,17.7v35.5l30.7,17.7L1260.7,463.5z
		 M1230,410.3l30.7,17.7l30.7-17.7 M1322.2,463.5v-35.5l-30.7-17.7l-30.7,17.7v35.5l30.7,17.7L1322.2,463.5z"/>
	<path vector-effect="non-scaling-stroke" class="st1" d="M1291.5,410.3l30.7,17.7l30.7-17.7 M1383.7,463.5v-35.5l-30.7-17.7
		l-30.7,17.7v35.5l30.7,17.7L1383.7,463.5z M1352.9,410.3l30.7,17.7l30.7-17.7v-35.5"/>
	<path vector-effect="non-scaling-stroke" class="st1" d="M1445.2,463.5v-35.5l-30.7-17.7l-30.7,17.7v35.5l30.7,17.7L1445.2,463.5z
		 M1475.9,410.3v-35.5l-30.7-17.7l-30.7,17.7v35.5l30.7,17.7L1475.9,410.3z M1506.6,463.5v-35.5l-30.7-17.7l-30.7,17.7v35.5
		l30.7,17.7L1506.6,463.5z"/>
	<path vector-effect="non-scaling-stroke" class="st1" d="M1537.4,410.3v-35.5l-30.7-17.7l-30.7,17.7v35.5l30.7,17.7L1537.4,410.3z
		 M1568.1,463.5v-35.5l-30.7-17.7l-30.7,17.7v35.5l30.7,17.7L1568.1,463.5z"/>
	<path vector-effect="non-scaling-stroke" class="st1" d="M1598.8,410.3v-35.5l-30.7-17.7l-30.7,17.7v35.5l30.7,17.7L1598.8,410.3z
		 M1629.6,463.5v-35.5l-30.7-17.7l-30.7,17.7v35.5l30.7,17.7L1629.6,463.5z M1598.8,374.8v35.5l30.7,17.7l30.7-17.7 M922.6,517
		v-35.5l-30.7-17.7 M953.3,570.2v-35.5L922.6,517"/>
	<path vector-effect="non-scaling-stroke" class="st1" d="M984.1,517v-35.5l-30.7-17.7l-30.7,17.7V517l30.7,17.7L984.1,517z
		 M1014.8,570.2v-35.5L984.1,517l-30.7,17.7v35.5l30.7,17.7L1014.8,570.2z M1045.6,517v-35.5l-30.7-17.7l-30.7,17.7V517l30.7,17.7
		L1045.6,517z"/>
	<path vector-effect="non-scaling-stroke" class="st1" d="M1076.3,534.8l-30.7-17.7l-30.7,17.7v35.5 M1107,517v-35.5l-30.7-17.7
		l-30.7,17.7V517l30.7,17.7L1107,517z"/>
	<path vector-effect="non-scaling-stroke" class="st1" d="M1137.8,534.8L1107,517l-30.7,17.7 M1168.5,517v-35.5l-30.7-17.7
		l-30.7,17.7V517l30.7,17.7L1168.5,517z M1168.5,517l-30.7,17.7"/>
	<path vector-effect="non-scaling-stroke" class="st1" d="M1230,481.5l-30.7-17.7l-30.7,17.7V517"/>
	<path vector-effect="non-scaling-stroke" class="st1" d="M1291.5,481.5l-30.7-17.7l-30.7,17.7 M1352.9,517v-35.5l-30.7-17.7
		l-30.7,17.7 M1383.7,570.2v-35.5l-30.7-17.7 M1414.4,517v-35.5l-30.7-17.7l-30.7,17.7V517l30.7,17.7L1414.4,517z M1475.9,517v-35.5
		l-30.7-17.7l-30.7,17.7V517l30.7,17.7L1475.9,517z M1475.9,517l-30.7,17.7"/>
	<path vector-effect="non-scaling-stroke" class="st1" d="M1537.4,481.5l-30.7-17.7l-30.7,17.7V517"/>
	<path vector-effect="non-scaling-stroke" class="st1" d="M1598.8,481.5l-30.7-17.7l-30.7,17.7"/>
	<path vector-effect="non-scaling-stroke" class="st1" d="M1660.3,481.5l-30.7-17.7l-30.7,17.7 M1414.4,19l30.7-17.7 M1445.2,1.3
		l30.7,17.7l30.7-17.7 M1322.2,108l30.7,17.7l30.7-17.7 M1414.4,54.8V19.3 M1383.7,108l30.7,17.7l30.7-17.7V72.5l-30.7-17.7
		 M1475.9,54.8V19.3l-30.7-17.7l-30.7,17.7v35.5l30.7,17.7L1475.9,54.8z"/>
	<path vector-effect="non-scaling-stroke" class="st1" d="M1506.6,108V72.5l-30.7-17.7l-30.7,17.7V108l30.7,17.7L1506.6,108z
		 M1506.6,1.5l-30.7,17.7v35.5l30.7,17.7l30.7-17.7"/>
	<path vector-effect="non-scaling-stroke" class="st1" d="M1537.4,54.8l-30.7,17.7V108l30.7,17.7 M891.9,214.7v-35.5l-30.7-17.7
		l-30.7,17.7v35.5l30.7,17.7L891.9,214.7z M922.6,161.5V126l-30.7-17.7L861.1,126v35.5l30.7,17.7L922.6,161.5z"/>
	<path vector-effect="non-scaling-stroke" class="st1" d="M953.3,214.7v-35.5l-30.7-17.7l-30.7,17.7v35.5l30.7,17.7L953.3,214.7z
		 M953.3,108.2L922.6,126v35.5l30.7,17.7 M953.3,179.2v35.5l30.7,17.7 M1260.7,179.2l-30.7-17.7l-30.7,17.7 M1291.5,161.5V126
		l-30.7-17.7L1230,126v35.5l30.7,17.7L1291.5,161.5z"/>
	<path vector-effect="non-scaling-stroke" class="st2" d="M1322.2,179.2l-30.7-17.7l-30.7,17.7 M1352.9,161.5V126l-30.7-17.7
		l-30.7,17.7v35.5l30.7,17.7L1352.9,161.5L1352.9,161.5z"/>
	<path vector-effect="non-scaling-stroke" class="st1" d="M1383.7,179.2l-30.7-17.7l-30.7,17.7"/>
	<path vector-effect="non-scaling-stroke" class="st2" d="M1414.4,161.5V126l-30.7-17.7l-30.7,17.7v35.5l30.7,17.7L1414.4,161.5
		L1414.4,161.5z"/>
	<path vector-effect="non-scaling-stroke" class="st1" d="M1414.4,232.4l30.7-17.7v-35.5l-30.7-17.7l-30.7,17.7"/>
	<path vector-effect="non-scaling-stroke" class="st2" d="M1475.9,161.5V126l-30.7-17.7l-30.7,17.7v35.5l30.7,17.7L1475.9,161.5z"/>
	<path vector-effect="non-scaling-stroke" class="st1" d="M1506.6,214.7v-35.5l-30.7-17.7l-30.7,17.7v35.5l30.7,17.7L1506.6,214.7z
		 M1537.4,161.5V126l-30.7-17.7l-30.7,17.7v35.5l30.7,17.7L1537.4,161.5z"/>
	<path vector-effect="non-scaling-stroke" class="st1" d="M1568.1,214.7v-35.5l-30.7-17.7l-30.7,17.7v35.5l30.7,17.7L1568.1,214.7z
		 M1537.4,126v35.5l30.7,17.7 M1568.1,179.2v35.5l30.7,17.7l30.7-17.7 M891.9,321.4v-35.5l-30.7-17.7l-30.7,17.7v35.5l30.7,17.7
		L891.9,321.4z M922.6,268.2v-35.5l-30.7-17.7l-30.7,17.7v35.5l30.7,17.7L922.6,268.2z"/>
	<path vector-effect="non-scaling-stroke" class="st1" d="M953.3,321.4v-35.5l-30.7-17.7l-30.7,17.7v35.5l30.7,17.7L953.3,321.4z
		 M984.1,268.2v-35.5l-30.7-17.7l-30.7,17.7v35.5l30.7,17.7L984.1,268.2z"/>
	<path vector-effect="non-scaling-stroke" class="st2" d="M1014.8,321.4v-35.5l-30.7-17.7l-30.7,17.7v35.5l30.7,17.7L1014.8,321.4
		L1014.8,321.4z"/>
	<path vector-effect="non-scaling-stroke" class="st1" d="M984.1,232.7v35.5l30.7,17.7l30.7-17.7v-35.5 M1414.4,268.2v-35.5
		 M1475.9,268.2v-35.5l-30.7-17.7l-30.7,17.7v35.5l30.7,17.7L1475.9,268.2z"/>
	<path vector-effect="non-scaling-stroke" class="st1" d="M1537.4,268.2v-35.5l-30.7-17.7l-30.7,17.7v35.5l30.7,17.7L1537.4,268.2z
		 M1568.1,321.4v-35.5l-30.7-17.7l-30.7,17.7v35.5l30.7,17.7L1568.1,321.4z"/>
	<path vector-effect="non-scaling-stroke" class="st1" d="M1598.8,268.2v-35.5l-30.7-17.7l-30.7,17.7v35.5l30.7,17.7L1598.8,268.2z
		 M1598.8,268.2l-30.7,17.7v35.5l30.7,17.7 M707.4,428.1l30.7,17.7l30.7-17.7v-35.5l-30.7-17.7 M738.2,374.8l30.7,17.7l30.7-17.7"/>
	<path vector-effect="non-scaling-stroke" class="st1" d="M830.4,428.1v-35.5l-30.7-17.7l-30.7,17.7v35.5l30.7,17.7L830.4,428.1z
		 M799.6,374.8l30.7,17.7l30.7-17.7v-35.5l-30.7-17.7 M891.9,428.1v-35.5l-30.7-17.7l-30.7,17.7v35.5l30.7,17.7L891.9,428.1z"/>
	<path vector-effect="non-scaling-stroke" class="st1" d="M922.6,374.8v-35.5l-30.7-17.7l-30.7,17.7v35.5l30.7,17.7L922.6,374.8z
		 M953.3,428.1v-35.5l-30.7-17.7l-30.7,17.7v35.5l30.7,17.7L953.3,428.1z"/>
	<path vector-effect="non-scaling-stroke" class="st1" d="M984.1,374.8v-35.5l-30.7-17.7l-30.7,17.7v35.5l30.7,17.7L984.1,374.8z
		 M1014.8,428.1v-35.5l-30.7-17.7l-30.7,17.7v35.5l30.7,17.7L1014.8,428.1z"/>
	<path vector-effect="non-scaling-stroke" class="st2" d="M1045.6,374.8v-35.5l-30.7-17.7l-30.7,17.7v35.5l30.7,17.7L1045.6,374.8z"
		/>
	<path vector-effect="non-scaling-stroke" class="st1" d="M1076.3,428.1v-35.5l-30.7-17.7l-30.7,17.7v35.5l30.7,17.7L1076.3,428.1z
		 M1076.3,321.6l-30.7,17.7v35.5l30.7,17.7 M1076.3,392.6v35.5l30.7,17.7l30.7-17.7v-35.5"/>
	<path vector-effect="non-scaling-stroke" class="st1" d="M1137.8,392.6v35.5l30.7,17.7l30.7-17.7v-35.5 M1199.2,392.6v35.5
		l30.7,17.7l30.7-17.7v-35.5"/>
	<path vector-effect="non-scaling-stroke" class="st1" d="M1260.7,392.6v35.5l30.7,17.7l30.7-17.7v-35.5"/>
	<path vector-effect="non-scaling-stroke" class="st1" d="M1322.2,392.6v35.5l30.7,17.7l30.7-17.7v-35.5 M1383.7,392.6l30.7-17.7
		v-35.5"/>
	<path vector-effect="non-scaling-stroke" class="st1" d="M1445.2,428.1v-35.5l-30.7-17.7l-30.7,17.7v35.5l30.7,17.7L1445.2,428.1z
		 M1506.6,428.1v-35.5l-30.7-17.7l-30.7,17.7v35.5l30.7,17.7L1506.6,428.1z M1537.4,374.8v-35.5l-30.7-17.7l-30.7,17.7v35.5
		l30.7,17.7L1537.4,374.8z"/>
	<path vector-effect="non-scaling-stroke" class="st2" d="M1568.1,428.1v-35.5l-30.7-17.7l-30.7,17.7v35.5l30.7,17.7L1568.1,428.1z"
		/>
	<path vector-effect="non-scaling-stroke" class="st1" d="M1598.8,374.8v-35.5l-30.7-17.7l-30.7,17.7v35.5l30.7,17.7L1598.8,374.8z
		 M1598.8,374.8l-30.7,17.7v35.5l30.7,17.7l30.7-17.7 M1598.8,339.4v35.5 M707.4,428.3l30.7,17.7 M738.2,446.1l30.7-17.7l30.7,17.7"
		/>
	<path vector-effect="non-scaling-stroke" class="st1" d="M861.1,446.1l-30.7-17.7l-30.7,17.7"/>
	<path vector-effect="non-scaling-stroke" class="st1" d="M922.6,481.5v-35.5l-30.7-17.7l-30.7,17.7 M922.6,552.5l30.7-17.7v-35.5
		l-30.7-17.7"/>
	<path vector-effect="non-scaling-stroke" class="st1" d="M984.1,481.5v-35.5l-30.7-17.7l-30.7,17.7v35.5l30.7,17.7L984.1,481.5z
		 M1014.8,534.8v-35.5l-30.7-17.7l-30.7,17.7v35.5l30.7,17.7L1014.8,534.8z M1045.6,481.5v-35.5l-30.7-17.7l-30.7,17.7v35.5
		l30.7,17.7L1045.6,481.5z M1076.3,534.8v-35.5l-30.7-17.7l-30.7,17.7v35.5"/>
	<path vector-effect="non-scaling-stroke" class="st1" d="M1107,481.5v-35.5l-30.7-17.7l-30.7,17.7v35.5l30.7,17.7L1107,481.5z
		 M1137.8,534.8v-35.5l-30.7-17.7l-30.7,17.7v35.5l30.7,17.7L1137.8,534.8z"/>
	<path vector-effect="non-scaling-stroke" class="st1" d="M1168.5,481.5v-35.5l-30.7-17.7l-30.7,17.7v35.5l30.7,17.7L1168.5,481.5z
		 M1199.2,499.3l-30.7-17.7l-30.7,17.7v35.5l30.7,17.7"/>
	<path vector-effect="non-scaling-stroke" class="st1" d="M1230,481.5v-35.5l-30.7-17.7l-30.7,17.7v35.5l30.7,17.7L1230,481.5z
		 M1260.7,499.3l-30.7-17.7l-30.7,17.7"/>
	<path vector-effect="non-scaling-stroke" class="st1" d="M1291.5,481.5v-35.5l-30.7-17.7l-30.7,17.7v35.5l30.7,17.7L1291.5,481.5z
		 M1322.2,499.3l-30.7-17.7l-30.7,17.7 M1352.9,481.5v-35.5l-30.7-17.7l-30.7,17.7v35.5l30.7,17.7L1352.9,481.5z M1322.2,499.3
		l30.7-17.7l30.7,17.7v35.5l-30.7,17.7"/>
	<path vector-effect="non-scaling-stroke" class="st1" d="M1414.4,481.5v-35.5l-30.7-17.7l-30.7,17.7v35.5l30.7,17.7L1414.4,481.5z
		 M1445.2,534.8v-35.5l-30.7-17.7l-30.7,17.7v35.5l30.7,17.7L1445.2,534.8z"/>
	<path vector-effect="non-scaling-stroke" class="st2" d="M1475.9,481.5v-35.5l-30.7-17.7l-30.7,17.7v35.5l30.7,17.7L1475.9,481.5z"
		/>
	<path vector-effect="non-scaling-stroke" class="st1" d="M1475.9,481.5l-30.7,17.7v35.5l30.7,17.7"/>
	<path vector-effect="non-scaling-stroke" class="st2" d="M1537.4,481.5v-35.5l-30.7-17.7l-30.7,17.7v35.5"/>
	<path vector-effect="non-scaling-stroke" class="st1" d="M1598.8,481.5v-35.5l-30.7-17.7l-30.7,17.7v35.5"/>
	<path vector-effect="non-scaling-stroke" class="st1" d="M1660.3,481.5v-35.5l-30.7-17.7l-30.7,17.7v35.5"/>
	<path class="st3" d="M-184,116.9v44.6l30.7,17.7v35.7l30.7,17.7v35.5l30.7-17.7l30.7,17.7v35.5l-30.7,18l30.7,17.7v35.5l30.7-17.7
		l30.7,17.7l30.7,17.7v35.7l30.7,17.7v35.5l30.7-17.7l30.7,17.7l30.7-17.7l30.7,17.7v-35.5l30.7-17.7l30.7,17.7l30.7-17.7l30.7,17.7
		v35.5l30.7,17.7l30.7-17.7l30.7,17.7l30.7-17.7l30.7-17.7v-35.5l30.7-18l30.7,18l30.7-18l61.5,35.7l61.5-35.7l61.5,35.7l61.5-35.7
		l30.7,18l30.7-18v-35.5l30.7-17.7v-35.5l-30.7-18v-35.5l30.7-17.7l30.7,17.7v35.5l30.7,18v35.5l30.7,17.7l-30.7,17.7v35.7
		l30.7,17.7l30.7-17.7l30.7,17.7v35.5l30.7,17.7l61.5-35.5l30.7,17.7v-35.5l30.7-17.7l30.7,17.7l30.7-17.7l30.7,17.7v35.5l30.7-17.7
		l30.7,17.7l30.7-17.7v-35.5l30.7-18v-35.5l30.7-17.7l30.7,17.7l30.7-18v-71l-30.7-17.7l30.7-17.7v-35.5l30.7-18l61.5,35.7
		l61.5-35.7"/>
</g>
</svg>
