<svg id="Layer_1" data-name="Layer 1" xmlns="http://www.w3.org/2000/svg" xmlns:xlink="http://www.w3.org/1999/xlink" viewBox="0 0 819.3 598.19"><defs><style>.cls-1{fill:#5333ed;}.cls-2,.cls-7{fill:#6c63ff;}.cls-2,.cls-5,.cls-9{opacity:0.1;}.cls-15,.cls-2,.cls-27,.cls-5,.cls-8{isolation:isolate;}.cls-3{fill:#eec5cd;}.cls-4{fill:#d48a9b;}.cls-6,.cls-8{fill:#fff;}.cls-27,.cls-8{opacity:0.2;}.cls-10{fill:url(#linear-gradient);}.cls-11{fill:#575989;}.cls-12{fill:#ffd7e3;}.cls-13{fill:#3f2b3b;}.cls-14{fill:#c77486;}.cls-15{opacity:0.05;}.cls-16{fill:#d4dfec;}.cls-17{fill:#dce6f2;}.cls-18{fill:#feffff;}.cls-19{fill:#464a5f;}.cls-20{fill:#939498;}.cls-21{fill:#4b4770;}.cls-22{fill:#e8eaf2;}.cls-23{fill:#f1cec8;}.cls-24{fill:#42312e;}.cls-25{fill:#f6e2df;}.cls-26{fill:#f2dcdc;}.cls-28{fill:#9c9ca1;}</style><linearGradient id="linear-gradient" x1="1007.37" y1="117.45" x2="1007.37" y2="467.01" gradientTransform="translate(1665.66 708.27) rotate(180)" gradientUnits="userSpaceOnUse"><stop offset="0" stop-color="gray" stop-opacity="0.25"/><stop offset="0.54" stop-color="gray" stop-opacity="0.12"/><stop offset="1" stop-color="gray" stop-opacity="0.1"/></linearGradient></defs><title>alternative</title><path class="cls-1" d="M460.12,223.61c0,58-28.4,101.19-79.6,126,58,23.6,90.8,68,90.8,125.6,0,113.2-107.6,166.8-222,166.8-86.39,0-156.39-30-201.59-82.8l81.6-96c30.8,31.2,68.8,48,111.59,48,42.4,0,77.2-16,77.2-49.6,0-32.4-39.6-48.8-87.2-48.8H169.73v-128h62.79c43.2,0,76-17.2,76-47.59,0-30-26.8-45.2-67.6-45.2-51.59,0-88,23.2-113.19,50.4l-79.2-97.6c46-48.4,106-83.6,198-83.6C371.32,61.21,460.12,125.61,460.12,223.61Z" transform="translate(-47.73 -61.21)"/><ellipse class="cls-2" cx="470.84" cy="528.62" rx="91.41" ry="10.12"/><ellipse class="cls-2" cx="380.26" cy="580.11" rx="24.21" ry="2.68"/><ellipse class="cls-2" cx="615.46" cy="595.51" rx="24.21" ry="2.68"/><ellipse class="cls-2" cx="770.86" cy="536.71" rx="24.21" ry="2.68"/><ellipse class="cls-2" cx="185.26" cy="563.52" rx="91.41" ry="20.9"/><path class="cls-2" d="M175,305.08h64.35v87.73H179.73c-.15.91-.31,1.81-.48,2.71h60.13v70.74l-.3-.11c-1.71-.7-3.39-1.4-5.06-2.14l-1.08-.5q-2.56-1.18-5.06-2.54c-.59-.31-1.18-.63-1.76-1a105.14,105.14,0,0,1-25.32-19.72c-.22-.21-.42-.43-.62-.64-1-1.11-2-2.25-3-3.39l-1.09-1.3c-1.15-1.4-2.27-2.86-3.34-4.33-.17-.22-.32-.44-.48-.65a93.5,93.5,0,0,1-10.91-19.72c-.09-.21-.17-.44-.25-.65-.88-2.22-1.67-4.47-2.36-6.77-.28-.95-.57-1.92-.81-2.89-.09-.29-.16-.58-.24-.86-3.57-14-4-28.66-4-43.18v-5.08q0-8.81.16-17.67c0-1.53.07-3.05.1-4.59q.14-5.83.38-11.68c0-1.08.09-2.16.15-3.23,0-.63.05-1.25.1-1.86C174.74,309.56,174.87,307.32,175,305.08Z" transform="translate(-47.73 -61.21)"/><path class="cls-2" d="M239.38,207.41h-35.3a266.86,266.86,0,0,1,18.78-25.85c5.24-6.44,10.76-12.73,16.52-18.77Z" transform="translate(-47.73 -61.21)"/><path class="cls-2" d="M239.38,210.12v92.25H175.2a7.59,7.59,0,0,1,.07-.81c.06-.7.11-1.45.18-2.18s.14-1.7.22-2.56.17-1.85.27-2.76.18-1.85.29-2.8.2-1.84.31-2.75.22-1.84.34-2.75l.3-2.29c.15-1.07.3-2.14.46-3.21a4,4,0,0,1,.07-.48,220.33,220.33,0,0,1,4.73-23.15,170.15,170.15,0,0,1,8-23.47,173.84,173.84,0,0,1,12-23.07Z" transform="translate(-47.73 -61.21)"/><path class="cls-2" d="M254.75,305.08v87.73H392.2V305.08Zm0,90.44V470.9c.78.16,1.56.32,2.34.45,1.05.21,2.1.39,3.15.55.21,0,.42.06.63.08l1.26.19c1.06.14,2.1.26,3.19.36l1.51.13,1.23.09h0l2,.12c.4,0,.81,0,1.22,0h4.49c.55,0,1.1,0,1.64,0h0a8.62,8.62,0,0,0,1.13-.05h.32a5.86,5.86,0,0,0,.94-.05H280l2.1-.16,2.1-.22,1.44-.18a126.26,126.26,0,0,0,17.41-3.7c12.82-3.58,25.34-8.58,38.18-12.24,16.67-4.77,35-7.07,51-1.34V395.52ZM392.2,207.41V90.62a176.39,176.39,0,0,0-44.66,5.23c-34.81,8.75-66.07,27.72-92.81,51.94v59.62h6.9v2.71h-6.9v92.25H392.2V210.12H290v-2.71ZM568.8,168a57,57,0,0,1-24.92-7.25c-14.8-8.05-26.65-20.48-39.85-31-27.44-21.86-61.51-35-96.43-38.32v116H603.82l.48-.52Zm17.88-3.2,19,20.8V159.31c-6.37.79-11.92,2.68-18.95,5.45Zm19,324.8v-94H565.23c-.1-.4-.21-.8-.34-1.21.12.41.22.81.34,1.21H407.6v68c1.5,1.12,3,2.29,4.44,3.47h0c1.58,1.29,3.14,2.6,4.71,3.92l1.57,1.3,2.29,1.87q2.28,1.85,4.61,3.65c.77.61,1.55,1.21,2.33,1.8a319,319,0,0,0,39.09,25.57q4.58,2.55,9.25,4.95c2.07,1.06,4.16,2.11,6.25,3.13q4.73,2.31,9.51,4.46h0a349.08,349.08,0,0,0,92.61,27q10.65,1.57,21.38,2.47V489.56h0Zm-198-279.44v92.25h198V210.12Zm0,95v87.73h198V305.08ZM621,159.19v29.34L645.22,162Q633.19,160,621,159.19Zm0,145.89v87.73H813.66V305.08ZM813,496.53l.7-101H621v152.6a345.06,345.06,0,0,0,37.23-.45h.22q8.85-.55,17.67-1.62h.13a325.39,325.39,0,0,0,90.82-24.23m83.72-202.26q-1.09-2.56-2.24-5.08c-1.4-3.15-3-6.25-4.51-9.33H829v87.66h38c0-24.81-6.31-50.21-16.2-73.31Zm-21.78,76v86.82A124.29,124.29,0,0,0,855.29,447c7.83-16.16,11.4-33.66,11.71-51.48Zm0-116v22.86h13.62A248.13,248.13,0,0,0,829,279.52ZM698.39,176.4c-1-.38-2-.77-3-1.14a273.12,273.12,0,0,0-32.54-9.8l-37,40.6h0l-.7.78.47.52H757.33A281.15,281.15,0,0,0,698.39,176.4Zm62.82,33.72H623.73L621,212.6v89.77H813.64v-43.5a274.32,274.32,0,0,0-52.43-48.75Z" transform="translate(-47.73 -61.21)"/><path class="cls-2" d="M239.38,256.66v45.71H175.2a7.59,7.59,0,0,1,.07-.81c.06-.7.11-1.45.18-2.18s.14-1.7.22-2.56.17-1.85.27-2.76.18-1.85.29-2.8.2-1.84.31-2.75.22-1.84.34-2.75l.3-2.29c.15-1.07.3-2.14.46-3.21a4,4,0,0,1,.07-.48,220.33,220.33,0,0,1,4.73-23.15Z" transform="translate(-47.73 -61.21)"/><path class="cls-2" d="M175,305.08h64.35v87.73H179.73c-.15.91-.31,1.81-.48,2.71h60.13v70.74l-.3-.11c-1.71-.7-3.39-1.4-5.06-2.14l-1.08-.5q-2.56-1.18-5.06-2.54c-.59-.31-1.18-.63-1.76-1a105.14,105.14,0,0,1-25.32-19.72c-.22-.21-.42-.43-.62-.64-1-1.11-2-2.25-3-3.39l-1.09-1.3c-1.15-1.4-2.27-2.86-3.34-4.33-.17-.22-.32-.44-.48-.65a93.5,93.5,0,0,1-10.91-19.72c-.09-.21-.17-.44-.25-.65-.88-2.22-1.67-4.47-2.36-6.77-.28-.95-.57-1.92-.81-2.89-.09-.29-.16-.58-.24-.86-3.57-14-4-28.66-4-43.18v-5.08q0-8.81.16-17.67c0-1.53.07-3.05.1-4.59q.14-5.83.38-11.68c0-1.08.09-2.16.15-3.23,0-.63.05-1.25.1-1.86C174.74,309.56,174.87,307.32,175,305.08Z" transform="translate(-47.73 -61.21)"/><polygon class="cls-2" points="255.41 162.12 255.41 241.16 207.02 241.16 207.02 162.12 213.91 162.12 213.91 135.36 242.24 135.36 242.24 162.12 255.41 162.12"/><rect class="cls-2" x="207.03" y="243.87" width="48.39" height="87.73"/><path class="cls-2" d="M254.75,395.52h48.39v73a126.26,126.26,0,0,1-17.41,3.7l-1.44.18-2.1.21-2.1.17h-.23c-.3,0-.61,0-.93,0h-.32c-.38,0-.76.05-1.14.05h0c-.54,0-1.08,0-1.63.05h-4.49a10.8,10.8,0,0,1-1.23-.05c-.66,0-1.32-.06-2-.11h0l-1.22-.09-1.52-.13c-1.06-.1-2.1-.23-3.18-.37-.42-.05-.85-.11-1.27-.18a4.2,4.2,0,0,1-.62-.08c-1.05-.16-2.1-.35-3.15-.55-.79-.13-1.56-.29-2.35-.45Z" transform="translate(-47.73 -61.21)"/><rect class="cls-2" x="518.02" y="152.79" width="39.91" height="88.38"/><polygon class="cls-2" points="557.93 243.87 557.93 331.61 359.87 331.61 359.87 293.77 465.36 293.77 465.36 316.09 518.02 316.09 518.02 243.87 557.93 243.87"/><path class="cls-2" d="M606.29,489.59h-.63v57.55q-10.74-.92-21.38-2.48a349.28,349.28,0,0,1-92.63-27q-12.76-5.76-25-12.55a319,319,0,0,1-39.09-25.56q-4.67-3.57-9.22-7.31L412,467q-2.17-1.77-4.44-3.5v-68H565.23c-.12-.4-.22-.8-.33-1.21.12.41.23.81.33,1.21h40.43v94Z" transform="translate(-47.73 -61.21)"/><path class="cls-2" d="M709.72,207.41h-26V199.3h11.65v-24c1,.37,2,.76,3,1.14v22.9h11.33Z" transform="translate(-47.73 -61.21)"/><path class="cls-2" d="M772.38,302.37H621V214h6.72v65.32H658.4V240.66h25.33V210.12h26v30.54h25.33v38.66h37.33Z" transform="translate(-47.73 -61.21)"/><path class="cls-2" d="M621,305.08v87.73H772.38V305.08Zm192.43,191,.21-69.44h-41.3V395.52H621v152.6a345.06,345.06,0,0,0,37.23-.45h.22q8.85-.55,17.67-1.62h.13a325.39,325.39,0,0,0,90.82-24.23" transform="translate(-47.73 -61.21)"/><path class="cls-2" d="M831.7,395.52H867c-.31,17.82-3.89,35.32-11.72,51.48A124.07,124.07,0,0,1,829,482.41V426.62h2.66Z" transform="translate(-47.73 -61.21)"/><path class="cls-2" d="M867,392.81H831.7V319.5h19.12C860.71,342.6,867,368,867,392.81Z" transform="translate(-47.73 -61.21)"/><rect class="cls-2" x="536.55" y="177.35" width="21.38" height="27.71"/><rect class="cls-2" x="536.55" y="234.79" width="21.38" height="6.38"/><rect class="cls-2" x="536.55" y="243.87" width="21.38" height="18.61"/><rect class="cls-2" x="536.55" y="292.22" width="21.38" height="27.71"/><rect class="cls-2" x="536.55" y="349.65" width="21.38" height="27.71"/><path class="cls-2" d="M605.66,489.55l.63,0h-.63V496H584.28V468.29h21.38Z" transform="translate(-47.73 -61.21)"/><path class="cls-2" d="M605.66,525.71v21.4q-10.74-.9-21.38-2.47v-18.9Z" transform="translate(-47.73 -61.21)"/><rect class="cls-2" x="359.87" y="329.57" width="91.62" height="2.04"/><rect class="cls-2" x="359.87" y="334.31" width="91.62" height="7.8"/><rect class="cls-2" x="359.87" y="367.68" width="91.62" height="12.54"/><path class="cls-2" d="M499.21,467v12.54H427.55q-4.67-3.57-9.22-7.32c-2.1-1.73-4.2-3.5-6.3-5.22Z" transform="translate(-47.73 -61.21)"/><path class="cls-2" d="M499.21,505.11v12.56h-7.56q-12.76-5.76-25-12.56Z" transform="translate(-47.73 -61.21)"/><rect class="cls-2" x="610.53" y="252.38" width="18.03" height="18.03"/><rect class="cls-2" x="220.02" y="168.34" width="18.03" height="18.03"/><rect class="cls-2" x="220.02" y="210.23" width="18.03" height="18.03"/><rect class="cls-2" x="220.02" y="252.13" width="18.03" height="18.03"/><rect class="cls-2" x="220.02" y="294.02" width="18.03" height="18.03"/><rect class="cls-2" x="220.02" y="335.92" width="18.03" height="18.03"/><rect class="cls-2" x="220.02" y="377.81" width="18.03" height="18.03"/><rect class="cls-2" x="679.38" y="252.38" width="18.03" height="18.03"/><rect class="cls-2" x="610.53" y="296.86" width="18.03" height="18.03"/><rect class="cls-2" x="679.38" y="296.86" width="18.03" height="18.03"/><rect class="cls-2" x="610.53" y="341.35" width="18.03" height="18.03"/><rect class="cls-2" x="679.38" y="341.35" width="18.03" height="18.03"/><rect class="cls-2" x="610.53" y="385.83" width="18.03" height="18.03"/><rect class="cls-2" x="679.38" y="385.83" width="18.03" height="18.03"/><rect class="cls-2" x="610.53" y="430.32" width="18.03" height="18.03"/><rect class="cls-2" x="679.38" y="430.32" width="18.03" height="18.03"/><polygon class="cls-2" points="610.53 486.43 610.53 474.8 628.56 474.8 628.56 484.78 610.53 486.43"/><path class="cls-2" d="M177.66,279.8v10.32h61.72V279.8Zm6.14,9.67h-5.06v-9h5.06Zm6.15,0h-5.06v-9H190Zm6.13,0H191v-9h5.06Zm6.15,0h-5.06v-9h5.06Zm6.14,0h-5.06v-9h5.06Zm6.14,0h-5.06v-9h5.06Zm6.15,0H215.6v-9h5.06Zm6.14,0h-5.06v-9h5.06Zm6.14,0h-5.06v-9h5.06Zm6.14,0H234v-9h5.06Z" transform="translate(-47.73 -61.21)"/><path class="cls-2" d="M177.66,309.85v10.32h61.72V309.85Zm6.14,9.67h-5.06v-9h5.06Zm6.15,0h-5.06v-9H190Zm6.13,0H191v-9h5.06Zm6.15,0h-5.06v-9h5.06Zm6.14,0h-5.06v-9h5.06Zm6.14,0h-5.06v-9h5.06Zm6.15,0H215.6v-9h5.06Zm6.14,0h-5.06v-9h5.06Zm6.14,0h-5.06v-9h5.06Zm6.14,0H234v-9h5.06Z" transform="translate(-47.73 -61.21)"/><path class="cls-2" d="M177.66,339.89V350.2h61.72V339.89Zm6.14,9.66h-5.06v-9h5.06Zm6.15,0h-5.06v-9H190Zm6.13,0H191v-9h5.06Zm6.15,0h-5.06v-9h5.06Zm6.14,0h-5.06v-9h5.06Zm6.14,0h-5.06v-9h5.06Zm6.15,0H215.6v-9h5.06Zm6.14,0h-5.06v-9h5.06Zm6.14,0h-5.06v-9h5.06Zm6.14,0H234v-9h5.06Z" transform="translate(-47.73 -61.21)"/><path class="cls-2" d="M177.66,369.92v10.31h61.72V369.92Zm6.14,9.66h-5.06v-9h5.06Zm6.15,0h-5.06v-9H190Zm6.13,0H191v-9h5.06Zm6.15,0h-5.06v-9h5.06Zm6.14,0h-5.06v-9h5.06Zm6.14,0h-5.06v-9h5.06Zm6.15,0H215.6v-9h5.06Zm6.14,0h-5.06v-9h5.06Zm6.14,0h-5.06v-9h5.06Zm6.14,0H234v-9h5.06Z" transform="translate(-47.73 -61.21)"/><path class="cls-2" d="M177.92,400c.25,1,.53,1.94.82,2.89V400.6h5.06v9h-2.7c.08.21.16.44.25.65h58V400Zm12,9.66h-5.06v-9H190Zm6.13,0H191v-9h5.06Zm6.15,0h-5.06v-9h5.06Zm6.14,0h-5.06v-9h5.06Zm6.14,0h-5.06v-9h5.06Zm6.15,0H215.6v-9h5.06Zm6.14,0h-5.06v-9h5.06Zm6.14,0h-5.06v-9h5.06Zm6.14,0H234v-9h5.06Z" transform="translate(-47.73 -61.21)"/><path class="cls-2" d="M192.25,430l.48.65h3.35V435l1.09,1.3v-5.6h5.06v9h-2c.2.21.4.43.62.64h38.58V430Zm16.1,9.67h-5.06v-9h5.06Zm6.15,0h-5.06v-9h5.06Zm6.14,0h-5.06v-9h5.06Zm6.14,0h-5.06v-9h5.06Zm6.14,0h-5.06v-9h5.06Zm6.14,0H234v-9h5.06Z" transform="translate(-47.73 -61.21)"/><path class="cls-2" d="M226.11,460q.87.5,1.77,1v-.31h5.06v2.85l1.07.5v-3.35h5.07v5.49a2.09,2.09,0,0,0,.3.11V460Z" transform="translate(-47.73 -61.21)"/><path class="cls-2" d="M644.72,302.37ZM605.65,489.55Zm-40.76-95.2c.12.4.22.81.34,1.21h0c-.13-.44-.21-.84-.34-1.25Zm79.8-91.94Zm-383.05-95v2.71H290v-2.71Zm344,282.1Zm-40.76-95.2c.12.41.22.81.34,1.21h0c-.13-.4-.21-.8-.34-1.21Zm79.8-91.94Zm-39,187.18Zm-40.76-95.2c.12.4.22.81.34,1.21h0c-.13-.44-.21-.84-.34-1.25Z" transform="translate(-47.73 -61.21)"/><polygon class="cls-3" points="90.7 307.02 85.91 307.27 90.7 338.02 102.38 370.45 105.82 361.96 556.44 327.43 556.36 313.66 488.48 288.79 90.7 307.02"/><polygon class="cls-4" points="495.2 387.92 490.3 385.67 465.96 374.48 465.63 369.44 488.78 379.76 493.52 381.87 495.2 387.92"/><polygon class="cls-4" points="158.5 404.38 157.15 411.78 153.6 406.99 148.38 399.93 144.71 394.98 146.73 390.94 149.75 394.39 151.46 396.35 154.41 399.72 154.77 400.13 158.5 404.38"/><path class="cls-4" d="M529.32,529c-.56,3.29-2.22,2.86-3.73,1.64a9.09,9.09,0,0,1-3.19-5.89l-13-96.43-.47-3.5-.56-4.17-.48-3.45-.94-7-.6-4.4,6.71-2.35.84,6.3,2,15.4.45,3.44.49,3.66.09.7.48,3.5.14,1.08,11.77,88.4A10.53,10.53,0,0,1,529.32,529Z" transform="translate(-47.73 -61.21)"/><polygon class="cls-5" points="495.2 387.92 490.3 385.67 489.05 380.78 488.78 379.76 493.52 381.87 495.2 387.92"/><path class="cls-4" d="M576.8,560.79c-.33,2.91-1.9,3.26-3.5,2.8a6.7,6.7,0,0,1-4.5-4.83L540.32,447.92,538.79,442l-8.56-33.33-1.09-4.2,5.72-6.73,2.72,10.47,39,149.65A7.87,7.87,0,0,1,576.8,560.79Z" transform="translate(-47.73 -61.21)"/><polygon class="cls-5" points="469.68 375.17 467.19 372.69 466.03 371.53 461.62 367.11 461.15 363.62 460.59 359.45 466.15 364.9 468.62 367.33 469.11 370.99 469.2 371.68 469.68 375.17"/><polygon class="cls-4" points="484.44 379.86 477.38 379.86 477.15 379.63 469.2 371.68 468.05 370.52 461.15 363.62 447.31 349.77 444.46 346.92 449.16 345.25 453.36 349.37 460.11 356 468.17 363.9 480.65 376.13 484.44 379.86"/><path class="cls-4" d="M203.2,423.92l-1.55,6.38-5.75,23.5-1.3,5.31-24.24,99.14a9.57,9.57,0,0,1-1.93,3.94c-2.33,2.8-3.79,1.47-4.62-.22a7.29,7.29,0,0,1-.45-5l31.1-126.26,1.68-6.84Z" transform="translate(-47.73 -61.21)"/><polygon class="cls-4" points="191.43 362.38 186.95 366.9 169.16 384.85 167.93 386.09 165.46 388.58 158.59 395.51 157.37 396.74 154.93 399.2 154.41 399.72 153.12 401.02 150.1 397.66 151.46 396.35 156.19 391.74 158.62 389.39 159.83 388.22 166.75 381.48 169.2 379.1 170.42 377.91 181.37 367.27 186.39 362.38 191.43 362.38"/><polygon class="cls-5" points="170.42 377.91 170.21 379.1 169.16 384.85 167.93 386.09 158.59 395.51 159.62 389.39 159.83 388.22 169.2 379.1 170.42 377.91"/><polygon class="cls-5" points="154.77 400.13 158.5 404.38 157.15 411.78 153.6 406.99 154.44 402.06 154.77 400.13"/><polygon class="cls-5" points="166.75 381.48 165.92 386.09 165.46 388.58 158.59 395.51 157.37 396.74 154.93 399.2 155.35 396.74 156.19 391.74 158.62 389.39 159.83 388.22 166.75 381.48"/><path class="cls-4" d="M220.34,421.58l-1.4,7.56-2,11.17-1.26,7L187.73,600.68c-2.55,6.3-4.42,4.9-5.52,2.64a10,10,0,0,1-.8-6L203,470.42l1.21-7.14.91-5.32,1.25-7.35,3.5-20.86.7-4.13Z" transform="translate(-47.73 -61.21)"/><polygon class="cls-3" points="85.91 307.27 102.71 340.54 556.36 313.66 488.48 288.79 85.91 307.27"/><polygon class="cls-4" points="85.91 307.27 85.24 334.49 102.38 370.45 102.71 340.54 85.91 307.27"/><polygon class="cls-5" points="148.42 362.72 155.47 362.72 153.92 369.08 146.73 369.55 148.42 362.72"/><polygon class="cls-5" points="162.86 364.4 172.61 360.37 171.23 367.94 162.16 368.53 162.86 364.4"/><polygon class="cls-5" points="186.39 362.38 191.43 362.38 186.95 366.9 181.37 367.27 186.39 362.38"/><polygon class="cls-5" points="449.16 345.25 453.36 349.37 447.31 349.77 444.46 346.92 449.16 345.25"/><polygon class="cls-5" points="465.29 342.22 466.13 348.53 459.17 348.99 458.57 344.57 465.29 342.22"/><polygon class="cls-5" points="489.86 346.97 482.5 347.45 481.41 343.23 487.13 336.5 489.86 346.97"/><polygon class="cls-4" points="556.36 313.66 557.03 340.54 102.38 370.45 102.71 340.54 556.36 313.66"/><polygon class="cls-5" points="109.43 346.25 213.94 341.55 214.28 360.02 110.11 364.39 109.43 346.25"/><polygon class="cls-6" points="108.42 345.24 212.94 340.54 213.27 359.02 109.1 363.39 108.42 345.24"/><polygon class="cls-5" points="221 340.87 457.22 327.1 456.88 344.57 220.33 359.69 221 340.87"/><polygon class="cls-6" points="219.99 339.87 456.22 326.09 455.88 343.56 219.32 358.68 219.99 339.87"/><polygon class="cls-5" points="461.26 326.43 551.32 320.71 551.99 337.85 462.27 343.9 461.26 326.43"/><polygon class="cls-6" points="460.25 325.42 550.31 319.7 550.98 336.84 461.26 342.89 460.25 325.42"/><rect class="cls-5" x="203.19" y="414.52" width="12.78" height="1.01" transform="translate(-58.59 -55.54) rotate(-1.51)"/><rect class="cls-4" x="203.19" y="413.51" width="12.78" height="1.01" transform="translate(-58.56 -55.54) rotate(-1.51)"/><rect class="cls-5" x="450.51" y="400.07" width="12.78" height="1.01" transform="translate(-58.12 -49.03) rotate(-1.51)"/><rect class="cls-4" x="450.51" y="399.06" width="12.78" height="1.01" transform="translate(-58.1 -49.03) rotate(-1.51)"/><rect class="cls-5" x="311.73" y="408.13" width="12.78" height="1.01" transform="translate(-58.39 -52.68) rotate(-1.51)"/><rect class="cls-4" x="311.73" y="407.12" width="12.78" height="1.01" transform="translate(-58.36 -52.68) rotate(-1.51)"/><rect class="cls-5" x="549.64" y="393.35" width="12.78" height="1.01" transform="translate(-57.91 -46.42) rotate(-1.51)"/><rect class="cls-4" x="549.64" y="392.34" width="12.78" height="1.01" transform="translate(-57.89 -46.42) rotate(-1.51)"/><polygon class="cls-4" points="662.54 459.15 650.44 458.49 649.63 423.75 649.43 415.47 662.2 413.13 662.28 423.79 662.54 459.15"/><polygon class="cls-4" points="653.13 453.11 590.96 491.75 589.62 503.51 596.34 503.85 596.34 495.45 637 472.6 587.94 533.42 587.94 542.83 596 542.83 595.33 532.41 652.12 467.89 659.18 468.57 718.99 536.45 720.34 547.87 728.4 548.21 727.06 536.45 679.67 477.3 711.26 499.14 711.94 508.55 718.32 508.89 717.65 497.46 657.5 451.1 653.13 453.11"/><path class="cls-7" d="M622.76,448.21a110.59,110.59,0,0,0,14.7-23.85c4.28-9.46,9-20.39,9.32-23.62.7-6.05,17.81-18.15,36.63-18.82,12.27-.44,31.39-10,43.22-16.63a87.87,87.87,0,0,1,36.26-11.2c13.83-1,26.85,1.67,20.3,17.73l-88,106.54s-75,13.22-79.65-8a17.42,17.42,0,0,0-1.07-3.12C613.53,465.19,613.29,460,622.76,448.21Z" transform="translate(-47.73 -61.21)"/><path class="cls-8" d="M629.37,450.33a114.73,114.73,0,0,0,14.79-24.08c4-8.85,8.22-18.77,8.56-21.77.64-5.78,17-17.34,35-18,11.73-.42,30-9.56,41.34-15.88a84.14,84.14,0,0,1,34.7-10.69c13.24-1,25.7,1.6,19.45,16.94l-69.8,102.2s-86.1,12.21-90.65-8a21.43,21.43,0,0,0-1.08-3.13C620.93,466,620.82,461.05,629.37,450.33Z" transform="translate(-47.73 -61.21)"/><path class="cls-5" d="M710,485c-4,0-8.31,0-12.66-.05l-.19-8.27,12.77-2.35Z" transform="translate(-47.73 -61.21)"/><g class="cls-9"><polygon points="711.26 497.13 679.67 475.29 683.3 479.81 711.26 499.14 711.94 508.55 718.32 508.89 718.2 506.86 711.94 506.54 711.26 497.13"/><polygon points="596.34 493.43 596.34 495.45 634.03 474.27 637 470.58 596.34 493.43"/><polygon points="587.94 540.81 587.94 542.83 596 542.83 595.88 540.81 587.94 540.81"/><polygon points="596.34 501.83 589.85 501.51 589.62 503.51 596.34 503.85 596.34 501.83"/><polygon points="720.34 545.85 718.99 534.43 659.18 466.55 652.12 465.88 595.33 530.4 595.46 532.27 652.12 467.89 659.18 468.57 718.99 536.45 720.34 547.87 728.4 548.21 728.17 546.18 720.34 545.85"/></g><path class="cls-10" d="M483.37,531.8c11,8.79,17.92.65,17.92.65s18.6-13.25,19-15.11a18,18,0,0,1,1.06-3.29s3.06.53,3.06-.91,3.19-2,5-3.15S543,498.57,543,498.57s.39-2.23,5.76-3.93c3.77-1.2,11.8-8.7,16.24-13.05.27-1.75,1.17-7.1,2.17-8.74a2.39,2.39,0,0,1,1.74-.76l.44-1.63a109.86,109.86,0,0,0,2.86-15.06c1.19-10.5,10.1-13.78,12.35-13.78s20.19-7.6,20.19-7.6l29.08-11.81s17.93-5.64,17.27-9.45a3.33,3.33,0,0,1,0-1.22c.36-1.79,1.92-3.88,3.5-5.6a39,39,0,0,1,3.5-3.42l9.66-6,.74-.46c-3.26-5.21-10.4-12.06-10.4-12.06s2.1-3.93,4.51-3.93c1.6,0,10.5-2.8,16.26-4.66-.6-6.37-1.77-25.79,5.53-29.72L693.2,341s-.31.7-.76,1.75l1.29-.7s-.15.32-.39.88q.39-.06.81-.09c.79-2.8,1.27-5.05,1-5.78-.58-1.83-.7-14.31,4.56-20.73l-4.2-12.2a2.4,2.4,0,0,1,1.51-3h0L708,297.42a2.34,2.34,0,0,1,1-.1,2.45,2.45,0,0,1,2.62,1.6l3.08,9a37.79,37.79,0,0,1,3.94-.7c.92-1.65,2-3.24,1.86-5.08a8.82,8.82,0,0,0-1.11-3,34.58,34.58,0,0,1-3-8.69,3.82,3.82,0,0,1,0-1.84c.45-1.47,2.38-2,3.21-3.3a4.55,4.55,0,0,0,.13-3.69c-.53-1.95-1.34-3.81-1.78-5.77a8.43,8.43,0,0,1,.49-5.88,9.29,9.29,0,0,1,3.5-3.29c.37-1.73,1.62-3.37,1.22-5.09-.23-1-1-1.89-1.21-2.94-.26-1.9,1.63-3.34,3.3-4.32L740,245.58c1.32-.77,2.68-1.57,4.09-2.22,2.66-1.4,5.48-2.39,8.4-2,3.74.47,6.84,3.15,9.15,6.09s4.12,6.3,6.71,9c4.73,5,11.63,7.35,16.8,11.9a11.49,11.49,0,0,1,3.34,4.4c2.15,5.72-3.16,11.62-3.12,17.72,0,5.35,4.13,9.8,8.4,13.1,1.81,1.4,3.85,2.95,4.2,5.19.28,1.74-.53,3.43-1,5.11a16.78,16.78,0,0,0,.52,10.57c3.35,2.21,5.74,3.71,5.74,3.71S817,339.68,824.73,342.3a1.5,1.5,0,0,1,.78.47c2.1,1.3,8,5,9,6.87,1.33,2.37,10.36,11.29,4.51,14.44a32.55,32.55,0,0,1-10.89,3.67s-13.54,4.2-18.86,6.83a58.13,58.13,0,0,1-10,3.5,20.38,20.38,0,0,0,4,10.22h.15a17.1,17.1,0,0,0,2.23,2.43l-1.47.23.1.09c-3.85.62-7.81,1.22-11.6.36s-7.43-3.6-8.12-7.39c-.75-4.08,1.8-9-1-12.07a6,6,0,0,0-3.5-1.79c-1.84,2.43-15.36,19.64-27.64,15.87,2.8,7.46,7.78,20.48,8.73,20.85,1.33.52-13.55,5.25-13.55,5.25s-2.92-.48-7.12-.88c0,.51.06,1,.09,1.58.29,5.16.48,12.08-.41,14a9.77,9.77,0,0,0-.53,1.49,25.87,25.87,0,0,1-8,12.88l-1.29,1.08a17.27,17.27,0,0,0-4.2,5.51,21.5,21.5,0,0,1-12.6,10.89,28,28,0,0,1-13.11.79s-29.86,2.89-46.32,4.2-34.4,8.92-34.4,8.92A76,76,0,0,0,605.62,486c-.44.57-.86,1.15-1.28,1.73l2.56,4.51s-12.15,8.85-20.3,15.48v1.19c.4,8.79-11.29,21.12-11.29,21.12s-3.59,5-5.45,7.49,3.19,4.06,3.19,4.06-8.4,2.36-5,11.15.92,14.57.92,14.57L564,590.82H553.75l2-16.27C552.16,574.28,542.6,589,542.6,589s-25-3.8-29.48-5.11-3.72-9.71,4.9-7.87a14.84,14.84,0,0,0,13.81-4.07s6.11-7.09,9.56-25.2a131.74,131.74,0,0,1,4.45-15.7c-4.74,7.2-7.37,17.75-8.4,18.33-1.47.78-19.79,21.52-19.79,21.52l-7.22-7.1,12.4-14.42s-11.29.12-15.94,3.27-10.77,1.58-10.77,1.58-14.08-11.15-17.5-15.35S472.34,523,483.37,531.8Z" transform="translate(-47.73 -61.21)"/><path class="cls-11" d="M689.81,344.62s6-1.84,5.75,1.3,3.13,6,3.13,6l-5.49,14.39-12.29-4.45,3.89-12.29Z" transform="translate(-47.73 -61.21)"/><path class="cls-12" d="M689.81,344.62s6-1.84,5.75,1.3,3.13,6,3.13,6l-5.49,14.39-12.29-4.45,3.89-12.29Z" transform="translate(-47.73 -61.21)"/><path class="cls-13" d="M721.35,267.32c-1.86,1.06-3.82,2.22-4.84,4.11a8.55,8.55,0,0,0-.49,5.86c.43,2,1.24,3.82,1.76,5.76a4.69,4.69,0,0,1-.13,3.68c-.81,1.31-2.71,1.82-3.17,3.3a3.91,3.91,0,0,0,0,1.83,34.92,34.92,0,0,0,2.91,8.66,8.88,8.88,0,0,1,1.1,3c.26,2.93-2.7,5.25-2.95,8.17a9.22,9.22,0,0,0,1.19,4.54,9.57,9.57,0,0,0,3,4.25c1.77,1.23,4.2,1.14,6.25.55s4-1.61,6.11-2.1c1.93-.48,4-.55,5.77-1.48,3-1.58,4.23-5.14,5.11-8.4.58-2.19,1.12-4.51.56-6.7a22.45,22.45,0,0,0-1.8-4,29,29,0,0,0-2.43-4.9c-1.07-1.46-2.51-2.57-2.94-4.26-.51-1.95.57-3.9,1.47-5.7a41.79,41.79,0,0,0,2-4.9,8.77,8.77,0,0,0,.59-4.24c-.52-3-3.57-4.74-6.46-5.53-2.1-.58-4.37-.84-6.45-1.61a10.1,10.1,0,0,0-2.75-1A6.32,6.32,0,0,0,721.35,267.32Z" transform="translate(-47.73 -61.21)"/><path class="cls-14" d="M568.4,475.69,592.66,479h.08s24.2-28.91,24.59-29l27.34-9.68L663,434.87l2.48-11.9-24.33-.92-8,1.18L604.51,435s-17.66,7.59-19.89,7.59-11,3.27-12.16,13.73a111,111,0,0,1-2.8,15C568.94,474.05,568.4,475.69,568.4,475.69Z" transform="translate(-47.73 -61.21)"/><path class="cls-15" d="M568.4,476l24.26,3.26h.08s24.2-28.91,24.59-29l27.34-9.68L663,435.12l2.48-11.9-24.33-.92-8,1.18-28.65,11.78s-17.66,7.59-19.89,7.59-11,3.27-12.16,13.73a111,111,0,0,1-2.8,15C568.94,474.3,568.4,476,568.4,476Z" transform="translate(-47.73 -61.21)"/><path class="cls-5" d="M641.53,422.71l-1.18,2s8.4,4.51,7.7,6.24L660.2,426Z" transform="translate(-47.73 -61.21)"/><path class="cls-5" d="M568.4,475.69,592.66,479c1.57-5.6,2.8-9.68,2.8-9.68l-16.74,2.89s-5.79-1.13-9.1-.82C568.94,474.05,568.4,475.69,568.4,475.69Z" transform="translate(-47.73 -61.21)"/><path class="cls-16" d="M578.74,473.73s-10.08-2-11.25,0-2.23,9.29-2.23,9.29-19.76,46.31-23.15,64.36-9.42,25.12-9.42,25.12a14.57,14.57,0,0,1-13.61,4.06c-8.5-1.84-9.28,6.53-4.84,7.84s29,5.11,29,5.11,9.41-14.65,13-14.4l-2,16.23h10.07l4.84-23.42s2.35-5.76-.92-14.52,5-11.12,5-11.12-5-1.57-3.14-4.06,5.37-7.45,5.37-7.45S587,518.5,586.59,509.71s8.89-38.85,8.89-38.85Z" transform="translate(-47.73 -61.21)"/><path class="cls-5" d="M578.74,473.73s-10.08-2-11.25,0-2.23,9.29-2.23,9.29-19.76,46.31-23.15,64.36-9.42,25.12-9.42,25.12a14.57,14.57,0,0,1-13.61,4.06c-8.5-1.84-9.28,6.53-4.84,7.84s29,5.11,29,5.11,9.41-14.65,13-14.4l-2,16.23h10.07l4.84-23.42s2.35-5.76-.92-14.52,5-11.12,5-11.12-5-1.57-3.14-4.06,5.37-7.45,5.37-7.45S587,518.5,586.59,509.71s8.89-38.85,8.89-38.85Z" transform="translate(-47.73 -61.21)"/><path class="cls-5" d="M558.46,545.16s-3.5,23.68-8.11,25.38S558.46,545.16,558.46,545.16Z" transform="translate(-47.73 -61.21)"/><path class="cls-5" d="M568,526.45c-.39.39-11.25,14.53-15.57,14.65S568,526.45,568,526.45Z" transform="translate(-47.73 -61.21)"/><path class="cls-14" d="M585.15,469.81s11.9,31,17.27,21.45a38,38,0,0,1,2.92-4.39,75.37,75.37,0,0,1,13.95-13.4s17.66-7.58,33.88-8.89,45.63-4.18,45.63-4.18l3.82-3.28C703,435.93,660.23,426,660.23,426s-32.7,13.48-45,17.4-14.39,9.8-14.39,9.8l-12.27,13Z" transform="translate(-47.73 -61.21)"/><path class="cls-5" d="M585.15,469.81s11.9,31,17.27,21.45a38,38,0,0,1,2.92-4.39l-2-3.5a58.44,58.44,0,0,0-10.5-13.72,26.17,26.17,0,0,0-4.28-3.5Z" transform="translate(-47.73 -61.21)"/><path class="cls-16" d="M599.15,479.75s-11-13.47-14-12-16.75,11.64-16.75,11.64-13.76,14.4-19,16.1-5.68,3.93-5.68,3.93-11.48,10.19-13.34,11.38-5,1.7-5,3.13-3,.92-3,.92a17.07,17.07,0,0,0-1.05,3.27c-.39,1.83-18.71,15-18.71,15s-6.8,8.11-17.66-.62-8.11,2.88-4.71,7.06,17.27,15.31,17.27,15.31,6,1.57,10.6-1.57,15.7-3.3,15.7-3.3l-12.21,14.39,7.11,7.06s18-20.67,19.49-21.45,5.76-20.3,14.39-24.2c0,0,24.6-9.42,32.58-16.1s21.45-16.62,21.45-16.62Z" transform="translate(-47.73 -61.21)"/><path class="cls-5" d="M517.5,526.45c.78-.39,18.2,2.75,14.53,4.65S517.5,526.45,517.5,526.45Z" transform="translate(-47.73 -61.21)"/><path class="cls-5" d="M536.35,518.08c.79.52,10.07,2.75,7.7,5.23S536.35,518.08,536.35,518.08Z" transform="translate(-47.73 -61.21)"/><path class="cls-6" d="M633.16,423.24s6.3.13,26.55,4.31S698.8,460.4,698.8,460.4a27.28,27.28,0,0,0,12.91-.79,21.25,21.25,0,0,0,12.42-10.86,17.27,17.27,0,0,1,4.13-5.49l1.27-1.08a25.76,25.76,0,0,0,7.88-12.88,9,9,0,0,1,.53-1.48c.87-1.9.7-8.81.4-13.94-.18-3.34-.4-5.93-.4-5.93l-67.5-12.7-3.84,2.39-9.51,6a38.53,38.53,0,0,0-3.47,3.41c-1.54,1.71-3.07,3.8-3.43,5.6a3.4,3.4,0,0,0,0,1.23C650.82,417.61,633.16,423.24,633.16,423.24Z" transform="translate(-47.73 -61.21)"/><path class="cls-14" d="M734.54,295.2s6.54,9.16-1.57,25.9,34.3-9.68,34.3-9.68-16-24.08-13.6-28.52S734.54,295.2,734.54,295.2Z" transform="translate(-47.73 -61.21)"/><circle class="cls-5" cx="692.83" cy="223.23" r="20.67"/><circle class="cls-14" cx="692.83" cy="221.66" r="20.67"/><path class="cls-5" d="M736.89,309.47s-6.79,10.81,14,4.8-16.35,41.07-16.35,41.07l-14.65-15.17,5.75-26.69Z" transform="translate(-47.73 -61.21)"/><path class="cls-17" d="M736.89,310.51s-6.79,10.82,14,4.8-16.35,41.08-16.35,41.08l-14.65-15.17,5.75-26.69Z" transform="translate(-47.73 -61.21)"/><path class="cls-5" d="M666.6,397.64a21.44,21.44,0,0,1,1.74,3c2.35,5.24,8.1,3.93,8.1,3.93,9.42,5.76,34.3,4.2,34.3,4.2s-5.49,9.16,5,6c6.43-1.92,16.1-1.48,22.64-.86-.17-3.34-.4-5.93-.4-5.93l-67.5-12.69Z" transform="translate(-47.73 -61.21)"/><path class="cls-12" d="M657.1,385.17S666,393.8,668.35,399s8.11,3.92,8.11,3.92c9.42,5.76,34.3,4.2,34.3,4.2s-5.5,9.15,5,6,29.56,0,29.56,0,14.65-4.71,13.35-5.23-10.5-25.9-10.5-25.9a10.72,10.72,0,0,1-.7-4.35,8.87,8.87,0,0,1,2.1-5.51,12.77,12.77,0,0,1,4.9-3.5c10.2-4.45,28.25-15.7,28.25-15.7s46-6.8,38.46-9.42S800,329.44,800,329.44s-21.46-13.61-25.64-19.37-12.82-7.58-12.82-7.58l-12,8.89-21.78,19.36h0l-1-11.74s-2.35-7.86-5.49-9.95-14.82,2.05-15.65,2.34h0s-12,34.8-11.51,41.08c.13,1.65-.6,4-1.75,6.55-.74,1.64-1.66,3.36-2.62,5A129.93,129.93,0,0,1,682.48,375s-18.58,6.3-20.93,6.3S657.1,385.17,657.1,385.17Z" transform="translate(-47.73 -61.21)"/><polygon class="cls-5" points="680.01 271.76 682.37 282.1 705 269.8 702.84 251.22 681.06 270.59 681.06 270.58 680.01 271.76"/><polygon class="cls-12" points="678.97 270.72 681.32 281.05 703.96 268.76 701.79 250.18 680.01 269.54 680.01 269.53 678.97 270.72"/><path class="cls-5" d="M689.62,365.11c8.57,1.78,46.9,9.8,57.8,13.62a8.88,8.88,0,0,1,2.1-5.52c-10.82-5-44.21-19.21-57.28-13.15C691.5,361.7,690.58,363.43,689.62,365.11Z" transform="translate(-47.73 -61.21)"/><path class="cls-5" d="M689.62,363c8.57,1.78,46.9,9.8,57.8,13.62a8.93,8.93,0,0,1,2.1-5.53c-10.82-5-44.21-19.21-57.28-13.14C691.5,359.6,690.58,361.33,689.62,363Z" transform="translate(-47.73 -61.21)"/><path class="cls-12" d="M689.62,364.06c8.57,1.79,46.9,9.84,57.8,13.62a8.9,8.9,0,0,1,2.1-5.52c-10.85-5-44.21-19.21-57.28-13.14C691.5,360.66,690.58,362.4,689.62,364.06Z" transform="translate(-47.73 -61.21)"/><circle class="cls-18" cx="650.97" cy="307.74" r="2.68"/><circle class="cls-18" cx="641.89" cy="326.51" r="2.68"/><circle class="cls-18" cx="672.16" cy="313.1" r="2.68"/><circle class="cls-18" cx="661.31" cy="332.73" r="2.68"/><circle class="cls-18" cx="657.82" cy="287.07" r="2.68"/><path class="cls-5" d="M736.64,377s11,27,8.4,30.68S736.64,377,736.64,377Z" transform="translate(-47.73 -61.21)"/><path class="cls-5" d="M727.35,377c1.54-.38-6.54,7.26-7.46,14.26s-6.54,12.89-6.54,12.89L719,390.4S725.52,377.45,727.35,377Z" transform="translate(-47.73 -61.21)"/><path class="cls-5" d="M692.3,374.3c-.79,1.17-11.66,3.27-12.83,15.43Z" transform="translate(-47.73 -61.21)"/><path class="cls-5" d="M765.3,355c-1.31,1.18-16.1,11.12-21.32,11.31S765.3,355,765.3,355Z" transform="translate(-47.73 -61.21)"/><path class="cls-5" d="M741.87,360.45s-2.22,3.13-4.45,3.13S741.87,360.45,741.87,360.45Z" transform="translate(-47.73 -61.21)"/><path class="cls-5" d="M650.2,412.6c9.46.31,41.2,1.24,45.81-.09.45-.12-28-1.44-34.72-2.75a26,26,0,0,1-7.65-2.74C652.1,408.73,650.56,410.82,650.2,412.6Z" transform="translate(-47.73 -61.21)"/><path class="cls-5" d="M702.87,418.79s15.71,11.51,8.85,11.64S702.87,418.79,702.87,418.79Z" transform="translate(-47.73 -61.21)"/><path class="cls-13" d="M737,307.25c-.64,1.63-.12,1.89-.49,3.36a11.06,11.06,0,0,0-.3,4.13c.19,2-1,4.29-.06,6a4.94,4.94,0,0,1,.39.76,2.27,2.27,0,0,1-1,2.3,5.79,5.79,0,0,0-1.86,1.69c-1,1.86.89,4.51,0,6.44a3.63,3.63,0,0,1-1.32,1.43,16.74,16.74,0,0,1-4.2,2.22c-1-1.55.11-3.82-.75-5.46a7.56,7.56,0,0,0-1.77-1.8,9.89,9.89,0,0,1-2.52-5.39c-.36-2-.41-4.08-.81-6.08-.65-3.29-2.2-6.37-2.55-9.69a1.39,1.39,0,0,1,.11-.9,1.09,1.09,0,0,1,.89-.39c3.05-.26,6.38.55,9.31,0C732.82,305.35,734.61,304.72,737,307.25Z" transform="translate(-47.73 -61.21)"/><path class="cls-5" d="M705,312.42c.91,4.2,3.94,15.87,10.43,21.08,8,6.41,14,23,14,23l-1.83,4.32a13,13,0,0,0,3.92-1.84c1.83-1.31-4.32-27.21-4.32-27.21l-1-11.77s-2.35-7.85-5.5-9.94S705.86,312.12,705,312.42Z" transform="translate(-47.73 -61.21)"/><path class="cls-12" d="M705.55,311.37c.91,4.2,3.94,15.87,10.41,21.08,8,6.41,14,23,14,23l-1.83,4.31a13.3,13.3,0,0,0,3.93-1.83c1.83-1.31-4.32-27.21-4.32-27.21l-1-11.75s-2.35-7.86-5.49-9.95S706.38,311.08,705.55,311.37Z" transform="translate(-47.73 -61.21)"/><rect class="cls-19" x="698.81" y="299.72" width="16.1" height="34.02" rx="1.19" transform="translate(-112.05 183.08) rotate(-18.77)"/><rect class="cls-16" x="698.23" y="299.73" width="16.1" height="34.02" rx="1.19" transform="translate(-112.08 182.9) rotate(-18.77)"/><circle class="cls-20" cx="656.02" cy="248.94" r="2.53"/><path class="cls-14" d="M686.94,361.1V362l9.8-5,1-4.94,1.76-8.6s19.88-29.17,6.66-29.56-13.3,22-12.55,24.45c.56,1.79-3.1,12.69-5.22,18.74C687.54,359.47,686.94,361.1,686.94,361.1Z" transform="translate(-47.73 -61.21)"/><path class="cls-5" d="M678.29,379.67s-3.4-26.95,5.24-31.66l8.63-4.7s-7.07,15.83-4.2,16.41S699.21,353,699.21,353v17Z" transform="translate(-47.73 -61.21)"/><path class="cls-5" d="M686.94,361.1V362l9.8-5,1-4.94c-2.66,2.1-7.26,5.47-9.24,5.07l-.12,0C687.54,359.47,686.94,361.1,686.94,361.1Z" transform="translate(-47.73 -61.21)"/><path class="cls-12" d="M677.8,378.62S674.4,351.68,683,347l8.63-4.71s-7.07,15.83-4.2,16.42,11.25-6.74,11.25-6.74v17Z" transform="translate(-47.73 -61.21)"/><circle class="cls-18" cx="678.97" cy="293.09" r="2.68"/><path class="cls-7" d="M636.84,481.72s26-2,35.79-20.83c0,0,19.83-39.32,36-43.69s46-14.11,58.46-29.23,17.65-26.71,17.65-26.71,3.19,12.26-6.89,26.71S764,424.59,757,448.12s-9.74,32.9-22.51,34.3c-9.63,1-60.52.5-84.85,0C641.66,482.23,636.84,481.72,636.84,481.72Z" transform="translate(-47.73 -61.21)"/><path class="cls-8" d="M636.84,481.72s26-2,35.79-20.83c0,0,19.83-39.32,36-43.69s46-14.11,58.46-29.23,17.65-26.71,17.65-26.71,3.19,12.26-6.89,26.71S764,424.59,757,448.12s-9.74,32.9-22.51,34.3c-9.63,1-60.52.5-84.85,0C641.66,482.23,636.84,481.72,636.84,481.72Z" transform="translate(-47.73 -61.21)"/><path class="cls-7" d="M643.39,481.76s24.9-1.95,34.21-20.17c0,0,18.95-38.07,34.37-42.3s44-13.67,55.89-28.3,16.86-25.87,16.86-25.87,3,11.9-6.59,25.87S765,426.45,758.22,449.2s-9.31,31.88-21.52,33.19c-9.2,1-57.84.48-81.1,0C648,482.25,643.39,481.76,643.39,481.76Z" transform="translate(-47.73 -61.21)"/><path class="cls-14" d="M787.92,359.79s-12,.78-15.7,2.22c-2,.77-6.91,1.4-11.12,1.87a22.58,22.58,0,0,0-15.4,8.32c-3.43,4.35-5.16,9.71,1.64,13.77,13.61,8.11,30.1-14.91,30.1-14.91l14.38-2.1Z" transform="translate(-47.73 -61.21)"/><path class="cls-12" d="M782.16,358.68c4.71-.33,9.94,21.52,9.94,21.52s8.63-1.83,13.87-4.45,18.58-6.8,18.58-6.8a31.65,31.65,0,0,0,10.72-3.67c5.76-3.13-3.14-12-4.44-14.38s-9.68-7.33-9.68-7.33l-6.55-1.31L785,347.5l19.1,4.44-2.38.74-6.41,2Z" transform="translate(-47.73 -61.21)"/><path class="cls-12" d="M795.35,354.64,801,369.73c11.38,8.89,10.5-3.5,10.5-3.5l-9.71-13.58Z" transform="translate(-47.73 -61.21)"/><path class="cls-5" d="M796.36,355.14l5.65,15.1c11.38,8.89,10.5-3.5,10.5-3.5l-9.71-13.59Z" transform="translate(-47.73 -61.21)"/><circle class="cls-18" cx="760.14" cy="307.74" r="2.68"/><path class="cls-5" d="M722.87,272.56a3.69,3.69,0,0,1-3-3.57c0-2,1.75-3.92,1.29-5.91-.23-1-1-1.89-1.19-2.94-.27-1.89,1.61-3.32,3.25-4.3l14.52-8.69c3.47-2.1,7.27-4.2,11.27-3.71,3.69.47,6.73,3.13,9,6.07s4,6.3,6.61,9c4.66,4.95,11.45,7.33,16.52,11.86a11.67,11.67,0,0,1,3.29,4.39c2.1,5.7-3.11,11.59-3.07,17.68,0,5.33,4.06,9.75,8.26,13,1.78,1.4,3.78,2.94,4.14,5.18.28,1.73-.51,3.42-1,5.1-2.51,8.55,3,17.61,10,23.1,2.1,1.64,4.46,3.28,5.22,5.82,1.14,3.72-1.67,7.37-4.06,10.45-4.2,5.39-7.7,11.53-8.71,18.28s.82,14.18,5.91,18.74c-3.8.61-7.7,1.22-11.44.35s-7.32-3.59-8-7.36c-.73-4.07,1.78-8.95-1-12.05-2.1-2.35-5.76-1.91-8.88-2.32a14.52,14.52,0,0,1-12.2-13.3c-.2-4.61,1.85-9,3.44-13.3s2.74-9.26.82-13.46c-3.09-6.76-13.16-9.58-13.6-17-.26-4.37,3.2-8.81,1.4-12.79-1.19-2.68-4.26-3.87-6.55-5.7-3.6-2.87-5.35-7.41-7.7-11.36a53.62,53.62,0,0,0-6.8-8.72c-.82-.89-2.38-3.2-3.61-3.5C725.54,271.33,724.43,272.8,722.87,272.56Z" transform="translate(-47.73 -61.21)"/><path class="cls-13" d="M723.92,272a3.72,3.72,0,0,1-3-3.57c0-2.05,1.76-3.92,1.3-5.92-.24-1-1-1.88-1.19-2.93-.27-1.89,1.6-3.33,3.24-4.31l14.53-8.68c3.46-2.07,7.26-4.2,11.26-3.71,3.7.46,6.73,3.12,9,6.06s4.05,6.3,6.6,9c4.66,4.94,11.46,7.32,16.52,11.85a11.32,11.32,0,0,1,3.29,4.39c2.1,5.7-3.11,11.59-3.07,17.67,0,5.33,4.07,9.76,8.26,13.06,1.78,1.4,3.79,2.94,4.15,5.18.27,1.72-.52,3.41-1,5.09-2.5,8.56,3,17.61,10,23.1,2.1,1.65,4.46,3.28,5.23,5.83,1.13,3.73-1.67,7.37-4.06,10.45-4.2,5.39-7.7,11.53-8.71,18.27s.82,14.19,5.9,18.74c-3.79.61-7.7,1.23-11.43.36s-7.32-3.59-8-7.36c-.7-4.07,1.78-9-1-12-2.1-2.36-5.76-1.92-8.88-2.34a14.5,14.5,0,0,1-12.2-13.3c-.2-4.61,1.84-9,3.44-13.3s2.74-9.22.82-13.42c-3.09-6.76-13.16-9.58-13.6-17-.26-4.36,3.2-8.81,1.4-12.79-1.2-2.68-4.27-3.87-6.56-5.7-3.61-2.87-5.35-7.41-7.7-11.36a53.56,53.56,0,0,0-6.81-8.72c-.82-.89-2.37-3.2-3.61-3.5C726.58,270.81,725.48,272.28,723.92,272Z" transform="translate(-47.73 -61.21)"/><path class="cls-5" d="M722.48,262.75c-.24-1-1-1.88-1.19-2.93-.26-1.9,1.6-3.32,3.25-4.3l.34-.21a2.5,2.5,0,0,0-.19,1.4c.15,1.05.95,1.91,1.19,2.94.46,2-1.28,3.87-1.3,5.91a3.72,3.72,0,0,0,3,3.57c1.56.24,2.67-1.23,4.09-.91,1.24.28,2.8,2.59,3.62,3.5a53.7,53.7,0,0,1,6.8,8.73c2.38,3.95,4.12,8.48,7.7,11.35,2.3,1.83,5.36,3,6.56,5.7,1.78,4-1.67,8.4-1.4,12.79.43,7.42,10.5,10.24,13.59,17,1.92,4.2.77,9.1-.82,13.46s-3.64,8.7-3.43,13.3a14.49,14.49,0,0,0,12.2,13.3c3.11.42,6.8,0,8.88,2.34,2.74,3.09.23,8,1,12,.7,3.77,4.27,6.48,8,7.35a19.37,19.37,0,0,0,5.83.37,16.94,16.94,0,0,0,2.21,2.35c-3.79.61-7.7,1.22-11.43.36s-7.32-3.59-8-7.37c-.7-4.07,1.77-8.94-1-12-2.1-2.36-5.77-1.91-8.89-2.32a14.52,14.52,0,0,1-12.2-13.3c-.2-4.62,1.84-9,3.44-13.3s2.74-9.26.82-13.46c-3.09-6.77-13.16-9.58-13.6-17-.25-4.36,3.2-8.81,1.4-12.8-1.19-2.67-4.26-3.86-6.55-5.69-3.61-2.87-5.35-7.41-7.7-11.36a54.68,54.68,0,0,0-6.81-8.72c-.82-.88-2.37-3.19-3.6-3.5-1.4-.32-2.54,1.15-4.11.91a3.7,3.7,0,0,1-3-3.57C721.2,266.62,722.94,264.75,722.48,262.75Z" transform="translate(-47.73 -61.21)"/><path class="cls-5" d="M623.24,472s13.6,5.2,21.33,2.35,26.88-11.26,26.88-11.26S639.19,465.09,623.24,472Z" transform="translate(-47.73 -61.21)"/><path class="cls-7" d="M507.53,328.22s-3.21,15,11.09,16.73l.88-1.66S508.4,332.87,507.53,328.22Z" transform="translate(-47.73 -61.21)"/><path class="cls-7" d="M524.05,343.18l-3.32.7-.34.07s-8.87-7.21-8.76-23.28a40.72,40.72,0,0,0,4.2,6.7C519.39,332,523.39,338.24,524.05,343.18Z" transform="translate(-47.73 -61.21)"/><path class="cls-7" d="M525.2,344.72a2.07,2.07,0,0,1-1.78.23c-8.54-2-5.66-29.82-5.66-29.82.48.23,1,3.76,3,8.33C524.13,331.49,527.92,342.71,525.2,344.72Z" transform="translate(-47.73 -61.21)"/><path class="cls-7" d="M544.1,328.22s.55,15-13.75,16.73l-.89-1.66S543.23,332.87,544.1,328.22Z" transform="translate(-47.73 -61.21)"/><path class="cls-7" d="M540,320.68c.11,16.1-11.42,23.27-11.42,23.27l-.33-.07-3.33-.7c.66-4.93,4.67-11.14,8.18-15.8A36.2,36.2,0,0,1,540,320.68Z" transform="translate(-47.73 -61.21)"/><path class="cls-7" d="M528.21,343.26a5.22,5.22,0,0,1-1.9,1.46h0a3.58,3.58,0,0,1-.7.23c-2.1.49-2.84-1-2.71-3.59.19-4.59,3.07-12.53,5.66-18.48a22.94,22.94,0,0,1,5.36-7.75S533.79,336.8,528.21,343.26Z" transform="translate(-47.73 -61.21)"/><path class="cls-7" d="M525.82,305.38s-9.53,33.81-1.33,38.91S527.93,308.37,525.82,305.38Z" transform="translate(-47.73 -61.21)"/><path class="cls-5" d="M507.53,328.22s-3.21,15,11.09,16.73l.88-1.66S508.4,332.87,507.53,328.22Z" transform="translate(-47.73 -61.21)"/><path class="cls-5" d="M524.05,343.18l-3.32.7-.34.07s-8.87-7.21-8.76-23.28a40.72,40.72,0,0,0,4.2,6.7C519.39,332,523.39,338.24,524.05,343.18Z" transform="translate(-47.73 -61.21)"/><path class="cls-5" d="M525.2,344.72a2.07,2.07,0,0,1-1.78.23c-8.54-2-5.66-29.82-5.66-29.82.48.23,1,3.76,3,8.33C524.13,331.49,527.92,342.71,525.2,344.72Z" transform="translate(-47.73 -61.21)"/><path class="cls-5" d="M544.1,328.22s.55,15-13.75,16.73l-.89-1.66S543.23,332.87,544.1,328.22Z" transform="translate(-47.73 -61.21)"/><path class="cls-5" d="M540,320.68c.11,16.1-11.42,23.27-11.42,23.27l-.33-.07-3.33-.7c.66-4.93,4.67-11.14,8.18-15.8A36.2,36.2,0,0,1,540,320.68Z" transform="translate(-47.73 -61.21)"/><path class="cls-5" d="M528.21,343.26a5.22,5.22,0,0,1-1.9,1.46h0a3.58,3.58,0,0,1-.7.23c-2.1.49-2.84-1-2.71-3.59.19-4.59,3.07-12.53,5.66-18.48a22.94,22.94,0,0,1,5.36-7.75S533.79,336.8,528.21,343.26Z" transform="translate(-47.73 -61.21)"/><path class="cls-5" d="M525.82,305.38s-9.53,33.81-1.33,38.91S527.93,308.37,525.82,305.38Z" transform="translate(-47.73 -61.21)"/><path class="cls-7" d="M507.53,328.22s-1.88,15,12.42,16.73l.88-1.66S508.4,332.87,507.53,328.22Z" transform="translate(-47.73 -61.21)"/><path class="cls-7" d="M525.38,343.18l-3.32.7-.34.07s-10.2-7.21-10.09-23.28c0,0,2.62,2.8,5.6,6.7C520.72,332,524.72,338.24,525.38,343.18Z" transform="translate(-47.73 -61.21)"/><path class="cls-5" d="M525.38,343.18l-3.32.7c-3.16-2.8-4.41-10-4.86-16.51C520.72,332,524.72,338.24,525.38,343.18Z" transform="translate(-47.73 -61.21)"/><path class="cls-7" d="M526.5,344.72a2.07,2.07,0,0,1-1.78.23c-8.54-2-7-29.82-7-29.82.47.23,2.32,3.76,4.28,8.33C525.46,331.49,529.25,342.71,526.5,344.72Z" transform="translate(-47.73 -61.21)"/><path class="cls-7" d="M544.1,328.22s1.88,15-12.42,16.73l-.88-1.66S543.23,332.87,544.1,328.22Z" transform="translate(-47.73 -61.21)"/><path class="cls-7" d="M540,320.68c.11,16.1-10.08,23.27-10.08,23.27l-.34-.07-3.33-.7c.66-4.93,4.67-11.14,8.18-15.8C537.4,323.48,540,320.68,540,320.68Z" transform="translate(-47.73 -61.21)"/><path class="cls-5" d="M534.44,327.4c-.43,6.07-1.54,12.76-4.23,15.88a5.19,5.19,0,0,1-.62.62l-3.33-.7C526.92,338.24,530.93,332,534.44,327.4Z" transform="translate(-47.73 -61.21)"/><path class="cls-7" d="M529.54,343.26a5.13,5.13,0,0,1-1.9,1.46h0a3.58,3.58,0,0,1-.7.23c-2.1.49-2.84-1-2.71-3.59.19-4.59,3.07-12.53,5.66-18.48,1.86-4.29,3.58-7.53,4-7.75C533.92,315.13,535.12,336.8,529.54,343.26Z" transform="translate(-47.73 -61.21)"/><path class="cls-5" d="M526.5,344.72a2.45,2.45,0,0,1-1.34-.43c-4-2.51-4.1-11.9-3.14-20.83C525.46,331.49,529.25,342.71,526.5,344.72Z" transform="translate(-47.73 -61.21)"/><path class="cls-5" d="M529.54,343.26c-.46,1-1.08,1.53-1.9,1.46h0a2.6,2.6,0,0,1-1.14-.43,6,6,0,0,1-2.27-2.93c.19-4.59,3.07-12.53,5.66-18.48C530.8,331.13,531.12,339.88,529.54,343.26Z" transform="translate(-47.73 -61.21)"/><path class="cls-7" d="M525.82,305.38s-8.2,33.81,0,38.91S527.93,308.37,525.82,305.38Z" transform="translate(-47.73 -61.21)"/><polygon class="cls-21" points="493.84 281.42 459.69 281.42 459.69 287.07 464.91 287.07 465.03 287.74 467.12 298.71 486.96 298.71 489.06 287.74 489.18 287.07 493.84 287.07 493.84 281.42"/><polygon class="cls-5" points="493.84 281.42 459.69 281.42 459.69 287.07 464.91 287.07 465.03 287.74 467.12 298.71 486.96 298.71 489.06 287.74 489.18 287.07 493.84 287.07 493.84 281.42"/><polygon class="cls-21" points="490.95 284.74 490.39 287.74 488.29 298.71 468.45 298.71 466.36 287.74 465.79 284.74 490.95 284.74"/><polygon class="cls-5" points="490.95 284.74 490.39 287.74 466.36 287.74 465.79 284.74 490.95 284.74"/><rect class="cls-21" x="461.02" y="281.42" width="34.14" height="5.66"/><path class="cls-7" d="M248.83,554.3a12,12,0,0,0-1.59,3c-.1.26-.19.56-.29.84a3.58,3.58,0,0,0-.55-.19,7.8,7.8,0,0,0-2.5-.21c0-.33,0-.7,0-1,.1-3.69-.34-8.83-3.85-6.65s-1,5.6,1.2,7.84l.56.55c-2,1.4-2.36,4.71-2.69,8.15S235.92,573.8,234,576l-.55.59a7.05,7.05,0,0,0-5.6-1.45l-.25-1c-1.57-5.66-4.83-15.47-9-17.62.18-.21.36-.44.55-.7,1.76-2.3,3.74-5.73.81-6.61s-3.19,3-3,5.86a6.83,6.83,0,0,0,.08,1,4.27,4.27,0,0,0-3.07,1.49l-.45-.54c-2.38-2.8-6.75-7.25-8.06-3.89-1.23,3.14,2.61,7.21,5.31,9.57l.17.15c-1.82,7.36,6.1,13.35,10.37,16l.54.34c-5.88,6.93-9.5,19.92-9.5,19.92l16.46,2.94s10.91-9.42,9.52-18.27h.11c10.91-2.19,13.39-13.82,11.69-20.72l.2-.09a12.33,12.33,0,0,0,5-3.82C258.37,554.9,252,550.14,248.83,554.3Z" transform="translate(-47.73 -61.21)"/><path class="cls-5" d="M248.83,554.3a12,12,0,0,0-1.59,3c-.1.26-.19.56-.29.84a3.58,3.58,0,0,0-.55-.19,7.8,7.8,0,0,0-2.5-.21c0-.33,0-.7,0-1,.1-3.69-.34-8.83-3.85-6.65s-1,5.6,1.2,7.84l.56.55c-2,1.4-2.36,4.71-2.69,8.15S235.92,573.8,234,576l-.55.59a7.05,7.05,0,0,0-5.6-1.45l-.25-1c-1.57-5.66-4.83-15.47-9-17.62.18-.21.36-.44.55-.7,1.76-2.3,3.74-5.73.81-6.61s-3.19,3-3,5.86a6.83,6.83,0,0,0,.08,1,4.27,4.27,0,0,0-3.07,1.49l-.45-.54c-2.38-2.8-6.75-7.25-8.06-3.89-1.23,3.14,2.61,7.21,5.31,9.57l.17.15c-1.82,7.36,6.1,13.35,10.37,16l.54.34c-5.88,6.93-9.5,19.92-9.5,19.92l16.46,2.94s10.91-9.42,9.52-18.27h.11c10.91-2.19,13.39-13.82,11.69-20.72l.2-.09a12.33,12.33,0,0,0,5-3.82C258.37,554.9,252,550.14,248.83,554.3Z" transform="translate(-47.73 -61.21)"/><path class="cls-7" d="M216.06,559.05l-1.93,5.65s-1.06-.76-2.41-2c-2.7-2.36-6.55-6.43-5.31-9.57,1.31-3.36,5.68,1.08,8.06,3.9C215.43,558.18,216.06,559.05,216.06,559.05Z" transform="translate(-47.73 -61.21)"/><path class="cls-7" d="M220.13,555.83a26.42,26.42,0,0,1-1.88,2.21,26.72,26.72,0,0,1-.34-3c-.16-2.87.14-6.71,3-5.85S221.89,553.5,220.13,555.83Z" transform="translate(-47.73 -61.21)"/><path class="cls-7" d="M245,556.72c-.07,1.85-.25,3.34-.25,3.34a24.54,24.54,0,0,1-2.4-2.15c-2.18-2.26-4.59-5.75-1.2-7.84S245.05,553,245,556.72Z" transform="translate(-47.73 -61.21)"/><path class="cls-7" d="M256.32,559.15a12.41,12.41,0,0,1-5,3.82,14.37,14.37,0,0,1-1.7.62l-2.28-3.19a22,22,0,0,1,.94-3.09,11.73,11.73,0,0,1,1.59-3C253,550.14,259.38,554.9,256.32,559.15Z" transform="translate(-47.73 -61.21)"/><path class="cls-5" d="M214.47,557.06c1,1.12,1.59,2,1.59,2l-1.93,5.65s-1.06-.76-2.41-2a11.07,11.07,0,0,1,2.16-5C214.08,557.52,214.28,557.29,214.47,557.06Z" transform="translate(-47.73 -61.21)"/><path class="cls-5" d="M220.13,555.83a26.42,26.42,0,0,1-1.88,2.21,26.72,26.72,0,0,1-.34-3A3.88,3.88,0,0,1,220.13,555.83Z" transform="translate(-47.73 -61.21)"/><path class="cls-7" d="M229.59,578.2l-4.79,2.1q-1.31-.66-2.55-1.44c-5-3.09-15.15-10.89-8.4-20.07s12.44,7.29,14.7,15.34C229.23,576.55,229.59,578.2,229.59,578.2Z" transform="translate(-47.73 -61.21)"/><path class="cls-5" d="M242.31,557.91a4,4,0,0,1,2.65-1.19c-.07,1.85-.25,3.34-.25,3.34A24.54,24.54,0,0,1,242.31,557.91Z" transform="translate(-47.73 -61.21)"/><path class="cls-5" d="M251.28,563a14.37,14.37,0,0,1-1.7.62l-2.28-3.19a22,22,0,0,1,.94-3.09C249.72,558.16,250.8,560.29,251.28,563Z" transform="translate(-47.73 -61.21)"/><path class="cls-7" d="M239.39,583.77c-.27.06-.53.11-.8.15-16.06,2.44-5.3-6.22-5.3-6.22s.7-.7,1.7-1.75c1.94-2.14,4.86-5.88,5.18-9.34.51-5.2,1.1-10.08,7.24-8.65S254.58,580.74,239.39,583.77Z" transform="translate(-47.73 -61.21)"/><rect class="cls-16" x="160.69" y="562.53" width="30.67" height="8.06"/><rect class="cls-16" x="155.82" y="536.32" width="40.07" height="28.14"/><rect class="cls-5" x="160.69" y="562.53" width="30.67" height="8.06"/><rect class="cls-5" x="155.82" y="536.32" width="40.07" height="28.14"/><rect class="cls-16" x="162.71" y="562.53" width="30.67" height="8.06"/><path class="cls-5" d="M228.55,574.14c.7,2.41,1,4.06,1,4.06l-4.79,2.1q-1.31-.66-2.55-1.44C224.13,576.49,226.24,574.69,228.55,574.14Z" transform="translate(-47.73 -61.21)"/><path class="cls-5" d="M239.39,583.77c-.27.06-.53.11-.8.15-16.06,2.44-5.3-6.22-5.3-6.22s.7-.7,1.7-1.75A10.58,10.58,0,0,1,239.39,583.77Z" transform="translate(-47.73 -61.21)"/><path class="cls-7" d="M213.29,599.12s9-32.2,21.59-22.26-5.12,25.2-5.12,25.2Z" transform="translate(-47.73 -61.21)"/><circle class="cls-5" cx="170.1" cy="502.64" r="1.01"/><circle class="cls-5" cx="170.02" cy="507.34" r="1.01"/><circle class="cls-5" cx="199.26" cy="503.56" r="1.01"/><circle class="cls-5" cx="175.73" cy="527.67" r="1.01"/><circle class="cls-5" cx="197.16" cy="511.37" r="1.01"/><circle class="cls-5" cx="186.73" cy="521.79" r="1.01"/><circle class="cls-5" cx="173.55" cy="504.65" r="1.01"/><circle class="cls-5" cx="196.49" cy="506.58" r="1.01"/><circle class="cls-5" cx="193.03" cy="514.4" r="1.01"/><circle class="cls-5" cx="182.45" cy="526.91" r="1.01"/><circle class="cls-5" cx="180.27" cy="521.96" r="1.01"/><circle class="cls-5" cx="175.06" cy="510.78" r="1.01"/><rect class="cls-5" x="162.71" y="562.53" width="30.67" height="2.95"/><rect class="cls-16" x="157.84" y="536.32" width="40.07" height="28.14"/><circle class="cls-5" cx="183.79" cy="531.45" r="1.01"/><circle class="cls-5" cx="177.75" cy="532.71" r="1.01"/><path class="cls-22" d="M574.77,368.31c0,3-6.53,6.62-14.59,6.62s-14.59-3.58-14.59-6.62,6.53-4.4,14.59-4.4S574.77,365.27,574.77,368.31Z" transform="translate(-47.73 -61.21)"/><path class="cls-5" d="M574.77,368.31c0,3-6.53,6.62-14.59,6.62s-14.59-3.58-14.59-6.62,6.53-4.4,14.59-4.4S574.77,365.27,574.77,368.31Z" transform="translate(-47.73 -61.21)"/><ellipse class="cls-22" cx="512.46" cy="307.11" rx="14.59" ry="5.51"/><ellipse class="cls-5" cx="512.46" cy="307.11" rx="8.25" ry="3.12"/><path class="cls-12" d="M572.14,361.7c-1.4,3.61-3.58,4.67-5.28,4.9a5.6,5.6,0,0,1-2.54-.26l1-2.16a3.41,3.41,0,0,0,1.95,0,4.17,4.17,0,0,0,2.56-2.8c1.07-2.74-.27-3.14-1.2-3.13a5.51,5.51,0,0,0-.57.06l.8-1.7a5.35,5.35,0,0,1,.8-.14C571.17,356.32,574.12,356.61,572.14,361.7Z" transform="translate(-47.73 -61.21)"/><path class="cls-23" d="M565.69,369.24c-5.69,3-11.26,0-11.26,0l.08-.82.06-.62,11-.21.08,1Z" transform="translate(-47.73 -61.21)"/><path class="cls-5" d="M567.27,364.16a18,18,0,0,1-.41,2.42,5.74,5.74,0,0,1-2.54-.25l1-2.16A3.49,3.49,0,0,0,567.27,364.16Z" transform="translate(-47.73 -61.21)"/><path class="cls-5" d="M569.66,356.47a2.69,2.69,0,0,1-.31.61l-.08.12a10.53,10.53,0,0,0-.64,1.05,5.51,5.51,0,0,0-.57.06l.8-1.7A5.35,5.35,0,0,1,569.66,356.47Z" transform="translate(-47.73 -61.21)"/><path class="cls-5" d="M565.63,368.57c-1.94,1.05-9.24,1.35-11.12-.15l.06-.62,11-.21Z" transform="translate(-47.73 -61.21)"/><path class="cls-12" d="M569.14,357.08l-.08.12a10.81,10.81,0,0,0-1.85,5.35c-.35,4.72-1.05,5.19-1.12,5.39-.57,1.44-10.37,2-11.84,0-1.22-1.65-2.4-5.23-1.85-7.24a4,4,0,0,0-1-3.15,2.43,2.43,0,0,1,.55-3.39l.1-.07c2.8-1.79,7.7-1.88,7.7-1.88,4.2-.33,6.89.49,8.53,1.4l.21.12a2.41,2.41,0,0,1,.61,3.36h0Z" transform="translate(-47.73 -61.21)"/><ellipse class="cls-5" cx="512.3" cy="295.42" rx="7.44" ry="1.76"/><ellipse class="cls-24" cx="512.3" cy="295.63" rx="7.44" ry="1.76"/><path class="cls-8" d="M561.6,355.73s-5.35.17-5.19,2.1A13.39,13.39,0,0,1,561.6,355.73Z" transform="translate(-47.73 -61.21)"/><path class="cls-8" d="M563.11,356.22s-3.19,0-2.69,1.59c0,0,.75-.12.64-.53s2-.84,2-.84Z" transform="translate(-47.73 -61.21)"/><path class="cls-25" d="M551.75,355.73s-.21,3.27,8.14,3.09,8.3-2.35,8.4-3.09h-.46s-.11,2.67-7.8,2.6-7.9-2.6-7.9-2.6Z" transform="translate(-47.73 -61.21)"/><path class="cls-5" d="M569.5,355.2l-5,2.68a.46.46,0,0,1-.59-.12l-.09-.11a.62.62,0,0,1,.1-.87l0,0,4.61-2.92A2.46,2.46,0,0,1,569.5,355.2Z" transform="translate(-47.73 -61.21)"/><path class="cls-22" d="M563.93,356.58,577,348.3a1.89,1.89,0,0,1,1-.31c.66,0,1.59.1,1.3,1.16a2,2,0,0,1-1,1.19l-13.81,7.38a.46.46,0,0,1-.59-.12l-.08-.1a.62.62,0,0,1,.08-.89Z" transform="translate(-47.73 -61.21)"/><path class="cls-5" d="M563.93,356.58,577,348.3a1.89,1.89,0,0,1,1-.31c.66,0,1.59.1,1.3,1.16a2,2,0,0,1-1,1.19l-13.81,7.38a.46.46,0,0,1-.59-.12l-.08-.1a.62.62,0,0,1,.08-.89Z" transform="translate(-47.73 -61.21)"/><path class="cls-22" d="M563.93,356.48,577,348.2a1.9,1.9,0,0,1,1-.32c.66,0,1.59.11,1.3,1.16a2,2,0,0,1-1,1.2l-13.81,7.38a.49.49,0,0,1-.59-.12l-.08-.11a.61.61,0,0,1,.08-.88Z" transform="translate(-47.73 -61.21)"/><path class="cls-5" d="M563.21,356.71s1.4-.3,1.21.07.6.84.6.84-1.44.34-1.66.13S563.21,356.71,563.21,356.71Z" transform="translate(-47.73 -61.21)"/><path class="cls-24" d="M563.11,356.8s1.4-.3,1.21.07.6.84.6.84-1.44.34-1.66.13S563.11,356.8,563.11,356.8Z" transform="translate(-47.73 -61.21)"/><path class="cls-26" d="M560.9,342.27a5.16,5.16,0,0,0-1.25,2.32,7.86,7.86,0,0,0,.08,2.42,12.91,12.91,0,0,0,.28,1.63c.08.3.28.64.43.43,0-.76-.16-1.5-.13-2.25a5.16,5.16,0,0,1,.7-2.23,11,11,0,0,0,1-1.95c.11-.33.51-3.3-.05-2.8-.11.1-.24,1.08-.35,1.32A4.79,4.79,0,0,1,560.9,342.27Z" transform="translate(-47.73 -61.21)"/><path class="cls-26" d="M561.14,347.15c0,.28.27.49.38.74a2.27,2.27,0,0,1,.09.52,3.76,3.76,0,0,1-.37,2.46,1.7,1.7,0,0,0,.93-1.27,4.06,4.06,0,0,0,.13-.85c0-.27,0-.55,0-.82s.13-1.48-.38-1.69S561.14,346.76,561.14,347.15Z" transform="translate(-47.73 -61.21)"/><path class="cls-5" d="M552.5,360.12a3.13,3.13,0,0,0,2.4,1.07,4.56,4.56,0,0,1-2.53-.29Z" transform="translate(-47.73 -61.21)"/><polygon class="cls-19" points="359.4 268.16 359.4 301.9 324.43 302.9 324.43 269.17 359.4 268.16"/><polygon class="cls-5" points="359.21 297.68 359.4 302.9 324.43 302.9 324.37 299.69 359.21 297.68"/><path class="cls-19" d="M417.81,364.76l-54.39,2h0a5.32,5.32,0,0,1,5.32-5.32l43.76-2a5.33,5.33,0,0,1,5.33,5.33Z" transform="translate(-47.73 -61.21)"/><path class="cls-19" d="M486.56,328.8l-192.79,6.05a3.39,3.39,0,0,1-3.38-3.37h0V215.64a3.38,3.38,0,0,1,3.38-3.38h0l192.79-6a3.38,3.38,0,0,1,3.38,3.37h0v115.8a3.37,3.37,0,0,1-3.34,3.41Z" transform="translate(-47.73 -61.21)"/><polygon class="cls-7" points="437.59 259.44 246.87 265.48 246.87 165.37 437.59 159.31 437.59 259.44"/><ellipse class="cls-6" cx="341.9" cy="155.49" rx="1.68" ry="1.66"/><polygon class="cls-5" points="359.36 273.34 324.51 274.35 324.51 273.69 359.36 272.68 359.36 273.34"/><polygon class="cls-27" points="437.71 162.59 246.86 168.64 246.86 165.18 437.71 159.13 437.71 162.59"/><polygon class="cls-19" points="141.75 300.12 143.6 303.47 203.96 290.68 201.57 286.88 141.75 300.12"/><path class="cls-19" d="M182.24,364.59l-9.14-54.22a1.73,1.73,0,0,1,1.41-2h.11l69.3-7.39a1.73,1.73,0,0,1,1.9,1.49L252.3,350Z" transform="translate(-47.73 -61.21)"/><path class="cls-5" d="M182.24,364.59l-9.14-54.22a1.73,1.73,0,0,1,1.41-2h.11l69.3-7.39a1.73,1.73,0,0,1,1.9,1.49L252.3,350Z" transform="translate(-47.73 -61.21)"/><path class="cls-19" d="M183.3,364.59l-9.14-54.22a1.73,1.73,0,0,1,1.43-2h.09L245,301a1.73,1.73,0,0,1,1.9,1.49L253.36,350Z" transform="translate(-47.73 -61.21)"/><polygon class="cls-7" points="131.25 251.58 138.75 297.65 201.4 284.76 195.57 243.82 131.25 251.58"/><path class="cls-28" d="M191,363.62l-.44-.88-8.29,1.85,21.13,32.28a2.71,2.71,0,0,0,3,1.13l74.2-21.57a2.73,2.73,0,0,0,1.87-3.38,2.76,2.76,0,0,0-1-1.42l-28.75-21.78-6,1.4.26.62Z" transform="translate(-47.73 -61.21)"/><path class="cls-5" d="M191,363.62l-.44-.88-8.29,1.85,21.13,32.28a2.71,2.71,0,0,0,3,1.13l74.2-21.57a2.73,2.73,0,0,0,1.87-3.38,2.76,2.76,0,0,0-1-1.42l-28.75-21.78-6,1.4.26.62Z" transform="translate(-47.73 -61.21)"/><path class="cls-28" d="M192,363.62l-.45-.88-8.29,1.85,21.13,32.28a2.71,2.71,0,0,0,3,1.13l74.2-21.57a2.74,2.74,0,0,0,.89-4.8l-28.76-21.78-6,1.4.27.62Z" transform="translate(-47.73 -61.21)"/><path class="cls-5" d="M225.13,376.85l23.84-6.2a.46.46,0,0,1,.43.11L260,380.37a.46.46,0,0,1,0,.65.46.46,0,0,1-.21.13l-25.2,7.45a.45.45,0,0,1-.48-.15L224.9,377.6a.47.47,0,0,1,.06-.66A.32.32,0,0,1,225.13,376.85Z" transform="translate(-47.73 -61.21)"/><path class="cls-20" d="M225.66,376.32l23.85-6.22a.45.45,0,0,1,.42.1l10.59,9.61a.46.46,0,0,1,0,.65.46.46,0,0,1-.21.13L235.14,388a.47.47,0,0,1-.48-.15l-9.23-10.79a.45.45,0,0,1,0-.64A.48.48,0,0,1,225.66,376.32Z" transform="translate(-47.73 -61.21)"/><g class="cls-9"><path d="M192.08,368.12l1.07,1.73a.21.21,0,0,0,.22.09l3.61-.8a.21.21,0,0,0,.15-.25.09.09,0,0,0,0-.07l-1.19-1.67a.2.2,0,0,0-.21-.08l-3.5.75a.2.2,0,0,0-.15.24S192.06,368.11,192.08,368.12Z" transform="translate(-47.73 -61.21)"/><path d="M196.8,367.13l1.07,1.73a.2.2,0,0,0,.22.09l3.61-.8a.22.22,0,0,0,.15-.26l0-.07-1.2-1.66a.21.21,0,0,0-.21-.09l-3.5.75a.22.22,0,0,0-.14.26Z" transform="translate(-47.73 -61.21)"/><path d="M201.39,366.14l1.07,1.73a.2.2,0,0,0,.22.09l3.61-.81a.21.21,0,0,0,.15-.25.09.09,0,0,0,0-.07l-1.19-1.63a.22.22,0,0,0-.21-.09l-3.5.75a.22.22,0,0,0-.13.27Z" transform="translate(-47.73 -61.21)"/><path d="M205.9,365.2l1,1.7a.21.21,0,0,0,.23.1l3.59-.8a.22.22,0,0,0,.16-.27.15.15,0,0,0,0-.07l-1.18-1.65a.22.22,0,0,0-.23-.08l-3.45.74a.22.22,0,0,0-.17.27S205.88,365.18,205.9,365.2Z" transform="translate(-47.73 -61.21)"/><path d="M205.53,367.8l1.07,1.72a.23.23,0,0,0,.23.09l3.61-.81a.2.2,0,0,0,.15-.24l0-.07-1.2-1.67a.2.2,0,0,0-.21-.08l-3.5.75a.21.21,0,0,0-.14.26Z" transform="translate(-47.73 -61.21)"/><path d="M200.86,368.79l1.07,1.72a.18.18,0,0,0,.21.09l3.62-.8a.22.22,0,0,0,.15-.26l0-.06-1.2-1.67a.19.19,0,0,0-.21-.08l-3.5.75a.21.21,0,0,0-.14.25A.09.09,0,0,0,200.86,368.79Z" transform="translate(-47.73 -61.21)"/><path d="M203.9,370.9l1.07,1.73a.21.21,0,0,0,.22.09l3.61-.8a.22.22,0,0,0,.15-.26l0-.06-1.2-1.67a.19.19,0,0,0-.21-.08l-3.5.75a.2.2,0,0,0-.14.25Z" transform="translate(-47.73 -61.21)"/><path d="M208.21,372.76l1.07,1.72a.22.22,0,0,0,.21.1l3.62-.81a.2.2,0,0,0,.15-.25.11.11,0,0,0,0-.07l-1.2-1.66a.2.2,0,0,0-.21-.09l-3.5.75a.21.21,0,0,0-.14.25A.09.09,0,0,0,208.21,372.76Z" transform="translate(-47.73 -61.21)"/><path d="M209,375.75l1.73,2.17a.18.18,0,0,0,.21.07l3.64-.94a.21.21,0,0,0,.15-.25.2.2,0,0,0,0-.08l-1.79-2.18a.19.19,0,0,0-.21-.07l-3.58,1a.21.21,0,0,0-.15.25A.16.16,0,0,0,209,375.75Z" transform="translate(-47.73 -61.21)"/><path d="M213.7,374.56l1.77,2.24a.22.22,0,0,0,.22.07l4.75-1.32a.2.2,0,0,0,.14-.25l0-.08L218.75,373a.21.21,0,0,0-.21-.07l-4.73,1.28a.2.2,0,0,0-.14.26A.09.09,0,0,0,213.7,374.56Z" transform="translate(-47.73 -61.21)"/><path d="M204.29,376.9l1.73,2.17a.22.22,0,0,0,.22.07l3.64-.94A.21.21,0,0,0,210,378a.22.22,0,0,0-.05-.08l-1.78-2.17a.19.19,0,0,0-.21-.06l-3.59,1a.21.21,0,0,0-.13.26Z" transform="translate(-47.73 -61.21)"/><path d="M199.38,378.18l1.73,2.17a.21.21,0,0,0,.21.07l3.64-.95a.21.21,0,0,0,.14-.26.11.11,0,0,0,0-.07L203.28,377a.21.21,0,0,0-.21-.07l-3.59,1a.2.2,0,0,0-.14.25A.12.12,0,0,0,199.38,378.18Z" transform="translate(-47.73 -61.21)"/><path d="M210.42,364.11l1.05,1.7a.23.23,0,0,0,.24.1l3.58-.8a.22.22,0,0,0,.16-.27.13.13,0,0,0,0-.08l-1.17-1.66A.23.23,0,0,0,214,363l-3.5.75a.22.22,0,0,0-.15.26A.41.41,0,0,0,210.42,364.11Z" transform="translate(-47.73 -61.21)"/><path d="M210.13,366.75l1.06,1.7a.21.21,0,0,0,.23.1l3.58-.8a.23.23,0,0,0,.17-.27l0-.07L214,365.77a.2.2,0,0,0-.22-.09l-3.5.74a.22.22,0,0,0-.14.28Z" transform="translate(-47.73 -61.21)"/><path d="M214.81,363.1l1.05,1.7a.23.23,0,0,0,.24.1l3.59-.8a.23.23,0,0,0,.15-.28.09.09,0,0,0,0-.06l-1.17-1.65a.23.23,0,0,0-.23-.08l-3.46.74a.21.21,0,0,0-.17.26A.11.11,0,0,0,214.81,363.1Z" transform="translate(-47.73 -61.21)"/><path d="M227.64,360.3l1.5,1.58a.18.18,0,0,0,.16.05l3.2-.74a.17.17,0,0,0,.14-.21.26.26,0,0,0,0-.09l-1.68-1.59a.2.2,0,0,0-.16,0l-3,.74a.19.19,0,0,0-.13.23A.21.21,0,0,0,227.64,360.3Z" transform="translate(-47.73 -61.21)"/><path d="M231.75,359.36l1.49,1.58a.15.15,0,0,0,.17.05l3.19-.73a.17.17,0,0,0,.14-.21.13.13,0,0,0-.05-.09L235,358.37a.2.2,0,0,0-.16-.05l-3,.75a.16.16,0,0,0-.13.21A.12.12,0,0,0,231.75,359.36Z" transform="translate(-47.73 -61.21)"/><path d="M227.74,362.87l1.49,1.58a.17.17,0,0,0,.16.06l3.21-.71a.18.18,0,0,0,.13-.21.19.19,0,0,0,0-.09L231,361.92a.14.14,0,0,0-.16-.05l-3,.75a.18.18,0,0,0-.11.22Z" transform="translate(-47.73 -61.21)"/><path d="M223.5,363.85l1.4,1.51a.2.2,0,0,0,.21.06l3.09-.7a.23.23,0,0,0,.17-.27.24.24,0,0,0-.06-.11l-1.6-1.51a.23.23,0,0,0-.21-.05l-2.92.7a.24.24,0,0,0-.13.29A.22.22,0,0,0,223.5,363.85Z" transform="translate(-47.73 -61.21)"/><path d="M226.73,368.61l1.4,1.52a.22.22,0,0,0,.21.06l3.09-.7a.22.22,0,0,0,.17-.26.24.24,0,0,0-.06-.11l-1.61-1.51a.24.24,0,0,0-.2-.06l-2.92.7a.23.23,0,0,0-.13.29A.18.18,0,0,0,226.73,368.61Z" transform="translate(-47.73 -61.21)"/><path d="M222.34,369.61l1.4,1.51a.2.2,0,0,0,.21.06l3.09-.7a.21.21,0,0,0,.17-.25.23.23,0,0,0-.06-.12l-1.55-1.53a.24.24,0,0,0-.2-.06l-2.92.7a.22.22,0,0,0-.22.22A.23.23,0,0,0,222.34,369.61Z" transform="translate(-47.73 -61.21)"/><path d="M217.9,370.71l1.4,1.51a.2.2,0,0,0,.21.06l3.1-.7a.22.22,0,0,0,.16-.27.24.24,0,0,0-.06-.11l-1.6-1.51a.23.23,0,0,0-.21-.05l-2.92.7a.23.23,0,0,0-.14.28A.24.24,0,0,0,217.9,370.71Z" transform="translate(-47.73 -61.21)"/><path d="M213.17,371.65l1.44,1.53a.21.21,0,0,0,.2.05l3.13-.7a.21.21,0,0,0,.15-.24.24.24,0,0,0-.06-.11l-1.63-1.53a.22.22,0,0,0-.19,0l-2.94.7a.22.22,0,0,0-.16.24A.24.24,0,0,0,213.17,371.65Z" transform="translate(-47.73 -61.21)"/><path d="M222.29,366.85l1.4,1.51a.22.22,0,0,0,.2.07l3.1-.7a.24.24,0,0,0,.17-.27.26.26,0,0,0-.07-.11l-1.59-1.51a.23.23,0,0,0-.21,0l-2.92.7a.22.22,0,0,0-.13.28A.22.22,0,0,0,222.29,366.85Z" transform="translate(-47.73 -61.21)"/><path d="M218,367.84l1.4,1.51a.21.21,0,0,0,.21.07l3.1-.7a.23.23,0,0,0,.17-.26.26.26,0,0,0-.07-.11l-1.6-1.51a.19.19,0,0,0-.2-.06l-2.92.7a.23.23,0,0,0-.14.29Z" transform="translate(-47.73 -61.21)"/><path d="M213.43,368.81l1.4,1.51a.22.22,0,0,0,.2.07l3.1-.7a.24.24,0,0,0,.16-.28.21.21,0,0,0-.06-.1l-1.6-1.51a.21.21,0,0,0-.2-.05l-2.92.7a.2.2,0,0,0-.15.25A.19.19,0,0,0,213.43,368.81Z" transform="translate(-47.73 -61.21)"/><path d="M208.73,369.9l1.44,1.54a.24.24,0,0,0,.2.05l3.13-.7a.21.21,0,0,0,.16-.24.24.24,0,0,0-.06-.11L212,368.91a.2.2,0,0,0-.19-.05l-2.95.7a.2.2,0,0,0-.1.34Z" transform="translate(-47.73 -61.21)"/><path d="M226.71,365.81l1.4,1.52a.22.22,0,0,0,.21.06l3.09-.7a.22.22,0,0,0,.17-.26.24.24,0,0,0-.06-.11l-1.61-1.51a.21.21,0,0,0-.2-.06l-2.92.7a.22.22,0,0,0-.14.27A.15.15,0,0,0,226.71,365.81Z" transform="translate(-47.73 -61.21)"/><path d="M219.22,365l1.4,1.52a.27.27,0,0,0,.21.06l3.1-.7a.23.23,0,0,0,.17-.26.26.26,0,0,0-.07-.11l-1.6-1.51a.19.19,0,0,0-.2-.06l-2.92.7a.21.21,0,0,0-.14.27A.26.26,0,0,0,219.22,365Z" transform="translate(-47.73 -61.21)"/><path d="M235.72,358.36l1.55,1.65a.15.15,0,0,0,.13,0l3.31-.77a.13.13,0,0,0,.09-.16.21.21,0,0,0,0-.06L239,357.41a.11.11,0,0,0-.12,0l-3.11.77a.12.12,0,0,0-.1.15A.08.08,0,0,0,235.72,358.36Z" transform="translate(-47.73 -61.21)"/><path d="M239.71,357.5l1.56,1.65a.11.11,0,0,0,.12,0l3.31-.77a.12.12,0,0,0,.09-.16.09.09,0,0,0,0-.06L243,356.54a.13.13,0,0,0-.12,0l-3.11.77a.12.12,0,0,0-.08.16Z" transform="translate(-47.73 -61.21)"/><path d="M243.8,356.53l1.4,1.54a.15.15,0,0,0,.13,0l3.08-.84a.15.15,0,0,0,.09-.18.1.1,0,0,0,0,0l-1.59-1.34a.13.13,0,0,0-.12,0l-2.91.64a.14.14,0,0,0,0,.19Z" transform="translate(-47.73 -61.21)"/><path d="M248.11,358l1.4,1.54a.15.15,0,0,0,.14,0l3.08-.84a.13.13,0,0,0,.09-.16.12.12,0,0,0,0-.07l-1.58-1.34a.13.13,0,0,0-.12,0l-2.91.65a.13.13,0,0,0-.06.17Z" transform="translate(-47.73 -61.21)"/><path d="M247.59,360.76l1.36,1.46a.16.16,0,0,0,.17,0l3-.81a.19.19,0,0,0,.12-.23.22.22,0,0,0-.05-.08l-1.51-1.26a.15.15,0,0,0-.15-.05l-2.8.63a.17.17,0,0,0-.15.19A.18.18,0,0,0,247.59,360.76Z" transform="translate(-47.73 -61.21)"/><path d="M244.09,364.31l1.35,1.46a.16.16,0,0,0,.17.05l3-.81a.19.19,0,0,0,.13-.21.15.15,0,0,0-.06-.09l-1.51-1.28a.2.2,0,0,0-.15,0l-2.8.62a.18.18,0,0,0-.15.19A.19.19,0,0,0,244.09,364.31Z" transform="translate(-47.73 -61.21)"/><path d="M239.87,365.42l1.35,1.45a.18.18,0,0,0,.18.05l3-.8a.19.19,0,0,0,.12-.23.22.22,0,0,0-.05-.08l-1.51-1.27a.14.14,0,0,0-.15,0l-2.8.62a.17.17,0,0,0-.15.2A.21.21,0,0,0,239.87,365.42Z" transform="translate(-47.73 -61.21)"/><path d="M248.06,363.27l1.35,1.47a.21.21,0,0,0,.17.05l3-.82a.18.18,0,0,0,.13-.21.18.18,0,0,0-.06-.09l-1.5-1.27a.19.19,0,0,0-.16,0l-2.8.62a.17.17,0,0,0-.14.21A.12.12,0,0,0,248.06,363.27Z" transform="translate(-47.73 -61.21)"/><path d="M247.37,366.42l2,1.84a.2.2,0,0,0,.17,0l2.94-.83a.18.18,0,0,0,.13-.21.15.15,0,0,0-.06-.09l-2.2-1.93a.17.17,0,0,0-.17,0l-2.8.93a.16.16,0,0,0-.11.21A.16.16,0,0,0,247.37,366.42Z" transform="translate(-47.73 -61.21)"/><path d="M240.24,360l1.4,1.54a.12.12,0,0,0,.13,0l3.08-.84a.13.13,0,0,0,.1-.15.18.18,0,0,0,0-.07l-1.59-1.34a.11.11,0,0,0-.11,0l-2.91.64a.13.13,0,0,0-.07.17Z" transform="translate(-47.73 -61.21)"/><path d="M236.25,360.94l1.36,1.45a.18.18,0,0,0,.17.06l3-.81a.19.19,0,0,0,.12-.23.22.22,0,0,0-.05-.08l-1.51-1.27a.2.2,0,0,0-.15,0l-2.8.62a.18.18,0,0,0-.14.22A.41.41,0,0,0,236.25,360.94Z" transform="translate(-47.73 -61.21)"/><path d="M235.44,363.76l1.36,1.44a.17.17,0,0,0,.18.05l3-.81a.18.18,0,0,0,.12-.22.24.24,0,0,0-.06-.09l-1.5-1.27a.15.15,0,0,0-.16,0l-2.8.61a.17.17,0,0,0-.17.19A.18.18,0,0,0,235.44,363.76Z" transform="translate(-47.73 -61.21)"/><path d="M231.24,364.77l1.35,1.46a.19.19,0,0,0,.19,0l3-.81a.17.17,0,0,0,.12-.22.22.22,0,0,0-.05-.08l-1.51-1.27a.17.17,0,0,0-.15,0l-2.8.62a.18.18,0,0,0-.15.21A.2.2,0,0,0,231.24,364.77Z" transform="translate(-47.73 -61.21)"/><path d="M232,361.88l1.35,1.46a.16.16,0,0,0,.17.05l3-.81a.17.17,0,0,0,.13-.21.15.15,0,0,0-.06-.09L235.05,361a.17.17,0,0,0-.15,0l-2.8.63a.17.17,0,0,0-.16.17A.14.14,0,0,0,232,361.88Z" transform="translate(-47.73 -61.21)"/><path d="M235.51,366.36l1.35,1.46a.16.16,0,0,0,.17.05l3-.81a.17.17,0,0,0,.12-.21.13.13,0,0,0-.05-.09l-1.51-1.27a.17.17,0,0,0-.15,0l-2.8.62a.17.17,0,0,0-.15.19A.14.14,0,0,0,235.51,366.36Z" transform="translate(-47.73 -61.21)"/><path d="M231.38,367.47l1.29,1.4a.21.21,0,0,0,.22.07l2.86-.78a.22.22,0,0,0,.15-.28.19.19,0,0,0-.07-.11l-1.4-1.2a.21.21,0,0,0-.19,0l-2.71.59a.23.23,0,0,0-.19.26A.25.25,0,0,0,231.38,367.47Z" transform="translate(-47.73 -61.21)"/><path d="M244.3,358.93l1.4,1.54a.12.12,0,0,0,.13,0l3.08-.84a.13.13,0,0,0,.1-.15.22.22,0,0,0,0-.08l-1.59-1.34a.2.2,0,0,0-.11,0l-2.92.64a.15.15,0,0,0-.05.19Z" transform="translate(-47.73 -61.21)"/><path d="M243.73,361.7l1.35,1.46a.17.17,0,0,0,.18,0l3-.81a.18.18,0,0,0,.12-.22.16.16,0,0,0-.06-.08l-1.5-1.28a.16.16,0,0,0-.15,0l-2.8.61a.19.19,0,0,0-.15.22A.2.2,0,0,0,243.73,361.7Z" transform="translate(-47.73 -61.21)"/><path d="M239.7,362.81l1.34,1.46a.18.18,0,0,0,.18.05l3-.81a.18.18,0,0,0,.12-.23.18.18,0,0,0-.05-.08l-1.51-1.26a.21.21,0,0,0-.15-.05l-2.8.63a.17.17,0,0,0-.15.2A.16.16,0,0,0,239.7,362.81Z" transform="translate(-47.73 -61.21)"/><path d="M223.46,361.22l1.48,1.58a.22.22,0,0,0,.17.05l3.2-.75a.17.17,0,0,0,.14-.2.21.21,0,0,0-.06-.1l-1.68-1.58a.16.16,0,0,0-.16,0l-3,.74a.18.18,0,0,0-.13.21A.41.41,0,0,0,223.46,361.22Z" transform="translate(-47.73 -61.21)"/><path d="M219.18,362.26l1.4,1.51a.2.2,0,0,0,.21.06l3.1-.7a.22.22,0,0,0,.16-.27.17.17,0,0,0-.06-.1l-1.6-1.52a.23.23,0,0,0-.21-.05l-2.91.7a.23.23,0,0,0-.15.28A.24.24,0,0,0,219.18,362.26Z" transform="translate(-47.73 -61.21)"/><path d="M214.61,365.81l1.06,1.69a.21.21,0,0,0,.23.1l3.58-.8a.2.2,0,0,0,.17-.25.24.24,0,0,0,0-.09l-1.19-1.64a.22.22,0,0,0-.22-.09l-3.46.74a.23.23,0,0,0-.17.27Z" transform="translate(-47.73 -61.21)"/><path d="M191.15,366.44l3.54-.82a.2.2,0,0,1,.21.08l.62.81a.21.21,0,0,1,0,.29l-.08,0-3.66.85a.2.2,0,0,1-.22-.1l-.5-.85a.21.21,0,0,1,.07-.28Z" transform="translate(-47.73 -61.21)"/><path d="M196,365.38l3.5-.82a.2.2,0,0,1,.21.08l.62.81a.21.21,0,0,1,0,.29l-.08,0-3.66.85a.2.2,0,0,1-.22-.09l-.5-.86a.2.2,0,0,1,.08-.27A.16.16,0,0,1,196,365.38Z" transform="translate(-47.73 -61.21)"/><path d="M200.72,364.37l3.53-.82a.21.21,0,0,1,.21.07l.62.82a.22.22,0,0,1,0,.29l-.09,0-3.66.86a.2.2,0,0,1-.22-.09l-.5-.86a.2.2,0,0,1,.08-.28Z" transform="translate(-47.73 -61.21)"/><path d="M205.3,363.33l3.54-.82a.2.2,0,0,1,.21.08l.62.81a.21.21,0,0,1,0,.29l-.07,0-3.67.85a.21.21,0,0,1-.23-.1l-.49-.85a.2.2,0,0,1,.09-.28A.05.05,0,0,1,205.3,363.33Z" transform="translate(-47.73 -61.21)"/><path d="M210,362.29l3.5-.81a.24.24,0,0,1,.22.09l.6.79a.21.21,0,0,1,0,.31l-.08,0-3.63.84a.2.2,0,0,1-.24-.1l-.49-.83a.22.22,0,0,1,.09-.3Z" transform="translate(-47.73 -61.21)"/><path d="M214.46,361.36l3.5-.82a.23.23,0,0,1,.23.08l.6.8a.22.22,0,0,1,0,.3l-.09,0-3.63.85a.22.22,0,0,1-.24-.11l-.48-.82a.22.22,0,0,1,.1-.3Z" transform="translate(-47.73 -61.21)"/><path d="M218.89,360.43l3.24-.78a.21.21,0,0,1,.21.06l.63.66a.22.22,0,0,1,0,.31.16.16,0,0,1-.09.05l-3.2.81a.2.2,0,0,1-.21-.06l-.7-.7a.22.22,0,0,1,.05-.31Z" transform="translate(-47.73 -61.21)"/><path d="M223.18,359.44l3.34-.81a.18.18,0,0,1,.17.05l.7.74a.16.16,0,0,1,0,.23.14.14,0,0,1-.09.05l-3.3.84a.22.22,0,0,1-.17-.05l-.74-.75a.18.18,0,0,1,0-.25Z" transform="translate(-47.73 -61.21)"/><path d="M227.47,358.44l3.34-.82a.16.16,0,0,1,.17.05l.7.7a.2.2,0,0,1,0,.25l-.09.05-3.29.83a.17.17,0,0,1-.17-.05l-.7-.75a.16.16,0,0,1,0-.24Z" transform="translate(-47.73 -61.21)"/><path d="M231.75,357.55l3.34-.81a.21.21,0,0,1,.17.05l.7.74a.17.17,0,0,1,0,.25l-.07,0-3.27.83a.18.18,0,0,1-.17,0l-.73-.74a.18.18,0,0,1,0-.26Z" transform="translate(-47.73 -61.21)"/><path d="M235.81,356.58l3.44-.83a.13.13,0,0,1,.13,0l.77.81a.13.13,0,0,1,0,.18s0,0-.07,0l-3.39.85a.12.12,0,0,1-.13,0l-.81-.82a.14.14,0,0,1,0-.19Z" transform="translate(-47.73 -61.21)"/><path d="M239.92,355.71l3.44-.84a.11.11,0,0,1,.12,0l.77.8a.14.14,0,0,1,0,.18.13.13,0,0,1-.07,0l-3.4.87a.13.13,0,0,1-.13,0l-.81-.82a.14.14,0,0,1,0-.19A.12.12,0,0,1,239.92,355.71Z" transform="translate(-47.73 -61.21)"/><path d="M244,354.77l3.19-.7a.13.13,0,0,1,.13.05l.62.75a.14.14,0,0,1,0,.18l0,0-3,.79a.12.12,0,0,1-.13,0l-.81-.82a.13.13,0,0,1,0-.18A.11.11,0,0,1,244,354.77Z" transform="translate(-47.73 -61.21)"/><path d="M247.91,353.87l3.18-.7a.14.14,0,0,1,.14,0l.61.76a.15.15,0,0,1,0,.19l0,0-3,.79a.16.16,0,0,1-.13,0l-.8-.83a.14.14,0,0,1,0-.19A.19.19,0,0,1,247.91,353.87Z" transform="translate(-47.73 -61.21)"/><path d="M193.63,370.65l1.18,1.67a.2.2,0,0,0,.21.09l6.12-1.44a.21.21,0,0,0,.16-.24l0-.08-1.3-1.71a.19.19,0,0,0-.21-.07l-6,1.46a.21.21,0,0,0-.15.26Z" transform="translate(-47.73 -61.21)"/><path d="M195.5,372.9l1.17,1.86a.22.22,0,0,0,.22.09l7.4-1.76a.21.21,0,0,0,.16-.24.14.14,0,0,0,0-.08L202.94,371a.21.21,0,0,0-.21-.07l-7.1,1.71a.21.21,0,0,0-.16.24Z" transform="translate(-47.73 -61.21)"/><path d="M197.16,375.36l1.4,2a.2.2,0,0,0,.22.08l9.8-2.42a.21.21,0,0,0,.14-.26.15.15,0,0,0,0-.07l-1.58-2a.2.2,0,0,0-.21-.08l-9.68,2.43a.2.2,0,0,0-.09.27Z" transform="translate(-47.73 -61.21)"/><path d="M219.59,373.15l1.8,2.16a.19.19,0,0,0,.21.07L243.17,370a.21.21,0,0,0,.16-.26.17.17,0,0,0-.06-.1l-2.2-2.19a.21.21,0,0,0-.21-.06l-21.15,5.41a.21.21,0,0,0-.16.26A.19.19,0,0,0,219.59,373.15Z" transform="translate(-47.73 -61.21)"/><path d="M241.85,367.57l2.1,2.1a.18.18,0,0,0,.18.05l4.42-1.18a.19.19,0,0,0,.12-.22.18.18,0,0,0,0-.08l-2.19-2.15a.2.2,0,0,0-.17,0l-4.33,1.25a.19.19,0,0,0-.1.24Z" transform="translate(-47.73 -61.21)"/><path d="M252.52,366.24l1,1a.11.11,0,0,0,.12,0l3.27-.88a.13.13,0,0,0,.1-.15.16.16,0,0,0,0-.07l-1.16-1.1a.15.15,0,0,0-.13,0l-3.07,1a.12.12,0,0,0-.06.18Z" transform="translate(-47.73 -61.21)"/><path d="M255.31,364.06l1.15,1.2a.14.14,0,0,0,.14,0l3-1.05a.12.12,0,0,0,.09-.15.09.09,0,0,0,0-.06l-1.15-1a.13.13,0,0,0-.12,0l-3,.85a.14.14,0,0,0,0,.18Z" transform="translate(-47.73 -61.21)"/><path d="M257.53,366.14l-.83-.7a.13.13,0,0,1,0-.18l0,0,3-1a.15.15,0,0,1,.13,0l.94.91a.13.13,0,0,1,0,.18l-.06,0-3.11.81Z" transform="translate(-47.73 -61.21)"/><path d="M260.6,364.3c.26.24.7.74.88.91a.17.17,0,0,0,.14,0l3.11-.85a.13.13,0,0,0,.09-.16s0,0,0-.06l-1.11-1a.11.11,0,0,0-.13,0l-2.89.93a.11.11,0,0,0-.07.16A0,0,0,0,0,260.6,364.3Z" transform="translate(-47.73 -61.21)"/><path d="M251.85,362.32l1.67,1.61a.11.11,0,0,0,.12,0l8-2.1a.14.14,0,0,0,.09-.17l0-.06-2-1.61a.09.09,0,0,0-.12,0l-7.75,2.1a.12.12,0,0,0-.08.16Z" transform="translate(-47.73 -61.21)"/><path d="M251.3,359.84l1.73,1.54h.12l6-1.4a.15.15,0,0,0,.1-.17.15.15,0,0,0-.05-.06l-2-1.66a.11.11,0,0,0-.11,0l-5.79,1.51a.14.14,0,0,0-.12.15A.15.15,0,0,0,251.3,359.84Z" transform="translate(-47.73 -61.21)"/><path d="M251.86,357.2l1.63,1.46a.13.13,0,0,0,.12,0l3.1-.7a.14.14,0,0,0,.1-.16.12.12,0,0,0-.05-.07l-1.93-1.63a.13.13,0,0,0-.12,0l-2.8.89a.15.15,0,0,0-.08.18Z" transform="translate(-47.73 -61.21)"/><path d="M247.61,355.76l1.57,1.43a.13.13,0,0,0,.12,0l4.9-1.17a.13.13,0,0,0,.1-.15.12.12,0,0,0-.05-.07l-1.87-1.58a.24.24,0,0,0-.12,0l-4.63,1.31a.13.13,0,0,0-.06.18Z" transform="translate(-47.73 -61.21)"/></g><path class="cls-19" d="M192.08,367.6l1.07,1.72a.2.2,0,0,0,.22.09l3.61-.8a.21.21,0,0,0,.15-.26.09.09,0,0,0,0-.06l-1.19-1.69a.22.22,0,0,0-.21-.09l-3.5.75a.2.2,0,0,0-.16.25A.18.18,0,0,0,192.08,367.6Z" transform="translate(-47.73 -61.21)"/><path class="cls-19" d="M196.8,366.6l1.07,1.72a.19.19,0,0,0,.22.09l3.61-.8a.22.22,0,0,0,.12-.28l0,0-1.2-1.67a.21.21,0,0,0-.21-.07l-3.5.74a.22.22,0,0,0-.1.28Z" transform="translate(-47.73 -61.21)"/><path class="cls-19" d="M201.39,365.61l1.07,1.72a.18.18,0,0,0,.22.09l3.61-.8a.21.21,0,0,0,.16-.24.3.3,0,0,0,0-.08l-1.19-1.67a.24.24,0,0,0-.21-.08l-3.5.75a.21.21,0,0,0-.15.25S201.37,365.59,201.39,365.61Z" transform="translate(-47.73 -61.21)"/><path class="cls-19" d="M205.9,364.64l1,1.69a.21.21,0,0,0,.23.1l3.59-.8a.22.22,0,0,0,.17-.25.36.36,0,0,0,0-.09l-1.18-1.64a.24.24,0,0,0-.23-.09l-3.45.74a.22.22,0,0,0-.17.27A.11.11,0,0,0,205.9,364.64Z" transform="translate(-47.73 -61.21)"/><path class="cls-19" d="M205.53,367.3,206.6,369a.24.24,0,0,0,.23.09l3.61-.81a.21.21,0,0,0,.15-.25l0-.07-1.2-1.66a.2.2,0,0,0-.21-.09l-3.5.75a.21.21,0,0,0-.14.26Z" transform="translate(-47.73 -61.21)"/><path class="cls-19" d="M200.86,368.26l1.07,1.72a.22.22,0,0,0,.21.1l3.62-.81a.21.21,0,0,0,.15-.25l0-.07-1.2-1.65a.21.21,0,0,0-.21-.09L201,368a.22.22,0,0,0-.13.26Z" transform="translate(-47.73 -61.21)"/><path class="cls-19" d="M203.9,370.38,205,372.1a.2.2,0,0,0,.22.09l3.62-.8a.22.22,0,0,0,.15-.26l0-.07-1.2-1.66a.2.2,0,0,0-.21-.08l-3.5.75a.21.21,0,0,0-.15.25Z" transform="translate(-47.73 -61.21)"/><path class="cls-19" d="M208.21,372.2l1.07,1.73a.2.2,0,0,0,.21.09l3.62-.81a.2.2,0,0,0,.15-.25.11.11,0,0,0,0-.07l-1.2-1.66a.21.21,0,0,0-.21-.09l-3.5.75a.21.21,0,0,0-.14.25A.09.09,0,0,0,208.21,372.2Z" transform="translate(-47.73 -61.21)"/><path class="cls-19" d="M209,375.23l1.73,2.16a.19.19,0,0,0,.21.07l3.64-.94a.21.21,0,0,0,.15-.25.2.2,0,0,0,0-.08L212.85,374a.21.21,0,0,0-.21-.07l-3.58,1a.22.22,0,0,0-.15.26A.25.25,0,0,0,209,375.23Z" transform="translate(-47.73 -61.21)"/><path class="cls-19" d="M213.7,374l1.77,2.24a.25.25,0,0,0,.22.07l4.75-1.32a.21.21,0,0,0,.1-.33l-1.79-2.18a.18.18,0,0,0-.21-.07l-4.73,1.27a.21.21,0,0,0-.15.25A.16.16,0,0,0,213.7,374Z" transform="translate(-47.73 -61.21)"/><path class="cls-19" d="M204.29,376.4l1.73,2.16a.22.22,0,0,0,.22.07l3.64-.94a.21.21,0,0,0,.15-.25.22.22,0,0,0-.05-.08l-1.78-2.19a.21.21,0,0,0-.21-.07l-3.59,1a.22.22,0,0,0-.11.33Z" transform="translate(-47.73 -61.21)"/><path class="cls-19" d="M199.38,377.65l1.73,2.17a.21.21,0,0,0,.21.07L205,379a.21.21,0,0,0,.14-.26.09.09,0,0,0,0-.07l-1.79-2.19a.21.21,0,0,0-.21-.07l-3.59,1a.2.2,0,0,0-.14.25A.16.16,0,0,0,199.38,377.65Z" transform="translate(-47.73 -61.21)"/><path class="cls-19" d="M210.42,363.57l1.05,1.71a.24.24,0,0,0,.24.09l3.58-.79a.23.23,0,0,0,.16-.28.11.11,0,0,0,0-.07l-1.17-1.64a.23.23,0,0,0-.23-.09l-3.5.75a.22.22,0,0,0-.12.29Z" transform="translate(-47.73 -61.21)"/><path class="cls-19" d="M210.13,366.22l1.06,1.7a.21.21,0,0,0,.23.1l3.58-.8a.2.2,0,0,0,.17-.25.24.24,0,0,0,0-.09L214,365.24a.22.22,0,0,0-.22-.09l-3.5.74a.22.22,0,0,0-.13.29Z" transform="translate(-47.73 -61.21)"/><path class="cls-19" d="M214.81,362.58l1.05,1.7a.23.23,0,0,0,.24.1l3.59-.8a.22.22,0,0,0,.15-.27.09.09,0,0,0,0-.07l-1.17-1.64a.23.23,0,0,0-.23-.09l-3.46.74a.23.23,0,0,0-.17.27Z" transform="translate(-47.73 -61.21)"/><path class="cls-19" d="M227.64,359.78l1.5,1.58a.14.14,0,0,0,.16.05l3.2-.74a.17.17,0,0,0,.13-.21.12.12,0,0,0,0-.08l-1.68-1.59a.17.17,0,0,0-.16-.05l-3,.75a.17.17,0,0,0-.13.22A.15.15,0,0,0,227.64,359.78Z" transform="translate(-47.73 -61.21)"/><path class="cls-19" d="M231.75,358.84l1.49,1.57a.18.18,0,0,0,.17.06l3.19-.75a.16.16,0,0,0,.14-.2.19.19,0,0,0-.05-.1L235,357.84a.16.16,0,0,0-.16,0l-3,.74a.17.17,0,0,0-.13.21A.18.18,0,0,0,231.75,358.84Z" transform="translate(-47.73 -61.21)"/><path class="cls-19" d="M227.74,362.34l1.49,1.58a.14.14,0,0,0,.16.05l3.2-.74a.16.16,0,0,0,.13-.21.12.12,0,0,0-.05-.09L231,361.35a.18.18,0,0,0-.17,0l-3,.74a.18.18,0,0,0-.12.23A.21.21,0,0,0,227.74,362.34Z" transform="translate(-47.73 -61.21)"/><path class="cls-19" d="M223.5,363.32l1.4,1.51a.2.2,0,0,0,.21.06l3.09-.7a.21.21,0,0,0,.17-.26.24.24,0,0,0-.06-.11l-1.6-1.51a.21.21,0,0,0-.21-.06l-2.92.7a.23.23,0,0,0-.13.29A.22.22,0,0,0,223.5,363.32Z" transform="translate(-47.73 -61.21)"/><path class="cls-19" d="M226.73,368.08l1.4,1.51a.21.21,0,0,0,.21.07l3.09-.7a.23.23,0,0,0,.17-.27.24.24,0,0,0-.06-.11l-1.61-1.51a.21.21,0,0,0-.2-.05l-2.92.7a.21.21,0,0,0-.14.27A.15.15,0,0,0,226.73,368.08Z" transform="translate(-47.73 -61.21)"/><path class="cls-19" d="M222.34,369.08l1.4,1.51a.2.2,0,0,0,.21.06L227,370a.23.23,0,0,0,.17-.27.24.24,0,0,0-.06-.11l-1.55-1.52a.21.21,0,0,0-.2-.05l-2.92.7a.21.21,0,0,0-.21.22A.2.2,0,0,0,222.34,369.08Z" transform="translate(-47.73 -61.21)"/><path class="cls-19" d="M217.9,370.18l1.4,1.51a.23.23,0,0,0,.21.07l3.1-.7a.21.21,0,0,0,.16-.26.2.2,0,0,0-.06-.11l-1.6-1.52a.23.23,0,0,0-.21-.05l-2.92.7a.23.23,0,0,0-.13.29Z" transform="translate(-47.73 -61.21)"/><path class="cls-19" d="M213.17,371.11l1.44,1.54a.21.21,0,0,0,.2.05l3.13-.7a.21.21,0,0,0,.15-.24.24.24,0,0,0-.06-.11l-1.63-1.55a.22.22,0,0,0-.19-.06l-2.94.7a.2.2,0,0,0-.19.22A.19.19,0,0,0,213.17,371.11Z" transform="translate(-47.73 -61.21)"/><path class="cls-19" d="M222.29,366.32l1.4,1.51a.19.19,0,0,0,.2.06l3.1-.7a.22.22,0,0,0,.16-.27.17.17,0,0,0-.06-.1l-1.59-1.52a.23.23,0,0,0-.21-.05l-2.92.7a.24.24,0,0,0-.13.29A.22.22,0,0,0,222.29,366.32Z" transform="translate(-47.73 -61.21)"/><path class="cls-19" d="M218,367.3l1.4,1.51a.21.21,0,0,0,.21.06l3.1-.7a.22.22,0,0,0,.17-.25.24.24,0,0,0-.07-.12l-1.6-1.51a.25.25,0,0,0-.2-.06l-2.92.7a.23.23,0,0,0-.14.29A.56.56,0,0,0,218,367.3Z" transform="translate(-47.73 -61.21)"/><path class="cls-19" d="M213.43,368.29l1.4,1.51a.21.21,0,0,0,.2.06l3.1-.7a.21.21,0,0,0,.16-.26.24.24,0,0,0-.06-.11l-1.6-1.51a.24.24,0,0,0-.2-.06l-2.92.7a.22.22,0,0,0-.14.27A.21.21,0,0,0,213.43,368.29Z" transform="translate(-47.73 -61.21)"/><path class="cls-19" d="M208.73,369.4l1.44,1.53a.19.19,0,0,0,.2.06l3.13-.7a.21.21,0,0,0,.16-.24.24.24,0,0,0-.06-.11L212,368.4a.22.22,0,0,0-.19,0l-2.95.7a.21.21,0,0,0-.15.25A.19.19,0,0,0,208.73,369.4Z" transform="translate(-47.73 -61.21)"/><path class="cls-19" d="M226.71,365.28l1.4,1.51a.23.23,0,0,0,.21.07l3.09-.7a.22.22,0,0,0,.17-.26.24.24,0,0,0-.06-.11l-1.61-1.52a.24.24,0,0,0-.2,0l-2.92.7a.21.21,0,0,0-.14.27A.15.15,0,0,0,226.71,365.28Z" transform="translate(-47.73 -61.21)"/><path class="cls-19" d="M219.22,364.42l1.4,1.51a.25.25,0,0,0,.21.07l3.1-.7a.24.24,0,0,0,.16-.28.21.21,0,0,0-.06-.1l-1.6-1.51a.21.21,0,0,0-.2-.05l-2.92.7a.22.22,0,0,0-.13.28A.2.2,0,0,0,219.22,364.42Z" transform="translate(-47.73 -61.21)"/><path class="cls-19" d="M235.72,357.83l1.55,1.66a.14.14,0,0,0,.13,0l3.31-.76a.14.14,0,0,0,.09-.17l0-.06L239,356.88a.15.15,0,0,0-.12,0l-3.11.77a.13.13,0,0,0-.09.16A.09.09,0,0,0,235.72,357.83Z" transform="translate(-47.73 -61.21)"/><path class="cls-19" d="M239.71,357l1.56,1.65a.11.11,0,0,0,.12,0l3.31-.76a.13.13,0,0,0,.09-.16.09.09,0,0,0,0-.07L243,356a.12.12,0,0,0-.12,0l-3.11.77a.12.12,0,0,0-.1.14A.09.09,0,0,0,239.71,357Z" transform="translate(-47.73 -61.21)"/><path class="cls-19" d="M243.8,356l1.4,1.54a.15.15,0,0,0,.13,0l3.08-.84a.14.14,0,0,0,.09-.17l0-.06-1.59-1.34a.13.13,0,0,0-.12,0l-2.91.64a.13.13,0,0,0,0,.18Z" transform="translate(-47.73 -61.21)"/><path class="cls-19" d="M248.11,357.44l1.4,1.54a.17.17,0,0,0,.14,0l3.08-.84a.12.12,0,0,0,.09-.15.08.08,0,0,0,0-.07l-1.58-1.35a.24.24,0,0,0-.12,0l-2.91.65a.13.13,0,0,0,0,.18Z" transform="translate(-47.73 -61.21)"/><path class="cls-19" d="M247.59,360.23l1.36,1.46a.16.16,0,0,0,.17.05l3-.81a.18.18,0,0,0,.12-.22.22.22,0,0,0-.05-.08l-1.51-1.28a.19.19,0,0,0-.15,0l-2.8.62a.18.18,0,0,0-.12.23Z" transform="translate(-47.73 -61.21)"/><path class="cls-19" d="M244.09,363.8l1.35,1.46a.16.16,0,0,0,.17.05l3-.8a.18.18,0,0,0,.12-.23.22.22,0,0,0,0-.08l-1.51-1.28a.16.16,0,0,0-.15,0l-2.8.62a.17.17,0,0,0-.15.18A.16.16,0,0,0,244.09,363.8Z" transform="translate(-47.73 -61.21)"/><path class="cls-19" d="M239.87,364.88l1.35,1.47a.24.24,0,0,0,.18,0l3-.82a.18.18,0,0,0,.12-.22.22.22,0,0,0-.05-.08L242.93,364a.17.17,0,0,0-.15,0l-2.8.62a.17.17,0,0,0-.14.21A.11.11,0,0,0,239.87,364.88Z" transform="translate(-47.73 -61.21)"/><path class="cls-19" d="M248.06,362.74l1.35,1.46a.14.14,0,0,0,.17.05l3-.81a.17.17,0,0,0,.12-.21.11.11,0,0,0,0-.09l-1.5-1.27a.19.19,0,0,0-.16,0l-2.8.62a.18.18,0,0,0-.14.2A.1.1,0,0,0,248.06,362.74Z" transform="translate(-47.73 -61.21)"/><path class="cls-19" d="M247.37,365.9l2,1.83a.17.17,0,0,0,.17,0l2.94-.83a.18.18,0,0,0,.13-.22.16.16,0,0,0-.06-.08l-2.2-1.93a.17.17,0,0,0-.17,0l-2.8.93a.18.18,0,0,0-.11.22Z" transform="translate(-47.73 -61.21)"/><path class="cls-19" d="M240.24,359.42l1.4,1.54a.15.15,0,0,0,.13,0l3.08-.84a.13.13,0,0,0,.09-.17.08.08,0,0,0,0-.06l-1.59-1.34a.11.11,0,0,0-.11,0l-2.91.64a.13.13,0,0,0-.06.17Z" transform="translate(-47.73 -61.21)"/><path class="cls-19" d="M236.25,360.4l1.36,1.47a.21.21,0,0,0,.17.05l3-.82a.17.17,0,0,0,.12-.21.41.41,0,0,0-.05-.09l-1.51-1.27a.14.14,0,0,0-.15,0l-2.8.61a.19.19,0,0,0-.12.23Z" transform="translate(-47.73 -61.21)"/><path class="cls-19" d="M235.44,363.23l1.35,1.46a.16.16,0,0,0,.17.05l3-.81a.18.18,0,0,0,.11-.23.22.22,0,0,0-.05-.08l-1.51-1.26a.17.17,0,0,0-.15-.05l-2.8.63a.17.17,0,0,0-.15.19A.14.14,0,0,0,235.44,363.23Z" transform="translate(-47.73 -61.21)"/><path class="cls-19" d="M231.24,364.25l1.35,1.45a.19.19,0,0,0,.19.05l3-.8a.19.19,0,0,0,.12-.23.22.22,0,0,0-.05-.08l-1.51-1.28a.2.2,0,0,0-.15,0l-2.8.62a.19.19,0,0,0-.15.22Z" transform="translate(-47.73 -61.21)"/><path class="cls-19" d="M232,361.36l1.35,1.45a.18.18,0,0,0,.17.06l3-.81a.18.18,0,0,0,.12-.23.14.14,0,0,0-.05-.08l-1.51-1.27a.19.19,0,0,0-.15,0l-2.8.62a.18.18,0,0,0-.15.2A.24.24,0,0,0,232,361.36Z" transform="translate(-47.73 -61.21)"/><path class="cls-19" d="M235.51,365.83l1.35,1.46a.16.16,0,0,0,.17,0l3-.8a.18.18,0,0,0,.12-.23.22.22,0,0,0-.05-.08L238.56,365a.19.19,0,0,0-.15,0l-2.8.63a.17.17,0,0,0-.13.2Z" transform="translate(-47.73 -61.21)"/><path class="cls-19" d="M231.38,367l1.29,1.4a.22.22,0,0,0,.22.06l2.86-.78a.22.22,0,0,0,.16-.27.21.21,0,0,0-.08-.11l-1.4-1.2a.19.19,0,0,0-.19-.05l-2.71.6a.23.23,0,0,0-.19.26A.36.36,0,0,0,231.38,367Z" transform="translate(-47.73 -61.21)"/><path class="cls-19" d="M244.3,358.41l1.4,1.53a.12.12,0,0,0,.13,0l3.08-.84A.13.13,0,0,0,249,359a.1.1,0,0,0,0-.07l-1.59-1.33a.11.11,0,0,0-.11,0l-2.92.64a.13.13,0,0,0-.06.17Z" transform="translate(-47.73 -61.21)"/><path class="cls-19" d="M243.73,361.17l1.35,1.47a.19.19,0,0,0,.18.05l3-.81a.18.18,0,0,0,.12-.23.24.24,0,0,0-.06-.08l-1.5-1.27a.17.17,0,0,0-.15,0l-2.8.63a.17.17,0,0,0-.15.2A.12.12,0,0,0,243.73,361.17Z" transform="translate(-47.73 -61.21)"/><path class="cls-19" d="M239.7,362.28l1.34,1.46a.18.18,0,0,0,.18.05l3-.81a.18.18,0,0,0,.13-.21.15.15,0,0,0-.06-.09l-1.51-1.28a.2.2,0,0,0-.15,0l-2.8.62a.17.17,0,0,0-.15.2A.2.2,0,0,0,239.7,362.28Z" transform="translate(-47.73 -61.21)"/><path class="cls-19" d="M223.46,360.68l1.48,1.59a.21.21,0,0,0,.17.05l3.2-.74a.18.18,0,0,0,.14-.21.18.18,0,0,0-.06-.09l-1.68-1.58a.16.16,0,0,0-.16-.05l-3,.75a.16.16,0,0,0-.13.19A.13.13,0,0,0,223.46,360.68Z" transform="translate(-47.73 -61.21)"/><path class="cls-19" d="M219.18,361.73l1.4,1.51a.21.21,0,0,0,.21.07l3.1-.7a.22.22,0,0,0,.16-.26.17.17,0,0,0-.06-.11l-1.6-1.51a.2.2,0,0,0-.21-.06l-2.91.7a.23.23,0,0,0-.14.29A.18.18,0,0,0,219.18,361.73Z" transform="translate(-47.73 -61.21)"/><path class="cls-19" d="M214.61,365.28l1.06,1.7a.23.23,0,0,0,.23.09l3.58-.79a.23.23,0,0,0,.17-.27l0-.08-1.19-1.64a.22.22,0,0,0-.22-.09l-3.46.75a.21.21,0,0,0-.17.25Z" transform="translate(-47.73 -61.21)"/><path class="cls-19" d="M191.15,365.9l3.54-.82a.2.2,0,0,1,.21.08l.62.82a.2.2,0,0,1,0,.28l-.08,0-3.66.85a.2.2,0,0,1-.22-.1l-.5-.84a.21.21,0,0,1,.08-.29Z" transform="translate(-47.73 -61.21)"/><path class="cls-19" d="M196,364.85l3.5-.82a.2.2,0,0,1,.21.08l.62.82a.2.2,0,0,1,0,.28.2.2,0,0,1-.08,0l-3.66.85a.2.2,0,0,1-.22-.1l-.5-.85a.21.21,0,0,1,.08-.28Z" transform="translate(-47.73 -61.21)"/><path class="cls-19" d="M200.72,363.84l3.53-.82a.2.2,0,0,1,.21.08l.62.81a.21.21,0,0,1,0,.29.2.2,0,0,1-.08,0l-3.66.85a.2.2,0,0,1-.22-.09l-.5-.86a.22.22,0,0,1,.07-.28Z" transform="translate(-47.73 -61.21)"/><path class="cls-19" d="M205.3,362.8l3.5-.82a.2.2,0,0,1,.21.08l.62.81a.22.22,0,0,1,0,.29l-.08,0-3.66.85a.21.21,0,0,1-.23-.1l-.49-.85a.2.2,0,0,1,.09-.28Z" transform="translate(-47.73 -61.21)"/><path class="cls-19" d="M210,361.77l3.5-.81a.22.22,0,0,1,.22.07l.6.8a.21.21,0,0,1,0,.31.19.19,0,0,1-.08,0l-3.63.85a.22.22,0,0,1-.24-.1l-.49-.83a.23.23,0,0,1,.08-.3Z" transform="translate(-47.73 -61.21)"/><path class="cls-19" d="M214.46,360.82,218,360a.21.21,0,0,1,.23.09l.6.79a.22.22,0,0,1,0,.3l-.09,0-3.63.85a.24.24,0,0,1-.24-.11l-.48-.82a.23.23,0,0,1,.1-.31Z" transform="translate(-47.73 -61.21)"/><path class="cls-19" d="M218.89,359.91l3.24-.79a.21.21,0,0,1,.21.06l.63.7a.22.22,0,0,1,0,.31.16.16,0,0,1-.09.05l-3.2.76a.2.2,0,0,1-.21-.06l-.7-.7a.21.21,0,0,1,.05-.3Z" transform="translate(-47.73 -61.21)"/><path class="cls-19" d="M223.18,358.9l3.34-.81a.16.16,0,0,1,.17.05l.7.73a.18.18,0,0,1,0,.25.12.12,0,0,1-.08,0L224,360a.16.16,0,0,1-.17-.05l-.74-.75a.18.18,0,0,1,0-.25Z" transform="translate(-47.73 -61.21)"/><path class="cls-19" d="M227.47,357.9l3.34-.81a.22.22,0,0,1,.17.05l.7.74a.18.18,0,0,1,0,.24.2.2,0,0,1-.09.05l-3.29.83a.2.2,0,0,1-.17-.05l-.7-.75a.17.17,0,0,1,0-.25S227.44,357.92,227.47,357.9Z" transform="translate(-47.73 -61.21)"/><path class="cls-19" d="M231.75,357l3.34-.81a.16.16,0,0,1,.17,0l.7.73a.18.18,0,0,1,0,.25l-.08,0-3.27.83a.18.18,0,0,1-.17-.05l-.73-.75a.17.17,0,0,1,0-.24Z" transform="translate(-47.73 -61.21)"/><path class="cls-19" d="M235.81,356.06l3.44-.84a.13.13,0,0,1,.13,0l.77.81a.14.14,0,0,1,0,.19l-.06,0-3.39.85a.15.15,0,0,1-.13,0l-.81-.83a.13.13,0,0,1,0-.18S235.79,356.06,235.81,356.06Z" transform="translate(-47.73 -61.21)"/><path class="cls-19" d="M239.92,355.17l3.44-.83a.11.11,0,0,1,.12,0l.77.8a.14.14,0,0,1,0,.19l-.06,0-3.4.84a.13.13,0,0,1-.13,0l-.81-.82a.14.14,0,0,1,0-.19Z" transform="translate(-47.73 -61.21)"/><path class="cls-19" d="M244,354.24l3.19-.7a.11.11,0,0,1,.13,0l.62.75a.14.14,0,0,1,0,.19l0,0-3,.8a.2.2,0,0,1-.13,0l-.81-.83a.13.13,0,0,1,0-.18A.14.14,0,0,1,244,354.24Z" transform="translate(-47.73 -61.21)"/><path class="cls-19" d="M247.91,353.34l3.18-.7a.18.18,0,0,1,.14,0l.61.76a.14.14,0,0,1,0,.18l-.06,0-3,.79a.14.14,0,0,1-.13,0l-.8-.81a.14.14,0,0,1,.06-.25Z" transform="translate(-47.73 -61.21)"/><path class="cls-19" d="M193.63,370.1l1.18,1.67a.21.21,0,0,0,.21.09l6.12-1.44a.21.21,0,0,0,.16-.24.2.2,0,0,0,0-.08l-1.3-1.71a.2.2,0,0,0-.21-.08l-6,1.47a.21.21,0,0,0-.15.25Z" transform="translate(-47.73 -61.21)"/><path class="cls-19" d="M195.5,372.37l1.17,1.87a.24.24,0,0,0,.22.09l7.4-1.77a.2.2,0,0,0,.11-.33l-1.46-1.81a.21.21,0,0,0-.21-.07l-7.1,1.71a.21.21,0,0,0-.16.24Z" transform="translate(-47.73 -61.21)"/><path class="cls-19" d="M197.16,374.84l1.4,2a.2.2,0,0,0,.22.08l9.8-2.42a.22.22,0,0,0,.15-.25l0-.08-1.58-2a.21.21,0,0,0-.21-.07l-9.68,2.43a.2.2,0,0,0-.09.28Z" transform="translate(-47.73 -61.21)"/><path class="cls-19" d="M219.59,372.63l1.8,2.15a.19.19,0,0,0,.21.07l21.57-5.37a.22.22,0,0,0,.15-.28.31.31,0,0,0,0-.1l-2.2-2.18a.21.21,0,0,0-.21-.06l-21.15,5.41a.23.23,0,0,0-.16.28A.59.59,0,0,0,219.59,372.63Z" transform="translate(-47.73 -61.21)"/><path class="cls-19" d="M241.85,367.05l2.1,2.1a.2.2,0,0,0,.18,0l4.42-1.18a.19.19,0,0,0,.12-.22.14.14,0,0,0,0-.08l-2.19-2.14a.16.16,0,0,0-.17-.05l-4.34,1.2a.19.19,0,0,0-.13.23A.21.21,0,0,0,241.85,367.05Z" transform="translate(-47.73 -61.21)"/><path class="cls-19" d="M252.52,365.71l1,1a.11.11,0,0,0,.12,0l3.27-.88a.13.13,0,0,0,.09-.16.09.09,0,0,0,0-.06l-1.16-1.09a.13.13,0,0,0-.13,0l-3.07,1a.14.14,0,0,0-.09.17Z" transform="translate(-47.73 -61.21)"/><path class="cls-19" d="M255.31,363.53l1.15,1.21a.17.17,0,0,0,.14,0l3-1a.13.13,0,0,0,.08-.17.09.09,0,0,0,0,0l-1.15-1a.09.09,0,0,0-.12,0l-3,.84a.15.15,0,0,0,0,.19Z" transform="translate(-47.73 -61.21)"/><path class="cls-19" d="M257.53,365.61l-.83-.66a.15.15,0,0,1-.05-.19.1.1,0,0,1,.05,0l3-1a.15.15,0,0,1,.13,0l.94.91a.14.14,0,0,1,0,.19l-.05,0-3.11.8Z" transform="translate(-47.73 -61.21)"/><path class="cls-19" d="M260.6,363.8c.26.25.7.74.88.91a.14.14,0,0,0,.14,0l3.11-.84a.13.13,0,0,0,.09-.16s0,0,0-.06l-1.11-1a.15.15,0,0,0-.13,0l-2.89.93a.14.14,0,0,0-.07.18Z" transform="translate(-47.73 -61.21)"/><path class="cls-19" d="M251.85,361.8l1.67,1.61a.13.13,0,0,0,.12,0l8-2.1a.14.14,0,0,0,.1-.16s0-.06,0-.07l-2-1.61a.13.13,0,0,0-.12,0l-7.75,2.1a.11.11,0,0,0-.1.15A.12.12,0,0,0,251.85,361.8Z" transform="translate(-47.73 -61.21)"/><path class="cls-19" d="M251.3,359.31l1.73,1.53a.09.09,0,0,0,.12,0l6-1.4a.13.13,0,0,0,.1-.15.12.12,0,0,0-.05-.07l-2-1.66a.11.11,0,0,0-.11,0l-5.79,1.56a.12.12,0,0,0-.07.17Z" transform="translate(-47.73 -61.21)"/><path class="cls-19" d="M251.86,356.67l1.63,1.47h.12l3.1-.7a.13.13,0,0,0,.1-.15.1.1,0,0,0-.05-.08l-1.93-1.66a.09.09,0,0,0-.12,0l-2.8.9a.12.12,0,0,0-.1.14A.14.14,0,0,0,251.86,356.67Z" transform="translate(-47.73 -61.21)"/><path class="cls-19" d="M247.61,355.22l1.57,1.44a.13.13,0,0,0,.12,0l4.9-1.16a.14.14,0,0,0,.09-.17.08.08,0,0,0,0-.06l-1.87-1.58a.13.13,0,0,0-.12,0l-4.63,1.3a.14.14,0,0,0-.07.18Z" transform="translate(-47.73 -61.21)"/></svg>