<?xml version="1.0" encoding="utf-8"?>
<!-- Generator: Adobe Illustrator 21.1.0, SVG Export Plug-In . SVG Version: 6.00 Build 0)  -->
<svg version="1.1" id="Layer_1" xmlns="http://www.w3.org/2000/svg" xmlns:xlink="http://www.w3.org/1999/xlink" x="0px" y="0px"
	 viewBox="0 0 80 80" style="enable-background:new 0 0 80 80;" xml:space="preserve">
<style type="text/css">
	.st0{fill:#E23237;}
	.st1{fill:#B52E31;}
	.st2{fill:#FFFFFF;}
</style>
<g id="Pipelines">
	<g id="NL_pipeline_actions" transform="translate(-917.000000, -759.000000)">
		<g id="icons_x2F_actions_x2F_angular" transform="translate(896.000000, 739.000000)">
			<g id="Group-2" transform="translate(21.000000, 20.000000)">
				<polygon id="Shape" class="st0" points="21,26.7 39.5,20.1 58.5,26.6 55.4,51.1 39.5,59.9 23.8,51.2 				"/>
				<polygon id="Shape_1_" class="st1" points="58.5,26.6 39.5,20.1 39.5,59.9 55.4,51.1 				"/>
				<path id="Shape_2_" class="st2" d="M39.5,24.7L39.5,24.7L28,50.4l4.3-0.1l2.3-5.8h4.9l0,0H45l2.5,5.9l4.1,0.1L39.5,24.7
					L39.5,24.7z M39.6,33l3.9,8.1h-3.7h-0.2h-3.4L39.6,33L39.6,33z"/>
			</g>
		</g>
	</g>
</g>
</svg>
