<?xml version="1.0" encoding="utf-8"?>
<!-- Generator: Adobe Illustrator 21.1.0, SVG Export Plug-In . SVG Version: 6.00 Build 0)  -->
<svg version="1.1" id="Layer_1" xmlns="http://www.w3.org/2000/svg" xmlns:xlink="http://www.w3.org/1999/xlink" x="0px" y="0px"
	 viewBox="0 0 80 80" enable-background="new 0 0 80 80" xml:space="preserve">
<g id="Pipelines">
	<g id="NL_pipeline_actions" transform="translate(-480.000000, -1051.000000)">
		<g id="icons_x2F_actions_x2F_azure" transform="translate(464.000000, 1027.000000)">
			<rect id="Rectangle-10-Copy" x="16" y="24" fill="none" width="80" height="80"/>
			<g id="Group-2" transform="translate(16.000000, 24.000000)">
				<path id="Shape" fill="#008CDB" d="M44.5,41.8c-1.2,0-2.3,0.7-2.9,1.8H23.9c-3,0-5.4-2.5-5.4-5.5s2.4-5.5,5.4-5.5h2.5
					c0-0.6,0.3-1.2,0.5-1.8c0.1-0.1,0.1-0.5,0.3-0.6c1.2-2.3,3.6-3.7,6.3-3.7c2.4,0,4.5,1.2,5.9,3c0.7-0.3,1.5-0.6,2.4-0.7
					c-1.7-2.9-4.7-4.7-8.3-4.7c-4.1,0-7.5,2.6-9,6.2h-0.6c-4.3,0-7.9,3.6-7.9,8.1s3.6,7.9,7.9,7.9h17.9c0.5,1.1,1.5,1.8,2.9,1.8
					c1.7,0,3-1.3,3-3.1C47.7,43,46.3,41.8,44.5,41.8z M54.4,35.7c-1.8-3.6-5.5-6.1-9.7-6.1c-5.3,0-9.6,3.7-10.7,8.7
					c-2.5,0.3-4.8,1.6-6.1,3.6h13.1c0.9-1.2,2.3-1.8,3.7-1.8c2.7,0,4.8,2.3,4.8,4.9s-2.3,4.9-4.8,4.9c-1.5,0-2.9-0.7-3.7-1.8H26.3
					c0.6,4.2,4.2,7.5,8.4,7.5h19.5c5.4,0,9.7-4.3,9.7-9.9S59.7,35.8,54.4,35.7z"/>
			</g>
		</g>
	</g>
</g>
</svg>
