<svg id="b0225cde-a2d2-4693-8ce5-502a1e8a6144" xmlns="http://www.w3.org/2000/svg" viewBox="0 0 1077.38 752.86"><defs><style>.cls-1{fill:#5333ed;}.cls-2{fill:#ff6584;}.cls-3{fill:#f2f2f2;}.cls-4{fill:#3f3d56;}.cls-5{fill:#a0616a;}.cls-6{opacity:0.1;isolation:isolate;}.cls-7{fill:#2f2e41;}.cls-8{fill:#575a89;}.cls-9{fill:#6c63ff;}.cls-10{fill:#fff;}.cls-11{fill:#57b894;}</style></defs><title>C</title><path class="cls-1" d="M327.1,135.38c112.8,0,162.9,46.2,162.9,120.6,0,40.8-23.1,72-55.8,88.5,36.6,13.8,64.2,49.2,64.2,90.3,0,74.4-49.5,120.6-160.5,120.6H138.7v-420Zm-74.4,93v69.9h71.7c31.5,0,47.4-11.7,47.4-35.1,0-23.1-15.9-34.8-47.1-34.8Zm0,162.3v72l78.9.3c32.7,0,49.5-12,49.5-36.3,0-23.7-16.8-36-49.5-36Z"/><circle class="cls-2" cx="368.21" cy="463.28" r="45"/><path class="cls-3" d="M502.21,541.05c0,58.48-34.76,78.9-77.65,78.9s-77.65-20.42-77.65-78.9,77.65-132.88,77.65-132.88S502.21,482.56,502.21,541.05Z"/><polygon class="cls-4" points="421.73 611 422.53 562.06 455.62 501.51 422.65 554.38 423.01 532.37 445.82 488.56 423.1 526.55 423.1 526.55 423.75 486.97 448.17 452.09 423.85 480.74 424.25 408.17 421.72 504.25 421.93 500.28 397.1 462.27 421.53 507.89 419.22 552.1 419.15 550.92 390.52 510.92 419.06 555.07 418.77 560.6 418.72 560.68 418.75 561.13 412.88 673.28 420.72 673.28 421.66 615.36 450.13 571.32 421.73 611"/><path class="cls-3" d="M904.21,574c0,43.42-25.81,58.58-57.65,58.58S788.91,617.38,788.91,574s57.65-98.65,57.65-98.65S904.21,530.54,904.21,574Z"/><polygon class="cls-4" points="844.46 625.9 845.05 589.56 869.62 544.61 845.14 583.86 845.41 567.52 862.34 535 845.48 563.2 845.48 563.2 845.96 533.81 864.09 507.92 846.03 529.19 846.33 475.31 844.46 546.64 844.61 543.7 826.17 515.48 844.31 549.35 842.6 582.17 842.54 581.3 821.29 551.6 842.48 584.37 842.26 588.48 842.23 588.54 842.24 588.88 837.88 672.14 843.71 672.14 844.41 629.13 865.55 596.44 844.46 625.9"/><ellipse class="cls-4" cx="577.1" cy="685.14" rx="455" ry="23"/><ellipse class="cls-4" cx="854.28" cy="723.14" rx="77.93" ry="3.94"/><ellipse class="cls-4" cx="358.33" cy="729.28" rx="178.04" ry="9"/><path class="cls-5" d="M580.52,254.59S547,283.24,544.56,290s-32.39,40.25-35.6,42.63-39.54,30.62-29.38,39.27S517.7,346.1,517.7,346.1s47-42.38,52.43-50.15,24.11-22.89,24.11-22.89Z"/><path class="cls-6" d="M580.52,254.59S547,283.24,544.56,290s-32.39,40.25-35.6,42.63-39.54,30.62-29.38,39.27S517.7,346.1,517.7,346.1s47-42.38,52.43-50.15,24.11-22.89,24.11-22.89Z"/><path class="cls-5" d="M581.71,439.78s-2,32-5,38-2,17-1,18,42,16,52,25,40,26,43,26,16,46,16,46l-48-36s-18-11-23-11-62-24-68-25,9-88,9-88Z"/><path class="cls-6" d="M581.71,439.78s-2,32-5,38-2,17-1,18,42,16,52,25,40,26,43,26,16,46,16,46l-48-36s-18-11-23-11-62-24-68-25,9-88,9-88Z"/><path class="cls-5" d="M522.71,439.78l-11,70,13,40s11,50,13,58,0,75,0,75,18-1,19-2,15-48,15-48-11-6-9-26-6.14-75.57-9.57-84.29,6.57-56.71,22.57-75.71S522.71,439.78,522.71,439.78Z"/><path class="cls-7" d="M565.71,633.78s-8,41-30,46c0,0-16,8-13,12s31,2,34,0,14-31,14-31l6,22,12-7-5-29S574.71,621.78,565.71,633.78Z"/><path class="cls-7" d="M536.71,330.78v48s-21,64-16,66,56,12,59,7,28,2,32-3,0-72-3-80-6-40-6-40Z"/><circle class="cls-5" cx="580.71" cy="160.78" r="32"/><path class="cls-5" d="M565.71,181.78s10,31-1,35,12,21,13,21,21-21,21-21l8-16s-10-17-5-28S565.71,181.78,565.71,181.78Z"/><path class="cls-8" d="M606.71,195.78a91.57,91.57,0,0,1-16,14c-9,6-24,12-24,9s4-7,0-7-15,9-15,11-7,21-13,24-12,23-12,30-5,54,5,57,16,7,23,4,11-7,20-5,23-3,28,1,15,2,17-1,13-112,9-114-13-12-15-15A74.94,74.94,0,0,0,606.71,195.78Z"/><path class="cls-7" d="M664.71,546.78s21,39,17,45-6,21-3,21,27-19,22-29-12-25-12-25l22,7,4-13-28-12S669.71,538.78,664.71,546.78Z"/><path class="cls-5" d="M608.71,291.78s3,44,7,50,13,50,13,54,1,50,14,47,2-46,2-46-6-63-9-72-4-33-4-33Z"/><path class="cls-7" d="M655,190.6c-6.49-9.77-11.85-25.48-17.63-39.32-1.87-4.48-3.58-9-5.26-13.59-3.38-9.19-18.09-21.06-37.35-21.06-22,0-39.86,11.08-39.86,20.38,0,7.68,12.2,14.16,28.87,16.17-5.85,13.08-9.38,27.58-9.38,37.42,0,22.26,18,12.84,40.3,12.84S667.36,209.14,655,190.6Z"/><path class="cls-8" d="M614.71,220.78s-21,37-20,52-4,30,4,30,34,0,36-4,1-51,0-57-5-23-5-23Z"/><path class="cls-4" d="M953,384.55H786.42a20.6,20.6,0,0,1-20.6-20.6V287.61a8.14,8.14,0,0,1,2.55-5.92L856.66,198a19,19,0,0,1,26.14,0L967,277.79a21.33,21.33,0,0,1,6.65,15.48V364A20.6,20.6,0,0,1,953,384.55Z"/><path class="cls-6" d="M765.82,288.86H971.91v67a28.73,28.73,0,0,1-28.73,28.73H794.55a28.73,28.73,0,0,1-28.73-28.73h0v-67Z"/><rect class="cls-9" x="792.88" y="223.27" width="153.27" height="153.27" rx="11.34"/><polygon class="cls-6" points="946.15 292.3 946.15 376.54 792.88 376.54 792.88 292.3 869.51 329.34 946.15 292.3"/><path class="cls-4" d="M869.51,334.11l-98.19-47.46a4,4,0,0,0-5.72,3.58v81.66A12.44,12.44,0,0,0,778,384.33H961a12.44,12.44,0,0,0,12.44-12.44h0V291.63a4.85,4.85,0,0,0-7-4.37Z"/><rect class="cls-3" x="806.08" y="237.34" width="42.86" height="6.06"/><rect class="cls-3" x="802.62" y="259.42" width="127.29" height="3.46"/><rect class="cls-3" x="802.62" y="271.11" width="127.29" height="3.46"/><rect class="cls-3" x="802.62" y="282.8" width="127.29" height="3.46"/><ellipse class="cls-10" cx="799.16" cy="225.68" rx="17.75" ry="17.78"/><path class="cls-11" d="M799.16,204.87a21.22,21.22,0,1,0,21.21,21.21A21.21,21.21,0,0,0,799.16,204.87Zm-4.36,32.52-10.87-10.87,3.05-3.05,7.83,7.83,16.54-16.53,3,3-19.6,19.57Z"/></svg>