<?xml version="1.0" encoding="iso-8859-1"?>
<!-- Generator: Adobe Illustrator 19.0.0, SVG Export Plug-In . SVG Version: 6.00 Build 0)  -->
<svg version="1.1" id="Capa_1" xmlns="http://www.w3.org/2000/svg" xmlns:xlink="http://www.w3.org/1999/xlink" x="0px" y="0px"
	 viewBox="0 0 512 512" style="enable-background:new 0 0 512 512;" xml:space="preserve">
<path style="fill:#79A1E8;" d="M467.558,194.321c110.077,95.464-124.042,276.132-227.848,173.884
	C103.908,234.442,15.682,334.031,15.682,188.325S49.954,79.776,203.734,14.441C337.838-42.536,335.516,79.808,467.558,194.321z"/>
<rect x="40.986" y="160.201" style="fill:#E1F0FA;" width="231.209" height="167.814"/>
<polygon style="fill:#F9D015;" points="40.986,160.202 156.59,248.921 272.195,160.202 "/>
<path style="fill:#4B31AA;" d="M276.119,159.455c-0.014-0.074-0.037-0.144-0.055-0.217c-0.027-0.108-0.046-0.216-0.082-0.322
	c-0.018-0.053-0.046-0.1-0.066-0.152c-0.032-0.084-0.068-0.165-0.106-0.246c-0.067-0.144-0.142-0.281-0.225-0.414
	c-0.042-0.068-0.082-0.137-0.128-0.202c-0.114-0.161-0.239-0.311-0.374-0.453c-0.026-0.028-0.048-0.059-0.075-0.086
	c-0.166-0.164-0.347-0.311-0.538-0.444c-0.057-0.04-0.118-0.071-0.178-0.108c-0.141-0.087-0.286-0.168-0.437-0.237
	c-0.078-0.036-0.157-0.067-0.238-0.098c-0.151-0.058-0.306-0.105-0.464-0.144c-0.077-0.019-0.152-0.041-0.231-0.055
	c-0.238-0.044-0.481-0.074-0.73-0.074H40.986c-2.209,0-4,1.791-4,4v167.814c0,2.209,1.791,4,4,4h231.209c2.209,0,4-1.791,4-4
	V160.202c0-0.006-0.002-0.012-0.002-0.018C276.192,159.941,276.165,159.698,276.119,159.455z M260.412,164.202L156.59,243.88
	L52.768,164.202H260.412z M44.986,324.017V168.314l109.169,83.781c0.719,0.552,1.577,0.827,2.436,0.827s1.717-0.275,2.436-0.827
	l109.169-83.781v155.703H44.986z"/>
<path style="fill:#473CBA;" d="M408.27,438.056L408.27,438.056c18.458,0,33.421-14.963,33.421-33.421v-67.759h-89.124v101.18H408.27
	"/>
<path style="fill:#FFFFFF;" d="M374.849,125.24v279.395c0,18.458,14.963,33.421,33.421,33.421H191.811
	c-19.452,0-35.221-15.769-35.221-35.221V125.24H374.849z"/>
<path style="fill:#CFDDF7;" d="M374.849,404.634V165.47L156.59,383.728v19.107c0,19.452,15.769,35.221,35.221,35.221H408.27
	C389.812,438.056,374.849,423.092,374.849,404.634z"/>
<path style="fill:#4B31AA;" d="M441.692,332.875h-62.843V125.24c0-2.209-1.791-4-4-4H156.59c-2.209,0-4,1.791-4,4v277.595
	c0,21.626,17.595,39.221,39.221,39.221H408.27c20.635,0,37.422-16.787,37.422-37.421v-67.76
	C445.692,334.666,443.901,332.875,441.692,332.875z M191.811,434.056c-17.215,0-31.221-14.006-31.221-31.221V129.24h210.259v275.395
	c0,11.924,5.607,22.564,14.321,29.421L191.811,434.056L191.811,434.056z M437.692,404.635c0,16.223-13.198,29.421-29.422,29.421
	c-16.223,0-29.421-13.198-29.421-29.421v-63.76h58.843V404.635z"/>
<ellipse style="fill:#473CBA;" cx="287.319" cy="505.543" rx="120" ry="6.457"/>
<path style="fill:#F9D015;" d="M96.465,268.314H83.522c-2.77-3.675-7.226-6.008-12.228-5.809
	c-7.455,0.297-13.609,6.394-13.967,13.847c-0.402,8.377,6.271,15.295,14.56,15.295c4.76,0,8.974-2.292,11.634-5.821h12.943
	c4.836,0,8.756-3.92,8.756-8.756l0,0C105.221,272.235,101.301,268.314,96.465,268.314z"/>
<g>
	<path style="fill:#4B31AA;" d="M71.888,295.647c-5.131,0-9.907-2.046-13.448-5.761c-3.54-3.714-5.353-8.588-5.107-13.726
		c0.457-9.518,8.277-17.272,17.802-17.653c5.375-0.223,10.567,1.929,14.236,5.807h11.095c7.033,0,12.756,5.723,12.756,12.756
		s-5.723,12.756-12.756,12.756H85.374C81.874,293.549,77.063,295.647,71.888,295.647z M71.872,266.493
		c-0.14,0-0.279,0.003-0.419,0.009c-5.42,0.217-9.87,4.628-10.131,10.043c-0.14,2.93,0.893,5.708,2.907,7.821
		c2.017,2.116,4.736,3.281,7.658,3.281c3.338,0,6.414-1.541,8.439-4.229c0.756-1.003,1.938-1.593,3.194-1.593h12.943
		c2.622,0,4.756-2.134,4.756-4.756c0-2.622-2.134-4.756-4.756-4.756H83.522c-1.256,0-2.439-0.59-3.194-1.592
		C78.316,268.055,75.18,266.493,71.872,266.493z"/>
	<path style="fill:#4B31AA;" d="M139.275,275.16h-22.529c-2.209,0-4-1.791-4-4c0-2.209,1.791-4,4-4h22.529c2.209,0,4,1.791,4,4
		C143.275,273.369,141.484,275.16,139.275,275.16z"/>
	<path style="fill:#4B31AA;" d="M139.275,285.647h-22.529c-2.209,0-4-1.791-4-4c0-2.209,1.791-4,4-4h22.529c2.209,0,4,1.791,4,4
		C143.275,283.856,141.484,285.647,139.275,285.647z"/>
</g>
<path style="fill:#F9D015;" d="M214.465,147.814h-12.943c-2.77-3.675-7.226-6.008-12.228-5.809
	c-7.455,0.297-13.609,6.394-13.967,13.847c-0.402,8.377,6.271,15.295,14.56,15.295c4.76,0,8.974-2.292,11.634-5.821h12.943
	c4.836,0,8.756-3.92,8.756-8.756l0,0C223.221,151.735,219.301,147.814,214.465,147.814z"/>
<g>
	<path style="fill:#4B31AA;" d="M189.888,175.148c-5.131,0-9.907-2.046-13.448-5.761c-3.54-3.714-5.353-8.588-5.107-13.726
		c0.457-9.519,8.277-17.272,17.802-17.653c5.389-0.215,10.567,1.929,14.236,5.807h11.095c7.033,0,12.756,5.723,12.756,12.756
		c0,7.033-5.723,12.756-12.756,12.756h-11.091C199.874,173.049,195.063,175.148,189.888,175.148z M189.872,145.993
		c-0.14,0-0.279,0.003-0.419,0.009c-5.42,0.217-9.87,4.628-10.131,10.043c-0.14,2.93,0.893,5.708,2.907,7.821
		c2.017,2.116,4.736,3.281,7.658,3.281c3.338,0,6.414-1.541,8.439-4.229c0.756-1.003,1.938-1.593,3.194-1.593h12.943
		c2.622,0,4.756-2.134,4.756-4.756s-2.134-4.756-4.756-4.756h-12.943c-1.256,0-2.439-0.59-3.194-1.592
		C196.316,147.555,193.18,145.993,189.872,145.993z"/>
	<path style="fill:#4B31AA;" d="M261.721,154.66h-25c-2.209,0-4-1.791-4-4c0-2.209,1.791-4,4-4h25c2.209,0,4,1.791,4,4
		C265.721,152.869,263.93,154.66,261.721,154.66z"/>
	<path style="fill:#4B31AA;" d="M261.721,165.147h-25c-2.209,0-4-1.791-4-4c0-2.209,1.791-4,4-4h25c2.209,0,4,1.791,4,4
		C265.721,163.356,263.93,165.147,261.721,165.147z"/>
</g>
<rect x="329.911" y="204.182" style="fill:#F7931E;" width="127.552" height="79.855"/>
<polygon style="fill:#E07E1E;" points="457.464,204.182 423.637,204.182 343.782,284.036 457.464,284.036 "/>
<path style="fill:#4B31AA;" d="M457.464,288.036H329.911c-2.209,0-4-1.791-4-4v-79.855c0-2.209,1.791-4,4-4h127.553
	c2.209,0,4,1.791,4,4v79.855C461.464,286.245,459.673,288.036,457.464,288.036z M333.911,280.036h119.553v-71.854H333.911V280.036z"
	/>
<rect x="300.445" y="231.234" style="fill:#D7ECF9;" width="127.552" height="79.855"/>
<polygon style="fill:#BAD9E8;" points="427.997,231.233 409.086,231.233 329.231,311.087 427.997,311.087 "/>
<path style="fill:#4B31AA;" d="M427.997,315.087H300.445c-2.209,0-4-1.791-4-4v-79.854c0-2.209,1.791-4,4-4h127.553
	c2.209,0,4,1.791,4,4v79.854C431.997,313.296,430.206,315.087,427.997,315.087z M304.445,307.087h119.553v-71.854H304.445V307.087z"
	/>
<path style="fill:#F9D015;" d="M342.585,250.267h-9.911c-2.122-2.814-5.533-4.601-9.364-4.449
	c-5.709,0.227-10.422,4.897-10.695,10.604c-0.308,6.415,4.802,11.713,11.15,11.713c3.645,0,6.872-1.755,8.909-4.458h9.911
	c3.703,0,6.705-3.002,6.705-6.705l0,0C349.29,253.269,346.288,250.267,342.585,250.267z"/>
<g>
	<path style="fill:#4B31AA;" d="M323.765,271.635c-4.05,0-7.82-1.615-10.615-4.548c-2.794-2.931-4.226-6.778-4.031-10.833
		c0.361-7.513,6.534-13.633,14.052-13.933c4.186-0.16,8.219,1.473,11.106,4.445h8.31c5.627,0,10.205,4.578,10.205,10.205
		c0,5.628-4.578,10.206-10.205,10.206h-8.306C331.528,270.03,327.785,271.635,323.765,271.635z M323.752,249.31
		c-0.102,0-0.202,0.002-0.304,0.006c-3.926,0.156-7.149,3.352-7.338,7.274c-0.101,2.123,0.646,4.136,2.105,5.668
		c1.462,1.532,3.432,2.377,5.549,2.377c2.417,0,4.645-1.117,6.115-3.064c0.661-0.877,1.695-1.393,2.794-1.393h9.911
		c1.768,0,3.205-1.439,3.205-3.206c0-1.768-1.437-3.205-3.205-3.205h-9.911c-1.099,0-2.133-0.516-2.795-1.393
		C328.422,250.44,326.149,249.31,323.752,249.31z"/>
	<path style="fill:#4B31AA;" d="M378.773,255.946h-19.144c-1.933,0-3.5-1.567-3.5-3.5c0-1.933,1.567-3.5,3.5-3.5h19.144
		c1.933,0,3.5,1.567,3.5,3.5C382.273,254.379,380.705,255.946,378.773,255.946z"/>
	<path style="fill:#4B31AA;" d="M378.773,263.978h-19.144c-1.933,0-3.5-1.567-3.5-3.5s1.567-3.5,3.5-3.5h19.144
		c1.933,0,3.5,1.567,3.5,3.5C382.273,262.41,380.705,263.978,378.773,263.978z"/>
</g>
<polygon style="fill:#E1F0FA;" points="65.221,371.144 33.144,386.652 65.221,402.16 "/>
<path style="fill:#F9D015;" d="M65.221,402.16h246.25c6.489,0,11.75-5.261,11.75-11.75v-7.517c0-6.489-5.261-11.75-11.75-11.75
	H65.221V402.16z"/>
<path style="fill:#473CBA;" d="M311.471,371.144h-21.25v31.017h21.25c6.489,0,11.75-5.261,11.75-11.75v-7.517
	C323.221,376.404,317.96,371.144,311.471,371.144z"/>
<g>
	<path style="fill:#4B31AA;" d="M311.471,367.643H65.221c-0.213,0-0.419,0.026-0.621,0.063c-0.023,0.004-0.046,0.003-0.068,0.007
		c-0.27,0.054-0.524,0.145-0.767,0.257c-0.022,0.01-0.045,0.012-0.067,0.022L31.62,383.5c-1.209,0.585-1.977,1.809-1.977,3.151
		c0,1.343,0.768,2.566,1.977,3.151l32.077,15.509c0.023,0.011,0.049,0.015,0.073,0.025c0.166,0.076,0.341,0.132,0.52,0.182
		c0.063,0.017,0.123,0.044,0.187,0.058c0.24,0.052,0.489,0.083,0.745,0.083h246.25c8.409,0,15.25-6.841,15.25-15.25v-7.517
		C326.721,374.484,319.88,367.643,311.471,367.643z M61.721,396.58l-15.051-7.277V384l15.051-7.276V396.58z M68.721,374.644h218
		v24.017h-218V374.644z M319.721,390.41c0,4.549-3.701,8.25-8.25,8.25h-17.75v-24.017h17.75c4.549,0,8.25,3.701,8.25,8.25V390.41z"
		/>
	<path style="fill:#4B31AA;" d="M270.448,389.971H81.993c-1.933,0-3.5-1.567-3.5-3.5s1.567-3.5,3.5-3.5h188.455
		c1.933,0,3.5,1.567,3.5,3.5S272.381,389.971,270.448,389.971z"/>
</g>
<g>
</g>
<g>
</g>
<g>
</g>
<g>
</g>
<g>
</g>
<g>
</g>
<g>
</g>
<g>
</g>
<g>
</g>
<g>
</g>
<g>
</g>
<g>
</g>
<g>
</g>
<g>
</g>
<g>
</g>
</svg>
