<?xml version="1.0" encoding="iso-8859-1"?>
<!-- Generator: Adobe Illustrator 19.0.0, SVG Export Plug-In . SVG Version: 6.00 Build 0)  -->
<svg version="1.1" id="Capa_1" xmlns="http://www.w3.org/2000/svg" xmlns:xlink="http://www.w3.org/1999/xlink" x="0px" y="0px"
	 viewBox="0 0 512.042 512.042" style="enable-background:new 0 0 512.042 512.042;" xml:space="preserve">
<path style="fill:#79A1E8;" d="M129.1,343.762c-149.8,12.1-113.7-290.7,36.5-293.3c196.5-3.4,230.7-78.7,298-38.3
	c79,47.5,51.4,106.8-11.6,267.2C397.1,419.362,308.7,329.262,129.1,343.762z"/>
<path style="fill:#D7ECF9;" d="M422.9,153.562c0-20.3-16.4-36.7-36.7-36.7H4.2v299.4h418.7L422.9,153.562L422.9,153.562z"/>
<path style="fill:#4B31AA;" d="M4.1,420.362c-1.1,0-2.1-0.4-2.9-1.2c-0.8-0.8-1.2-1.8-1.2-2.9v-299.4c0-2.3,1.9-4.1,4.1-4.1h382
	c10.9,0,21.2,4.2,28.9,12c7.7,7.7,12,18,12,28.9l0,0v262.7c0,2.3-1.9,4.1-4.1,4.1L4.1,420.362z M8.3,120.962v291.1h410.5v-258.6h4.1
	h-4.1c0-8.7-3.4-16.9-9.5-23c-6.2-6.2-14.3-9.5-23-9.5H8.3L8.3,120.962z"/>
<ellipse style="fill:#473CBA;" cx="247" cy="502.162" rx="199.5" ry="9.6"/>
<path style="fill:#FFFFFF;" d="M24.8,174.162c0-19.8,16-35.8,35.8-35.8h322.8v253.4H24.7L24.8,174.162z"/>
<polygon style="fill:#CFDDF7;" points="379.9,141.862 103.3,387.362 379.9,387.362 "/>
<path style="fill:#4B31AA;" d="M383.4,395.862H24.7c-2.3,0-4.1-1.9-4.1-4.1v-217.6c0-10.7,4.2-20.7,11.7-28.3
	c7.5-7.5,17.6-11.7,28.3-11.7l0,0h322.8c2.3,0,4.1,1.9,4.1,4.1v253.4C387.6,394.062,385.7,395.862,383.4,395.862z M28.9,387.562
	h350.4v-245.1H60.6c-8.5,0-16.4,3.3-22.4,9.3s-9.3,13.9-9.3,22.4h-4.1h4.1L28.9,387.562L28.9,387.562z"/>
<path style="fill:#F9D015;" d="M266.5,103.862h-24.3c-0.3-16.2-13.6-29.3-29.9-29.3s-29.6,13.1-29.9,29.3h-23.1
	c-4.1,0-7.4,3.3-7.4,7.4v38.6c0,4.1,3.3,7.4,7.4,7.4h107.1c4.1,0,7.4-3.3,7.4-7.4v-38.6C273.9,107.162,270.6,103.862,266.5,103.862z
	 M212.4,112.262c-4.3,0-7.8-3.5-7.8-7.8s3.5-7.8,7.8-7.8s7.8,3.5,7.8,7.8S216.7,112.262,212.4,112.262z"/>
<path style="fill:#4B31AA;" d="M266.5,161.362H159.4c-6.4,0-11.5-5.2-11.5-11.5v-38.6c0-6.4,5.2-11.5,11.5-11.5h19.3
	c2.3-16.5,16.7-29.3,33.7-29.3s31.4,12.8,33.7,29.3h20.4c6.4,0,11.5,5.2,11.5,11.5v38.6C278.1,156.262,272.9,161.362,266.5,161.362z
	 M159.4,107.962c-1.8,0-3.3,1.5-3.3,3.3v38.6c0,1.8,1.5,3.3,3.3,3.3h107.1c1.8,0,3.3-1.5,3.3-3.3v-38.6c0-1.8-1.5-3.3-3.3-3.3h-24.3
	c-2.3,0-4.1-1.8-4.1-4.1c-0.3-13.9-11.8-25.3-25.7-25.3c-13.9,0-25.5,11.3-25.7,25.3c0,2.3-1.9,4.1-4.1,4.1L159.4,107.962
	L159.4,107.962z M212.4,116.462c-6.6,0-12-5.4-12-12c0-6.6,5.4-12,12-12c6.6,0,12,5.4,12,12
	C224.3,111.062,219,116.462,212.4,116.462z M212.4,100.762c-2,0-3.7,1.7-3.7,3.7s1.7,3.7,3.7,3.7s3.7-1.7,3.7-3.7
	C216.1,102.362,214.4,100.762,212.4,100.762z"/>
<g>
	<path style="fill:#7693DD;" d="M286.9,329.262c-0.9,0-1.8-0.3-2.5-0.9L137,213.062c-1.8-1.4-2.1-4-0.7-5.8s4-2.1,5.8-0.7
		l147.4,115.3c1.8,1.4,2.1,4,0.7,5.8C289.4,328.662,288.2,329.262,286.9,329.262z"/>
	<path style="fill:#7693DD;" d="M304.3,270.262H119.1c-2.3,0-4.1-1.9-4.1-4.1c0-2.3,1.9-4.1,4.1-4.1h185.2c2.3,0,4.1,1.9,4.1,4.1
		S306.6,270.262,304.3,270.262z"/>
	<path style="fill:#7693DD;" d="M139.5,329.262c-1.2,0-2.4-0.5-3.3-1.6c-1.4-1.8-1.1-4.4,0.7-5.8l147.4-115.3
		c1.8-1.4,4.4-1.1,5.8,0.7c1.4,1.8,1.1,4.4-0.7,5.8L142,328.362C141.3,328.962,140.4,329.262,139.5,329.262z"/>
</g>
<path style="fill:#D7ECF9;" d="M154,219.062h-54c-2.8,0-5.2-2.3-5.2-5.2v-13.7c0-2.8,2.3-5.2,5.2-5.2h54c2.8,0,5.2,2.3,5.2,5.2v13.7
	C159.1,216.762,156.8,219.062,154,219.062z"/>
<path style="fill:#79A1E8;" d="M154,223.162h-54c-5.1,0-9.3-4.2-9.3-9.3v-13.7c0-5.1,4.2-9.3,9.3-9.3h54c5.1,0,9.3,4.2,9.3,9.3v13.7
	C163.3,219.062,159.1,223.162,154,223.162z M99.9,199.162c-0.6,0-1,0.5-1,1v13.7c0,0.6,0.5,1,1,1h54c0.6,0,1-0.5,1-1v-13.7
	c0-0.6-0.5-1-1-1H99.9z"/>
<path style="fill:#D7ECF9;" d="M126.7,278.962h-54c-2.8,0-5.2-2.3-5.2-5.2v-13.7c0-2.8,2.3-5.2,5.2-5.2h54c2.8,0,5.2,2.3,5.2,5.2
	v13.7C131.9,276.562,129.5,278.962,126.7,278.962z"/>
<path style="fill:#79A1E8;" d="M126.7,283.062h-54c-5.1,0-9.3-4.2-9.3-9.3v-13.7c0-5.1,4.2-9.3,9.3-9.3h54c5.1,0,9.3,4.2,9.3,9.3
	v13.7C136,278.862,131.8,283.062,126.7,283.062z M72.7,259.062c-0.6,0-1,0.5-1,1v13.7c0,0.6,0.5,1,1,1h54c0.6,0,1-0.5,1-1v-13.7
	c0-0.6-0.5-1-1-1H72.7z"/>
<path style="fill:#D7ECF9;" d="M154.9,338.762h-54c-2.8,0-5.2-2.3-5.2-5.2v-13.7c0-2.8,2.3-5.2,5.2-5.2h54c2.8,0,5.2,2.3,5.2,5.2
	v13.7C160.1,336.462,157.7,338.762,154.9,338.762z"/>
<path style="fill:#79A1E8;" d="M154.9,342.962h-54c-5.1,0-9.3-4.2-9.3-9.3v-13.7c0-5.1,4.2-9.3,9.3-9.3h54c5.1,0,9.3,4.2,9.3,9.3
	v13.7C164.2,338.762,160,342.962,154.9,342.962z M100.9,318.862c-0.6,0-1,0.5-1,1v13.7c0,0.6,0.5,1,1,1h54c0.6,0,1-0.5,1-1v-13.7
	c0-0.6-0.5-1-1-1H100.9z"/>
<path style="fill:#D7ECF9;" d="M271.9,314.762h54c2.8,0,5.2,2.3,5.2,5.2v13.7c0,2.8-2.3,5.2-5.2,5.2h-54c-2.8,0-5.2-2.3-5.2-5.2
	v-13.7C266.8,317.062,269.1,314.762,271.9,314.762z"/>
<path style="fill:#79A1E8;" d="M326,342.962h-54c-5.1,0-9.3-4.2-9.3-9.3v-13.7c0-5.1,4.2-9.3,9.3-9.3h54c5.1,0,9.3,4.2,9.3,9.3v13.7
	C335.3,338.762,331.1,342.962,326,342.962z M271.9,318.862c-0.6,0-1,0.5-1,1v13.7c0,0.6,0.5,1,1,1h54c0.6,0,1-0.5,1-1v-13.7
	c0-0.6-0.5-1-1-1H271.9z"/>
<path style="fill:#D7ECF9;" d="M299.2,254.862h54c2.8,0,5.2,2.3,5.2,5.2v13.7c0,2.8-2.3,5.2-5.2,5.2h-54c-2.8,0-5.2-2.3-5.2-5.2
	v-13.7C294,257.162,296.3,254.862,299.2,254.862z"/>
<path style="fill:#79A1E8;" d="M353.2,283.062h-54c-5.1,0-9.3-4.2-9.3-9.3v-13.7c0-5.1,4.2-9.3,9.3-9.3h54c5.1,0,9.3,4.2,9.3,9.3
	v13.7C362.5,278.862,358.4,283.062,353.2,283.062z M299.2,259.062c-0.6,0-1,0.5-1,1v13.7c0,0.6,0.5,1,1,1h54c0.6,0,1-0.5,1-1v-13.7
	c0-0.6-0.5-1-1-1H299.2z"/>
<path style="fill:#D7ECF9;" d="M271,195.062h54c2.8,0,5.2,2.3,5.2,5.2v13.7c0,2.8-2.3,5.2-5.2,5.2h-54c-2.8,0-5.2-2.3-5.2-5.2v-13.7
	C265.8,197.362,268.2,195.062,271,195.062z"/>
<path style="fill:#79A1E8;" d="M325,223.162h-54c-5.1,0-9.3-4.2-9.3-9.3v-13.7c0-5.1,4.2-9.3,9.3-9.3h54c5.1,0,9.3,4.2,9.3,9.3v13.7
	C334.3,219.062,330.2,223.162,325,223.162z M271,199.162c-0.6,0-1,0.5-1,1v13.7c0,0.6,0.5,1,1,1h54c0.6,0,1-0.5,1-1v-13.7
	c0-0.6-0.5-1-1-1H271z"/>
<path style="fill:#F28F20;" d="M247.8,288.762h-69.7c-4.4,0-7.9-3.6-7.9-7.9v-26.9c0-4.4,3.6-7.9,7.9-7.9h69.7
	c4.4,0,7.9,3.6,7.9,7.9v26.9C255.8,285.262,252.2,288.762,247.8,288.762z"/>
<path style="fill:#7693DD;" d="M247.8,292.962h-69.7c-6.7,0-12.1-5.4-12.1-12.1v-26.9c0-6.7,5.4-12.1,12.1-12.1h69.7
	c6.7,0,12.1,5.4,12.1,12.1v26.9C259.9,287.462,254.5,292.962,247.8,292.962z M178.1,250.162c-2.1,0-3.8,1.7-3.8,3.8v26.9
	c0,2.1,1.7,3.8,3.8,3.8h69.7c2.1,0,3.8-1.7,3.8-3.8v-26.9c0-2.1-1.7-3.8-3.8-3.8H178.1z"/>
<path style="fill:#5450C9;" d="M24.8,181.962c0,19.8,16,35.8,35.8,35.8h38.9v230.8H60.6c-19.8,0-35.8-16-35.8-35.8V181.962z"/>
<path style="fill:#4B31AA;" d="M99.5,452.662H60.6c-22,0-40-17.9-40-40v-230.8c0-2.3,1.9-4.1,4.1-4.1s4.1,1.9,4.1,4.1
	c0,17.5,14.2,31.7,31.7,31.7h38.9c1.1,0,2.1,0.4,2.9,1.2s1.2,1.8,1.2,2.9v230.8C103.6,450.862,101.7,452.662,99.5,452.662z
	 M28.9,206.262v206.5c0,17.5,14.2,31.7,31.7,31.7h34.7v-222.5H60.6C47.7,221.962,36.2,215.762,28.9,206.262z"/>
<path style="fill:#5450C9;" d="M422.9,158.362c0,20.3-16.4,36.7-36.7,36.7h-39.8v253.5h39.8c20.3,0,36.7-16.4,36.7-36.7V158.362z"/>
<path style="fill:#4B31AA;" d="M386.2,452.662h-39.8c-2.3,0-4.1-1.9-4.1-4.1v-253.5c0-2.3,1.9-4.1,4.1-4.1h39.8
	c18,0,32.6-14.6,32.6-32.6c0-2.3,1.9-4.1,4.1-4.1s4.1,1.9,4.1,4.1v253.5C427,434.362,408.7,452.662,386.2,452.662z M350.5,444.462
	h35.7c18,0,32.6-14.6,32.6-32.6v-228.9c-7.5,9.8-19.3,16.2-32.6,16.2h-35.7L350.5,444.462L350.5,444.462z"/>
<g>
</g>
<g>
</g>
<g>
</g>
<g>
</g>
<g>
</g>
<g>
</g>
<g>
</g>
<g>
</g>
<g>
</g>
<g>
</g>
<g>
</g>
<g>
</g>
<g>
</g>
<g>
</g>
<g>
</g>
</svg>
