<?xml version="1.0" encoding="iso-8859-1"?>
<!-- Generator: Adobe Illustrator 19.0.0, SVG Export Plug-In . SVG Version: 6.00 Build 0)  -->
<svg version="1.1" id="Capa_1" xmlns="http://www.w3.org/2000/svg" xmlns:xlink="http://www.w3.org/1999/xlink" x="0px" y="0px"
	 viewBox="0 0 512.05 512.05" style="enable-background:new 0 0 512.05 512.05;" xml:space="preserve">
<path style="fill:#79A1E8;" d="M113.084,348.85c-152.1,12.3-115.5-295.3,37.1-297.9c199.6-3.4,234.3-79.9,302.7-38.9
	c80.2,48.2,52.2,108.5-11.8,271.4C385.284,425.55,295.484,334.15,113.084,348.85z"/>
<g>
	<ellipse style="fill:#473CBA;" cx="272.484" cy="503.75" rx="229.3" ry="8.3"/>
	<path style="fill:#473CBA;" d="M488.084,417.65h-366.7v-226.4c0-14.8,12-26.8,26.8-26.8h313.1c14.8,0,26.8,12,26.8,26.8
		L488.084,417.65L488.084,417.65z"/>
</g>
<path style="fill:#D7ECF9;" d="M475.484,417.65h-366.7v-226.4c0-14.8,12-26.8,26.8-26.8h313.1c14.8,0,26.8,12,26.8,26.8
	L475.484,417.65L475.484,417.65z"/>
<rect x="56.284" y="413.45" style="fill:#7693DD;" width="392" height="30.5"/>
<rect x="433.484" y="413.45" style="fill:#473CBA;" width="55.3" height="30.5"/>
<rect x="130.884" y="187.65" style="fill:#FFFFFF;" width="324.6" height="224.8"/>
<polygon style="fill:#CFDDF7;" points="452.984,190.65 172.084,410.25 452.984,410.25 "/>
<path style="fill:#4B31AA;" d="M461.984,160.25h-326.4c-17.1,0-31,13.9-31,31v218h-48.3c-2.3,0-4.2,1.9-4.2,4.2v30.5
	c0,2.3,1.9,4.2,4.2,4.2h432.5c2.3,0,4.2-1.9,4.2-4.2v-252.7C492.984,174.25,479.084,160.25,461.984,160.25z M484.584,191.25v218
	h-4.9v-218c0-7.7-2.8-14.7-7.4-20.1C479.584,174.95,484.584,182.55,484.584,191.25z M112.984,191.25c0-12.5,10.1-22.6,22.6-22.6
	h313.1c12.5,0,22.6,10.1,22.6,22.6v218h-11.6v-221.6c0-2.3-1.9-4.2-4.2-4.2h-324.6c-2.3,0-4.2,1.9-4.2,4.2v221.7h-13.7
	L112.984,191.25L112.984,191.25z M451.284,408.25h-316.2v-216.4h316.2V408.25L451.284,408.25z M60.484,417.65h368.8v22.1h-368.8
	V417.65z M484.584,439.75h-46.9v-22.1h46.9V439.75z"/>
<path style="fill:#473CBA;" d="M160.484,128.85c-1.9-0.2-3.9-0.3-5.8-0.3c-24.9,0-46.1,15.9-54,38.2c-32.4,6.5-56.9,35.2-56.9,69.5
	c0,39.2,31.8,70.9,70.9,70.9h220.6c39.2,0,70.9-31.8,70.9-70.9c0-39-31.5-70.6-70.4-70.9c-8.2-45.1-47.6-79.3-95.1-79.3h-35.2
	L160.484,128.85z"/>
<path style="fill:#FFFFFF;" d="M305.784,307.15c39.2,0,70.9-31.8,70.9-70.9c0-39-31.5-70.6-70.4-70.9c-8.2-45.1-47.6-79.3-95.1-79.3
	c-33.5,0-63,17-80.3,42.8c-1.9-0.2-3.9-0.3-5.8-0.3c-24.9,0-46.1,15.9-54,38.2c-32.4,6.5-56.9,35.2-56.9,69.5
	c0,39.2,31.8,70.9,70.9,70.9H305.784L305.784,307.15z"/>
<path style="fill:#CFDDF7;" d="M306.384,165.35c-2.5-13.6-7.8-26.2-15.3-37.2l-179,179h193.8c39.2,0,70.9-31.8,70.9-70.9
	C376.684,197.25,345.284,165.65,306.384,165.35z"/>
<path style="fill:#4B31AA;" d="M339.284,161.25c-10-46.2-50.9-79.4-98.6-79.4c0,0-26.7,0-29.5,0c-32.8,0-63.5,15.9-82.4,42.7
	c-1.3-0.1-2.5-0.1-3.8-0.1c-25.2,0-47.9,15.5-57.1,38.8c-33.7,7.9-57.9,38.3-57.9,73.1c0,41.4,33.7,75.1,75.1,75.1h250.1
	c41.4,0,75.1-33.7,75.1-75.1C410.384,196.35,378.784,163.35,339.284,161.25z M331.684,165.75c-6.9-2.5-14.2-4.1-21.8-4.5
	c-6.8-31.6-28.1-57.2-56.2-70.1C292.584,96.55,324.384,126.25,331.684,165.75z M125.984,302.95h-40.8c-36.8,0-66.7-29.9-66.7-66.7
	c0-31.7,22.5-59.2,53.5-65.4c1.4-0.3,2.6-1.3,3.1-2.7c7.5-21.2,27.6-35.4,50-35.4c1.8,0,3.6,0.1,5.4,0.3c1.5,0.2,3-0.5,3.9-1.8
	c17.2-25.7,45.9-41,76.8-41c44.8,0,83,31.9,91,75.9c0.4,2,2.1,3.4,4.1,3.5c36.5,0.3,66.2,30.2,66.2,66.7c0,36.8-29.9,66.7-66.7,66.7
	L125.984,302.95L125.984,302.95z M340.784,302.75c23.9-12.6,40.2-37.7,40.2-66.5c0-28.7-16.3-53.8-40.2-66.5
	c34.2,2.8,61.3,31.6,61.3,66.5C401.984,271.25,374.984,299.95,340.784,302.75z"/>
<path style="fill:#F9D015;" d="M220.484,215.05l-42-42c-3.1-3.1-8.1-3.1-11.2,0l-42,42c-5,5-1.5,13.5,5.6,13.5h17.4v86.4
	c0,4,3.2,7.2,7.2,7.2h34.7c4,0,7.2-3.2,7.2-7.2v-86.4h17.4C221.884,228.55,225.484,220.05,220.484,215.05z"/>
<path style="fill:#DDB510;" d="M210.884,208.65l-60.5,60.5v41.7c0,3.8,3,6.8,6.8,6.8h32.8c3.8,0,6.8-3,6.8-6.8v-81.7h16.4
	c6.7,0,10-8.1,5.3-12.8L210.884,208.65z"/>
<path style="fill:#F15A24;" d="M199.384,348.75l42,42c3.1,3.1,8.1,3.1,11.2,0l42-42c5-5,1.5-13.5-5.6-13.5h-17.4v-86.4
	c0-4-3.2-7.2-7.2-7.2h-34.7c-4,0-7.2,3.2-7.2,7.2v86.4h-17.4C197.984,335.25,194.384,343.85,199.384,348.75z"/>
<g>
	<path style="fill:#4B31AA;" d="M246.984,396.75c-3,0-5.9-1.1-8.2-3.4l-42-42l0,0c-3.4-3.4-4.3-8.2-2.5-12.6s5.9-7.2,10.7-7.2h13.7
		v-82.7c0-6,4.9-10.9,10.9-10.9h34.8c6,0,10.9,4.9,10.9,10.9v82.7h13.7c4.8,0,8.9,2.7,10.7,7.2c1.8,4.4,0.9,9.3-2.5,12.6l-42,42
		C252.884,395.65,249.984,396.75,246.984,396.75z M201.984,346.15l42,42c1.7,1.7,4.4,1.7,6,0l42-42c1.9-1.9,1.2-4,0.9-4.6
		s-1.3-2.6-3.9-2.6h-17.4c-2,0-3.7-1.6-3.7-3.7v-86.4c0-1.9-1.6-3.5-3.5-3.5h-34.8c-1.9,0-3.5,1.6-3.5,3.5v86.4c0,2-1.6,3.7-3.7,3.7
		h-17.4c-2.6,0-3.7,2-3.9,2.6C200.784,342.15,200.184,344.35,201.984,346.15L201.984,346.15z"/>
	<path style="fill:#4B31AA;" d="M190.284,326.35h-34.7c-6.3,0-11.4-5.1-11.4-11.4v-82.2h-13.2c-5,0-9.3-2.9-11.2-7.5
		s-0.9-9.7,2.6-13.2l42-42c2.3-2.3,5.3-3.6,8.6-3.6c3.2,0,6.3,1.3,8.6,3.6l42,42c3.5,3.5,4.5,8.6,2.6,13.2
		c-1.9,4.6-6.2,7.5-11.2,7.5h-13.2v82.2C201.684,321.25,196.584,326.35,190.284,326.35z M172.884,174.95c-1,0-1.9,0.4-2.6,1.1
		l-42,42c-1.6,1.6-1,3.5-0.8,4.1c0.2,0.5,1.1,2.3,3.4,2.3h17.4c2.3,0,4.2,1.9,4.2,4.2v86.4c0,1.6,1.3,3,3,3h34.8c1.6,0,3-1.3,3-3
		v-86.4c0-2.3,1.9-4.2,4.2-4.2h17.4c2.3,0,3.2-1.8,3.4-2.3s0.8-2.4-0.8-4.1l-42-42C174.884,175.35,173.884,174.95,172.884,174.95z"
		/>
</g>
<g>
</g>
<g>
</g>
<g>
</g>
<g>
</g>
<g>
</g>
<g>
</g>
<g>
</g>
<g>
</g>
<g>
</g>
<g>
</g>
<g>
</g>
<g>
</g>
<g>
</g>
<g>
</g>
<g>
</g>
</svg>
