<svg id="b0225cde-a2d2-4693-8ce5-502a1e8a6144" xmlns="http://www.w3.org/2000/svg" viewBox="0 0 1077.38 752.86"><defs><style>.cls-1{fill:#f2f2f2;}.cls-2{fill:#3f3d56;}.cls-3{fill:#2f2e41;}.cls-4{fill:#6c63ff;}.cls-5{fill:#a8a8a8;}.cls-6{opacity:0.2;isolation:isolate;}.cls-7{fill:#5333ed;}.cls-8{fill:#575a89;}.cls-9{fill:#a0616a;}</style></defs><title>D</title><path class="cls-1" d="M192.23,567.53c0,38.92-23.14,52.51-51.68,52.51s-51.67-13.59-51.67-52.51,51.67-88.43,51.67-88.43S192.23,528.61,192.23,567.53Z"/><polygon class="cls-2" points="138.67 614.08 139.2 581.51 161.23 541.22 139.28 576.4 139.52 561.76 154.7 532.61 139.58 557.88 139.58 557.88 140.01 531.54 156.27 508.33 140.08 527.4 140.35 479.1 138.67 543.04 138.8 540.4 122.28 515.11 138.54 545.47 137 574.88 136.95 574.1 117.9 547.48 136.9 576.86 136.7 580.54 136.67 580.6 136.69 580.9 132.78 655.53 138 655.53 138.62 616.98 157.57 587.67 138.67 614.08"/><path class="cls-1" d="M570.65,107.69c135.67,108.11,158,305.74,49.91,441.41S183.19,772.45,179.15,599c-4.06-174.54-93.88-338.11-49.91-441.4C197.18-2,435-.41,570.65,107.69Z"/><ellipse class="cls-2" cx="274.35" cy="660.26" rx="144" ry="24"/><ellipse class="cls-2" cx="946.62" cy="689.39" rx="70.91" ry="11.82"/><path class="cls-3" d="M890,615c0,38,23.86,68.8,53.34,68.8"/><path class="cls-4" d="M943.3,683.8c0-38.45,26.62-69.57,59.52-69.57"/><path class="cls-4" d="M909.28,618.45c0,36.12,15.22,65.35,34,65.35"/><path class="cls-3" d="M943.3,683.8c0-49.14,30.77-88.9,68.8-88.9"/><path class="cls-5" d="M932.08,684.29s7.56-.23,9.84-1.86,11.64-3.56,12.2-1,11.37,12.95,2.83,13-19.84-1.33-22.12-2.71S932.08,684.29,932.08,684.29Z"/><path class="cls-6" d="M957.1,693.59c-8.54.06-19.84-1.33-22.12-2.72-1.73-1.06-2.42-4.84-2.65-6.59h-.25s.48,6.1,2.75,7.49,13.58,2.78,22.12,2.71c2.47,0,3.32-.9,3.27-2.19C959.88,693.08,958.94,693.57,957.1,693.59Z"/><path class="cls-7" d="M747.8,345.38c0,126.6-86.4,210-217.81,210H344.59v-420H530C661.4,135.38,747.8,218.78,747.8,345.38ZM458.59,240.08v210.6H527c69,0,102.31-44.7,102.31-105.3,0-61.5-33.3-105.3-102.31-105.3Z"/><path class="cls-8" d="M289.78,187.47l8.57-1.77s34.28-10.65,36-19.53,10.28-19.52,10.28-19.52,27.43-7.1,25.72,16-8.57,30.18-12,33.73-41.14,32-48,32S289.78,187.47,289.78,187.47Z"/><path class="cls-8" d="M174.93,230.07l-3.43,7.1-1.71,63.9s-10.29,7.1-5.14,10.65,17.14,19.53,20.57,19.53,22.28-8.88,22.28-12.43-3.43-35.5-3.43-35.5Z"/><ellipse class="cls-9" cx="257.21" cy="134.22" rx="29.14" ry="30.18"/><path class="cls-9" d="M238.36,148.42s0,32-5.15,35.5,41.14,7.1,41.14,7.1V150.2Z"/><path class="cls-9" d="M181.79,325.92S214.36,365,221.21,365s13.72-26.62,13.72-26.62L202.36,313.5Z"/><path class="cls-9" d="M344.63,150.2l5.15-37.28s3.42-51.47,13.71-39,3.43,40.83,3.43,40.83,5.14,40.82,0,46.15S344.63,150.2,344.63,150.2Z"/><path class="cls-3" d="M315.49,350.77l-92.56-8.87s-12,58.57-8.57,81.65,5.14,88.75,5.14,88.75,3.43,118.92,8.57,126,22.28,5.33,27.43,8.88,13.71-7.1,13.71-8.88-10.28-1.77-5.14-12.42-13.72-40.83-8.57-55,13.71-33.72,8.57-40.82,3.43-97.63,3.43-97.63,42.85,63.9,42.85,92.3-3.43,94.08-5.14,101.18-3.43,8.87,0,14.2,6.85,10.65,5.14,12.42,30.86,0,30.86-10.65-1.72-10.65,1.71-19.52S348.06,507,348.06,507Z"/><path class="cls-8" d="M233.21,171.5l-5.14,10.65s-54.85,17.75-56.57,55l46.28,79.88s3.43,5.32,1.72,8.87-3.43,1.78-1.72,7.1,1.72,3.55,1.72,7.1-5.14,1.78,0,3.55-1.72,0,17.14,5.33,75.42,3.55,75.42,3.55l-10.28-103,10.28-21.3-13.71-42.6s-8.57-1.78-13.71,1.77-12-3.55-12-3.55S264.07,171.5,233.21,171.5Z"/><path class="cls-3" d="M238.36,638.32s0,17.75-1.72,21.3-5.14,21.3,5.14,21.3a40.31,40.31,0,0,0,17.15-3.55s0-10.65,5.14-12.42,17.14-16,12-19.53-15.43-7.1-15.43-7.1Z"/><path class="cls-3" d="M312.06,647.2s-10.28,24.85,0,26.62,24,0,25.72-3.55,5.14-7.1,8.57-5.32,32.57-19.53,22.28-23.08a28.73,28.73,0,0,0-18.85,0l-10.29-5.32Z"/><path class="cls-3" d="M260.89,167.48a3.42,3.42,0,0,0,1.4-.4,3.75,3.75,0,0,0,1.3-2.33l3.5-12.84c1.33-4.87,3.46-10.57,8.25-11.6a7.69,7.69,0,0,0,2.89-.79,5.32,5.32,0,0,0,1.57-4l1.5-16.6c.4-4.49.79-9.15-.72-13.38-2.23-6.24-8.35-10.34-14.67-11.52s-12.83.14-19,2c-9.33,2.89-19,7.87-23,17-2.35,5.31-2.5,11.37-2.18,17.2.32,6,1.13,12.12,3.79,17.46a51.71,51.71,0,0,0,5.14,7.82c2.89,3.88,6.44,11.46,11.23,12.91C247.27,170.12,255.42,168.22,260.89,167.48Z"/></svg>