<?xml version="1.0" encoding="utf-8"?>
<!-- Generator: Adobe Illustrator 22.0.0, SVG Export Plug-In . SVG Version: 6.00 Build 0)  -->
<svg version="1.1" id="Layer_1" xmlns="http://www.w3.org/2000/svg" xmlns:xlink="http://www.w3.org/1999/xlink" x="0px" y="0px"
	 viewBox="0 0 80 80" style="enable-background:new 0 0 80 80;" xml:space="preserve">
<style type="text/css">
	.st0{fill:#774AA4;}
</style>
<path class="st0" d="M51.6,47.8l-3.1-2L46,50l-3-0.9l-2.6,4l0.1,1.3l14.3-2.6L54,42.9L51.6,47.8z M38.3,43.9l2.3-0.3
	c0.4,0.2,0.6,0.2,1.1,0.3c0.7,0.2,1.5,0.3,2.7-0.2c0.3-0.1,0.9-0.7,1.1-1l9.4-1.7l1,11.6l-16,2.9L38.3,43.9z M55.7,39.7l-0.9,0.2
	L53,21.5L22.8,25l3.7,30.4l3.5-0.5c-0.3-0.4-0.7-0.9-1.5-1.5c-1-0.9-0.7-2.4-0.1-3.3c0.8-1.6,5-3.6,4.8-6.1
	c-0.1-0.9-0.2-2.1-1.1-2.9c0,0.2,0,0.4,0,0.7c-0.2-0.3-0.4-0.7-0.5-1.1c-0.2-0.2-0.3-0.3-0.5-0.6C31,40.3,31,40.6,31,40.9
	c0,0-0.3-0.7-0.3-1.2c-0.2,0.3-0.2,0.7-0.2,0.7s-0.4-1.1-0.3-1.6c-0.2-0.5-0.7-1.5-0.5-3.7c0.9,0.7,3,0.5,3.8-0.7
	c0.3-0.4,0.4-1.5-0.1-3.5c-0.4-1.3-1.3-3.3-1.6-4.1l0,0c0.2,0.6,0.6,1.9,0.7,2.5c0.5,1.9,0.6,2.5,0.4,3.4c-0.2,0.8-0.6,1.2-1.7,1.8
	s-2.5-0.8-2.6-0.9c-1.1-0.8-1.9-2.2-2-2.9c-0.1-0.7,0.4-1.2,0.7-1.8c-0.4,0.1-0.8,0.3-0.8,0.3c0.3-0.4,0.7-0.7,1.1-1
	c0.2-0.2,0.5-0.3,0.7-0.5c-0.4,0-0.7,0-0.7,0c0.4-0.2,0.9-0.4,1.3-0.6c-0.5,0-1,0-1,0s1.4-0.6,2.6-1.1c0.8-0.3,1.6-0.2,2,0.4
	c0.6,0.8,1.2,1.3,2.4,1.5c0.8-0.3,1-0.5,2-0.8c0.9-0.9,1.5-1.1,1.5-1.1c-0.2,0.2-0.4,0.5-0.4,0.8c0.3-0.3,0.7-0.5,1-0.7
	c-0.2,0.2-0.3,0.4-0.4,0.7v0.1c0.4-0.2,0.8-0.4,1.2-0.6c0,0-0.2,0.2-0.4,0.6c0.4,0,1.3,0,1.6,0.1c2,0,2.4-2.1,3.1-2.4
	c0.9-0.3,1.4-0.6,3,1c1.4,1.4,2.5,3.8,1.9,4.4c-0.5,0.4-1.3-0.2-2.3-1.4c-0.6-0.7-0.9-1.5-1.1-2.4c-0.1-0.5-0.4-1-0.8-1.3
	c0,0,0.3,0.8,0.3,1.5c0,0.4,0,1.8,0.7,2.6c-0.1,0.1-0.1,0.6-0.2,0.7c-0.7-0.9-2.2-1.5-2.5-1.6c0.8,0.7,2.8,2.3,3.5,3.8
	c0.7,1.4,0.3,2.7,0.6,3.1c0.1,0.1,1.5,1.8,1.8,2.7c0.5,1.5,0,3.1-0.6,4.1l-1.7,0.3c-0.2-0.1-0.4-0.1-0.6-0.2
	c0.1-0.2,0.4-0.8,0.4-0.9l-0.1-0.2c-0.5,0.8-1.4,1.5-2.2,1.9c-1,0.6-2.1,0.5-2.8,0.2c-2.1-0.6-4-2-4.5-2.4c0,0,0,0.3,0.1,0.4
	c0.5,0.6,1.7,1.7,2.9,2.4l-2.5,0.3l1.2,9.1c-0.5,0.1-0.6,0.1-1.2,0.2c-0.5-1.8-1.5-2.9-2.5-3.6c-0.9-0.6-2.2-0.7-3.4-0.5l-0.1,0.1
	c1-0.1,2,0.1,2.9,0.7c1,0.6,1.8,2.3,2.1,3.3c0.4,1.3,0.6,2.6-0.4,4.1c-0.7,1-2.9,1.6-4.6,0.4c0.5,0.7,1.1,1.4,1.9,1.5
	c1.2,0.2,2.4,0,3.2-0.9c0.7-0.7,1.1-2.2,1-3.8l1.1-0.2l0.4,2.8l18.2-2.2L55.7,39.7z M44.7,32.1c-0.1,0.1-0.1,0.2,0,0.6l0,0l0,0v0.1
	c0.2,0.4,0.5,0.9,0.8,1.1c0.1,0,0.2,0,0.3,0c0.4,0,0.6,0,0.8,0.1c0-0.1,0-0.2,0-0.3c0-0.6,0.1-1.5-1-2c-0.4-0.2-1-0.1-1.2,0.1h0.1
	C44.9,31.8,44.7,32,44.7,32.1 M47.7,37.3c-0.1-0.1-0.8,0-1.3,0c-0.9,0.1-1.8,0.4-2,0.6c-0.4,0.3-0.2,0.8,0.1,1
	c0.8,0.6,1.5,1,2.2,0.9c0.5-0.1,0.8-0.8,1.1-1.4C47.9,37.9,47.9,37.4,47.7,37.3 M39.9,32.8c0.2-0.2-1.2-0.6-2.4,0.2
	c-0.9,0.6-0.9,1.8-0.1,2.5c0.1,0.1,0.1,0.1,0.2,0.2c0.3-0.1,0.5-0.2,0.8-0.3c0.4-0.1,0.9-0.2,1.3-0.3c0.2-0.2,0.4-0.5,0.3-1.1
	C40,33.1,39.4,33.2,39.9,32.8"/>
</svg>
