<svg id="Layer_1" xmlns="http://www.w3.org/2000/svg" viewBox="0 0 106.9 96.4"><style>.st0{fill:#0080ff}</style><g id="Layer_1_1_" transform="translate(640 703)"><path id="Shape" class="st0" d="M-586.1-626v-11.2c11.9 0 21.1-11.7 16.5-24.1-1.7-4.6-5.3-8.3-10-10-12.2-4.4-24 4.8-24 16.5h-11.2c0-18.7 18.2-33.5 38.1-27.4 8.7 2.7 15.5 9.5 18.2 18.2 6.1 19.8-8.7 38-27.6 38z"/><path id="Shape_1_" class="st0" d="M-585.4-637.5h-11.5v-10.3h11.5v10.3zm-10.2 8.9h-9v-9h9v9zm-9-8.9h-7.7v-6.4h7.7v6.4z"/></g></svg>