<?xml version="1.0" encoding="utf-8"?>
<!-- Generator: Adobe Illustrator 21.1.0, SVG Export Plug-In . SVG Version: 6.00 Build 0)  -->
<svg version="1.1" id="Layer_1" xmlns="http://www.w3.org/2000/svg" xmlns:xlink="http://www.w3.org/1999/xlink" x="0px" y="0px"
	 viewBox="0 0 80 80" enable-background="new 0 0 80 80" xml:space="preserve">
<g id="Pipelines">
	<g id="NL_pipeline_actions" transform="translate(-486.000000, -621.000000)">
		<g id="icons_x2F_actions_x2F_.netcore" transform="translate(464.000000, 595.000000)">
			<rect id="Rectangle-10-Copy-12" x="22" y="26" fill="none" width="80" height="80"/>
			<g id="Group-2" transform="translate(22.000000, 26.000000)">
				<path id="Fill-11" d="M37.1,39.5h-1.9l-6.9-10.7c-0.2-0.3-0.3-0.5-0.4-0.8h-0.1c0,0.3,0.1,0.9,0.1,1.8v9.7h-1.6V26.1h2l6.7,10.5
					c0.3,0.4,0.4,0.7,0.5,0.9h0c-0.1-0.4-0.1-1-0.1-2v-9.4h1.6L37.1,39.5L37.1,39.5z"/>
				<polygon id="Fill-12" points="47.2,39.5 40.1,39.5 40.1,26.1 46.9,26.1 46.9,27.5 41.7,27.5 41.7,32 46.5,32 46.5,33.4 
					41.7,33.4 41.7,38.1 47.2,38.1 				"/>
				<polygon id="Fill-13" points="58,27.5 54.1,27.5 54.1,39.5 52.5,39.5 52.5,27.5 48.7,27.5 48.7,26.1 58,26.1 				"/>
				<path id="Combined-Shape" d="M55.6,49.6h-5.4c0,0.9,0.2,1.5,0.7,2s1,0.7,1.8,0.7c0.9,0,1.7-0.3,2.4-0.9v1.2
					c-0.7,0.5-1.6,0.7-2.7,0.7c-1.1,0-1.9-0.3-2.5-1S49,50.6,49,49.4c0-1.2,0.3-2.2,1-2.9s1.5-1.1,2.5-1.1s1.8,0.3,2.3,1
					c0.5,0.6,0.8,1.5,0.8,2.7V49.6z M54.4,48.6c0-0.7-0.2-1.3-0.5-1.7s-0.8-0.6-1.4-0.6c-0.6,0-1.1,0.2-1.5,0.6
					c-0.4,0.4-0.7,1-0.7,1.6H54.4z"/>
				<path id="Path" d="M48.4,46.7c-0.2-0.2-0.5-0.2-0.9-0.2c-0.5,0-1,0.2-1.3,0.7s-0.5,1.2-0.5,2v3.9h-1.2v-7.7h1.2v1.6h0
					c0.2-0.5,0.4-1,0.8-1.3s0.8-0.5,1.2-0.5c0.3,0,0.6,0,0.7,0.1V46.7z"/>
				<path id="Fill-10" d="M24.1,38.7c0,0.3-0.1,0.5-0.3,0.7c-0.2,0.2-0.5,0.3-0.7,0.3c-0.3,0-0.5-0.1-0.7-0.3
					c-0.2-0.2-0.3-0.5-0.3-0.7c0-0.3,0.1-0.5,0.3-0.7c0.2-0.2,0.4-0.3,0.7-0.3c0.3,0,0.5,0.1,0.7,0.3C24,38.1,24.1,38.4,24.1,38.7"
					/>
				<path id="Combined-Shape_1_" d="M38.6,53.3c-1.1,0-2-0.4-2.7-1.1c-0.7-0.7-1-1.7-1-2.8c0-1.3,0.4-2.3,1.1-3
					c0.7-0.7,1.7-1.1,2.8-1.1c1.1,0,2,0.4,2.7,1.1c0.6,0.7,1,1.7,1,2.9c0,1.2-0.3,2.2-1,2.9S39.8,53.3,38.6,53.3z M38.7,46.4
					c-0.8,0-1.4,0.3-1.9,0.8c-0.5,0.5-0.7,1.3-0.7,2.2c0,0.9,0.2,1.6,0.7,2.1s1.1,0.8,1.9,0.8c0.8,0,1.4-0.3,1.8-0.8
					s0.6-1.2,0.6-2.2c0-1-0.2-1.7-0.6-2.2S39.5,46.4,38.7,46.4z"/>
				<path id="Path_1_" d="M33.4,52.7c-0.8,0.4-1.8,0.6-3,0.6c-1.5,0-2.7-0.5-3.7-1.5c-0.9-1-1.4-2.3-1.4-3.9c0-1.7,0.5-3.1,1.5-4.2
					c1-1.1,2.3-1.6,3.9-1.6c1,0,1.9,0.1,2.5,0.4V44c-0.8-0.4-1.6-0.6-2.5-0.6c-1.2,0-2.2,0.4-3,1.2c-0.8,0.8-1.1,1.9-1.1,3.3
					c0,1.3,0.4,2.3,1.1,3.1c0.7,0.8,1.7,1.2,2.8,1.2c1.1,0,2-0.2,2.8-0.7V52.7z"/>
			</g>
		</g>
	</g>
</g>
</svg>
