<?xml version="1.0" encoding="utf-8"?>
<!-- Generator: Adobe Illustrator 22.0.0, SVG Export Plug-In . SVG Version: 6.00 Build 0)  -->
<svg version="1.1" id="Layer_1" xmlns="http://www.w3.org/2000/svg" xmlns:xlink="http://www.w3.org/1999/xlink" x="0px" y="0px"
	 viewBox="0 0 80 80" style="enable-background:new 0 0 80 80;" xml:space="preserve">
<style type="text/css">
	.st0{fill:none;}
	.st1{fill:#136DA9;}
	.st2{fill:#F0F0F0;}
	.st3{fill:none;stroke:#FFFDFF;}
	.st4{fill:#008ECE;}
	.st5{fill:#A0D8F1;}
</style>
<title>icons/services/drupal copy</title>
<desc>Created with Sketch.</desc>
<g id="SANDBOX">
	<g id="NL_Sandboxes-Box---stacks-logos" transform="translate(-419.000000, -936.000000)">
		<g id="icons_x2F_services_x2F_drupal" transform="translate(400.000000, 920.000000)">
			<rect id="Rectangle-10-Copy-9" x="19" y="16" class="st0" width="80" height="80"/>
			<g id="stack-drupal" transform="translate(19.000000, 16.000000)">
				<path id="Shape" class="st1" d="M32.8,23.7c-8.4,3.6-13.6,10.5-13.6,19.5c0,11.5,9.3,20.7,20.7,20.7c11.5,0,20.7-9.3,20.7-20.7
					C60.6,29.5,47.8,24,47.8,24s-2.8-1.2-4.4-2.2c0,0-2-1.2-5.4-5.7C38.1,16.1,38.1,21.2,32.8,23.7"/>
				<path id="Shape_1_" class="st2" d="M37.8,60c-0.7-0.5-0.6-2.1,1.4-1c0,0,4.2,3.1,10.9-0.6c0.5-0.3,1.2,0.7-0.5,1.7
					C49.6,60,42.9,63.5,37.8,60L37.8,60z"/>
				<path id="Shape_2_" class="st3" d="M37.8,60c-0.7-0.5-0.6-2.1,1.4-1c0,0,4.2,3.1,10.9-0.6c0.5-0.3,1.2,0.7-0.5,1.7
					C49.6,60,42.9,63.5,37.8,60L37.8,60z"/>
				<path id="Shape_3_" class="st2" d="M46.4,54.8c2.4,0.3,1.6,1.5,2.3,1.6c1.3,0.4,0.8-1.1,0.8-1.1c-1-2-2.7-1.9-2.7-1.9
					c-2.7-0.4-4.7,2.1-4.7,2.1c-0.5,1.1,0.2,1.1,0.5,1C43.8,56.1,44.6,54.6,46.4,54.8L46.4,54.8z"/>
				<path id="Shape_4_" class="st3" d="M46.4,54.8c2.4,0.3,1.6,1.5,2.3,1.6c1.3,0.4,0.8-1.1,0.8-1.1c-1-2-2.7-1.9-2.7-1.9
					c-2.7-0.4-4.7,2.1-4.7,2.1c-0.5,1.1,0.2,1.1,0.5,1C43.8,56.1,44.6,54.6,46.4,54.8L46.4,54.8z"/>
				<path id="Shape_5_" class="st4" d="M21.9,53.7c0,0,7.4,6.2,25.5-7.6c0,0,9.1-5.7,8.8-15.5c0,0-2.9-4.2-7.9-6.4
					c-0.7-0.3-6.9-3.7-10.3-7.9c0,0-0.6,12.3-16.4,17.2c0,0-4,5.9-1.8,15.4C19.9,48.8,21.3,52.7,21.9,53.7"/>
				<path id="Shape_6_" class="st2" d="M33.7,56c0,0-6.2,0.2-5.4-6.4c0,0,1.3-7.4,10-5.8c0,0,1.9,0.4,5.4,3.1c0,0,2.3,1.8,3.6,1.8
					c0,0,1,0.1,3.1-1.2c0,0,4.2-3.3,5.7-3.2c0,0,3-0.3,3,4.4c0,0,0.1,5.2-3.9,7c0,0-1,0.4-2.2-0.8c0,0-3.2-3.7-4.8-4.3
					c0,0-0.9-0.4-2.1,0.1c0,0-0.8,0.1-4.1,2.2C41.9,52.9,36.4,56.4,33.7,56L33.7,56z"/>
				<path id="Shape_7_" class="st3" d="M33.7,56c0,0-6.2,0.2-5.4-6.4c0,0,1.3-7.4,10-5.8c0,0,1.9,0.4,5.4,3.1c0,0,2.3,1.8,3.6,1.8
					c0,0,1,0.1,3.1-1.2c0,0,4.2-3.3,5.7-3.2c0,0,3-0.3,3,4.4c0,0,0.1,5.2-3.9,7c0,0-1,0.4-2.2-0.8c0,0-3.2-3.7-4.8-4.3
					c0,0-0.9-0.4-2.1,0.1c0,0-0.8,0.1-4.1,2.2C41.9,52.9,36.4,56.4,33.7,56L33.7,56z"/>
				<path id="Shape_8_" class="st4" d="M36.9,32.3c4-5.7,1.1-16.2,1.1-16.2c-0.4,5.7-5.2,7.6-5.2,7.6c-8.6,3.7-11.2,9.6-11.2,9.6
					C23.5,35.9,28.4,44.5,36.9,32.3"/>
				<path id="Shape_9_" class="st5" d="M38.1,16.1c0,0,0.5,4.8-2.1,6.4c0,0-4.2,1.9-5.5,2.6c0,0-5.4,3.2-7.1,6.3
					c0,0-3.8,5.1,1.4,3.9c0,0,9.4-2.7,13.3-10.7c0,0,0.2-0.7-0.5-1.4C37.6,23.1,40.5,20.9,38.1,16.1"/>
				<path id="Shape_10_" class="st2" d="M38.1,16.1c0,0,0.2,3.3-2.5,6c0,0-0.8,1.2-5,3c0,0-4.8,2.5-7,6c0,0-3.2,3.9,1.2,2.8
					c0,0,8.9-3.3,12.2-9.3c0,0,0.4-0.6-0.2-1.3C36.7,23.3,39.9,20.8,38.1,16.1"/>
			</g>
		</g>
	</g>
</g>
</svg>
