<?xml version="1.0" encoding="utf-8"?>
<!-- Generator: Adobe Illustrator 21.1.0, SVG Export Plug-In . SVG Version: 6.00 Build 0)  -->
<svg version="1.1" id="Layer_1" xmlns="http://www.w3.org/2000/svg" xmlns:xlink="http://www.w3.org/1999/xlink" x="0px" y="0px"
	 viewBox="0 0 80 80" enable-background="new 0 0 80 80" xml:space="preserve">
<g id="Pipelines">
	<g id="NL_pipeline_actions" transform="translate(-198.000000, -183.000000)">
		<g id="icons_x2F_actions_x2F_ftp" transform="translate(176.000000, 163.000000)">
			<g id="Group-2" transform="translate(22.000000, 20.000000)">
				<path id="Rectangle-15" fill="#C05DBB" d="M22,27h37v19c0,1.7-1.3,3-3,3H25c-1.7,0-3-1.3-3-3V27z"/>
				<path id="Rectangle-15-Copy" opacity="0.5" fill="#9F2998" enable-background="new    " d="M59,27v19c0,1.7-1.3,3-3,3H24.1
					c-1.7,0-1.9-0.7-0.4-1.5L59,27z"/>
				<path id="Rectangle-15-Copy-2" opacity="0.5" fill="#9F2998" enable-background="new    " d="M56.4,47.2c1.3,1,1.1,1.8-0.6,1.8
					H25.2c-1.7,0-1.8-0.7-0.4-1.5L42.3,37L56.4,47.2z"/>
				<path id="Combined-Shape" fill="#9F2898" d="M43,53v-3h-5v3H23v4h35v-4H43z M22,24h34c1.7,0,3,1.3,3,3v3H22V24z M22,22
					c0-1.1,0.9-2,2-2h13c1.1,0,2,0.9,2,2v2H22V22z"/>
				<rect id="Rectangle-8" x="36" y="52" fill="#E062D8" width="9" height="6"/>
			</g>
			<g enable-background="new    ">
				<path fill="#FFFFFF" d="M56.1,60.1V63h-2.3v-8.1h5.1v1.9h-2.8v1.4h2.6v1.9H56.1z"/>
				<path fill="#FFFFFF" d="M63.6,56.8V63h-2.3v-6.2h-1.7v-1.9h5.7v1.9H63.6z"/>
				<path fill="#FFFFFF" d="M72.3,57.6c0,0.5-0.1,1-0.2,1.4s-0.4,0.7-0.6,0.9s-0.6,0.4-0.9,0.5s-0.7,0.2-1.1,0.2h-0.7V63h-2.2v-8.1
					h3c0.4,0,0.9,0,1.2,0.1c0.4,0.1,0.7,0.3,0.9,0.5c0.2,0.2,0.4,0.5,0.6,0.8C72.3,56.7,72.3,57.2,72.3,57.6z M70,57.7
					c0-0.4-0.1-0.6-0.2-0.8c-0.1-0.1-0.3-0.2-0.5-0.2h-0.7v2.1h0.7c0.2,0,0.4-0.1,0.5-0.2S70,58.1,70,57.7z"/>
			</g>
		</g>
	</g>
</g>
</svg>
