<svg id="Layer_1" xmlns="http://www.w3.org/2000/svg" viewBox="0 0 106.9 96.4"><style>.st0{fill:#f6d2a2}.st1{fill:#69d7e2}.st2{fill:#fff}.st3{fill:#231f20}</style><g id="Page-1" transform="translate(978 1603)"><path id="Fill-1" class="st0" d="M-941.5-1553.1c.1 1.4 1.5.8 2.1.3.6-.4.8-.1.8-.9 0-.5.1-1.1.1-1.6-.9-.1-1.9.1-2.7.7-.4.3-1.1 1.2-.3 1.5"/><path id="Fill-2" class="st0" d="M-913.3-1535.7c1.1.7 3.1 2.7 1.4 3.7-1.6 1.4-2.4-1.6-3.8-2 .6-.8 1.3-1.5 2.4-1.7z"/><path id="Fill-3" class="st0" d="M-932.8-1533.4c-1.3.2-2 1.3-3.1 1.9-1 .6-1.4-.2-1.5-.4-.2-.1-.1.1-.4-.2-.9-1.5 1-2.5 2-3.3 1.4-.1 2.3 1.1 3 2z"/><path id="Fill-4" class="st0" d="M-907.3-1553.3c-.1 1.4-1.5.8-2.1.3-.6-.4-.8-.1-.8-.9 0-.5-.1-1.1-.1-1.6.9-.1 1.9.1 2.7.7.3.3 1 1.2.3 1.5"/><path id="Fill-5" class="st1" d="M-911.1-1570.5c4.9-1.7 1.1-8.4-3.2-5.5-2.8-2.4-6.7-2.8-10.7-2.8-4 .3-7.7 1-10.4 3.4-4.3-2.7-8.2 3.8-3.2 5.5-1.4 5.4.2 11 0 16.5-.2 5-1.5 11.6 1.3 16.1 2.3 3.8 7.4 5.2 11.6 5.3 5.3.2 11.8-1.1 14.3-6.3 2.5-4.9 1.8-11 1.5-16.3-.4-5.3.2-10.8-1.2-15.9z"/><path id="Fill-6" d="M-906.9-1554.1c-.1-.3-.4-.6-.6-.8-.6-.5-1.4-.7-2.3-.7 0-.9-.1-1.8-.1-3v-1.1c0-3.4-.1-4.9-.2-6.7-.2-1.5-.4-2.8-.7-4.1 1.1-.4 1.8-1.1 2.1-2 .3-.8.1-1.8-.3-2.6-.5-.8-1.3-1.4-2.1-1.7-1-.3-2-.1-3 .6-.9-.8-1.9-1.3-3.1-1.8-2-.8-4.4-1-7.7-1v.1-.1c-3.4.3-6 .8-8.1 1.8-.9.4-1.6.9-2.3 1.5-1-.6-2.1-.8-3.1-.5-.9.3-1.7.9-2.2 1.8-.5.8-.6 1.8-.3 2.6s1 1.5 2.1 1.9c-.3 1.4-.5 2.9-.5 4.5s0 2.8.3 5.7c.2 2.1.2 3.1.3 4.3-.9 0-1.9.2-2.6.7-.2.2-.5.5-.6.8-.2.4-.1.7.2.9.1.7.4 1 1 .9.4 0 .9-.3 1.3-.6.1-.1.2-.1.3-.2h.2s.1 0 .1-.1c0 .6-.1 1.3-.2 2.9-.1 1.7-.2 2.7-.2 3.7-.1 3.9.3 6.8 1.7 9.1.4.7 1 1.3 1.6 1.9-.1.1-.6.5-.8.6-.6.4-1 .8-1.2 1.2-.3.5-.3 1.1 0 1.6.2.2.2.2.3.2v.1c0 .1.1.1.1.2.3.4.8.5 1.5.1.3-.2.6-.4 1.1-.8.8-.7 1.3-1 1.9-1.1h.2c.1 0 .2.1.3.1 2 .8 4.2 1.2 6.5 1.3 3 .1 5.8-.3 8.2-1.1.6-.2 1.3-.5 1.8-.8.4.1.7.4 1.2 1.1v.2l.1.1c.5.5.8.8 1.1.9.5.2.9.1 1.3-.3.8-.5.9-1.3.3-2.1-.4-.6-1-1.3-1.6-1.7.7-.7 1.3-1.5 1.8-2.5 1.3-2.6 1.8-5.7 1.8-9.7 0-1.4-.1-2.6-.2-5v-.1c.1 0 .1.1.2.1.4.3.9.5 1.3.6.6.1.9-.2 1-.9.9-.3.9-.6.8-1zm-4.4-22.4c.8.2 1.5.8 2 1.6.4.8.6 1.6.3 2.4-.3.8-.9 1.5-2 1.8-.2-.7-.5-1.5-.7-2.2.4-.3.6-.8.3-1.4-.3-.6-.9-.7-1.4-.5-.4-.5-.8-.9-1.2-1.3.9-.5 1.8-.6 2.7-.4zm-29.3 4.6c-.3-.7-.2-1.6.2-2.4.4-.8 1.2-1.4 2-1.6.9-.3 1.8-.1 2.8.4-.5.5-1 1-1.4 1.6-.7-.4-1.4-.4-1.9.3-.4.8.1 1.3.8 1.7-.1.2-.2.5-.3.7l-.3.9c-1-.2-1.6-.8-1.9-1.6zm1.7 18.8c-.1 0-.1 0 0 0-.1.1-.2.1-.2.1-.1 0-.2.1-.3.2-.4.3-.9.5-1.2.5-.4 0-.6-.1-.7-.6.3-.1.4-.2.5-.3l-.2-.2c-.1.1-.2.2-.4.2-.2-.1-.3-.3-.1-.6.1-.2.4-.5.6-.7.7-.5 1.5-.7 2.4-.7v1.5c-.3.4-.3.5-.4.6zm4.1 20.7c-.5.5-.8.6-1.1.8-.5.3-.9.2-1.1-.1l-.1-.1v-.1c0-.2.1-.4.4-.8.2-.2.2-.3.3-.5l-.2-.1c-.1.1-.1.2-.3.5-.2.4-.4.6-.4.8 0 0-.1 0-.1-.1-.5-.9-.1-1.6 1.1-2.5.2-.1.7-.5.8-.6h.1c.7.6 1.6 1.2 2.6 1.6-.8.3-1.2.5-2 1.2zm23.1-1.5c.4.7.4 1.3-.1 1.7 0-.1-.1-.2-.1-.3-.2-.5-.3-.7-.5-1l-.2.2c.2.2.3.4.5.9.1.2.1.3.2.4-.4.3-.7.4-1 .2-.3-.1-.6-.4-1-.9l-.1-.1v-.1-.1c-.5-.6-.8-.9-1.1-1.1.8-.4 1.5-.9 2.1-1.5.3.5.9 1.1 1.3 1.7zm.2-4.4c-1.2 2.4-3.3 4.1-6.1 5.1-2.4.9-5.2 1.2-8.1 1.1-5-.2-9.4-1.9-11.5-5.3-1.4-2.2-1.8-5-1.7-8.9 0-1.1.1-2 .2-3.7.2-2 .2-2.5.2-3.4v-2c0-1.2-.1-2.2-.3-4.3-.2-2.9-.3-4.1-.3-5.7 0-2.1.3-3.9.9-5.6.9-2.8 2.7-4.7 5.1-5.9 2.1-1 4.6-1.5 8-1.8 3.2 0 5.5.3 7.6 1 2.4.9 4.2 2.5 5.5 4.9.8 2 1.3 4.1 1.5 6.5.2 1.8.2 3.3.2 6.7v1.1c0 1.7 0 2.8.1 4 0 .5 0 .6.1 1.7.2 2.3.2 3.5.2 4.9.2 3.9-.3 7-1.6 9.6zm4.2-15.1s-.1 0 0 0c-.3-.1-.4-.2-.5-.2l-.2.2c.1.2.2.2.5.3-.1.5-.3.7-.7.6-.4 0-.8-.2-1.2-.5-.1-.1-.2-.1-.3-.2-.1-.8-.1-.9-.1-1.3v-.7c.8 0 1.5.2 2.1.7.2.2.5.4.6.7 0 .1 0 .3-.2.4z"/><path id="Fill-7" class="st2" d="M-922.9-1564.7c0 .7.2 1.5 0 2.2-.2.4-.5.4-.9.5-.4-.1-.8-.4-1-.8-.1-.8 0-1.6.1-2.5 0 0 .5 0 1 .2l.8.4z"/><path id="Fill-8" class="st2" d="M-926.8-1564.6c-.4 1.5.5 3.8 2 1.9-.1-.8 0-1.6.1-2.4 0-.1-2.1.4-2.1.5z"/><path id="Fill-9" d="M-922.7-1564v-.9h-.1l-1.7-.5v-.1h-.2l-2 .5h-.1v.1c-.3.7-.2 1.8.2 2.5.4.8 1.2.8 1.9-.1.2.4.6.7 1 .7.1 0 .1 0 .2-.1.4-.1.6-.2.7-.5 0-.2.1-.5.1-.8v-.8zm-2.2-.5v1.8c-.6.8-1.2.8-1.5.2-.3-.6-.4-1.6-.2-2.2l1.7-.4v.6zm1.9 2c-.1.2-.2.2-.5.4-.1 0-.1.1-.2.1-.4-.1-.7-.3-.8-.7v-1.3-.5-.7l1.5.5v2.2z"/><path id="Fill-10" class="st2" d="M-935.1-1570.7c1.3 4.9 9.1 3.7 8.8-1.3-.3-5.8-10-4.7-8.8 1.3"/><path id="Fill-11" d="M-926.1-1571.9c-.1-1.4-.7-2.5-1.8-3.2-.9-.6-2.2-.9-3.4-.7-1.2.2-2.3.7-3.1 1.6-.8 1-1.1 2.2-.9 3.7h.1-.1c1.4 4.9 9.5 3.7 9.2-1.4zm-8.8 1.2c-.3-1.4 0-2.6.8-3.5.7-.8 1.8-1.3 2.9-1.5 1.2-.2 2.3.1 3.2.7 1 .7 1.6 1.7 1.6 3.1.3 4.8-7.3 5.9-8.5 1.2z"/><path id="Fill-12" d="M-932.9-1572.9c.7 0 1.3.6 1.3 1.4 0 .8-.6 1.4-1.3 1.4s-1.3-.6-1.3-1.4c0-.8.6-1.4 1.3-1.4z"/><path id="Fill-13" class="st2" d="M-932.3-1571.5c.2 0 .3.2.3.4s-.1.4-.3.4c-.2 0-.3-.2-.3-.4s.1-.4.3-.4z"/><path id="Fill-14" class="st2" d="M-924-1571.6c1 5.6 10.2 4.1 8.9-1.5-1.2-5.1-9.2-3.7-8.9 1.5"/><path id="Fill-15" d="M-915-1573.1c-1.2-5.3-9.5-3.8-9.1 1.6.5 2.7 2.8 4 5.5 3.6 1.2-.2 2.3-.8 3-1.6.6-1 .9-2.3.6-3.6zm-.9 3.3c-.7.8-1.7 1.3-2.8 1.5-2.5.4-4.7-.9-5.2-3.4-.3-5.1 7.5-6.4 8.6-1.5.3 1.4.1 2.6-.6 3.4z"/><path id="Fill-16" d="M-921.7-1573.3c.7 0 1.3.6 1.3 1.4s-.6 1.4-1.3 1.4c-.7 0-1.3-.6-1.3-1.4s.5-1.4 1.3-1.4z"/><path id="Fill-17" class="st2" d="M-921.1-1571.9c.2 0 .3.2.3.4s-.1.4-.3.4c-.2 0-.3-.2-.3-.4s.1-.4.3-.4z"/><path id="Fill-18" class="st0" d="M-926.5-1567.6c-1.1.1-2 1.4-1.4 2.4.7 1.3 2.4-.1 3.4 0 1.2 0 2.2 1.3 3.1.2 1.1-1.2-.5-2.3-1.6-2.8l-3.5.2z"/><path id="Fill-19" class="st3" d="M-921.2-1566.7c-.4-.5-1-.9-1.7-1.2l-3.5.1c-1.2.1-2.1 1.5-1.5 2.6.2.4.5.6 1 .6.3 0 .6-.1 1.2-.2 0 0 .1 0 .2-.1.7-.2 1-.3 1.2-.3.3 0 .6.1 1.1.3.6.2.8.3 1 .3.4 0 .7-.1 1.1-.5.4-.3.4-1-.1-1.6zm-.2 1.7c-.3.3-.5.4-.8.4-.2 0-.4-.1-1-.3-.5-.2-.9-.3-1.2-.3-.3 0-.6 0-1.4.3-.1 0-.1 0-.2.1-1 .3-1.5.3-1.8-.3-.5-.9.3-2.1 1.3-2.2l3.5-.1c.7.3 1.3.7 1.6 1.1.4.3.4.8 0 1.3z"/><path id="Fill-20" d="M-922.7-1568.2c-.4-1.6-4-1.3-3.9.5.1 1.5 4.3 1.1 3.9-.5z"/></g></svg>