<?xml version="1.0" encoding="utf-8"?>
<!-- Generator: Adobe Illustrator 23.0.1, SVG Export Plug-In . SVG Version: 6.00 Build 0)  -->
<svg version="1.1" id="Layer_1" xmlns="http://www.w3.org/2000/svg" xmlns:xlink="http://www.w3.org/1999/xlink" x="0px" y="0px"
	 viewBox="0 0 669 489" style="enable-background:new 0 0 669 489;" xml:space="preserve">
<style type="text/css">
	.st0{opacity:0.9;fill:none;stroke:#11E7C4;enable-background:new    ;}
	.st1{opacity:0.8;fill:none;stroke:#11E7C4;enable-background:new    ;}
	.st2{opacity:0.7;fill:none;stroke:#11E7C4;enable-background:new    ;}
	.st3{opacity:0.6;fill:none;stroke:#11E7C4;enable-background:new    ;}
	.st4{opacity:0.5;fill:none;stroke:#11E7C4;enable-background:new    ;}
	.st5{opacity:0.4;fill:none;stroke:#11E7C4;enable-background:new    ;}
	.st6{opacity:0.3;fill:none;stroke:#11E7C4;enable-background:new    ;}
	.st7{opacity:0.2;fill:none;stroke:#11E7C4;enable-background:new    ;}
	.st8{opacity:0.1;fill:none;stroke:#11E7C4;enable-background:new    ;}
	.st9{opacity:5.000000e-02;fill:none;stroke:#11E7C4;enable-background:new    ;}
	.st10{fill:none;stroke:url(#SVGID_1_);}
	.st11{fill:none;stroke:url(#SVGID_2_);}
	.st12{fill:none;stroke:url(#SVGID_3_);}
	.st13{fill:none;stroke:url(#SVGID_4_);}
	.st14{fill:none;stroke:url(#SVGID_5_);}
	.st15{fill:none;stroke:#423DCE;}
</style>
<g>
	<path class="st0" d="M383,17l-28.7,24.5l64.1,8.2l18,29.3l37.7-20.2l37.2-17.3l-15.8-26.9"/>
	<path class="st1" d="M358.3,31.9l-43.3,36.4l96.8,11.8l26,44.1l56-30.3l55.8-25.7l-24.2-40"/>
	<path class="st2" d="M333.5,46.9l-57.9,48.3L405,110.7l34,59l74.4-40.4l74.4-34.1l-32.6-53"/>
	<path class="st3" d="M308.8,61.8l-72.5,60.3l162,19.2l42,73.9l92.7-50.5l93.1-42.5L585.1,56"/>
	<path class="st4" d="M284.1,76.8L196.9,149l194.6,22.8l50,88.8l111-60.7L664.3,149l-49.3-79.2"/>
	<path class="st5" d="M259.4,91.8l-101.8,84.1l227.2,26.5l58,103.7l129.4-70.8l130.4-59.4L645,83.7"/>
	<path class="st6" d="M234.7,106.7l-116.4,96.1l259.9,30.1l66,118.6l147.7-80.9l149-67.8l-66-105.3"/>
	<path class="st7" d="M210,121.6l-131,108l292.5,33.8l74,133.4l166.1-91l167.7-76.2l-74.4-118.3"/>
	<path class="st8" d="M185.2,136.6L39.6,256.5L364.7,294l82,148.3l184.4-101.1l186.3-84.6l-82.7-131.4"/>
	<path class="st9" d="M160.5,151.6L0.3,283.4L358,324.5l90,163.2l202.8-111.3l204.9-93L764.7,139"/>
	
		<linearGradient id="SVGID_1_" gradientUnits="userSpaceOnUse" x1="-201.9463" y1="783.0342" x2="-200.9463" y2="784.0342" gradientTransform="matrix(67.132 0 0 -305.433 13915.0586 239489.0156)">
		<stop  offset="0" style="stop-color:#5262FC;stop-opacity:0"/>
		<stop  offset="1" style="stop-color:#423DCE"/>
	</linearGradient>
	<path class="st10" d="M358,324.5l67.1-305.4"/>
	
		<linearGradient id="SVGID_2_" gradientUnits="userSpaceOnUse" x1="-188.1943" y1="783.3506" x2="-189.1943" y2="784.3506" gradientTransform="matrix(12.97 0 0 -454.24 2888.9312 356316.875)">
		<stop  offset="0" style="stop-color:#5262FC;stop-opacity:0"/>
		<stop  offset="1" style="stop-color:#423DCE"/>
	</linearGradient>
	<path class="st11" d="M435.1,33.5l13,454.2"/>
	
		<linearGradient id="SVGID_3_" gradientUnits="userSpaceOnUse" x1="-204.5127" y1="782.9678" x2="-203.5127" y2="783.9678" gradientTransform="matrix(407.399 0 0 -281.445 83312.0938 220641.3281)">
		<stop  offset="0" style="stop-color:#5262FC;stop-opacity:0"/>
		<stop  offset="1" style="stop-color:#423DCE"/>
	</linearGradient>
	<path class="st12" d="M393.6,14.6L0.3,283.4 M407.7,2L160.5,151.6"/>
	
		<linearGradient id="SVGID_4_" gradientUnits="userSpaceOnUse" x1="-203.9645" y1="783.4029" x2="-204.4645" y2="783.9029" gradientTransform="matrix(382.828 0 0 -268.89 78747.6562 210798.2188)">
		<stop  offset="0" style="stop-color:#5262FC;stop-opacity:0"/>
		<stop  offset="1" style="stop-color:#423DCE"/>
	</linearGradient>
	<path class="st13" d="M472.9,14.6l382.8,268.9"/>
	
		<linearGradient id="SVGID_5_" gradientUnits="userSpaceOnUse" x1="-203.6317" y1="782.1849" x2="-204.3163" y2="782.8655" gradientTransform="matrix(299.206 0 0 -138.3 61597.6758 108271.2031)">
		<stop  offset="0" style="stop-color:#5262FC;stop-opacity:0"/>
		<stop  offset="1" style="stop-color:#423DCE"/>
	</linearGradient>
	<path class="st14" d="M465.5,0.7L764.7,139"/>
	<path class="st15" d="M425.1,19.1l9.9,14.4l19.3-10.1l18.5-8.9l-7.5-13.9l-30.4,3.1L407.7,2l-14.1,12.6L425.1,19.1z"/>
</g>
</svg>
