<?xml version="1.0" encoding="utf-8"?>
<!-- Generator: Adobe Illustrator 21.1.0, SVG Export Plug-In . SVG Version: 6.00 Build 0)  -->
<svg version="1.1" id="Layer_1" xmlns="http://www.w3.org/2000/svg" xmlns:xlink="http://www.w3.org/1999/xlink" x="0px" y="0px"
	 viewBox="0 0 80 80" enable-background="new 0 0 80 80" xml:space="preserve">
<g id="Pipelines">
	<g id="NL_pipeline_actions" transform="translate(-630.000000, -620.000000)">
		<g id="icons_x2F_actions_x2F_gradle" transform="translate(608.000000, 595.000000)">
			<rect id="Rectangle-10-Copy-12" x="22" y="25" fill="none" width="80" height="80"/>
			<g id="Group-2" transform="translate(22.000000, 25.000000)">
				<path id="Shape" fill="#00313B" d="M57.7,28.1C56.4,25.8,54,25,52.4,25c-2,0-3.7,1.1-3.4,1.9c0.1,0.1,0.5,0.9,0.7,1.3
					c0.3,0.5,0.9,0.1,1.2,0c0.6-0.3,1.3-0.5,2-0.4c0.7,0.1,1.7,0.6,2.4,1.8c1.5,3-3.2,9.2-9.1,4.9c-5.9-4.2-11.7-2.8-14.3-2
					c-2.6,0.9-3.8,1.8-2.7,3.8c1.4,2.7,0.9,1.8,2.3,4.1c2.1,3.5,6.8-1.7,6.8-1.7c-3.5,5.3-6.5,4-7.7,2.2c-1-1.7-1.8-3.6-1.8-3.6
					c-8.9,3.2-6.5,17.3-6.5,17.3h4.4c1.2-5.2,5.2-5,5.9,0h3.3c3-10.1,10.5,0,10.5,0h4.4c-1.2-6.9,2.5-9.1,4.8-13.1
					C57.9,37.4,60.1,32.5,57.7,28.1L57.7,28.1z M46.3,41.5c-2.3-0.8-1.4-3.2-1.4-3.2s2,0.7,4.7,1.6C49.5,40.6,48.1,42,46.3,41.5
					L46.3,41.5z"/>
				<path id="Shape_1_" fill="#00313B" d="M48.4,39.7c0.1,0.6-0.4,1.2-1.1,1.3S46,40.6,46,39.9c-0.1-0.6,0.4-1.2,1.1-1.3
					C47.7,38.6,48.3,39,48.4,39.7"/>
				<path id="Shape_2_" fill="#00313B" d="M57.7,28.1C56.4,25.8,54,25,52.4,25c-2,0-3.7,1.1-3.4,1.9c0.1,0.1,0.5,0.9,0.7,1.3
					c0.3,0.5,0.9,0.1,1.2,0c0.6-0.3,1.3-0.5,2-0.4c0.7,0.1,1.7,0.6,2.4,1.8c1.5,3-3.2,9.2-9.1,4.9c-5.9-4.2-11.7-2.8-14.3-2
					c-2.6,0.9-3.8,1.8-2.7,3.8c1.4,2.7,0.9,1.8,2.3,4.1c2.1,3.5,6.8-1.7,6.8-1.7c-3.5,5.3-6.5,4-7.7,2.2c-1-1.7-1.8-3.6-1.8-3.6
					c-8.9,3.2-6.5,17.3-6.5,17.3h4.4c1.2-5.2,5.2-5,5.9,0h3.3c3-10.1,10.5,0,10.5,0h4.4c-1.2-6.9,2.5-9.1,4.8-13.1
					C57.9,37.4,60.1,32.5,57.7,28.1L57.7,28.1z M46.3,41.5c-2.3-0.8-1.4-3.2-1.4-3.2s2,0.7,4.7,1.6C49.5,40.6,48.1,42,46.3,41.5
					L46.3,41.5z"/>
				<path id="Shape_3_" fill="#00313B" d="M48.4,39.7c0.1,0.6-0.4,1.2-1.1,1.3S46,40.6,46,39.9c-0.1-0.6,0.4-1.2,1.1-1.3
					C47.7,38.6,48.3,39,48.4,39.7"/>
			</g>
		</g>
	</g>
</g>
</svg>
