<?xml version="1.0" encoding="utf-8"?>
<!-- Generator: Adobe Illustrator 21.1.0, SVG Export Plug-In . SVG Version: 6.00 Build 0)  -->
<svg version="1.1" id="Layer_1" xmlns="http://www.w3.org/2000/svg" xmlns:xlink="http://www.w3.org/1999/xlink" x="0px" y="0px"
	 viewBox="0 0 80 80" enable-background="new 0 0 80 80" xml:space="preserve">
<g id="Pipelines">
	<g id="NL_pipeline_actions" transform="translate(-494.000000, -469.000000)">
		<g id="icons_x2F_actions_x2F_gulp" transform="translate(464.000000, 451.000000)">
			<rect id="Rectangle-10" x="30" y="18" fill="none" width="80" height="80"/>
			<g id="Group-2" transform="translate(30.000000, 18.000000)">
				<path id="Shape" fill="#D34A47" d="M45.3,60.7l0.4-7l1.2-2c0,0-2.7,1.1-7.1,1.1c-4.4,0-7.1-1.1-7.1-1.1l1.3,2.2l0.5,6.8
					c0,0.7,2.4,1.3,5.4,1.3C42.9,62,45.3,61.4,45.3,60.7"/>
				<path id="Shape_1_" fill="#D34A47" d="M44,27.8l0.9-3.5l4.9-5.2l-1.3-1.1l-5.2,5.5l-1,4.2c-0.7,0-1.5,0-2.3,0
					c-5.5,0-9.9,0.6-9.9,1.4c0,0.8,4.4,1.4,9.9,1.4c5.5,0,9.9-0.6,9.9-1.4C49.9,28.5,47.5,28,44,27.8"/>
				<path id="Shape_2_" fill="#FFFFFF" d="M43.5,29.8c0,0-0.2,0-0.8,0c-0.6,0-1,0-1.1-0.1c0,0-0.1-0.1-0.1-0.2
					c0-0.1,0.1-0.2,0.2-0.2l0.1,0.1c0,0-0.1,0-0.1,0c0,0.1,0.6,0.1,1,0.1c0.4,0,1,0,1-0.1c0,0,0,0-0.1-0.1l0.1-0.1
					c0.1,0,0.2,0.1,0.2,0.2C43.9,29.7,43.7,29.8,43.5,29.8"/>
				<path id="Shape_3_" fill="#D34A47" d="M49.8,19.2c0.1-0.1-0.1-0.5-0.4-0.8c-0.4-0.3-0.7-0.4-0.9-0.3c-0.1,0.1,0.1,0.5,0.4,0.8
					C49.3,19.2,49.7,19.3,49.8,19.2"/>
				<path id="Shape_4_" fill="#D34A47" d="M45.1,43.5c-0.1-1.1,2.4-2.7,1.8-2.8c-1.4,0.1-2.1,1.7-2.8,3.3c-0.3,0.6-1.2,3.2-1.7,2.9
					c-0.6-0.3,0.8-2.4,1.1-3.7c-0.4,0.3-2,1.6-2.4,0.4c-0.7,0.6-2.1,0.9-1.9-0.6c-0.4,0.6-1.1,1.5-2.1,1.1c-1.2-0.5,0.7-4.4,1.2-4.2
					c0.5,0.2-0.1,1.1-0.3,1.5c-0.3,0.8-0.7,1.7-0.5,1.9c0.4,0.3,1.7-1.3,1.7-1.3c0.2-0.3,0.9-2.3,1.4-2s-1.3,2.8-0.6,3.3
					c0.1,0.1,0.7-0.1,1-0.4c0.2-0.2,0.1-0.8,0.9-2.5c0.7-1.8,1.4-4,1.9-3.8c0.5,0.2,0.1,1.3-0.1,1.7c-0.9,2-2.3,5.2-1.6,5
					c0.7-0.2,1.1-0.3,1.7-1.1s0.6-2.1,1.1-2.1c0.5,0,0.4,0.4,0.3,0.8c0.4-0.5,2.1-1.6,2.5-0.5c0.5,1.3-2.4,3.1-1.7,3
					c0.7-0.1,1.8-0.8,2.3-1.5l1.3-11.9c0,0-1.3,1.1-9.8,1.1c-8.5,0-9.7-1.1-9.7-1.1l1.1,10.9c0.6-1.7,2-5.2,4.3-5
					c1,0.1,2.4,2,1.2,2.1c-0.5,0-0.5-1-1.1-1.1c-0.4-0.1-1,0.2-1.4,0.6c-0.8,0.7-2.4,3.7-2.2,5.1c0.3,1.9,2.6-0.6,3-1.4
					c0.3-0.5,0.5-2.1,1.1-1.9c0.6,0.2-0.1,1.8-0.5,3.2c-0.5,1.6-0.7,3.3-1.4,3.1c-0.6-0.2,0.4-2.2,0.3-2.6c-0.6,0.5-1.6,1.9-3,1.2
					l0.7,6.8c0,0,1.9,1.5,7.5,1.5s7.6-1.5,7.6-1.5l0.9-7.8C47.5,43.6,45.2,44.9,45.1,43.5"/>
			</g>
		</g>
	</g>
</g>
</svg>
