<svg id="b0225cde-a2d2-4693-8ce5-502a1e8a6144" xmlns="http://www.w3.org/2000/svg" viewBox="0 0 1077.38 752.86"><defs><style>.cls-1{fill:#3f3d56;}.cls-2{fill:#f2f2f2;}.cls-3{opacity:0.1;isolation:isolate;}.cls-4{fill:#2f2e41;}.cls-5{fill:#a0616a;}.cls-6{fill:#6c63ff;}.cls-7{fill:#5333ed;}</style></defs><title>H</title><path class="cls-1" d="M1047.66,432.44c-4.72,42.11-14.52,75.92-28,102.89-17.91,35.92-48.55,50.4-75.91,65.54A168.78,168.78,0,0,1,919.17,612c-49.8,18-105.53,13.23-149.31,3.72a566.81,566.81,0,0,0-93.22-12.27q-13.41-.63-26.84-.63c-13.81,0-262.45,4.94-323-122.71-14.94-31.49-25.19-69.95-28.87-116.84-10.41-132.55,46.83-219.6,120.67-276.51C558.28-20.87,749.73-16.35,887.35,94.12,979,167.71,1064.84,279.08,1047.66,432.44Z"/><path class="cls-2" d="M870.21,326.09c-41.7-31.17-107-60.65-179.18-80.88-65.71-18.42-129.8-27.31-180.49-25l-.26-5.9c51.29-2.29,116.05,6.67,182.35,25.26,72.84,20.42,138.86,50.24,181.11,81.83Z"/><path class="cls-3" d="M890.53,407q-1.41,3.18-2.93,6.28-8.64.95-18.19,1.36c-5.26.24-10.69.36-16.23.36-48.39,0-106.62-8.93-166.12-25.61-66.3-18.58-126.28-44.58-168.9-73.2-1.45-1-2.88-1.95-4.28-2.92q.23-3.43.57-6.81,3.39,2.42,7,4.84c42.12,28.27,101.5,54,167.22,72.41,59,16.53,116.66,25.39,164.49,25.39q8.21,0,16-.35Q880.49,408.24,890.53,407Z"/><circle class="cls-2" cx="715.68" cy="91.99" r="2.26"/><circle class="cls-2" cx="416.11" cy="188.35" r="2.26"/><circle class="cls-2" cx="407.83" cy="340.39" r="2.26"/><circle class="cls-2" cx="868.48" cy="105.54" r="1.51"/><circle class="cls-2" cx="1049.87" cy="317.81" r="1.51"/><circle class="cls-2" cx="967.08" cy="248.56" r="1.51"/><circle class="cls-2" cx="552.35" cy="139.41" r="1.51"/><circle class="cls-2" cx="961.81" cy="297.49" r="1.51"/><circle class="cls-2" cx="425.9" cy="448.78" r="1.51"/><circle class="cls-2" cx="515.47" cy="510.5" r="1.51"/><polygon class="cls-2" points="645.68 28.96 643.6 28.96 643.6 26.89 642.49 26.89 642.49 28.96 640.41 28.96 640.41 30.08 642.49 30.08 642.49 32.15 643.6 32.15 643.6 30.08 645.68 30.08 645.68 28.96"/><polygon class="cls-2" points="869.98 540.79 867.9 540.79 867.9 538.71 866.79 538.71 866.79 540.79 864.71 540.79 864.71 541.9 866.79 541.9 866.79 543.98 867.9 543.98 867.9 541.9 869.98 541.9 869.98 540.79"/><polygon class="cls-2" points="1009.23 509.93 1007.15 509.93 1007.15 507.85 1006.03 507.85 1006.03 509.93 1003.96 509.93 1003.96 511.04 1006.03 511.04 1006.03 513.12 1007.15 513.12 1007.15 511.04 1009.23 511.04 1009.23 509.93"/><circle class="cls-1" cx="713.42" cy="172.54" r="16.56"/><circle class="cls-1" cx="586.22" cy="293.72" r="16.56"/><circle class="cls-1" cx="769.12" cy="460.07" r="16.56"/><circle class="cls-1" cx="713.42" cy="319.32" r="16.56"/><circle class="cls-1" cx="594.5" cy="410.39" r="16.56"/><circle class="cls-1" cx="857.18" cy="342.65" r="16.56"/><path class="cls-1" d="M437,734.92c0,10.7-92.9,19.38-207.5,19.38S22,745.62,22,734.92s85.42-34.71,200-34.71S437,724.22,437,734.92Z"/><rect class="cls-4" x="107.58" y="116.62" width="81.44" height="67.4"/><polygon class="cls-5" points="247.45 680.63 254.48 707.58 235.73 710.51 226.94 682.39 247.45 680.63"/><polygon class="cls-5" points="114.46 676.53 114.46 705.24 94.54 705.24 97.47 676.53 114.46 676.53"/><path class="cls-4" d="M232.21,705.24s14.06-6.45,22.27,0,12.3,21.09,12.3,21.09,21.09,26.94-3.52,25.77-25.77-4.1-25.77-8.2,1.17-8.79-2.93-10.54-5.86-10-4.69-12.31S232.21,705.24,232.21,705.24Z"/><path class="cls-4" d="M118,700.55s-19.34-12.37-23.44-2.67-10,22-10,22-16.4,25.78,4.1,26.36,24-2.34,25.78-7.61,0-9.38,3.52-9.38,5.27-7.61,3.51-11.13S118,700.55,118,700.55Z"/><path class="cls-5" d="M173.63,156.31s-4.69,26.36,7.62,28.12,24.6,7,25.19,10.54-48,41-48,41l-29.88-9.37S98.64,219,99.82,213.13s3.51-14.06,3.51-14.06,34-7,34.56-17.57S142.58,154,142.58,154Z"/><path class="cls-3" d="M173.63,156.31s-4.69,26.36,7.62,28.12,24.6,7,25.19,10.54-48,41-48,41l-29.88-9.37S98.64,219,99.82,213.13s3.51-14.06,3.51-14.06,34-7,34.56-17.57S142.58,154,142.58,154Z"/><path class="cls-4" d="M96.3,321.51s21.22,20.27,63.34,18.34,38.6,12.71,38.6,12.71L196.48,376s22.26,97.83,19.33,149.38c0,0,1.17,24.61,9.37,38.08s30.47,113.07,26.95,120.69-29.29,4.68-29.29,4.68-24-90.8-35.74-111.31-12.88-32.22-12.88-32.22l-39.84-116-5.27,50.38s.58,39.84.58,43.35-.58,31.64-2.93,37.49-11.13,99.6-5.85,115.41-27.54,7-27.54,7-10-101.93-7-121.85-4.69-55.65-4.69-55.65-22.26-109-10-126.54c0,0,8.2-59.76,12.3-59.17Z"/><circle class="cls-5" cx="156.93" cy="136.68" r="32.22"/><path class="cls-6" d="M74.62,340.26c.6,1.79,7.59-1.9,14.3-5.95,6.46-3.89,12.65-8.11,12.65-8.11,7,22.26,51.56,13.47,51.56,13.47l.31.44c1.47,2,7.82,10.33,15.5,16,8.79,6.44,29.3-8.79,29.3-8.79s31.88-76.35,35.95-116.8c.9-8.9.46-16.06-2-20.29-13.47-23.43-32.43-20.48-32.43-20.48-3.14,8.23-28.49,20.48-28.49,20.48l-25.19,4.69c-25.19,4.69-32.81-21.67-32.81-21.67-7-1.18-19.92,11.71-19.92,11.71-12.3,3.52-18.75,44.53-18.75,44.53s1.23,1.52,3.14,3.95c1.08,1.37,2.37,3,3.79,4.85l1.51,2c6.5,8.47,14.7,19.61,16.76,24.39,3.51,8.2-3.52,20.5-11.72,19.91S73.45,336.75,74.62,340.26Z"/><path class="cls-5" d="M157.23,371.9s-27.54,34.56-39.84,22.26,35.74-41,35.74-41Z"/><path class="cls-5" d="M87.51,361.35s24,36.32,10.55,37.49-29.88-24-29.88-24Z"/><path class="cls-4" d="M84.18,187.57c3.09-6.82,7.24-13.22,9.22-20.44,2.37-8.66,1.45-17.81,1.16-26.78-.25-7.93,0-15.95,2-23.64s5.76-15,11.68-20.33c15.09-13.47,42.71-14.44,61.14-8.83,7.26,2.21,15,6.42,16.81,13.79.27,1.12.39,2.27.69,3.37,1.51,5.49,7.13,9,9.16,14.29,2.62,6.89-1.42,14.37-2,21.72-.62,8.58,3.6,16.69,7.75,24.22,2.48,4.47,5.05,9.24,4.8,14.35a18,18,0,0,1-2.48,7.91c-5,8.88-15.16,14.26-25.34,14.53-3.31.08-6.77-.37-9.5-2.25-4.49-3.09-5.81-9.33-4.87-14.71s3.66-10.24,5.8-15.26c.66-1.55,1.25-3.11,1.8-4.7a32.22,32.22,0,1,0-21.26,3.61,43.62,43.62,0,0,1-2.11,24.27c-2.48,6.38-6.36,12.1-10.19,17.77-1.84,2.71-3.75,5.49-6.5,7.27a23.1,23.1,0,0,1-5.53,2.36c-8.13,2.62-16.7,4.72-25.16,3.54s-16.84-6.28-19.73-14.32C79.05,202.26,81.08,194.39,84.18,187.57Z"/><ellipse class="cls-4" cx="154.59" cy="116.76" rx="35.15" ry="19.92"/><path class="cls-3" d="M153.44,340.11c1.47,2,7.82,10.33,15.5,16,8.79,6.44,29.3-8.79,29.3-8.79s31.88-76.35,35.95-116.8a181.43,181.43,0,0,0-7.83-19.7L233.09,238s-30.17,24.31-36.61,34.27-.59,43.36,0,48.63-11.72,7-17.58,6.44-7,4.69-12.3,4.69C164.05,332.06,158.5,336,153.44,340.11Z"/><path class="cls-6" d="M223.43,210.79h8.78s21.68,43.94,19.34,93.73-26.37,69.72-53.9,76.16-39.84,10.55-43.35,6.45S149,349.05,149,349.05s18.16-17,23.43-17,6.44-5.27,12.3-4.69,18.16-1.17,17.58-6.44-6.45-38.67,0-48.63S223.43,210.79,223.43,210.79Z"/><path class="cls-3" d="M77.76,253.41c1.08,1.37,2.37,3,3.79,4.85l-3.41-7S78,252,77.76,253.41Z"/><path class="cls-3" d="M74.62,340.26c.6,1.79,7.59-1.9,14.3-5.95-.07-.35-.14-.71-.24-1.08-1.75-7,10.55-24,10.55-24l8.2-22.26-1.76-29.88-22.61,3.15c6.5,8.47,14.7,19.61,16.76,24.39,3.51,8.2-3.52,20.5-11.72,19.91S73.45,336.75,74.62,340.26Z"/><path class="cls-6" d="M86.34,237.74,74.62,249.46s-8.2,47.45-8.2,50.38S52.36,321.51,55.88,334.4s5.86,29.88,2.93,33.39-7,13.48,0,18.17S74.62,359,95.71,367.21c0,0-12.88-20.51-12.3-22.26s3.52-6.45,1.76-13.48,10.54-24,10.54-24l8.21-22.26-1.76-29.88Z"/><path class="cls-7" d="M595.6,290.78H751V135.38H865v420H751V395.48H595.6v159.9h-114v-420h114Z"/><path class="cls-2" d="M800.31,426.69c-51.26,0-112.95-8.93-176-25.61C554.1,382.5,490.55,356.5,445.4,327.88c-46.09-29.21-67.71-58-60.86-81.06s41.16-37,96.62-39.39l.28,5.89c-25.9,1.1-47,4.73-62.73,10.8s-25.17,14.23-28.15,24.29.6,21.7,10.67,34.57,26.13,26.36,47.65,40C493.5,351.27,556.4,377,626,395.4c62.48,16.53,123.58,25.39,174.26,25.39q8.69,0,16.94-.35c25.9-1.09,47-4.73,62.74-10.8s25.16-14.23,28.15-24.29c5.37-18.07-10.85-41.55-45.65-66.11l3.74-4.72c17.91,12.64,31.17,25.09,39.41,37,8.83,12.79,11.7,24.7,8.52,35.39C907.28,410,873,424,817.5,426.34,811.92,426.57,806.18,426.69,800.31,426.69Z"/></svg>