<svg id="Layer_1" data-name="Layer 1" xmlns="http://www.w3.org/2000/svg" viewBox="0 0 997.97 199.52"><defs><style>.cls-1,.cls-2,.cls-3,.cls-4,.cls-5,.cls-6,.cls-7{fill:none;}.cls-1{stroke:#24ccfd;}.cls-2{stroke:#2db7fd;}.cls-3{stroke:#36a3fe;}.cls-4{stroke:#3f8ffe;}.cls-5{stroke:#477afe;}.cls-6{stroke:#5066ff;}.cls-7{stroke:#5951ff;}.cls-8{fill:#fff;opacity:0.45;}</style></defs><title>hor-testim</title><path class="cls-1" d="M373.64,36C267.77,36,298.27-72.31,205,36S120.65,86.47,39.91,43.16-35.44-68.7-100-68.7s-64.59,65-123.8,65-73.56,86.6-111.23,68.56-60.09-83-124.24-72.17S-542.54-54.27-623.6,3.47" transform="translate(623.89 99.07)"/><path class="cls-2" d="M373.64,31.74C318.78,31.74,301.28,10.09,269,5.4c-19.4-2.87-36.58,3-69.35,31.57-13.34,11.65-25.25,18.36-37,26.85C105.63,105.21,93.71,78.25,28,51-29.93,27-43.59-12.39-72.93-31.77-83.4-38.7-95.54-43.24-111.76-43.64c-35.76-.75-52.56,18.18-72.26,36.12-13,11.86-27.7,20.85-50.47,19.93-39.22-1.51-60.09,29.76-80.31,40.17-8.59,4.48-17,5.33-27.07-1.9-24.55-17.7-41.58-55.81-75.4-67.89a86.55,86.55,0,0,0-45-3.83c-37.16,6.44-60.08-7.57-86.65-8.68C-569.73-30.6-592.91-20-623.6-.14" transform="translate(623.89 99.07)"/><path class="cls-3" d="M373.64,27.53c-43.89,0-65.78-1.44-107.38-5.2-24.86-2.28-42-1-71.89,15.67-13,7.24-25.08,8.53-38.64,16C99.44,84.84,78.66,76.58,16,58.8-40.35,42.83-54.88,9.55-85.17-7.4a85,85,0,0,0-38.32-11.19c-33.08-1.49-51.1,13.36-71.72,30.59-13.28,11.08-28.37,18.41-49.95,16.57-36.92-3-59.19,16.79-78.72,18.52-8.26.73-16-1.55-24.8-10.56-22.09-22.62-36.95-61.65-72.24-69.81a108.64,108.64,0,0,0-44.41-1.44c-36.7,6.52-60.44-4-85.35-2.8-21.65,1-45.08,17.85-72.92,33.78" transform="translate(623.89 99.07)"/><path class="cls-4" d="M373.64,23.32c-32.91,0-59.21,18.77-110.14,16-30.32-1.71-47.72-5.69-74.43-.26-12.89,2.63-24.84-1-40.32,5.12C93.53,65.92,63.59,75.1,4,66.62-50.79,58.82-66.16,31.49-97.41,17c-11.09-5.18-23.19-9.35-37.81-10.5-30.39-2.39-49.63,8.59-71.18,25.05-13.52,10.32-29,16-49.42,13.2-34.64-4.54-58.29,4-77.13-3.12-7.94-3-15-8.52-22.54-19.21-19.62-27.74-32.31-67.54-69.09-71.75-13.88-1.58-28.26-1.85-43.76,1-36.24,6.61-60.81-.08-84.05,3.09-22.55,3.08-46.21,26-71.21,38" transform="translate(623.89 99.07)"/><path class="cls-5" d="M373.64,19.11c-21.94,0-52.63,39-112.9,37.1-35.78-1.14-53.63-11.6-77-16.17-12.82-2.51-24.58-10.2-42-5.76C87.69,48.09,48.48,72.08-7.93,74.44c-53.3,2.23-69.52-21-101.71-33.1-11.42-4.3-23.5-8.26-37.31-9.81-27.7-3.13-48.16,3.83-70.64,19.5-13.76,9.6-29.69,13.53-48.9,9.86C-298.82,54.83-323.86,52-342,36.11c-7.61-6.68-13.91-15.56-20.27-27.86C-379.39-24.81-390-64.82-428.23-65.42a215.46,215.46,0,0,0-43.13,3.33c-35.78,6.69-61.17,4-82.75,9C-577.54-47.74-601.44-18.92-623.6-11" transform="translate(623.89 99.07)"/><path class="cls-6" d="M373.64,14.9c-11,0-46.06,59.18-115.67,58.24-41.23-.57-59.34-18.7-79.5-32.08-12.64-8.38-24.32-19-43.67-16.62-53,6.61-101.38,48.37-154.69,57.82-51.8,9.18-68.85-6.9-102-16.55-11.73-3.43-23.79-7.1-36.79-9.13-25-3.73-46.68-.8-70.11,14-14,8.92-30.36,11.08-48.38,6.48-30-7.57-56.5-21.56-73.95-46.43C-358.4,20.29-363.92,8-369.11-5.9c-14.45-38.54-23-79.63-62.77-75.6-14.63,1.39-28.74,3.11-42.5,5.73-35.32,6.78-61.5,8.36-81.44,14.86-24.3,7.94-48.47,42.36-67.78,46.34" transform="translate(623.89 99.07)"/><path class="cls-7" d="M373.64,10.69S334.15,90.08,255.21,90.08,179.86,14.59,127.83,14.59,18.38,72-31.85,90.08s-68.18,7.21-102.27,0-68.18-21.65-105.85,0-93.3-10.83-120.21-65S-379.92-108.4-435.54-97.57s-96.88,18-122,28.87-49.59,50.52-66.06,50.52" transform="translate(623.89 99.07)"/><rect class="cls-8" x="0.29" y="0.5" width="997.24" height="198.52"/></svg>