<svg height="99" viewBox="0 0 280 99" width="280" xmlns="http://www.w3.org/2000/svg"><g fill="none" fill-rule="evenodd"><path d="m373.637 35.949c-105.865 0-75.365-108.259-168.662 0-93.294 108.259-84.324 50.519-165.06 7.215-80.738-43.303-75.355-111.863-139.945-111.863s-64.59 64.955-123.797 64.955-73.56 86.607-111.236 68.56c-37.677-18.041-60.085-82.996-124.235-72.17-64.15 10.824-83.242-46.916-164.302 10.824" stroke="#24ccfd"/><path d="m373.637 31.74c-54.853 0-72.356-21.645-104.613-26.344-19.404-2.863-36.588 2.983-69.35 31.574-13.346 11.648-25.258 18.355-36.965 26.848-57.078 41.387-69 14.43-134.755-12.834-57.882-23.996-71.54-63.37-100.885-82.753-10.472-6.929-22.612-11.47-38.827-11.876-35.766-.742-52.565 18.182-72.265 36.12-13.028 11.866-27.698 20.856-50.468 19.936-39.222-1.515-60.084 29.76-80.306 40.164-8.588 4.488-17.047 5.332-27.077-1.9-24.541-17.7-41.574-55.807-75.394-67.889-13.134-4.687-27.787-6.798-45.043-3.827-37.16 6.436-60.077-7.567-86.65-8.682-20.765-.877-43.953 9.69-74.638 29.582" stroke="#2db7fd"/><path d="m373.637 27.528c-43.883 0-65.779-1.44-107.375-5.196-24.864-2.285-41.985-.959-71.89 15.665-13.042 7.242-25.077 8.536-38.64 15.973-56.288 30.87-77.067 22.61-139.74 4.834-56.338-15.979-70.868-49.252-101.158-66.2-10.786-6.052-22.908-10.377-38.323-11.194-33.08-1.489-51.1 13.364-71.724 30.588-13.276 11.086-28.363 18.41-49.946 16.57-36.924-3.027-59.191 16.796-78.716 18.517-8.265.73-16.013-1.548-24.808-10.555-22.084-22.62-36.947-61.648-72.24-69.811-13.507-3.134-28.021-4.325-44.405-1.44-36.698 6.523-60.437-3.957-85.35-2.804-21.65 1.013-45.078 17.858-72.921 33.782" stroke="#36a3fe"/><path d="m373.637 23.32c-32.911 0-59.204 18.767-110.138 15.947-30.32-1.71-47.719-5.684-74.429-.254-12.888 2.625-24.84-.996-40.315 5.115-55.229 21.792-85.169 30.967-144.723 22.496-54.823-7.8-70.195-35.135-101.438-49.653-11.098-5.18-23.198-9.353-37.809-10.501-30.394-2.392-49.636 8.585-71.188 25.046-13.518 10.328-29.025 15.968-49.421 13.207-34.631-4.541-58.282 3.952-77.126-3.128-7.939-2.983-14.974-8.51-22.544-19.21-19.619-27.737-32.308-67.538-69.084-71.744-13.881-1.586-28.258-1.846-43.764.953-36.24 6.609-60.806-.082-84.05 3.09-22.55 3.08-46.208 26.02-71.207 37.961" stroke="#3f8ffe"/><path d="m373.637 19.107c-21.939 0-52.632 38.973-112.9 37.1-35.78-1.142-53.625-11.594-76.971-16.168-12.813-2.512-24.577-10.203-41.986-5.76-54.091 13.81-93.297 37.806-149.708 40.166-53.307 2.224-69.522-21.019-101.715-33.106-11.413-4.298-23.494-8.26-37.303-9.814-27.703-3.123-48.162 3.833-70.647 19.509-13.757 9.597-29.69 13.521-48.897 9.851-32.335-6.057-57.374-8.85-75.537-24.78-7.61-6.674-13.914-15.552-20.276-27.86-17.092-33.057-27.671-73.07-65.927-73.67-14.255-.223-28.497.627-43.13 3.339-35.776 6.69-61.166 4.033-82.746 8.975-23.438 5.37-47.336 34.188-69.493 42.145" stroke="#477afe"/><path d="m373.637 14.9c-10.97 0-46.055 59.185-115.664 58.243-41.237-.574-59.346-18.702-79.506-32.083-12.636-8.379-24.318-19.042-43.663-16.623-52.998 6.61-101.389 48.376-154.697 57.821-51.798 9.18-68.85-6.901-101.987-16.547-11.728-3.427-23.79-7.096-36.794-9.132-25.023-3.724-46.671-.795-70.109 13.976-13.986 8.926-30.352 11.08-48.372 6.485-30.04-7.573-56.505-21.56-73.95-46.427-7.298-10.328-12.81-22.647-18.007-36.515-14.451-38.535-23.042-79.625-62.77-75.597-14.632 1.385-28.734 3.107-42.494 5.726-35.32 6.783-61.503 8.358-81.445 14.864-24.304 7.936-48.466 42.357-67.778 46.34" stroke="#5066ff"/><path d="m373.637 10.687s-39.483 79.391-118.425 79.391c-78.941 0-75.354-75.489-127.383-75.489-52.033 0-109.445 57.448-159.682 75.49-50.234 18.04-68.176 7.215-102.266 0-34.087-7.216-68.177-21.652-105.854 0-37.677 21.651-93.297-10.827-120.21-64.956-26.911-54.13-19.734-133.52-75.353-122.695-55.617 10.826-96.885 18.047-122.002 28.873-25.117 10.825-49.591 50.519-66.061 50.519" stroke="#5951ff"/></g></svg>