<svg id="b0225cde-a2d2-4693-8ce5-502a1e8a6144" xmlns="http://www.w3.org/2000/svg" viewBox="0 0 1077.38 752.86"><defs><style>.cls-1{fill:#f2f2f2;}.cls-2{fill:#3f3d56;}.cls-3{opacity:0.1;isolation:isolate;}.cls-4{fill:#ffb9b9;}.cls-5{fill:#2f2e41;}.cls-6{fill:#ff6584;}.cls-7{fill:#a0616a;}.cls-8{fill:#d0cde1;}.cls-9{fill:#cf9595;}.cls-10{fill:#5333ed;}</style></defs><title>I</title><path class="cls-1" d="M841.63,318.32C798.9,151.15,651.28,30.48,478,25.64,386.4,23.09,290,53.32,219.82,159.11,94.36,348.21,227.53,478.89,320.37,541A580,580,0,0,1,440.45,648.38c62.71,74,183.36,166.06,327,21.89C871.63,565.77,870.09,429.66,841.63,318.32Z"/><ellipse class="cls-2" cx="532.04" cy="727.64" rx="518.44" ry="23.5"/><ellipse class="cls-3" cx="184.69" cy="731.14" rx="117" ry="14"/><ellipse class="cls-3" cx="883.69" cy="737.14" rx="117" ry="14"/><path class="cls-3" d="M730.69,695.38c0,62.19-86.69,43-192.83,43s-191.55,19.23-191.55-43S433,619.66,539.13,619.66,730.69,633.19,730.69,695.38Z"/><path class="cls-2" d="M730.69,680.07C730.69,742.26,644,723,537.86,723s-191.55,19.24-191.55-42.95S433,604.35,539.13,604.35,730.69,617.87,730.69,680.07Z"/><path class="cls-4" d="M293.45,496s-14.27,33,0,33.88S308.6,496,308.6,496Z"/><polygon class="cls-5" points="186.46 483.52 211.42 602.1 224.8 660.94 257.79 660.94 222.12 479.96 186.46 483.52"/><polygon class="cls-3" points="186.46 483.52 211.42 602.1 224.8 660.94 257.79 660.94 222.12 479.96 186.46 483.52"/><polygon class="cls-4" points="224.8 662.73 224.8 676.99 243.52 680.56 245.3 666.29 224.8 662.73"/><path class="cls-5" d="M247.09,676.1l-25-1.78S215,705.52,215,708.19s-16.94,29.43-5.35,31.21S238.17,743,240,737.62s1.79-20.51,5.35-26.75,7.14-13.37,6.24-16.94Z"/><path class="cls-5" d="M229.26,487.09s-26.75,53.49-19.62,96.29,7.13,82.91,8.92,84.69,35.66,4.46,35.66,4.46.89-81.13-1.78-90,15.15-58,22.28-70.44S229.26,487.09,229.26,487.09Z"/><path class="cls-6" d="M197.16,294.51s-38.34-8-33,12.49,26.75,25.85,26.75,25.85Z"/><path class="cls-6" d="M206.07,398.83s-18.72,6.24-18.72,38.33-8.91,56.17,0,57.06S248,496,248,496Z"/><polygon class="cls-6" points="211.42 308.78 234.6 290.95 266.7 302.54 288.1 298.08 301.47 317.69 272.94 339.09 234.6 350.68 209.64 332.85 211.42 308.78"/><path class="cls-4" d="M241.74,273.12s.89,15.15-3.57,17.83,41,8.91,41,8.91l3.57-24.07Z"/><path class="cls-3" d="M241.74,273.12s.89,15.15-3.57,17.83,41,8.91,41,8.91l3.57-24.07Z"/><circle class="cls-4" cx="265.81" cy="259.74" r="31.2"/><path class="cls-6" d="M295.23,317.69l12,.45s10.25-.45,12,45.92,0,111.44,0,111.44,5.35,33-8.91,31.2-28.53-.89-22.29-6.24S297,464.8,297,464.8L282.75,356Z"/><path class="cls-2" d="M234.6,292.64s-33.87-2.58-39.22.09-9.81,28.53-9.81,28.53l-.89,20.51s5.88,42.8,12.75,44.13,6,8.47,2.4,11.14,28.53,139.08,38.34,140,20.51-11.59,20.51-11.59,19.61-4.46,24.07-8,9.81-106.09,1.78-107.88c0,0-8.91-1.78-8-4.45s12.16-7.78,12.16-7.78L284.53,356s6.24-34.77,22.29-38.34c0,0-7.13-8.91-9.81-8.91s-19.61,3.56-25,8.91-10.7,22.29-23.18,15.16-22.29-18.72-19.61-24.07S234.6,292.64,234.6,292.64Z"/><path class="cls-2" d="M175.69,223.73c3.43,2.86,6.9,5.76,9.32,9.19,3.16,4.47,4.36,9.62,4.79,14.71.35,4.28.1,8.83-2.86,12.46-2.14,2.61-5.58,4.6-7,7.5-1.58,3.19-.34,6.83,1.69,9.87s4.82,5.76,6.63,8.88a16.3,16.3,0,0,1,.92,14.73c-1.9,4.39-5.8,8.69-4.56,13.22,1,3.67,5.31,7.35,3,10.65-1.29,1.84-4.21,2.61-6.91,2.78-6.6.44-13.39-1.86-17.47-5.89s-6-9.82-12.18-11.57c-2.26-.64-4.77-.6-7-1.23a10.83,10.83,0,0,1-7.85-9.34c-.7-6.47,3.39-12.67,8.14-18A95.73,95.73,0,0,1,155.48,271c5.66-4.63,12.13-8.95,15.39-14.8,3.74-6.72,2.42-15-3.31-20.77-2.12-2.16-4.79-4-6.61-6.31-2.2-2.78-6-12.75-1.48-15.11C164.42,211.38,172.93,221.43,175.69,223.73Z"/><path class="cls-7" d="M127.62,631.52l-8.92,58S133.86,726,147.23,726s21.4-1.79,21.4-3.57-8.92-12.48-13.37-14.27-8.92-21.39-8.92-26.74,4.46-49.93,4.46-49.93Z"/><path class="cls-3" d="M127.62,631.52l-8.92,58S133.86,726,147.23,726s21.4-1.79,21.4-3.57-8.92-12.48-13.37-14.27-8.92-21.39-8.92-26.74,4.46-49.93,4.46-49.93Z"/><path class="cls-5" d="M149.91,686.8s-28.53-4.46-31.21-6.24-11.59,34.77,2.68,45.47,24.07,8.91,26.74,8.91,16,0,18.73-1.78,4.45-12.48,1.78-16.94-13.37-8.92-14.27-13.38S149.91,686.8,149.91,686.8Z"/><path class="cls-3" d="M149.91,686.8s-28.53-4.46-31.21-6.24-11.59,34.77,2.68,45.47,24.07,8.91,26.74,8.91,16,0,18.73-1.78,4.45-12.48,1.78-16.94-13.37-8.92-14.27-13.38S149.91,686.8,149.91,686.8Z"/><path class="cls-7" d="M107.11,634.2s.89,36.55-14.26,41.9,16.94,27.64,16.94,27.64l14.26-11.59,10.7-64.2Z"/><path class="cls-5" d="M99.09,662.73s2.93,25.51,25.09,19.44c0,0,2.55,33.16,6.11,37.61s13.38,17.84-2.67,17.84-26.75-.9-32.1-7.14S77.69,710,74.13,708.19s11.59-40.12,14.26-40.12S99.09,662.73,99.09,662.73Z"/><path class="cls-2" d="M87.5,449.64S83,471.93,94.63,497.79s22.29,87.37,16.94,96.29-15.16,46.36-5.35,51.71,77.57,8.91,82,3.56,0-62.41-8-70.43,6.24-95.4,6.24-95.4L182,463Z"/><circle class="cls-7" cx="153.47" cy="252.61" r="31.2"/><path class="cls-7" d="M133.86,263.31s-11.59,28.53-27.64,32.1-20.5,55.27-20.5,55.27l73.1-14.26,22.29-9.81s1.78-21.4-6.24-25.86-24.07-2.67-24.07-2.67,0-17.83,8-21.4S133.86,263.31,133.86,263.31Z"/><path class="cls-8" d="M133.86,329.28s-1.78-34.77-27.64-30.31c0,0-5.35-1.78-16.94,15.16L85.72,307s15.15-14,24.07-12.81,14.26-4.13,33,35.09l25.86-3.56L166,294.51h2.67l7.13,26.75s9.81,0,10.7,8v8s15.16,10.7,12.48,33.88-3.56,43.68-3.56,43.68-3.57,30.32,0,41,24.07,39.23,8,41.91-22.29,2.67-22.29,2.67l-3.56-23.18s2.67,9.81-14.27,10.7-66.87-13.37-66.87-15.16,1.79-19.61-2.67-16-6.24,22.29-12.48,22.29S91.06,406,91.06,406l-5.34-55.28v-6.24S120.49,348,133.86,329.28Z"/><path class="cls-7" d="M104.44,303.43S85.72,319.48,83.93,370.3,141,463.91,141,463.91s16,53.49,27.64,41-15.16-53.49-15.16-53.49l-41-54.39,12.48-79.35S124.94,299,104.44,303.43Z"/><path class="cls-8" d="M88.64,330.56s-7.38,1.4-9.17,13,7.14,22.29,11.59,22.29,48.15-8,53.5-15.16,19.61-4.46,19.61-4.46l-30.31-16s-22.17,20.19-47.19,12.32Z"/><path class="cls-2" d="M188.25,286.34c-1.81-3.12-4.6-5.84-6.63-8.88a12.13,12.13,0,0,1-2.38-7.24,31.17,31.17,0,0,1-25.7,13.59C150.8,290.27,150.8,299,150.8,299s5.23,9.83-.9,11a11.25,11.25,0,0,1,1.15.26c6.15,1.75,8.14,7.57,12.18,11.57s10.87,6.33,17.47,5.89c2.7-.17,5.62-.94,6.91-2.78,2.31-3.3-2-7-3-10.65-1.24-4.53,2.66-8.83,4.56-13.22A16.3,16.3,0,0,0,188.25,286.34Z"/><path class="cls-2" d="M123,209.74a37.47,37.47,0,0,0-8.92,5.51c-6.79,5.38-12.69,12.15-15.92,20.19s-3.55,17.47.26,25.25c1.7,3.46,4.23,6.82,4.09,10.67-.17,4.91-4.6,8.53-8.92,10.86s-9.22,4.3-11.86,8.44c-4.43,6.92-.52,16.44-3.51,24.1-1,2.6-2.83,5.31-1.88,7.93,6.07.63,12-2.27,16.83-6s9-8.28,13.94-11.84c6.67-4.79,14.78-7.74,20.29-13.83a25.18,25.18,0,0,0,5.56-23c-.56-2.12-1.43-4.23-1.36-6.43.1-3.62,2.65-6.69,5.37-9.09s5.8-4.55,7.61-7.69,2.13-6.93,3.26-10.39,3.64-7,7.27-7.29c2.21-.18,4.31.88,6.27,1.92l10.3,5.44a5.64,5.64,0,0,0,3.52,1c2.27-.41,3.11-3.26,3-5.56-.31-7.61-5.68-14.36-12.38-18-6.23-3.36-13.57-4.47-20.57-4.45C137.8,207.48,130,206.85,123,209.74Z"/><path class="cls-8" d="M279.21,222.05c9.73,3.2,17.57,11,21.93,20.3a33.2,33.2,0,0,1,3.15,10.72c.71,7-1.36,13.88-3.74,20.45-1.88,5.18-4,10.86-2.06,16,.67,1.79,1.79,3.4,2.34,5.23a9.14,9.14,0,0,1-3.08,9.62c-2,1.52-4.66,2.33-5.76,4.56,2.16,0,3.68,2.05,4.84,3.87l5.53,8.66-20.72,12.08a80.6,80.6,0,0,0-4.28-22.06,2.39,2.39,0,0,0-.77-1.29,2.48,2.48,0,0,0-1.65-.26c-4.05.34-8,1.32-12,2-9,1.44-18.61,1.09-26.94-2.72a18,18,0,0,1-7.64-5.91c-1.83-2.7-2.46-6.38-1-9.27,2.28-4.41,8.17-5.38,11.81-8.76,1.62,6.44,8.9,10.24,15.53,9.77a12.89,12.89,0,0,0,4.65-1.12c3-1.43,5.08-4.32,6.8-7.19A113.81,113.81,0,0,0,277,261.13a36.53,36.53,0,0,0,1.66-7.47c.66-7.82-3.68-15.71-10.36-19.84s-13.51-2.41-20.8.51c2.45-1,2.29-5.91,4.24-7.6a25.36,25.36,0,0,1,8.29-4.59A30.44,30.44,0,0,1,279.21,222.05Z"/><path class="cls-2" d="M833.44,339s50.82,13.37,51.71,19.61-25.85,23.26-25.85,23.26L803.13,355Z"/><path class="cls-3" d="M833.44,339s50.82,13.37,51.71,19.61-25.85,23.26-25.85,23.26L803.13,355Z"/><path class="cls-9" d="M859.74,328.69s-16,19.62-35.66,17.84,24.07,41.9,24.07,41.9l22.29-19.62S876.68,343,882,342.07,859.74,328.69,859.74,328.69Z"/><path class="cls-3" d="M859.74,328.69s-16,19.62-35.66,17.84,24.07,41.9,24.07,41.9l22.29-19.62S876.68,343,882,342.07,859.74,328.69,859.74,328.69Z"/><path class="cls-4" d="M958.7,594.38s2.68,16-5.35,19.61-24.07,58-24.07,58l15.16,15.16,42.79-69.54s12.49-25,8-25S958.7,594.38,958.7,594.38Z"/><path class="cls-3" d="M958.7,594.38s2.68,16-5.35,19.61-24.07,58-24.07,58l15.16,15.16,42.79-69.54s12.49-25,8-25S958.7,594.38,958.7,594.38Z"/><path class="cls-5" d="M932.85,670.16l-3.57-1.78s-20.5,10.69-17.83,16,8.92,16.05,8.92,19.62,3.56,25,15.15,26.74,11.59-8.91,9.81-13.37-2.67-19.61-1.78-25a34.28,34.28,0,0,1,4.12-10.6Z"/><path class="cls-4" d="M915,589.92s-2.68,66.87,16.05,94.5c0,0,7.13,19.62,8,21.4s16-6.24,16-6.24-8-53.49-7.13-62.41-4.46-20.5-4.46-20.5l-.89-26.75Z"/><path class="cls-5" d="M956.92,695.12l-18.62,8.8s1.68,13.49,2.57,16.17-12.48,22.28,1.79,24.07,28.53,0,25-4.46-8.92-24.07-8-29.42S956.92,695.12,956.92,695.12Z"/><path class="cls-4" d="M919.48,341.18s-11.59-.9-13.38,33a530,530,0,0,0,0,58.85l28.53.89L932,380.4Z"/><path class="cls-4" d="M953.35,315.32s2.68,19.62-9.8,21.4,14.26,29.42,14.26,29.42l34.77-19.61s-13.37-24.08-6.24-35.67S953.35,315.32,953.35,315.32Z"/><path class="cls-3" d="M953.35,315.32s2.68,19.62-9.8,21.4,14.26,29.42,14.26,29.42l34.77-19.61s-13.37-24.08-6.24-35.67S953.35,315.32,953.35,315.32Z"/><circle class="cls-9" cx="882.03" cy="323.34" r="31.2"/><circle class="cls-4" cx="965.84" cy="294.82" r="31.2"/><path class="cls-9" d="M788.42,404.48s-.89,33,0,38.33-5.35,50.82-5.35,50.82l19.61-14.26s15.16-48.15,8.92-60.63S788.42,404.48,788.42,404.48Z"/><path class="cls-9" d="M891,418.74s-3.57,26.75,8,28.53,14.26-20.5,14.26-20.5l-4.45-22.29Z"/><path class="cls-2" d="M865.15,316.5c1.61,1.46,3.22,3.05,5.28,3.71,3.47,1.1,7.69-.61,10.64,1.5s3,6.6,6.1,8.18a8.56,8.56,0,0,0,4.06.61l10.86-.12a5.2,5.2,0,0,0,3,6.73,3.69,3.69,0,0,0,.64.21c1.14.21,2.57.16,3.13,1.17s.32,3.27,1.54,3a17.81,17.81,0,0,1,5.74-6c1.32-.86,2.83-1.6,3.63-3,1.09-1.89.45-4.24.37-6.42-.24-6.78,5.24-13.12,3.84-19.76a19.85,19.85,0,0,0-1.88-4.75l-7-13.88c-1.22-2.45-2.65-5.09-5.19-6.14-3.84-1.58-8,1.24-12,2-4.65.81-9.27-1.13-13.81-2.42s-10-1.75-13.47,1.39c-1.43,1.28-2.42,3.07-4.09,4-2.85,1.61-7.34.67-8.79,3.6-.71,1.44-.24,3.19-.71,4.73-.63,2.1-2.77,3.27-4.55,4.54s-3.52,3.36-2.8,5.42c.31.88,1,1.57,1.32,2.46.54,1.63-.5,3.3-1.3,4.82-2.65,5.06,1.72,6.05,5,3.77C858.73,313.07,861.09,312.81,865.15,316.5Z"/><path class="cls-6" d="M944.44,330.48s1.78,17.83,16,17.83S988,336.4,988,336.4s25.11,6.56,25.11,10.13S992.58,376,992.58,376s-8.91,67.75-5.35,71.32,41,131.06,34.77,141.76-3.56,10.7-45.47,13.37-45.46,11.59-63.3-1.78-20.5-21.4-27.63-22.29-15.16-99-8-112.34,19.62-30.31,24.07-33.88,15-37.54,15-37.54l.14-55.18Z"/><path class="cls-4" d="M1005.06,344.74s20.51-2.67,14.27,18.72-15.16,60.63-29.42,62.41,2.67-51.71,2.67-51.71Z"/><path class="cls-2" d="M961.08,261.61c9.83-2.16,20.25-2.66,29.85.37s18.28,9.93,21.82,19.35,1,21.24-7,27.25c-4.2,3.14-9.58,4.62-13.28,8.33-4,4-6,10.42-11.28,12.34a23.61,23.61,0,0,1-.35-12.12,35.76,35.76,0,0,0,1.42-6.39c.11-2.19-.67-4.61-2.58-5.67s-4.55-.41-6.87-.58c-5.78-.43-9.51-6.22-11.68-11.58S957,281.45,952,278.55c-4.71-2.74-9.94-1.48-15-.78-.75-2.76,7-8.77,9.28-10.32A42.62,42.62,0,0,1,961.08,261.61Z"/><path class="cls-4" d="M1000.61,404.48s-8-35.67-8-40.12-4.45-25.86-1.78-31.21,8.92-35.66-.89-33-14.27,41-14.27,41,1.79,22.28,0,29.42S974.75,425,981,425.87,1000.61,422.31,1000.61,404.48Z"/><circle class="cls-2" cx="1009.08" cy="274.76" r="19.61"/><path class="cls-2" d="M798.67,355s-17.38,25.4-17.38,54.83c0,0,21.39-.9,33.87,16.94S798.67,355,798.67,355Z"/><path class="cls-9" d="M796.44,663.92s13.37,28.53,13.37,42.79,27.64,2.68,27.64,2.68S819.62,663,821.4,656.79,796.44,663.92,796.44,663.92Z"/><path class="cls-9" d="M845.48,662.13s3.74,53.12-.8,57.77,17.74,2,17.74,2,0-40.12,7.13-56.17Z"/><path class="cls-5" d="M807.14,475.8s-26.75,12.48-26.75,17.83-4.45,32.1-6.24,34.77-1.78,26.75,0,30.31,5.35,113.23,18.73,113.23,32.09-6.24,33-11.59c0,0-12.48-49-8-61.52S824.08,545.34,833,540s8.91,5.35,8.91,5.35l-1.78,74.89s-1.79,48.15,1.78,49,26.75,4.46,29.42.89,11.59-52.6,11.59-57.95,8.92-62.41,9.81-68.65,3.57-59.74-2.68-63.3S807.14,475.8,807.14,475.8Z"/><path class="cls-5" d="M821.4,705.82s-8.91-7.13-14.26,6.24a53.58,53.58,0,0,1-14.26,20.51s-3.57,8.91,11.59,7.13,41-17.83,41-17.83-6.37-16.3-9.42-16.17S831.21,712.06,821.4,705.82Z"/><path class="cls-5" d="M858.85,715.63s-13.36-3.57-16,0-6.25,24.07-1.79,26.74,24.07,1.79,26.75,0,0-13.37,0-13.37Z"/><path class="cls-2" d="M843.69,360.79s-13.37-11.59-9.8-21.4c0,0-40.12,13.38-39.23,24.07s16.94,55.28,16.94,55.28-25.86,49.93-12.48,60.63,9.8-1.79,33,6.24,33,4.46,41.91,2.67,10.7-.89,16.94-.89,2.67-17.83,0-27.64-6.24-24.07-3.57-27.64,25.85-66,25.85-66-18-14.41-39.31-9.44C873.92,356.7,858.85,368.81,843.69,360.79Z"/><path class="cls-2" d="M904.32,368.81c0-.89,8.91-2.67,8.91-2.67s5.35,35.66,2.68,42.79-25,15.16-28.53,14.27S904.32,368.81,904.32,368.81Z"/><circle class="cls-2" cx="884.69" cy="280.43" r="21"/><path class="cls-10" d="M604.08,555.38h-114v-420h114Z"/></svg>