<?xml version="1.0" encoding="utf-8"?>
<!-- Generator: Adobe Illustrator 21.1.0, SVG Export Plug-In . SVG Version: 6.00 Build 0)  -->
<svg version="1.1" id="Layer_1" xmlns="http://www.w3.org/2000/svg" xmlns:xlink="http://www.w3.org/1999/xlink" x="0px" y="0px"
	 viewBox="0 0 80 80" enable-background="new 0 0 80 80" xml:space="preserve">
<title>icons/services/java@2x</title>
<desc>Created with Sketch.</desc>
<g id="SANDBOX">
	<g id="NL_Sandboxes-Box---stacks-logos" transform="translate(-537.000000, -446.000000)">
		<g id="icons_x2F_services_x2F_java" transform="translate(512.000000, 426.000000)">
			<rect id="Rectangle-10-Copy-22" x="25" y="20" fill="none" width="80" height="80"/>
			<g id="java" transform="translate(25.000000, 20.000000)">
				<path id="Shape" fill="#5382A1" d="M34.5,50.9c0,0-1.5,0.9,1.1,1.2c3.2,0.4,4.8,0.3,8.3-0.4c0,0,0.9,0.6,2.2,1.1
					C38.3,56.2,28.4,52.6,34.5,50.9"/>
				<path id="Shape_1_" fill="#5382A1" d="M33.6,46.6c0,0-1.7,1.3,0.9,1.5c3.4,0.3,6,0.4,10.7-0.5c0,0,0.6,0.6,1.6,1
					C37.4,51.3,26.8,48.8,33.6,46.6"/>
				<path id="Shape_2_" fill="#E76F00" d="M41.6,39.1c1.9,2.2-0.5,4.2-0.5,4.2s4.9-2.5,2.6-5.7c-2.1-2.9-3.7-4.4,5-9.5
					C48.8,28.2,35.1,31.6,41.6,39.1"/>
				<path id="Shape_3_" fill="#5382A1" d="M52,54.2c0,0,1.1,0.9-1.2,1.7C46.2,57.2,32,57.6,28,55.9c-1.4-0.6,1.2-1.5,2.1-1.7
					C31,54,31.5,54,31.5,54c-1.6-1.1-10.2,2.2-4.4,3.1C43,59.8,56.1,56,52,54.2"/>
				<path id="Shape_4_" fill="#5382A1" d="M35.3,42c0,0-7.3,1.7-2.6,2.3c2,0.3,5.9,0.2,9.6-0.1c3-0.3,6-0.8,6-0.8s-1.1,0.5-1.8,1
					c-7.4,1.9-21.6,1-17.5-0.9C32.5,41.8,35.3,42,35.3,42"/>
				<path id="Shape_5_" fill="#5382A1" d="M48.3,49.3c7.5-3.9,4-7.6,1.6-7.1c-0.6,0.1-0.9,0.2-0.9,0.2s0.2-0.3,0.6-0.5
					c4.8-1.7,8.5,5-1.5,7.6C48.1,49.5,48.3,49.4,48.3,49.3"/>
				<path id="Shape_6_" fill="#E76F00" d="M43.8,20c0,0,4.1,4.2-3.9,10.5c-6.5,5.1-1.5,8,0,11.4c-3.8-3.4-6.6-6.4-4.7-9.2
					C37.9,28.6,45.5,26.6,43.8,20"/>
				<path id="Shape_7_" fill="#5382A1" d="M36,59.8c7.2,0.5,18.2-0.3,18.5-3.7c0,0-0.5,1.3-5.9,2.3c-6.1,1.2-13.7,1-18.2,0.3
					C30.4,58.8,31.3,59.5,36,59.8"/>
			</g>
		</g>
	</g>
</g>
</svg>
