<svg xmlns="http://www.w3.org/2000/svg" xmlns:xlink="http://www.w3.org/1999/xlink" viewBox="0 0 716.21 618.63"><defs><style>.cls-1{isolation:isolate;}.cls-2{fill:url(#linear-gradient);}.cls-3{fill:url(#linear-gradient-2);}.cls-4{fill:url(#linear-gradient-3);}.cls-5{opacity:0.25;}.cls-6{fill:#00004d;}.cls-19,.cls-7{fill:#ddeaf8;}.cls-7{fill-rule:evenodd;}.cls-10,.cls-8{fill:#ffaf98;}.cls-14,.cls-9{fill:#ff61bb;}.cls-10,.cls-13,.cls-14{opacity:0.5;mix-blend-mode:multiply;}.cls-11{fill:#a184f3;}.cls-12,.cls-13{fill:#003abc;}.cls-15{fill:#57565c;}.cls-16{fill:#48c8ef;}.cls-17{fill:#e4edfb;opacity:0.71;}.cls-18{fill:#fff;opacity:0.74;}.cls-20{fill:#c1cad1;}.cls-21{stroke:#00e7c3;stroke-miterlimit:10;stroke-width:0.5px;fill:url(#linear-gradient-4);}</style><linearGradient id="linear-gradient" x1="309.08" y1="329.89" x2="729.07" y2="749.87" gradientUnits="userSpaceOnUse"><stop offset="0" stop-color="#5c30f1"/><stop offset="1" stop-color="#00004d"/></linearGradient><linearGradient id="linear-gradient-2" x1="25.5" y1="619.2" x2="720.47" y2="537.95" gradientTransform="matrix(-0.7, -0.65, 0.7, -0.71, 314.36, 1150.59)" gradientUnits="userSpaceOnUse"><stop offset="0" stop-color="#5333ed"/><stop offset="0.06" stop-color="#5c3fee" stop-opacity="0.93"/><stop offset="0.41" stop-color="#9388f2" stop-opacity="0.54"/><stop offset="0.69" stop-color="#bbbdf5" stop-opacity="0.25"/><stop offset="0.9" stop-color="#d4ddf7" stop-opacity="0.07"/><stop offset="1" stop-color="#ddeaf8" stop-opacity="0"/></linearGradient><linearGradient id="linear-gradient-3" x1="600.47" y1="165.68" x2="715.37" y2="165.7" gradientTransform="translate(797.51 -568.32) rotate(98.59)" xlink:href="#linear-gradient"/><linearGradient id="linear-gradient-4" x1="270.3" y1="454.09" x2="268.36" y2="562.84" gradientUnits="userSpaceOnUse"><stop offset="0" stop-color="#00e7c3" stop-opacity="0"/><stop offset="0.08" stop-color="#02e7c3" stop-opacity="0.1"/><stop offset="0.24" stop-color="#06e7c3" stop-opacity="0.35"/><stop offset="0.47" stop-color="#0de7c4" stop-opacity="0.76"/><stop offset="0.61" stop-color="#11e7c4"/></linearGradient></defs><title>keyword</title><g class="cls-1"><g id="Layer_1" data-name="Layer 1"><path class="cls-2" d="M806.09,488.46c-87.42,144,12,373-305,305-164.7-35.33-376.22,14-305-305,48-215,236.82-53.69,322-199C586.09,173.46,908.09,320.46,806.09,488.46Z" transform="translate(-181.89 -239.81)"/><path class="cls-3" d="M747.75,747.46c-157.52-5.08-284.8,119.8-483.93-67.17-132.18-124.1-95.94-317.21,198.29-407.57C604.36,229,561,475.61,773.59,426.63,894.9,398.69,989.74,755.28,747.75,747.46Z" transform="translate(-181.89 -239.81)"/><circle class="cls-4" cx="535.37" cy="57.45" r="57.45"/><g class="cls-5"><path class="cls-6" d="M386.3,781l72,77.22a77.72,77.72,0,0,0,9,.17L386.77,772A77.81,77.81,0,0,0,386.3,781Z" transform="translate(-181.89 -239.81)"/><path class="cls-6" d="M388.61,799.36l51.51,55.26a78.68,78.68,0,0,0,11.48,2.78l-65-69.69A79.63,79.63,0,0,0,388.61,799.36Z" transform="translate(-181.89 -239.81)"/><path class="cls-6" d="M477,703.5l65,69.68a78.53,78.53,0,0,0-2-11.65l-51.51-55.25A77.41,77.41,0,0,0,477,703.5Z" transform="translate(-181.89 -239.81)"/><path class="cls-6" d="M497.92,710.06l38.95,41.78a78,78,0,0,0-38.95-41.78Z" transform="translate(-181.89 -239.81)"/><path class="cls-6" d="M407.23,833.64a77.82,77.82,0,0,0,23.44,17.19l-38.94-41.77A77.86,77.86,0,0,0,407.23,833.64Z" transform="translate(-181.89 -239.81)"/><path class="cls-6" d="M461.27,702.52l80.55,86.41a77.75,77.75,0,0,0,.47-9l-72-77.23A77.93,77.93,0,0,0,461.27,702.52Z" transform="translate(-181.89 -239.81)"/><path class="cls-6" d="M416.91,718.49,522.78,832.07c1.46-1.66,2.83-3.37,4.13-5.11L422.29,714.73C420.46,715.9,418.66,717.14,416.91,718.49Z" transform="translate(-181.89 -239.81)"/><path class="cls-6" d="M411.11,723.39c-.8.74-1.57,1.5-2.33,2.27l106.27,114c.82-.71,1.64-1.42,2.44-2.16s1.56-1.51,2.32-2.28l-106.27-114C412.72,721.93,411.9,722.64,411.11,723.39Z" transform="translate(-181.89 -239.81)"/><path class="cls-6" d="M401.68,733.93,506.3,846.17c1.83-1.18,3.63-2.42,5.38-3.76L405.81,728.83C404.35,730.48,403,732.19,401.68,733.93Z" transform="translate(-181.89 -239.81)"/><path class="cls-6" d="M395.67,743.37l100.8,108.14c2-.93,4.06-1.94,6-3.06L399.14,737.56Q397.27,740.4,395.67,743.37Z" transform="translate(-181.89 -239.81)"/><path class="cls-6" d="M426.08,712.44l103.37,110.9q1.88-2.85,3.48-5.81L432.12,709.39C430.08,710.31,428.06,711.33,426.08,712.44Z" transform="translate(-181.89 -239.81)"/><path class="cls-6" d="M436.39,707.6,535,813.4c1-2.17,1.92-4.38,2.72-6.62L443.18,705.36C440.89,706,438.62,706.75,436.39,707.6Z" transform="translate(-181.89 -239.81)"/><path class="cls-6" d="M448,704.16l91.26,97.91q1.08-3.78,1.79-7.62l-85.33-91.54C453.12,703.2,450.54,703.62,448,704.16Z" transform="translate(-181.89 -239.81)"/><path class="cls-6" d="M390.87,754.12l94.54,101.42q3.43-1,6.8-2.25L393.59,747.5Q392.08,750.75,390.87,754.12Z" transform="translate(-181.89 -239.81)"/><path class="cls-6" d="M387.55,766.44,472.88,858a77.52,77.52,0,0,0,7.72-1.24l-91.26-97.91Q388.26,762.6,387.55,766.44Z" transform="translate(-181.89 -239.81)"/></g><path class="cls-7" d="M557.6,444.12H428.7a5,5,0,0,1-5-5h0a5,5,0,0,1,5-5h129a5,5,0,0,1,5,5h0A5.08,5.08,0,0,1,557.6,444.12Z" transform="translate(-181.89 -239.81)"/><path class="cls-7" d="M521,464.16h-92.4a5,5,0,0,1-5-5h0a5,5,0,0,1,5-5H521a5,5,0,0,1,5,5h0A4.9,4.9,0,0,1,521,464.16Z" transform="translate(-181.89 -239.81)"/><path class="cls-7" d="M633.92,464.16H546.75a5,5,0,0,1-5-5h0a5,5,0,0,1,5-5h87.17a5,5,0,0,1,5,5h0A5,5,0,0,1,633.92,464.16Z" transform="translate(-181.89 -239.81)"/><path class="cls-7" d="M633.92,444.12H580.06a5,5,0,0,1-5-5h0a5,5,0,0,1,5-5h53.86a5,5,0,0,1,5,5h0A4.9,4.9,0,0,1,633.92,444.12Z" transform="translate(-181.89 -239.81)"/><path class="cls-7" d="M501.79,479.14h0a5,5,0,0,1,5-5h129a5,5,0,0,1,5,5h0a5,5,0,0,1-5,5H506.89A5.08,5.08,0,0,1,501.79,479.14Z" transform="translate(-181.89 -239.81)"/><path class="cls-7" d="M538.54,499.18h0a5,5,0,0,1,5-5h92.4a5,5,0,0,1,5,5h0a5,5,0,0,1-5,5h-92.4A4.9,4.9,0,0,1,538.54,499.18Z" transform="translate(-181.89 -239.81)"/><path class="cls-7" d="M425.59,499.18h0a5,5,0,0,1,5-5h87.17a5,5,0,0,1,5,5h0a5,5,0,0,1-5,5H430.57A5,5,0,0,1,425.59,499.18Z" transform="translate(-181.89 -239.81)"/><path class="cls-7" d="M425.59,479.14h0a5,5,0,0,1,5-5h53.86a5,5,0,0,1,5,5h0a5,5,0,0,1-5,5H430.57A4.91,4.91,0,0,1,425.59,479.14Z" transform="translate(-181.89 -239.81)"/><path class="cls-8" d="M601.41,684s2.13-21.87,1.3-23.71c-3.07-1.82-9.12-.32-12.38.19s-4.15,1.22-4,4.24c.22,3.37.7,6.73,1,10.09l1,9.93.13,1.23.13.33,19.74,52.47,4.89-1.38Z" transform="translate(-181.89 -239.81)"/><path class="cls-8" d="M590.84,658.43a30.85,30.85,0,0,0-6.64-.7c-2.65,0-7.43.3-8.83,3-1.13,2.19-.48,6.79-.66,9.21l-.87,11.68-.09,1.17,0,.24,7.87,55.44,5.17-.37q0-27.42,0-54.85c.48-2.12.94-4.25,1.41-6.33-.25-2.45,3.09-7.55,4-9.78s3.31-5.52,1.43-7.38A6.38,6.38,0,0,0,590.84,658.43Z" transform="translate(-181.89 -239.81)"/><path class="cls-9" d="M586.8,735.39s1.68,1.18,1.68,4.48a84.18,84.18,0,0,1-.8,8.93H585v-5.95l-5.74,5.95h-7.47c-1.81,0-.74-3.19,2.87-3.72s5.36-4.36,7-7.11C583.82,738.2,586.37,736.67,586.8,735.39Z" transform="translate(-181.89 -239.81)"/><path class="cls-9" d="M612.77,735.39s1.69,1.18,1.69,4.48a84.18,84.18,0,0,1-.8,8.93H611v-5.95l-5.74,5.95h-7.47c-1.81,0-.74-3.19,2.87-3.72s5.82-4.69,7.41-7.44C610.25,737.86,612.35,736.67,612.77,735.39Z" transform="translate(-181.89 -239.81)"/><path class="cls-10" d="M589.49,661.49h-14.4c-.71,2.36-.22,6.27-.38,8.45l-.87,11.68-.09,1.17,0,.24.14,1c3.66,3.91,9.39,10.63,12.92,17.43V683.25c.48-2.12.94-4.25,1.41-6.33-.23-2.24,2.51-6.66,3.68-9.11C590.59,664.23,589.49,661.49,589.49,661.49Z" transform="translate(-181.89 -239.81)"/><path class="cls-10" d="M605,699.86,601.41,684s1.14-11.73,1.42-18.73l-12-4.88-.54.09a11.89,11.89,0,0,0-2.06.46l-1.35,9.56c.17,1.44.34,2.87.49,4.31l1,9.93,0,.19C592.75,688.37,600.35,694.77,605,699.86Z" transform="translate(-181.89 -239.81)"/><path class="cls-8" d="M579.58,545.46a172.17,172.17,0,0,1-11.74-14.54c-.91-1.29-1.58-2.36-2.44-3.8L563,522.93,558,514.56l-7.35-11.78s.47-6.84-.87-9.21-2.7-8-3.22-8.61-.42,5.6.29,7.58c-.45-.33-1.34-2.3-2.29-2.58-.78-.24-1.5,1-2.22,1.31-1.63.65-1.71,3.94-1.66,4.19.44,2.22,4.27,7.56,6.76,8.85l4.26,13.24,3.38,9.1,1.68,4.55c.55,1.46,1.29,3.3,2,4.8a180.26,180.26,0,0,0,9.68,17.63c1.94,3.17,3.89,6.27,5.9,9.36a7.88,7.88,0,1,0,12.33-9.72C584.29,550.7,581.9,548.08,579.58,545.46Z" transform="translate(-181.89 -239.81)"/><path class="cls-10" d="M583,566.29s2.1-1.49,4.63-3.44a7.87,7.87,0,0,0-.9-9.58c-2.12-2.26-4.21-4.57-6.27-6.87-7,1.64-14.52-2.38-19.44-5.91,2.34,4.55,4.89,8.85,7.48,13.14,1.94,3.17,3.89,6.27,5.9,9.36a7.8,7.8,0,0,0,6.7,3.53l1.84-.22Z" transform="translate(-181.89 -239.81)"/><path class="cls-8" d="M599.77,519.75c-5.42-4.78-13.85-3.82-16.75,1-.35.58-7.33,11.16-6.37,16.26.61,3.3,4.11,5.32,9.2,5.57.6,3.24,1,8.92-2.44,11.82,1.81,1.08,11.33,1.74,13.21-.83a80.83,80.83,0,0,1-3.44-11.68c.75-.17,1.51-.35,2.28-.57C605.51,538.41,605.19,524.54,599.77,519.75Z" transform="translate(-181.89 -239.81)"/><path class="cls-11" d="M593.25,548.51c-12.66-2-30.74,8.49-24.14,21.51,4.85,9.59,8.09,5.65,8.32,14.75s-3.32,25.57-3.32,25.57,10.15,6.71,34.58,0c-2.55-11.12-5.46-29.45-4.33-47.3C604.94,553.91,599.83,549.53,593.25,548.51Z" transform="translate(-181.89 -239.81)"/><path class="cls-8" d="M593.83,555.59a8.7,8.7,0,0,0-10.75,7.12l-1.54,10.08-1.49,9.79-.75,4.89a4.19,4.19,0,0,1-.52,2,4.38,4.38,0,0,1-.67.9,6,6,0,0,1-.77.62l-1,.74-4,3-7.92,5.93-15.85,11.88a16.61,16.61,0,0,0-5.33,0c-1,.17-5.82,1.17-5.49,1.72s1.35.47,1.78.54c.62.1,2-.16,2.44.33-.12.16-.28.3-.41.45l-3.34,3.56c-1.69,1.58-2.63,4.4-1.1,4.13a64.85,64.85,0,0,0,6.92-2.59s-3.75,2.87-2.47,2.8,5.4-3.15,5.4-3.15c.87-.46,1.55-1.78,2.09-2.55,2-2.82,4.87-3.92,7.92-5.36,3.77-1.78,7.53-3.59,11.3-5.38l8.94-4.26,4.47-2.13,1.11-.53c.38-.19.69-.32,1.32-.68a15.72,15.72,0,0,0,7.11-8.91l1.7-4.65,3.39-9.3,3.49-9.59A8.7,8.7,0,0,0,593.83,555.59Z" transform="translate(-181.89 -239.81)"/><path class="cls-12" d="M574.11,610.34s-4.72,25.58-3.33,43.7,1.54,21.37,1.54,21.37,6.26,3.16,19.15,3.16,17.22-3.16,17.22-3.16-2.14-17.68,3-32.53,2.89-23.74-3-32.54C603.3,606.19,574.11,610.34,574.11,610.34Z" transform="translate(-181.89 -239.81)"/><path class="cls-13" d="M611.66,642.87a56.38,56.38,0,0,0,2.15-7.91c-4.53,11.47-16.58,33.54-42,32.92.43,6.09.5,7.53.5,7.53s6.26,3.16,19.15,3.16,17.22-3.16,17.22-3.16S606.55,657.73,611.66,642.87Z" transform="translate(-181.89 -239.81)"/><path class="cls-10" d="M597.63,557.74a8.53,8.53,0,0,0-3.8-2.15,8.7,8.7,0,0,0-10.75,7.12l-1.54,10.08-1.49,9.79-.75,4.89a4.19,4.19,0,0,1-.52,2,4.55,4.55,0,0,1-.62.84,28.1,28.1,0,0,1-1.6,6.77c-1,2-2.61,5.28-3.94,7.89l4.64-2.21,4.47-2.13,1.11-.53c.38-.19.69-.32,1.32-.68a15.72,15.72,0,0,0,7.11-8.91l1.7-4.65,3.39-9.3,2.29-6.3C598.22,566.45,597.86,561.32,597.63,557.74Z" transform="translate(-181.89 -239.81)"/><path class="cls-9" d="M583.41,516.61s.92,10.27,5.37,12.12c.37,1.85-2.41,4.32-3.24,5.93s6.45-2,7.81,0-1.36,6.61-4.32,7.92c-10.28,4.56-.84,12.74-1,19.6-.14,4.71-3.76,8.6-5.23,12.91-2.07,6.07,1.72,8.81,5.38,13.14,1.57,1.86,3.05,4.21,3.16,6.71.12,2.68-1.84,4.64-2.48,7.06a15,15,0,0,0,.92,9.65,13.73,13.73,0,0,0,6.28,5.93,20.83,20.83,0,0,0,21.54-1.92c5.78-4.38,11.77-16.19,5.89-22.6-3.78-4.12-4.86-10.27-4.66-15.68.25-6.5,3.91-12.52,1.87-19.1-1.69-5.41-6.78-7.89-9.23-12.63A18.78,18.78,0,0,1,610,531.88c1.62-6-2.71-12.42-7.41-16C596.56,511.4,589.29,512.12,583.41,516.61Z" transform="translate(-181.89 -239.81)"/><path class="cls-14" d="M623.45,593.06c-3.78-4.12-4.86-10.27-4.66-15.68.25-6.5,3.91-12.52,1.87-19.1a12.08,12.08,0,0,0-1.16-2.52c1.13,1.92-6.08,6.07-7.15,6.52-3.82,1.61-9.41,3-13.14.6-4.85-3.16-6.26-14-3-18.62,2.43-3.49,5.47-12.6-2.28-15a16.08,16.08,0,0,1-10-9.64c.63,3.19,2,7.93,4.91,9.13.37,1.85-2.41,4.32-3.24,5.93s6.45-2,7.81,0-1.36,6.61-4.32,7.92c-10.28,4.56-.84,12.74-1,19.6-.14,4.71-3.76,8.6-5.23,12.91-2.07,6.07,1.72,8.81,5.38,13.14,1.57,1.86,3.05,4.21,3.16,6.71.12,2.68-1.84,4.64-2.48,7.06a15,15,0,0,0,.92,9.65,13.73,13.73,0,0,0,6.28,5.93,20.83,20.83,0,0,0,21.54-1.92C623.34,611.28,629.33,599.47,623.45,593.06Z" transform="translate(-181.89 -239.81)"/><path class="cls-15" d="M551.24,506.2a5.53,5.53,0,0,1-4-1.64l-23.38-23.38,7.93-7.93,23.38,23.38a5.61,5.61,0,0,1-4,9.57Z" transform="translate(-181.89 -239.81)"/><path class="cls-16" d="M517.59,446.4A20.56,20.56,0,1,0,538.15,467,20.55,20.55,0,0,0,517.59,446.4Zm0,37.38A16.83,16.83,0,1,1,534.42,467,16.83,16.83,0,0,1,517.59,483.78Z" transform="translate(-181.89 -239.81)"/><circle class="cls-17" cx="335.7" cy="227.15" r="16.82"/><path class="cls-18" d="M530.68,467h-3.74a9.37,9.37,0,0,0-9.35-9.35v-3.74A13.1,13.1,0,0,1,530.68,467Z" transform="translate(-181.89 -239.81)"/><path class="cls-8" d="M539,496.33s4-1,2.3,2.3c.25.33,3.83-3.24,2,2,0,0,3.33-1.74,1.77,1.77.44-.48,2.65-.41,1.55,1.55C546.59,504,539,496.33,539,496.33Z" transform="translate(-181.89 -239.81)"/><circle class="cls-19" cx="593.7" cy="299.15" r="46"/><circle class="cls-19" cx="620.7" cy="336.15" r="46"/><circle class="cls-19" cx="562.7" cy="336.15" r="46"/><path class="cls-20" d="M812.59,581s-33,10.46-37,32.23a11.58,11.58,0,0,0-2-1.53S779.59,591,812.59,581Z" transform="translate(-181.89 -239.81)"/><path class="cls-20" d="M734.59,581s33,10.46,37,32.23a11.58,11.58,0,0,1,2-1.53S767.59,591,734.59,581Z" transform="translate(-181.89 -239.81)"/><path class="cls-20" d="M773.59,526l-2,189a2,2,0,0,0,2,2h0a2,2,0,0,0,2-2Z" transform="translate(-181.89 -239.81)"/><path class="cls-19" d="M328.78,594.14l-1.35.13a1.49,1.49,0,0,0-.72.07.74.74,0,0,0-1.17-.17,3.59,3.59,0,0,1-.39.39,79.87,79.87,0,0,0-17.23,4.55q-3.09,1.17-6.06,2.55a4.42,4.42,0,0,0-1.18.56c-.94.45-1.86.92-2.79,1.41-3.29,1.74-6.49,3.65-9.69,5.57-1.52.91-3.27,1.83-4.15,3.45a4.33,4.33,0,0,0-.44,3,.91.91,0,0,0-.16.11h-.06a1.05,1.05,0,0,0-1,.74l-.09.36a2.57,2.57,0,0,0-.53,2.48,2.21,2.21,0,0,0-.05.25,2.25,2.25,0,0,1-.45,0c-.18,0-.17.31,0,.28a2.35,2.35,0,0,1,.37,0,40,40,0,0,0-.57,6.56,8.31,8.31,0,0,0,.2,2.44,18.64,18.64,0,0,1,.43,2.5l.09.54-.18.4a1.37,1.37,0,0,0,.48,1.81l.13.06c.12.52.23,1,.36,1.53-1,2-2,4.06-2.95,6.12q-2.87,6.26-5.46,12.63a250.64,250.64,0,0,0-8.93,26.18,276.35,276.35,0,0,0-6.19,27c-.08.49-.17,1-.25,1.47q.09-8.25.09-16.48,0-11-.27-22c-.08-3.71-.24-7.41-.35-11.11s-.17-7.27-.41-10.9l.22-.08a3.45,3.45,0,0,0,.73-.23,6,6,0,0,0,1.15-1,11.35,11.35,0,0,0,1.23-1.52,3.39,3.39,0,0,0,.51-.41,5.6,5.6,0,0,0,1.32-2.32c.11-.33.21-.66.32-1,.55-1,1.07-2.11,1.61-3.16l1.76-3.46c.57-1.12,1.21-2.23,1.67-3.4a6.59,6.59,0,0,0,.53-1.9,1.85,1.85,0,0,0,.57-1.07,1.3,1.3,0,0,0-.68-1.1,1.5,1.5,0,0,0-.8-.19,6.86,6.86,0,0,0-1.25-.88,3.46,3.46,0,0,1-1.69-1.58,6.57,6.57,0,0,1-.44-1.59,13.37,13.37,0,0,0,0-1.55.82.82,0,0,0-.32-.61,29.16,29.16,0,0,0-3.05-8.6.16.16,0,0,0-.11-.2,44.63,44.63,0,0,0-5.92-8.07l-1.66-1.83s0-.07,0-.11a.19.19,0,0,0-.26-.16c-.78-.85-1.57-1.69-2.4-2.49,0-.08.05-.16.07-.24s-.16-.22-.22-.09l-.06.13-.47-.45c-.44-.41-.9-.81-1.37-1.18,0,0,0-.07,0-.1s-.19-.21-.22-.06c-.38-.29-.76-.56-1.15-.82a8.59,8.59,0,0,0-3.29-1.41,1.13,1.13,0,0,0-.75.12c-.18-.21-.61-.21-.67.13a17,17,0,0,0,.36,6.55,1.57,1.57,0,0,0,.15,1l.22.49c.21.7.44,1.4.68,2.09,1.2,3.39,2.54,6.74,3.78,10.11a143.72,143.72,0,0,1,5.82,21.28c.41,2,.78,4.08,1.13,6.12q.27,1.56.63,3.09c.11.48.26,1,.39,1.42a4.85,4.85,0,0,0,.59,1.21c0,2.5.12,5,.17,7.51.09,3.66.17,7.33.16,11,0,7.33.1,14.67.12,22,0,7.74,0,15.48-.17,23.22-.37,3.5-.68,7-1,10.5-.39,4.1-.82,8.2-1.25,12.3,0-.59,0-1.17,0-1.75q-.13-4.11-.43-8.21c-.06-2-.18-4-.32-6a59.28,59.28,0,0,0-1.16-10,.15.15,0,0,0-.29,0c0,.67,0,1.33.07,2a33.32,33.32,0,0,0-1.68-6.73c-.36-2.33-.77-4.65-1.19-7-1.17-6.34-2.65-12.62-4.44-18.8-1-3.48-2.17-6.89-3.3-10.32-.56-1.68-1-3.38-1.46-5.09-.09-.33-.18-.65-.29-1a4.8,4.8,0,0,0,1.22-.45.8.8,0,0,0,.71-.45.25.25,0,0,0,0-.07c1.7-1.43,2.53-4,3.12-6.06a19.63,19.63,0,0,0,.92-5.93,8.69,8.69,0,0,0-2-5.32,14.83,14.83,0,0,0-3.42-2.83c-.07-.2-.14-.4-.23-.6a.91.91,0,0,0-1.18-.38h0a15.07,15.07,0,0,0-6.25-3.55,5.58,5.58,0,0,0-2.5-.26c-.75-.23-1.51-.43-2.28-.62a21.57,21.57,0,0,1-5.59-2c-2.84-1.62-5.35-4.06-8.54-4.88a11.77,11.77,0,0,0-2.81-1.53.9.9,0,0,0-1.08.53.49.49,0,0,0,0,.11.94.94,0,0,0-.3.88,6.32,6.32,0,0,0,.34,1,2.89,2.89,0,0,0-.22.9,4,4,0,0,0,.56,2.27.16.16,0,0,0-.13.24,27.47,27.47,0,0,0,1.77,2.63,25.79,25.79,0,0,0,2,2.15,5,5,0,0,0,1,1.52.13.13,0,0,0,.21-.12c0-.12-.07-.25-.1-.38q.73.75,1.5,1.47l.18.16a1.23,1.23,0,0,0,.29.49.11.11,0,0,0,.19,0l1.7,1.52.39.38c2.29,2.19,4.6,4.36,7.07,6.34,1.34,1.09,2.65,2,3.95,3.09.17.15.33.31.49.48.9.93,1.71,1.94,2.52,3a21.26,21.26,0,0,0,3.07,3.4,9.65,9.65,0,0,1,.52,1.5,1.51,1.51,0,0,0,1.43,1.08l.23,0a1,1,0,0,0,.24.26,3.87,3.87,0,0,0,0,.76,29.07,29.07,0,0,0,1.18,4.85c.14.78.31,1.55.51,2.32a22.06,22.06,0,0,0,1.75,4.84c.32,1,.64,2,.94,3.09,1.72,5.88,3.16,11.85,4.32,17.87-.82-1.64-2.4-3-3.47-4.34a34.71,34.71,0,0,1-2.49-3.42c-.15-.24-.3-.48-.44-.72a2,2,0,0,1-.1-.26,5,5,0,0,0-2.68-3.16.6.6,0,0,0-.26,0,15.16,15.16,0,0,0-6.26-1.5,55,55,0,0,0-9.34.12,3.35,3.35,0,0,0-2.05.31.78.78,0,0,0-.41.57,1,1,0,0,0-.2.4,1.15,1.15,0,0,0,.79,1.4l1.31.24a8.75,8.75,0,0,0,3.18.69l.78,0,.92.16c.9.26,1.86.39,2.79.57l.89.48c.79.42,1.59.83,2.39,1.23a9,9,0,0,0,1,.44,9.24,9.24,0,0,1,1.08,1.48c.25.4.47.82.69,1.25,0,.08.08.16.12.24s.15.33.23.49c.3.65.58,1.31.79,1.83.38.88.6,1.43,1,2.29a17.18,17.18,0,0,0,1,1.94,12.11,12.11,0,0,0,1.77,2.25,2.46,2.46,0,0,0,.44.41,9.11,9.11,0,0,0,1,.74,6.42,6.42,0,0,0,.74.39c.26,2.15.64,4.28,1,6.42q.94,5.57,1.9,11.13c1.27,7.34,2.55,14.76,2.76,22.23q.1,3.51-.09,7a119.39,119.39,0,0,0-15.88,2c-2.5.48-5.12,1.22-5.86,3.9-.57,2.09-.25,4.27-.46,6.39a65.63,65.63,0,0,0-.33,8.64,61.44,61.44,0,0,0,1.79,12.59c.85,3.51,3.18,7.05,5.3,10a22.3,22.3,0,0,0,4.69,5.18l.44.29a9.19,9.19,0,0,0,1.5,1,5.18,5.18,0,0,0,.77.25c-.13,0,.16.06.18.07l.3.08c.44.11.89.2,1.33.29a8.37,8.37,0,0,0,.86.23c.48.13.94.27,1.39.41a31.32,31.32,0,0,0,13,.76c1.81-.22,3.61-.51,5.4-.83,1-.19,2.05-.47,3.06-.76.37-.09.75-.19,1.12-.3a8.57,8.57,0,0,0,1-.3,8.08,8.08,0,0,0,3.26-1.28,3.61,3.61,0,0,0,.58-.31,11.45,11.45,0,0,0,1.54-1.24A15.7,15.7,0,0,0,276,794a33.62,33.62,0,0,0,3.3-7.64,45.93,45.93,0,0,0,1.94-9.78,58.56,58.56,0,0,0-.14-10.17c-.16-1.93-.33-3.87-.57-5.8-.37-3-.56-6.38-3.48-8a16,16,0,0,0-5.55-1.55,118,118,0,0,0-13-1.07c.05-.82.09-1.65.11-2.47.64-4.66,1.51-9.29,2.49-13.89.22-1,.43-2.11.66-3.16.12-.52.21-1,.31-1.58a3.8,3.8,0,0,0,.13-1.46.26.26,0,0,0-.42-.11,3.12,3.12,0,0,0-.59,1.09c-.18.45-.36.89-.52,1.34-.33.92-.61,1.85-.91,2.78-.51,1.63-1,3.28-1.37,4.94v-.21c0-.22,0-.45,0-.68,0-.76,0-1.52,0-2.27q.48-5.54.69-11.08c.07-1.81.12-3.62.13-5.43q.84-5.82,2-11.61c1.63-8.48,3.62-16.91,6-25.22s5-16.46,8.08-24.51q3.94-10.41,8.57-20.52a.74.74,0,0,0,.46-.4c3-5.82,8.23-10,13.38-13.87a78.5,78.5,0,0,0,10.19-7.58l1.71-1.49c3.29-2.54,6.55-5.13,9.71-7.83,1.74-1.49,3.45-3,5.11-4.57.67-.62,1.33-1.26,2-1.91L327,598a1,1,0,0,0,.6-.81l1-.81a.33.33,0,0,0,.12-.42l.58-.58A.76.76,0,0,0,328.78,594.14Zm-94.58,58c-.07,0,0,0,0,0Zm-16.6-14a.94.94,0,0,0-.06.15c-.3-.31-.59-.63-.88-.95C217,637.6,217.29,637.87,217.6,638.14Zm2.53,2.54.15.23-.15-.13Zm1.84-3.77,0,0a.85.85,0,0,0,.14-.34l.13.07A1.33,1.33,0,0,0,222,636.91Zm37.71-.22.17-.19c-.07.26-.13.51-.19.77C259.67,637.08,259.67,636.88,259.68,636.69ZM248,721.8c-.71-3.75-1.53-7.48-2.29-11.22-.43-2.12-.85-4.24-1.29-6.36,0-.16-.07-.33-.1-.5a3.06,3.06,0,0,0,3.16-1.25,2.75,2.75,0,0,0,.45-1.39,1,1,0,0,0,.1-.17,3.12,3.12,0,0,0,.31-.87,179,179,0,0,1,2.24,20.39c.41,7,.38,14.06.11,21.09,0,.34,0,.68,0,1-.17-3.15-.47-6.29-.87-9.4Q249.07,727.44,248,721.8Zm60.69-113.14-.11-.08.39-.3-.13.28Zm-6.16,1.11h0Z" transform="translate(-181.89 -239.81)"/><path class="cls-21" d="M269.59,533.85l-54.13-54.13,54.63-54.64,54.14,54.14Zm-34.33-54.13,34.33,34.34,34.84-34.84-34.34-34.34Z" transform="translate(-181.89 -239.81)"/><path class="cls-19" d="M465.72,596.23,470,605.8l-7.56,6.43a39.08,39.08,0,0,1-23.21-28.05h0l7.87-4.32,8.54,4.37a23.34,23.34,0,0,0,3.79,6.63A23,23,0,0,0,465.72,596.23Z" transform="translate(-181.89 -239.81)"/><path class="cls-19" d="M502.52,546.38a39.61,39.61,0,0,1,5.13,5.22,39,39,0,0,1,7.89,32.78h0l-9,6.58-7.43-6.62a23.22,23.22,0,0,0,.26-15.52L483.22,582l-9.74-12,16.4-13.35,12.64-10.29Z" transform="translate(-181.89 -239.81)"/><path class="cls-19" d="M515.53,584.38h0a39,39,0,0,1-53.09,27.85l3.27-16a23.17,23.17,0,0,0,33.4-11.89Z" transform="translate(-181.89 -239.81)"/><path class="cls-19" d="M477.76,537.23l-3.27,16a23.19,23.19,0,0,0-18.84,31l-16.41-.05h0a39,39,0,0,1,38.52-46.95Z" transform="translate(-181.89 -239.81)"/></g></g></svg>