<?xml version="1.0" encoding="iso-8859-1"?>
<!-- Generator: Adobe Illustrator 19.0.0, SVG Export Plug-In . SVG Version: 6.00 Build 0)  -->
<svg version="1.1" id="Capa_1" xmlns="http://www.w3.org/2000/svg" xmlns:xlink="http://www.w3.org/1999/xlink" x="0px" y="0px"
	 viewBox="0 0 512 512" style="enable-background:new 0 0 512 512;" xml:space="preserve">
<path style="fill:#79A1E8;" d="M430.661,244.092c101.106,87.684-113.933,253.627-209.279,159.713
	C96.647,280.944,28.624,372.416,28.624,238.585S47.09,138.883,188.337,78.872C311.513,26.539,309.379,138.911,430.661,244.092z"/>
<ellipse style="fill:#473CBA;" cx="305.448" cy="400.055" rx="195.741" ry="9.294"/>
<polygon style="fill:#D84416;" points="417.99,4.026 220.116,4.026 220.116,83.016 354.425,83.016 384.213,112.803 384.213,83.016 
	417.99,83.016 "/>
<polygon style="fill:#F15A24;" points="220.116,4.026 220.116,83.015 309.232,83.015 388.223,4.026 "/>
<path style="fill:#4B31AA;" d="M384.214,116.828c-1.048,0-2.077-0.409-2.847-1.179l-28.609-28.608H220.116
	c-2.223,0-4.026-1.802-4.026-4.026V4.026c0-2.223,1.802-4.026,4.026-4.026H417.99c2.223,0,4.026,1.802,4.026,4.026v78.99
	c0,2.223-1.802,4.026-4.026,4.026h-29.752v25.762c0,1.628-0.981,3.096-2.486,3.719C385.255,116.728,384.732,116.828,384.214,116.828
	z M224.141,78.99h130.285c1.068,0,2.091,0.425,2.846,1.179l22.916,22.915V83.015c0-2.223,1.802-4.026,4.026-4.026h29.752V8.051
	H224.142L224.141,78.99L224.141,78.99z"/>
<path style="fill:#473CBA;" d="M213.99,299.474h249.058V145.686c0-10.051-8.148-18.197-18.197-18.197H232.187
	c-10.051,0-18.197,8.148-18.197,18.197V299.474z"/>
<path style="fill:#E1F0FA;" d="M430.282,127.489h-14.565H217.619c-10.051,0-18.197,8.148-18.197,18.197v153.788h44.309h204.749
	V145.686C448.479,135.637,440.332,127.489,430.282,127.489z"/>
<path style="fill:#89C1F2;" d="M448.479,145.686c0-10.051-8.148-18.197-18.197-18.197h-14.565L243.73,299.474h204.749V145.686z"/>
<path style="fill:#4B31AA;" d="M198.767,236.473c1.999,0,3.559,0.679,4.68,1.74v-50.508c-1.1,0.936-2.572,1.531-4.428,1.531
	c-1.433,0-2.641-0.35-3.623-0.939v48.983C196.332,236.775,197.452,236.473,198.767,236.473z"/>
<rect x="199.708" y="296.62" style="fill:#7693DD;" width="266.278" height="20.695"/>
<rect x="448.837" y="296.62" style="fill:#473CBA;" width="55.955" height="20.695"/>
<path style="fill:#4B31AA;" d="M504.792,292.594h-37.719V145.686c0-12.254-9.969-22.223-22.223-22.223H287.589h-0.708
	c1.393,2.426,1.314,5.716-0.225,8.051h1.436h142.19c7.816,0,14.173,6.357,14.173,14.172v146.908h-89.036
	c0.348,2.682,0.71,5.365,1.045,8.051h88.347v12.643h-87.174c0.094,1.905,0.154,3.811,0.133,5.721
	c-0.009,0.781,0.018,1.555,0.037,2.33h146.987c2.223,0,4.026-1.802,4.026-4.026V296.62
	C508.817,294.397,507.015,292.594,504.792,292.594z M447.604,131.787c6.5,1.286,11.418,7.027,11.418,13.899v146.908h-6.517V145.686
	C452.505,140.43,450.667,135.596,447.604,131.787z M500.766,313.29h-47.906v-12.644h47.906V313.29z"/>
<path style="fill:#473CBA;" d="M355.365,441.728H59.728v-182.55c0-11.93,9.671-21.601,21.601-21.601h252.435
	c11.93,0,21.601,9.671,21.601,21.601V441.728z"/>
<path style="fill:#D7ECF9;" d="M345.199,441.728H49.563v-182.55c0-11.93,9.671-21.601,21.601-21.601h252.435
	c11.93,0,21.601,9.671,21.601,21.601V441.728z"/>
<rect x="7.208" y="438.338" style="fill:#7693DD;" width="316.073" height="24.566"/>
<rect x="311.316" y="438.338" style="fill:#473CBA;" width="44.613" height="24.566"/>
<rect x="67.351" y="256.214" style="fill:#FFFFFF;" width="261.749" height="181.279"/>
<polygon style="fill:#D7ECF9;" points="329.105,256.213 315.171,256.213 133.892,437.492 329.105,437.492 "/>
<path style="fill:#4B31AA;" d="M359.39,436.313V259.178c0-14.131-11.496-25.626-25.626-25.626h-262.6
	c-14.131,0-25.626,11.496-25.626,25.626v175.135H7.208c-2.223,0-4.026,1.802-4.026,4.026v24.566c0,2.223,1.802,4.026,4.026,4.026
	H355.93c2.223,0,4.026-1.802,4.026-4.026v-24.566C359.956,437.596,359.74,436.911,359.39,436.313z M351.339,259.178v175.135h-2.114
	V259.178c0-4.648-1.25-9.008-3.423-12.77C349.203,249.614,351.339,254.146,351.339,259.178z M53.588,259.178
	c0-9.691,7.884-17.575,17.575-17.575h252.436c9.691,0,17.575,7.884,17.575,17.575v175.135h-8.044v-178.1
	c0-2.223-1.802-4.026-4.026-4.026H67.352c-2.223,0-4.026,1.802-4.026,4.026v178.101h-9.739V259.178z M307.291,458.879H11.234
	v-16.515h296.057V458.879z M71.378,433.466V260.238H325.08v173.228H71.378z M351.905,458.879h-36.563v-16.515h36.563V458.879z"/>
<ellipse style="fill:#473CBA;" cx="185.679" cy="502.706" rx="169.575" ry="9.294"/>
<polygon style="fill:#F9D015;" points="70.745,102.233 288.26,102.233 288.26,189.063 140.619,189.063 107.874,221.808 
	107.874,189.063 70.745,189.063 "/>
<polygon style="fill:#E5B900;" points="288.26,102.233 235.67,102.233 148.84,189.063 288.26,189.063 "/>
<path style="fill:#4B31AA;" d="M107.873,225.832c-0.519,0-1.042-0.101-1.54-0.307c-1.504-0.623-2.485-2.09-2.485-3.719v-28.718
	H70.745c-2.223,0-4.026-1.802-4.026-4.026v-86.83c0-2.223,1.802-4.026,4.026-4.026H288.26c2.223,0,4.026,1.802,4.026,4.026v86.83
	c0,2.223-1.802,4.026-4.026,4.026H142.287l-31.566,31.564C109.951,225.424,108.921,225.832,107.873,225.832z M74.77,185.038h33.105
	c2.223,0,4.026,1.802,4.026,4.026v23.026l25.873-25.872c0.755-0.755,1.779-1.179,2.846-1.179h143.615v-78.779H74.77V185.038z"/>
<path style="fill:#D7ECF9;" d="M260.208,405.464c-1.039-10.575-9.201-19.054-19.73-20.493l-20.683-2.827
	c-5.712-0.781-9.97-5.661-9.97-11.425v-20.32h-23.477v20.32c0,5.766-4.258,10.644-9.97,11.425l-20.683,2.827
	c-10.528,1.439-18.691,9.918-19.73,20.493l-2.952,30.051h130.147L260.208,405.464z"/>
<g>
	<path style="fill:#FFFFFF;" d="M176.376,382.144c5.712-0.781,9.97-5.66,9.97-11.425v-20.32h23.477v20.32
		c0,5.766,4.258,10.644,9.97,11.425l-22.744,21.424L176.376,382.144z"/>
	<path style="fill:#FFFFFF;" d="M235.994,318.221c-0.407,0-0.802,0.04-1.193,0.099v-7.51c0-20.277-16.438-36.717-36.717-36.717l0,0
		c-20.278,0-36.717,16.438-36.717,36.717v7.51c-0.39-0.058-0.786-0.099-1.193-0.099c-4.405,0-7.976,3.571-7.976,7.976
		c0,4.405,3.571,7.976,7.976,7.976c0.504,0,0.995-0.052,1.472-0.142c2.24,18.132,17.698,32.169,36.436,32.169l0,0
		c18.738,0,34.196-14.037,36.436-32.169c0.478,0.09,0.969,0.142,1.472,0.142c4.405,0,7.976-3.571,7.976-7.976
		C243.97,321.791,240.399,318.221,235.994,318.221z"/>
</g>
<polygon style="fill:#473CBA;" points="201.581,415.287 210.878,403.775 198.085,395.917 185.292,403.774 194.59,415.286 
	191.065,435.515 205.104,435.515 "/>
<g>
	<polygon style="fill:#F3FBFF;" points="217.903,381.057 198.016,396.386 213.208,413.925 227.017,383.405 	"/>
	<polygon style="fill:#F3FBFF;" points="178.267,381.057 198.154,396.386 182.963,413.925 169.153,383.405 	"/>
</g>
<path style="fill:#7693DD;" d="M151.683,312.49c-1.174-25.409,20.621-46.057,46.057-46.057h8.77c7.627,0,13.811,6.183,13.811,13.811
	l0,0h6.56c9.725,0,17.608,7.883,17.608,17.608v25.756c-0.039-0.058-0.079-0.115-0.119-0.171c-3.171-4.483-10.239-2.206-10.239,3.286
	v1.088h-3.74v-4.544c0-4.562-2.367-8.867-6.348-11.095c-5.142-2.878-8.843-9.104-8.843-16.32l0,0l0,0
	c0,9.953-8.069,18.022-18.022,18.022h-19.805c-5.909,0-10.7,4.79-10.7,10.7v3.238h-3.7v-1.207c0-5.504-6.995-7.919-10.346-3.552
	c-0.039,0.05-0.077,0.102-0.116,0.154C152.512,323.203,151.786,314.733,151.683,312.49z"/>
<path style="fill:#4B31AA;" d="M263.158,439.541c1.136,0,2.219-0.48,2.983-1.321c0.763-0.841,1.134-1.966,1.023-3.097l-2.952-30.051
	c-1.226-12.483-10.762-22.389-23.191-24.089l-14.632-2c0.028,0.04,0.051,0.084,0.079,0.124l-7.562-1.948
	c-0.498-0.126-1.005-0.133-1.502-0.071c-2.144-1.338-3.557-3.715-3.557-6.368v-3.674c12.046-5.068,21.251-15.771,24.076-29.002
	c5.703-0.926,10.071-5.885,10.071-11.846c0-0.195-0.023-0.385-0.032-0.579c0.347-0.599,0.55-1.285,0.55-2.012V297.85
	c0-11.929-9.706-21.633-21.633-21.633h-2.993c-1.83-7.903-8.927-13.811-17.378-13.811h-8.77c-13.9,0-27.364,5.752-36.941,15.783
	c-9.061,9.49-13.727,21.737-13.137,34.486c0.105,2.254,0.783,10.204,0.835,10.827c-0.201,0.867-0.321,1.766-0.321,2.695
	c0,5.96,4.368,10.919,10.07,11.846c2.825,13.231,12.029,23.934,24.076,29.002v3.673c0,2.654-1.413,5.031-3.557,6.369
	c-0.496-0.062-1.003-0.055-1.502,0.071l-8.227,2.118c0.024-0.065,0.039-0.136,0.065-0.201l-13.954,1.907
	c-12.429,1.699-21.965,11.605-23.191,24.089l-2.952,30.051c-0.111,1.13,0.261,2.255,1.023,3.097
	c0.764,0.842,1.847,1.321,2.983,1.321H263.158z M218.803,385.446l2.572,0.662l-9.244,20.427l-8.282-9.564L218.803,385.446z
	 M210.429,381.734l-12.344,9.515l-12.33-9.504c2.859-2.842,4.616-6.765,4.616-11.028v-1.237c2.504,0.482,5.081,0.743,7.713,0.743
	s5.209-0.261,7.713-0.743v1.237C205.798,374.983,207.569,378.893,210.429,381.734z M202.513,407.727l-4.064,5.032
	c-0.136,0.168-0.257,0.346-0.362,0.531c-0.106-0.186-0.228-0.364-0.364-0.533l-4.063-5.031l4.427-5.11L202.513,407.727z
	 M237.613,329.79c0.335-0.587,0.541-1.258,0.541-1.982v-1.087c0-1.035,0.716-1.417,1.143-1.553c0.129-0.041,0.295-0.074,0.477-0.084
	c0.106,0.353,0.168,0.724,0.168,1.111C239.944,327.796,238.984,329.169,237.613,329.79z M156.227,326.196
	c0-0.425,0.085-0.827,0.21-1.212c0.496-0.247,0.996-0.161,1.302-0.057c0.362,0.124,1.208,0.533,1.208,1.674v1.207
	c0,0.85,0.267,1.636,0.717,2.285C157.73,329.84,156.227,328.199,156.227,326.196z M160.327,317.304
	c-1.07-0.363-2.156-0.538-3.222-0.538c-0.361,0-0.723,0.021-1.079,0.06c-0.148-1.879-0.282-3.679-0.32-4.521v-0.001
	c-0.487-10.531,3.389-20.671,10.916-28.554c8.066-8.448,19.408-13.291,31.119-13.291h8.77c5.395,0,9.785,4.389,9.785,9.785
	c0,2.223,1.802,4.026,4.026,4.026h6.561c7.488,0,13.582,6.094,13.582,13.582v19.188c-1.179-0.071-2.399,0.073-3.603,0.457
	c-1.105,0.351-2.103,0.87-2.974,1.525c-1.114-4.375-3.925-8.152-7.876-10.364c-4.121-2.308-6.784-7.335-6.784-12.808
	c0-2.223-1.802-4.026-4.026-4.026c-2.223,0-4.026,1.802-4.026,4.026c0,7.718-6.279,13.997-13.997,13.997h-19.805
	c-6.226,0-11.561,3.883-13.712,9.355C162.713,318.381,161.589,317.733,160.327,317.304z M165.644,333.537
	c-0.075-0.617-0.306-1.194-0.64-1.703h1.669c2.223,0,4.026-1.802,4.026-4.026v-3.238c0-3.68,2.994-6.674,6.674-6.674h19.805
	c7.289,0,13.765-3.557,17.781-9.025c1.831,2.842,4.256,5.207,7.118,6.81c2.646,1.481,4.289,4.387,4.289,7.583v4.544
	c0,2.223,1.802,4.026,4.026,4.026h0.775c-0.334,0.51-0.564,1.086-0.639,1.703c-2.017,16.325-15.963,28.636-32.441,28.636
	S167.661,349.862,165.644,333.537z M177.368,385.446l14.954,11.526l-8.283,9.564l-9.244-20.427L177.368,385.446z M139.969,405.856
	c0.86-8.757,7.551-15.705,16.27-16.898l10.367-1.417l12.689,28.044c0.567,1.25,1.73,2.125,3.088,2.324
	c0.193,0.028,0.387,0.042,0.58,0.042c1.158,0,2.272-0.5,3.042-1.39l2.298-2.653l2.008,2.487l-2.63,15.095h-30.355l0.04-7.807
	c0.012-2.223-1.782-4.035-4.004-4.047c-0.007,0-0.014,0-0.021,0c-2.214,0-4.013,1.788-4.026,4.004l-0.04,7.849h-11.823
	L139.969,405.856z M195.853,431.49l2.232-12.811l2.233,12.811H195.853z M246.896,431.49l-0.04-7.849
	c-0.012-2.216-1.811-4.004-4.026-4.004c-0.007,0-0.014,0-0.021,0c-2.223,0.012-4.016,1.824-4.004,4.047l0.04,7.807H208.49
	l-2.63-15.094l2.008-2.487l2.297,2.652c0.771,0.89,1.884,1.39,3.042,1.39c0.191,0,0.386-0.014,0.58-0.042
	c1.359-0.197,2.522-1.073,3.088-2.324l12.689-28.044l10.367,1.417c8.719,1.193,15.41,8.142,16.27,16.898l2.517,25.633h-11.821
	V431.49z"/>
<g>
</g>
<g>
</g>
<g>
</g>
<g>
</g>
<g>
</g>
<g>
</g>
<g>
</g>
<g>
</g>
<g>
</g>
<g>
</g>
<g>
</g>
<g>
</g>
<g>
</g>
<g>
</g>
<g>
</g>
</svg>
