<svg id="Layer_1" data-name="Layer 1" xmlns="http://www.w3.org/2000/svg" xmlns:xlink="http://www.w3.org/1999/xlink" viewBox="0 0 720.2 288"><defs><style>.cls-1{fill:url(#linear-gradient);}.cls-2{fill:url(#linear-gradient-2);}.cls-3{fill:url(#linear-gradient-3);}.cls-4{fill:url(#linear-gradient-4);}.cls-5{fill:url(#linear-gradient-5);}.cls-6{fill:url(#linear-gradient-6);}.cls-7{fill:url(#linear-gradient-7);}.cls-8{fill:url(#linear-gradient-8);}.cls-9{fill:url(#linear-gradient-9);}.cls-10{fill:url(#linear-gradient-10);}.cls-11{fill:url(#linear-gradient-11);}.cls-12{fill:url(#linear-gradient-12);}.cls-13{fill:url(#linear-gradient-13);}.cls-14{fill:url(#linear-gradient-14);}.cls-15{fill:url(#linear-gradient-15);}.cls-16{fill:url(#linear-gradient-16);}.cls-17{fill:url(#linear-gradient-17);}.cls-18{fill:url(#linear-gradient-18);}.cls-19{fill:url(#linear-gradient-19);}.cls-20{fill:url(#linear-gradient-20);}.cls-21{fill:url(#linear-gradient-21);}.cls-22{fill:url(#linear-gradient-22);}.cls-23{fill:url(#linear-gradient-23);}.cls-24{fill:url(#linear-gradient-24);}.cls-25{fill:url(#linear-gradient-25);}.cls-26{fill:url(#linear-gradient-26);}.cls-27{fill:url(#linear-gradient-27);}.cls-28{fill:url(#linear-gradient-28);}.cls-29{fill:url(#linear-gradient-29);}.cls-30{fill:url(#linear-gradient-30);}.cls-31{fill:url(#linear-gradient-31);}.cls-32{fill:url(#linear-gradient-32);}.cls-33{fill:url(#linear-gradient-33);}.cls-34{fill:url(#linear-gradient-34);}.cls-35{fill:url(#linear-gradient-35);}.cls-36{fill:url(#linear-gradient-36);}</style><linearGradient id="linear-gradient" y1="25.25" x2="16" y2="25.25" gradientTransform="matrix(1, 0, 0, -1, 0, 290)" gradientUnits="userSpaceOnUse"><stop offset="0" stop-color="#5262fc" stop-opacity="0"/><stop offset="1" stop-color="#5262fc"/></linearGradient><linearGradient id="linear-gradient-2" y1="266.7" y2="266.7" xlink:href="#linear-gradient"/><linearGradient id="linear-gradient-3" x1="1.23" y1="146" x2="32.25" y2="146" xlink:href="#linear-gradient"/><linearGradient id="linear-gradient-4" x1="16.17" y1="146" x2="48.67" y2="146" xlink:href="#linear-gradient"/><linearGradient id="linear-gradient-5" x1="31.1" y1="146" x2="65.2" y2="146" xlink:href="#linear-gradient"/><linearGradient id="linear-gradient-6" x1="46" y1="146" x2="81.9" y2="146" xlink:href="#linear-gradient"/><linearGradient id="linear-gradient-7" x1="61" y1="146" x2="98.9" y2="146" xlink:href="#linear-gradient"/><linearGradient id="linear-gradient-8" x1="75.9" y1="146" x2="116.1" y2="146" xlink:href="#linear-gradient"/><linearGradient id="linear-gradient-9" x1="90.8" y1="146" x2="133.6" y2="146" xlink:href="#linear-gradient"/><linearGradient id="linear-gradient-10" x1="105.76" y1="146" x2="151.56" y2="146" xlink:href="#linear-gradient"/><linearGradient id="linear-gradient-11" x1="120.7" y1="146" x2="170" y2="146" xlink:href="#linear-gradient"/><linearGradient id="linear-gradient-12" x1="135.63" y1="146" x2="189.08" y2="146" xlink:href="#linear-gradient"/><linearGradient id="linear-gradient-13" x1="150.56" y1="146" x2="209.16" y2="146" xlink:href="#linear-gradient"/><linearGradient id="linear-gradient-14" x1="165.5" y1="146" x2="230.6" y2="146" xlink:href="#linear-gradient"/><linearGradient id="linear-gradient-15" x1="180.4" y1="146" x2="254.1" y2="146" xlink:href="#linear-gradient"/><linearGradient id="linear-gradient-16" x1="195.4" y1="146" x2="281.8" y2="146" xlink:href="#linear-gradient"/><linearGradient id="linear-gradient-17" x1="210.3" y1="146" x2="322" y2="146" xlink:href="#linear-gradient"/><linearGradient id="linear-gradient-18" x1="225.2" y1="146" x2="360" y2="146" xlink:href="#linear-gradient"/><linearGradient id="linear-gradient-19" x1="704.2" y1="25.25" x2="720.2" y2="25.25" gradientTransform="matrix(1, 0, 0, -1, 0, 290)" gradientUnits="userSpaceOnUse"><stop offset="0" stop-color="#5262fc"/><stop offset="1" stop-color="#5262fc" stop-opacity="0"/></linearGradient><linearGradient id="linear-gradient-20" x1="704.2" y1="266.7" x2="720.2" y2="266.7" xlink:href="#linear-gradient-19"/><linearGradient id="linear-gradient-21" x1="687.95" y1="146" x2="718.97" y2="146" xlink:href="#linear-gradient-19"/><linearGradient id="linear-gradient-22" x1="671.54" y1="146" x2="704.04" y2="146" xlink:href="#linear-gradient-19"/><linearGradient id="linear-gradient-23" x1="655" y1="146" x2="689.1" y2="146" xlink:href="#linear-gradient-19"/><linearGradient id="linear-gradient-24" x1="638.3" y1="146" x2="674.2" y2="146" xlink:href="#linear-gradient-19"/><linearGradient id="linear-gradient-25" x1="621.3" y1="146" x2="659.2" y2="146" xlink:href="#linear-gradient-19"/><linearGradient id="linear-gradient-26" x1="604.1" y1="146" x2="644.3" y2="146" xlink:href="#linear-gradient-19"/><linearGradient id="linear-gradient-27" x1="586.6" y1="146" x2="629.4" y2="146" xlink:href="#linear-gradient-19"/><linearGradient id="linear-gradient-28" x1="568.7" y1="146" x2="614.5" y2="146" xlink:href="#linear-gradient-19"/><linearGradient id="linear-gradient-29" x1="550.2" y1="146" x2="599.5" y2="146" xlink:href="#linear-gradient-19"/><linearGradient id="linear-gradient-30" x1="531.1" y1="146" x2="584.56" y2="146" xlink:href="#linear-gradient-19"/><linearGradient id="linear-gradient-31" x1="511.1" y1="146" x2="569.7" y2="146" xlink:href="#linear-gradient-19"/><linearGradient id="linear-gradient-32" x1="489.67" y1="146" x2="554.77" y2="146" xlink:href="#linear-gradient-19"/><linearGradient id="linear-gradient-33" x1="466.1" y1="146" x2="539.8" y2="146" xlink:href="#linear-gradient-19"/><linearGradient id="linear-gradient-34" x1="438.4" y1="146" x2="524.8" y2="146" xlink:href="#linear-gradient-19"/><linearGradient id="linear-gradient-35" x1="398.2" y1="146" x2="509.8" y2="146" xlink:href="#linear-gradient-19"/><linearGradient id="linear-gradient-36" x1="360.2" y1="146" x2="495" y2="146" xlink:href="#linear-gradient-19"/></defs><title>line4</title><path class="cls-1" d="M0,244.8A367.78,367.78,0,0,0,15,288h1A364.08,364.08,0,0,1,0,241.5Z"/><path class="cls-2" d="M15,0A375.76,375.76,0,0,0,0,43.3v3.3A365.51,365.51,0,0,1,16,0Z"/><path class="cls-3" d="M32.3,0h-1c-.6,1.4-1.3,2.8-1.9,4.3a360.13,360.13,0,0,0,0,279.4c.6,1.4,1.2,2.9,1.9,4.3h1a357.33,357.33,0,0,1,0-288Z"/><path class="cls-4" d="M48.7,0H47.6A342.26,342.26,0,0,0,16.2,144,342.26,342.26,0,0,0,47.6,288h1.1a342.92,342.92,0,0,1,0-288Z"/><path class="cls-5" d="M65.2,0H64.1a330.68,330.68,0,0,0,0,288h1.1a328,328,0,0,1,0-288Z"/><path class="cls-6" d="M81.9,0H80.8a315.33,315.33,0,0,0,0,288h1.1a312.93,312.93,0,0,1,0-288Z"/><path class="cls-7" d="M98.9,0H97.8A296.55,296.55,0,0,0,61,144,297.66,297.66,0,0,0,97.8,288h1.1a298,298,0,0,1,0-288Z"/><path class="cls-8" d="M116.1,0h-1.2a285.35,285.35,0,0,0,0,288h1.2a282.85,282.85,0,0,1,0-288Z"/><path class="cls-9" d="M133.6,0h-1.2a270,270,0,0,0,0,288h1.2a267.86,267.86,0,0,1,0-288Z"/><path class="cls-10" d="M151.5,0h-1.2a252.34,252.34,0,0,0-44.6,144,252.34,252.34,0,0,0,44.6,144h1.2a252.9,252.9,0,0,1,0-288Z"/><path class="cls-11" d="M170,0h-1.2a239.6,239.6,0,0,0,0,288H170A238,238,0,0,1,170,0Z"/><path class="cls-12" d="M189.1,0h-1.2a224.72,224.72,0,0,0,0,288h1.2a223.09,223.09,0,0,1,0-288Z"/><path class="cls-13" d="M209.1,0h-1.3a209.59,209.59,0,0,0,0,288h1.3a208.28,208.28,0,0,1,0-288Z"/><path class="cls-14" d="M166.3,144A193.11,193.11,0,0,1,230.6,0h-1.4c-2.3,2.1-4.5,4.2-6.7,6.4a194.71,194.71,0,0,0-.1,275.2c2.2,2.2,4.5,4.3,6.7,6.4h1.4A193.38,193.38,0,0,1,166.3,144Z"/><path class="cls-15" d="M181.2,144A178.66,178.66,0,0,1,254.1,0h-1.5A174.23,174.23,0,0,0,233,17a179.62,179.62,0,0,0,0,254,185,185,0,0,0,19.6,17h1.5A178.66,178.66,0,0,1,181.2,144Z"/><path class="cls-16" d="M196.1,144A164,164,0,0,1,281.8,0H280a164.77,164.77,0,0,0-36.4,260.4A166.48,166.48,0,0,0,280,288h1.8A164,164,0,0,1,196.1,144Z"/><path class="cls-17" d="M211.1,144C211.1,75,258.2,16.9,322,0h-3.1a149.77,149.77,0,0,0-.1,288h3.1C258.2,271.1,211.1,213,211.1,144Z"/><path class="cls-18" d="M225.2,144c0,74.3,60.5,134.8,134.8,134.8V278a134,134,0,0,1,0-268V9.2C285.7,9.2,225.2,69.7,225.2,144Z"/><path class="cls-19" d="M720.2,244.8a367.78,367.78,0,0,1-15,43.2h-1a364.08,364.08,0,0,0,16-46.5Z"/><path class="cls-20" d="M705.2,0a375.76,375.76,0,0,1,15,43.3v3.3A369.49,369.49,0,0,0,704.2.1Z"/><path class="cls-21" d="M687.9,0h1c.6,1.4,1.3,2.8,1.9,4.3a360.13,360.13,0,0,1,0,279.4c-.6,1.4-1.2,2.9-1.9,4.3h-1a357.33,357.33,0,0,0,0-288Z"/><path class="cls-22" d="M671.5,0h1.1A342.26,342.26,0,0,1,704,144a342.26,342.26,0,0,1-31.4,144h-1.1a342.92,342.92,0,0,0,0-288Z"/><path class="cls-23" d="M655,0h1.1a330.68,330.68,0,0,1,0,288H655A328,328,0,0,0,655,0Z"/><path class="cls-24" d="M638.3,0h1.1a315.33,315.33,0,0,1,0,288h-1.1a312.93,312.93,0,0,0,0-288Z"/><path class="cls-25" d="M621.3,0h1.1a300.14,300.14,0,0,1,0,288h-1.1a298,298,0,0,0,0-288Z"/><path class="cls-26" d="M604.1,0h1.2a285.35,285.35,0,0,1,0,288h-1.2a282.85,282.85,0,0,0,0-288Z"/><path class="cls-27" d="M586.6,0h1.2a270,270,0,0,1,0,288h-1.2a267.86,267.86,0,0,0,0-288Z"/><path class="cls-28" d="M568.7,0h1.2a252.34,252.34,0,0,1,44.6,144,252.34,252.34,0,0,1-44.6,144h-1.2a252.9,252.9,0,0,0,0-288Z"/><path class="cls-29" d="M550.2,0h1.2a239.6,239.6,0,0,1,0,288h-1.2a238,238,0,0,0,0-288Z"/><path class="cls-30" d="M531.1,0h1.2a224.72,224.72,0,0,1,0,288h-1.2a223.09,223.09,0,0,0,0-288Z"/><path class="cls-31" d="M511.1,0h1.3a209.59,209.59,0,0,1,0,288h-1.3a208.28,208.28,0,0,0,0-288Z"/><path class="cls-32" d="M553.9,144A193.11,193.11,0,0,0,489.6,0H491c2.3,2.1,4.5,4.2,6.7,6.4a194.71,194.71,0,0,1,.1,275.2c-2.2,2.2-4.5,4.3-6.7,6.4h-1.4A193.38,193.38,0,0,0,553.9,144Z"/><path class="cls-33" d="M539,144A178.66,178.66,0,0,0,466.1,0h1.5a174.23,174.23,0,0,1,19.6,17,179.62,179.62,0,0,1,0,254,185,185,0,0,1-19.6,17h-1.5A178.66,178.66,0,0,0,539,144Z"/><path class="cls-34" d="M524.1,144A164,164,0,0,0,438.4,0h1.8a164.77,164.77,0,0,1,36.4,260.4A166.48,166.48,0,0,1,440.2,288h-1.8A164,164,0,0,0,524.1,144Z"/><path class="cls-35" d="M509.1,144C509.1,75,462,16.9,398.2,0h3.1a149.79,149.79,0,0,1,0,288h-3.1C462,271.1,509.1,213,509.1,144Z"/><path class="cls-36" d="M495,144c0,74.3-60.5,134.8-134.8,134.8V278a134,134,0,0,0,0-268V9.2C434.5,9.2,495,69.7,495,144Z"/></svg>