<svg id="Layer_1" data-name="Layer 1" xmlns="http://www.w3.org/2000/svg" xmlns:xlink="http://www.w3.org/1999/xlink" viewBox="0 0 1080.16 1103.02"><defs><style>.cls-1{fill:#f3f8ff;}.cls-2{fill:#fffaf8;}.cls-3{fill:#e6efff;}.cls-4{fill:#d9e8ff;}.cls-5{fill:#f3f9ff;}.cls-6{fill:#fff;}.cls-7{fill:#d7e6ff;}.cls-8{fill:#86b4ff;}.cls-9{fill:#000036;}.cls-10{fill:#ffdad7;}.cls-11{fill:#5f94ff;}.cls-12{fill:#3a76ef;}.cls-13{fill:#b6d4ff;}.cls-14{fill:#f9c5ce;}.cls-15{fill:#c7e5ff;}.cls-16{fill:#84b2ff;}.cls-17{fill:url(#Yellow);}.cls-18{fill:url(#Yellow-2);}.cls-19{fill:url(#Yellow-3);}.cls-20{fill:url(#Yellow-4);}.cls-21{fill:#3170ff;}.cls-22{fill:url(#Yellow-5);}.cls-23{fill:#f9d015;}.cls-24{fill:url(#Yellow-6);}.cls-25{fill:#2f7af4;}.cls-26{fill:#61a1ff;}</style><linearGradient id="Yellow" x1="574.05" y1="754.89" x2="606.88" y2="754.89" gradientUnits="userSpaceOnUse"><stop offset="0" stop-color="#fbb03b"/><stop offset="1" stop-color="#f9d015"/></linearGradient><linearGradient id="Yellow-2" x1="574.05" y1="795.91" x2="606.88" y2="795.91" xlink:href="#Yellow"/><linearGradient id="Yellow-3" x1="574.05" y1="836.93" x2="606.88" y2="836.93" xlink:href="#Yellow"/><linearGradient id="Yellow-4" x1="574.05" y1="877.94" x2="606.88" y2="877.94" xlink:href="#Yellow"/><linearGradient id="Yellow-5" x1="832.9" y1="-22.7" x2="858.27" y2="-22.7" gradientTransform="matrix(0.91, -0.41, 0.41, 0.91, -341.06, 1227.02)" xlink:href="#Yellow"/><linearGradient id="Yellow-6" x1="415.67" y1="725.87" x2="473.76" y2="725.87" xlink:href="#Yellow"/></defs><title>lp-backlink-bg</title><path class="cls-1" d="M1080.08,313.91V165.36c-47.25-35.92-100.47-67.29-159-77.3a11.42,11.42,0,0,1-2,4c-28,34.71-118.12-37.84-163.8-43.2-51.2-6-115.65-3.6-133.2,49.72-16.35,49.67-14.17,84.24-7.07,102.6,40.33,104.42,157.94-40,249.39,91.13,70.77,101.47,172.5,37.92,206.62,32.86A71.65,71.65,0,0,0,1080.08,313.91Z" transform="translate(0.08 11.51)"/><path class="cls-1" d="M329.37,443.9c-26-31.34,5.4-72.35-32-93.21-35.11-19.59-95.87,32.36-129.07,25.58-30-6.12-26.08-75.15-54.65-85.24-41.23-14.57-76.28,10.46-112.6-12.7V525.2c44.79,19.64,87.57-45.09,186.08-11.13,11.46,3.95,42.87,34,83.28,32.7,23.25-.77,46.53-22,56.33-32.29,8.37-8.75,88.37,12.89,88.37-13C415.14,480.79,343.64,461.11,329.37,443.9Z" transform="translate(0.08 11.51)"/><path class="cls-1" d="M819.35-11.51A15.51,15.51,0,1,0,834.86,4,15.5,15.5,0,0,0,819.35-11.51Z" transform="translate(0.08 11.51)"/><path class="cls-2" d="M762.88,310.46a15.51,15.51,0,0,0-12,28.59c7.89,3.31,24.51,3.45,27.83-4.45S770.77,313.78,762.88,310.46Z" transform="translate(0.08 11.51)"/><path class="cls-1" d="M884.88,374.77a19.42,19.42,0,1,0,19.42,19.42A19.42,19.42,0,0,0,884.88,374.77Z" transform="translate(0.08 11.51)"/><path class="cls-3" d="M994,664.29q-22.39-31.92-47.71-61.78c-4.29-5.07-11.58-2.59-14.85,1.92q-19.63,27.06-39.31,54.14-8.75,12.06-17.49,24.11c-4.62,6.34-9.21,12.69-13.83,19-5.48,7.51-6.77,12-15.68,6-12-8.13-21.87-19.23-30.46-30.79-29.32-39.41-54.75-82.21-77.81-125.73-4.67-8.75-9.21-17.55-13.67-26.33-11.74-23.14-23.89-46.2-39.9-66.74-6.62-8.51-15.36-21.87-25.73-26-10.15-4.05-15.69,4.73-21,12-22.27,30.62-44.55,61.42-64.83,93.45-11.25,17.79-21.92,35.94-31.64,54.65V952.08h540V818.27A859.66,859.66,0,0,0,994,664.29Z" transform="translate(0.08 11.51)"/><path class="cls-4" d="M723.19,524.86c-11.74-23.14-23.89-46.2-39.9-66.74-6.62-8.51-15.36-21.87-25.73-26-10.15-4.05-15.69,4.73-21,12-22.27,30.62-44.55,61.42-64.83,93.45q1,14.25,3.35,28.48c1.14,7.05,11.29,9,15.8,4.16a35.53,35.53,0,0,0,7-11.07q9.12,31.19,15.53,63.13c1.78,9,16.47,9,18.22,0,4-20.66,2.78-42.72,5.24-63.83,3.83,11.37,9.29,21.73,18.66,27.4,4.8,2.92,12.85.44,13.87-5.64l2.41-14.12q6.51,14.94,13,29.86c3.41,7.83,15.23,4.92,17.28-2.24l11.37-39.53c8.16,5.16,19.06,7.94,23.44-3C732.19,542.44,727.65,533.64,723.19,524.86Z" transform="translate(0.08 11.51)"/><path class="cls-4" d="M989.47,665.64a10.53,10.53,0,0,0,4.53-1.35q-22.39-31.92-47.71-61.78c-4.29-5.07-11.58-2.59-14.85,1.92q-19.63,27.06-39.31,54.14a9.84,9.84,0,0,0,7.16,3.15q.45,9.69.86,19.36c.41,8.72,9.51,11.5,15.85,6.89q5.5,15.94,11,31.91c1.94,5.62,8.4,9,13.88,5.64a20.86,20.86,0,0,0,10.18-13.85,12.6,12.6,0,0,0,.27-1.78c.13.33.3.62.43,1,3.46,8.1,15,4.59,17.28-2.26q2.6-7.74,5.16-15.48c6.29,3.89,14.12.17,14.74-7.66a41.2,41.2,0,0,0-1-12.21,8.55,8.55,0,0,0,1.7-5.51C989.55,667,989.49,666.34,989.47,665.64Z" transform="translate(0.08 11.51)"/><path class="cls-4" d="M857.71,706.11s-51,88.18-63.55,94,11.36-21.15,14.45-28.61-9.69-12.1-15.89-11.58,52.41-52.18,52.41-52.18S849.25,710.75,857.71,706.11Z" transform="translate(0.08 11.51)"/><path class="cls-3" d="M87.16,664.81q22.4-31.92,47.71-61.78c4.29-5.07,11.58-2.59,14.85,1.92Q169.36,632,189,659.09q8.75,12.06,17.49,24.11c4.62,6.34,9.21,12.69,13.83,19,5.48,7.51,6.77,12,15.68,6,12-8.13,21.87-19.23,30.46-30.78,29.32-39.42,54.75-82.22,77.81-125.74C349,543,353.51,534.16,358,525.38c11.74-23.14,23.89-46.19,39.9-66.74,6.62-8.51,15.36-21.87,25.73-26,10.15-4.05,15.69,4.73,21,12,22.27,30.62,44.55,61.43,64.83,93.45,11.25,17.79,21.92,35.94,31.64,54.65V952.6H1.08V818.79A859.66,859.66,0,0,1,87.16,664.81Z" transform="translate(0.08 11.51)"/><path class="cls-4" d="M358,525.38c11.74-23.14,23.89-46.19,39.9-66.74,6.62-8.51,15.36-21.87,25.73-26,10.15-4.05,15.69,4.73,21,12,22.27,30.62,44.55,61.43,64.83,93.45q-1,14.25-3.35,28.48c-1.14,7-11.29,9-15.8,4.16a35.53,35.53,0,0,1-7-11.07q-9.1,31.19-15.52,63.13c-1.79,9-16.48,9-18.23,0-4-20.66-2.78-42.72-5.24-63.83-3.83,11.37-9.29,21.74-18.66,27.4-4.8,2.92-12.85.44-13.87-5.64l-2.41-14.12q-6.51,14.94-13,29.86c-3.41,7.83-15.23,4.92-17.28-2.24l-11.37-39.52c-8.15,5.15-19.06,7.93-23.44-3C349,543,353.51,534.16,358,525.38Z" transform="translate(0.08 11.51)"/><path class="cls-4" d="M91.69,666.16a10.53,10.53,0,0,1-4.53-1.35q22.4-31.92,47.71-61.78c4.29-5.07,11.58-2.59,14.85,1.92Q169.36,632,189,659.09a9.89,9.89,0,0,1-7.16,3.16c-.29,6.45-.59,12.9-.86,19.36-.41,8.71-9.51,11.5-15.85,6.88q-5.5,16-11,31.91c-1.94,5.62-8.4,9-13.88,5.65a20.94,20.94,0,0,1-10.18-13.85,12.75,12.75,0,0,1-.27-1.79c-.13.33-.3.62-.43,1-3.46,8.1-15,4.58-17.28-2.27q-2.59-7.74-5.16-15.47c-6.29,3.88-14.12.16-14.74-7.67a41.56,41.56,0,0,1,1-12.21,8.54,8.54,0,0,1-1.7-5.5C91.61,667.56,91.67,666.86,91.69,666.16Z" transform="translate(0.08 11.51)"/><path class="cls-4" d="M223.45,706.63s50.95,88.18,63.55,94S275.65,779.45,272.55,772s9.69-12.1,15.89-11.58S236,708.23,236,708.23,231.91,711.28,223.45,706.63Z" transform="translate(0.08 11.51)"/><path class="cls-5" d="M1026.46,813c-9.29,2-54.56,22.91-70.61,35.44-18,14-32.61.73-55.05,3.3-10.5,1.22-18,25.77-33,29.48-14.55-.67-28.79-18.87-35.38-18.9-21.36-.08-30.46,11.29-50.3,16.69-23,6.26-33.67-14.23-54-19.44-39.1-10-56.73,29.81-81.09,52.35-13.36,3.65-26.75,7.05-40.74,9.18-4.86.73-9.69,1.51-14.47,2.43-9.34-2-18.68-4.32-27.7-4.86-7.91-.48-17.23,1.14-24.06,5.62v37c22.25,16.26,76,12,93.12,12.18,25.11.22,50.25-.06,75.28-2.11s49-5.4,73.68.57c23.28,5.62,44.93,10.67,69,11,23.73.35,47.58-.27,71.31-.54,50.43-.54,102.36-3.11,149.44-23,2.81-1.19,5.54-2.46,8.13-3.83V814.79A109.22,109.22,0,0,0,1026.46,813Z" transform="translate(0.08 11.51)"/><path class="cls-4" d="M1078.19,846.54c-16.9,3.46-33.88,7.16-49.44,14.91-8.8,4.4-16.33,11.9-25.86,14.74s-20.06.89-29.84,1.08c-34.75.67-61.53,22.41-93.66,32.07C853,917.28,804,906.16,789.1,936.72c-13.5,27.7,35,17.13,68.47,17.32,38.67-1.19,101-5.43,110.73,4.32,12.61,12.59,9.91,72.19,28.81,83s51.89-11.83,60.13-11.32,22.84,17.61,22.84,17.61V846.35A9.32,9.32,0,0,0,1078.19,846.54Z" transform="translate(0.08 11.51)"/><path class="cls-4" d="M731.45,595.06s27.86-10.78,52.86,5.41c0,0,22.3-19.36,52-11.26,0,0-41.9,9-52,22.95C784.31,612.16,768.36,594.16,731.45,595.06Z" transform="translate(0.08 11.51)"/><path class="cls-4" d="M909.23,497.07s27.85-10.78,52.85,5.41c0,0,22.3-19.36,52-11.26,0,0-41.9,9-52,22.95C962.08,514.17,946.13,496.17,909.23,497.07Z" transform="translate(0.08 11.51)"/><rect class="cls-6" y="963.62" width="541.16" height="139.4"/><path class="cls-7" d="M541.08,932S474.29,926.45,393,982.71c-29.91,20.7-44.7,42.63-122.57,39.09s-104.94,30.85-121.18,36.61-58.19,3.76-66.31,33.1H541.08Z" transform="translate(0.08 11.51)"/><path class="cls-3" d="M22.37,1012.29c1.95-1.08,6.21.2,6.66.07,5.9-1.72-.64-6.64-2.14-8-4.11-3.81-8.4-7.1-9.88-12.76-1.08-4.14-.83-10.82,2.5-14.05,2.84-2.76,4.64-.59,7.51.63,1.78.75,5.51,4.77,4.53-3.39-.19-1.63-3.11-4.8-4.05-6.37a31.54,31.54,0,0,1-4.12-9.73c-1.85-8.92,3.75-21.52,14.78-18.8,4.73,1.16,9,6,12,9.58a25.19,25.19,0,0,1,5,8.22c.88,2.63.39,9.43.39,9.43q3.2,6.35,5.57,2.71c.68-.25.86-.76,1.81-1a5.81,5.81,0,0,1,3.87.4c4.9,2.2,4.24,8.42,3.25,12.67-.87,3.71-2.9,6.84-4.08,10.38-.21.62-3.23,4-.14,4.49-.06,0,1.48-2.85,1.64-3A7.7,7.7,0,0,1,78,993c9.28,7.38.34,25.14-8.09,33.58-8.24,8.23-20.26,12-27.89,12.25-10,.35-22.2-5.2-23.75-16.2C17.74,1019,18.85,1014.25,22.37,1012.29Z" transform="translate(0.08 11.51)"/><path class="cls-3" d="M64.56,1051.07c.31-2.81,2.45-5.53,3.8-7.91l1.35-2.37c.07-.22.17-.44.24-.67.74-2.49.87-5.37,2.59-7.46a5.2,5.2,0,0,1,4.15-2.06,4.54,4.54,0,0,1,2.13.65c1,.63,1.68,1.78,3.45,1.06s2.78-2,4.18-4.29c2.11-3.48,6.16-5.52,10-3.09s3.46,7.38,2.13,11.17a19.33,19.33,0,0,1-3.36,5.9,19.74,19.74,0,0,1-2.92,2.86c-1.13.9-3.39,2.08-1.51,2.89,1.08.47,2.1-.18,3.29.72a5.55,5.55,0,0,1,2,4.07c.18,3.82-3.52,6.26-6.58,7.67-4.7,2.18-10.83,4.21-16.06,3C68.41,1062.09,64,1056.3,64.56,1051.07Z" transform="translate(0.08 11.51)"/><path class="cls-8" d="M27.21,988.37a1.28,1.28,0,0,0,.3.26c5.79,3.26,13.82,2.68,20.25,1.74a260.67,260.67,0,0,1,6.09,35.12c.12,1.26.19,2.51.28,3.77-7.53-.74-18.11-3.67-23.51-9.15-.91-.92-2.33.5-1.43,1.42,5.93,6,16.91,9,25.06,9.73.28,4.93.34,9.89.28,14.82-.26,5.94-.94,11.83-1.75,17.72a161.47,161.47,0,0,1-7.93,27.71H53.1v0c.63-5.77,1.25-11.57,1.79-17.38,7.55-3.86,12.93-9.95,17.76-16.64a22.39,22.39,0,0,0,16.5-3.72c1.06-.73.06-2.47-1-1.73a20.49,20.49,0,0,1-14.22,3.63c3.29-4.73,6.37-9.65,9.77-14.26a22,22,0,0,0,9.22-2.14c1.16-.54.14-2.26-1-1.72a19.61,19.61,0,0,1-6.57,1.76c.88-1.12,1.74-2.26,2.68-3.33s-.56-2.38-1.42-1.4a101.08,101.08,0,0,0-7.69,10.25,17.8,17.8,0,0,1-1.28-8.67c.12-1.28-1.89-1.26-2,0a19.66,19.66,0,0,0,2,10.64c-6.33,9.53-12.44,19.34-22.49,25,.76-8.57,1.32-17.18,1.44-25.77a103.15,103.15,0,0,0-.06-10.84.85.85,0,0,0-.08-.24c-.14-3.78-.34-7.56-.72-11.31-.12-1.18-.28-2.34-.42-3.52a.8.8,0,0,0,.32-.12,41.67,41.67,0,0,0,16.22-18c.56-1.15-1.16-2.17-1.72-1a39.78,39.78,0,0,1-15.08,17c-.82-6.26-1.94-12.51-3.25-18.72C55,997.16,57.45,995,59,991.35c.4-1,.76-2,1.08-3,1-3.22,1.69-6.61,2.55-9.83a1,1,0,0,0-1.95-.54c-.9,3.44-1.68,6.94-2.74,10.33,0,0,0,0,0,0a15.14,15.14,0,0,1-6.57,8.75c-.62-2.92-1.3-5.83-2-8.75-1.6-6.81-3.32-13.6-5-20.38a.9.9,0,0,0,.7-.45,23.61,23.61,0,0,0,3.53-11.81,1,1,0,0,0-2,0,21.71,21.71,0,0,1-2.79,9.95c-.72-2.94-1.44-5.88-2.12-8.81-.3-1.24-2.22-.72-1.94.54,2.4,10.27,5.11,20.57,7.57,31,0,0,0,.06,0,.08-4.59.66-10.27,1.16-15.06-.08a15,15,0,0,1-3.73-1.48A1,1,0,0,0,27.21,988.37Z" transform="translate(0.08 11.51)"/><path class="cls-9" d="M791.43,942.26a27.11,27.11,0,0,0,8.84,1.15l-.11,7.32a29.91,29.91,0,0,1-6.39.09l-1-1.89-2.08,2s-12.19,1.34-18.49.9c0,0-.73-2.14,2.27-3.11s9.82-2.32,11.75-3.39S791.43,942.26,791.43,942.26Z" transform="translate(0.08 11.51)"/><path class="cls-10" d="M800.7,931.39l-.34,9.22-.1,2.81a10.66,10.66,0,0,1-8.83-1.15l-.09-3-.21-7.73Z" transform="translate(0.08 11.51)"/><path class="cls-9" d="M756,943.32a27.21,27.21,0,0,0,8.85,1.15l-.11,7.32a29.91,29.91,0,0,1-6.39.09l-1-1.89-2.08,2s-12.19,1.34-18.49.9c0,0-.73-2.14,2.27-3.11s9.82-2.32,11.75-3.39S756,943.32,756,943.32Z" transform="translate(0.08 11.51)"/><path class="cls-10" d="M765.32,932.44l-.34,9.2-.1,2.85a10.78,10.78,0,0,1-8.85-1.15l-.09-3.31-.21-7.41Z" transform="translate(0.08 11.51)"/><path class="cls-11" d="M799.28,781.63c-1.86-8.12-33.78-3.25-33.78-3.25s.07,1.7.21,4.52c-5-2-11.65-2.45-20.58-.48,0,0-2.27,28.26-2.27,62.11,0,10.63.42,27.39,1.71,41.76a358.25,358.25,0,0,0,8.65,50.65l15.32-.1A363.84,363.84,0,0,1,767,886.13c.61-14.09,3.4-36.5,4.49-47.62,1.86,12,2,33.87,4.67,48.46,4.7,26,11.81,50,11.81,50l14.7-.08c-1.66-17.4-2.7-35.25-2.25-50.27C801.72,841.59,805.9,810.66,799.28,781.63Z" transform="translate(0.08 11.51)"/><path class="cls-12" d="M771.44,838.51s-2.61-13.18-3.62-22.81c0,0-1.64,22.87,2.44,34Z" transform="translate(0.08 11.51)"/><path class="cls-12" d="M790.34,791.33s1.19,8.11,8.94,8.58a97.15,97.15,0,0,1,0,10.29c-.32,4.74-11.51,3.83-12.1,1.91-2.13-6.91-1.54-20.78-1.54-20.78Z" transform="translate(0.08 11.51)"/><path class="cls-13" d="M746.76,706.75c7.25-5.87,22.68-.45,16.44,13.73s-42.58,26.36-49.32,28.66-42.42-4.25-47.85-6.22l2.48-9,41.26,2.93S738.92,713.11,746.76,706.75Z" transform="translate(0.08 11.51)"/><path class="cls-6" d="M764.65,694.37s17.87,4.09,27.62,35,11.34,65,11.34,65S770,800.78,743,788.21c0,0-1.46-55.28,2-78.75C746.48,699.17,764.65,694.37,764.65,694.37Z" transform="translate(0.08 11.51)"/><path class="cls-10" d="M730.12,678.07c.06.5.17,1.32.3,2.21a7.84,7.84,0,0,1-1.41,5.27.68.68,0,0,0-.1.56c.14.43,1.05.83,2,1.13a4.47,4.47,0,0,1,2.87,3c.84,2.76,2.38,7,4,7,2.4.12,9.3-1.32,9.3-1.32l3.48,5.23s3.54,4.44,15.77-6.22c.58-.51-3.94-9-3.94-9s3.16-14.41-6.73-20.63S728.71,666.14,730.12,678.07Z" transform="translate(0.08 11.51)"/><path class="cls-14" d="M729.53,672.71s.28,3.14.59,5.36c0,0,13.28-2.21,16.23-4.31s7.29-4.81,9.38-2l-1.19-6.07-6.42-1.1L735,669.79Z" transform="translate(0.08 11.51)"/><path class="cls-6" d="M555.75,746.79H721.59a3.28,3.28,0,0,1,3.28,3.28V954.35a9.54,9.54,0,0,1-9.54,9.54H555.38a2.92,2.92,0,0,1-2.92-2.92V750.07A3.28,3.28,0,0,1,555.75,746.79Z"/><path class="cls-11" d="M560.76,736.58H716.41a7.08,7.08,0,0,1,7.08,7.07V928.1a23,23,0,0,1-23,23H564.21a10.53,10.53,0,0,1-10.52-10.52V743.65a7.08,7.08,0,0,1,7.07-7.07Zm0-1.3a8.37,8.37,0,0,0-8.37,8.37v196.9a11.82,11.82,0,0,0,11.82,11.82H700.52a24.27,24.27,0,0,0,24.27-24.27V743.65a8.38,8.38,0,0,0-8.38-8.37Z" transform="translate(0.08 11.51)"/><path class="cls-6" d="M673.11,929h0a23.31,23.31,0,0,1,17.51-22.57v-.76H558.74A23.33,23.33,0,0,0,535.41,929h0a23.33,23.33,0,0,0,23.33,23.33H690.62C680.55,949.78,673.11,939.91,673.11,929Z" transform="translate(0.08 11.51)"/><path class="cls-11" d="M558.74,907H685.46a24.6,24.6,0,0,0-13.66,22,25.85,25.85,0,0,0,12.37,22H558.74a22,22,0,1,1,0-44.06Zm0-1.3A23.33,23.33,0,0,0,535.41,929h0a23.33,23.33,0,0,0,23.33,23.33H690.62c-10.07-2.59-17.51-12.46-17.51-23.33h0a23.31,23.31,0,0,1,17.51-22.57v-.76Z" transform="translate(0.08 11.51)"/><path class="cls-15" d="M623.31,750.6h80.12a2,2,0,0,0,2.1-1.92h0a2,2,0,0,0-2.1-1.93H623.31a2,2,0,0,0-2.1,1.93h0A2,2,0,0,0,623.31,750.6Z" transform="translate(0.08 11.51)"/><path class="cls-15" d="M644.33,758.49h59.1a2,2,0,0,0,2.1-1.93h0a2,2,0,0,0-2.1-1.92h-59.1a2,2,0,0,0-2.1,1.92h0A2,2,0,0,0,644.33,758.49Z" transform="translate(0.08 11.51)"/><path class="cls-15" d="M623.31,758.49h12.61a2,2,0,0,0,2.1-1.93h0a2,2,0,0,0-2.1-1.92H623.31a2,2,0,0,0-2.1,1.92h0A2,2,0,0,0,623.31,758.49Z" transform="translate(0.08 11.51)"/><path class="cls-15" d="M623.31,766.38h80.12a2,2,0,0,0,2.1-1.93h0a2,2,0,0,0-2.1-1.92H623.31a2,2,0,0,0-2.1,1.92h0A2,2,0,0,0,623.31,766.38Z" transform="translate(0.08 11.51)"/><path class="cls-15" d="M623.31,774.26h29.14a2,2,0,0,0,2.11-1.92h0a2,2,0,0,0-2.11-1.93H623.31a2,2,0,0,0-2.1,1.93h0A2,2,0,0,0,623.31,774.26Z" transform="translate(0.08 11.51)"/><path class="cls-15" d="M661.14,774.26h42.15a2,2,0,0,0,2.1-1.92h0a2,2,0,0,0-2.1-1.93H661.14a2,2,0,0,0-2.1,1.93h0A2,2,0,0,0,661.14,774.26Z" transform="translate(0.08 11.51)"/><path class="cls-16" d="M596.15,749.53a.35.35,0,0,1,.35.35v21.19a.35.35,0,0,1-.35.35H575a.34.34,0,0,1-.34-.35V749.88a.35.35,0,0,1,.34-.35Zm0-3H575a3.31,3.31,0,0,0-3.31,3.31v21.19a3.32,3.32,0,0,0,3.31,3.32h21.2a3.32,3.32,0,0,0,3.31-3.32V749.88a3.31,3.31,0,0,0-3.31-3.31Z" transform="translate(0.08 11.51)"/><path class="cls-17" d="M585.54,765.44l-10.71-9.11a2.22,2.22,0,1,1,2.89-3.38l7.84,6.67,17.67-14.76a2.22,2.22,0,0,1,2.85,3.41Z" transform="translate(0.08 11.51)"/><path class="cls-15" d="M623.31,791.62h80.12a2,2,0,0,0,2.1-1.93h0a2,2,0,0,0-2.1-1.92H623.31a2,2,0,0,0-2.1,1.92h0A2,2,0,0,0,623.31,791.62Z" transform="translate(0.08 11.51)"/><path class="cls-15" d="M644.33,799.51h59.1a2,2,0,0,0,2.1-1.93h0a2,2,0,0,0-2.1-1.92h-59.1a2,2,0,0,0-2.1,1.92h0A2,2,0,0,0,644.33,799.51Z" transform="translate(0.08 11.51)"/><path class="cls-15" d="M623.31,799.51h12.61a2,2,0,0,0,2.1-1.93h0a2,2,0,0,0-2.1-1.92H623.31a2,2,0,0,0-2.1,1.92h0A2,2,0,0,0,623.31,799.51Z" transform="translate(0.08 11.51)"/><path class="cls-15" d="M623.31,807.39h80.12a2,2,0,0,0,2.1-1.92h0a2,2,0,0,0-2.1-1.92H623.31a2,2,0,0,0-2.1,1.92h0A2,2,0,0,0,623.31,807.39Z" transform="translate(0.08 11.51)"/><path class="cls-15" d="M623.31,815.28h29.14a2,2,0,0,0,2.11-1.92h0a2,2,0,0,0-2.11-1.93H623.31a2,2,0,0,0-2.1,1.93h0A2,2,0,0,0,623.31,815.28Z" transform="translate(0.08 11.51)"/><path class="cls-15" d="M661.14,815.28h42.15a2,2,0,0,0,2.1-1.92h0a2,2,0,0,0-2.1-1.93H661.14a2,2,0,0,0-2.1,1.93h0A2,2,0,0,0,661.14,815.28Z" transform="translate(0.08 11.51)"/><path class="cls-16" d="M596.15,790.55a.35.35,0,0,1,.35.35v21.19a.35.35,0,0,1-.35.35H575a.35.35,0,0,1-.34-.35V790.9a.35.35,0,0,1,.34-.35Zm0-3H575a3.31,3.31,0,0,0-3.31,3.31v21.19a3.32,3.32,0,0,0,3.31,3.32h21.2a3.32,3.32,0,0,0,3.31-3.32V790.9a3.31,3.31,0,0,0-3.31-3.31Z" transform="translate(0.08 11.51)"/><path class="cls-18" d="M585.54,806.46l-10.71-9.11a2.23,2.23,0,0,1,2.89-3.39l7.84,6.67,17.67-14.75a2.22,2.22,0,0,1,2.85,3.41Z" transform="translate(0.08 11.51)"/><path class="cls-15" d="M623.31,832.64h80.12a2,2,0,0,0,2.1-1.93h0a2,2,0,0,0-2.1-1.92H623.31a2,2,0,0,0-2.1,1.92h0A2,2,0,0,0,623.31,832.64Z" transform="translate(0.08 11.51)"/><path class="cls-15" d="M644.33,840.52h59.1a2,2,0,0,0,2.1-1.92h0a2,2,0,0,0-2.1-1.92h-59.1a2,2,0,0,0-2.1,1.92h0A2,2,0,0,0,644.33,840.52Z" transform="translate(0.08 11.51)"/><path class="cls-15" d="M623.31,840.52h12.61a2,2,0,0,0,2.1-1.92h0a2,2,0,0,0-2.1-1.92H623.31a2,2,0,0,0-2.1,1.92h0A2,2,0,0,0,623.31,840.52Z" transform="translate(0.08 11.51)"/><path class="cls-15" d="M623.31,848.41h80.12a2,2,0,0,0,2.1-1.92h0a2,2,0,0,0-2.1-1.93H623.31a2,2,0,0,0-2.1,1.93h0A2,2,0,0,0,623.31,848.41Z" transform="translate(0.08 11.51)"/><path class="cls-15" d="M623.31,856.3h29.14a2,2,0,0,0,2.11-1.93h0a2,2,0,0,0-2.11-1.92H623.31a2,2,0,0,0-2.1,1.92h0A2,2,0,0,0,623.31,856.3Z" transform="translate(0.08 11.51)"/><path class="cls-15" d="M661.14,856.3h42.15a2,2,0,0,0,2.1-1.93h0a2,2,0,0,0-2.1-1.92H661.14a2,2,0,0,0-2.1,1.92h0A2,2,0,0,0,661.14,856.3Z" transform="translate(0.08 11.51)"/><path class="cls-16" d="M596.15,831.57a.35.35,0,0,1,.35.34v21.2a.35.35,0,0,1-.35.34H575a.34.34,0,0,1-.34-.34v-21.2a.34.34,0,0,1,.34-.34Zm0-3H575a3.31,3.31,0,0,0-3.31,3.31v21.2a3.31,3.31,0,0,0,3.31,3.31h21.2a3.31,3.31,0,0,0,3.31-3.31v-21.2a3.31,3.31,0,0,0-3.31-3.31Z" transform="translate(0.08 11.51)"/><path class="cls-19" d="M585.54,847.48l-10.71-9.11a2.23,2.23,0,0,1,2.89-3.39l7.84,6.67,17.67-14.75a2.22,2.22,0,0,1,2.85,3.41Z" transform="translate(0.08 11.51)"/><path class="cls-15" d="M623.31,873.65h80.12a2,2,0,0,0,2.1-1.92h0a2,2,0,0,0-2.1-1.92H623.31a2,2,0,0,0-2.1,1.92h0A2,2,0,0,0,623.31,873.65Z" transform="translate(0.08 11.51)"/><path class="cls-15" d="M644.33,881.54h59.1a2,2,0,0,0,2.1-1.92h0a2,2,0,0,0-2.1-1.92h-59.1a2,2,0,0,0-2.1,1.92h0A2,2,0,0,0,644.33,881.54Z" transform="translate(0.08 11.51)"/><path class="cls-15" d="M623.31,881.54h12.61a2,2,0,0,0,2.1-1.92h0a2,2,0,0,0-2.1-1.92H623.31a2,2,0,0,0-2.1,1.92h0A2,2,0,0,0,623.31,881.54Z" transform="translate(0.08 11.51)"/><path class="cls-15" d="M623.31,889.43h80.12a2,2,0,0,0,2.1-1.93h0a2,2,0,0,0-2.1-1.92H623.31a2,2,0,0,0-2.1,1.92h0A2,2,0,0,0,623.31,889.43Z" transform="translate(0.08 11.51)"/><path class="cls-15" d="M623.31,897.31h29.14a2,2,0,0,0,2.11-1.92h0a2,2,0,0,0-2.11-1.92H623.31a2,2,0,0,0-2.1,1.92h0A2,2,0,0,0,623.31,897.31Z" transform="translate(0.08 11.51)"/><path class="cls-15" d="M661.14,897.31h42.15a2,2,0,0,0,2.1-1.92h0a2,2,0,0,0-2.1-1.92H661.14a2,2,0,0,0-2.1,1.92h0A2,2,0,0,0,661.14,897.31Z" transform="translate(0.08 11.51)"/><path class="cls-16" d="M596.15,872.59a.35.35,0,0,1,.35.34v21.2a.35.35,0,0,1-.35.34H575a.34.34,0,0,1-.34-.34v-21.2a.34.34,0,0,1,.34-.34Zm0-3H575a3.31,3.31,0,0,0-3.31,3.31v21.2a3.31,3.31,0,0,0,3.31,3.31h21.2a3.31,3.31,0,0,0,3.31-3.31v-21.2a3.31,3.31,0,0,0-3.31-3.31Z" transform="translate(0.08 11.51)"/><path class="cls-20" d="M585.54,888.49l-10.71-9.1a2.23,2.23,0,0,1,2.89-3.39l7.84,6.67,17.67-14.76a2.23,2.23,0,0,1,2.85,3.42Z" transform="translate(0.08 11.51)"/><path class="cls-9" d="M754.87,669.5c.79,1.17-.45,6.52.72,7,.55-1.58,1.91-3.41,3.58-1.89,2.33,2.12-.23,3.88-.52,6.87a42.48,42.48,0,0,1,3.71,4.38s3.77-15,2.8-22.8c-1.5-12.07-22.93-14.68-27.06-12.37l3.12,1.74s-15.9-1.64-18.68,10.21a14.38,14.38,0,0,0,2.46-.78s-6.09,6.22-3.61,12.75c0,0,4.15-2.42,7.59-1.08,3.09,1.19,15.58-2.77,19.53-5.46A4.65,4.65,0,0,1,754.87,669.5Z" transform="translate(0.08 11.51)"/><path class="cls-4" d="M777.48,719.4a25.3,25.3,0,0,1-3,19.24c-5.9,9.45-21.15,26.78-23.74,27.74s-7.93,2.29-7.93,2.29v-8.55Z" transform="translate(0.08 11.51)"/><path class="cls-10" d="M697.41,768.67l.12-7.48s-7.25.82-9.72.74a10.79,10.79,0,0,1-4.21-3.21c-2.36-3.51-4.15-6.2-7.71-7s-6.2,1.43-7.53,2.53c-1,.79-2.61,2.94-2.29,3.36s1.55.33,1.87.24c1.08-.3,1.6-1.4,2.64-1.84a14.19,14.19,0,0,1,3.12-.41,19.54,19.54,0,0,0-3.22,1.86,8.83,8.83,0,0,0-2.55,3.21,3.29,3.29,0,0,0-.26,2.71c.14.32,1-.22,1.3-1a8.69,8.69,0,0,1,1.63-2.46,4.74,4.74,0,0,0-.68,2.3c0,1.09.86,3.4,1.19,1.6a5.58,5.58,0,0,1,1.32-3,9,9,0,0,1,2.15-1.07c-.86.81-3.05,3.81-1.52,4.65.32.17.64-.65,1.08-1.22s2.39-2.22,4.82,1c3.95,5.26,7.46,3.95,7.46,3.95Z" transform="translate(0.08 11.51)"/><path class="cls-13" d="M757.9,714.92c5.58-7.48,21.86-6,19.31,9.24S749.83,761,743.87,764.87s-49.55,5.56-55.3,5l.19-9.34,46.9-6.65S751.86,723,757.9,714.92Z" transform="translate(0.08 11.51)"/><path class="cls-10" d="M655.18,731.79a4.09,4.09,0,0,0-2.45,3.32c-.46,2.68,3.4-1.46,3.4-1.46s-3.27,4-2.67,4.89,2.4.33,2.47,0,.37,1.64,1.05,1.78,2.08-1.13,2.08-1.13a1.65,1.65,0,0,0,1.67.48c.86-.38,4-4.28,4.33-4.47s.73,1.31.46,1.55-2.26.94-2.13,2.07,2.38-.11,3-.43c3.36-1.75,4.53-4.67,4.49-5.18C670.71,731.5,661,727.92,655.18,731.79Z" transform="translate(0.08 11.51)"/><path class="cls-14" d="M747.05,695.92a50.07,50.07,0,0,0,7.49-3.35s-4.24,4.43-5.92,5.71Z" transform="translate(0.08 11.51)"/><path class="cls-12" d="M770.88,843.82s-4,43-4.11,47.54,1.77,45.48,1.77,45.48h-3.22s-2.66-40.81-2.43-49.34,5-50.82,5-50.82Z" transform="translate(0.08 11.51)"/><rect class="cls-12" x="374.03" y="799.67" width="16.24" height="18.63" transform="translate(-413.99 412.42) rotate(-37.58)"/><path class="cls-11" d="M366.75,789a25,25,0,0,0-4.56,35l39.56-30.44A25,25,0,0,0,366.75,789Z" transform="translate(0.08 11.51)"/><rect class="cls-21" x="484.6" y="799.67" width="16.24" height="18.63" transform="translate(389.84 1762.1) rotate(-142.42)"/><path class="cls-11" d="M508.12,789a25,25,0,0,1,4.56,35l-39.56-30.44A25,25,0,0,1,508.12,789Z" transform="translate(0.08 11.51)"/><path class="cls-12" d="M379.59,952.16h0a8.69,8.69,0,0,1-3.45-11.38L387.89,917l18.05,10.43-14.77,22.08A8.69,8.69,0,0,1,379.59,952.16Z" transform="translate(0.08 11.51)"/><path class="cls-12" d="M495.62,952.16h0a8.69,8.69,0,0,0,3.45-11.38L487.31,917l-18,10.43L484,949.47A8.7,8.7,0,0,0,495.62,952.16Z" transform="translate(0.08 11.51)"/><path class="cls-11" d="M368.32,900.47A75.64,75.64,0,1,1,468.4,938.26,75.65,75.65,0,0,1,368.32,900.47Z" transform="translate(0.08 11.51)"/><path class="cls-6" d="M377.64,896.26a65.42,65.42,0,1,1,86.55,32.68A65.42,65.42,0,0,1,377.64,896.26Z" transform="translate(0.08 11.51)"/><path class="cls-4" d="M411,825a5.72,5.72,0,1,1,7.57,2.86A5.72,5.72,0,0,1,411,825Z" transform="translate(0.08 11.51)"/><path class="cls-4" d="M436.64,817.8a5.72,5.72,0,1,1,5.13,6.26A5.72,5.72,0,0,1,436.64,817.8Z" transform="translate(0.08 11.51)"/><path class="cls-4" d="M462.48,824.39a5.73,5.73,0,1,1,1.31,8A5.74,5.74,0,0,1,462.48,824.39Z" transform="translate(0.08 11.51)"/><path class="cls-4" d="M481.57,843a5.72,5.72,0,1,1-2.86,7.57A5.72,5.72,0,0,1,481.57,843Z" transform="translate(0.08 11.51)"/><path class="cls-4" d="M488.78,868.7a5.73,5.73,0,1,1-6.26,5.14A5.73,5.73,0,0,1,488.78,868.7Z" transform="translate(0.08 11.51)"/><path class="cls-4" d="M482.19,894.55a5.73,5.73,0,1,1-8,1.31A5.73,5.73,0,0,1,482.19,894.55Z" transform="translate(0.08 11.51)"/><path class="cls-4" d="M463.56,913.64a5.73,5.73,0,1,1-7.58-2.86A5.72,5.72,0,0,1,463.56,913.64Z" transform="translate(0.08 11.51)"/><path class="cls-4" d="M437.88,920.85a5.72,5.72,0,1,1-5.13-6.26A5.73,5.73,0,0,1,437.88,920.85Z" transform="translate(0.08 11.51)"/><path class="cls-4" d="M412,914.26a5.73,5.73,0,1,1-1.31-8A5.74,5.74,0,0,1,412,914.26Z" transform="translate(0.08 11.51)"/><path class="cls-4" d="M393,895.62a5.72,5.72,0,1,1,2.86-7.57A5.72,5.72,0,0,1,393,895.62Z" transform="translate(0.08 11.51)"/><path class="cls-4" d="M385.73,870a5.73,5.73,0,1,1,6.27-5.13A5.72,5.72,0,0,1,385.73,870Z" transform="translate(0.08 11.51)"/><path class="cls-4" d="M392.33,844.1a5.72,5.72,0,1,1,8-1.31A5.72,5.72,0,0,1,392.33,844.1Z" transform="translate(0.08 11.51)"/><path class="cls-22" d="M437,868.75h0a3.85,3.85,0,0,0-1.21-5.31l-27.06-17a3.85,3.85,0,0,0-5.31,1.22h0a3.85,3.85,0,0,0,1.21,5.31l27.06,17A3.85,3.85,0,0,0,437,868.75Z" transform="translate(0.08 11.51)"/><path class="cls-16" d="M440,868.07h0a3.86,3.86,0,0,0-5.1-1.93l-16.21,7.33a3.84,3.84,0,0,0-1.92,5.1h0a3.84,3.84,0,0,0,5.1,1.92l16.21-7.32A3.85,3.85,0,0,0,440,868.07Z" transform="translate(0.08 11.51)"/><path class="cls-16" d="M452.61,906.33a1.14,1.14,0,0,1-1-.69l-15.36-35.87a1.14,1.14,0,1,1,2.09-.89l15.36,35.87a1.13,1.13,0,0,1-1.05,1.58Z" transform="translate(0.08 11.51)"/><path class="cls-12" d="M430.33,872.46a7.61,7.61,0,1,1,10.06,3.8A7.61,7.61,0,0,1,430.33,872.46Z" transform="translate(0.08 11.51)"/><path class="cls-9" d="M494,899.9s7.85,7.94,7.84,13.59S487.12,906,487.12,906s-2.3,3.38-3.11,3.38.07-8.4,3.13-11S494,899.9,494,899.9Z" transform="translate(0.08 11.51)"/><path class="cls-10" d="M495.39,889.87l-2.73,9.06s4.71,6.63,2.68,8.57-9.5-7.31-9.5-7.31l1.3-10.34Z" transform="translate(0.08 11.51)"/><path class="cls-9" d="M523.27,881.43s7.85,7.93,7.83,13.59-14.67-7.48-14.67-7.48-2.3,3.39-3.1,3.39.06-8.41,3.12-11S523.27,881.43,523.27,881.43Z" transform="translate(0.08 11.51)"/><path class="cls-10" d="M524.7,871.4,522,880.45s4.72,6.63,2.68,8.57-9.5-7.3-9.5-7.3l1.3-10.35Z" transform="translate(0.08 11.51)"/><path class="cls-16" d="M529.43,875.06s-8,1.05-13.42-.33a9.35,9.35,0,0,1-3.32-1.43c-1.16-10.77.06-38.2-5.69-51.76a2.25,2.25,0,0,1-.08-.24,11.39,11.39,0,0,0-.79-1.65.12.12,0,0,0,0-.08c-.33-.59-.65-1.13-1-1.64-12.4-18-35.67-33.7-38.13-35.29.22.21.57.53,1.11,1,.13.13.3.27.46.4,2.51,2.11,7.45,6.38,12.91,11.56.43.43.91.84,1.37,1.27,8.69,8.29,18.28,18.49,21.28,25.67,3.78,9-2.59,71.31-6.4,71.93-2.62.44-9.1.27-12.85.14l-2.81-.11s1.65-60.72-.27-66.31c-.43-1.25-2.59-2.89-5.86-4.89,0,0-.05,0-.05,0-11.53-7-36.78-18-47.9-28.64-14.31-13.64-8.13-27-8.13-27l47.06-8.78s40.18,18.55,59,45.55C534.94,817.25,529.43,875.06,529.43,875.06Z" transform="translate(0.08 11.51)"/><path class="cls-23" d="M456.8,683.85c-8.19-2.81-16.92,3.63-9.52,16s21,37.19,29.18,44.12c5.06,4.25,36.6,23.16,41.37,20.71l-3.33-8-23.29-17.4a30.48,30.48,0,0,1-10-12.91C475.84,713.13,465.11,686.7,456.8,683.85Z" transform="translate(0.08 11.51)"/><path class="cls-11" d="M471.42,761s-41.32,14.82-52.89,13.06a18,18,0,0,0,.75,6.65s44.84-6,55.49-17.18Z" transform="translate(0.08 11.51)"/><path class="cls-24" d="M442.9,675.94s-16.82,6.07-22.19,35.67-5,63.51-5,63.51,28.82,5.63,58.09-15.3c-16-25.11,1.19-39.23-3.18-57.68-2-8.32-5.57-12.11-9-16.48C454.77,677.08,442.9,675.94,442.9,675.94Z" transform="translate(0.08 11.51)"/><polygon class="cls-25" points="482.17 782.78 458.94 781 480.13 790.22 482.17 782.78"/><polygon class="cls-6" points="458.94 781 458.83 782.42 480.07 792.26 480.13 790.22 458.94 781"/><polygon class="cls-25" points="528.21 793.91 480.13 790.22 480.07 792.26 528.17 795.64 528.21 793.91"/><path class="cls-23" d="M451.51,694.07c-6-6.23-16.71-3.6-16.7,10.77s3.57,33.25,8.79,41.35c3.57,5.56,39.47,25.6,44.69,24.4L487,762l-27.65-19.64a12.86,12.86,0,0,1-4.1-9.06C455,723.43,456.4,699.15,451.51,694.07Z" transform="translate(0.08 11.51)"/><path class="cls-6" d="M528.13,782.39l-48.08-3.68,10.38-38a1.91,1.91,0,0,1,2-1.39l44.2,3.38a1.91,1.91,0,0,1,1.69,2.41Z" transform="translate(0.08 11.51)"/><path class="cls-10" d="M441.35,666.34s-.11,7.79-2.34,11.79c0,0,9,7.58,17.1,2.67,0,0-2.16-12.66,0-16.27S441.35,666.34,441.35,666.34Z" transform="translate(0.08 11.51)"/><path class="cls-10" d="M466.2,659.34C462.07,669,452.12,674,444,670.5s-11.39-14.13-7.26-23.78,14.07-14.64,22.21-11.16S470.33,649.69,466.2,659.34Z" transform="translate(0.08 11.51)"/><path class="cls-14" d="M467.82,653.37s1-4.39-.92-10.85-6.79-1-6.79-1S466.93,647.53,467.82,653.37Z" transform="translate(0.08 11.51)"/><path class="cls-9" d="M457.77,639.13s12,3.38,11.85,13.35c0,0,11.85-11,.83-18.37C462.41,628.7,457.77,639.13,457.77,639.13Z" transform="translate(0.08 11.51)"/><path class="cls-9" d="M445.44,659.83a3.36,3.36,0,0,1-3.16-1.46c-1.79-2.4,1.31-7.92,5.88-3.14a20.4,20.4,0,0,0,14.78-13.61s1.42-11.49-14.59-12.32c-18.52-1-21.1,24.06-14.53,33.37A27.11,27.11,0,0,0,441.1,670C445.09,667.65,445.44,659.83,445.44,659.83Z" transform="translate(0.08 11.51)"/><path class="cls-9" d="M442.28,634.37S436.67,617,421,618.71s-16.77,31.89-16.46,40.77-10.23,12.88-18.2,10.91c0,0,17.23,22.13,33.36,4.48,8.42-9.23,6.44-35.52,14.37-35.07S442.28,634.37,442.28,634.37Z" transform="translate(0.08 11.51)"/><path class="cls-11" d="M432.5,640.41c2.88-1,8.05-5,8.14-9.73s-2.13.83-3.22,2.38S428.31,641.92,432.5,640.41Z" transform="translate(0.08 11.51)"/><path class="cls-10" d="M466.14,654.87a44,44,0,0,0,.73,9.2c.49,2-4.94-.78-4.94-.78Z" transform="translate(0.08 11.51)"/><path class="cls-14" d="M455.15,670.49a25.69,25.69,0,0,1-11.46.6s3.91,2.2,11.46,1.24Z" transform="translate(0.08 11.51)"/><path class="cls-11" d="M468.09,783.61c2.32,1.94,7.56,6.42,13.37,12C475.6,790.28,470.41,785.69,468.09,783.61Z" transform="translate(0.08 11.51)"/><path class="cls-11" d="M516,874.73a9.35,9.35,0,0,1-3.32-1.43c-1.16-10.77.06-38.2-5.69-51.76a2.25,2.25,0,0,1-.08-.24,3.55,3.55,0,0,0-.22-.76,4.87,4.87,0,0,0-.57-.89.12.12,0,0,0,0-.08c-.33-.59-.65-1.13-1-1.64-12.4-18-35.67-33.7-38.13-35.29l-.16-.11,0,0s4.08-1.67,7-.54,33.48,24.41,37.31,35C514.45,826.37,517.45,863.36,516,874.73Z" transform="translate(0.08 11.51)"/><path class="cls-11" d="M484.53,831.29c.24,2.73,2.81,49.9.33,63.29l-2.81-.11s1.65-60.72-.27-66.31c-.43-1.25-2.59-2.89-5.86-4.89.73.27,7.69,2.78,12.36,1.78C488.28,825.05,484.23,828.43,484.53,831.29Z" transform="translate(0.08 11.51)"/><path class="cls-23" d="M468.36,725.88s-3,3.32-9.26,4.89a21.08,21.08,0,0,0,8.3,0Z" transform="translate(0.08 11.51)"/><path class="cls-6" d="M394.07,699.33c-4.67-2-14,2-15.07,1.81-13.79-2.43-.19-15.25,2.86-18.76,8.38-9.64,17.26-18.2,19.2-31.43,1.43-9.67-.81-24.76-9.15-31.29-7.13-5.56-10.64-.19-16.88,3.29-3.83,2.16-11.28,12.23-11.09-6.56,0-3.75,5.86-11.66,7.58-15.5,3.38-7.31,6.16-15,6.92-23.11.08-.86.13-1.75.16-2.65v0c.43-20.31-15-44.9-38.31-36.37-10.45,3.83-18.8,16-24.77,24.76-4.13,6-7.82,12.69-9.39,19.92a24.33,24.33,0,0,0-.32,5.4,121,121,0,0,0,1.8,16.12c-1.89,5-3.83,8.18-5.8,9.45V751.55a106.35,106.35,0,0,0,40.36,12.64q3.09.36,6,.43a67,67,0,0,0,8.07-.08c22.74-1.7,49-17.34,49.76-42.69C406.25,713.35,402.55,702.9,394.07,699.33Z" transform="translate(0.08 11.51)"/><path class="cls-6" d="M337.2,627.87c-8.51-2.78-16.14-8.16-24.22-10a12.35,12.35,0,0,1-7.66-5.73c-1.08,9.47-5.17,1.88-7.44,0-4.33-3.48-6.77-8.85-11.72-3.29-5.79,6.53-7.34,21.62-6.35,31.29,1.35,13.23,7.51,21.79,13.32,31.43,2.12,3.51,11.57,16.33,2,18.76-.75.19-7.21-3.8-10.46-1.81-5.88,3.57-8.45,14-8.26,22.52.52,25.35,18.76,41,34.54,42.69a41.52,41.52,0,0,0,9.75-.35,59.06,59.06,0,0,0,28-12.64V625.68A12.82,12.82,0,0,1,337.2,627.87Z" transform="translate(0.08 11.51)"/><path class="cls-8" d="M373.36,715.89c-5.56,8.77-19.22,11.55-29,13.06,1.27,11.91,2.59,23.79,3.78,35.67.11,1.19.25,2.38.35,3.56,1.7,18,2.92,36.1,3,54.19A1281.4,1281.4,0,0,1,351,956c-.08,1.14-21.35.22-19.49-.54C335,922.19,342.12,889.39,345,856c1-11.66,1.35-23.38,1.24-35.07-.7-15.36-2.27-36.07-4-56.78-.46-5.29-.91-10.61-1.37-15.82-12.85-3.3-24.14-10.37-33.43-19.82-1.86-1.89-3.72-3.92-5.56-6v-4.19c2.4,2.95,4.94,5.73,7.48,8.29a69.85,69.85,0,0,0,31.26,18.88c-3-33.3-5.94-62.16-5.94-62.81q0-5.34-.05-10.77a1,1,0,0,0-.16,0,77.49,77.49,0,0,1-32.59-34.78V632a1.32,1.32,0,0,1,1,.84,74.64,74.64,0,0,0,31.7,35.91c-.25-19.39-.65-39.31,1-59.13a1.28,1.28,0,0,1-.92-.62,51.92,51.92,0,0,1-7.45-18.36c-.08-.4-.16-.84-.25-1.24-.29-1.7,2.3-2.43,2.6-.73.1.54.19,1.08.32,1.59a50.1,50.1,0,0,0,6,15.53c.54-5.76,1.27-11.53,2.27-17.26.54-3.21,1.16-6.45,1.86-9.66.76-3.4,6-1.95,5.21,1.43-.48,2.21-.94,4.43-1.37,6.64-6.59,34-6,68.34-3.27,102.57a42.61,42.61,0,0,0,25-34.77c.17-1.73,2.87-1.73,2.7,0a45.45,45.45,0,0,1-27.45,37.61c1,11.31,2.13,22.62,3.34,33.94,8.94-1.41,22.09-4.08,27-11.8C372,713.05,374.3,714.4,373.36,715.89Z" transform="translate(0.08 11.51)"/><rect class="cls-6" x="540.16" y="963.62" width="539.84" height="139.4"/><path class="cls-7" d="M540.08,932s66.63-5.54,147.72,50.72c29.85,20.7,44.6,42.63,122.28,39.09s104.68,30.85,120.88,36.61,58,3.76,66.15,33.1h-457Z" transform="translate(0.08 11.51)"/><path class="cls-3" d="M1057.52,1012.29c-1.94-1.08-6.19.2-6.65.07-5.88-1.72.65-6.64,2.14-8,4.11-3.81,8.38-7.1,9.86-12.76,1.08-4.14.82-10.82-2.5-14.05-2.83-2.76-4.62-.59-7.49.63-1.77.75-5.5,4.77-4.52-3.39.2-1.63,3.1-4.8,4-6.37a31.52,31.52,0,0,0,4.11-9.73c1.85-8.92-3.74-21.52-14.74-18.8-4.72,1.16-8.93,6-12,9.58a25.34,25.34,0,0,0-5,8.22c-.88,2.63-.39,9.43-.39,9.43q-3.18,6.35-5.55,2.71c-.69-.25-.86-.76-1.81-1a5.79,5.79,0,0,0-3.86.4c-4.89,2.2-4.23,8.42-3.24,12.67.86,3.71,2.89,6.84,4.07,10.38.21.62,3.22,4,.14,4.49.05,0-1.48-2.85-1.64-3a7.66,7.66,0,0,0-10.46-.66c-9.26,7.38-.34,25.14,8.07,33.58,8.21,8.23,20.21,12,27.82,12.25,10,.35,22.15-5.2,23.69-16.2C1062.14,1019,1061,1014.25,1057.52,1012.29Z" transform="translate(0.08 11.51)"/><path class="cls-3" d="M1015.43,1051.07c-.31-2.81-2.44-5.53-3.79-7.91l-1.34-2.37c-.08-.22-.17-.44-.24-.67-.74-2.49-.87-5.37-2.59-7.46a5.16,5.16,0,0,0-4.13-2.06,4.54,4.54,0,0,0-2.13.65c-1,.63-1.67,1.78-3.44,1.06s-2.78-2-4.18-4.29c-2.1-3.48-6.14-5.52-9.92-3.09s-3.45,7.38-2.12,11.17a19.3,19.3,0,0,0,3.35,5.9,20.17,20.17,0,0,0,2.91,2.86c1.13.9,3.39,2.08,1.51,2.89-1.08.47-2.09-.18-3.28.72a5.55,5.55,0,0,0-2,4.07c-.18,3.82,3.51,6.26,6.56,7.67,4.7,2.18,10.81,4.21,16,3C1011.59,1062.09,1016,1056.3,1015.43,1051.07Z" transform="translate(0.08 11.51)"/><path class="cls-8" d="M1052.69,988.37a1.28,1.28,0,0,1-.3.26c-5.77,3.26-13.78,2.68-20.2,1.74a260.61,260.61,0,0,0-6.07,35.12c-.12,1.26-.2,2.51-.28,3.77,7.51-.74,18.06-3.67,23.46-9.15.89-.92,2.31.5,1.41,1.42-5.91,6-16.86,9-25,9.73-.28,4.93-.34,9.89-.28,14.82.26,5.94.94,11.83,1.74,17.72a162.31,162.31,0,0,0,7.91,27.71h-8.23v0c-.62-5.77-1.24-11.57-1.78-17.38-7.53-3.86-12.9-9.95-17.72-16.64a22.31,22.31,0,0,1-16.46-3.72c-1-.73-.06-2.47,1-1.73a20.4,20.4,0,0,0,14.18,3.63c-3.27-4.73-6.35-9.65-9.74-14.26a21.84,21.84,0,0,1-9.19-2.14c-1.16-.54-.14-2.26,1-1.72a19.38,19.38,0,0,0,6.55,1.76c-.88-1.12-1.74-2.26-2.68-3.33s.56-2.38,1.42-1.4a100.91,100.91,0,0,1,7.67,10.25,17.8,17.8,0,0,0,1.28-8.67c-.12-1.28,1.88-1.26,2,0a19.75,19.75,0,0,1-2,10.64c6.31,9.53,12.4,19.34,22.43,25-.75-8.57-1.31-17.18-1.44-25.77a100.51,100.51,0,0,1,.07-10.84.84.84,0,0,1,.07-.24c.14-3.78.34-7.56.72-11.31.12-1.18.28-2.34.42-3.52a.8.8,0,0,1-.32-.12,41.65,41.65,0,0,1-16.18-18c-.56-1.15,1.16-2.17,1.72-1a39.76,39.76,0,0,0,15,17c.82-6.26,1.94-12.51,3.24-18.72-3.24-2.06-5.69-4.24-7.19-7.87-.4-1-.76-2-1.08-3-1-3.22-1.68-6.61-2.54-9.83a1,1,0,0,1,1.94-.54c.9,3.44,1.68,6.94,2.74,10.33,0,0,0,0,0,0a15.15,15.15,0,0,0,6.55,8.75c.62-2.92,1.3-5.83,2-8.75,1.6-6.81,3.31-13.6,5-20.38a.9.9,0,0,1-.7-.45,23.7,23.7,0,0,1-3.52-11.81,1,1,0,0,1,2,0,21.82,21.82,0,0,0,2.78,9.95c.72-2.94,1.44-5.88,2.12-8.81.3-1.24,2.21-.72,1.94.54-2.4,10.27-5.1,20.57-7.56,31,0,0,0,.06,0,.08,4.58.66,10.25,1.16,15-.08a14.83,14.83,0,0,0,3.71-1.48A1,1,0,0,1,1052.69,988.37Z" transform="translate(0.08 11.51)"/><path class="cls-26" d="M532.76,936.06a112.79,112.79,0,0,1,16.72,29.35,1.18,1.18,0,0,1-.88,1.41,21.4,21.4,0,0,1-6.29.33c-.47,0-1.07-.34-1.13-.86A67.22,67.22,0,0,0,530.49,937c-1.32-1.64-2.68-3.27-4.09-4.85C525.7,931.34,531.44,934.08,532.76,936.06Z" transform="translate(0.08 11.51)"/><path class="cls-8" d="M557.07,959.31c-.55-5.79-1.79-11.53-2.27-17.32-1.41-17-17-34.09-16.38-33,6.91,12.09,9.53,25.5,10.75,39.12-3.7-11.58-8.53-22.76-16.53-31.78-2-2.69-10.26-6.68-9.42-5.6a100,100,0,0,1,21.06,56,1.17,1.17,0,0,0,1.14,1.15,16.86,16.86,0,0,0,5.06-.8,1.13,1.13,0,0,0,2-.69v-.09c.16-.07.32-.12.48-.2a1.21,1.21,0,0,0,1.72,1.11C557.8,965.66,557.35,962.32,557.07,959.31Z" transform="translate(0.08 11.51)"/><path class="cls-26" d="M546.82,962.14c.47-5.79,1.53-11.53,1.93-17.32,1.2-17,14.48-34.09,14-33-5.88,12.09-8.12,25.5-9.15,39.12,3.14-11.58,7.25-22.76,14.07-31.78,1.74-2.69,8.73-6.68,8-5.6a110.8,110.8,0,0,0-17.93,56,1.09,1.09,0,0,1-1,1.15,12.16,12.16,0,0,1-4.3-.79,1,1,0,0,1-1.72-.69.27.27,0,0,1,0-.09l-.41-.21c0,.76-.69,1.57-1.47,1.12C546.19,968.49,546.58,965.15,546.82,962.14Z" transform="translate(0.08 11.51)"/><path class="cls-26" d="M582.86,967c-.29-4.36-1-8.67-1.22-13-.76-12.79-9.16-25.62-8.82-24.8,3.72,9.1,5.14,19.17,5.79,29.41-2-8.7-4.59-17.11-8.9-23.89-1.1-2-5.52-5-5.07-4.21,6.78,12.13,10.7,26.72,11.34,42.08,0,.46.27.86.62.86a6.54,6.54,0,0,0,2.71-.6c.33.54,1.09.38,1.1-.51v-.07l.25-.16c0,.57.44,1.18.93.84C583.26,971.77,583,969.26,582.86,967Z" transform="translate(0.08 11.51)"/><path class="cls-8" d="M556.91,945.89a44.71,44.71,0,0,0-1.88,4.57,40.79,40.79,0,0,0-2.34,10.62c-.35,1.78-.67,3.57-1,5.35a1.13,1.13,0,0,0,.24.9,1.23,1.23,0,0,0,1.14,1.46,11.31,11.31,0,0,0,4.14-.17,1.18,1.18,0,0,0,1.06-.91,91.56,91.56,0,0,1,19.13-44.32C578.37,922.24,560.59,936.28,556.91,945.89Z" transform="translate(0.08 11.51)"/><path class="cls-8" d="M589,937.63a116.58,116.58,0,0,0-15.19,30.06,1.15,1.15,0,0,0,.88,1.37,20,20,0,0,0,6,0,1.18,1.18,0,0,0,1.06-.91,70,70,0,0,1,9.4-29.74c1.23-1.7,2.48-3.39,3.8-5C595.65,932.58,590.22,935.59,589,937.63Z" transform="translate(0.08 11.51)"/></svg>