<svg id="Layer_1" data-name="Layer 1" xmlns="http://www.w3.org/2000/svg" xmlns:xlink="http://www.w3.org/1999/xlink" viewBox="0 0 1080.16 1172.29"><defs><style>.cls-1{fill:#f3f8ff;}.cls-2{fill:#e6efff;}.cls-3{fill:#d9e8ff;}.cls-4{fill:#f3f9ff;}.cls-5{fill:#86b4ff;}.cls-6{fill:#d7e6ff;}.cls-7{fill:#fff;}.cls-8{fill:#c2d9f9;}.cls-9{fill:#9cc9ff;}.cls-10{fill:#2476ed;}.cls-11{fill:#61a1ff;}.cls-12{fill:url(#Yellow);}.cls-13{fill:url(#Yellow-2);}.cls-14{fill:#ffdad7;}.cls-15{fill:#07253c;}.cls-16{fill:#fbcdb7;}.cls-17{fill:#2f7af4;}.cls-18{fill:#84b2ff;}.cls-19{fill:#256dd6;}.cls-20{fill:#f9c5ce;}.cls-21{fill:#06063a;}.cls-22{fill:#c2dbff;}.cls-23{fill:url(#Yellow-3);}.cls-24{fill:url(#Yellow-4);}.cls-25{fill:#000036;}.cls-26{fill:#f9d015;}.cls-27{fill:#5f94ff;}.cls-28{fill:url(#linear-gradient);}</style><linearGradient id="Yellow" x1="496.59" y1="717.22" x2="517.25" y2="717.22" gradientUnits="userSpaceOnUse"><stop offset="0" stop-color="#fbb03b"/><stop offset="1" stop-color="#f9d015"/></linearGradient><linearGradient id="Yellow-2" x1="416.17" y1="758.32" x2="513.66" y2="758.32" xlink:href="#Yellow"/><linearGradient id="Yellow-3" x1="384.44" y1="631.35" x2="439.98" y2="631.35" xlink:href="#Yellow"/><linearGradient id="Yellow-4" x1="446.72" y1="666.88" x2="520.41" y2="666.88" xlink:href="#Yellow"/><linearGradient id="linear-gradient" x1="2754.79" y1="774.81" x2="2812.89" y2="774.81" gradientTransform="translate(-2452.07)" xlink:href="#Yellow"/></defs><title>lp-competitor-bg</title><path class="cls-1" d="M328.72,227.19c-26-31.34,5.4-72.36-32-93.21-35.11-19.59-95.87,32.35-129.07,25.58-30-6.12-26.08-75.15-54.65-85.25C71.81,59.75,36.75,84.78.43,61.61V308.49C45.22,328.12,88,263.4,186.51,297.36c11.46,3.95,42.87,34,83.28,32.7,23.25-.78,46.53-22,56.33-32.29,8.37-8.75,88.37,12.89,88.37-13C414.49,264.08,343,244.4,328.72,227.19Z" transform="translate(0.08 92.29)"/><path class="cls-1" d="M745.57,73.29C771.43,42,740.2.93,777.39-19.92c35-19.59,95.42,32.35,128.47,25.58,29.84-6.12,26-75.15,54.4-85.25,41-14.56,75.92,10.47,112.07-12.7V154.59c-44.58,19.63-87.17-45.09-185.21-11.13-11.41,3.95-42.67,34-82.89,32.7-23.15-.78-46.31-22-56.07-32.29-8.33-8.75-88,12.89-88-13C660.19,110.18,731.37,90.5,745.57,73.29Z" transform="translate(0.08 92.29)"/><path class="cls-1" d="M819.35-23a15.5,15.5,0,0,0-15.5,15.5A15.51,15.51,0,0,0,819.35,8,15.51,15.51,0,0,0,834.86-7.52,15.5,15.5,0,0,0,819.35-23Z" transform="translate(0.08 92.29)"/><path class="cls-1" d="M762.88,299a15.5,15.5,0,1,0-12,28.58c7.89,3.32,24.51,3.46,27.83-4.44S770.77,302.27,762.88,299Z" transform="translate(0.08 92.29)"/><path class="cls-2" d="M994,652.78Q971.61,620.86,946.29,591c-4.29-5.08-11.58-2.59-14.85,1.92q-19.63,27-39.31,54.13-8.75,12.08-17.49,24.11c-4.62,6.35-9.21,12.69-13.83,19-5.48,7.5-6.77,12-15.68,6-12-8.12-21.88-19.22-30.46-30.78C785.35,626,759.92,583.2,736.85,539.67c-4.66-8.75-9.2-17.55-13.66-26.32-11.74-23.14-23.89-46.2-39.9-66.75-6.62-8.5-15.36-21.87-25.73-26-10.15-4.05-15.69,4.73-21,12C614.28,463.24,592,494,571.73,526.07c-11.27,17.79-21.93,35.93-31.65,54.64V940.57h540V806.76A859.66,859.66,0,0,0,994,652.78Z" transform="translate(0.08 92.29)"/><path class="cls-3" d="M723.19,513.35c-11.74-23.14-23.89-46.2-39.9-66.75-6.62-8.5-15.36-21.87-25.73-26-10.15-4.05-15.69,4.73-21,12C614.28,463.24,592,494,571.73,526.07q1,14.25,3.34,28.48c1.13,7.05,11.29,9,15.8,4.16a35.76,35.76,0,0,0,7-11.07q9.12,31.18,15.53,63.12c1.78,9,16.47,9,18.22,0,4-20.65,2.78-42.71,5.24-63.82,3.83,11.36,9.29,21.73,18.66,27.4,4.8,2.92,12.85.43,13.87-5.64l2.41-14.12q6.51,14.94,13,29.86c3.41,7.83,15.23,4.91,17.28-2.24l11.37-39.53c8.16,5.16,19.06,7.94,23.43-3C732.19,530.92,727.65,522.12,723.19,513.35Z" transform="translate(0.08 92.29)"/><path class="cls-3" d="M989.47,654.13a10.53,10.53,0,0,0,4.53-1.35Q971.61,620.86,946.29,591c-4.29-5.08-11.58-2.59-14.85,1.92q-19.63,27-39.31,54.13a9.85,9.85,0,0,0,7.16,3.16q.45,9.67.86,19.36c.41,8.72,9.5,11.5,15.85,6.89q5.5,15.94,11,31.91c1.94,5.62,8.4,9,13.88,5.64a20.89,20.89,0,0,0,10.18-13.85,12.6,12.6,0,0,0,.27-1.78c.13.32.3.62.43,1,3.46,8.1,15,4.59,17.28-2.26q2.6-7.74,5.16-15.48c6.29,3.89,14.12.17,14.74-7.66a41.2,41.2,0,0,0-1-12.21,8.55,8.55,0,0,0,1.7-5.51C989.55,655.53,989.49,654.83,989.47,654.13Z" transform="translate(0.08 92.29)"/><path class="cls-3" d="M857.71,694.6s-51,88.18-63.55,94,11.36-21.15,14.45-28.6-9.69-12.1-15.89-11.58,52.41-52.19,52.41-52.19S849.25,699.24,857.71,694.6Z" transform="translate(0.08 92.29)"/><path class="cls-2" d="M86.51,653.3q22.39-31.92,47.71-61.78c4.29-5.07,11.58-2.59,14.85,1.92q19.63,27.06,39.31,54.14,8.75,12.06,17.49,24.11c4.62,6.34,9.21,12.69,13.83,19,5.48,7.51,6.78,12,15.69,6,12-8.13,21.87-19.23,30.45-30.78,29.32-39.42,54.76-82.22,77.82-125.74,4.67-8.75,9.2-17.55,13.66-26.33,11.74-23.14,23.89-46.19,39.9-66.74,6.62-8.51,15.37-21.87,25.73-26,10.15-4,15.69,4.73,21,12,22.28,30.62,44.55,61.42,64.83,93.45,11.26,17.79,21.92,35.94,31.64,54.65V941.09H.43V807.28A860.28,860.28,0,0,1,86.51,653.3Z" transform="translate(0.08 92.29)"/><path class="cls-3" d="M357.32,513.87c11.74-23.14,23.89-46.19,39.9-66.74,6.62-8.51,15.37-21.87,25.73-26,10.15-4,15.69,4.73,21,12,22.28,30.62,44.55,61.42,64.83,93.45q-1,14.25-3.35,28.48c-1.13,7-11.29,9-15.8,4.16a35.53,35.53,0,0,1-7-11.07q-9.11,31.19-15.52,63.13c-1.79,9-16.48,9-18.23,0-4-20.66-2.78-42.72-5.24-63.83-3.83,11.37-9.28,21.73-18.66,27.4-4.8,2.92-12.85.44-13.87-5.64l-2.4-14.12q-6.53,14.94-13,29.86c-3.4,7.83-15.23,4.92-17.28-2.24l-11.37-39.53c-8.15,5.16-19.06,7.94-23.43-3C348.33,531.45,352.86,522.65,357.32,513.87Z" transform="translate(0.08 92.29)"/><path class="cls-3" d="M91,654.65a10.53,10.53,0,0,1-4.53-1.35q22.39-31.92,47.71-61.78c4.29-5.07,11.58-2.59,14.85,1.92q19.63,27.06,39.31,54.14a9.82,9.82,0,0,1-7.16,3.15c-.29,6.46-.59,12.91-.86,19.36-.41,8.72-9.5,11.5-15.85,6.89q-5.5,15.94-11,31.91c-1.94,5.62-8.4,9-13.88,5.65a20.89,20.89,0,0,1-10.17-13.86,11.26,11.26,0,0,1-.28-1.78c-.13.33-.29.62-.43,1-3.46,8.1-15,4.58-17.28-2.27q-2.6-7.74-5.15-15.47c-6.3,3.88-14.13.16-14.75-7.67a41.57,41.57,0,0,1,1.06-12.21,8.44,8.44,0,0,1-1.7-5.51C91,656.05,91,655.35,91,654.65Z" transform="translate(0.08 92.29)"/><path class="cls-3" d="M222.81,695.12s50.94,88.18,63.54,94S275,767.94,271.9,760.48s9.69-12.1,15.9-11.58-52.41-52.18-52.41-52.18S231.26,699.76,222.81,695.12Z" transform="translate(0.08 92.29)"/><path class="cls-4" d="M1026.46,801.49c-9.29,2-54.56,22.92-70.61,35.45-18,14-32.61.73-55.05,3.3-10.5,1.21-18,25.77-33,29.48-14.55-.67-28.79-18.87-35.38-18.9-21.36-.08-30.46,11.29-50.3,16.69-23,6.26-33.67-14.23-54-19.44-39.1-10.05-56.73,29.8-81.09,52.35-13.36,3.65-26.75,7.05-40.74,9.18-4.86.73-9.69,1.51-14.47,2.43-9.34-2-18.68-4.32-27.7-4.86-7.91-.49-17.23,1.13-24.06,5.62v37c22.25,16.25,76,12,93.12,12.18,25.11.21,50.25-.06,75.28-2.11s49-5.4,73.68.57c23.28,5.61,44.93,10.66,69,11,23.73.35,47.58-.26,71.31-.54,50.43-.54,102.35-3.1,149.44-23,2.81-1.19,5.54-2.46,8.13-3.84V803.28A109.1,109.1,0,0,0,1026.46,801.49Z" transform="translate(0.08 92.29)"/><path class="cls-3" d="M1078.19,835c-16.9,3.45-33.88,7.15-49.44,14.9-8.8,4.4-16.33,11.91-25.86,14.74s-20.06.9-29.84,1.09c-34.75.67-61.53,22.41-93.66,32.07C853,905.77,804,894.64,789.1,925.21c-13.5,27.7,35,17.13,68.47,17.32,38.67-1.19,101-5.43,110.73,4.32,12.61,12.58,9.91,72.18,28.81,83s51.89-11.82,60.13-11.31,22.84,17.6,22.84,17.6V834.84A8.66,8.66,0,0,0,1078.19,835Z" transform="translate(0.08 92.29)"/><path class="cls-3" d="M770.58,526.42s27.86-10.78,52.85,5.41c0,0,22.3-19.36,52-11.26,0,0-41.89,9-52,22.95C823.43,543.52,807.48,525.52,770.58,526.42Z" transform="translate(0.08 92.29)"/><path class="cls-5" d="M395,854.35l-2,79c0,7.43-6.92,13.5-15.44,13.5H295.64c-8.51,0-15.43-6.07-15.43-13.5V854.47c0-7.47,6.92-13.5,15.43-13.5h81.87C386,841,395,846.87,395,854.35Z" transform="translate(0.08 92.29)"/><path class="cls-6" d="M396.45,856.69v77a11.47,11.47,0,0,1-.78,4.16,11,11,0,0,1-1.09,2.17,13.91,13.91,0,0,1-3.7,3.88c-.36.25-.72.49-1.09.71a15.56,15.56,0,0,1-3.69,1.58c-.35.11-.72.2-1.09.29a16.65,16.65,0,0,1-3.64.38H301.48a15.21,15.21,0,0,1-1.52-.06,8.13,8.13,0,0,1-1.09-.14,15.43,15.43,0,0,1-3.7-1,8.62,8.62,0,0,1-1.09-.48,15.88,15.88,0,0,1-3.7-2.57c-.38-.37-.73-.76-1.07-1.16a12,12,0,0,1-2.89-7.74v-77c0-7.29,6.76-13.17,15.06-13.17h79.89C389.69,843.52,396.45,849.4,396.45,856.69Z" transform="translate(0.08 92.29)"/><rect class="cls-7" x="540.16" y="1032.88" width="539.84" height="139.4"/><path class="cls-6" d="M540.08,949.75s46.66-17.44,131.27,33.37c9,5.4,18.59,30.09,47,30.58,77.75,1.34,101.33,32.52,117.53,38.27s85.84-1.32,93.94,28H540.08Z" transform="translate(0.08 92.29)"/><path class="cls-8" d="M950.73,1008.15c-.15.38-.31.72-.45,1.1l-1.15-.38c-5.61-1.89-30.14-10.6-35-19.74l19.37.83-22.61-7.91a59.49,59.49,0,0,1-4.19-23.49l15.79,1.2-15.12-8.65a79.7,79.7,0,0,1,8.6-25.33s15.63,4.14,29.36,22.07L938,959.25l9.94-7.85a91.74,91.74,0,0,1,10.61,21.35C962.41,983.87,955.3,997.12,950.73,1008.15Z" transform="translate(0.08 92.29)"/><path class="cls-5" d="M950.73,1008.15c-.15.38-.31.72-.45,1.1l-1.15-.38C938,975.66,925,946.59,924.79,946.16a.88.88,0,0,1,1.6-.72C926.58,945.87,939.62,974.88,950.73,1008.15Z" transform="translate(0.08 92.29)"/><path class="cls-8" d="M962.35,1056c.07.49.14,1,.18,1.43l1.47-.07c7.17-.44,38.69-2.84,47.26-12l-23-5.2,29-2.07a72.26,72.26,0,0,0,12.38-26.19l-18.88-3.61,20.47-5.33a97.08,97.08,0,0,0-2-32.43s-19.63-.12-41.43,16.52l5,15.72-9.15-12.37a111.52,111.52,0,0,0-19.22,21.64C956.39,1023.84,960.5,1041.64,962.35,1056Z" transform="translate(0.08 92.29)"/><path class="cls-5" d="M962.35,1056c.07.49.14,1,.18,1.43l1.47-.07c23.59-35.39,48.09-65.31,48.48-65.74a1.07,1.07,0,0,0-1.65-1.36C1010.47,990.72,986,1020.58,962.35,1056Z" transform="translate(0.08 92.29)"/><path class="cls-8" d="M962.11,1066.11c.43-.08.84-.16,1.26-.21,0,0,0-.46-.11-1.3-.65-6.38-3.9-34.37-12.37-41.68l-3.81,20.63-2.87-25.76a64.48,64.48,0,0,0-23.76-10.11l-2.56,17-5.47-18.05a86.77,86.77,0,0,0-28.81,2.94s.59,17.5,16.18,36.32l13.82-5-10.69,8.58a98.63,98.63,0,0,0,20,16.36C933.66,1072.55,949.36,1068.26,962.11,1066.11Z" transform="translate(0.08 92.29)"/><path class="cls-5" d="M962.11,1066.11c.43-.08.84-.16,1.26-.21,0,0,0-.46-.11-1.3-32.35-19.77-59.87-40.54-60.27-40.87a1,1,0,0,0-1.32.2,1,1,0,0,0,.17,1.32C902.25,1025.55,929.7,1046.33,962.11,1066.11Z" transform="translate(0.08 92.29)"/><path class="cls-5" d="M967.79,1079.62H965.1c-.58-4.5-1.27-9.09-2.09-13.66-.12-.58-.22-1.16-.34-1.73-2.55-13.73-5.94-27.23-8.85-37.67v0c-2.35-8.54-4.37-15-5.26-17.87-.34-1-.51-1.54-.53-1.59a1.36,1.36,0,0,1,.12-1.1,1.39,1.39,0,0,1,.72-.58,1.18,1.18,0,0,1,1,.05,1.28,1.28,0,0,1,.72.79s.17.51.44,1.32c1.27,4.05,5.31,16.94,9.25,32.91v.07c1.11,4.42,2.19,9.09,3.2,13.85.19,1,.41,1.92.6,2.91a.07.07,0,0,0,0,.07C965.56,1064.73,966.88,1072.31,967.79,1079.62Z" transform="translate(0.08 92.29)"/><path class="cls-6" d="M963.39,1080h116.53v-77.3s-30.49,9.48-37.06,33.42S967.44,1064.83,963.39,1080Z" transform="translate(0.08 92.29)"/><rect class="cls-7" y="1032.88" width="540.51" height="139.4"/><path class="cls-6" d="M540.43,949.75S493.71,932.31,409,983.12c-9,5.4-18.61,30.09-47.09,30.58-77.85,1.34-101.46,32.52-117.68,38.27s-85.95-1.32-94.06,28H540.43Z" transform="translate(0.08 92.29)"/><path class="cls-8" d="M129.26,1008.15c.16.38.32.72.46,1.1l1.15-.38c5.62-1.89,30.17-10.6,35-19.74l-19.39.83,22.63-7.91a59.31,59.31,0,0,0,4.2-23.49l-15.81,1.2,15.14-8.65A79.74,79.74,0,0,0,164,925.78s-15.65,4.14-29.4,22.07l7.38,11.4-10-7.85a91.35,91.35,0,0,0-10.62,21.35C117.57,983.87,124.69,997.12,129.26,1008.15Z" transform="translate(0.08 92.29)"/><path class="cls-5" d="M129.26,1008.15c.16.38.32.72.46,1.1l1.15-.38C142,975.66,155,946.59,155.24,946.16a.87.87,0,0,0-.46-1.14.89.89,0,0,0-1.15.42C153.44,945.87,140.39,974.88,129.26,1008.15Z" transform="translate(0.08 92.29)"/><path class="cls-8" d="M117.64,1056c-.07.49-.15,1-.19,1.43l-1.46-.07c-7.19-.44-38.75-2.84-47.33-12l23-5.2-29-2.07a72.3,72.3,0,0,1-12.41-26.19l18.91-3.61L48.61,1003a97.11,97.11,0,0,1,2-32.43s19.66-.12,41.48,16.52l-5,15.72,9.16-12.37a111.26,111.26,0,0,1,19.25,21.64C123.6,1023.84,119.48,1041.64,117.64,1056Z" transform="translate(0.08 92.29)"/><path class="cls-5" d="M117.64,1056c-.07.49-.15,1-.19,1.43l-1.46-.07C92.36,1022,67.83,992.07,67.44,991.64a1.06,1.06,0,0,1,.17-1.49,1.08,1.08,0,0,1,1.49.13C69.45,990.72,94,1020.58,117.64,1056Z" transform="translate(0.08 92.29)"/><path class="cls-8" d="M117.88,1066.11c-.44-.08-.84-.16-1.27-.21,0,0,0-.46.12-1.3.64-6.38,3.89-34.37,12.37-41.68l3.82,20.63,2.88-25.76a64.55,64.55,0,0,1,23.79-10.11l2.56,17,5.47-18.05a87,87,0,0,1,28.85,2.94s-.59,17.49-16.2,36.32l-13.84-5,10.71,8.58a98.6,98.6,0,0,1-20,16.36C146.36,1072.55,130.64,1068.26,117.88,1066.11Z" transform="translate(0.08 92.29)"/><path class="cls-5" d="M117.88,1066.11c-.44-.08-.84-.16-1.27-.21,0,0,0-.46.12-1.3,32.38-19.77,59.93-40.54,60.33-40.87a1,1,0,0,1,1.15,1.52C177.81,1025.55,150.32,1046.33,117.88,1066.11Z" transform="translate(0.08 92.29)"/><path class="cls-5" d="M112.18,1079.62h2.7c.58-4.5,1.27-9.09,2.09-13.66.12-.58.22-1.16.34-1.73,2.55-13.74,6-27.23,8.86-37.67v0c2.36-8.54,4.38-15,5.27-17.87.34-1,.51-1.54.53-1.59a1.36,1.36,0,0,0-.11-1.1,1.45,1.45,0,0,0-.73-.58,1.18,1.18,0,0,0-1,.05,1.33,1.33,0,0,0-.73.79s-.16.51-.43,1.32c-1.27,4.05-5.32,16.94-9.27,32.9v.08c-1.11,4.42-2.19,9.09-3.2,13.85-.19,1-.41,1.92-.6,2.91a.07.07,0,0,1,0,.07C114.42,1064.73,113.1,1072.31,112.18,1079.62Z" transform="translate(0.08 92.29)"/><path class="cls-6" d="M116.6,1080H-.08v-77.3s30.52,9.48,37.1,33.42S112.54,1064.83,116.6,1080Z" transform="translate(0.08 92.29)"/><path class="cls-8" d="M786.93,950.23s-5.7-14.78,2.5-18.16c9.44-3.88,9.13-9.52,9.38-14.77.38-7.93,7.65-12.59,13.9-12.07,5.15.44,4-9,6.11-13,3.39-6.43,15.57-7.86,14.9,4.37-.38,7-11.88,7.36-10.4,15.18s-3.44,16.45-8.44,17.12c-11.12,1.48-3.06,14.06-8.48,19.81S793.23,954,786.93,950.23Z" transform="translate(0.08 92.29)"/><path class="cls-9" d="M754.27,955.84s-39.3-10.72-36.51-29.93,6.78-26.17-6.94-32.07-17.36-24.14-9.19-35.43c6.54-9,1.64-22.41-.89-31.87-2.71-10.13,6.72-36.52,33.62-18,15.29,10.54,0,29.33,21.55,38.06s17.86,33.3,11.13,43.51c-5.53,8.4,20,14.7,21.14,31.75S777.18,950.87,754.27,955.84Z" transform="translate(0.08 92.29)"/><path class="cls-7" d="M760.18,949.33a1.28,1.28,0,0,1-1.33-1C753,916.18,722,833.8,721.65,833a1.27,1.27,0,1,1,2.37-.9c.31.83,31.4,83.43,37.32,115.76a1.26,1.26,0,0,1-1,1.47Z" transform="translate(0.08 92.29)"/><path class="cls-7" d="M740.32,882.26a1.25,1.25,0,0,1-1-.43c-6.65-7.58-22-8.74-22.18-8.75a1.26,1.26,0,0,1-1.17-1.35,1.25,1.25,0,0,1,1.35-1.17c.67,0,16.58,1.24,23.91,9.6a1.27,1.27,0,0,1-.87,2.1Z" transform="translate(0.08 92.29)"/><path class="cls-7" d="M746.46,900.57h0a1.26,1.26,0,0,1-1.31-1.21c-.49-11.91,7.94-33.79,8.3-34.71a1.27,1.27,0,1,1,2.36.92c-.08.22-8.6,22.31-8.13,33.69A1.27,1.27,0,0,1,746.46,900.57Z" transform="translate(0.08 92.29)"/><path class="cls-7" d="M754,924.89a1.26,1.26,0,0,1-1.13-.56c-5.11-7.62-24.7-10.09-24.9-10.11a1.27,1.27,0,0,1,.31-2.52c.85.11,20.95,2.65,26.69,11.23a1.26,1.26,0,0,1-.35,1.75A1.18,1.18,0,0,1,754,924.89Z" transform="translate(0.08 92.29)"/><path class="cls-4" d="M773.22,956.68s-18.43-16.74-11.73-30.59,6.87-21.78,2.68-30.3c-6.31-12.84-6.27-25.42,2.52-33.06,7.15-6.22,3.48-8.72,3.49-16.75,0-12.67,26.22-21.78,35.82-1.9,5.45,11.3-4.8,17.17,0,26.27,6.81,13,.6,25-4.88,32-6.64,8.51,7.21,24.52,3.22,37.6S787,958,773.22,956.68Z" transform="translate(0.08 92.29)"/><path class="cls-8" d="M780.73,950.7l-.12,0a1,1,0,0,1-1.09-.93c-4-47.44,6.65-80.86,6.76-81.2a1,1,0,1,1,1.92.63c-.1.32-10.6,33.39-6.66,80.4A1,1,0,0,1,780.73,950.7Z" transform="translate(0.08 92.29)"/><path class="cls-8" d="M782.52,892.81h0a1,1,0,0,1-1.17-.83c-1.15-6.85-10.94-15.12-11-15.2a1,1,0,1,1,1.3-1.56c.43.36,10.47,8.85,11.74,16.43A1,1,0,0,1,782.52,892.81Z" transform="translate(0.08 92.29)"/><path class="cls-8" d="M780.72,908.14a1,1,0,0,1-.55,0,1,1,0,0,1-.6-1.31c2.4-6.47,17.08-20.72,17.71-21.32a1,1,0,0,1,1.43,0,1,1,0,0,1,0,1.44c-.15.14-15,14.52-17.22,20.57A1,1,0,0,1,780.72,908.14Z" transform="translate(0.08 92.29)"/><path class="cls-8" d="M780.09,940.84a1,1,0,0,1-1.17-.73c-1-3.85-8.21-7-10.88-7.82a1,1,0,0,1,.63-1.93c.44.14,10.66,3.54,12.2,9.22a1,1,0,0,1-.71,1.24Z" transform="translate(0.08 92.29)"/><path class="cls-8" d="M780.36,933.39a1,1,0,0,1-1.09-1.47c1.78-3.34,11.73-9.34,12.86-10a1,1,0,1,1,1,1.74c-2.94,1.75-10.83,6.82-12.11,9.23A1,1,0,0,1,780.36,933.39Z" transform="translate(0.08 92.29)"/><rect class="cls-10" x="522.65" y="911.07" width="58.78" height="120.58"/><path class="cls-11" d="M633.58,940.34H470.34a56.48,56.48,0,0,1,50-30.22h63.24a56.47,56.47,0,0,1,50,30.22Z" transform="translate(0.08 92.29)"/><rect class="cls-11" x="361.88" y="736.24" width="380.33" height="247.41" rx="3.71"/><path class="cls-3" d="M377.74,749.84h348.6a1.86,1.86,0,0,1,1.86,1.86V954.14a1.85,1.85,0,0,1-1.85,1.85H377.74a1.85,1.85,0,0,1-1.85-1.85V751.7A1.86,1.86,0,0,1,377.74,749.84Z"/><rect class="cls-7" x="398.91" y="765.9" width="208.81" height="103.62" rx="4.92"/><rect class="cls-3" x="407.13" y="772.17" width="192.37" height="91.09" rx="2.95"/><path class="cls-7" d="M524.89,717.22a21.66,21.66,0,1,0-21.66,21.66A21.66,21.66,0,0,0,524.89,717.22Z" transform="translate(0.08 92.29)"/><path class="cls-12" d="M517.06,716.88,497.18,705.4a.39.39,0,0,0-.59.34v23a.39.39,0,0,0,.59.33l19.88-11.47A.39.39,0,0,0,517.06,716.88Z" transform="translate(0.08 92.29)"/><path class="cls-7" d="M590.29,758.33A3.68,3.68,0,0,1,586.6,762H419.86a3.69,3.69,0,1,1,0-7.38H586.6A3.7,3.7,0,0,1,590.29,758.33Z" transform="translate(0.08 92.29)"/><path class="cls-13" d="M513.66,754.63V762h-93.8a3.69,3.69,0,1,1,0-7.38Z" transform="translate(0.08 92.29)"/><path class="cls-7" d="M708.9,683.83H633.26a3.16,3.16,0,0,1-3.15-3.16h0a3.15,3.15,0,0,1,3.15-3.15H708.9a3.15,3.15,0,0,1,3.15,3.15h0A3.16,3.16,0,0,1,708.9,683.83Z" transform="translate(0.08 92.29)"/><path class="cls-7" d="M677.39,696.75H633.26a3.16,3.16,0,0,1-3.15-3.16h0a3.15,3.15,0,0,1,3.15-3.15h44.13a3.15,3.15,0,0,1,3.15,3.15h0A3.16,3.16,0,0,1,677.39,696.75Z" transform="translate(0.08 92.29)"/><path class="cls-7" d="M708.9,696.75H690a3.16,3.16,0,0,1-3.15-3.16h0a3.15,3.15,0,0,1,3.15-3.15H708.9a3.15,3.15,0,0,1,3.15,3.15h0A3.16,3.16,0,0,1,708.9,696.75Z" transform="translate(0.08 92.29)"/><path class="cls-7" d="M708.9,709.67H633.26a3.15,3.15,0,0,1-3.15-3.15h0a3.15,3.15,0,0,1,3.15-3.15H708.9a3.15,3.15,0,0,1,3.15,3.15h0A3.15,3.15,0,0,1,708.9,709.67Z" transform="translate(0.08 92.29)"/><path class="cls-7" d="M708.9,722.59H665.2a3.15,3.15,0,0,1-3.15-3.15h0a3.15,3.15,0,0,1,3.15-3.15h43.7a3.15,3.15,0,0,1,3.15,3.15h0A3.15,3.15,0,0,1,708.9,722.59Z" transform="translate(0.08 92.29)"/><path class="cls-7" d="M652.17,722.59h-18.7a3.15,3.15,0,0,1-3.15-3.15h0a3.15,3.15,0,0,1,3.15-3.15h18.7a3.15,3.15,0,0,1,3.15,3.15h0A3.15,3.15,0,0,1,652.17,722.59Z" transform="translate(0.08 92.29)"/><path class="cls-7" d="M708.9,735.51H633.26a3.15,3.15,0,0,1-3.15-3.15h0a3.15,3.15,0,0,1,3.15-3.15H708.9a3.15,3.15,0,0,1,3.15,3.15h0A3.15,3.15,0,0,1,708.9,735.51Z" transform="translate(0.08 92.29)"/><path class="cls-7" d="M708.8,748.18H693.4a3.15,3.15,0,0,1-3.15-3.15h0a3.15,3.15,0,0,1,3.15-3.15h15.4A3.15,3.15,0,0,1,712,745h0A3.15,3.15,0,0,1,708.8,748.18Z" transform="translate(0.08 92.29)"/><path class="cls-7" d="M683.58,748.18H668.19A3.16,3.16,0,0,1,665,745h0a3.16,3.16,0,0,1,3.16-3.15h15.39a3.15,3.15,0,0,1,3.15,3.15h0A3.15,3.15,0,0,1,683.58,748.18Z" transform="translate(0.08 92.29)"/><path class="cls-7" d="M656.9,748.18H633.37a3.15,3.15,0,0,1-3.16-3.15h0a3.15,3.15,0,0,1,3.16-3.15H656.9a3.15,3.15,0,0,1,3.15,3.15h0A3.15,3.15,0,0,1,656.9,748.18Z" transform="translate(0.08 92.29)"/><path class="cls-14" d="M615.24,566.06c-.21.09-6.64-.15-8.62,1.77-1.1,1.08-9.93-1-11.25.06a31.11,31.11,0,0,1-2.87,1.92c-1-.34-7.43-2.61-8.66-11.18,2.09-.23-3.05-1.5-3.05-1.5,1.64-.63,4.18-.79,1.71-3.43-.51-.55-.27-1.62,0-2.37.37-1.09,1.17-1.83,1.78-.93,3,4.29,6.18,3.27,9.4,6.48.19.17,16.89,4.15,17.4,3.88C614.66,558.67,618.8,564.35,615.24,566.06Z" transform="translate(0.08 92.29)"/><path class="cls-15" d="M660.55,771.11a108.71,108.71,0,0,0-2.66-11.59l-6.68.89s-1.44,2.34-6.46,3.82-11,.24-13.92,1.4c-1.72.66-2.45,3.72-2.78,6.19-.07.55-.12,1.06-.15,1.52a1.66,1.66,0,0,0,1.67,1.78c6.61,0,29.71-.24,30.84-1.13C660.75,773.73,660.75,772.61,660.55,771.11Z" transform="translate(0.08 92.29)"/><path class="cls-16" d="M649.35,750.44l1,10.71a3.79,3.79,0,0,0,3.62,3.44h0a3.79,3.79,0,0,0,4-3.73l.18-10.43Z" transform="translate(0.08 92.29)"/><path class="cls-15" d="M625.4,743.44a109.31,109.31,0,0,0-5.19-10.7l-6.3,2.36s-.88,2.6-5.45,5.16-10.63,2.69-13.26,4.48c-1.52,1-1.55,4.17-1.32,6.65.06.55.12,1.07.19,1.52a1.67,1.67,0,0,0,2,1.36c6.43-1.51,28.9-6.88,29.8-8C626.18,746,625.93,744.86,625.4,743.44Z" transform="translate(0.08 92.29)"/><path class="cls-14" d="M609.86,725.79,613.21,736a3.79,3.79,0,0,0,4.3,2.55h0a3.79,3.79,0,0,0,3-4.52l-2.15-10.21Z" transform="translate(0.08 92.29)"/><path class="cls-17" d="M729.49,618.65s6.7,14.39-8.7,29.13-46.7,40-48.77,46.05-9.33,61.67-9.33,61.67-12.77.67-16.88,0,.88-59.7,2.13-67.72S682.71,638,682.71,638s-27.07,18.39-50,39.46a11,11,0,0,0-3,4.72c-4.59,14.07-5.63,33.45-7,46.17-4.93,3.63-15.4,1.75-15.4,1.75s-3.69-52.95,6-66.87c20.25-29.14,65.47-54,65.47-54Z" transform="translate(0.08 92.29)"/><path class="cls-18" d="M676.07,531.56c7.25-5.87,22.68-.46,16.44,13.72S649.92,571.65,643.19,574s-34.52-2.16-40-4.14l.41-12.07,35.42,3.91S668.23,537.91,676.07,531.56Z" transform="translate(0.08 92.29)"/><path class="cls-19" d="M672.33,613l-4.08,2.52s6.77,13.87,62.69,8.3l-1.46-6.92Z" transform="translate(0.08 92.29)"/><path class="cls-11" d="M676.07,531.56l-4.65,3.78s-2.32,10.94-2.19,28.16l4.28-2Z" transform="translate(0.08 92.29)"/><path class="cls-3" d="M694,519.18s17.88,4.09,27.63,35,11.34,65.05,11.34,65.05-33.64,6.38-60.6-6.19c0,0-1.46-55.29,2-78.76C675.79,524,694,519.18,694,519.18Z" transform="translate(0.08 92.29)"/><path class="cls-14" d="M657.18,496s1.81,6.38,2.94,9.09-1,4.8-.79,5.72,2.8,1.62,2.8,1.62,4.34,7.52,7.8,8.5,7.3-2,7.3-2l3.22,6.58s3.06,10.43,14.52-6l-3.58-9.64s-.1-20.93-11.16-25.58S657.18,496,657.18,496Z" transform="translate(0.08 92.29)"/><path class="cls-20" d="M657.18,494.31a17.12,17.12,0,0,0,1.1,5.34s8.6-.73,12.65-3.32,9.62-3.78,10.35-2l-.56-7.2L675,484.3l-17.8,7.2Z" transform="translate(0.08 92.29)"/><path class="cls-10" d="M662.48,742.83v88.65c0,2.55-4.39,9.06-10.06,9.06L526.36,836.1a4.62,4.62,0,0,1-4.62-4.62l-5.26-85.43c0-2.55,6.08-7.84,9.88-7.84h131.5A4.62,4.62,0,0,1,662.48,742.83Z" transform="translate(0.08 92.29)"/><path class="cls-19" d="M682.71,638s-51,36.87-53,44.18-7,46.17-7,46.17-1.2,1.51-4.84,1.87c0,0,4-45.59,9.86-52.74S682.71,638,682.71,638Z" transform="translate(0.08 92.29)"/><path class="cls-21" d="M679.92,490.78c1.41,1.64,0,6.3,1.2,6.76.74-1.85,2.78-3.7,4.51-2.3,2.19,1.76,1.67,4.56-2.24,6.34-.12,1.76,7.13,6.93,8,8.27,0,0,3-13.35-1.59-26.13-4.1-11.32-23.51-13.17-27.46-10.66l3.19,1.54s-15.8-.7-17.86,11.17a13.82,13.82,0,0,0,2.38-.91s-5.64,6.49-2.82,12.8c0,0,4-2.63,7.43-1.51,3.13,1,15.24-3.64,19-6.52a3.83,3.83,0,0,1,3.19-.68A6.81,6.81,0,0,1,679.92,490.78Z" transform="translate(0.08 92.29)"/><path class="cls-10" d="M653.62,750.91h-2l-129.61,0,64.4-192.07a2.19,2.19,0,0,1,2.19-1.56,2.27,2.27,0,0,1,2.16,1.58Zm-127.54-3,123.47,0-61-186.3Z" transform="translate(0.08 92.29)"/><rect class="cls-18" x="516.38" y="834.94" width="140.74" height="97.88" rx="4.62"/><path class="cls-14" d="M589.33,558.39c.77,2.21-2.3,2.44-2.87,2.49.67,0,5.3,0,4.79,1.61s-3.44,2.83-3.76,3c.54-.15,5.47-1.49,4.74.22a3.89,3.89,0,0,1-2.93,2,14.43,14.43,0,0,1,3.45.39c.57.19.85.46.46.87-1.21,1.26-7.51,2-8.49.61a8.57,8.57,0,0,1-.57-1.33c-3.08-.28-2.35-2.86-2.35-2.86-2.64-1.52-.68-4.4-.68-4.4-2-1.08-.94-3-.45-3.72.06-.06.07-.12.12-.14S588.61,556.29,589.33,558.39Z" transform="translate(0.08 92.29)"/><path class="cls-22" d="M706,541.25s3.3,10.2,0,16-21.86,30.55-25.74,32.57a87.57,87.57,0,0,1-8.19,3.67V586.9Z" transform="translate(0.08 92.29)"/><path class="cls-14" d="M626.71,593.49l.12-7.49s-7.25.83-9.72.75a10.93,10.93,0,0,1-4.21-3.21c-2.36-3.51-4.15-6.2-7.72-7s-6.19,1.43-7.52,2.53c-1,.79-2.62,2.94-2.29,3.37s1.55.32,1.86.23c1.09-.3,1.6-1.39,2.65-1.84a14.19,14.19,0,0,1,3.12-.41,19.54,19.54,0,0,0-3.22,1.86,8.78,8.78,0,0,0-2.55,3.22,3.29,3.29,0,0,0-.26,2.71c.13.31,1-.23,1.3-1a8.62,8.62,0,0,1,1.62-2.47,4.85,4.85,0,0,0-.67,2.3c0,1.1.86,3.41,1.19,1.6a5.58,5.58,0,0,1,1.32-3,9,9,0,0,1,2.15-1.07c-.86.81-3.06,3.81-1.52,4.65.32.18.64-.64,1.08-1.21s2.39-2.23,4.82,1c4,5.27,7.46,4,7.46,4Z" transform="translate(0.08 92.29)"/><path class="cls-18" d="M687.21,539.72c5.58-7.47,21.87-6,19.31,9.25s-27.38,36.83-33.34,40.72-49.56,5.55-55.31,5l.19-9.33L665,578.69S681.17,547.82,687.21,539.72Z" transform="translate(0.08 92.29)"/><path class="cls-20" d="M677.23,518.91a38.09,38.09,0,0,0,6-4.35s-2.65,5.32-4.64,7.05Z" transform="translate(0.08 92.29)"/><path class="cls-23" d="M440,631.35a27.77,27.77,0,1,1-27.77-27.77A27.77,27.77,0,0,1,440,631.35Z" transform="translate(0.08 92.29)"/><path class="cls-7" d="M424.76,624.74a6.57,6.57,0,0,0-4.38,1.7l-8.62-6a6.68,6.68,0,1,0-1.78,2.56l8.62,6a6.36,6.36,0,0,0,0,4.7l-8.62,6a6.54,6.54,0,0,0-4.38-1.7,6.61,6.61,0,1,0,6.61,6.61,6.55,6.55,0,0,0-.45-2.35l8.62-6a6.6,6.6,0,1,0,4.38-11.53Zm-19.16-3.11a3.5,3.5,0,1,1,3.49-3.5A3.5,3.5,0,0,1,405.6,621.63Zm0,26.43a3.49,3.49,0,1,1,3.49-3.49A3.5,3.5,0,0,1,405.6,648.06Zm19.16-13.22a3.49,3.49,0,1,1,3.49-3.49A3.49,3.49,0,0,1,424.76,634.84Z" transform="translate(0.08 92.29)"/><circle class="cls-24" cx="483.56" cy="666.88" r="36.84"/><path class="cls-7" d="M488.13,553.17a16.83,16.83,0,0,0-14.41,25.57l-11.45,10.11a3.49,3.49,0,0,0,4.62,5.23l11.6-10.24a16.72,16.72,0,0,0,9.64,3.06,16.87,16.87,0,1,0,0-33.73Zm0,28.49A11.63,11.63,0,1,1,499.77,570,11.65,11.65,0,0,1,488.13,581.66Z" transform="translate(0.08 92.29)"/><path class="cls-7" d="M488.61,560.57a9.85,9.85,0,0,0-9.83,9.84,1.53,1.53,0,0,0,3.06,0,6.78,6.78,0,0,1,6.77-6.78,1.53,1.53,0,0,0,0-3.06Z" transform="translate(0.08 92.29)"/><path class="cls-17" d="M315.18,887l-6.5-7.42a59.21,59.21,0,0,1,76.95-.88l-6.31,7.55a49.32,49.32,0,0,0-64.14.75Z" transform="translate(0.08 92.29)"/><path class="cls-17" d="M326.62,903.83l-6.49-7.41a41.57,41.57,0,0,1,54-.63l-6.32,7.56a31.71,31.71,0,0,0-41.21.48Z" transform="translate(0.08 92.29)"/><path class="cls-17" d="M357.16,914a10,10,0,1,0-10,10A10,10,0,0,0,357.16,914Z" transform="translate(0.08 92.29)"/><path class="cls-11" d="M435.57,914.38a122.41,122.41,0,0,1,18.16,31.88,1.28,1.28,0,0,1-1,1.53,23.35,23.35,0,0,1-6.83.35c-.51,0-1.16-.36-1.23-.92a73,73,0,0,0-11.6-31.84c-1.44-1.79-2.92-3.56-4.45-5.28C427.91,909.26,434.15,912.24,435.57,914.38Z" transform="translate(0.08 92.29)"/><path class="cls-5" d="M462,939.63c-.59-6.28-1.94-12.52-2.46-18.81C458,902.34,441,883.8,441.72,885c7.5,13.13,10.36,27.69,11.68,42.48-4-12.58-9.26-24.72-17.95-34.51-2.23-2.92-11.15-7.25-10.23-6.08a108.58,108.58,0,0,1,22.87,60.78,1.26,1.26,0,0,0,1.24,1.24,18,18,0,0,0,5.49-.86,1.24,1.24,0,0,0,2.2-.75v-.1c.17-.07.34-.13.51-.22a1.31,1.31,0,0,0,1.87,1.21C462.77,946.53,462.28,942.91,462,939.63Z" transform="translate(0.08 92.29)"/><path class="cls-11" d="M450.85,942.7c.5-6.29,1.65-12.52,2.09-18.81,1.3-18.48,15.73-37,15.14-35.82-6.38,13.13-8.81,27.69-9.93,42.49C461.56,918,466,905.83,473.43,896c1.89-2.91,9.49-7.25,8.71-6.08-11.65,17.51-18.38,38.6-19.47,60.78a1.18,1.18,0,0,1-1.06,1.24,13.23,13.23,0,0,1-4.67-.86,1,1,0,0,1-1.88-.74v-.11c-.14-.08-.29-.13-.43-.22,0,.83-.75,1.7-1.6,1.21C450.16,949.6,450.59,946,450.85,942.7Z" transform="translate(0.08 92.29)"/><path class="cls-11" d="M490,948c-.32-4.73-1.05-9.41-1.33-14.14-.82-13.9-9.94-27.83-9.58-26.93,4,9.87,5.58,20.81,6.29,31.94-2.16-9.46-5-18.59-9.67-26-1.19-2.19-6-5.45-5.51-4.57,7.37,13.16,11.63,29,12.32,45.69,0,.5.29.94.67.93a7.14,7.14,0,0,0,2.95-.64c.35.58,1.18.41,1.19-.56v-.08l.28-.17c0,.62.47,1.28,1,.91C490.42,953.16,490.15,950.44,490,948Z" transform="translate(0.08 92.29)"/><path class="cls-5" d="M461.8,925.06a49.14,49.14,0,0,0-2,5,44.91,44.91,0,0,0-2.54,11.53c-.38,1.94-.73,3.88-1,5.81a1.19,1.19,0,0,0,.26,1,1.35,1.35,0,0,0,1.23,1.59,12.22,12.22,0,0,0,4.51-.19,1.29,1.29,0,0,0,1.15-1,99.32,99.32,0,0,1,20.77-48.13C485.1,899.38,465.8,914.62,461.8,925.06Z" transform="translate(0.08 92.29)"/><path class="cls-5" d="M496.67,916.09a126.82,126.82,0,0,0-16.49,32.64,1.25,1.25,0,0,0,.95,1.49,21.53,21.53,0,0,0,6.56,0c.49-.07,1.1-.41,1.15-1A75.94,75.94,0,0,1,499.06,917c1.32-1.85,2.69-3.68,4.11-5.47C503.87,910.61,498,913.88,496.67,916.09Z" transform="translate(0.08 92.29)"/><path class="cls-21" d="M340.37,724.69c.49,3.72,3.59,14.64,9.13,14.14,4.63-.41,3-5.86,2.19-8.48-1.22-3.78.69-5.45.13-9-.29-1.86-1.64-2.56-1.91-4.92-.34-2.91.72-6.15,1.59-8.95a1,1,0,0,1,.08-.14c.78-1.46-1.31-2.75-2.21-1.51a1.35,1.35,0,0,0-.37.58h0C345.41,712.81,339.28,716.51,340.37,724.69Z" transform="translate(0.08 92.29)"/><path class="cls-25" d="M381,948.83s7.85,7.94,7.84,13.6S374.17,955,374.17,955s-2.3,3.39-3.11,3.39.07-8.41,3.13-11S381,948.83,381,948.83Z" transform="translate(0.08 92.29)"/><path class="cls-14" d="M382.44,938.8l-2.73,9.06s4.71,6.63,2.68,8.57-9.5-7.31-9.5-7.31l1.3-10.34Z" transform="translate(0.08 92.29)"/><path class="cls-25" d="M410.31,930.36s7.86,7.93,7.84,13.59-14.67-7.48-14.67-7.48-2.29,3.39-3.1,3.39.06-8.41,3.12-11S410.31,930.36,410.31,930.36Z" transform="translate(0.08 92.29)"/><path class="cls-14" d="M411.75,920.33,409,929.39s4.7,6.63,2.67,8.56-9.5-7.3-9.5-7.3l1.3-10.35Z" transform="translate(0.08 92.29)"/><path class="cls-18" d="M416.48,924s-8,1-13.42-.33a9.35,9.35,0,0,1-3.32-1.43c-1.16-10.77.06-38.2-5.69-51.75,0-.09-.06-.17-.08-.25a11.28,11.28,0,0,0-.79-1.64.11.11,0,0,0,0-.09,18.25,18.25,0,0,0-1-1.64c-12.4-18-35.67-33.7-38.13-35.29.22.21.57.54,1.11,1a6,6,0,0,0,.46.4c2.51,2.11,7.45,6.38,12.9,11.56.44.43.92.84,1.38,1.27,8.7,8.29,18.28,18.49,21.28,25.68,3.78,9-2.59,71.3-6.4,71.93-2.62.43-9.1.26-12.85.13-1.68,0-2.81-.11-2.81-.11s1.65-60.72-.27-66.31c-.43-1.24-2.59-2.89-5.86-4.89l-.05,0c-11.53-7-36.78-18-47.9-28.65-14.31-13.64-8.13-27-8.13-27L354,807.73s40.18,18.55,59,45.55C422,866.18,416.48,924,416.48,924Z" transform="translate(0.08 92.29)"/><path class="cls-26" d="M343.85,732.78c-8.19-2.8-16.92,3.63-9.52,16s21,37.19,29.19,44.12c5.05,4.26,36.59,23.17,41.36,20.72l-3.33-8-23.29-17.4a30.5,30.5,0,0,1-10-12.91C362.89,762.06,352.16,735.63,343.85,732.78Z" transform="translate(0.08 92.29)"/><path class="cls-27" d="M358.47,810S317.15,824.79,305.58,823a18,18,0,0,0,.75,6.65s44.84-6,55.49-17.18Z" transform="translate(0.08 92.29)"/><path class="cls-28" d="M329.94,724.87s-16.81,6.08-22.18,35.67-5,63.51-5,63.51,28.81,5.63,58.1-15.3c-16-25.11,1.18-39.23-3.19-57.68-2-8.32-5.57-12.1-9-16.48C341.82,726,329.94,724.87,329.94,724.87Z" transform="translate(0.08 92.29)"/><polygon class="cls-17" points="369.22 912.49 345.99 910.71 367.19 919.93 369.22 912.49"/><polygon class="cls-7" points="345.99 910.71 345.88 912.13 367.12 921.96 367.19 919.93 345.99 910.71"/><polygon class="cls-17" points="415.26 923.61 367.19 919.93 367.12 921.96 415.22 925.34 415.26 923.61"/><path class="cls-26" d="M338.56,743c-6-6.24-16.71-3.61-16.7,10.76s3.57,33.25,8.79,41.36c3.57,5.55,39.47,25.6,44.69,24.4L374.08,811l-27.65-19.64a12.86,12.86,0,0,1-4.1-9.06C342,772.36,343.45,748.08,338.56,743Z" transform="translate(0.08 92.29)"/><path class="cls-7" d="M415.18,831.33l-48.08-3.69,10.38-38a1.91,1.91,0,0,1,2-1.4l44.21,3.39a1.9,1.9,0,0,1,1.69,2.4Z" transform="translate(0.08 92.29)"/><path class="cls-14" d="M328.4,715.27s-.11,7.79-2.34,11.79c0,0,9,7.58,17.1,2.67,0,0-2.16-12.66,0-16.27S328.4,715.27,328.4,715.27Z" transform="translate(0.08 92.29)"/><path class="cls-14" d="M353.25,708.27c-4.13,9.65-14.07,14.65-22.22,11.16s-11.39-14.12-7.26-23.77S337.84,681,346,684.49,357.38,698.62,353.25,708.27Z" transform="translate(0.08 92.29)"/><path class="cls-20" d="M354.87,702.31s1-4.39-.92-10.86-6.79-1-6.79-1S354,696.46,354.87,702.31Z" transform="translate(0.08 92.29)"/><path class="cls-25" d="M344.82,688.06s11.95,3.39,11.85,13.35c0,0,11.85-11,.83-18.37C349.45,677.64,344.82,688.06,344.82,688.06Z" transform="translate(0.08 92.29)"/><path class="cls-25" d="M332.49,708.77a3.36,3.36,0,0,1-3.15-1.47c-1.8-2.4,1.3-7.92,5.87-3.14A20.38,20.38,0,0,0,350,690.55s1.41-11.49-14.59-12.32c-18.52-1-21.1,24.07-14.53,33.37a27.11,27.11,0,0,0,7.28,7.34C332.15,716.58,332.49,708.77,332.49,708.77Z" transform="translate(0.08 92.29)"/><path class="cls-14" d="M353.19,703.8a43.23,43.23,0,0,0,.73,9.2c.49,2-4.94-.77-4.94-.77Z" transform="translate(0.08 92.29)"/><path class="cls-21" d="M292.61,732.8c.91,3.29-.18,7.81,3.46,9.8s7.8.18,11.47,2.25c1.9,1.07,2.7,3,5,3.64s3.68-.61,5.79-1.18c9.23-2.45,6.85,1,11.27.75,1.08-.06,2.82-1.65,3.69-2.08,2-1,4.81-.23,6.41-2,1.18-1.31.63-4,.11-4.86-3.23-5.32-.5-6.27-.95-10-.55-4.46-3.14-5.46-5.66-7.56-3.6-6.7-.08-11.14-.68-12.83-4,2.61-4.95,1.25-6.74-2.17-3.71-7-2-19.32,6.58-21.79,1.64-.48,3.77.14,5.57-.37a15.27,15.27,0,0,0,4.89-2.52,6.18,6.18,0,0,1,2.79,3.06c.63,1.6,3.24.89,2.6-.72-2.3-5.83-11.41-8.59-17.17-7.13a15.9,15.9,0,0,0-3.75,2c-2.53,1.38-5.66,1.61-8.13,2.82-2.84,1.38-3.18,2.71-4,5.47-1.12,3.59-2.61,5.49-4.95,8.22a11.65,11.65,0,0,0-1.8,2.48c-.79,1.62-.55,3-.88,4.78-.72,3.72-2.07,4.9-4.86,6.84a6.68,6.68,0,0,0-3.28,4.83,17.72,17.72,0,0,0,.14,2.83,17.85,17.85,0,0,1-2.4,4.22c-.44.45-.85.87-1.16,1.22-.7.77-1.51,1-2,2.07,0,.1-.06.24-.1.36C291.92,727.49,291.64,729.28,292.61,732.8Z" transform="translate(0.08 92.29)"/><path class="cls-20" d="M342.2,719.42s-2.73,1.31-8,.94c0,0,2.32,2.45,8,1.45Z" transform="translate(0.08 92.29)"/><path class="cls-27" d="M355.14,832.54c2.32,1.94,7.56,6.43,13.36,12C362.65,839.21,357.46,834.62,355.14,832.54Z" transform="translate(0.08 92.29)"/><path class="cls-27" d="M403.06,923.66a9.35,9.35,0,0,1-3.32-1.43c-1.16-10.77.06-38.2-5.69-51.75,0-.09-.06-.17-.08-.25a3.43,3.43,0,0,0-.22-.75,4.56,4.56,0,0,0-.57-.89.11.11,0,0,0,0-.09,18.25,18.25,0,0,0-1-1.64c-12.4-18-35.67-33.7-38.13-35.29l-.16-.11,0,0s4.08-1.67,7-.54,33.48,24.41,37.31,35.05C401.5,875.31,404.5,912.3,403.06,923.66Z" transform="translate(0.08 92.29)"/><path class="cls-27" d="M371.58,880.22c.25,2.73,2.81,49.9.33,63.29-1.68,0-2.81-.11-2.81-.11s1.65-60.72-.27-66.31c-.43-1.24-2.59-2.89-5.86-4.89.73.27,7.69,2.78,12.37,1.79C375.34,874,371.29,877.36,371.58,880.22Z" transform="translate(0.08 92.29)"/><path class="cls-26" d="M355.41,774.82s-3,3.31-9.26,4.89a21.08,21.08,0,0,0,8.3,0Z" transform="translate(0.08 92.29)"/></svg>