<svg id="Layer_1" data-name="Layer 1" xmlns="http://www.w3.org/2000/svg" xmlns:xlink="http://www.w3.org/1999/xlink" viewBox="0 0 1080 1080"><defs><style>.cls-1{fill:none;}.cls-2{fill:#f3f8ff;}.cls-3{fill:#fffaf8;}.cls-4{fill:#e6efff;}.cls-5{fill:#d9e8ff;}.cls-6{fill:#f3f9ff;}.cls-7{fill:#5f94ff;}.cls-8{fill:#c2d9f9;}.cls-9{fill:#1658a7;}.cls-10{fill:#b6d4ff;}.cls-11{fill:#0f62dd;}.cls-12{fill:#84b2ff;}.cls-13{fill:url(#Yellow);}.cls-14{fill:url(#Yellow-2);}.cls-15{fill:#fff;}.cls-16{fill:url(#Yellow-3);}.cls-17{fill:url(#Yellow-4);}.cls-18{fill:url(#Yellow-5);}.cls-19{fill:url(#Yellow-6);}.cls-20{fill:url(#Yellow-7);}.cls-21{fill:url(#Yellow-8);}.cls-22{fill:url(#Yellow-9);}.cls-23{fill:url(#Yellow-10);}.cls-24{fill:url(#Yellow-11);}.cls-25{fill:url(#Yellow-12);}.cls-26{fill:url(#Yellow-13);}.cls-27{fill:url(#Yellow-14);}.cls-28{fill:url(#Yellow-15);}.cls-29{fill:url(#Yellow-16);}.cls-30{fill:url(#Yellow-17);}.cls-31{fill:#f9c5ce;}.cls-32{fill:url(#Yellow-18);}.cls-33{fill:#fbb03b;}.cls-34{fill:url(#Yellow-19);}.cls-35{fill:url(#Yellow-20);}.cls-36{fill:#06063a;}.cls-37{fill:#2f7af4;}.cls-38{fill:#61a1ff;}.cls-39{fill:url(#Yellow-21);}.cls-40{fill:#ffdad7;}.cls-41{fill:#468af7;}.cls-42{fill:url(#linear-gradient);}.cls-43{fill:#4e89f2;}.cls-44{fill:#86b4ff;}.cls-45{fill:#d7e6ff;}.cls-46{clip-path:url(#clip-path);}.cls-47{fill:#4694f2;}.cls-48{clip-path:url(#clip-path-2);}.cls-49{clip-path:url(#clip-path-3);}.cls-50{clip-path:url(#clip-path-4);}</style><linearGradient id="Yellow" x1="577.41" y1="751.06" x2="593.12" y2="751.06" gradientUnits="userSpaceOnUse"><stop offset="0" stop-color="#fbb03b"/><stop offset="1" stop-color="#f9d015"/></linearGradient><linearGradient id="Yellow-2" x1="561.7" y1="760.75" x2="577.41" y2="760.75" xlink:href="#Yellow"/><linearGradient id="Yellow-3" x1="534.68" y1="739.74" x2="552.16" y2="739.74" xlink:href="#Yellow"/><linearGradient id="Yellow-4" x1="528.88" y1="759.98" x2="546.36" y2="759.98" xlink:href="#Yellow"/><linearGradient id="Yellow-5" x1="586.15" y1="815.65" x2="721.11" y2="815.65" xlink:href="#Yellow"/><linearGradient id="Yellow-6" x1="604.62" y1="823.99" x2="608.25" y2="823.99" xlink:href="#Yellow"/><linearGradient id="Yellow-7" x1="614.97" y1="833.23" x2="618.59" y2="833.23" xlink:href="#Yellow"/><linearGradient id="Yellow-8" x1="639.9" y1="812.29" x2="643.52" y2="812.29" xlink:href="#Yellow"/><linearGradient id="Yellow-9" x1="656.44" y1="836.67" x2="660.06" y2="836.67" xlink:href="#Yellow"/><linearGradient id="Yellow-10" x1="687.72" y1="805.77" x2="691.35" y2="805.77" xlink:href="#Yellow"/><linearGradient id="Yellow-11" x1="698.89" y1="809.6" x2="702.52" y2="809.6" xlink:href="#Yellow"/><linearGradient id="Yellow-12" x1="613.83" y1="803.27" x2="624.05" y2="803.27" xlink:href="#Yellow"/><linearGradient id="Yellow-13" x1="615" y1="798.25" x2="634.71" y2="798.25" xlink:href="#Yellow"/><linearGradient id="Yellow-14" x1="677.09" y1="760.82" x2="698.38" y2="760.82" xlink:href="#Yellow"/><linearGradient id="Yellow-15" x1="705.99" y1="760.82" x2="726.75" y2="760.82" xlink:href="#Yellow"/><linearGradient id="Yellow-16" x1="615.13" y1="760.82" x2="636.42" y2="760.82" xlink:href="#Yellow"/><linearGradient id="Yellow-17" x1="644.03" y1="760.82" x2="664.78" y2="760.82" xlink:href="#Yellow"/><linearGradient id="Yellow-18" x1="509.05" y1="638.04" x2="574.93" y2="638.04" xlink:href="#Yellow"/><linearGradient id="Yellow-19" x1="403.5" y1="634.49" x2="471.66" y2="634.49" xlink:href="#Yellow"/><linearGradient id="Yellow-20" x1="474.8" y1="699.93" x2="499.38" y2="699.93" xlink:href="#Yellow"/><linearGradient id="Yellow-21" x1="476.41" y1="630.92" x2="499.97" y2="630.92" xlink:href="#Yellow"/><linearGradient id="linear-gradient" x1="335.45" y1="724.66" x2="411.09" y2="724.66" xlink:href="#Yellow"/><clipPath id="clip-path"><polygon class="cls-1" points="914.09 1078.35 1014.31 1080 1017.68 875.72 875.65 896.75 914.09 1078.35"/></clipPath><clipPath id="clip-path-2"><polygon class="cls-1" points="599 1079.21 694.03 1079.21 694.03 970.72 578.52 989.77 599 1079.21"/></clipPath><clipPath id="clip-path-3"><polygon class="cls-1" points="166.16 1078.35 65.68 1080 62.31 875.72 204.69 896.75 166.16 1078.35"/></clipPath><clipPath id="clip-path-4"><polygon class="cls-1" points="482.02 1079.21 386.75 1079.21 386.75 970.72 502.54 989.77 482.02 1079.21"/></clipPath></defs><title>lp-on-page</title><path class="cls-2" d="M329.37,172.4c-26-31.34,5.4-72.35-32-93.21-35.12-19.59-95.87,32.36-129.07,25.58-30-6.12-26.08-75.15-54.65-85.24C72.45,5,37.4,30,1.08,6.83V253.7c44.79,19.64,87.57-45.09,186.08-11.13,11.46,4,42.87,34,83.28,32.7,23.25-.77,46.53-22,56.33-32.29,8.37-8.75,88.37,12.89,88.37-13C415.14,209.29,343.64,189.61,329.37,172.4Z"/><path class="cls-2" d="M751.62,156.2c25.86-31.34-5.38-72.35,31.82-93.21,34.95-19.59,95.42,32.36,128.47,25.58,29.84-6.12,26-75.15,54.39-85.24,41-14.57,75.93,10.46,112.08-12.7V237.5c-44.59,19.64-87.17-45.09-185.22-11.13-11.4,3.95-42.67,34-82.89,32.7-23.14-.77-46.31-22-56.06-32.29-8.33-8.75-88,12.89-88-13C666.24,193.09,737.42,173.41,751.62,156.2Z"/><path class="cls-2" d="M819.35-23.81a15.5,15.5,0,0,0-15.5,15.5A15.5,15.5,0,0,0,819.35,7.2,15.5,15.5,0,0,0,834.86-8.31,15.5,15.5,0,0,0,819.35-23.81Z"/><path class="cls-3" d="M762.88,298.16a15.51,15.51,0,1,0-12,28.59c7.89,3.32,24.51,3.45,27.83-4.44S770.77,301.48,762.88,298.16Z"/><path class="cls-2" d="M884.88,362.47a19.42,19.42,0,1,0,19.42,19.42A19.42,19.42,0,0,0,884.88,362.47Z"/><path class="cls-4" d="M994,652q-22.39-31.92-47.71-61.78c-4.29-5.07-11.58-2.59-14.85,1.92q-19.63,27.06-39.31,54.14-8.75,12.06-17.49,24.11c-4.62,6.34-9.21,12.69-13.83,19-5.48,7.51-6.77,12-15.68,6-12-8.13-21.88-19.23-30.46-30.78-29.32-39.42-54.75-82.22-77.82-125.74-4.66-8.75-9.2-17.55-13.66-26.33-11.74-23.14-23.89-46.19-39.9-66.74-6.62-8.51-15.36-21.87-25.73-26-10.15-4-15.69,4.73-21,12-22.27,30.62-44.55,61.43-64.82,93.45-11.26,17.79-21.93,35.94-31.65,54.65V939.78h540V806A859.66,859.66,0,0,0,994,652Z"/><path class="cls-5" d="M723.19,512.56c-11.74-23.14-23.89-46.19-39.9-66.74-6.62-8.51-15.36-21.87-25.73-26-10.15-4-15.69,4.73-21,12-22.27,30.62-44.55,61.43-64.82,93.45q1,14.25,3.34,28.48c1.13,7,11.29,9,15.8,4.16a35.53,35.53,0,0,0,7-11.07Q607,578,613.39,610c1.78,9,16.47,9,18.22,0,4-20.66,2.78-42.72,5.24-63.83,3.83,11.37,9.29,21.74,18.66,27.4,4.8,2.92,12.85.44,13.87-5.64l2.41-14.12q6.51,14.94,13,29.86c3.41,7.83,15.23,4.92,17.28-2.24l11.37-39.53c8.16,5.16,19.06,7.94,23.43-3C732.19,530.14,727.65,521.34,723.19,512.56Z"/><path class="cls-5" d="M989.47,653.34A10.53,10.53,0,0,0,994,652q-22.39-31.92-47.71-61.78c-4.29-5.07-11.58-2.59-14.85,1.92q-19.63,27.06-39.31,54.14a9.89,9.89,0,0,0,7.16,3.16q.45,9.68.86,19.35c.41,8.72,9.5,11.51,15.85,6.89q5.5,16,11,31.91c1.94,5.62,8.4,9,13.88,5.65a20.91,20.91,0,0,0,10.18-13.85,12.75,12.75,0,0,0,.27-1.79c.13.33.3.62.43,1,3.46,8.1,15,4.58,17.28-2.27q2.6-7.74,5.16-15.47c6.29,3.88,14.12.16,14.74-7.67a41.22,41.22,0,0,0-1-12.21,8.54,8.54,0,0,0,1.7-5.5C989.55,654.74,989.49,654,989.47,653.34Z"/><path class="cls-5" d="M857.71,693.81s-51,88.18-63.55,94,11.35-21.15,14.45-28.61-9.69-12.1-15.89-11.58,52.41-52.18,52.41-52.18S849.25,698.46,857.71,693.81Z"/><path class="cls-4" d="M87.16,655.21q22.4-31.92,47.71-61.78c4.29-5.07,11.58-2.58,14.85,1.92q19.64,27.06,39.31,54.14,8.75,12.06,17.49,24.11c4.62,6.35,9.21,12.69,13.83,19,5.48,7.51,6.77,12,15.68,6,12-8.13,21.88-19.23,30.46-30.78,29.32-39.42,54.75-82.22,77.82-125.74,4.66-8.75,9.2-17.55,13.66-26.33,11.74-23.14,23.89-46.19,39.9-66.74,6.62-8.51,15.36-21.87,25.73-26,10.15-4.05,15.69,4.72,21,12,22.27,30.62,44.55,61.43,64.83,93.45,11.25,17.8,21.92,35.94,31.64,54.65V943H1.08V809.19A859.66,859.66,0,0,1,87.16,655.21Z"/><path class="cls-5" d="M358,515.78c11.74-23.14,23.89-46.19,39.9-66.74,6.62-8.51,15.36-21.87,25.73-26,10.15-4.05,15.69,4.72,21,12,22.27,30.62,44.55,61.43,64.83,93.45-.68,9.51-1.81,19-3.35,28.48-1.13,7-11.29,9-15.8,4.17a35.69,35.69,0,0,1-7-11.08q-9.12,31.18-15.53,63.13c-1.78,9-16.47,9-18.22,0-4-20.66-2.78-42.72-5.24-63.83-3.83,11.37-9.29,21.74-18.66,27.41-4.8,2.91-12.85.43-13.87-5.65L409.37,557q-6.51,15-13,29.86c-3.41,7.84-15.23,4.92-17.28-2.24l-11.37-39.52c-8.15,5.15-19.06,7.94-23.43-3C349,533.36,353.51,524.56,358,515.78Z"/><path class="cls-5" d="M91.69,656.56a10.53,10.53,0,0,1-4.53-1.35q22.4-31.92,47.71-61.78c4.29-5.07,11.58-2.58,14.85,1.92q19.64,27.06,39.31,54.14a9.85,9.85,0,0,1-7.16,3.16q-.45,9.68-.86,19.36c-.41,8.72-9.5,11.5-15.85,6.88q-5.5,16-11,31.92c-1.94,5.61-8.4,9-13.88,5.64a20.89,20.89,0,0,1-10.18-13.85,12.83,12.83,0,0,1-.27-1.78c-.13.32-.3.61-.43,1-3.46,8.1-15,4.59-17.28-2.27q-2.59-7.74-5.16-15.47c-6.29,3.88-14.12.16-14.74-7.67a41.5,41.5,0,0,1,1-12.2,8.59,8.59,0,0,1-1.7-5.51C91.61,658,91.67,657.26,91.69,656.56Z"/><path class="cls-5" d="M223.45,697S274.4,785.21,287,791s-11.35-21.15-14.45-28.61,9.69-12.1,15.89-11.58S236,698.63,236,698.63,231.91,701.68,223.45,697Z"/><path class="cls-6" d="M1026.46,800.71c-9.29,2-54.55,22.91-70.61,35.45-18,14-32.61.73-55.05,3.29-10.5,1.22-18,25.77-33,29.49-14.55-.68-28.79-18.88-35.38-18.9-21.36-.09-30.46,11.28-50.3,16.68-23,6.27-33.67-14.23-54-19.44-39.1-10-56.73,29.81-81.09,52.35-13.36,3.65-26.75,7-40.74,9.18-4.86.73-9.69,1.52-14.47,2.43-9.34-2-18.68-4.32-27.7-4.86-7.91-.48-17.23,1.14-24.06,5.62v37c22.25,16.26,76,12,93.12,12.18,25.11.22,50.25,0,75.28-2.11s49-5.4,73.68.57c23.28,5.62,44.93,10.67,69,11,23.73.35,47.58-.27,71.31-.54,50.43-.54,102.35-3.11,149.44-23,2.81-1.19,5.54-2.46,8.13-3.83V802.49A109.22,109.22,0,0,0,1026.46,800.71Z"/><path class="cls-5" d="M1078.19,834.24c-16.9,3.46-33.88,7.16-49.44,14.91-8.8,4.4-16.33,11.9-25.86,14.74s-20.06.89-29.84,1.08c-34.75.67-61.53,22.41-93.66,32.07C853,905,804,893.86,789.1,924.42c-13.5,27.7,35,17.14,68.47,17.33,38.67-1.19,101-5.43,110.73,4.31,12.61,12.59,9.91,72.19,28.81,83s51.89-11.83,60.13-11.31,22.84,17.6,22.84,17.6V834.05A9.32,9.32,0,0,0,1078.19,834.24Z"/><path class="cls-5" d="M895.66,490.46s27.86-10.78,52.86,5.41c0,0,22.3-19.37,52-11.27,0,0-41.9,9-52,22.95C948.52,507.55,932.57,489.55,895.66,490.46Z"/><path class="cls-5" d="M218,396s27.86-10.78,52.86,5.41c0,0,22.3-19.37,52-11.27,0,0-41.9,9-52,22.95C270.82,413.05,254.87,395.05,218,396Z"/><path class="cls-7" d="M737.05,920.44H444.38L503,735.52a7.82,7.82,0,0,1,7.46-5.47H777.15a7.83,7.83,0,0,1,7.57,9.83Z"/><path class="cls-8" d="M764.68,747.41l-27.1,102.71L723,905.41a4.51,4.51,0,0,1-4.4,3.38H468.06a4.55,4.55,0,0,1-4.34-5.92l11.2-35.37,14.34-45.27,24.51-77.36a4.58,4.58,0,0,1,4.35-3.16H760.28A4.55,4.55,0,0,1,764.68,747.41Z"/><rect class="cls-9" x="329.75" y="916.88" width="298.6" height="6.4"/><rect class="cls-10" x="628.15" y="916.88" width="109.89" height="6.4"/><path class="cls-11" d="M631.34,923.28H439s5.46,13.3,43.33,15.06h212c37.87-1.76,43.32-15.06,43.32-15.06Z"/><path class="cls-7" d="M628.15,923.28H329.75s5.46,13.3,43.33,15.06H585c35.11-1.63,42.35-13.18,43.22-14.85A1.91,1.91,0,0,1,628.15,923.28Z"/><path class="cls-10" d="M483.14,930.43h-44a7.15,7.15,0,0,1-7.15-7.15h58.33A7.15,7.15,0,0,1,483.14,930.43Z"/><rect class="cls-11" x="329.75" y="916.88" width="298.6" height="6.4"/><path class="cls-12" d="M499.1,863.23h213a10.27,10.27,0,0,0,9.23-7.17l37.47-130.67c1.13-4-1.15-7.17-5.12-7.17h-213a10.28,10.28,0,0,0-9.23,7.17L494,856.06C492.85,860,495.14,863.23,499.1,863.23Z"/><path class="cls-4" d="M491.83,868.42h213a10.28,10.28,0,0,0,9.23-7.17l37.46-130.66c1.14-4-1.15-7.18-5.11-7.18h-213a10.27,10.27,0,0,0-9.23,7.18L486.72,861.25C485.58,865.21,487.87,868.42,491.83,868.42Z"/><path class="cls-13" d="M577.41,753.23l7.76,10.56a21.22,21.22,0,0,0,7.33-10.56c2.16-7.51-1.54-13.73-8.37-14.9Z"/><path class="cls-14" d="M561.86,755.33c-1,6.92,3.07,12.34,9.94,12.94l5.61-15Z"/><path class="cls-15" d="M571,741.65a23.17,23.17,0,0,0-3.89,3.31,20.52,20.52,0,0,0-4.84,8.27,16.44,16.44,0,0,0-.45,2.1l15.55-2.1Z"/><path class="cls-7" d="M571,741.65l6.37,11.58,6.72-14.9a14.18,14.18,0,0,0-2.39-.2A19.48,19.48,0,0,0,571,741.65Z"/><path class="cls-12" d="M571.8,768.27c.41,0,.84.06,1.28.06a19.94,19.94,0,0,0,12.09-4.54l-7.76-10.56Z"/><polygon class="cls-16" points="550.23 743.11 534.68 743.11 536.61 736.37 552.16 736.37 550.23 743.11"/><polygon class="cls-12" points="547.33 753.23 531.78 753.23 533.71 746.49 549.26 746.49 547.33 753.23"/><polygon class="cls-17" points="544.42 763.35 528.88 763.35 530.81 756.6 546.36 756.6 544.42 763.35"/><polygon class="cls-7" points="541.52 773.47 525.98 773.47 527.91 766.72 543.46 766.72 541.52 773.47"/><path class="cls-8" d="M542.52,800.1h23.2a2.82,2.82,0,0,0,2.54-2h0a1.44,1.44,0,0,0-1.41-2h-23.2a2.83,2.83,0,0,0-2.54,2h0A1.44,1.44,0,0,0,542.52,800.1Z"/><path class="cls-8" d="M573.1,800.1h1a2.82,2.82,0,0,0,2.54-2h0a1.44,1.44,0,0,0-1.41-2h-1a2.82,2.82,0,0,0-2.54,2h0A1.44,1.44,0,0,0,573.1,800.1Z"/><path class="cls-8" d="M519.78,806.55H543a2.82,2.82,0,0,0,2.54-2h0a1.43,1.43,0,0,0-1.4-2H520.91a2.81,2.81,0,0,0-2.53,2h0A1.43,1.43,0,0,0,519.78,806.55Z"/><path class="cls-8" d="M550.36,806.55h1a2.82,2.82,0,0,0,2.54-2h0a1.44,1.44,0,0,0-1.41-2h-1a2.82,2.82,0,0,0-2.54,2h0A1.44,1.44,0,0,0,550.36,806.55Z"/><path class="cls-8" d="M521.63,800.1h13.1a2.82,2.82,0,0,0,2.53-2h0a1.43,1.43,0,0,0-1.4-2h-13.1a2.81,2.81,0,0,0-2.53,2h0A1.43,1.43,0,0,0,521.63,800.1Z"/><path class="cls-8" d="M559.12,806.55h13.09a2.82,2.82,0,0,0,2.54-2h0a1.44,1.44,0,0,0-1.41-2H560.25a2.82,2.82,0,0,0-2.54,2h0A1.44,1.44,0,0,0,559.12,806.55Z"/><path class="cls-8" d="M538.64,813.62h23.2a2.81,2.81,0,0,0,2.54-2h0a1.43,1.43,0,0,0-1.4-2h-23.2a2.82,2.82,0,0,0-2.54,2h0A1.43,1.43,0,0,0,538.64,813.62Z"/><path class="cls-8" d="M569.22,813.62h1a2.82,2.82,0,0,0,2.54-2h0a1.43,1.43,0,0,0-1.4-2h-1a2.83,2.83,0,0,0-2.54,2h0A1.44,1.44,0,0,0,569.22,813.62Z"/><path class="cls-8" d="M515.9,820.07h23.21a2.82,2.82,0,0,0,2.53-2h0a1.43,1.43,0,0,0-1.4-2H517a2.82,2.82,0,0,0-2.54,2h0A1.43,1.43,0,0,0,515.9,820.07Z"/><path class="cls-8" d="M546.48,820.07h1a2.82,2.82,0,0,0,2.53-2h0a1.43,1.43,0,0,0-1.4-2h-1a2.83,2.83,0,0,0-2.54,2h0A1.44,1.44,0,0,0,546.48,820.07Z"/><path class="cls-8" d="M517.75,813.62h13.1a2.81,2.81,0,0,0,2.53-2h0a1.43,1.43,0,0,0-1.4-2h-13.1a2.82,2.82,0,0,0-2.53,2h0A1.43,1.43,0,0,0,517.75,813.62Z"/><path class="cls-8" d="M555.24,820.07h13.1a2.82,2.82,0,0,0,2.53-2h0a1.43,1.43,0,0,0-1.41-2H556.37a2.83,2.83,0,0,0-2.54,2h0A1.44,1.44,0,0,0,555.24,820.07Z"/><path class="cls-8" d="M533.63,831.12h23.2a2.83,2.83,0,0,0,2.54-2h0a1.44,1.44,0,0,0-1.41-2h-23.2a2.83,2.83,0,0,0-2.54,2h0A1.44,1.44,0,0,0,533.63,831.12Z"/><path class="cls-8" d="M564.2,831.12h1a2.81,2.81,0,0,0,2.53-2h0a1.43,1.43,0,0,0-1.4-2h-1a2.82,2.82,0,0,0-2.54,2h0A1.43,1.43,0,0,0,564.2,831.12Z"/><path class="cls-8" d="M510.89,837.57h23.2a2.83,2.83,0,0,0,2.54-2h0a1.44,1.44,0,0,0-1.41-2H512a2.84,2.84,0,0,0-2.54,2h0A1.44,1.44,0,0,0,510.89,837.57Z"/><path class="cls-8" d="M541.46,837.57h1a2.81,2.81,0,0,0,2.53-2h0a1.43,1.43,0,0,0-1.4-2h-1a2.82,2.82,0,0,0-2.54,2h0A1.43,1.43,0,0,0,541.46,837.57Z"/><path class="cls-8" d="M512.74,831.12h13.09a2.83,2.83,0,0,0,2.54-2h0a1.44,1.44,0,0,0-1.41-2H513.87a2.83,2.83,0,0,0-2.54,2h0A1.44,1.44,0,0,0,512.74,831.12Z"/><path class="cls-8" d="M550.22,837.57h13.1a2.81,2.81,0,0,0,2.53-2h0a1.43,1.43,0,0,0-1.4-2H551.36a2.83,2.83,0,0,0-2.54,2h0A1.43,1.43,0,0,0,550.22,837.57Z"/><path class="cls-8" d="M529.75,844.64H553a2.82,2.82,0,0,0,2.54-2h0a1.44,1.44,0,0,0-1.41-2h-23.2a2.83,2.83,0,0,0-2.54,2h0A1.44,1.44,0,0,0,529.75,844.64Z"/><path class="cls-8" d="M560.33,844.64h1a2.82,2.82,0,0,0,2.54-2h0a1.44,1.44,0,0,0-1.41-2h-1a2.82,2.82,0,0,0-2.54,2h0A1.44,1.44,0,0,0,560.33,844.64Z"/><path class="cls-8" d="M507,851.09h23.2a2.82,2.82,0,0,0,2.54-2h0a1.44,1.44,0,0,0-1.41-2h-23.2a2.83,2.83,0,0,0-2.54,2h0A1.44,1.44,0,0,0,507,851.09Z"/><path class="cls-8" d="M537.59,851.09h1a2.82,2.82,0,0,0,2.54-2h0a1.44,1.44,0,0,0-1.41-2h-1a2.82,2.82,0,0,0-2.54,2h0A1.44,1.44,0,0,0,537.59,851.09Z"/><path class="cls-8" d="M508.86,844.64H522a2.82,2.82,0,0,0,2.54-2h0a1.44,1.44,0,0,0-1.41-2H510a2.83,2.83,0,0,0-2.54,2h0A1.44,1.44,0,0,0,508.86,844.64Z"/><path class="cls-8" d="M546.35,851.09h13.09a2.82,2.82,0,0,0,2.54-2h0a1.44,1.44,0,0,0-1.41-2H547.48a2.82,2.82,0,0,0-2.54,2h0A1.44,1.44,0,0,0,546.35,851.09Z"/><path class="cls-8" d="M678.2,739.62h50.31a4,4,0,0,0,3.56-2.76h0a2,2,0,0,0-2-2.77H679.78a4,4,0,0,0-3.56,2.77h0A2,2,0,0,0,678.2,739.62Z"/><path class="cls-8" d="M664.72,739.62h3.62a4,4,0,0,0,3.56-2.76h0a2,2,0,0,0-2-2.77h-3.61a4,4,0,0,0-3.56,2.77h0A2,2,0,0,0,664.72,739.62Z"/><path class="cls-8" d="M634.05,739.62h16.19a4,4,0,0,0,3.56-2.76h0a2,2,0,0,0-2-2.77H635.64a4,4,0,0,0-3.56,2.77h0A2,2,0,0,0,634.05,739.62Z"/><path class="cls-15" d="M701.55,852.07a5.31,5.31,0,0,0,.83-.33l16-55.8-1,.66L701.5,852.1Z"/><path class="cls-15" d="M699.64,852.17l15.43-53.81-.78.61-.23.21-15.2,53Z"/><path class="cls-15" d="M697,852.17l14.62-51c-.32.25-.64.46-1,.68l-14.43,50.3Z"/><path class="cls-15" d="M694.38,852.17,708,804.81l-1,.8-13.35,46.56Z"/><path class="cls-15" d="M691.76,852.17l12.87-44.87c-.32.22-.64.43-1,.62L691,852.17Z"/><path class="cls-15" d="M689.13,852.17,701.52,809a6.39,6.39,0,0,1-.84.24l-12.32,42.95Z"/><path class="cls-15" d="M686.51,852.17l12.34-43a6.76,6.76,0,0,1-.69-.29l-12.43,43.34Z"/><path class="cls-15" d="M683.88,852.17,696.55,808h0l-.67-.29-12.75,44.47Z"/><path class="cls-15" d="M681.26,852.17l13-45.29a6.64,6.64,0,0,1-.65-.43l-13.11,45.72Z"/><path class="cls-15" d="M678.63,852.17,692,805.48l-.26-.15a4.79,4.79,0,0,1-.58.37l-13.33,46.47Z"/><path class="cls-15" d="M676,852.17l12.93-45.11c-.33.24-.66.5-1,.77l-12.72,44.34Z"/><path class="cls-15" d="M673.38,852.17l12.1-42.2c-.34.32-.69.63-1,.94l-11.83,41.26Z"/><path class="cls-15" d="M670.76,852.17,682,813l-1.06,1L670,852.17Z"/><path class="cls-15" d="M668.13,852.17l10.21-35.61-1.1,1.14-9.88,34.47Z"/><path class="cls-15" d="M665.51,852.17l9.18-32-.39.35a7,7,0,0,1-.62.46l-8.95,31.21Z"/><path class="cls-15" d="M662.88,852.17l8.18-28.51a13,13,0,0,1-1.1,1.12l-7.86,27.39Z"/><path class="cls-15" d="M660.25,852.17,667.47,827l-.2.16c-.3.31-.6.63-.89,1l-6.9,24Z"/><path class="cls-15" d="M657.63,852.17l6-21.06c-.36.39-.73.76-1.1,1.13l-5.72,19.93Z"/><path class="cls-15" d="M655,852.17l4.89-17.07a3.9,3.9,0,0,1-1,.68l-4.7,16.39Z"/><path class="cls-15" d="M652.38,852.17l4.68-16.3a1.9,1.9,0,0,1-.65-.47l-4.81,16.77Z"/><path class="cls-15" d="M649.75,852.17l5.72-19.94c-.17-.3-.34-.59-.53-.87l-6,20.81Z"/><path class="cls-15" d="M647.13,852.17l6.53-22.76a7.46,7.46,0,0,1-.51-.92h0l-6.79,23.69Z"/><path class="cls-15" d="M644.5,852.17l7.23-25.2c-.18-.26-.37-.52-.56-.76l-7.44,26Z"/><path class="cls-15" d="M641.88,852.17l7.88-27.48-.6-.63-8.06,28.11Z"/><path class="cls-15" d="M639.25,852.17l8.55-29.8a9.39,9.39,0,0,1-.51-1l-8.81,30.75Z"/><path class="cls-15" d="M636.63,852.17l9.56-33.35c-.15-.35-.31-.69-.48-1l-9.86,34.39Z"/><path class="cls-15" d="M634,852.17l10.47-36.5c-.19-.24-.38-.47-.58-.68l-10.67,37.18Z"/><path class="cls-15" d="M631.38,852.17l11-38.2a3.51,3.51,0,0,0-.73-.16l-11,38.36Z"/><path class="cls-15" d="M628.75,852.17l10.9-38a8.48,8.48,0,0,0-.91.45L628,852.17Z"/><path class="cls-15" d="M626.13,852.17l10.31-36-1,.77-10.09,35.19Z"/><path class="cls-15" d="M623.5,852.17,633,819l-1,.91-9.25,32.25Z"/><path class="cls-15" d="M620.88,852.17l8.59-30-1.05,1-8.32,29Z"/><path class="cls-15" d="M618.25,852.17l7.66-26.72-1,.92-7.4,25.8Z"/><path class="cls-15" d="M615.62,852.17l6.82-23.75-1,.81-6.58,22.94Z"/><path class="cls-15" d="M613,852.17l6-21a4.24,4.24,0,0,1-1,.8l-5.79,20.18Z"/><path class="cls-15" d="M610.37,852.17,616,832.43a3.47,3.47,0,0,1-.74-.11l-5.69,19.85Z"/><path class="cls-15" d="M607.75,852.17l5.94-20.71a6.87,6.87,0,0,1-.61-.6L607,852.17Z"/><path class="cls-15" d="M605.12,852.17l6.58-22.94c-.18-.22-.37-.46-.58-.7l-6.77,23.64Z"/><path class="cls-15" d="M602.5,852.17l7.24-25.24a8.42,8.42,0,0,0-.61-.59l-7.41,25.83Z"/><path class="cls-15" d="M599.87,852.17l7.7-26.82a2.05,2.05,0,0,0-.37-.13c-.11,0-.25,0-.37,0l-7.74,27Z"/><path class="cls-15" d="M597.25,852.17l7.7-26.85c-.28.07-.57.17-.86.27l-7.62,26.58Z"/><path class="cls-15" d="M594.62,852.17,602,826.49l-.91.46-7.24,25.22Z"/><path class="cls-15" d="M592,852.17l6.87-24-.92.53-6.73,23.46Z"/><path class="cls-15" d="M589.37,852.17l6.33-22.06c-.32.21-.64.44-1,.67l-6.14,21.39Z"/><path class="cls-15" d="M586.75,852.17l5.68-19.81-.95.59L586,852.17Z"/><path class="cls-15" d="M583.61,851.51a1.06,1.06,0,0,0,.58.41l5.12-17.83a9,9,0,0,1-.87.3l-4.89,17.05S583.6,851.48,583.61,851.51Z"/><path class="cls-18" d="M721.11,793.24h0a6.41,6.41,0,0,1-2.25,3.2l-18.14,14.07-11-4.48-31.9,32-16.47-24.79-24.94,21.37-10.18-10-20.11,12.53h0a5,5,0,0,1,2.15-2.75l18.46-11.49,10.08,9.91,25.08-21.48L658.32,836l31.54-31.67,11.08,4.54Z"/><path class="cls-19" d="M608.17,824c.3-1.07-.22-1.94-1.18-1.94a2.64,2.64,0,0,0-2.28,1.94c-.31,1.07.22,1.94,1.17,1.94A2.66,2.66,0,0,0,608.17,824Z"/><path class="cls-20" d="M618.51,833.23a1.29,1.29,0,0,0-1.21-1.82,2.55,2.55,0,0,0-2.25,1.82,1.3,1.3,0,0,0,1.21,1.83A2.56,2.56,0,0,0,618.51,833.23Z"/><path class="cls-21" d="M643.44,812.29c.3-1-.24-1.86-1.2-1.86a2.58,2.58,0,0,0-2.26,1.86c-.3,1,.24,1.87,1.19,1.87A2.59,2.59,0,0,0,643.44,812.29Z"/><path class="cls-22" d="M660,836.67a1.3,1.3,0,0,0-1.2-1.84,2.57,2.57,0,0,0-2.26,1.84c-.29,1,.24,1.85,1.2,1.85A2.57,2.57,0,0,0,660,836.67Z"/><path class="cls-23" d="M691.26,805.77c.31-1.06-.22-1.92-1.18-1.92a2.65,2.65,0,0,0-2.28,1.92c-.3,1.07.22,1.93,1.18,1.93A2.62,2.62,0,0,0,691.26,805.77Z"/><path class="cls-24" d="M702.43,809.6c.31-1.05-.23-1.9-1.18-1.9a2.63,2.63,0,0,0-2.28,1.9c-.3,1,.23,1.91,1.19,1.91A2.63,2.63,0,0,0,702.43,809.6Z"/><polygon class="cls-15" points="666.23 804.39 613.83 804.39 614.35 802.15 666.75 802.15 666.23 804.39"/><polygon class="cls-15" points="667.4 799.37 615 799.37 615.52 797.13 667.92 797.13 667.4 799.37"/><polygon class="cls-25" points="623.53 804.39 613.83 804.39 614.35 802.15 624.05 802.15 623.53 804.39"/><polygon class="cls-26" points="634.19 799.37 615 799.37 615.52 797.13 634.71 797.13 634.19 799.37"/><path class="cls-27" d="M684.8,771.05c-5.64,0-8.91-4.59-7.3-10.23a1.33,1.33,0,0,1,1.19-.92.67.67,0,0,1,.66.92c-1.33,4.62,1.36,8.38,6,8.38s9.46-3.76,10.79-8.38-1.36-8.39-6-8.39a.67.67,0,0,1-.66-.92,1.33,1.33,0,0,1,1.19-.92c5.64,0,8.91,4.59,7.29,10.23S690.44,771.05,684.8,771.05Z"/><path class="cls-28" d="M713.17,771.05a7.34,7.34,0,0,1-7.13-4.36,1.13,1.13,0,0,1,.59-1.29c.5-.29,1-.19,1.22.23a6,6,0,0,0,5.85,3.57c4.62,0,9.46-3.76,10.79-8.38s-1.36-8.39-6-8.39a.67.67,0,0,1-.66-.92,1.31,1.31,0,0,1,1.19-.92c5.64,0,8.91,4.59,7.29,10.23S718.81,771.05,713.17,771.05Z"/><path class="cls-29" d="M622.84,771.05c-5.64,0-8.91-4.59-7.3-10.23a1.33,1.33,0,0,1,1.19-.92.67.67,0,0,1,.66.92c-1.33,4.62,1.35,8.38,6,8.38s9.46-3.76,10.79-8.38-1.36-8.39-6-8.39a.67.67,0,0,1-.66-.92,1.32,1.32,0,0,1,1.19-.92c5.64,0,8.91,4.59,7.29,10.23S628.48,771.05,622.84,771.05Z"/><path class="cls-30" d="M651.21,771.05a7.34,7.34,0,0,1-7.13-4.36,1.13,1.13,0,0,1,.59-1.29c.51-.29,1.05-.19,1.22.23a6,6,0,0,0,5.85,3.57c4.62,0,9.46-3.76,10.79-8.38s-1.36-8.39-6-8.39a.67.67,0,0,1-.65-.92,1.31,1.31,0,0,1,1.18-.92c5.64,0,8.92,4.59,7.3,10.23S656.85,771.05,651.21,771.05Z"/><path d="M621,759.26l.2-.71h2.64l-.16.56a6.1,6.1,0,0,0-.93.92,8.24,8.24,0,0,0-.88,1.27,6.09,6.09,0,0,0-.52,1.21h-.74a6.81,6.81,0,0,1,.83-1.7,8.89,8.89,0,0,1,1.31-1.55Z"/><path d="M624.56,760.34a.58.58,0,0,1-.33-.34.82.82,0,0,1,0-.49,1.34,1.34,0,0,1,.53-.74,1.55,1.55,0,0,1,1-.29,1,1,0,0,1,.81.29.78.78,0,0,1,.1.74,1.29,1.29,0,0,1-.79.83.74.74,0,0,1,.4.4,1,1,0,0,1,0,.59,1.7,1.7,0,0,1-.62.91,1.67,1.67,0,0,1-1,.35,1.12,1.12,0,0,1-.83-.29.9.9,0,0,1-.16-.94,1.57,1.57,0,0,1,1-1Zm-.18.95a.6.6,0,0,0,0,.5.38.38,0,0,0,.35.18.68.68,0,0,0,.45-.18.9.9,0,0,0,.3-.49.56.56,0,0,0,0-.45.39.39,0,0,0-.35-.18.66.66,0,0,0-.48.2A1,1,0,0,0,624.38,761.29Zm.56-1.72a.43.43,0,0,0,0,.36.37.37,0,0,0,.31.12.65.65,0,0,0,.39-.12.67.67,0,0,0,.23-.37.33.33,0,0,0,0-.34.33.33,0,0,0-.3-.13.64.64,0,0,0-.4.13A.66.66,0,0,0,624.94,759.57Z"/><path d="M627.36,759.48a1.53,1.53,0,0,1,.46-.79,1.08,1.08,0,0,1,.72-.27.64.64,0,0,1,.58.26,1,1,0,0,1,0,.8,1.56,1.56,0,0,1-.47.81,1.1,1.1,0,0,1-.72.26.64.64,0,0,1-.58-.26A1,1,0,0,1,627.36,759.48Zm.6,0a.91.91,0,0,0-.06.53.15.15,0,0,0,.16.09.33.33,0,0,0,.22-.09,1.56,1.56,0,0,0,.24-.53,1.09,1.09,0,0,0,.06-.52.16.16,0,0,0-.16-.11.3.3,0,0,0-.22.1A1.25,1.25,0,0,0,628,759.48Zm-.05,3.19h-.57l3.36-4.25h.55Zm1.55-1.06a1.63,1.63,0,0,1,.46-.8,1.12,1.12,0,0,1,.73-.26.62.62,0,0,1,.57.26,1,1,0,0,1,0,.8,1.59,1.59,0,0,1-.46.8,1.08,1.08,0,0,1-.72.27.61.61,0,0,1-.58-.27A1,1,0,0,1,629.46,761.61Zm.6,0a1,1,0,0,0-.06.52.15.15,0,0,0,.16.11.31.31,0,0,0,.22-.11,1.4,1.4,0,0,0,.24-.52,1,1,0,0,0,.06-.53.17.17,0,0,0-.16-.1.32.32,0,0,0-.22.1A1.39,1.39,0,0,0,630.06,761.61Z"/><path d="M651.59,759.48l-.77.08a.45.45,0,0,0,0-.34.34.34,0,0,0-.27-.11.7.7,0,0,0-.48.22,2.54,2.54,0,0,0-.47.91,1.26,1.26,0,0,1,.81-.34.79.79,0,0,1,.72.37,1.09,1.09,0,0,1,.08,1,1.94,1.94,0,0,1-.65,1,1.62,1.62,0,0,1-1,.37.91.91,0,0,1-.86-.47,2.23,2.23,0,0,1,0-1.55,3.31,3.31,0,0,1,.87-1.6,1.76,1.76,0,0,1,1.2-.48.86.86,0,0,1,.68.25A.92.92,0,0,1,651.59,759.48Zm-2.22,1.68a.72.72,0,0,0,0,.58.36.36,0,0,0,.34.2.6.6,0,0,0,.4-.16,1.1,1.1,0,0,0,.3-.55.76.76,0,0,0,0-.58.35.35,0,0,0-.33-.18.61.61,0,0,0-.42.18A.92.92,0,0,0,649.37,761.16Z"/><path d="M653.24,762.51h-.77l.83-2.9a3.61,3.61,0,0,1-1.16.58l.2-.69a3.61,3.61,0,0,0,.77-.38,2.29,2.29,0,0,0,.67-.64h.62Z"/><path d="M655.11,759.48a1.6,1.6,0,0,1,.46-.79,1.08,1.08,0,0,1,.72-.27.63.63,0,0,1,.58.26,1,1,0,0,1,0,.8,1.62,1.62,0,0,1-.46.81,1.12,1.12,0,0,1-.72.26.65.65,0,0,1-.59-.26A1,1,0,0,1,655.11,759.48Zm.6,0a.91.91,0,0,0-.06.53.15.15,0,0,0,.16.09A.33.33,0,0,0,656,760a1.39,1.39,0,0,0,.24-.53,1,1,0,0,0,.06-.52.16.16,0,0,0-.16-.11.32.32,0,0,0-.22.1A1.39,1.39,0,0,0,655.71,759.48Zm-.05,3.19h-.57l3.36-4.25H659Zm1.55-1.06a1.57,1.57,0,0,1,.47-.8,1.1,1.1,0,0,1,.72-.26.64.64,0,0,1,.58.26,1,1,0,0,1,0,.8,1.52,1.52,0,0,1-.46.8,1.08,1.08,0,0,1-.72.27.62.62,0,0,1-.58-.27A1,1,0,0,1,657.21,761.61Zm.6,0a1.09,1.09,0,0,0-.06.52.16.16,0,0,0,.16.11.28.28,0,0,0,.22-.11,1.14,1.14,0,0,0,.24-.52,1,1,0,0,0,.07-.53.18.18,0,0,0-.17-.1.34.34,0,0,0-.22.1A1.56,1.56,0,0,0,657.81,761.61Z"/><path d="M683.05,759.26l.21-.71h2.63l-.16.56a6.59,6.59,0,0,0-.92.92,8.24,8.24,0,0,0-.88,1.27,6.09,6.09,0,0,0-.52,1.21h-.75a7.18,7.18,0,0,1,.83-1.7,8.94,8.94,0,0,1,1.32-1.55Z"/><path d="M686.52,762.51l.23-.8h-1.64l.19-.68,2.48-2.55h.65l-.74,2.55h.5l-.19.68h-.5l-.23.8ZM687,761l.39-1.38L686,761Z"/><path d="M689,759.48a1.6,1.6,0,0,1,.46-.79,1.08,1.08,0,0,1,.72-.27.64.64,0,0,1,.58.26,1,1,0,0,1,0,.8,1.56,1.56,0,0,1-.47.81,1.09,1.09,0,0,1-.71.26.65.65,0,0,1-.59-.26A1,1,0,0,1,689,759.48Zm.6,0a.91.91,0,0,0-.06.53.16.16,0,0,0,.16.09.33.33,0,0,0,.22-.09,1.56,1.56,0,0,0,.24-.53,1.09,1.09,0,0,0,.06-.52.16.16,0,0,0-.16-.11.32.32,0,0,0-.22.1A1.25,1.25,0,0,0,689.59,759.48Zm-.05,3.19H689l3.36-4.25h.55Zm1.55-1.06a1.57,1.57,0,0,1,.47-.8,1.08,1.08,0,0,1,.72-.26.65.65,0,0,1,.58.26,1,1,0,0,1,0,.8,1.59,1.59,0,0,1-.46.8,1.08,1.08,0,0,1-.72.27.61.61,0,0,1-.58-.27A1,1,0,0,1,691.09,761.61Zm.6,0a1,1,0,0,0-.06.52.16.16,0,0,0,.16.11.29.29,0,0,0,.22-.11,1.4,1.4,0,0,0,.24-.52.91.91,0,0,0,.06-.53.16.16,0,0,0-.16-.1.32.32,0,0,0-.22.1A1.56,1.56,0,0,0,691.69,761.61Z"/><path d="M714.22,759.48l-.77.08a.44.44,0,0,0-.05-.34.31.31,0,0,0-.27-.11.7.7,0,0,0-.48.22,2.54,2.54,0,0,0-.47.91,1.26,1.26,0,0,1,.82-.34.82.82,0,0,1,.72.37,1.13,1.13,0,0,1,.07,1,1.88,1.88,0,0,1-.65,1,1.59,1.59,0,0,1-1,.37.91.91,0,0,1-.87-.47,2.23,2.23,0,0,1,0-1.55,3.31,3.31,0,0,1,.87-1.6,1.78,1.78,0,0,1,1.2-.48.89.89,0,0,1,.69.25A1,1,0,0,1,714.22,759.48ZM712,761.16a.8.8,0,0,0,0,.58.36.36,0,0,0,.34.2.58.58,0,0,0,.4-.16,1.1,1.1,0,0,0,.3-.55.76.76,0,0,0,0-.58.34.34,0,0,0-.33-.18.61.61,0,0,0-.42.18A1,1,0,0,0,712,761.16Z"/><path d="M714.32,761.48l.79-.08a.5.5,0,0,0,.08.41.39.39,0,0,0,.33.16.7.7,0,0,0,.46-.2,1.25,1.25,0,0,0,.34-.59.7.7,0,0,0,0-.56.42.42,0,0,0-.38-.18,1,1,0,0,0-.68.29l-.6-.09,1-2.09h2l-.21.72H716l-.31.68a1.47,1.47,0,0,1,.56-.13.85.85,0,0,1,.76.38,1.07,1.07,0,0,1,.08,1,1.93,1.93,0,0,1-.54.89,1.71,1.71,0,0,1-1.24.53,1,1,0,0,1-.82-.3A.92.92,0,0,1,714.32,761.48Z"/><path d="M718.1,759.48a1.61,1.61,0,0,1,.47-.79,1.08,1.08,0,0,1,.72-.27.64.64,0,0,1,.58.26,1,1,0,0,1,0,.8,1.63,1.63,0,0,1-.47.81,1.12,1.12,0,0,1-.72.26.64.64,0,0,1-.58-.26A1,1,0,0,1,718.1,759.48Zm.6,0a1.12,1.12,0,0,0-.06.53.17.17,0,0,0,.17.09A.29.29,0,0,0,719,760a1.25,1.25,0,0,0,.24-.53,1,1,0,0,0,.07-.52.17.17,0,0,0-.17-.11.3.3,0,0,0-.21.1A1.37,1.37,0,0,0,718.7,759.48Zm0,3.19h-.57l3.36-4.25H722Zm1.55-1.06a1.56,1.56,0,0,1,.46-.8,1.12,1.12,0,0,1,.73-.26.63.63,0,0,1,.57.26,1,1,0,0,1,0,.8,1.53,1.53,0,0,1-.47.8,1,1,0,0,1-.71.27.63.63,0,0,1-.59-.27A1,1,0,0,1,720.21,761.61Zm.6,0a.88.88,0,0,0-.06.52.16.16,0,0,0,.16.11.31.31,0,0,0,.22-.11,1.4,1.4,0,0,0,.24-.52,1.12,1.12,0,0,0,.06-.53.17.17,0,0,0-.16-.1.3.3,0,0,0-.22.1A1.25,1.25,0,0,0,720.81,761.61Z"/><path class="cls-15" d="M501,791.91a10,10,0,1,0-10-10A10,10,0,0,0,501,791.91Z"/><path class="cls-15" d="M402.78,817.59a10,10,0,1,0,10,10A10,10,0,0,0,402.78,817.59Z"/><path class="cls-15" d="M737.58,850.12,723,905.41a4.51,4.51,0,0,1-4.4,3.38H546.93a.7.7,0,0,1-.21-.14l-.14.14c-4.27,4.4-11.23,4.7-16.74,0A19.74,19.74,0,0,1,525.3,903c0-.1-.08-.21-.13-.32a19.25,19.25,0,0,1-12.23-12.5,11.83,11.83,0,0,1-2.14.57,16,16,0,1,1-26.54-15c-4.32-1.16-7.8-3.53-9.34-8.21l-.16-.48a22.91,22.91,0,0,1-29.92-15.23,17.18,17.18,0,0,1-5.37-28.7,17.2,17.2,0,1,1,28.81-12.66c0,.21,0,.43,0,.64a18,18,0,0,1,4.7-.64,17.17,17.17,0,0,1,16.31,11.8,16.4,16.4,0,0,1,.89,5.4c0,.4,0,.81-.06,1.18a23.09,23.09,0,1,1,37.29,25.9,9.7,9.7,0,0,1,.32,1.29h.44a17,17,0,0,1,8.61,2.35,17,17,0,0,1,27,4.46,16.94,16.94,0,0,1,22.11.48c0-.65-.11-1.32-.11-2A23.09,23.09,0,0,1,632,860.4a17,17,0,0,1,10.4,6.73,22.66,22.66,0,0,1,2-2,23.09,23.09,0,1,1,44-12.82,29.33,29.33,0,0,1,49.25-2.84A4,4,0,0,0,737.58,850.12Z"/><path class="cls-31" d="M365.17,678.07s20.9-9.73,26.31-14.86,16.69-31.07,16.69-31.07-1.21-8,.18-8.86c1-.6,1.48,2.2,1.5,2.78,0,.4.34,1.76.34,1.76a35.37,35.37,0,0,0,6.29-4.7c2.62-2.59,6.67-7.84,7.6-8.49s2.05,1,1.84,1.37c0,0,1.94-.27,2.4,0s.27,1.94.27,1.94,1.58,1.3,1.06,2.45a4.76,4.76,0,0,1-1,3.52c-1.33,1.66-5,7.4-6,7.83s-8.44,4.06-8.44,4.06-9.8,28.79-13.7,33.24-25.11,20.33-32.93,22.24S365.17,678.07,365.17,678.07Z"/><path class="cls-32" d="M516,646.74c2.5,2.65,7.71,5.64,14,8.62,2.25,1.06,4.65,2.12,7.11,3.15,16.9,7.14,37.17,13.42,37.8,13.62-.24-1-12.6-50.18-22.12-60.25a25.15,25.15,0,0,0-6.44-4.91,24.76,24.76,0,0,0-6.27-2.35A25.34,25.34,0,0,0,516,646.74Z"/><path class="cls-33" d="M521,644.14l9,11.22c2.25,1.06,4.65,2.12,7.11,3.15,9.3-13,9.52-41,9.24-51.54a24.76,24.76,0,0,0-6.27-2.35l-2.16.65Z"/><path class="cls-34" d="M463.74,645.31c-2.65,2.5-8,5.21-14.48,7.84-2.31.93-4.76,1.85-7.28,2.76-17.27,6.2-37.85,11.36-38.48,11.52.28-.95,15.32-49.42,25.38-58.94a25.34,25.34,0,0,1,6.7-4.56,24.58,24.58,0,0,1,6.39-2,25.35,25.35,0,0,1,21.77,43.38Z"/><path class="cls-33" d="M458.83,642.43l-9.57,10.72c-2.31.93-4.76,1.85-7.28,2.76-8.57-13.53-7.26-41.42-6.4-52a24.58,24.58,0,0,1,6.39-2l2.12.77Z"/><path class="cls-33" d="M506.74,669.53l-38.82-1.07s-5.46,33.34,17.14,83.48C485.06,751.94,507.42,713.23,506.74,669.53Z"/><path class="cls-35" d="M499.37,669.32l-24.17-.66s-3.52,25,10.38,62.54C485.58,731.2,499.65,702.1,499.37,669.32Z"/><path class="cls-33" d="M494.64,669.19l-14.76-.4s-2.07,12.68,6.51,31.74C486.39,700.53,494.9,685.81,494.64,669.19Z"/><path class="cls-36" d="M475.92,673.2l22.16.61a14.74,14.74,0,0,0,15.14-14.33l0-.55-51.64-1.41v.54A14.73,14.73,0,0,0,475.92,673.2Z"/><path class="cls-12" d="M438,591.57a281.86,281.86,0,0,0,3.92,56.52c1.1,6.19,7.15,10.85,14.42,11l65.07,1.78c7.28.2,13.57-4.12,15-10.24a281.92,281.92,0,0,0,7-56.22c1.09-39.46-10-75.07-22.48-98.77-9.79-18.48-20.35-29.7-26.74-29.87s-17.55,10.45-28.33,28.36C452.12,517.16,439.09,552.11,438,591.57Z"/><path class="cls-37" d="M467.61,538.15a24.61,24.61,0,1,1,23.92,25.27A24.61,24.61,0,0,1,467.61,538.15Z"/><path class="cls-38" d="M472.69,538.29a19.52,19.52,0,1,1,19,20A19.54,19.54,0,0,1,472.69,538.29Z"/><path class="cls-15" d="M478.37,538.45a12.68,12.68,0,0,0,12.33,13,9.25,9.25,0,0,0,1.9-.12,12.65,12.65,0,0,1,.68-25,9.67,9.67,0,0,0-1.88-.23A12.69,12.69,0,0,0,478.37,538.45Z"/><path class="cls-37" d="M473.38,626.47c-.73,26.45,13.59,48.31,13.59,48.31s15.49-21,16.21-47.5-5.36-48.09-13.59-48.31S474.1,600,473.38,626.47Z"/><path class="cls-39" d="M476.45,630.6c-.78,28.69,10.3,52.28,10.3,52.28s12.35-22.94,13.13-51.64-3.82-52.09-10.29-52.27S477.24,601.91,476.45,630.6Z"/><path class="cls-38" d="M465.88,494.18A88.29,88.29,0,0,0,521,495.69c-9.79-18.48-20.35-29.7-26.74-29.87S476.66,476.27,465.88,494.18Z"/><path class="cls-15" d="M487.19,482.4a105.89,105.89,0,0,0-14.28,16.05,144.25,144.25,0,0,0-11.44,18.34,147.32,147.32,0,0,0-8.65,19.88,156.9,156.9,0,0,0-5.69,21,179.28,179.28,0,0,0-2.49,43.16,169.67,169.67,0,0,0,7.53,42.26,310,310,0,0,1-2.73-42.39c0-3.53.16-7,.23-10.56s.35-7,.72-10.51a182.64,182.64,0,0,1,2.76-20.8,167.66,167.66,0,0,1,5.16-20.3,181.88,181.88,0,0,1,7.45-19.63,193.17,193.17,0,0,1,9.64-18.77A162.43,162.43,0,0,1,487.19,482.4Z"/><path class="cls-40" d="M387.34,689.91s20.9-9.73,26.31-14.86S430.34,644,430.34,644s-1.94-9,1.5-11.57c1.36-1,.53,3,.53,3.72a3.37,3.37,0,0,0,1,2.24,14.6,14.6,0,0,0,5.24-3.42c2.62-2.59,6.66-7.83,7.6-8.49s2,1,1.83,1.37c0,0,1.94-.27,2.41,0s.27,1.94.27,1.94,1.57,1.3,1.05,2.45a4.77,4.77,0,0,1-1,3.52c-1.34,1.66-5,7.4-6,7.84s-8.45,4.05-8.45,4.05-9.79,28.8-13.7,33.24-25.1,20.33-32.92,22.24S387.34,689.91,387.34,689.91Z"/><path class="cls-36" d="M300.37,917.14s-3.33.08-5.08,2.37,5.5,19.2,9.41,20.19,12,.75,12.74,0-5.25-4.91-6.58-6-3.41-14.2-3.41-14.2Z"/><path class="cls-40" d="M311.94,909.73l-4.49,9.78s2,11.2.83,12.2-7.91-14.57-7.91-14.57l5.33-12.82Z"/><path class="cls-36" d="M356.57,930.63s-1.66,5.66-.62,6.66,21.68,4.83,27.93,3.83-20.23-11.32-20.23-11.32Z"/><path class="cls-40" d="M366.06,917.56c0,.25-2.41,12.24-2.41,12.24s8.66,3.24,9.41,4.49-14.74-1.16-16.49-3.66a54,54,0,0,1,.75-13.66Z"/><path class="cls-40" d="M371.28,644.16s4,2.93,6.05,4.69,4.37,2.28,4.44,3.08-1.51,2.52-1.51,2.52,3,10.62.63,14.63-11.09,5.93-16.06,4.75-11.33-20.17-11.33-20.17S365.34,640.93,371.28,644.16Z"/><path class="cls-40" d="M375.1,670.41s2.44,7.77,6,11-7.22,5.55-7.22,5.55l-10.54-13.1Z"/><path class="cls-38" d="M341.61,756a154.37,154.37,0,0,0-15.84,51.48c-2.22,18.37-2.53,54.71-5,58.26s-15.55,34.2-17.54,39.75a23.84,23.84,0,0,0,9.76,6s20.21-29.09,24.87-38.86,17.76-65,17.76-65l4.44.67s-2.44,63-2.66,70.38-1.78,39.3-1.78,39.3,5.78,2.88,11.55.89c0,0,21.72-84.63,23.72-95.28s4.86-57.51,2-62.39-47.24-4.41-47.24-4.41l-4.05-.73Z"/><path class="cls-41" d="M340.1,759.92l-3.39,6.55s29.32,10,57,7.63l.39-10.3Z"/><path class="cls-31" d="M371.28,644.16l2.75,2.06a8.14,8.14,0,0,1-2,4.73c-1.9,2.07-4.34,4.47-4,6.75s3.18,4.94,3,6.79-.14,7.67-1.74,9.62A14.54,14.54,0,0,0,367,678L363,669l-3.71-8.27,1.35-6.5Z"/><path class="cls-42" d="M373.27,683.06c9.94-1.07,16.07.09,26.83-2.68,0,0,3.83,13.85,11,18.18,0,0-11,3.2-15.82,4.86,0,0,8.59,13.4,5.51,20.22s-7.28,18.06-5.51,27.61a70.16,70.16,0,0,1,1,17.69s-46.15-1.33-60.8-8.22c0,0,12.65-30.19,14-46.62S364.92,684,373.27,683.06Z"/><path class="cls-36" d="M333.09,658.32c5.73-5.22,9.55-8.36,10.08-13,.86-7.62,8.79-10,14.64-10.94,4.57-.7,11.39-8,17.63-4.06,2.32,1.47,3,4.62.29,10.15a9.42,9.42,0,0,1-3,3.63,9.21,9.21,0,0,0-3.24,3.84,11.33,11.33,0,0,1-2.06,3.2c-3.93,4.25-3.46,8.7-.38,10.79s1.79,8,.58,11c-2.32,5.75,9.12,8.47,5.93,14.27s-8.81,9-8.22,17.92c.88,13.33-12.41,20.26-22.7,22.42-12.34,2.58-30-7.32-27-24.2,3.69-20.67,16.39-23.69,14.86-28S327.35,663.55,333.09,658.32Z"/><path class="cls-31" d="M375.92,672.71a18.66,18.66,0,0,1-4.77,1.32,29.88,29.88,0,0,0,5.76,1Z"/><path class="cls-33" d="M395.27,703.42a16.3,16.3,0,0,1-8.94,2.5,30.59,30.59,0,0,0,11.12,1.36A6.8,6.8,0,0,0,395.27,703.42Z"/><path class="cls-33" d="M397.45,732.15s-7.07,7.19-7.4,11.24,1.84,25.38,1.84,25.38l4.36.17s-.69-16.1-.92-22.63A36.53,36.53,0,0,1,397.45,732.15Z"/><path class="cls-41" d="M355.65,807.57s-14.84,59.7-17.76,65S313,911.48,313,911.48s-2.5-.94-3.17-1.28c0,0,21.81-33.62,24.73-39s18.23-60.75,17.55-61.19-9.22-.78-7-2.42S355.65,807.57,355.65,807.57Z"/><path class="cls-36" d="M647,823.33c.36,1.41-30.73,6.07-30.94,5.16-.58-2.59.38-6.14,1.94-7a11,11,0,0,1,3.45-.93c2.88-.45,6.56-.66,9.68-2a15.41,15.41,0,0,0,3.46-2h0a7.34,7.34,0,0,0,2.25-2.42l6.26-1.62A104.77,104.77,0,0,1,647,823.33Z"/><path class="cls-36" d="M677.5,844.94c.17,1.44-31.27,1.9-31.35,1-.23-2.64,1.2-6,2.86-6.64a11,11,0,0,1,3.53-.45c2.92-.06,6.6.21,9.86-.7a15.76,15.76,0,0,0,3.7-1.49h0a7.42,7.42,0,0,0,2.56-2.09l6.43-.78A103.39,103.39,0,0,1,677.5,844.94Z"/><path class="cls-40" d="M667,824.93l.8,10.3a3.65,3.65,0,0,0,3.44,3.36h0a3.65,3.65,0,0,0,3.85-3.53l.31-10Z"/><path class="cls-36" d="M666.41,841.25c-1,.64-12.29,1.77-12.79.24a17.25,17.25,0,0,0-1.08-2.67c2.92-.06,6.6.21,9.86-.7a15.76,15.76,0,0,0,3.7-1.49h0S667.4,840.64,666.41,841.25Z"/><path class="cls-40" d="M633.91,804.9l2.17,10.1a3.66,3.66,0,0,0,3.86,2.88h0a3.66,3.66,0,0,0,3.34-4l-1-10Z"/><path class="cls-15" d="M743.8,697.57s6.44,13.83-8.37,28-53.67,29.07-55.66,34.86-.18,68.68-.18,68.68-12.27.65-16.22,0-10.64-65.14-6.75-74.49c6.09-14.62,38.57-41.5,38.57-41.5S665.58,733.87,652,753.62c-8.16,11.91-2.92,41.38-4.21,53.61-4.74,3.49-17.35,1.85-17.35,1.85s-5.8-59.86,3.51-73.24c19.46-28,61.06-47.3,61.06-47.3Z"/><path class="cls-37" d="M705.38,610.91c8.47-2.92,17.53,3.73,9.88,16.51S693.62,666,685.11,673.17c-5.22,4.42-37.86,24.06-42.81,21.53l3.44-8.29,24.09-18.06A31.57,31.57,0,0,0,680.14,655C685.7,641.27,696.77,613.87,705.38,610.91Z"/><path class="cls-38" d="M719.76,602.69s17.43,6.26,23,36.9,2.2,63.17,2.2,63.17-32.84,2.07-57.06-13.13c0,0,3.92-55.22,13.44-75.94C706.1,603.39,719.76,602.69,719.76,602.69Z"/><polygon class="cls-38" points="679.35 701.5 703.4 699.61 681.46 709.2 679.35 701.5"/><polygon class="cls-12" points="703.4 699.61 703.52 701.09 681.53 711.31 681.46 709.2 703.4 699.61"/><polygon class="cls-38" points="631.68 713.11 681.46 709.2 681.53 711.31 631.72 714.9 631.68 713.11"/><path class="cls-43" d="M724.37,620.87s5.88,3.38,5.54,16.54-4,36.62-5.54,38.31-28,18.38-28,18.38L692,692l20.19-16.42,6.92-14.18,2-23.45Z"/><path class="cls-40" d="M696.62,564.38a21.53,21.53,0,0,0-2.33,14.11c.94,4.65-3.55,6.23-1.93,7.26,3.18,2,2.62,5.09,2.65,6.59s-1,8.26,8.36,7c3.4-.45,5.2,2.77,5.17,7.06,0,0,1.73,7.74,15.21-1.29,0,0-2.5-15.91,1.54-28.87C717.11,566.63,710.63,555.52,696.62,564.38Z"/><path class="cls-37" d="M710.87,621.49c6.21-6.47,17.3-3.77,17.32,11.12s-3.64,34.44-9,42.85c-3.69,5.76-40.83,26.58-46.25,25.35l1.29-8.88,28.61-20.4a13.32,13.32,0,0,0,4.23-9.38C707.33,651.9,705.81,626.76,710.87,621.49Z"/><path class="cls-12" d="M631.68,713.11l49.78-3.91-10.82-39.37a2,2,0,0,0-2.06-1.44L622.8,672a2,2,0,0,0-1.75,2.49Z"/><path class="cls-31" d="M694.13,570.81s-.25,3.12-.2,4.27c0,0,5,.55,7.52,0S712,580.15,712,580.15l-3.37-8-7.2-1.35Z"/><path class="cls-31" d="M705.66,599.61a9.71,9.71,0,0,1,2,2.31s5.16-2.2,5.62-4.9S705.66,599.61,705.66,599.61Z"/><path class="cls-36" d="M728.07,568.3a10.18,10.18,0,0,1,3.51,1.3c-.6-3.81-5-4.87-5-4.87-1.11-4.41-3.81-5.28-3.81-5.28a4.22,4.22,0,0,1,1.41,3.77c-6.36-6.24-15.4-7.8-21.11-8.1a13.62,13.62,0,0,1-8.67-3.88c-1-1-1.88-1.73-1.88-1.73-1.46.59-8.79,7-6.63,15.7,1.44,5.83,8.13,7.74,12.42,8.36a20.91,20.91,0,0,0,5.3-.1c4.69-.5,7.82,5.13,8.28,9.06.51,4.37-3.43,11.31-7,8.61s-10.31-2.93-10.31-2.93-3.21,6.56-1.56,9.67c2.42,4.55,16,2.72,20.26-.08s.83-13.91,3.83-16.86,5.56,3.23,1.81,5.51c-1.74,1,.08,10.49.08,10.49C727.83,596.3,735,580.75,728.07,568.3Z"/><path class="cls-36" d="M635.5,821.16c-.9.77-12,3.4-12.64,1.94a17,17,0,0,0-1.43-2.5c2.88-.45,6.56-.66,9.68-2a15.41,15.41,0,0,0,3.46-2h0S636.39,820.42,635.5,821.16Z"/><path class="cls-8" d="M695.19,713.11s-41.76,30.77-45.88,47.23-.2,43.39-1.48,46.89c0,0-2.21,2.07-4.53,1.6,0,0-1.85-43.56,2.13-50.28S669.09,729.57,695.19,713.11Z"/><path class="cls-38" d="M714.07,929.26a112.08,112.08,0,0,1,16.66,29.26,1.17,1.17,0,0,1-.87,1.41,22,22,0,0,1-6.27.32c-.47,0-1.07-.33-1.13-.85a66.89,66.89,0,0,0-10.65-29.22c-1.32-1.65-2.67-3.27-4.08-4.85C707,924.55,712.76,927.29,714.07,929.26Z"/><path class="cls-44" d="M738.3,952.43c-.55-5.76-1.79-11.48-2.26-17.26-1.41-17-16.95-34-16.33-32.88,6.89,12.05,9.51,25.42,10.72,39-3.69-11.55-8.51-22.69-16.48-31.68-2-2.68-10.23-6.66-9.39-5.58a99.56,99.56,0,0,1,21,55.78A1.17,1.17,0,0,0,726.7,961a16.36,16.36,0,0,0,5-.79,1.14,1.14,0,0,0,2-.68v-.09l.48-.21a1.2,1.2,0,0,0,1.71,1.11C739,958.77,738.58,955.44,738.3,952.43Z"/><path class="cls-38" d="M728.09,955.26c.46-5.78,1.52-11.49,1.92-17.27,1.2-17,14.43-34,13.9-32.88-5.86,12-8.09,25.42-9.12,39,3.13-11.55,7.23-22.7,14-31.68,1.74-2.68,8.71-6.66,8-5.58a110.49,110.49,0,0,0-17.87,55.78,1.08,1.08,0,0,1-1,1.14,12.05,12.05,0,0,1-4.28-.79,1,1,0,0,1-1.72-.68v-.1c-.14-.07-.27-.12-.41-.2,0,.76-.68,1.56-1.46,1.11C727.46,961.58,727.85,958.26,728.09,955.26Z"/><path class="cls-44" d="M738.14,939.06a44.48,44.48,0,0,0-1.87,4.56,41.39,41.39,0,0,0-2.34,10.58c-.34,1.77-.66,3.56-.94,5.33a1.13,1.13,0,0,0,.24.9,1.23,1.23,0,0,0,1.13,1.45,11,11,0,0,0,4.13-.16,1.19,1.19,0,0,0,1.06-.91,91.23,91.23,0,0,1,19.06-44.17C759.53,915.49,741.82,929.48,738.14,939.06Z"/><path class="cls-44" d="M417.88,944.41c-.47-5-1.55-10-2-15-1.22-14.72-14.7-29.47-14.16-28.51,6,10.45,8.24,22,9.29,33.81-3.19-10-7.37-19.68-14.28-27.47-1.77-2.32-8.87-5.77-8.14-4.84a86.48,86.48,0,0,1,18.2,48.37,1,1,0,0,0,1,1,14.22,14.22,0,0,0,4.36-.68,1,1,0,0,0,1.76-.59v-.09c.13-.06.27-.1.41-.17a1,1,0,0,0,1.49,1C418.52,949.9,418.12,947,417.88,944.41Z"/><path class="cls-38" d="M409,946.85c.4-5,1.31-10,1.66-15,1-14.71,12.52-29.46,12.05-28.51-5.08,10.45-7,22-7.9,33.81,2.71-10,6.27-19.67,12.16-27.47,1.5-2.32,7.55-5.77,6.93-4.83a95.84,95.84,0,0,0-15.5,48.37.94.94,0,0,1-.84,1,10.6,10.6,0,0,1-3.72-.69.82.82,0,0,1-1.49-.59v-.08l-.35-.18c0,.66-.59,1.35-1.27,1C408.48,952.34,408.81,949.46,409,946.85Z"/><path class="cls-44" d="M417.75,932.81a39.42,39.42,0,0,0-3.66,13.13q-.45,2.31-.81,4.62a1,1,0,0,0,.2.78,1.07,1.07,0,0,0,1,1.26,9.59,9.59,0,0,0,3.58-.14,1,1,0,0,0,.91-.79,79,79,0,0,1,16.54-38.3C436.29,912.37,420.93,924.51,417.75,932.81Z"/><path class="cls-38" d="M456.37,962.85c-.36-5.33-1.18-10.62-1.49-16-.93-15.68-11.23-31.41-10.81-30.39,4.56,11.14,6.29,23.49,7.09,36-2.43-10.67-5.63-21-10.91-29.28-1.35-2.47-6.77-6.15-6.21-5.16,8.31,14.86,13.12,32.75,13.9,51.56,0,.57.33,1.07.75,1.06A8.15,8.15,0,0,0,452,970c.39.66,1.32.46,1.33-.63v-.09l.32-.18c0,.69.53,1.44,1.13,1C456.86,968.7,456.56,965.63,456.37,962.85Z"/><path class="cls-44" d="M463.92,926.86A143.27,143.27,0,0,0,445.3,963.7a1.42,1.42,0,0,0,1.08,1.68,24.48,24.48,0,0,0,7.4,0c.55-.08,1.25-.47,1.3-1.11a85.89,85.89,0,0,1,11.53-36.45c1.5-2.09,3-4.15,4.64-6.17C472.05,920.67,465.39,924.36,463.92,926.86Z"/><rect class="cls-15" x="540.08" y="939.81" width="539.84" height="139.4"/><path class="cls-45" d="M540.08,919.69s66.63-5.54,147.72,50.72c29.85,20.71,44.6,42.63,122.28,39.09s104.68,30.85,120.88,36.61,58,3.76,66.15,33.1h-457Z"/><g class="cls-46"><path class="cls-47" d="M956.4,1051.42c4.31,5.7,11.25,8.45,17.69,11a1.36,1.36,0,0,0,.33.06c3.31,5.93,6.84,11.75,10.26,17.68a4.27,4.27,0,0,1,3.52.62c-5.11-9.25-11.09-18-15.72-27.53a193.93,193.93,0,0,1-11.93-31.55,1.25,1.25,0,0,0,.49-.61,51.93,51.93,0,0,0,4.08-20.37C965,992.39,964.61,984,970,977c1-1.36-.85-3.29-1.91-1.91-3.88,5-5.43,10.75-5.73,17-.21,4.31.27,8.63,0,12.93a43.29,43.29,0,0,1-3,12.66,197.6,197.6,0,0,1-4.71-75.06c.22-1.72-2.49-1.73-2.7,0a198.45,198.45,0,0,0,15.14,105.47c1.61,3.66,3.39,7.2,5.26,10.69-8.74-3.74-14.27-8-17.85-17.71-2.68-7.2-6.53-13.52-10.87-19.84-5.27-7.66-10.1-15.19-13.21-24-3-8.58-4.75-17.54-6.5-26.44-.34-1.71-3-1-2.61.69,2.06,10.51,4.16,21.09,8.26,31,3.6,8.78,9.22,16.21,14.41,24.06a72.86,72.86,0,0,1,7.91,15.22C953.18,1045.14,954.2,1048.51,956.4,1051.42Z"/><path class="cls-38" d="M952.05,952.62a1.36,1.36,0,0,0,2.26-.59c1.69-8.31,6.43-15,5.31-23.76-1.32-10.42-5.08-20.68-9.42-30.19,0,0,0-.05-.06-.08a1.32,1.32,0,0,0-.58-1.42l-1.38-.93a1.37,1.37,0,0,0-2,.8C939.29,915.07,936.45,937.45,952.05,952.62Z"/><path class="cls-44" d="M919.47,949.15c4.15,17.1,15.47,31.39,34.24,31.37a1.37,1.37,0,0,0,.65-2.55,1.29,1.29,0,0,0-.1-.55c-6-14.75-20.92-20.63-32.8-29.77C920.48,946.89,919.23,948.13,919.47,949.15Z"/><path class="cls-38" d="M923.35,974.11a2.31,2.31,0,0,0,2.7-1.9,61.88,61.88,0,0,0-20.42-32.73c-.69-.59-2.06-.5-2.25.59C900.7,955.35,910.49,967.3,923.35,974.11Z"/><path class="cls-38" d="M962.76,994.87a1.37,1.37,0,0,0,1.65,1c6.07-1.9,9.66-6.46,11.58-12.43,2.84-8.86,3.64-18.67,5.25-27.82.3-1.7-2.3-2.43-2.6-.72-.09.48-10.88,10.35-13.16,17.06C962.94,979.45,961,987,962.76,994.87Z"/><path class="cls-38" d="M929.36,1037.91c6.93,3.16,16.31,1.83,23.59.24a1.72,1.72,0,0,0,.51-.11l.36-.08c1.57-.35-6-11.27-11.79-13.55-7.68-3-16.2-2.3-23.66-6a1.37,1.37,0,0,0-2,1.5C917.49,1026.67,923,1035,929.36,1037.91Z"/><path class="cls-44" d="M971.67,1054.6c5.92.32,9.88-4.08,11-9.62.87-4.17.08-8.54-.09-12.76a100.89,100.89,0,0,1,.81-16.57,1.35,1.35,0,0,0-2-1.19,12.34,12.34,0,0,0-4.64,6c-6.54,10.17-7.13,20.94-6.42,32.78A1.38,1.38,0,0,0,971.67,1054.6Z"/><path class="cls-38" d="M992.29,1079.89c.77,0,1.53.07,2.28.13l.7-.13c2.52-.32,4.94.5,7.43.3a27.14,27.14,0,0,1,6.21-.16,5.74,5.74,0,0,1,1.14-.12c-4.66-9.19-11.85-18-15.36-26.78a1.36,1.36,0,0,0-2.6,0,47.32,47.32,0,0,0,.09,26.79Z"/><path class="cls-38" d="M956.23,1079.61c-.25-6-1.38-12-4.29-16-.61-.84-2.23-.95-2.47.31a122.93,122.93,0,0,0-2.18,15.95C950.27,1079.81,953.25,1079.66,956.23,1079.61Z"/></g><g class="cls-48"><path class="cls-47" d="M650.69,1076.91c0,.82-.12,1.61-.23,2.4.71-.07,1.41-.13,2.11-.16a36.94,36.94,0,0,0,.28-5.83c-.18-6.78-.63-13.65,3.66-19.4.84-1.12-.73-2.67-1.58-1.53-3.09,4.14-4.28,8.84-4.44,14C650.38,1069.88,650.83,1073.39,650.69,1076.91Z"/><path class="cls-47" d="M646.57,1079.77a161.62,161.62,0,0,1-3-53.63c.16-1.41-2.05-1.38-2.2,0a163.12,163.12,0,0,0,3,53.83C645.1,1079.93,645.84,1079.85,646.57,1079.77Z"/><path class="cls-47" d="M626.18,1079.78c.87,0,1.74,0,2.6,0a60.38,60.38,0,0,1-4.2-8.89c-2.58-7-4.12-14.23-5.66-21.46-.3-1.39-2.42-.79-2.13.59,1.83,8.54,3.69,17.14,7.16,25.19C624.62,1076.81,625.38,1078.31,626.18,1079.78Z"/><path class="cls-38" d="M641.56,1034.3a1.11,1.11,0,0,0,1.83-.51c1.27-6.8,5-12.31,4-19.45-1.21-8.47-4.41-16.79-8.08-24.48,0,0,0,0-.05-.07a1.07,1.07,0,0,0-.49-1.15l-1.14-.74a1.11,1.11,0,0,0-1.6.68C630.65,1003.85,628.63,1022.14,641.56,1034.3Z"/><path class="cls-44" d="M615,1031.91c3.61,13.88,13,25.38,28.33,25.11a1.12,1.12,0,0,0,.5-2.09,1,1,0,0,0-.09-.44c-5.1-12-17.33-16.55-27.14-23.84C615.75,1030.05,614.74,1031.07,615,1031.91Z"/><path class="cls-38" d="M618.45,1052.19a1.87,1.87,0,0,0,2.18-1.58,50.56,50.56,0,0,0-17.09-26.41c-.57-.46-1.69-.38-1.83.52C599.73,1037.21,607.87,1046.82,618.45,1052.19Z"/><path class="cls-38" d="M650.86,1068.6a1.11,1.11,0,0,0,1.35.76c4.93-1.63,7.79-5.4,9.27-10.29,2.21-7.26,2.73-15.27,3.91-22.74.22-1.39-1.9-2-2.13-.56-.06.4-8.73,8.59-10.49,14.09C650.79,1056,649.28,1062.2,650.86,1068.6Z"/></g><rect class="cls-15" x="-0.08" y="939.81" width="541.16" height="139.4"/><path class="cls-45" d="M541.08,918.48S474.29,912.94,393,969.2c-29.91,20.71-44.7,42.63-122.57,39.09s-104.94,30.86-121.18,36.61-58.19,3.76-66.31,33.11H541.08Z"/><g class="cls-49"><path class="cls-47" d="M86.7,1171.28c24-20.58,49.6-48.55,40.9-82.83-.43-1.69-3-1-2.61.72,5.26,20.7-2.62,39-14.9,54.64,1.45-8.34,4.72-16.35,2.34-24.89a1.35,1.35,0,0,0-2.61.72c2.64,9.48-2.16,18.7-3,28.11a190.54,190.54,0,0,1-19.49,19.38c.45-3,.82-6,1.09-9,1.08-12,.35-23.76-1.12-35.67-.88-7.07-1.77-14.27-.58-21.36s4.29-13.38,7.77-19.47c3.69-6.45,7.55-12.72,11.15-19.15a1.36,1.36,0,0,0,.33-.06c6.45-2.53,13.41-5.28,17.73-11,2.2-2.91,3.23-6.28,4.46-9.65a72.94,72.94,0,0,1,7.93-15.22c5.21-7.85,10.83-15.28,14.45-24.06,4.1-9.94,6.21-20.52,8.28-31,.33-1.7-2.28-2.39-2.62-.69-1.75,8.9-3.5,17.86-6.52,26.44-3.11,8.84-8,16.37-13.24,24-4.36,6.32-8.21,12.64-10.89,19.84-3.6,9.67-9.14,14-17.9,17.71,1.87-3.49,3.66-7,5.27-10.69a197.87,197.87,0,0,0,10.92-31.85,199.07,199.07,0,0,0,4.26-73.62c-.22-1.7-2.92-1.69-2.71,0a197,197,0,0,1-4.72,75.06,43.63,43.63,0,0,1-3-12.66c-.25-4.3.23-8.62,0-12.93-.3-6.3-1.86-12-5.75-17-1.06-1.38-3,.55-1.91,1.91,5.39,7,5,15.4,4.89,23.71a51.93,51.93,0,0,0,4.08,20.37,1.37,1.37,0,0,0,.49.61,193.09,193.09,0,0,1-11.95,31.55c-5.25,10.82-12.25,20.58-17.74,31.24a54.33,54.33,0,0,0-6.07,30.74c.51,6.11,1.25,12.13,1.79,18.16-6.72-11.09-15.66-23.95-12.25-36.78a1.36,1.36,0,0,0-2.62-.69c-4.07,15.35,7.78,30.17,14.87,42.8a1.37,1.37,0,0,0,.43.46,111.83,111.83,0,0,1,.19,11.88,147.68,147.68,0,0,1-23.17,73.11c-.93,1.47,1.41,2.82,2.34,1.36a151.13,151.13,0,0,0,21.21-54.17S86.67,1171.31,86.7,1171.28Z"/><path class="cls-38" d="M128.1,952.63a1.37,1.37,0,0,1-2.26-.6c-1.7-8.31-6.45-15-5.33-23.76,1.32-10.42,5.09-20.68,9.44-30.19L130,898a1.32,1.32,0,0,1,.58-1.42l1.39-.93a1.37,1.37,0,0,1,2,.8C140.89,915.07,143.74,937.45,128.1,952.63Z"/><path class="cls-44" d="M160.76,949.16c-4.16,17.09-15.5,31.39-34.32,31.36a1.37,1.37,0,0,1-.65-2.55,1.15,1.15,0,0,1,.1-.55c6-14.75,21-20.63,32.87-29.77C159.75,946.89,161,948.13,160.76,949.16Z"/><path class="cls-38" d="M156.87,974.11a2.32,2.32,0,0,1-2.71-1.9,61.88,61.88,0,0,1,20.47-32.73c.69-.59,2.07-.5,2.26.59C179.58,955.35,169.76,967.3,156.87,974.11Z"/><path class="cls-38" d="M117.36,994.87a1.37,1.37,0,0,1-1.65,1c-6.08-1.9-9.68-6.46-11.61-12.43-2.85-8.86-3.65-18.67-5.26-27.82-.3-1.7,2.31-2.43,2.61-.72.08.48,10.9,10.35,13.18,17.06C117.19,979.45,119.17,987,117.36,994.87Z"/><path class="cls-38" d="M150.84,1037.91c-6.94,3.16-16.34,1.83-23.65.24a1.72,1.72,0,0,1-.5-.11l-.37-.08c-1.56-.35,6-11.27,11.83-13.55,7.69-3,16.23-2.3,23.72-6a1.37,1.37,0,0,1,2,1.5C162.75,1026.68,157.26,1035,150.84,1037.91Z"/><path class="cls-44" d="M108.43,1054.6c-5.93.32-9.9-4.08-11.06-9.62-.87-4.17-.07-8.54.1-12.76a99.8,99.8,0,0,0-.82-16.57,1.36,1.36,0,0,1,2-1.19,12.28,12.28,0,0,1,4.64,6c6.56,10.18,7.15,20.94,6.45,32.78A1.39,1.39,0,0,1,108.43,1054.6Z"/><path class="cls-38" d="M83.8,1089.56c-.21.38-9,12.18-13.39,17.16a1.36,1.36,0,0,1-2.12-.27c-9.93-19.77,10.34-36.47,17.06-53.32a1.37,1.37,0,0,1,2.61,0A47.33,47.33,0,0,1,83.8,1089.56Z"/><path class="cls-44" d="M111.52,1135.94a1.36,1.36,0,0,1-2.47-.31c-1.57-8.22-4.55-24.89-4.57-25.25-.7-10.89,7-20.87,12-30,.6-1.1,2.66-.7,2.52.66C117.1,1099.55,121,1119,111.52,1135.94Z"/><path class="cls-38" d="M128.11,1102.93c-.87,1.5-2.25-1.54-2.2-1.63-.14-.15-5.82-26.5,2.3-37.7.61-.84,2.24-.95,2.47.31C133.17,1077.16,135.16,1090.7,128.11,1102.93Z"/></g><g class="cls-50"><path class="cls-47" d="M402.66,1212c19.84-16.45,41.09-38.92,34.46-67a1.11,1.11,0,0,0-2.14.56c4,16.94-2.66,31.74-12.88,44.34,1.3-6.78,4.07-13.27,2.24-20.27a1.11,1.11,0,0,0-2.14.56c2,7.76-2,15.22-2.78,22.88a156.35,156.35,0,0,1-16.16,15.54q.62-3.64,1-7.34a136.11,136.11,0,0,0-.43-29.1c-.62-5.78-1.25-11.65-.18-17.42s3.67-10.85,6.59-15.76c3.1-5.21,6.32-10.28,9.35-15.47a1.36,1.36,0,0,0,.27,0c5.29-2,11-4.13,14.6-8.72,1.83-2.34,2.72-5.07,3.77-7.81a58.67,58.67,0,0,1,6.66-12.29c4.35-6.33,9-12.32,12.11-19.43,3.48-8,5.34-16.64,7.17-25.19.29-1.38-1.83-2-2.13-.59-1.55,7.23-3.1,14.51-5.67,21.47-2.66,7.16-6.71,13.23-11.12,19.41a73.61,73.61,0,0,0-9.14,16c-3.07,7.83-7.64,11.26-14.84,14.2,1.58-2.82,3.08-5.69,4.45-8.65a161.4,161.4,0,0,0,13.79-85.78c-.15-1.39-2.36-1.42-2.21,0a160.86,160.86,0,0,1-4.86,61.13,35.74,35.74,0,0,1-2.25-10.36c-.14-3.52.31-7,.2-10.54-.16-5.14-1.35-9.84-4.46-14-.85-1.14-2.42.41-1.58,1.53,4.3,5.75,3.85,12.62,3.67,19.4a42.16,42.16,0,0,0,3.05,16.66,1.17,1.17,0,0,0,.39.5A156.44,156.44,0,0,1,421.3,1116c-4.42,8.75-10.26,16.62-14.88,25.23a44.29,44.29,0,0,0-5.36,25c.33,5,.86,9.91,1.22,14.83-5.34-9.13-12.45-19.73-9.5-30.15a1.1,1.1,0,0,0-2.12-.59c-3.53,12.45,5.93,24.7,11.54,35.08a1.12,1.12,0,0,0,.35.39,94.92,94.92,0,0,1,0,9.69,120.4,120.4,0,0,1-19.87,59.29c-.78,1.18,1.12,2.31,1.89,1.13a123.36,123.36,0,0,0,18-43.87A.35.35,0,0,0,402.66,1212Z"/><path class="cls-38" d="M439.35,1034.3a1.11,1.11,0,0,1-1.83-.51c-1.28-6.8-5.06-12.31-4-19.45,1.22-8.47,4.43-16.79,8.1-24.48l.06-.07a1.07,1.07,0,0,1,.49-1.15l1.14-.74a1.12,1.12,0,0,1,1.61.69C450.29,1003.85,452.31,1022.14,439.35,1034.3Z"/><path class="cls-44" d="M466,1031.91c-3.62,13.88-13.06,25.38-28.4,25.11a1.12,1.12,0,0,1-.49-2.09.94.94,0,0,1,.09-.44c5.1-12,17.36-16.55,27.2-23.84C465.23,1030.05,466.24,1031.08,466,1031.91Z"/><path class="cls-38" d="M462.52,1052.2a1.88,1.88,0,0,1-2.19-1.59,50.56,50.56,0,0,1,17.13-26.41c.58-.46,1.69-.38,1.83.52C481.28,1037.21,473.12,1046.82,462.52,1052.2Z"/><path class="cls-38" d="M430,1068.6a1.11,1.11,0,0,1-1.36.76c-4.94-1.63-7.81-5.4-9.29-10.29-2.21-7.26-2.73-15.26-3.92-22.74-.22-1.39,1.91-2,2.13-.56.07.4,8.76,8.59,10.52,14.09C430.09,1056,431.61,1062.2,430,1068.6Z"/></g></svg>