<svg id="Layer_1" data-name="Layer 1" xmlns="http://www.w3.org/2000/svg" xmlns:xlink="http://www.w3.org/1999/xlink" viewBox="0 0 1079 1065.02"><defs><style>.cls-1,.cls-20{fill:#fff;}.cls-2{fill:#f3f8ff;}.cls-3{fill:#fffaf8;}.cls-4{fill:#e6efff;}.cls-5{fill:#d9e8ff;}.cls-6{fill:#f3f9ff;}.cls-7{fill:#61a1ff;}.cls-8{fill:#86b4ff;}.cls-9{fill:#d7e6ff;}.cls-10{fill:#3f87fc;}.cls-11{fill:#000036;}.cls-12{fill:#d4e6ff;}.cls-13{fill:#c2dde5;}.cls-14{fill:#e0eaf2;}.cls-15{fill:#dce4f1;}.cls-16{fill:#fabda9;}.cls-17{fill:#9cc9ff;}.cls-18{fill:#ffdad7;}.cls-19{fill:#197bf2;}.cls-20{opacity:0.52;}.cls-21{fill:#fbb03b;}.cls-22{fill:url(#Yellow);}.cls-23{fill:url(#Yellow-2);}.cls-24{fill:#f9c5ce;}.cls-25{fill:url(#Yellow-3);}.cls-26{fill:url(#Yellow-4);}.cls-27{fill:url(#Yellow-5);}.cls-28{fill:url(#Yellow-6);}.cls-29{fill:url(#Yellow-7);}.cls-30{fill:url(#Yellow-8);}.cls-31{fill:#5f94ff;}.cls-32{fill:#c2d9f9;}</style><linearGradient id="Yellow" x1="4254.61" y1="722.54" x2="4351.53" y2="722.54" gradientTransform="matrix(-1, 0, 0, 1, 5025.88, 0)" gradientUnits="userSpaceOnUse"><stop offset="0" stop-color="#fbb03b"/><stop offset="1" stop-color="#f9d015"/></linearGradient><linearGradient id="Yellow-2" x1="4339.62" y1="639.17" x2="4454.54" y2="639.17" xlink:href="#Yellow"/><linearGradient id="Yellow-3" x1="4196.55" y1="733.57" x2="4257.31" y2="733.57" gradientTransform="matrix(-1, 0, 0, 1, 4609.21, 0)" xlink:href="#Yellow"/><linearGradient id="Yellow-4" x1="463.88" y1="788.14" x2="476.67" y2="788.14" gradientTransform="matrix(1, 0, 0, 1, 0, 0)" xlink:href="#Yellow"/><linearGradient id="Yellow-5" x1="473.96" y1="747.81" x2="478.73" y2="747.81" gradientTransform="matrix(1, 0, 0, 1, 0, 0)" xlink:href="#Yellow"/><linearGradient id="Yellow-6" x1="421.76" y1="782.08" x2="438.12" y2="782.08" gradientTransform="matrix(1, 0, 0, 1, 0, 0)" xlink:href="#Yellow"/><linearGradient id="Yellow-7" x1="461.83" y1="828.48" x2="466.59" y2="828.48" gradientTransform="matrix(1, 0, 0, 1, 0, 0)" xlink:href="#Yellow"/><linearGradient id="Yellow-8" x1="502.43" y1="794.21" x2="518.79" y2="794.21" gradientTransform="matrix(1, 0, 0, 1, 0, 0)" xlink:href="#Yellow"/></defs><title>lp-seo-bg</title><path class="cls-1" d="MNaN,NaN,NaN,NaN,NaN,NaN,NaN,NaN,NaN,NaNZ" transform="translate(0.89 -14.98)"/><path class="cls-2" d="M972.93,265.05c5.54-2.55,10.72-5.17,14.1-8.54,2.63-2.63,4.05-6,5.39-9.39q3.18-8.1,6.47-16.17c5-12.37,11.1-24.28,16.57-36.45,5.13-11.41,10.53-23.6,11.88-36.16a95.4,95.4,0,0,0-2.49-32.5c-5.63-23.33-17.89-45-32.39-64C979,44.19,963.11,27.93,945,15c-1.24.63-2.48,1.24-3.73,1.83-18.51,8.7-38.49,13.84-58.16,19.13l-1.73.47c-7.91,4.1-15.91,8.07-23.83,12.08C846.11,89.54,735.33,69,693.21,85.57c-48,18.84-103.69,51.36-94,106.66,9,51.51,27.22,81,42.14,93.81,84.8,73.06,120.42-109.75,262.9-37.23C929.76,261.8,952.59,266.2,972.93,265.05Z" transform="translate(0.89 -14.98)"/><path class="cls-2" d="M-.21,223.61C3,279.7,65.15,299,116.59,306.59c45.39,6.74,150.24-38.51,170.15,0,12.15-2.46,24.28-5.1,36.43-7.58,10.9-2.22,21.61-4.11,32.05-8.1s20.85-8.56,31-13.35c3.86-1.81,7.71-3.67,11.55-5.55,1.87-2,3.75-4.08,5.65-6.1,6.13-6.52,13.19-10.69,20.45-15.78,13.7-9.61,23-24.76,31.38-38.86,4.19-7,8.24-14.14,12.64-21,4.92-7.72,10.23-15.08,14.58-23.16,4.13-7.69,8.35-15.88,10.94-24.23a49,49,0,0,0,1.34-5.6,75.76,75.76,0,0,0-.74-12.89,8.3,8.3,0,0,0-1.68-.79A4.86,4.86,0,0,1,488.9,119c-36-21.25-113.76-92.79-202.65-18.78C163,202.78,86.08,32.46,19.61,122.69,7.92,138.55-3.2,171.35-.21,223.61Z" transform="translate(0.89 -14.98)"/><path class="cls-2" d="M866.4,494.48c-26-31.34,5.4-72.35-32-93.2-35.11-19.59-95.87,32.35-129.07,25.58-20.11-4.11-25-36.51-34.63-60.46A64.83,64.83,0,0,1,664,362c-7.27-5.4-18.3-18.07-28.22-15.82-10.34,2.35-20.79,14.37-28,21.66-8.12,8.27-15.79,16.73-25.84,22.75-14,8.37-29.47,10.1-43.89,5.63V575.79c44.79,19.63,87.58-45.09,186.08-11.13,11.46,4,42.87,34,83.28,32.7,23.25-.78,46.53-22,56.33-32.29,8.37-8.75,88.38,12.89,88.38-13C952.18,531.38,880.67,511.7,866.4,494.48Z" transform="translate(0.89 -14.98)"/><path class="cls-2" d="M489.8,357c-5.38-1.34-10.86-3.23-16.72-4.73-10.6-2.7-21.14-3.52-31.28-7.91-3.45-1.5-6.87-3-10.28-4.61-2,.53-4,1.12-5.95,1.82-28.81,10.1-24.88,79.13-55.11,85.25-33.48,6.77-94.75-45.17-130.15-25.58-37.69,20.85-6,61.86-32.24,93.2-14.39,17.22-86.49,36.9-86.49,57.61,0,25.87,80.67,4.23,89.11,13,9.89,10.26,33.36,31.51,56.8,32.29,40.75,1.34,72.42-28.75,84-32.7,99.33-34,142.47,30.76,187.64,11.13V396.54a57.85,57.85,0,0,1-17.79-8.74C509.78,379.49,501,366.18,489.8,357Z" transform="translate(0.89 -14.98)"/><path class="cls-3" d="M760.91,299a15.5,15.5,0,1,0-12,28.58c7.9,3.32,24.51,3.46,27.83-4.44S768.8,302.27,760.91,299Z" transform="translate(0.89 -14.98)"/><path class="cls-2" d="M882.91,363.26a19.42,19.42,0,1,0,19.42,19.42A19.42,19.42,0,0,0,882.91,363.26Z" transform="translate(0.89 -14.98)"/><path class="cls-4" d="M992,652.78Q969.65,620.86,944.33,591c-4.3-5.08-11.59-2.59-14.85,1.92q-19.65,27-39.31,54.13l-17.5,24.11c-4.62,6.35-9.21,12.69-13.83,19-5.48,7.5-6.77,12-15.68,6-12-8.13-21.87-19.22-30.46-30.78C783.38,626,758,583.2,734.89,539.67c-4.67-8.75-9.21-17.55-13.66-26.32-11.75-23.14-23.9-46.2-39.91-66.75-6.61-8.5-15.36-21.87-25.73-26-10.15-4.05-15.69,4.73-21,12C612.31,463.24,590,494,569.76,526.06c-11.26,17.8-21.93,35.94-31.65,54.65V940.57h540V806.76A860.23,860.23,0,0,0,992,652.78Z" transform="translate(0.89 -14.98)"/><path class="cls-5" d="M721.23,513.35c-11.75-23.14-23.9-46.2-39.91-66.75-6.61-8.5-15.36-21.87-25.73-26-10.15-4.05-15.69,4.73-21,12C612.31,463.24,590,494,569.76,526.06c.67,9.51,1.81,19,3.34,28.49,1.14,7.05,11.29,9,15.8,4.16a35.76,35.76,0,0,0,7-11.07q9.12,31.18,15.53,63.12c1.78,9,16.47,9,18.22,0,4-20.65,2.78-42.71,5.24-63.82,3.83,11.36,9.29,21.73,18.66,27.4,4.8,2.92,12.85.43,13.88-5.64l2.4-14.12q6.52,14.94,13,29.86c3.4,7.83,15.22,4.91,17.27-2.24l11.37-39.53c8.16,5.16,19.06,7.94,23.44-3C730.22,530.92,725.68,522.12,721.23,513.35Z" transform="translate(0.89 -14.98)"/><path class="cls-5" d="M987.5,654.13a10.57,10.57,0,0,0,4.54-1.35Q969.65,620.86,944.33,591c-4.3-5.08-11.59-2.59-14.85,1.92q-19.65,27-39.31,54.13a9.81,9.81,0,0,0,7.15,3.16q.45,9.67.86,19.36c.41,8.72,9.51,11.5,15.85,6.89q5.52,15.94,11,31.91c2,5.62,8.4,9,13.88,5.64a20.89,20.89,0,0,0,10.18-13.85,12.6,12.6,0,0,0,.27-1.78c.13.32.3.62.43,1,3.46,8.1,15,4.59,17.28-2.27q2.6-7.73,5.16-15.47c6.29,3.89,14.12.17,14.74-7.67a41.16,41.16,0,0,0-1.05-12.2,8.55,8.55,0,0,0,1.7-5.51C987.58,655.53,987.53,654.83,987.5,654.13Z" transform="translate(0.89 -14.98)"/><path class="cls-5" d="M855.74,694.6s-51,88.18-63.55,94,11.36-21.15,14.45-28.61-9.69-12.1-15.89-11.57,52.41-52.19,52.41-52.19S847.28,699.24,855.74,694.6Z" transform="translate(0.89 -14.98)"/><path class="cls-4" d="M85.19,656q22.4-31.92,47.71-61.78c4.29-5.07,11.58-2.59,14.85,1.92q19.63,27.06,39.31,54.13,8.74,12.08,17.5,24.12,6.91,9.51,13.82,19c5.48,7.51,6.78,12,15.69,6,12-8.13,21.87-19.23,30.45-30.79,29.32-39.41,54.76-82.21,77.82-125.74,4.67-8.74,9.2-17.55,13.66-26.32,11.74-23.14,23.89-46.2,39.9-66.74,6.62-8.51,15.37-21.88,25.73-26,10.16-4.05,15.69,4.73,21,12,22.28,30.62,44.55,61.43,64.83,93.45,11.26,17.79,21.92,35.93,31.64,54.65V943.79H-.89V810A860.28,860.28,0,0,1,85.19,656Z" transform="translate(0.89 -14.98)"/><path class="cls-5" d="M356,516.57c11.74-23.14,23.89-46.2,39.9-66.74,6.62-8.51,15.37-21.88,25.73-26,10.16-4.05,15.69,4.73,21,12,22.28,30.62,44.55,61.43,64.83,93.45q-1,14.25-3.35,28.48c-1.13,7.05-11.29,9-15.8,4.16a35.65,35.65,0,0,1-7-11.07Q472.23,582,465.81,614c-1.79,9-16.47,9-18.23,0-4-20.66-2.78-42.72-5.24-63.83-3.83,11.37-9.28,21.73-18.65,27.4-4.81,2.92-12.86.43-13.88-5.64l-2.4-14.12q-6.53,14.94-13,29.86c-3.4,7.83-15.23,4.92-17.28-2.24l-11.37-39.53c-8.15,5.16-19.06,7.94-23.43-3C347,534.15,351.54,525.34,356,516.57Z" transform="translate(0.89 -14.98)"/><path class="cls-5" d="M89.72,657.35A10.53,10.53,0,0,1,85.19,656q22.4-31.92,47.71-61.78c4.29-5.07,11.58-2.59,14.85,1.92q19.63,27.06,39.31,54.13a9.85,9.85,0,0,1-7.16,3.16c-.29,6.46-.59,12.91-.86,19.36-.41,8.72-9.5,11.5-15.85,6.89q-5.5,15.95-11,31.91c-1.94,5.62-8.39,9-13.88,5.64a20.87,20.87,0,0,1-10.17-13.85,11.26,11.26,0,0,1-.28-1.78c-.13.33-.29.62-.43,1-3.45,8.1-15,4.59-17.28-2.26q-2.59-7.74-5.15-15.48c-6.3,3.89-14.13.17-14.75-7.66A41.57,41.57,0,0,1,91.32,665a8.44,8.44,0,0,1-1.7-5.51C89.64,658.75,89.7,658.05,89.72,657.35Z" transform="translate(0.89 -14.98)"/><path class="cls-5" d="M221.49,697.82s50.94,88.18,63.54,94-11.35-21.15-14.45-28.61,9.69-12.1,15.9-11.58-52.41-52.18-52.41-52.18S229.94,702.46,221.49,697.82Z" transform="translate(0.89 -14.98)"/><path class="cls-6" d="M1024.49,801.49c-9.29,2-54.55,22.92-70.61,35.45-18,14-32.61.73-55,3.3-10.5,1.21-18,25.77-33,29.48-14.55-.67-28.79-18.87-35.38-18.9-21.36-.08-30.46,11.29-50.3,16.69-23,6.26-33.67-14.23-54-19.44-39.1-10.05-56.73,29.8-81.08,52.35-13.37,3.64-26.76,7.05-40.75,9.18-4.86.73-9.69,1.51-14.47,2.43-9.34-2-18.68-4.32-27.7-4.86-7.91-.49-17.23,1.13-24.06,5.62v37c22.25,16.25,76,12,93.12,12.18,25.11.21,50.25-.06,75.28-2.11s49-5.4,73.68.57c23.28,5.61,44.93,10.66,69,11,23.74.35,47.58-.27,71.31-.54,50.44-.54,102.36-3.1,149.44-23,2.81-1.19,5.54-2.46,8.13-3.84V803.28A109.1,109.1,0,0,0,1024.49,801.49Z" transform="translate(0.89 -14.98)"/><path class="cls-5" d="M1076.22,835c-16.9,3.45-33.88,7.15-49.44,14.9-8.8,4.4-16.33,11.91-25.86,14.74s-20.06.9-29.84,1.09c-34.75.67-61.53,22.41-93.66,32.07-26.35,7.94-75.38-3.19-90.29,27.38-13.5,27.7,35,17.13,68.48,17.32,38.66-1.19,101-5.43,110.72,4.32,12.61,12.58,9.91,72.18,28.81,83s51.89-11.82,60.13-11.31,22.84,17.6,22.84,17.6V834.84A8.66,8.66,0,0,0,1076.22,835Z" transform="translate(0.89 -14.98)"/><path class="cls-7" d="M677.31,920.21a183.37,183.37,0,0,1,27.14,47.67,1.91,1.91,0,0,1-1.42,2.29,35.35,35.35,0,0,1-10.22.52c-.76-.07-1.73-.54-1.83-1.39a109.15,109.15,0,0,0-17.35-47.6c-2.15-2.67-4.35-5.31-6.65-7.88C665.85,912.55,675.18,917,677.31,920.21Z" transform="translate(0.89 -14.98)"/><path class="cls-8" d="M716.77,958c-.88-9.4-2.9-18.71-3.68-28.12-2.28-27.64-27.61-55.35-26.59-53.55C697.72,895.92,702,917.69,704,939.8c-6-18.81-13.85-37-26.83-51.6-3.33-4.36-16.67-10.84-15.3-9.09A162.32,162.32,0,0,1,696,970a1.91,1.91,0,0,0,1.87,1.87,27.14,27.14,0,0,0,8.2-1.29,1.85,1.85,0,0,0,3.29-1.11v-.16c.26-.11.51-.2.77-.33a2,2,0,0,0,2.8,1.81C718,968.27,717.24,962.86,716.77,958Z" transform="translate(0.89 -14.98)"/><path class="cls-7" d="M700.14,962.55c.76-9.39,2.48-18.71,3.14-28.12,1.94-27.63,23.5-55.34,22.63-53.55-9.54,19.63-13.17,41.4-14.85,63.51,5.1-18.8,11.78-37,22.84-51.6,2.83-4.36,14.19-10.84,13-9.09-17.41,26.18-27.47,57.71-29.1,90.87a1.77,1.77,0,0,1-1.59,1.86,19.72,19.72,0,0,1-7-1.29,1.55,1.55,0,0,1-2.8-1.11v-.15c-.22-.12-.44-.21-.66-.34,0,1.24-1.12,2.54-2.38,1.81C699.12,972.87,699.75,967.45,700.14,962.55Z" transform="translate(0.89 -14.98)"/><path class="cls-7" d="M758.66,970.44c-.48-7.06-1.57-14.07-2-21.14-1.23-20.78-14.86-41.61-14.31-40.26,6,14.76,8.33,31.12,9.39,47.75C748.52,942.65,744.3,929,737.3,918c-1.79-3.27-9-8.15-8.23-6.83,11,19.69,17.38,43.38,18.41,68.31,0,.75.43,1.41,1,1.4a10.77,10.77,0,0,0,4.42-1c.52.88,1.75.62,1.77-.83V979c.14-.09.27-.15.41-.25,0,.93.71,1.91,1.51,1.36C759.3,978.19,758.9,974.12,758.66,970.44Z" transform="translate(0.89 -14.98)"/><path class="cls-8" d="M716.52,936.17a73.27,73.27,0,0,0-3,7.43c-1.5,4.41-3.5,11.06-3.81,17.23q-.84,4.35-1.53,8.69a1.84,1.84,0,0,0,.38,1.47,2,2,0,0,0,1.85,2.37,18.42,18.42,0,0,0,6.74-.28,1.91,1.91,0,0,0,1.71-1.47,148.68,148.68,0,0,1,31.06-72C751.36,897.78,722.5,920.58,716.52,936.17Z" transform="translate(0.89 -14.98)"/><path class="cls-8" d="M768.65,922.76A189.77,189.77,0,0,0,744,971.58a1.87,1.87,0,0,0,1.43,2.21,32.26,32.26,0,0,0,9.81,0,1.91,1.91,0,0,0,1.72-1.46,113.61,113.61,0,0,1,15.27-48.29c2-2.77,4-5.51,6.15-8.18C779.42,914.57,770.6,919.46,768.65,922.76Z" transform="translate(0.89 -14.98)"/><path class="cls-5" d="M729.49,583.55s27.85-10.78,52.85,5.41c0,0,22.3-19.36,52-11.26,0,0-41.9,9-52,22.95C782.34,600.65,766.39,582.65,729.49,583.55Z" transform="translate(0.89 -14.98)"/><rect class="cls-1" x="539" y="925.62" width="539.84" height="139.4"/><path class="cls-9" d="M539.11,932.5s-65.62.65-147.25,38.7C359,986.5,347.41,1013.83,270,1010.29s-104.34,30.85-120.49,36.6-57.87,3.76-65.94,33.11H539.11Z" transform="translate(0.89 -14.98)"/><path class="cls-7" d="M755.47,925.7a133.64,133.64,0,0,1,19.81,34.78,1.39,1.39,0,0,1-1,1.67,25.13,25.13,0,0,1-7.45.38c-.56,0-1.27-.39-1.34-1a79.57,79.57,0,0,0-12.67-34.74c-1.56-1.95-3.18-3.88-4.85-5.75C747.1,920.1,753.91,923.35,755.47,925.7Z" transform="translate(0.89 -14.98)"/><path class="cls-8" d="M784.27,953.25c-.65-6.86-2.12-13.66-2.69-20.53-1.66-20.17-20.15-40.39-19.4-39.09,8.18,14.33,11.29,30.22,12.73,46.36-4.37-13.73-10.1-27-19.58-37.66-2.43-3.18-12.16-7.91-11.17-6.63a118.44,118.44,0,0,1,25,66.31,1.38,1.38,0,0,0,1.36,1.36,19.61,19.61,0,0,0,6-.94,1.35,1.35,0,0,0,2.41-.81.41.41,0,0,1,0-.11c.18-.09.37-.15.56-.24a1.44,1.44,0,0,0,2,1.32C785.15,960.77,784.61,956.82,784.27,953.25Z" transform="translate(0.89 -14.98)"/><path class="cls-7" d="M772.13,956.6c.55-6.86,1.81-13.66,2.29-20.53,1.42-20.17,17.16-40.39,16.52-39.09-7,14.33-9.61,30.22-10.84,46.36,3.72-13.72,8.6-27,16.67-37.66,2.07-3.18,10.36-7.91,9.51-6.63-12.71,19.11-20.06,42.12-21.25,66.32a1.29,1.29,0,0,1-1.16,1.36,14.43,14.43,0,0,1-5.09-1,1.13,1.13,0,0,1-2-.81v-.11c-.15-.09-.31-.15-.48-.24,0,.9-.81,1.85-1.73,1.32C771.39,964.12,771.85,960.17,772.13,956.6Z" transform="translate(0.89 -14.98)"/><path class="cls-7" d="M814.84,962.35c-.35-5.15-1.14-10.26-1.45-15.43-.89-15.16-10.85-30.36-10.45-29.38,4.41,10.77,6.09,22.71,6.86,34.85-2.35-10.32-5.44-20.28-10.54-28.32-1.31-2.38-6.55-5.94-6-5,8,14.37,12.69,31.66,13.44,49.86,0,.54.32,1,.73,1a7.94,7.94,0,0,0,3.23-.71c.38.64,1.28.45,1.29-.61v-.08c.1-.07.2-.11.3-.19,0,.68.52,1.4,1.1,1C815.31,968,815,965,814.84,962.35Z" transform="translate(0.89 -14.98)"/><path class="cls-8" d="M784.09,937.34a51.38,51.38,0,0,0-2.23,5.42,48.76,48.76,0,0,0-2.78,12.58c-.41,2.12-.79,4.23-1.11,6.34a1.35,1.35,0,0,0,.27,1.08,1.46,1.46,0,0,0,1.35,1.72,13.36,13.36,0,0,0,4.92-.2,1.41,1.41,0,0,0,1.25-1.07,108.43,108.43,0,0,1,22.66-52.52C809.51,909.32,788.45,926,784.09,937.34Z" transform="translate(0.89 -14.98)"/><path class="cls-8" d="M822.14,927.56a138.3,138.3,0,0,0-18,35.62,1.37,1.37,0,0,0,1,1.62,23.48,23.48,0,0,0,7.15,0c.54-.08,1.21-.45,1.26-1.07a82.89,82.89,0,0,1,11.15-35.24c1.45-2,2.94-4,4.49-6C830,921.57,823.56,925.15,822.14,927.56Z" transform="translate(0.89 -14.98)"/><path class="cls-5" d="M726.5,679.91v249.5a13.2,13.2,0,0,1-13.2,13.2h-306a13.2,13.2,0,0,1-13.2-13.2V679.91a21.33,21.33,0,0,1,21.33-21.32H705.18A21.33,21.33,0,0,1,726.5,679.91Z" transform="translate(0.89 -14.98)"/><path class="cls-10" d="M726.5,679.91V702.7H394.08V679.91a21.32,21.32,0,0,1,21.33-21.32H705.18A21.32,21.32,0,0,1,726.5,679.91Z" transform="translate(0.89 -14.98)"/><path class="cls-1" d="M427.72,680.64a5.25,5.25,0,1,0-5.25,5.26A5.25,5.25,0,0,0,427.72,680.64Z" transform="translate(0.89 -14.98)"/><path class="cls-1" d="M452,680.64a5.26,5.26,0,1,0-5.26,5.26A5.25,5.25,0,0,0,452,680.64Z" transform="translate(0.89 -14.98)"/><path class="cls-1" d="M476.33,680.64a5.25,5.25,0,1,0-5.25,5.26A5.25,5.25,0,0,0,476.33,680.64Z" transform="translate(0.89 -14.98)"/><path class="cls-1" d="M707.32,680.64a15,15,0,1,0-15,15A14.94,14.94,0,0,0,707.32,680.64Z" transform="translate(0.89 -14.98)"/><path class="cls-11" d="M698.94,688.34a1.15,1.15,0,0,1-.8-.33l-13-13a1.13,1.13,0,0,1,1.6-1.6l13,13a1.13,1.13,0,0,1-.8,1.92Z" transform="translate(0.89 -14.98)"/><path class="cls-11" d="M685.94,688.34a1.15,1.15,0,0,1-.8-.33,1.12,1.12,0,0,1,0-1.59l13-13a1.13,1.13,0,0,1,1.6,1.6l-13,13A1.13,1.13,0,0,1,685.94,688.34Z" transform="translate(0.89 -14.98)"/><path class="cls-1" d="M685.55,767.94H439a21.77,21.77,0,0,1-21.76-21.77h0A21.77,21.77,0,0,1,439,724.4H685.55a21.77,21.77,0,0,1,21.77,21.77h0A21.77,21.77,0,0,1,685.55,767.94Z" transform="translate(0.89 -14.98)"/><path class="cls-10" d="M685.55,724.4a21.77,21.77,0,1,1,0,43.54H439a21.77,21.77,0,0,1,0-43.54Zm0-5.16H439a26.93,26.93,0,0,0,0,53.86H685.55a26.93,26.93,0,1,0,0-53.86Z" transform="translate(0.89 -14.98)"/><path class="cls-11" d="M586,749.89l3.39-.33a4.18,4.18,0,0,0,1.24,2.51,3.8,3.8,0,0,0,2.53.8,3.87,3.87,0,0,0,2.54-.71,2.14,2.14,0,0,0,.85-1.67,1.59,1.59,0,0,0-.36-1,2.84,2.84,0,0,0-1.25-.74c-.41-.15-1.34-.4-2.79-.76a9.31,9.31,0,0,1-3.93-1.71,4.48,4.48,0,0,1-1.59-3.47,4.39,4.39,0,0,1,.75-2.46,4.59,4.59,0,0,1,2.15-1.75,8.64,8.64,0,0,1,3.39-.6,7.26,7.26,0,0,1,4.89,1.42,5,5,0,0,1,1.73,3.81l-3.48.15a3,3,0,0,0-1-1.92,3.58,3.58,0,0,0-2.21-.58,4,4,0,0,0-2.38.63,1.24,1.24,0,0,0-.55,1.07,1.32,1.32,0,0,0,.52,1.05,9.1,9.1,0,0,0,3.2,1.15A16.82,16.82,0,0,1,597.4,746a4.87,4.87,0,0,1,1.9,1.75,5.12,5.12,0,0,1,.69,2.75,5.07,5.07,0,0,1-.82,2.78,5,5,0,0,1-2.33,1.92,9.81,9.81,0,0,1-3.76.63,7.45,7.45,0,0,1-5-1.51A6.6,6.6,0,0,1,586,749.89Z" transform="translate(0.89 -14.98)"/><path class="cls-11" d="M603.42,755.51V738.25h12.8v2.92h-9.31V745h8.66v2.9h-8.66v4.7h9.64v2.91Z" transform="translate(0.89 -14.98)"/><path class="cls-11" d="M636,755.51h-3.79l-1.5-3.92h-6.9l-1.42,3.92h-3.7l6.72-17.26h3.69Zm-6.41-6.83-2.38-6.4-2.33,6.4Z" transform="translate(0.89 -14.98)"/><path class="cls-11" d="M638.55,755.51V738.25h7.34a12.56,12.56,0,0,1,4,.47,4,4,0,0,1,2,1.65,4.91,4.91,0,0,1,.76,2.72,4.64,4.64,0,0,1-1.14,3.21,5.53,5.53,0,0,1-3.42,1.59,8.12,8.12,0,0,1,1.87,1.45,19.94,19.94,0,0,1,2,2.8l2.11,3.37H649.9l-2.52-3.76a25.44,25.44,0,0,0-1.83-2.53,2.68,2.68,0,0,0-1-.72,5.74,5.74,0,0,0-1.76-.2H642v7.21Zm3.49-10h2.58a13.45,13.45,0,0,0,3.13-.21,1.88,1.88,0,0,0,1-.73,2.24,2.24,0,0,0,.36-1.3,2,2,0,0,0-.47-1.4,2.11,2.11,0,0,0-1.31-.68c-.28,0-1.13-.06-2.54-.06H642Z" transform="translate(0.89 -14.98)"/><path class="cls-11" d="M667.17,749.16l3.38,1.08a7.59,7.59,0,0,1-2.58,4.19,8.14,8.14,0,0,1-10.24-1,9,9,0,0,1-2.21-6.42,9.4,9.4,0,0,1,2.23-6.69,7.61,7.61,0,0,1,5.84-2.38,7.17,7.17,0,0,1,5.15,1.87A6.85,6.85,0,0,1,670.5,743l-3.45.82a3.54,3.54,0,0,0-3.63-2.89,3.93,3.93,0,0,0-3.12,1.37,6.8,6.8,0,0,0-1.19,4.46c0,2.19.39,3.74,1.18,4.67a3.82,3.82,0,0,0,3.06,1.38,3.48,3.48,0,0,0,2.39-.88A5.16,5.16,0,0,0,667.17,749.16Z" transform="translate(0.89 -14.98)"/><path class="cls-11" d="M673.85,755.51V738.25h3.48V745h6.83v-6.79h3.48v17.26h-3.48V748h-6.83v7.55Z" transform="translate(0.89 -14.98)"/><rect class="cls-1" x="419.79" y="879.07" width="290.03" height="47.76" rx="3.51" transform="translate(1130.51 1790.92) rotate(180)"/><rect class="cls-1" x="628.34" y="783.64" width="81.59" height="81.59" rx="3.51" transform="translate(1339.16 1633.88) rotate(180)"/><rect class="cls-12" x="461.31" y="873.12" width="33.5" height="5.05" rx="0.75"/><rect class="cls-12" x="451.02" y="873.12" width="6.06" height="5.05" rx="0.75"/><rect class="cls-12" x="487.09" y="881.37" width="33.5" height="5.05" rx="0.75"/><rect class="cls-12" x="476.8" y="881.37" width="6.06" height="5.05" rx="0.75"/><rect class="cls-12" x="499.57" y="873.12" width="21.03" height="5.05" rx="0.75"/><rect class="cls-12" x="451.02" y="881.37" width="21.03" height="5.05" rx="0.75"/><rect class="cls-12" x="461.31" y="890.43" width="33.5" height="5.05" rx="0.75"/><rect class="cls-12" x="451.02" y="890.43" width="6.06" height="5.05" rx="0.75"/><rect class="cls-12" x="487.09" y="898.68" width="33.5" height="5.05" rx="0.75"/><rect class="cls-12" x="476.8" y="898.68" width="6.06" height="5.05" rx="0.75"/><rect class="cls-12" x="499.57" y="890.43" width="21.03" height="5.05" rx="0.75"/><rect class="cls-12" x="451.02" y="898.68" width="21.03" height="5.05" rx="0.75"/><rect class="cls-12" x="546.73" y="873.12" width="33.5" height="5.05" rx="0.75"/><rect class="cls-12" x="536.44" y="873.12" width="6.06" height="5.05" rx="0.75"/><rect class="cls-12" x="572.52" y="881.37" width="33.5" height="5.05" rx="0.75"/><rect class="cls-12" x="562.22" y="881.37" width="6.06" height="5.05" rx="0.75"/><rect class="cls-12" x="584.99" y="873.12" width="21.03" height="5.05" rx="0.75"/><rect class="cls-12" x="536.44" y="881.37" width="21.03" height="5.05" rx="0.75"/><rect class="cls-12" x="546.73" y="890.43" width="33.5" height="5.05" rx="0.75"/><rect class="cls-12" x="536.44" y="890.43" width="6.06" height="5.05" rx="0.75"/><rect class="cls-12" x="572.52" y="898.68" width="33.5" height="5.05" rx="0.75"/><rect class="cls-12" x="562.22" y="898.68" width="6.06" height="5.05" rx="0.75"/><rect class="cls-12" x="584.99" y="890.43" width="21.03" height="5.05" rx="0.75"/><rect class="cls-12" x="536.44" y="898.68" width="21.03" height="5.05" rx="0.75"/><rect class="cls-12" x="632.15" y="873.12" width="33.5" height="5.05" rx="0.75"/><rect class="cls-12" x="621.86" y="873.12" width="6.06" height="5.05" rx="0.75"/><rect class="cls-12" x="657.93" y="881.37" width="33.5" height="5.05" rx="0.75"/><rect class="cls-12" x="647.64" y="881.37" width="6.06" height="5.05" rx="0.75"/><rect class="cls-12" x="670.41" y="873.12" width="21.03" height="5.05" rx="0.75"/><rect class="cls-12" x="621.86" y="881.37" width="21.03" height="5.05" rx="0.75"/><rect class="cls-12" x="632.15" y="890.43" width="33.5" height="5.05" rx="0.75"/><rect class="cls-12" x="621.86" y="890.43" width="6.06" height="5.05" rx="0.75"/><rect class="cls-12" x="657.93" y="898.68" width="33.5" height="5.05" rx="0.75"/><rect class="cls-12" x="647.64" y="898.68" width="6.06" height="5.05" rx="0.75"/><rect class="cls-12" x="670.41" y="890.43" width="21.03" height="5.05" rx="0.75"/><rect class="cls-12" x="621.86" y="898.68" width="21.03" height="5.05" rx="0.75"/><rect class="cls-7" x="648.21" y="796.19" width="7.21" height="39.93"/><rect class="cls-8" x="659.7" y="808.86" width="7.21" height="27.26"/><rect class="cls-7" x="671.19" y="802.02" width="7.21" height="34.1"/><rect class="cls-8" x="682.68" y="819.07" width="7.21" height="17.05"/><rect class="cls-7" x="694.18" y="824.62" width="7.21" height="11.5"/><path class="cls-13" d="M641.69,847.26h-4.15a.74.74,0,0,1,0-1.47h4.15a.74.74,0,1,1,0,1.47Z" transform="translate(0.89 -14.98)"/><path class="cls-13" d="M641.69,840.34h-4.15a.74.74,0,0,1,0-1.47h4.15a.74.74,0,1,1,0,1.47Z" transform="translate(0.89 -14.98)"/><path class="cls-13" d="M641.69,833.41h-4.15a.74.74,0,0,1,0-1.47h4.15a.74.74,0,1,1,0,1.47Z" transform="translate(0.89 -14.98)"/><path class="cls-13" d="M641.69,826.49h-4.15a.74.74,0,0,1,0-1.47h4.15a.74.74,0,1,1,0,1.47Z" transform="translate(0.89 -14.98)"/><path class="cls-13" d="M641.69,819.57h-4.15a.74.74,0,0,1,0-1.47h4.15a.74.74,0,1,1,0,1.47Z" transform="translate(0.89 -14.98)"/><path class="cls-13" d="M641.69,812.64h-4.15a.73.73,0,0,1,0-1.46h4.15a.73.73,0,1,1,0,1.46Z" transform="translate(0.89 -14.98)"/><path class="cls-13" d="M641.69,805.72h-4.15a.74.74,0,0,1,0-1.47h4.15a.74.74,0,1,1,0,1.47Z" transform="translate(0.89 -14.98)"/><path class="cls-14" d="M701.41,851.83H641V800.76a.74.74,0,0,1,1.47,0v49.6h59a.74.74,0,0,1,0,1.47Z" transform="translate(0.89 -14.98)"/><path class="cls-1" d="M612,789v70.45a5.48,5.48,0,0,1-5.47,5.48H426.36a5.79,5.79,0,0,1-5.79-5.79V789.29a5.79,5.79,0,0,1,5.79-5.79H606.55A5.47,5.47,0,0,1,612,789Z" transform="translate(0.89 -14.98)"/><path class="cls-15" d="M596.65,864.87V806.35l-1.21,1v57.53Z" transform="translate(0.89 -14.98)"/><path class="cls-15" d="M592.55,864.87V809.44c-.41.26-.81.51-1.22.75v54.68Z" transform="translate(0.89 -14.98)"/><path class="cls-15" d="M588.44,864.87V811.51a9.76,9.76,0,0,1-1.22.29v53.07Z" transform="translate(0.89 -14.98)"/><path class="cls-15" d="M584.33,864.87V811.68c-.41-.1-.81-.23-1.22-.36v53.55Z" transform="translate(0.89 -14.98)"/><path class="cls-15" d="M580.22,864.87V810.29h0l-1.18-.36v55Z" transform="translate(0.89 -14.98)"/><path class="cls-15" d="M576.12,864.87v-56c-.41-.16-.82-.34-1.22-.53v56.49Z" transform="translate(0.89 -14.98)"/><path class="cls-15" d="M572,864.87V807.19l-.48-.2a4.46,4.46,0,0,1-.74.47v57.41Z" transform="translate(0.89 -14.98)"/><path class="cls-15" d="M567.9,864.87V809.14c-.42.3-.82.61-1.22.94v54.79Z" transform="translate(0.89 -14.98)"/><path class="cls-15" d="M563.79,864.87V812.73c-.4.39-.8.78-1.21,1.16v51Z" transform="translate(0.89 -14.98)"/><path class="cls-15" d="M559.69,864.87V816.48c-.42.38-.82.78-1.22,1.19v47.2Z" transform="translate(0.89 -14.98)"/><path class="cls-15" d="M555.58,864.87v-44l-1.22,1.39v42.6Z" transform="translate(0.89 -14.98)"/><path class="cls-15" d="M551.47,864.87V825.3l-.45.44a6.27,6.27,0,0,1-.76.57v38.56Z" transform="translate(0.89 -14.98)"/><path class="cls-15" d="M547.37,864.87V829.64a10.11,10.11,0,0,1-1.22,1.38v33.85Z" transform="translate(0.89 -14.98)"/><path class="cls-15" d="M543.26,864.87V833.78a2.43,2.43,0,0,1-.25.2c-.34.37-.65.77-1,1.17v29.72Z" transform="translate(0.89 -14.98)"/><path class="cls-15" d="M539.15,864.87v-26c-.39.48-.8.94-1.22,1.4v24.63Z" transform="translate(0.89 -14.98)"/><path class="cls-15" d="M535,864.87v-21.1a3.77,3.77,0,0,1-1.21.84v20.26Z" transform="translate(0.89 -14.98)"/><path class="cls-15" d="M530.94,864.87V844.72a4.71,4.71,0,0,1-1.22-.58v20.73Z" transform="translate(0.89 -14.98)"/><path class="cls-15" d="M526.83,864.87V840.23c-.4-.37-.8-.73-1.22-1.07v25.71Z" transform="translate(0.89 -14.98)"/><path class="cls-15" d="M522.72,864.87V836.75a16.29,16.29,0,0,1-1.2-1.15h0v29.27Z" transform="translate(0.89 -14.98)"/><path class="cls-15" d="M518.61,864.87V833.74c-.39-.33-.8-.65-1.21-.94v32.07Z" transform="translate(0.89 -14.98)"/><path class="cls-15" d="M514.51,864.87v-34l-1.22-.77v34.73Z" transform="translate(0.89 -14.98)"/><path class="cls-15" d="M510.4,864.87V828.05c-.42-.37-.82-.75-1.22-1.17v38Z" transform="translate(0.89 -14.98)"/><path class="cls-15" d="M506.29,864.87v-41.2c-.39-.44-.8-.87-1.21-1.29v42.49Z" transform="translate(0.89 -14.98)"/><path class="cls-15" d="M502.19,864.87V819.78a13.28,13.28,0,0,0-1.22-.84v45.93Z" transform="translate(0.89 -14.98)"/><path class="cls-15" d="M498.08,864.87v-47.2a7.2,7.2,0,0,0-1.22-.19v47.39Z" transform="translate(0.89 -14.98)"/><path class="cls-15" d="M494,864.87v-47a10.87,10.87,0,0,0-1.22.56v46.41Z" transform="translate(0.89 -14.98)"/><path class="cls-15" d="M489.86,864.87V820.43l-1.21,1v43.48Z" transform="translate(0.89 -14.98)"/><path class="cls-15" d="M485.76,864.87v-41c-.41.37-.82.74-1.22,1.12v39.85Z" transform="translate(0.89 -14.98)"/><path class="cls-15" d="M481.65,864.87v-37L480.43,829v35.84Z" transform="translate(0.89 -14.98)"/><path class="cls-15" d="M477.54,864.87v-33c-.4.39-.81.76-1.21,1.14v31.88Z" transform="translate(0.89 -14.98)"/><path class="cls-15" d="M473.43,864.87V835.53c-.4.33-.8.67-1.21,1v28.35Z" transform="translate(0.89 -14.98)"/><path class="cls-15" d="M469.33,864.87V839a4.18,4.18,0,0,1-1.22,1v24.94Z" transform="translate(0.89 -14.98)"/><path class="cls-15" d="M465.22,864.87v-24.4a8,8,0,0,1-1.22-.13v24.53Z" transform="translate(0.89 -14.98)"/><path class="cls-15" d="M461.11,864.87V839.28a14,14,0,0,1-1.21-.74v26.33Z" transform="translate(0.89 -14.98)"/><path class="cls-15" d="M457,864.87V836.52l-1.22-.86v29.21Z" transform="translate(0.89 -14.98)"/><path class="cls-15" d="M452.9,864.87V833.68c-.4-.26-.81-.5-1.22-.73v31.92Z" transform="translate(0.89 -14.98)"/><path class="cls-15" d="M448.79,864.87V831.73c-.21-.06-.42-.13-.63-.17a5.63,5.63,0,0,0-.58,0v33.34Z" transform="translate(0.89 -14.98)"/><path class="cls-15" d="M444.68,864.87V831.69c-.4.09-.81.22-1.21.34v32.84Z" transform="translate(0.89 -14.98)"/><path class="cls-15" d="M440.58,864.87V833.14c-.41.18-.82.37-1.22.57v31.16Z" transform="translate(0.89 -14.98)"/><path class="cls-15" d="M436.47,864.87V835.23l-1.22.65v29Z" transform="translate(0.89 -14.98)"/><path class="cls-15" d="M432.36,864.87V837.61l-1.22.83v26.43Z" transform="translate(0.89 -14.98)"/><path class="cls-15" d="M428.25,864.87V840.39c-.4.25-.8.5-1.21.74v23.74Z" transform="translate(0.89 -14.98)"/><path class="cls-15" d="M423.06,864.05a2.6,2.6,0,0,0,1.09.5v-22a12.16,12.16,0,0,1-1.22.38V864A1,1,0,0,1,423.06,864.05Z" transform="translate(0.89 -14.98)"/><polygon class="cls-10" points="603.05 784.88 603.05 787.2 588.76 798.42 569.6 792.89 534.05 832.45 497.16 801.82 467.74 828.21 447.31 815.82 421.46 831.3 421.46 829.18 447.31 813.7 467.54 825.95 497.12 799.41 533.87 829.93 569.01 790.81 588.38 796.41 603.05 784.88"/><path class="cls-10" d="M449.13,829.74a2.71,2.71,0,1,0-2.71,2.7A2.71,2.71,0,0,0,449.13,829.74Z" transform="translate(0.89 -14.98)"/><path class="cls-10" d="M469.45,841.92a2.71,2.71,0,1,0-2.71,2.71A2.71,2.71,0,0,0,469.45,841.92Z" transform="translate(0.89 -14.98)"/><path class="cls-10" d="M499.06,815.57a2.71,2.71,0,1,0-2.71,2.71A2.7,2.7,0,0,0,499.06,815.57Z" transform="translate(0.89 -14.98)"/><path class="cls-10" d="M535.87,846.15a2.71,2.71,0,1,0-2.7,2.71A2.71,2.71,0,0,0,535.87,846.15Z" transform="translate(0.89 -14.98)"/><path class="cls-10" d="M571,807.22a2.71,2.71,0,1,0-2.7,2.7A2.7,2.7,0,0,0,571,807.22Z" transform="translate(0.89 -14.98)"/><path class="cls-10" d="M590.15,812.63a2.71,2.71,0,1,0-2.71,2.71A2.71,2.71,0,0,0,590.15,812.63Z" transform="translate(0.89 -14.98)"/><rect class="cls-15" x="430.36" y="788.08" width="101.08" height="2.77"/><rect class="cls-15" x="430.36" y="781.89" width="101.08" height="2.77"/><rect class="cls-10" x="430.36" y="788.08" width="18.71" height="2.77"/><rect class="cls-10" x="430.36" y="781.89" width="37.03" height="2.77"/><path class="cls-10" d="M441.13,793.44H430.86a1.38,1.38,0,0,1-1.39-1.38h0a1.38,1.38,0,0,1,1.39-1.38h10.27a1.38,1.38,0,0,1,1.39,1.38h0A1.38,1.38,0,0,1,441.13,793.44Z" transform="translate(0.89 -14.98)"/><polygon class="cls-10" points="608.82 782.65 596.19 782.87 602.85 786.27 603.14 793.28 608.82 782.65"/><path class="cls-7" d="M617.4,925.89a110.84,110.84,0,0,1,16.39,28.79,1.16,1.16,0,0,1-.85,1.39,21.27,21.27,0,0,1-6.17.31c-.47,0-1-.32-1.11-.83a66,66,0,0,0-10.48-28.76c-1.3-1.61-2.63-3.21-4-4.76C610.48,921.26,616.11,924,617.4,925.89Z" transform="translate(0.89 -14.98)"/><path class="cls-8" d="M641.24,948.7c-.54-5.68-1.76-11.31-2.23-17-1.38-16.7-16.67-33.43-16.06-32.35,6.78,11.86,9.35,25,10.54,38.36-3.62-11.36-8.36-22.32-16.21-31.16-2-2.64-10.06-6.55-9.23-5.49A98.07,98.07,0,0,1,628.7,956a1.15,1.15,0,0,0,1.12,1.13,16.26,16.26,0,0,0,5-.78,1.12,1.12,0,0,0,2-.67s0-.07,0-.1c.16-.07.31-.12.47-.2a1.18,1.18,0,0,0,1.69,1.09C642,954.92,641.52,951.65,641.24,948.7Z" transform="translate(0.89 -14.98)"/><path class="cls-7" d="M631.19,951.47c.46-5.68,1.5-11.31,1.9-17,1.17-16.69,14.19-33.43,13.67-32.35-5.77,11.86-8,25-9,38.37,3.09-11.36,7.13-22.33,13.8-31.17,1.71-2.63,8.57-6.55,7.87-5.49a108.7,108.7,0,0,0-17.58,54.88,1.08,1.08,0,0,1-1,1.13,11.94,11.94,0,0,1-4.22-.78.93.93,0,0,1-1.69-.67v-.1l-.4-.19c0,.74-.67,1.53-1.44,1.09C630.58,957.7,631,954.43,631.19,951.47Z" transform="translate(0.89 -14.98)"/><path class="cls-7" d="M666.53,956.23c-.28-4.26-.94-8.5-1.19-12.77-.75-12.55-9-25.13-8.65-24.32,3.65,8.92,5,18.8,5.68,28.84-2-8.54-4.51-16.78-8.73-23.43-1.09-2-5.42-4.92-5-4.12,6.66,11.89,10.5,26.2,11.12,41.25,0,.46.27.86.61.85a6.63,6.63,0,0,0,2.67-.58c.31.53,1.06.37,1.07-.51v-.07l.25-.15c0,.56.42,1.16.91.82C666.92,960.91,666.68,958.45,666.53,956.23Z" transform="translate(0.89 -14.98)"/><path class="cls-8" d="M641.09,935.53a44.09,44.09,0,0,0-1.85,4.49,40.17,40.17,0,0,0-2.3,10.41q-.51,2.63-.92,5.25a1,1,0,0,0,.23.88,1.21,1.21,0,0,0,1.11,1.43,10.72,10.72,0,0,0,4.07-.17,1.14,1.14,0,0,0,1-.88,89.76,89.76,0,0,1,18.76-43.47C662.13,912.34,644.7,926.11,641.09,935.53Z" transform="translate(0.89 -14.98)"/><path class="cls-8" d="M672.57,927.43a114.36,114.36,0,0,0-14.89,29.49,1.11,1.11,0,0,0,.86,1.33,19.26,19.26,0,0,0,5.92,0c.45-.06,1-.37,1-.88a68.78,68.78,0,0,1,9.22-29.17c1.21-1.67,2.44-3.32,3.72-4.94C679.08,922.48,673.75,925.44,672.57,927.43Z" transform="translate(0.89 -14.98)"/><path class="cls-7" d="M438.89,932.93a100.49,100.49,0,0,1,14.89,26.14,1.05,1.05,0,0,1-.78,1.26,19.1,19.1,0,0,1-5.6.29c-.42,0-.95-.3-1-.76a59.83,59.83,0,0,0-9.51-26.11c-1.18-1.47-2.4-2.92-3.66-4.33C432.6,928.73,437.72,931.17,438.89,932.93Z" transform="translate(0.89 -14.98)"/><path class="cls-8" d="M460.54,953.64c-.49-5.16-1.59-10.27-2-15.43-1.25-15.16-15.15-30.36-14.59-29.38,6.16,10.77,8.5,22.71,9.58,34.85-3.29-10.32-7.6-20.28-14.72-28.31-1.83-2.39-9.14-6-8.39-5a89.12,89.12,0,0,1,18.75,49.85,1,1,0,0,0,1,1,14.83,14.83,0,0,0,4.5-.71,1,1,0,0,0,1.81-.61v-.08l.42-.18a1.08,1.08,0,0,0,1.54,1C461.2,959.3,460.79,956.32,460.54,953.64Z" transform="translate(0.89 -14.98)"/><path class="cls-7" d="M451.42,956.16c.41-5.16,1.36-10.27,1.72-15.43,1.06-15.16,12.89-30.36,12.41-29.38-5.23,10.77-7.22,22.71-8.14,34.85,2.8-10.32,6.46-20.28,12.53-28.31,1.55-2.4,7.78-5.95,7.14-5a98.85,98.85,0,0,0-16,49.85,1,1,0,0,1-.87,1,11,11,0,0,1-3.83-.71.85.85,0,0,1-1.54-.61v-.08c-.11-.07-.23-.11-.35-.18,0,.67-.62,1.39-1.31,1C450.86,961.81,451.2,958.84,451.42,956.16Z" transform="translate(0.89 -14.98)"/><path class="cls-7" d="M483.52,960.48c-.26-3.87-.86-7.72-1.09-11.59-.68-11.4-8.16-22.83-7.85-22.09,3.31,8.1,4.57,17.07,5.15,26.19-1.77-7.75-4.09-15.24-7.93-21.28-1-1.79-4.92-4.47-4.51-3.74,6,10.79,9.53,23.8,10.09,37.47,0,.41.24.77.56.77a6,6,0,0,0,2.42-.54c.28.48,1,.34,1-.45v-.07l.23-.13c0,.5.39,1,.82.74C483.87,964.74,483.65,962.5,483.52,960.48Z" transform="translate(0.89 -14.98)"/><path class="cls-8" d="M460.4,941.68a39.21,39.21,0,0,0-1.67,4.08,36.27,36.27,0,0,0-2.09,9.45q-.47,2.38-.84,4.77a1,1,0,0,0,.21.8,1.1,1.1,0,0,0,1,1.3,10,10,0,0,0,3.7-.15,1.05,1.05,0,0,0,.94-.81,81.58,81.58,0,0,1,17-39.47C479.51,920.63,463.68,933.13,460.4,941.68Z" transform="translate(0.89 -14.98)"/><path class="cls-8" d="M489,934.33a103.86,103.86,0,0,0-13.53,26.77,1,1,0,0,0,.78,1.22,17.64,17.64,0,0,0,5.38,0c.41-.06.91-.34.95-.81A62.21,62.21,0,0,1,491,935c1.08-1.52,2.2-3,3.37-4.48C494.91,929.83,490.07,932.52,489,934.33Z" transform="translate(0.89 -14.98)"/><path class="cls-16" d="M693.09,704.13c-3.16-.69-13.4-8.14-14.18-9.25-1.34-1.9-.48-2.35-.48-2.35-1.68-1.82-.72-3-.72-3-1.35-2.59,1.75-1.75,1.75-1.75-.42-3.64,4.89-.39,6.31.77.77.62,4.48,2.76,4.48,2.76a3.4,3.4,0,0,0-.17-2.28c-.43-1-1.84-2.42-1.48-4.2.25-1.19,5,4.13,6.25,6.63,1,2,1.53,7.06,1.53,7.06l18,6.13-1.27,10.11Z" transform="translate(0.89 -14.98)"/><path class="cls-17" d="M741.22,679.16c-3.71,7.69-12.65,20.28-16,22.49-3.57,2.34-12.21.92-12.21.92l-7.23,12.08s17,5.67,22.3,4.21c8.55-2.35,27.2-15.46,33.6-28.71,4.39-9.1-1.52-20.18-9.31-19.52C747,671.08,742.22,677.09,741.22,679.16Z" transform="translate(0.89 -14.98)"/><path class="cls-8" d="M717.12,701.18s-8.47,9.25-9.67,15.85c0,0-3.53-.42-4.85-2,0,0,6.77-13.88,10.36-16.08A6.22,6.22,0,0,1,717.12,701.18Z" transform="translate(0.89 -14.98)"/><path class="cls-11" d="M718,928.42a25.82,25.82,0,0,0,10.54,1.7l-.17,11.18a27.82,27.82,0,0,1-7.62.17l-1.17-2.88-2.49,3s-14.55,2.11-22,1.48a4.11,4.11,0,0,1,2.71-4.77c3.58-1.5,11.73-3.59,14-5.24S718,928.42,718,928.42Z" transform="translate(0.89 -14.98)"/><path class="cls-18" d="M728.49,930.12l1.68-11.4-11.09-2.29-1.13,12C717.71,930.45,728.13,931.71,728.49,930.12Z" transform="translate(0.89 -14.98)"/><path class="cls-11" d="M791.52,918.33a25.8,25.8,0,0,0,9.3-5.25l6.84,8.84a28.14,28.14,0,0,1-5.85,4.89l-2.71-1.52,0,3.93s-10,10.74-16.3,14.93a4.11,4.11,0,0,1-.86-5.42c1.86-3.41,6.93-10.13,7.7-12.86S791.52,918.33,791.52,918.33Z" transform="translate(0.89 -14.98)"/><path class="cls-18" d="M800.82,913.08l-5.81-10-10.09,5.14,6.6,10.07C792.6,920.07,801.52,914.55,800.82,913.08Z" transform="translate(0.89 -14.98)"/><path class="cls-10" d="M723.12,770.93s-5.24,55.12-7.86,71.5-.33,79.9-.33,79.9l18.59,3.86,10.84-67.43A35.09,35.09,0,0,1,749.64,845c10.9-16.74,39.19-64,27.05-86.71C761.8,730.38,723.12,770.93,723.12,770.93Z" transform="translate(0.89 -14.98)"/><path class="cls-10" d="M739.09,760.82s14.76,81.29,17.87,94c3.24,13.23,28,62.63,28,62.63l15.94-11.75s-14.06-40.92-16.27-46.86,6-57.89,6.57-83S739.09,760.82,739.09,760.82Z" transform="translate(0.89 -14.98)"/><path class="cls-19" d="M723.09,772.57l-.6,5,68.67-1.61s-.12-7.33-1.69-9S723.09,772.57,723.09,772.57Z" transform="translate(0.89 -14.98)"/><path class="cls-1" d="M769.56,675.7c-6.66-7.61-21.32-11.14-30-1.55-11.9,13.21-19,82.6-18.34,99.91,0,0,47.86.79,69.66-2.15C790.92,771.91,782,689.88,769.56,675.7Z" transform="translate(0.89 -14.98)"/><path class="cls-5" d="M775.1,687.18s0,10.58-4.93,15.81-21.6,19.57-32.57,22.78-6.6-8-6.6-8Z" transform="translate(0.89 -14.98)"/><path class="cls-18" d="M736.25,636.22c-.21.47-.54,1.25-.88,2.08a8,8,0,0,1-4,3.85.64.64,0,0,0-.38.43c-.1.44.47,1.26,1.13,2a4.55,4.55,0,0,1,1,4.07c-.71,2.83-1.57,7.27-.22,8.18,2,1.37,8.76,3.72,8.76,3.72l1.83,11.34s2.41,3.7,13,1.36a10.85,10.85,0,0,0,5.08-2.28l-1.38-11.13s10.26-10.85,4.92-21.41S741.25,625.14,736.25,636.22Z" transform="translate(0.89 -14.98)"/><path class="cls-5" d="M723.81,737l-.55,4.87s26,24.5,31.39,27.28c4.85,2.51,17.21-.81,15.32-10.28S723.81,737,723.81,737Z" transform="translate(0.89 -14.98)"/><path class="cls-20" d="M584.65,623.88a46.72,46.72,0,1,1,28.87,59.43A46.72,46.72,0,0,1,584.65,623.88Z" transform="translate(0.89 -14.98)"/><path class="cls-1" d="M599.4,641.08a6,6,0,0,0,5.93-5.05,22.81,22.81,0,0,1,26.18-18.87,6,6,0,1,0,1.92-11.86,34.83,34.83,0,0,0-40,28.8,6,6,0,0,0,5,6.9A6.45,6.45,0,0,0,599.4,641.08Z" transform="translate(0.89 -14.98)"/><rect class="cls-21" x="668.24" y="667.04" width="11.66" height="24.15" transform="translate(-280.25 720.1) rotate(-48.57)"/><path class="cls-22" d="M768.79,763.46h0c-4.3,4.87-12.57,4.47-18.15-.88L674.36,689.8l10.23-11.6,81.07,67.36C771.66,750.44,773.08,758.59,768.79,763.46Z" transform="translate(0.89 -14.98)"/><path class="cls-23" d="M574.89,659.07a57.47,57.47,0,1,0,10.83-57.92A57,57,0,0,0,574.89,659.07Zm17.35,0a41.63,41.63,0,0,1,62.09-52.79c.68.53,1.37,1.08,2,1.66a41.65,41.65,0,0,1-55.1,62.46A41.14,41.14,0,0,1,592.24,659.07Z" transform="translate(0.89 -14.98)"/><path class="cls-17" d="M761.77,670.19s-12.12,5.34-19,1.16l-.94.69s8.79,5.79,21.3-1.21A2.86,2.86,0,0,0,761.77,670.19Z" transform="translate(0.89 -14.98)"/><path class="cls-24" d="M736.25,636.22s19,5.34,20.71,7.12,4.15,4.75,4.15,4.75v-7.2l-10.74-6.08-11.58-2.44S736.17,634.77,736.25,636.22Z" transform="translate(0.89 -14.98)"/><path class="cls-24" d="M741.63,660.56s7.11.59,9.7,0c0,0-5.33,2.87-9.3,2.43Z" transform="translate(0.89 -14.98)"/><path class="cls-11" d="M760.11,643.2c-1.14-3.13-9.5-6.81-16.31-7.42s-16.88-7.76-13.74-11.1,10.4-4.35,12.49-3.72-1.14-4.77,2.26-5.18,24,4.54,26,15.78c2.24,12.82-3.18,24-10.62,28.29l.21-5.42s6.18-2.88,5.3-6.27c-.55-2.15-3.29-1.41-4.54-.07A45.33,45.33,0,0,0,760.11,643.2Z" transform="translate(0.89 -14.98)"/><path class="cls-18" d="M704.59,706.19c-3.15-.76-13.22-8.44-14-9.57-1.29-1.92-.43-2.36-.43-2.36-1.63-1.86-.64-3-.64-3-1.29-2.62,1.78-1.71,1.78-1.71-.34-3.65,4.9-.28,6.29.91.76.64,4.43,2.86,4.43,2.86a3.38,3.38,0,0,0-.13-2.28c-.4-1-1.78-2.46-1.38-4.23.27-1.19,4.91,4.24,6.1,6.76,1,2,1.36,7.1,1.36,7.1l17.83,6.54-1.5,10.08Z" transform="translate(0.89 -14.98)"/><path class="cls-17" d="M753.27,682.33c-3.88,7.6-13.11,20-16.53,22.12-3.63,2.25-12.23.64-12.23.64L717,717s16.83,6.06,22.2,4.72c8.6-2.15,27.55-14.83,34.25-27.94,4.6-9-1.06-20.21-8.87-19.73C759.21,674.38,754.32,680.28,753.27,682.33Z" transform="translate(0.89 -14.98)"/><path class="cls-8" d="M728.68,703.79s-8.68,9.05-10,15.63c0,0-3.52-.5-4.8-2.12,0,0,7.07-13.72,10.72-15.84A6.24,6.24,0,0,1,728.68,703.79Z" transform="translate(0.89 -14.98)"/><path class="cls-19" d="M744.2,788.72l9.42,50s-6.86,9.82-8.06,14.93-12,72.55-12,72.55l-5-1s9.27-68.09,12.57-78.22S744.2,788.72,744.2,788.72Z" transform="translate(0.89 -14.98)"/><path class="cls-19" d="M784.43,849.44s0,9,.68,10.85l2,5.8s-5.33-5.49-8.54-5.32Z" transform="translate(0.89 -14.98)"/><path class="cls-11" d="M400.47,648.76s5.61,11,4,19.94-10.77,12.27-10.89,18,5.12,11.05,2.39,16.48-31.48,15.39-39.77,8.24-10.17-16.64-5-24,5.58-11.68,3.52-17.24S352.91,653.31,361,646C369.58,638.14,385.55,634.44,400.47,648.76Z" transform="translate(0.89 -14.98)"/><path class="cls-11" d="M360.4,927.68s7.15,9.45,6.34,15.41-14.39-9.94-14.39-9.94-2.89,3.25-3.75,3.13,1.25-8.84,4.83-11.12S360.4,927.68,360.4,927.68Z" transform="translate(0.89 -14.98)"/><path class="cls-18" d="M363.32,917.32l-4.14,9.15s4,7.64,1.61,9.39-9-9-9-9l2.82-10.7Z" transform="translate(0.89 -14.98)"/><path class="cls-11" d="M415.68,927.14s10.25,5.94,11.82,11.75-17.12-3.58-17.12-3.58-1.41,4.11-2.24,4.33-2.27-8.63.14-12.12S415.68,927.14,415.68,927.14Z" transform="translate(0.89 -14.98)"/><path class="cls-18" d="M414.35,916.46l-.27,10s6.68,5.48,5.13,8-11.76-4.83-11.76-4.83l-1.55-11Z" transform="translate(0.89 -14.98)"/><path class="cls-18" d="M411.44,760.53s5.92,10.63,6.83,11.25,7.7,2,9.56,4.68c1.39,2,3.9,5.18,4,6.11s-2.63-1-3.11-1.56a8.71,8.71,0,0,0-2.61-1.87c-.2.1,3.6,3.56,5,5.37s2,3.07,1.79,3.37-3.54-2.08-4.45-3,4.46,4.6,4.87,6.11-5.91-3.52-7-4.76,4.08,4.32,4,5.26-5.43-3.24-6.63-4.52,3.85,3.59,3.84,4.28-6.7-3.77-8.81-5.58c-2-1.67-3.48-3-5.35-9.58C413.15,774.9,406,766,406,766Z" transform="translate(0.89 -14.98)"/><path class="cls-21" d="M389.39,689.64c1-7.63-3.62-1.94-9.3,3.24-1.42,1.29-4-2.51-5.13-.39-6.18,11.94,8.84,47.81,12.62,54s22.34,28.8,22.34,28.8l7.9-7-18.33-28.2-5.21-24.89Z" transform="translate(0.89 -14.98)"/><path class="cls-1" d="M401.73,770.78s9.34,53.61,11.93,76.58,2,73.1,2,73.1H404.55s-11.31-54.7-11.31-63.61-15.21-47-15.21-47l-3.41-46.6Z" transform="translate(0.89 -14.98)"/><path class="cls-17" d="M388.78,806.12l-4,22.45s6.87,14.12,8,24.7,8.85,58,11.75,67.19h4.11s-9.31-50.58-9.89-61.26S388.78,806.12,388.78,806.12Z" transform="translate(0.89 -14.98)"/><path class="cls-1" d="M356.49,765.55s-8.78,22.65-5.55,52.93c4.44,41.75.58,99.9.58,99.9l14.19,2.74s15.82-63,19.68-99a77,77,0,0,1,9.66-30.21c7.2-12.53,9.5-22,9.5-22Z" transform="translate(0.89 -14.98)"/><path class="cls-5" d="M353.87,774.5l-1.11,4.86s35.47,6,51,3.45V779Z" transform="translate(0.89 -14.98)"/><path class="cls-25" d="M392.55,688.61s18.78,14.17,20.1,29.75c.49,5.83-8.49,13.58-9,18.13s-1.27,26.87,4.62,42.73c0,0-25.05,5.73-56.36-4.13,0,0,0-83.71,25.74-88.83Z" transform="translate(0.89 -14.98)"/><path class="cls-21" d="M403.64,736.49s-3.8,3.78-4.79,7.73,7.64,29.32,7.64,29.32S401.54,745.06,403.64,736.49Z" transform="translate(0.89 -14.98)"/><path class="cls-17" d="M545.59,808.39,548.21,791l-13.84-3.31a63,63,0,0,0-1.5-13.3L545.62,768l-6.45-16.41-13.65,4a63.77,63.77,0,0,0-7.95-10.76l7.89-11.85-13.79-11-9.78,10.34A63.24,63.24,0,0,0,489.62,727l.9-14.2-17.44-2.62-3.31,13.84a63,63,0,0,0-13.3,1.5l-6.32-12.75-16.41,6.45,4.05,13.65a63.77,63.77,0,0,0-10.76,8L415.18,733l-11,13.79,10.33,9.79a64.22,64.22,0,0,0-5.36,12.28L395,767.9l-2.63,17.44,13.84,3.31a63.7,63.7,0,0,0,1.5,13.3l-12.75,6.32,6.45,16.41,13.65-4a64.32,64.32,0,0,0,8,10.76l-7.89,11.85,13.79,11,9.78-10.32a64.18,64.18,0,0,0,12.28,5.35l-.91,14.2,17.44,2.62,3.31-13.84a63.7,63.7,0,0,0,13.3-1.5l6.32,12.75L506.81,857l-4.05-13.65a64.32,64.32,0,0,0,10.76-7.95l11.86,7.89,11-13.79L526,819.76a63.56,63.56,0,0,0,5.35-12.28Z" transform="translate(0.89 -14.98)"/><path class="cls-1" d="M415.9,780a55,55,0,1,1,46.2,62.56A55,55,0,0,1,415.9,780Z" transform="translate(0.89 -14.98)"/><path class="cls-7" d="M472.28,789.28a2.67,2.67,0,0,1-1.84-1.17,2.71,2.71,0,0,1,.73-3.76l24.41-16.41a2.71,2.71,0,1,1,3,4.49l-24.41,16.42A2.68,2.68,0,0,1,472.28,789.28Z" transform="translate(0.89 -14.98)"/><path class="cls-7" d="M490.13,802.41a2.76,2.76,0,0,1-.95-.33L468.93,790.5a2.71,2.71,0,0,1,2.69-4.71l20.25,11.58a2.71,2.71,0,0,1-1.74,5Z" transform="translate(0.89 -14.98)"/><path class="cls-7" d="M447,801.73a1.35,1.35,0,0,1-.43-2.54L469.65,787a1.35,1.35,0,1,1,1.26,2.39l-23.12,12.25A1.38,1.38,0,0,1,447,801.73Z" transform="translate(0.89 -14.98)"/><path class="cls-26" d="M464,787.19a6.39,6.39,0,1,1,5.36,7.28A6.39,6.39,0,0,1,464,787.19Z" transform="translate(0.89 -14.98)"/><path class="cls-27" d="M475.12,756a1.36,1.36,0,0,1-1.14-1.54l2-13.66a1.35,1.35,0,0,1,2.68.4l-2,13.66A1.36,1.36,0,0,1,475.12,756Z" transform="translate(0.89 -14.98)"/><path class="cls-7" d="M465.66,750.43a1.35,1.35,0,0,1-1.14-1.19l-.94-8.34a1.36,1.36,0,0,1,1.19-1.5,1.38,1.38,0,0,1,1.5,1.2l.94,8.34a1.36,1.36,0,0,1-1.2,1.5A1.38,1.38,0,0,1,465.66,750.43Z" transform="translate(0.89 -14.98)"/><path class="cls-7" d="M455.71,752.9a1.36,1.36,0,0,1-1.06-.84l-3.07-7.81a1.35,1.35,0,1,1,2.52-1l3.07,7.81a1.35,1.35,0,0,1-.77,1.75A1.28,1.28,0,0,1,455.71,752.9Z" transform="translate(0.89 -14.98)"/><path class="cls-7" d="M446.73,757.87a1.32,1.32,0,0,1-.89-.53l-5-6.76a1.36,1.36,0,0,1,.29-1.89A1.34,1.34,0,0,1,443,749l5,6.75a1.35,1.35,0,0,1-1.29,2.14Z" transform="translate(0.89 -14.98)"/><path class="cls-7" d="M439.34,765a1.31,1.31,0,0,1-.64-.28l-6.57-5.24a1.35,1.35,0,1,1,1.69-2.11l6.57,5.23a1.36,1.36,0,0,1-1.05,2.4Z" transform="translate(0.89 -14.98)"/><path class="cls-7" d="M434.05,773.78a1.33,1.33,0,0,1-.34-.1l-7.7-3.35a1.36,1.36,0,0,1-.7-1.78,1.39,1.39,0,0,1,1.78-.71l7.7,3.36a1.35,1.35,0,0,1-.74,2.58Z" transform="translate(0.89 -14.98)"/><path class="cls-28" d="M436.57,784.44l-13.66-2.05a1.35,1.35,0,0,1,.4-2.68L437,781.77a1.35,1.35,0,1,1-.4,2.67Z" transform="translate(0.89 -14.98)"/><path class="cls-7" d="M422.68,794.84a1.36,1.36,0,0,1,.05-2.69l8.35-.94a1.36,1.36,0,0,1,.3,2.7l-8.35.94A2,2,0,0,1,422.68,794.84Z" transform="translate(0.89 -14.98)"/><path class="cls-7" d="M425.68,806.92a1.35,1.35,0,0,1-.29-2.59l7.81-3.08A1.36,1.36,0,0,1,435,802a1.35,1.35,0,0,1-.77,1.75l-7.81,3.07A1.22,1.22,0,0,1,425.68,806.92Z" transform="translate(0.89 -14.98)"/><path class="cls-7" d="M431.71,817.82a1.36,1.36,0,0,1-.89-.54,1.34,1.34,0,0,1,.28-1.89l6.76-5a1.36,1.36,0,0,1,1.61,2.18l-6.76,5A1.35,1.35,0,0,1,431.71,817.82Z" transform="translate(0.89 -14.98)"/><path class="cls-7" d="M440.35,826.78a1.23,1.23,0,0,1-.64-.28,1.34,1.34,0,0,1-.22-1.9l5.23-6.57a1.37,1.37,0,0,1,1.91-.21,1.35,1.35,0,0,1,.21,1.9l-5.23,6.57A1.35,1.35,0,0,1,440.35,826.78Z" transform="translate(0.89 -14.98)"/><path class="cls-7" d="M451,833.21a1.39,1.39,0,0,1-.33-.1,1.36,1.36,0,0,1-.71-1.78l3.36-7.7a1.37,1.37,0,0,1,1.78-.7,1.35,1.35,0,0,1,.7,1.78l-3.35,7.7A1.38,1.38,0,0,1,451,833.21Z" transform="translate(0.89 -14.98)"/><path class="cls-29" d="M463,836.65a1.36,1.36,0,0,1-1.14-1.54l2.05-13.66a1.37,1.37,0,0,1,1.55-1.14,1.35,1.35,0,0,1,1.13,1.54l-2.05,13.66A1.36,1.36,0,0,1,463,836.65Z" transform="translate(0.89 -14.98)"/><path class="cls-7" d="M475.43,836.88a1.37,1.37,0,0,1-1.15-1.19l-.94-8.34a1.36,1.36,0,0,1,1.2-1.5,1.35,1.35,0,0,1,1.49,1.2l1,8.34a1.37,1.37,0,0,1-1.2,1.5A2,2,0,0,1,475.43,836.88Z" transform="translate(0.89 -14.98)"/><path class="cls-7" d="M487.51,833.88a1.37,1.37,0,0,1-1.06-.85l-3.06-7.81a1.35,1.35,0,0,1,2.51-1L489,832a1.36,1.36,0,0,1-.76,1.76A1.41,1.41,0,0,1,487.51,833.88Z" transform="translate(0.89 -14.98)"/><path class="cls-7" d="M498.41,827.85a1.32,1.32,0,0,1-.89-.53l-5-6.76a1.36,1.36,0,0,1,2.18-1.61l5,6.76a1.35,1.35,0,0,1-1.29,2.14Z" transform="translate(0.89 -14.98)"/><path class="cls-7" d="M507.37,819.21a1.26,1.26,0,0,1-.64-.28l-6.56-5.23a1.35,1.35,0,1,1,1.68-2.12l6.57,5.23a1.36,1.36,0,0,1-1.05,2.4Z" transform="translate(0.89 -14.98)"/><path class="cls-7" d="M513.79,808.54a1.35,1.35,0,0,1-.33-.09l-7.7-3.35a1.36,1.36,0,0,1-.7-1.79,1.38,1.38,0,0,1,1.78-.7l7.7,3.35a1.35,1.35,0,0,1-.75,2.58Z" transform="translate(0.89 -14.98)"/><path class="cls-30" d="M517.24,796.58l-13.66-2.06a1.36,1.36,0,0,1-1.14-1.54,1.34,1.34,0,0,1,1.54-1.13l13.66,2a1.35,1.35,0,0,1-.4,2.68Z" transform="translate(0.89 -14.98)"/><path class="cls-7" d="M509.13,785.07a1.35,1.35,0,0,1,.05-2.68l8.34-.94a1.35,1.35,0,1,1,.3,2.69l-8.34.94A1.36,1.36,0,0,1,509.13,785.07Z" transform="translate(0.89 -14.98)"/><path class="cls-7" d="M506.65,775.12a1.37,1.37,0,0,1-1.06-.85,1.35,1.35,0,0,1,.77-1.75l7.81-3.07a1.35,1.35,0,0,1,1.76.76,1.37,1.37,0,0,1-.76,1.76L507.35,775A1.41,1.41,0,0,1,506.65,775.12Z" transform="translate(0.89 -14.98)"/><path class="cls-7" d="M501.69,766.14a1.35,1.35,0,0,1-.6-2.43l6.75-5a1.36,1.36,0,0,1,1.61,2.18l-6.76,5A1.35,1.35,0,0,1,501.69,766.14Z" transform="translate(0.89 -14.98)"/><path class="cls-7" d="M494.57,758.75a1.31,1.31,0,0,1-.64-.28,1.34,1.34,0,0,1-.22-1.9l5.23-6.57a1.36,1.36,0,0,1,2.12,1.69l-5.23,6.56A1.34,1.34,0,0,1,494.57,758.75Z" transform="translate(0.89 -14.98)"/><path class="cls-7" d="M485.78,753.46a1.46,1.46,0,0,1-.34-.1,1.35,1.35,0,0,1-.7-1.78l3.35-7.7a1.39,1.39,0,0,1,1.78-.7,1.35,1.35,0,0,1,.71,1.78l-3.36,7.7A1.36,1.36,0,0,1,485.78,753.46Z" transform="translate(0.89 -14.98)"/><path class="cls-18" d="M418.69,757s8.84,7.07,9.84,7.27,7.37-1.21,9.92.41c1.88,1.21,5.18,3.06,5.61,3.83s-2.62.16-3.23-.16a7.83,7.83,0,0,0-2.91-.64c-.14.17,4.36,1.74,6.23,2.79s3.31,2.24,3.16,2.81-4.22-1-5.32-1.44,5.47,2.33,6.35,3.5-7.69-1.49-7.69-1.49,5.34,1.74,5.34,2.76-7.35-1.1-7.35-1.1,4.82,1.38,5,2-7.34-.43-9.8-1.21c-2.27-.72-4.06-1.31-8-6.38-.72-.94-10-6-10-6Z" transform="translate(0.89 -14.98)"/><path class="cls-21" d="M385.32,698.47c-1.46-7.56-11.65-9.35-15.38-2.61a17.94,17.94,0,0,0-2,6c-2,13.29,9.48,43.81,15,48.49S423.14,770,423.14,770l5.25-9.16-36.18-20.4-3.1-22.37Z" transform="translate(0.89 -14.98)"/><path class="cls-18" d="M392,681.46c11.87-8.77,4.73-32.06,4.73-32.06l-13,1.72-6.25.42-1.34,9.61s-5.09-3.24-5.41.77c-.22,2.83,2.46,6.51,2.46,6.51s1.56,7.91,7.14,12.37a27.45,27.45,0,0,1-1.68,5.26s6.63,7.74,11.64,9.63,2.72-6.86,2.72-6.86A68,68,0,0,1,392,681.46Z" transform="translate(0.89 -14.98)"/><path class="cls-24" d="M398.65,659.89l-.79-5.77-8.66-6.41-5.27,10.8L372,667.28l1.51,2.5s9.31-3,11.27-4.55,6.69-8.63,6.69-8.63A12.24,12.24,0,0,0,398.65,659.89Z" transform="translate(0.89 -14.98)"/><path class="cls-24" d="M392,681.46a13.75,13.75,0,0,1-6.63.56,8.73,8.73,0,0,0,7,2.93Z" transform="translate(0.89 -14.98)"/><path class="cls-11" d="M406.49,660.39a8.44,8.44,0,0,1-1.5-6c.43-3.72-.54-9.23-6.78-10.21-2.24-.35-3.94,1.4-5.12,3.51-5.16-2.11-22.86-2.87-25-1.24-2.69,2-1.26,10.65-5.26,13.56s1.13,21.19,6.41,18.69,2.74-5,3-8.15,8.49-5.18,14-8.8c3.9-2.57,6.09-7.62,6.11-9.78C392.28,651.92,395.89,658.32,406.49,660.39Z" transform="translate(0.89 -14.98)"/><path class="cls-18" d="M397.4,665.23a26.5,26.5,0,0,0,2.71,4.29c1,1.06-3.07,2.5-3.07,2.5Z" transform="translate(0.89 -14.98)"/><path class="cls-21" d="M378.6,686.06s10.09,9.61,13.14,9.61c2.66,0,1.27-6.75,1.27-6.75s.41.05.69.68c1.09,2.41.8,9.47-5.27,6a67.83,67.83,0,0,1-11.9-9.2Z" transform="translate(0.89 -14.98)"/><path class="cls-1" d="M370.85,709.92c-4.27-1.82-12.79,1.83-13.78,1.66-12.61-2.23-.17-14,2.62-17.16,7.65-8.81,15.77-16.63,17.55-28.73,1.31-8.83-.74-22.63-8.37-28.6-6.51-5.08-9.72-.17-15.42,3-3.51,2-10.32,11.18-10.15-6,0-3.43,5.36-10.66,6.94-14.16,3.08-6.69,5.63-13.72,6.32-21.13.07-.79.12-1.6.14-2.42v0c.4-18.56-13.74-41-35-33.25-9.55,3.51-17.17,14.61-22.63,22.63-3.78,5.53-7.16,11.61-8.59,18.22a22.72,22.72,0,0,0-.29,4.93,110.51,110.51,0,0,0,1.65,14.74c-1.73,4.62-3.5,7.48-5.31,8.64V757.65a97.28,97.28,0,0,0,36.9,11.55c1.88.23,3.7.35,5.46.4a61.74,61.74,0,0,0,7.37-.07c20.79-1.56,44.8-15.85,45.49-39C382,722.73,378.59,713.18,370.85,709.92Z" transform="translate(0.89 -14.98)"/><path class="cls-1" d="M334.52,627.85a17.76,17.76,0,0,1-2.36,1.15c-13.57,5.47-28.07,7.59-42.34,10.4a14.3,14.3,0,0,1-5.41.05c-1.72,5.28-5.9-.53-8.32-2.05-5.12-3.18-8-8.09-13.84-3-6.84,6-8.68,19.77-7.5,28.6,1.59,12.1,8.87,19.92,15.74,28.73,2.5,3.21,13.65,14.93,2.34,17.16-.88.17-8.52-3.48-12.35-1.66-7,3.26-10,12.81-9.76,20.59.62,23.17,22.15,37.46,40.79,39a49.81,49.81,0,0,0,6.62.07,47.1,47.1,0,0,0,4.89-.4A80.8,80.8,0,0,0,336.11,755V629.58A7.15,7.15,0,0,1,334.52,627.85Z" transform="translate(0.89 -14.98)"/><path class="cls-31" d="M351.92,725.05c-5.09,8-17.57,10.56-26.51,12,1.16,10.88,2.37,21.74,3.46,32.6.09,1.08.22,2.17.31,3.26,1.56,16.48,2.67,33,2.77,49.53a1171.51,1171.51,0,0,1-.47,122.17c-.07,1-19.52.19-17.82-.5,3.16-30.43,9.7-60.41,12.29-90.89.92-10.66,1.24-21.38,1.14-32.06-.64-14.05-2.07-33-3.68-51.91-.42-4.83-.84-9.7-1.26-14.46a65.87,65.87,0,0,1-30.55-18.12c-1.7-1.72-3.41-3.57-5.09-5.5V727.3c2.2,2.69,4.52,5.23,6.84,7.57a63.66,63.66,0,0,0,28.58,17.25c-2.71-30.43-5.43-56.81-5.43-57.4q0-4.89-.05-9.85a.88.88,0,0,1-.15,0A70.9,70.9,0,0,1,286.51,653V648.4a1.18,1.18,0,0,1,.92.76,68.26,68.26,0,0,0,29,32.82c-.22-17.72-.59-35.93.89-54.05a1.18,1.18,0,0,1-.84-.57,47.49,47.49,0,0,1-6.81-16.78c-.07-.37-.15-.76-.22-1.13-.27-1.55,2.1-2.22,2.37-.67.1.5.17,1,.29,1.46a45.83,45.83,0,0,0,5.51,14.19c.49-5.26,1.16-10.54,2.07-15.77.49-2.94,1.06-5.9,1.7-8.84.69-3.11,5.46-1.77,4.77,1.31-.45,2-.87,4-1.26,6.07-6,31.12-5.51,62.47-3,93.76a39,39,0,0,0,22.83-31.78c.15-1.58,2.62-1.58,2.47,0a41.56,41.56,0,0,1-25.1,34.38c.89,10.34,1.95,20.68,3.06,31,8.17-1.29,20.19-3.73,24.65-10.79C350.66,722.46,352.78,723.69,351.92,725.05Z" transform="translate(0.89 -14.98)"/><path class="cls-9" d="M538.11,932.5s65.83.65,147.72,38.7c32.95,15.3,44.6,42.63,122.28,39.08s104.68,30.86,120.88,36.61,58,3.76,66.15,33.11h-457Z" transform="translate(0.89 -14.98)"/><path class="cls-32" d="M799.05,1019.59c-.13.32-.27.61-.38.92l-1-.31c-4.71-1.59-25.31-8.91-29.37-16.59l16.27.7-19-6.64a50,50,0,0,1-3.52-19.73l13.26,1-12.7-7.27a67.36,67.36,0,0,1,7.23-21.28s13.13,3.48,24.66,18.54l-6.19,9.58,8.34-6.59a76.24,76.24,0,0,1,8.91,17.93C808.86,999.19,802.89,1010.32,799.05,1019.59Z" transform="translate(0.89 -14.98)"/><path class="cls-8" d="M799.05,1019.59c-.13.32-.27.61-.38.92l-1-.31c-9.33-27.9-20.26-52.31-20.44-52.67a.74.74,0,0,1,.38-1,.74.74,0,0,1,1,.36C778.76,967.28,789.71,991.65,799.05,1019.59Z" transform="translate(0.89 -14.98)"/><path class="cls-32" d="M808.8,1059.8c.06.41.13.79.16,1.2l1.23-.06c6-.37,32.5-2.39,39.7-10.09l-19.29-4.36,24.36-1.74a60.81,60.81,0,0,0,10.41-22l-15.87-3,17.21-4.47A82.11,82.11,0,0,0,865,988s-16.49-.1-34.8,13.88l4.2,13.2-7.68-10.39a93.11,93.11,0,0,0-16.14,18.18C803.8,1032.77,807.25,1047.72,808.8,1059.8Z" transform="translate(0.89 -14.98)"/><path class="cls-8" d="M808.8,1059.8c.06.41.13.79.16,1.2l1.23-.06c19.81-29.72,40.39-54.86,40.72-55.22a.9.9,0,0,0-1.39-1.14C849.22,1005,828.63,1030,808.8,1059.8Z" transform="translate(0.89 -14.98)"/><path class="cls-32" d="M808.6,1068.27c.37-.06.71-.14,1.06-.18,0,0,0-.38-.09-1.09-.54-5.36-3.27-28.86-10.38-35L796,1049.33l-2.41-21.64a54.09,54.09,0,0,0-20-8.49l-2.14,14.23-4.6-15.16a72.9,72.9,0,0,0-24.19,2.47s.49,14.7,13.58,30.51l11.61-4.21-9,7.21A83.26,83.26,0,0,0,775.64,1068C784.71,1073.68,797.9,1070.08,808.6,1068.27Z" transform="translate(0.89 -14.98)"/><path class="cls-8" d="M808.6,1068.27c.37-.06.71-.14,1.06-.18,0,0,0-.38-.09-1.09-27.17-16.6-50.28-34-50.62-34.32a.79.79,0,0,0-1.11.17.8.8,0,0,0,.15,1.1C758.33,1034.21,781.39,1051.66,808.6,1068.27Z" transform="translate(0.89 -14.98)"/><path class="cls-8" d="M813.38,1079.62h-2.26c-.49-3.78-1.07-7.64-1.76-11.48-.1-.48-.18-1-.28-1.45-2.14-11.53-5-22.87-7.44-31.63v0c-2-7.17-3.67-12.61-4.42-15-.28-.83-.42-1.29-.44-1.33a1.12,1.12,0,0,1,.1-.93,1.22,1.22,0,0,1,.6-.49,1,1,0,0,1,.81,0,1.12,1.12,0,0,1,.61.67s.14.42.36,1.11c1.07,3.39,4.47,14.22,7.78,27.63v.06c.93,3.72,1.84,7.64,2.68,11.64.17.81.35,1.61.51,2.44a.07.07,0,0,0,0,.06C811.5,1067.11,812.61,1073.48,813.38,1079.62Z" transform="translate(0.89 -14.98)"/></svg>