<svg id="Layer_1" data-name="Layer 1" xmlns="http://www.w3.org/2000/svg" viewBox="0 0 3989.69 1503.69"><defs><style>.cls-1{fill:#e1eaf8;}.cls-2,.cls-3,.cls-4,.cls-5,.cls-6,.cls-7,.cls-8{fill:none;}.cls-2{stroke:#24ccfd;}.cls-3{stroke:#2db7fd;}.cls-4{stroke:#36a3fe;}.cls-5{stroke:#3f8ffe;}.cls-6{stroke:#477afe;}.cls-7{stroke:#5066ff;}.cls-8{stroke:#5951ff;}</style></defs><title>lp-testim-bg-2</title><rect class="cls-1" x="0.29" y="843.69" width="3988.95" height="660"/><path class="cls-2" d="M3434.47-305.1c-423.46,0-301.46-433-674.64,0S2422.53-103,2099.59-276.24,1798.17-723.7,1539.81-723.7s-258.36,259.82-495.19,259.82S750.38-117.45,599.67-189.64s-240.34-332-496.94-288.68S-230.23-666-554.47-435" transform="translate(554.76 843.69)"/><path class="cls-3" d="M3434.47-321.94c-219.41,0-289.42-86.58-418.45-105.38-77.61-11.45-146.35,11.94-277.4,126.3-53.38,46.59-101,73.42-147.86,107.39-228.31,165.55-276,57.72-539-51.33-231.53-96-286.16-253.48-403.54-331-41.89-27.71-90.45-45.88-155.31-47.5-143.06-3-210.26,72.73-289.06,144.48C1151.72-431.54,1093-395.58,1002-399.26c-156.89-6.06-240.33,119-321.22,160.66-34.35,17.95-68.19,21.33-108.31-7.6C474.27-317,406.13-469.43,270.85-517.76c-52.53-18.74-111.14-27.19-180.17-15.3C-58-507.32-149.63-563.33-255.92-567.79-339-571.3-431.73-529-554.47-449.46" transform="translate(554.76 843.69)"/><path class="cls-4" d="M3434.47-338.79c-175.53,0-263.11-5.76-429.5-20.78-99.45-9.14-167.94-3.84-287.56,62.66-52.16,29-100.3,34.14-154.56,63.89-225.15,123.48-308.26,90.44-559,19.34-225.35-63.92-283.47-197-404.63-264.8-43.14-24.21-91.63-41.51-153.29-44.78-132.32-6-204.4,53.46-286.9,122.35-53.1,44.35-113.45,73.64-199.78,66.28-147.7-12.11-236.76,67.19-314.86,74.07-33.06,2.92-64.06-6.19-99.24-42.22-88.33-90.48-147.78-246.59-289-279.24-54-12.54-112.08-17.3-177.62-5.76C-68.18-561.69-163.13-603.61-262.79-599c-86.6,4-180.31,71.43-291.68,135.13" transform="translate(554.76 843.69)"/><path class="cls-5" d="M3434.47-355.62c-131.64,0-236.81,75.07-440.55,63.79-121.28-6.84-190.87-22.74-297.71-1-51.56,10.5-99.36-4-161.26,20.46-220.92,87.17-340.68,123.87-578.9,90C1736.76-213.6,1675.27-322.94,1550.3-381c-44.39-20.72-92.79-37.41-151.23-42-121.58-9.57-198.55,34.34-284.76,100.18C1060.24-281.52,998.21-259,916.63-270c-138.52-18.16-233.13,15.81-308.5-12.51-31.76-11.93-59.9-34-90.18-76.84-78.48-110.95-129.23-270.15-276.34-287-55.52-6.34-113-7.38-175,3.82-145,26.43-243.23-.33-336.2,12.36-90.2,12.32-184.83,104.08-284.83,151.84" transform="translate(554.76 843.69)"/><path class="cls-6" d="M3434.47-372.47c-87.75,0-210.52,155.89-451.6,148.4-143.12-4.57-214.5-46.38-307.88-64.67-51.25-10.05-98.31-40.82-167.94-23-216.37,55.24-373.19,151.22-598.84,160.66-213.22,8.9-278.08-84.08-406.86-132.42-45.65-17.2-94-33-149.21-39.26-110.81-12.49-192.65,15.33-282.59,78-55,38.38-118.76,54.08-195.58,39.4-129.34-24.23-229.5-35.4-302.15-99.12-30.44-26.7-55.66-62.21-81.11-111.44C422.35-548.15,380-708.2,227-710.6c-57-.89-114,2.51-172.52,13.36-143.11,26.76-244.67,16.13-331,35.9-93.75,21.48-189.34,136.75-278,168.58" transform="translate(554.76 843.69)"/><path class="cls-7" d="M3434.47-389.3c-43.88,0-184.22,236.74-462.65,233-165-2.29-237.39-74.81-318-128.33-50.54-33.52-97.27-76.17-174.65-66.49-212,26.44-405.55,193.5-618.79,231.28-207.19,36.72-275.4-27.6-407.94-66.19-46.92-13.7-95.16-28.38-147.18-36.52-100.09-14.9-186.68-3.18-280.44,55.9-55.94,35.7-121.4,44.32-193.48,25.94C711.15-171,605.29-227,535.51-326.45c-29.2-41.31-51.24-90.59-72-146.06C405.67-626.65,371.31-791,212.4-774.9c-58.53,5.54-114.94,12.43-170,22.91-141.28,27.13-246,33.43-325.78,59.45-97.21,31.75-193.86,169.43-271.11,185.36" transform="translate(554.76 843.69)"/><path class="cls-8" d="M3434.47-406.15S3276.54-88.59,2960.77-88.59s-301.41-302-509.53-302-437.78,229.79-638.73,302-272.7,28.86-409.06,0-272.71-86.61-423.42,0S606.85-131.89,499.19-348.41,420.26-882.49,197.78-839.19-189.76-767-290.23-723.7-488.59-521.62-554.47-521.62" transform="translate(554.76 843.69)"/></svg>