<svg xmlns="http://www.w3.org/2000/svg" xmlns:xlink="http://www.w3.org/1999/xlink" viewBox="0 0 1122.68 1109.51"><defs><style>.cls-1,.cls-26{fill:#0f94d2;}.cls-2{isolation:isolate;}.cls-3{fill:#fffaf8;}.cls-4{fill:#c9eefa;}.cls-5{fill:#e6a749;}.cls-6{fill:#f4bb61;}.cls-7{fill:#d4902b;}.cls-8{fill:#ff6e53;}.cls-9{fill:#ededed;}.cls-10{fill:#ff9480;}.cls-11{fill:#42292c;}.cls-12{fill:#b42f69;}.cls-13{fill:#ee5f3e;}.cls-14{fill:#bec4e8;}.cls-15{fill:#6477ff;}.cls-16{fill:#1f366d;}.cls-17{fill:#6f0871;}.cls-18,.cls-25{fill:#0178b0;}.cls-18,.cls-24{opacity:0.2;}.cls-18,.cls-24,.cls-26{mix-blend-mode:multiply;}.cls-19{fill:#91184d;}.cls-20{fill:#2eb4f3;}.cls-21{fill:#65cdfe;}.cls-22,.cls-27{fill:#fff;}.cls-23{clip-path:url(#clip-path);}.cls-26{opacity:0.7;}.cls-27{opacity:0.3;}.cls-28{fill:#054c90;}.cls-29{fill:#063d71;}.cls-30{fill:#021324;}.cls-31{fill:#4f75e2;}.cls-32{fill:#fdaa8c;}.cls-33{fill:#04356e;}.cls-34{fill:#001630;}.cls-35{fill:#ffc9b6;}.cls-36{fill:#4155e5;}</style><clipPath id="clip-path" transform="translate(21.34 29.51)"><path class="cls-1" d="M329,868.78l219.47.06c5.07,0,9.34-3.56,8.75-12.83,0-.22-5.22-60.47-5.22-60.47-29.45-22.12-75.08-12.79-111.08,9.29-2,1.26-4.06,2.4-6.08,3.46-27.86,14.58-85.69,11.25-98.86,6.6l3.38,40.62C340,862.45,336.86,868.17,329,868.78Z"/></clipPath></defs><title>lp-web-custom</title><g class="cls-2"><g id="Layer_1" data-name="Layer 1"><path class="cls-3" d="M320,305.56c-26.94-32.5,5.6-75-33.16-96.65-36.41-20.32-99.42,33.55-133.84,26.52-31.1-6.35-27-77.93-56.68-88.4C53.6,131.92,17.24,157.88-20.42,133.86v256c46.45,20.36,90.82-46.77,193-11.54,11.89,4.09,44.46,35.3,86.36,33.9,24.12-.8,48.25-22.84,58.42-33.48C326,369.68,409,392.13,409,365.3,409,343.82,334.83,323.41,320,305.56Z" transform="translate(21.34 29.51)"/><path class="cls-3" d="M774,143.16c25.77-32.5-5.35-75,31.71-96.65,34.82-20.32,95.07,33.55,128,26.52,29.73-6.35,25.86-77.93,54.19-88.4,40.88-15.11,75.64,10.85,111.66-13.17v256c-44.42,20.36-86.84-46.77-184.53-11.54-11.36,4.09-42.51,35.3-82.58,33.9-23.05-.8-46.13-22.84-55.86-33.48-8.3-9.08-87.63,13.37-87.63-13.46C689,181.42,759.88,161,774,143.16Z" transform="translate(21.34 29.51)"/><path class="cls-3" d="M831-29.51a16.07,16.07,0,0,0-16.07,16.08A16.07,16.07,0,0,0,831,2.64,16.07,16.07,0,0,0,847-13.43,16.07,16.07,0,0,0,831-29.51Z" transform="translate(21.34 29.51)"/><path class="cls-3" d="M772.39,304.38A16.08,16.08,0,0,0,759.91,334c8.19,3.45,25.42,3.59,28.86-4.6S780.57,307.83,772.39,304.38Z" transform="translate(21.34 29.51)"/><path class="cls-4" d="M579.92,685.13c-3.95,14.22-33.21,166.32-1.4,166.32C655,851.45,780.4,830.28,877,745.72c70-61.29,204.28,13.43,198.1-4.72-7.47-21.89-41.91-137.6-63-137.6-19.62,0-41.28-37.72-46.9-37.72-15.26,0-35.39,25.09-46.73,34.18s-13.29,70.56-30.9,70.56c-12.14,0-8.62-39.51-37.7-56.24-4.78-2.75-39.5-28.08-44.2-30.94-4.91-3-12.42-14.2-16.2-18.28-13.6-14.66-46.5-70.13-67.85-70.13-12.47,0-61.58,88.8-72.07,91.32-6.47,1.56-13.33.67-20,1.18C605.29,589.19,586,663.4,579.92,685.13Zm416.29-41.36c4.22-5.52-12.69-8.19-11.47-14.94,1.57-8.67-6.49-16.16-2.51-18.47,5.3-3.08,21.68,2.21,21.68,11.55,0,10.58,9.36,18.61,17.41,26.4,9.13,8.84,32.37,55.24,22.67,49.36-6.3-3.82-13.84-4.52-20.56-7.55-5.7-2.56-10.77-26.08-15.11-30.37-11.51-3-24-.32-35.21-4.42C961.17,650.94,991.78,649.55,996.21,643.77Zm-242.14,4.56c16.23-2.59,31.12-9.48,47.29-12.22,6-1,31.67-33.14,31.67,3.56,0,4.2-11.62,6.55-8.28,9.38,30.64,26,10,22.61-1.26,21.67-12.53-1.05-5.69-9.16-18.14-6.54C790.73,667.27,734.58,651.44,754.07,648.33ZM665.41,599c9.24-9,31.43-10.36,38.62-21.53,6.33-9.84,9.47-57,9.47-57s23.25,60.53,8.14,73.41c-9.83,8.38-22.84,17.93-28.08,29.89-5.41,12.35-1.91,26.6-11.61,36.6-5.56,5.73-14.34,8.2-20.29,2.49C642.13,644.19,645.46,618.5,665.41,599Z" transform="translate(21.34 29.51)"/><path class="cls-4" d="M-5.28,791.53c-3.95,14.22-33.21,166.32-1.4,166.32,76.47,0,201.88-21.17,298.44-105.73,70-61.29,204.28,13.43,198.1-4.72-7.47-21.89-41.91-137.6-63-137.6-19.62,0-41.28-37.72-46.9-37.72-15.26,0-35.39,25.09-46.73,34.18s-13.29,70.56-30.9,70.56c-12.14,0-8.62-39.51-37.7-56.24-4.78-2.75-39.5-28.08-44.2-30.94-4.91-3-12.42-14.2-16.2-18.28-13.6-14.66-46.5-70.13-67.85-70.13-12.47,0-61.58,88.8-72.07,91.32-6.47,1.56-13.33.67-20,1.18C20.09,695.59.77,769.8-5.28,791.53ZM411,750.17c4.22-5.52-12.69-8.19-11.47-14.94,1.57-8.67-6.49-16.16-2.51-18.47,5.3-3.08,21.68,2.21,21.68,11.55,0,10.58,9.36,18.61,17.41,26.4,9.13,8.84,32.37,55.24,22.67,49.36-6.3-3.82-13.84-4.52-20.56-7.55-5.7-2.56-10.77-26.08-15.11-30.37-11.51-3-24-.32-35.21-4.42C376,757.34,406.58,756,411,750.17Zm-242.14,4.56c16.23-2.59,31.12-9.48,47.29-12.22,6-1,31.67-33.14,31.67,3.56,0,4.2-11.62,6.55-8.28,9.38,30.64,26,10,22.61-1.26,21.67-12.53-1-5.69-9.16-18.14-6.54C205.53,773.67,149.38,757.84,168.87,754.73Zm-88.66-49.3c9.24-9,31.43-10.36,38.62-21.53,6.33-9.84,9.47-57,9.47-57s23.25,60.53,8.14,73.41c-9.83,8.38-22.84,17.93-28.08,29.89-5.41,12.35-1.91,26.6-11.61,36.6-5.56,5.73-14.34,8.2-20.29,2.49C56.93,750.59,60.26,724.9,80.21,705.43Z" transform="translate(21.34 29.51)"/><path class="cls-5" d="M631.59,881.46c46.41-30.55,99.12-27.23,152.62-30.09,7.64-.41,15.3-1,22.95-1.84C862.87,796.79,932.5,688,999.34,756.37c33.42,37.31,45.57,46.53,73.67,90.8,19.16,30.17,28.33,117.36,28.33,117.36l-527.9,0s24.85-49.56,38-65.25C618.44,891.55,625.45,885.11,631.59,881.46Z" transform="translate(21.34 29.51)"/><path class="cls-6" d="M609.56,940.52c6-2.95,11.92-5.5,16.74-7.36C690.19,908.73,757,930.5,824.46,919.6A153.84,153.84,0,0,0,841,916.54c41.42-7.81,64.58-69.37,111.78-69.37,38.46,0,32.64,46.49,57.08,61.61,30.84,19.07,50.46,13.05,76.36,55.71l-512.73,0s8.09-6.57,18.67-13.91A138.12,138.12,0,0,1,609.56,940.52Z" transform="translate(21.34 29.51)"/><path class="cls-7" d="M814.13,837.22c90.53-110.78,135.08-136.82,185.21-80.85,33.42,34.21,40.4,26,73.67,90.8-35.14,10.87-47.34-16.65-72.4-47.74-52.92-68.41-137.74-5.75-176.73,62.66-5.57,9.33-26,41.83-80,15.78-36.57-17.64-92.2-2.3-121.33,10.36,46.31-38.09,106.86-34.59,161.43-37C791.76,850.91,809,843.56,814.13,837.22Z" transform="translate(21.34 29.51)"/><path class="cls-7" d="M1038.4,735.89c12.7,7.53,10.91,19.73,10.46,26.94-.39,6.25-6.84,5.19-9.32-4.56s-19.7-9.68-19.64-15.84S1025.7,728.36,1038.4,735.89Z" transform="translate(21.34 29.51)"/><path class="cls-7" d="M1051.43,775.77a5.07,5.07,0,1,1-6.78,2.32A5.06,5.06,0,0,1,1051.43,775.77Z" transform="translate(21.34 29.51)"/><path class="cls-5" d="M489.19,884.26C449,853.71,403.3,857,356.94,854.17c-6.62-.41-13.25-1-19.88-1.84-48.28-52.74-108.61-161.57-166.53-93.16-29,37.31-39.49,46.53-63.84,90.8-16.6,30.17-24.55,117.36-24.55,117.36l457.44,0s-21.53-49.56-32.92-65.25C500.59,894.35,494.51,887.91,489.19,884.26Z" transform="translate(21.34 29.51)"/><path class="cls-6" d="M508.28,943.32c-5.23-3-10.33-5.5-14.5-7.36-55.37-24.43-113.29-2.66-171.71-13.56a117.92,117.92,0,0,1-14.3-3.06C271.89,911.53,251.82,850,210.92,850c-33.33,0-28.29,46.49-49.47,61.61-26.72,19.07-43.72,13-66.16,55.71l444.29,0s-7-6.57-16.18-13.91A115.88,115.88,0,0,0,508.28,943.32Z" transform="translate(21.34 29.51)"/><path class="cls-7" d="M331,840C252.57,729.24,214,703.2,170.53,759.17c-29,34.21-35,26-63.84,90.8,30.45,10.87,41-16.65,62.74-47.74,45.85-68.41,119.35-5.75,153.14,62.66,4.83,9.33,22.52,41.83,69.33,15.78C423.58,863,471.79,878.36,497,891c-40.12-38.09-92.6-34.59-139.88-37C350.4,853.71,335.5,846.36,331,840Z" transform="translate(21.34 29.51)"/><path class="cls-7" d="M136.68,738.69c-11,7.53-9.45,19.73-9.06,26.94.34,6.25,5.92,5.19,8.07-4.56s17.07-9.68,17-15.84S147.68,731.16,136.68,738.69Z" transform="translate(21.34 29.51)"/><path class="cls-7" d="M125.39,778.57a5.44,5.44,0,0,0-2,6.78c1.07,2.52,3.7,3.56,5.88,2.33a5.46,5.46,0,0,0,2-6.79C130.2,778.38,127.57,777.34,125.39,778.57Z" transform="translate(21.34 29.51)"/><path class="cls-4" d="M262.37,1030.5c13.78-.83,28,12,44.46,13.43s32-.62,42.69,0c6.14.35,37.84-2,37.92,4.16.13,11.59-31.7,4.24-57.49,14.53s-30.24-8.89-60.47-1.89-66,2.37-59.14-7.7C218.55,1040.87,248.58,1031.33,262.37,1030.5Z" transform="translate(21.34 29.51)"/><path class="cls-4" d="M665.32,1033.8c12-4.17,14.08,3.61,28.16.77s49.87.07,46.21,3.12c-4.66,3.88-36.48,8.8-42.9,9.13s-13-4.87-20.7-5.44-14.91.25-19.87,0c-2.87-.14-11.35.34-11.39-1.69C644.75,1035.82,653.32,1038,665.32,1033.8Z" transform="translate(21.34 29.51)"/><circle class="cls-8" cx="978.26" cy="502.71" r="25.16" transform="translate(284.82 1368.16) rotate(-76.67)"/><path class="cls-9" d="M868.4,498.78c6.85.63,12.7-4.49,19.09-7,14.93-5.95,27.51,4.1,43.4,1.61,1.91-.3,8.23-1.73,10.16-1.93,11.88-1.2,22.33,8.12,31.63,9.11a4.38,4.38,0,0,1,3.05,1.15c.95,1.16.36,3-.83,3.93a8,8,0,0,1-4.26,1.22c-29.78,2.59-59.41.87-90.08.87-7.95,0-15.89,1-22.63-3.15C857,504,853.9,497.43,868.4,498.78Z" transform="translate(21.34 29.51)"/><path class="cls-9" d="M780.48,534.31c9.8.91,18.17-6.42,27.31-10.06,21.37-8.52,39.35,5.86,62.08,2.3,2.74-.43,11.78-2.48,14.54-2.76,17-1.71,31.94,11.61,45.24,13,1.59.17,3.35.4,4.37,1.63,1.36,1.66.51,4.33-1.19,5.63s-4,1.56-6.09,1.75c-42.6,3.69-85,1.23-128.86,1.23-11.36,0-22.72,1.5-32.37-4.51C764.13,541.71,759.75,532.39,780.48,534.31Z" transform="translate(21.34 29.51)"/><path class="cls-4" d="M1100.51,964.17v104.36c-35.82,17.81-155.89,9.51-173.49,9.72-46.29.54,130-43.78,105.48-58.18-22.75-13.37-97.21,18.64-117.47-10.85-20.42-29.72-78.57-4.12-106.86-2.41C715.29,1012.42,708,986.26,645,986.26c-44.69,0-31.22,42.84-104.48,42.84v-65S1089.73,964.76,1100.51,964.17Z" transform="translate(21.34 29.51)"/><path class="cls-4" d="M-20.42,964.17v104.36c35.81,17.81,155.88,9.51,173.49,9.72,46.28.54-130-43.78-105.49-58.18,22.75-13.37,97.21,18.64,117.47-10.85,20.42-29.72,78.58-4.12,106.86-2.41,92.88,5.61,100.13-20.55,163.19-20.55,44.68,0,31.22,42.84,104.48,42.84v-65S-9.65,964.76-20.42,964.17Z" transform="translate(21.34 29.51)"/><path class="cls-10" d="M537,854.92q.6.76,1.14,1.53c-22.94-3.59-32.45-13.1-36-22.51L515,835l-14.55-8.34a36.43,36.43,0,0,1,1.92-15.29C517.58,822.81,535.4,852.89,537,854.92Z" transform="translate(21.34 29.51)"/><path class="cls-11" d="M546,882c-.07,3.46-.18,9.08-.37,18.24h-.95s.23-11.48.37-18.49Z" transform="translate(21.34 29.51)"/><path class="cls-8" d="M538.33,855.32c-.23-.3-30.24-38.23-35.92-43.92C535.41,816.47,538.26,848.75,538.33,855.32Z" transform="translate(21.34 29.51)"/><path class="cls-11" d="M538.33,855.32c3.69,5,6,9.61,7.06,14.17-.24.29-.46.58-.68.86-.9-4.48-3.06-9-6.6-13.9-.36-.51-32.51-42.33-32.46-42.29C509.33,816.76,538.1,855,538.33,855.32Z" transform="translate(21.34 29.51)"/><path class="cls-11" d="M545.39,869.37c8.79-11,26.81-25.35,53.1-16.16-.88.3-18.63,5.64-20.15,6.26l.49-6.27a.48.48,0,0,0-.44-.52.51.51,0,0,0-.51.44l-.53,6.76c-2.82,1.17-5.7,2.44-8.73,3.82a.41.41,0,0,0-.34.16l-2.24,1q-3.7,1.74-7.37,3.54v-6.58a.47.47,0,0,0-.48-.48.48.48,0,0,0-.48.48v7q-4.26,2.1-8.4,4.28l-.8.42a66.66,66.66,0,0,0-9.74,5.85,60.22,60.22,0,0,1,5.85-9.08C544.87,870,545.12,869.7,545.39,869.37Z" transform="translate(21.34 29.51)"/><path class="cls-11" d="M562.55,878.7a.37.37,0,0,0,.18,0,.49.49,0,0,0,.44-.3.48.48,0,0,0-.26-.62l-11.43-4.71c4.87-2.53,16.41-8,17.12-8.35l9.45,7.66a.49.49,0,0,0,.3.1.48.48,0,0,0,.3-.85l-9.08-7.36c2.91-1.32,5.69-2.53,8.42-3.67,1.69-.7,3.36-1.35,5-1.94l8.84,4.1a.52.52,0,0,0,.21,0,.48.48,0,0,0,.2-.91l-8-3.69,14.23-5a41.89,41.89,0,0,1-6.13,16.8L582,866.45l4.84,9.94c-7.67,6.79-20.26,11.08-40.83,5.59l-1-.26q-2.65-.74-5.49-1.7c2.85-2.17,10.6-6.23,10.8-6.34Z" transform="translate(21.34 29.51)"/><path class="cls-12" d="M538.77,879.43a66.66,66.66,0,0,1,9.74-5.85l.8-.42q4.14-2.17,8.4-4.28v-7a.48.48,0,0,1,.48-.48.47.47,0,0,1,.48.48v6.58q3.66-1.8,7.37-3.54l2.24-1a.41.41,0,0,1,.34-.16c3-1.38,5.91-2.65,8.73-3.82l.53-6.76a.51.51,0,0,1,.51-.44.48.48,0,0,1,.44.52l-.49,6.27c1.52-.62,20.06-6.5,20.15-6.26s-10.2,3.6-14.23,5l8,3.69a.48.48,0,0,1-.2.91.52.52,0,0,1-.21,0L583,858.7c-1.63.59-3.3,1.24-5,1.94-2.73,1.14-5.51,2.35-8.42,3.67l9.08,7.36a.48.48,0,0,1-.3.85.49.49,0,0,1-.3-.1l-9.45-7.66c-.71.32-12.25,5.82-17.12,8.35l11.43,4.71a.48.48,0,0,1,.26.62.49.49,0,0,1-.44.3.37.37,0,0,1-.18,0l-12.18-5c-.2.11-8,4.17-10.8,6.34a18.12,18.12,0,0,0-3,2.71c-3.66,4.37-5.29,9.28-5.29,15.88l.11,1.58v0h-.94l-.12-1.57c0-6.88,1.7-12,5.52-16.54A18.24,18.24,0,0,1,538.77,879.43Z" transform="translate(21.34 29.51)"/><path class="cls-13" d="M293.48,893.28h226a56.75,56.75,0,0,1,44.7,22c39.24,50.38,53,1.8,96.16,1.8,47.13,0,30.39,27.57,69.47,29.45,73.84,3.55,90.22,18,90.22,18H260V926.77A33.49,33.49,0,0,1,293.48,893.28Z" transform="translate(21.34 29.51)"/><path class="cls-14" d="M481.63,888.83a4.46,4.46,0,0,1-4.46,4.45H426.72v-8.91h50.45A4.46,4.46,0,0,1,481.63,888.83Z" transform="translate(21.34 29.51)"/><path class="cls-14" d="M401.45,844.25h50.92l1.64,17a8.64,8.64,0,0,1-2.49,6.95l-16.17,16.2H386L402.1,865Z" transform="translate(21.34 29.51)"/><polygon class="cls-15" points="474.43 881.2 423.03 881.2 422.8 873.76 473.71 873.76 474.43 881.2"/><path class="cls-16" d="M396.61,861.86l-1.79-17.61h8.95l1.64,17a8.64,8.64,0,0,1-2.49,6.95l-16.2,16.2h41.85a4.46,4.46,0,1,1,0,8.91H386.06a8.65,8.65,0,0,1-8.47-6.89,9,9,0,0,1,2.62-8.12Z" transform="translate(21.34 29.51)"/><path class="cls-16" d="M299.7,668.06H529.33a14.91,14.91,0,0,1,14.85,13.61L557,828.2a14.9,14.9,0,0,1-14.85,16.2H312.49a14.9,14.9,0,0,1-14.85-13.61L284.85,684.27A14.91,14.91,0,0,1,299.7,668.06Z" transform="translate(21.34 29.51)"/><path class="cls-14" d="M304.82,668.05H534.44a14.86,14.86,0,0,1,14.61,12.11c.11.5,13,148,13,148a14.91,14.91,0,0,1-14.86,16.19H317.6a14.9,14.9,0,0,1-14.86-13.61L290,684.27A14.93,14.93,0,0,1,304.82,668.05Z" transform="translate(21.34 29.51)"/><path class="cls-17" d="M304.81,677H534.45a5.93,5.93,0,0,1,5.95,5.46l.77,8.65L553.2,829a6,6,0,0,1-6,6.51H317.59a5.94,5.94,0,0,1-6-5.46L299.5,691.1l-.66-7.6a6,6,0,0,1,6-6.51Z" transform="translate(21.34 29.51)"/><path class="cls-16" d="M304.82,677H534.46a5.94,5.94,0,0,1,5.95,5.46L553.21,829a6,6,0,0,1-6,6.51H317.6a5.94,5.94,0,0,1-6-5.46L298.84,683.5a6,6,0,0,1,6-6.51Z" transform="translate(21.34 29.51)"/><path class="cls-1" d="M748.82,865.2s5.2,59.58-32.39,99.33H693.34S689.76,887.51,748.82,865.2Z" transform="translate(21.34 29.51)"/><path class="cls-18" d="M739.4,869.49a76.69,76.69,0,0,1,9.42-4.29s5.2,59.58-32.39,99.33H706.8C738.35,931.17,739.76,883.83,739.4,869.49Z" transform="translate(21.34 29.51)"/><path class="cls-16" d="M706.72,964.53c1-4.73,2-9.3,3.17-13.75a212.84,212.84,0,0,1,21.42-6.41l.61-.17a.68.68,0,0,0,.51-.81.79.79,0,0,0-.31-.42.61.61,0,0,0-.5-.08c-10.9,2.71-18.48,5.31-21.31,6.32a266.33,266.33,0,0,1,9.32-28.42c2-.28,11.76-1.48,22.54-1.76h.23a.66.66,0,0,0,.67-.67.74.74,0,0,0-.48-.65.82.82,0,0,0-.22,0c-9.94.25-19,1.28-22.21,1.67a269.6,269.6,0,0,1,12.35-26.74,99.27,99.27,0,0,1,15.68-3.33.25.25,0,0,1,.14,0,.68.68,0,0,0,.59-.75.64.64,0,0,0-.62-.56s-.08,0-.11,0A99.33,99.33,0,0,0,733.41,891a203.26,203.26,0,0,1,15.48-24.75c.28-.36.42-.59.45-.62a.64.64,0,0,0-.11-.92.66.66,0,0,0-.93.11s-.28.34-.67.9a206.86,206.86,0,0,0-16.13,26,.55.55,0,0,0-.11.2c-2,3.86-4.17,8.12-6.3,12.71-.53-5.18-1.62-17.64-1-23.55a.61.61,0,0,0-.17-.53.79.79,0,0,0-.42-.23.66.66,0,0,0-.73.59c0,.25-.05.53-.08.81-.64,7.9,1.09,24,1.26,25.29-1.82,4-3.64,8.29-5.43,12.77,0,0,0,.08,0,.11-1.68,4.28-3.3,8.79-4.87,13.49-2-4.73-7.48-19.48-5.74-30.71a.6.6,0,0,0-.34-.67.49.49,0,0,0-.22-.09.67.67,0,0,0-.76.56c-.08.59-.16,1.18-.19,1.77-1.24,13.13,5.82,29.31,6.6,31.08-1.51,4.73-3,9.6-4.31,14.7v0c-1.2,4.65-2.35,9.41-3.33,14.34,0,.05,0,.08,0,.14Z" transform="translate(21.34 29.51)"/><path class="cls-16" d="M696.34,932.67a.65.65,0,0,1,.72.61c.8,9.7,10.78,24.41,10.88,24.55a.67.67,0,0,1-.17.93.68.68,0,0,1-.38.12.67.67,0,0,1-.55-.29c-.42-.61-10.28-15.15-11.11-25.2A.66.66,0,0,1,696.34,932.67Z" transform="translate(21.34 29.51)"/><path class="cls-12" d="M794.67,926.82s-6.47,25.32-28.09,37.71H752S752,925.71,794.67,926.82Z" transform="translate(21.34 29.51)"/><path class="cls-19" d="M788.73,926.93c1.89-.12,3.86-.17,5.94-.11,0,0-6.46,25.32-28.09,37.71h-5.92C781.44,952.63,788.22,928.8,788.73,926.93Z" transform="translate(21.34 29.51)"/><path class="cls-11" d="M759.71,959.47a39.73,39.73,0,0,1,2.41-4.74c-.14-.84-1.27-7.9.62-13.91a.3.3,0,0,1,.38-.2.31.31,0,0,1,.2.39c-1.57,5-1,10.8-.7,12.89a44.36,44.36,0,0,1,2.73-3.9l.07-.09a54.84,54.84,0,0,1,4.72-5.25c0-.73.4-6.91,2.42-9.45a.31.31,0,0,1,.49.38c-1.59,2-2.1,6.64-2.25,8.44a59.66,59.66,0,0,1,4.76-4.06.19.19,0,0,1,.11-.09,60.4,60.4,0,0,1,10.25-6.45.31.31,0,1,1,.26.56,59,59,0,0,0-9.33,5.77,34.76,34.76,0,0,1,6.78.33.31.31,0,0,1,0,.62h0a36.49,36.49,0,0,0-7.57-.28,57.56,57.56,0,0,0-9.65,9.35c1.94-.13,7.3-.38,11.32.67a.31.31,0,0,1,.22.37.3.3,0,0,1-.3.23h-.07c-4.41-1.14-10.66-.69-11.69-.6a42,42,0,0,0-5.3,8.74,35.06,35.06,0,0,1,9.64-.85.31.31,0,1,1,0,.61,34.26,34.26,0,0,0-9.91,1c-.36.86-.71,1.73-1,2.63a.3.3,0,0,1-.29.21l-.1,0a.3.3,0,0,1-.19-.39c.32-1,.69-1.89,1.08-2.8A0,0,0,0,1,759.71,959.47Z" transform="translate(21.34 29.51)"/><path class="cls-20" d="M651.78,920.62a23.88,23.88,0,0,0-1.32-7.68c-1.43-4.56-3.65-9.12-3.62-14,0-8.47,8.26-13.56,11-21,3.09-8.39,1.91-17.54,3.6-26.18,1.42-7.46,5.52-14.85,13.48-16.69,7.69-1.76,13.25,4.26,14,11.52,1,9.25-4.95,17.41-6,26.38a18.51,18.51,0,0,0,2.68,12.26c2.21,3.62,4.84,6.9,5.19,11.29.92,10.65-8.43,19.11-7.69,29.79.69,10.35,8.84,18.63,9.1,29.08a11.7,11.7,0,0,1-4.11,9.15H652.75c-3.9-3.42-6.4-8.49-7.85-13.51a39.43,39.43,0,0,1,4.74-24.62C650.79,924.39,651.73,923,651.78,920.62Z" transform="translate(21.34 29.51)"/><path class="cls-21" d="M651.09,915.2c-.44-1.75-1-3.51-1.65-5.27-1.65-4.7-3.37-9.41-2.25-14.11,1.29-5.42,6-9.25,8.85-14.07,3.47-5.94,3.87-13.13,4.28-20s1-14.09,4.84-19.83,11.86-9.28,17.8-5.8a10.48,10.48,0,0,1,1.85,1.43c-33.64,20.23-12.69,35.56-19.9,58.05-1.07,3.32-4.45,6.39-6.08,9.55a29.67,29.67,0,0,0-3.44,13.1,51.66,51.66,0,0,0,1.89,13.07c.71,3-5.56,21.29-6,27.89a18.71,18.71,0,0,0,.62,4.49,29.3,29.3,0,0,1-7-12.68,38.32,38.32,0,0,1,6.43-27.32A16.36,16.36,0,0,0,651.09,915.2Z" transform="translate(21.34 29.51)"/><path class="cls-22" d="M669.83,936.75c-.36-.79-.69-1.58-1-2.4-2.2-5.27-4.29-11.49-3.11-17.56a35.42,35.42,0,0,1,2-6.11,31.29,31.29,0,0,0,2-6.66c.41-3-.18-6.16-.71-9.19-.61-3.37-1.23-6.86-.59-10.33a28.07,28.07,0,0,1,3.32-8.13,28.71,28.71,0,0,0,3.16-7.74c.66-3.62-.21-7.37-1-11-.26-1.12-.54-2.27-.74-3.39-.87-4.56-1.05-10.8,3.06-14.58a.72.72,0,0,1,1,1.05c-3.8,3.52-3.29,9.81-2.62,13.25.2,1.12.45,2.25.71,3.34.86,3.77,1.76,7.67,1,11.57A28,28,0,0,1,673,877a27.47,27.47,0,0,0-3.16,7.75c-.59,3.18,0,6.39.59,9.78A23.39,23.39,0,0,1,669,911.19a34.45,34.45,0,0,0-1.88,5.86c-1.1,5.71.91,11.67,3,16.77l1,2.37c2,4.66,4.05,9.45,4.46,14.6.38,4.74-1,10.35-4.74,13.74h-2.39c4.4-2.86,6.06-8.87,5.68-13.61C673.75,946,671.76,941.31,669.83,936.75Z" transform="translate(21.34 29.51)"/><path class="cls-13" d="M632.8,941.43l-2.07-.83c2.33-28-12.21-41.23-12.21-41.23C634.7,911.49,632.8,941.43,632.8,941.43Z" transform="translate(21.34 29.51)"/><path class="cls-13" d="M622,902.47c-10.37,2.68-22.21-6.44-22.21-6.44C614.25,892.12,622,902.47,622,902.47Z" transform="translate(21.34 29.51)"/><path class="cls-13" d="M627.45,912.57s-5.91-9.21,5-20.26A21.83,21.83,0,0,1,627.45,912.57Z" transform="translate(21.34 29.51)"/><path class="cls-13" d="M632.8,941.43l-1.41-.57c1.58-19.1-8.32-28.09-8.32-28.09C634.09,921,632.8,941.43,632.8,941.43Z" transform="translate(21.34 29.51)"/><path class="cls-13" d="M624.58,913.84c-6.42,3.47-15.74-.62-15.74-.62C617.79,908.25,624.58,913.84,624.58,913.84Z" transform="translate(21.34 29.51)"/><path class="cls-13" d="M637.65,911.87a14.88,14.88,0,0,1-7.85,11.85S628.12,916.45,637.65,911.87Z" transform="translate(21.34 29.51)"/><path class="cls-11" d="M351.74,964.16h-4.59c4.4-61-27.25-89.71-27.25-89.71C350.89,897.63,352,950.21,351.74,964.16Z" transform="translate(21.34 29.51)"/><path class="cls-21" d="M327.52,881.32c-23,5.95-49.23-14.24-49.23-14.24C310.43,858.39,327.52,881.32,327.52,881.32Z" transform="translate(21.34 29.51)"/><path class="cls-11" d="M339.74,903.7s-13.12-20.41,11-44.92C350.73,858.78,358.55,882.24,339.74,903.7Z" transform="translate(21.34 29.51)"/><path class="cls-11" d="M351.72,964.16h-3.11c2.52-40.76-18.6-60-18.6-60C350.37,919.37,351.81,953.25,351.72,964.16Z" transform="translate(21.34 29.51)"/><path class="cls-11" d="M333.37,906.51c-14.23,7.7-34.89-1.35-34.89-1.35C318.31,894.14,333.37,906.51,333.37,906.51Z" transform="translate(21.34 29.51)"/><path class="cls-12" d="M362.33,902.12A33,33,0,0,1,345,928.42S341.23,912.3,362.33,902.12Z" transform="translate(21.34 29.51)"/><path class="cls-16" d="M331.79,766.53l7.73,89.07c.64,7.38-2.59,13.09-11.49,13.23h0a14,14,0,0,1-13.31-10.17,18.37,18.37,0,0,1-.53-3.06l-7.77-89.07Z" transform="translate(21.34 29.51)"/><path class="cls-3" d="M548.5,868.84H334.1c-6,0-5.54,0-5.07-.05,7.84-.62,11-6.33,10.36-13.27L318.34,606.2H535.9l21.28,249.12c0,.25,0,.48.05.7C557.82,865.29,553.56,868.84,548.5,868.84Z" transform="translate(21.34 29.51)"/><path class="cls-1" d="M329,868.78l219.47.06c5.07,0,9.34-3.56,8.75-12.83,0-.22-5.22-60.47-5.22-60.47-29.45-22.12-75.08-12.79-111.08,9.29-2,1.26-4.06,2.4-6.08,3.46-27.86,14.58-85.69,11.25-98.86,6.6l3.38,40.62C340,862.45,336.86,868.17,329,868.78Z" transform="translate(21.34 29.51)"/><g class="cls-23"><g class="cls-24"><path class="cls-25" d="M337.17,907.28l0-.52h5.55l-.48-5.52h-5.55l0-.58h5.55l-.48-5.52h-5.55l-.05-.59h5.56l-.48-5.52h-5.56l0-.59h5.55l-.47-5.52h-5.56l-.05-.58h5.55l-.47-5.52h-5.56l0-.58H340l-.48-5.53H334l-.05-.58h5.56l-.48-5.52h-5.56l-.05-.58H339l-.48-5.52h-5.56l-.05-.59h5.56L338,852.4h-5.56l-.05-.58h5.56l-.48-5.52h-5.56l-.05-.58h5.56l-.48-5.53h-5.56l-.05-.58h5.56l-.48-5.52h-5.56l-.05-.58h5.56l-.48-5.52h-5.56l-.05-.59h5.56l-.48-5.52h-5.56l-.05-.58h5.56l-.48-5.52h-5.56l-.05-.59h5.56l-.48-5.52H328.7l-.05-.58h5.56l-.48-5.53h-5.56l-.05-.58h5.56l-.48-5.52h-5.56l-.05-.58h5.56l-.48-5.53h-5.56l-.05-.58h5.56l-.48-5.52h-5.55l-.06-.58h5.56l-.48-5.52h-5.55l-.06-.59h5.56l-.48-5.52h-5.55l0-.58H331l-.48-5.53H325l0-.58h5.55l-.48-5.52h-5.55l-.06-.58H330l-.48-5.52h-5.55l-.06-.58h5.56l-.32-3.75h.58l.33,3.75h5.49l-.33-3.75h.59l.33,3.75h5.49l-.33-3.75h.59l.32,3.75h5.49l-.32-3.75h.59l.32,3.75h5.49l-.32-3.75H354l.33,3.75h5.49l-.33-3.75h.59l.33,3.75h5.48l-.32-3.75h.59l.32,3.75H372l-.32-3.75h.58l.33,3.75h5.49l-.32-3.75h.59l.32,3.75h5.49l-.33-3.75h.59l.33,3.75h5.48l-.32-3.75h.59l.32,3.75h5.49L396,750.4h.59l.32,3.75h5.49L402,750.4h.59l.33,3.75h5.49l-.33-3.75h.59l.33,3.75h5.49l-.33-3.75h.59l.33,3.75h5.48l-.32-3.75h.59l.32,3.75h5.49l-.32-3.75H427l.32,3.75h5.49l-.32-3.75H433l.33,3.75h5.49l-.33-3.75h.59l.33,3.75h5.48l-.32-3.75h.59l.32,3.75H451l-.32-3.75h.58l.33,3.75h5.49l-.33-3.75h.59l.33,3.75h5.49l-.33-3.75h.59l.33,3.75h5.48l-.32-3.75h.59l.32,3.75h5.49L475,750.4h.59l.32,3.75h5.49l-.33-3.75h.59l.33,3.75h5.49l-.33-3.75h.59l.33,3.75h5.48l-.32-3.75h.59l.32,3.75h5.49l-.32-3.75h.59l.32,3.75h5.49l-.33-3.75H506l.33,3.75h5.49l-.33-3.75H512l.33,3.75h5.48l-.32-3.75h.59l.33,3.75h5.49l-.33-3.75h.59l.32,3.75H530l-.32-3.75h.59l.32,3.75h5.49l-.33-3.75h.59l.33,3.75h5.49l-.33-3.75h.59l.32,3.75h5.49l-.32-3.75h.59l.32,3.75h4.67l0,.58h-4.67l.48,5.52H554l.05.58H549.4l.48,5.52h4.67l.05.58h-4.67l.48,5.53h4.67l0,.58h-4.67l.48,5.52h4.67l0,.59H551l.48,5.52h4.67l.05.58h-4.67l.48,5.52h4.67l.05.58h-4.67l.48,5.53h4.67l0,.58h-4.67l.48,5.52h4.67l0,.58h-4.67l.48,5.53h4.67l0,.58h-4.67l.48,5.52h4.67l.05.59h-4.67l.48,5.52h4.67l0,.58H554.7l.48,5.52h4.67l0,.59h-4.67l.48,5.52h4.67l0,.58h-4.67l.48,5.52h4.67l.05.58h-4.67l.48,5.53h4.67l0,.58h-4.67l.48,5.52H562l0,.58h-4.67l.48,5.52h4.67l0,.59h-4.67l.48,5.52H563l.05.58h-4.67l.47,5.52h4.68l.05.58h-4.67l.48,5.53h4.67l0,.58h-4.67l.49,5.52h4.67l0,.58H560l.48,5.52h4.67l.06.59h-4.67l.47,5.52h4.67l.06.59h-4.67l.47,5.52h4.67l0,.58h-4.67l.48,5.52h4.67l0,.52Zm11.11-6h-5.49l.48,5.52h5.49Zm6.08,0h-5.49l.48,5.52h5.49Zm6.07,0H355l.48,5.52h5.49Zm6.08,0H361l.48,5.52H367Zm6.08,0H367.1l.48,5.52h5.49Zm6.08,0h-5.49l.48,5.52h5.49Zm6.07,0h-5.48l.47,5.52h5.49Zm6.08,0h-5.49l.48,5.52h5.49Zm6.08,0h-5.49l.48,5.52h5.49Zm6.08,0h-5.49l.48,5.52h5.48Zm6.07,0h-5.48l.48,5.52h5.48Zm6.08,0h-5.49l.48,5.52h5.49Zm6.08,0h-5.49l.48,5.52h5.49Zm6.08,0H421.8l.48,5.52h5.49Zm6.08,0h-5.49l.48,5.52h5.48Zm6.07,0H434l.48,5.52h5.49Zm6.08,0H440l.48,5.52H446Zm6.08,0h-5.49l.48,5.52h5.49Zm6.08,0h-5.49l.48,5.52h5.49Zm6.07,0h-5.48l.47,5.52h5.49Zm6.08,0h-5.49l.48,5.52h5.49Zm6.08,0h-5.49l.48,5.52h5.49Zm6.08,0H476.5l.48,5.52h5.49Zm6.07,0h-5.48l.48,5.52h5.48Zm6.08,0h-5.49l.48,5.52h5.49Zm6.08,0h-5.49l.48,5.52h5.49Zm6.07,0h-5.48l.48,5.52h5.49Zm6.08,0h-5.48l.48,5.52h5.48Zm6.08,0H513l.48,5.52h5.49Zm6.08,0H519l.48,5.52H525Zm6.08,0h-5.49l.48,5.52h5.49Zm6.08,0H531.2l.48,5.52h5.49Zm6.07,0h-5.48l.48,5.52h5.48Zm6.08,0h-5.49l.48,5.52h5.49Zm6.08,0h-5.49l.48,5.52h5.49Zm6.08,0h-5.49l.48,5.52h5.48Zm-213.25-6.1h-5.49l.48,5.52h5.49Zm6.08,0h-5.49l.48,5.52h5.49Zm6.08,0h-5.49l.47,5.52h5.5Zm6.07,0h-5.49l.48,5.52h5.49Zm6.08,0h-5.49l.48,5.52h5.49Zm6.08,0h-5.49l.48,5.52h5.49Zm6.08,0h-5.49l.47,5.52h5.49Zm6.07,0H384.8l.48,5.52h5.49Zm6.08,0h-5.49l.48,5.52h5.49Zm6.08,0H397l.48,5.52h5.48Zm6.07,0H403l.47,5.52H409Zm6.08,0h-5.49l.48,5.52h5.49Zm6.08,0h-5.49l.48,5.52h5.49Zm6.08,0h-5.49l.48,5.52h5.49Zm6.08,0h-5.49l.48,5.52h5.48Zm6.08,0h-5.49l.47,5.52h5.5Zm6.07,0H439.5l.48,5.52h5.49Zm6.08,0h-5.49l.48,5.52h5.49Zm6.08,0h-5.49l.48,5.52h5.49Zm6.08,0h-5.5l.48,5.52h5.49Zm6.07,0h-5.49l.48,5.52h5.49Zm6.08,0h-5.49l.48,5.52h5.49Zm6.08,0H476l.48,5.52h5.49Zm6.07,0h-5.48l.47,5.52H488Zm6.08,0h-5.49l.48,5.52h5.49Zm6.08,0H494.2l.48,5.52h5.49Zm6.08,0h-5.49l.48,5.52h5.49Zm6.08,0h-5.5l.49,5.52h5.48Zm6.07,0h-5.49l.48,5.52h5.49Zm6.08,0h-5.49l.48,5.52h5.49Zm6.08,0h-5.49l.48,5.52h5.49Zm6.08,0h-5.49l.48,5.52h5.49Zm6.07,0h-5.48l.48,5.52h5.48Zm6.08,0h-5.49l.48,5.52h5.49Zm6.08,0H548.9l.48,5.52h5.49Zm6.08,0H555l.48,5.52H561ZM347.22,889h-5.49l.48,5.52h5.49Zm6.08,0h-5.49l.48,5.52h5.49Zm6.08,0h-5.49l.48,5.52h5.49Zm6.08,0H360l.48,5.52h5.49Zm6.07,0H366l.48,5.52H372Zm6.08,0h-5.49l.48,5.52h5.49Zm6.08,0h-5.5l.49,5.52h5.48Zm6.07,0h-5.49l.48,5.52h5.49Zm6.08,0h-5.49l.48,5.52h5.49Zm6.08,0h-5.49l.48,5.52h5.49Zm6.07,0h-5.48l.47,5.52h5.49Zm6.08,0h-5.49l.48,5.52h5.49Zm6.08,0h-5.49l.48,5.52h5.49Zm6.08,0h-5.49l.48,5.52h5.49Zm6.08,0h-5.49l.48,5.52h5.49Zm6.08,0H432.9l.47,5.52h5.49Zm6.07,0H439l.48,5.52h5.49Zm6.08,0h-5.49l.48,5.52H451Zm6.08,0h-5.49l.48,5.52h5.49Zm6.07,0H457.2l.49,5.52h5.48Zm6.08,0h-5.49l.48,5.52h5.49Zm6.08,0h-5.49l.48,5.52h5.49Zm6.08,0h-5.49l.48,5.52h5.49Zm6.08,0h-5.49l.47,5.52h5.49Zm6.07,0h-5.49l.48,5.52h5.49Zm6.08,0h-5.49l.48,5.52h5.49Zm6.08,0h-5.49l.48,5.52h5.48Zm6.07,0h-5.48l.48,5.52h5.48Zm6.08,0h-5.48l.47,5.52h5.49Zm6.08,0H518l.48,5.52H524Zm6.08,0h-5.49l.48,5.52H530Zm6.08,0h-5.49l.48,5.52h5.49Zm6.07,0h-5.48l.48,5.52h5.48Zm6.08,0H542.3l.47,5.52h5.49Zm6.08,0h-5.49l.48,5.52h5.49Zm6.08,0h-5.49l.48,5.52h5.49Zm-213.25-6.11H341.2l.48,5.52h5.49Zm6.08,0h-5.49l.48,5.52h5.49Zm6.08,0h-5.49l.48,5.52h5.49Zm6.07,0h-5.49l.48,5.52h5.49Zm6.08,0h-5.49l.48,5.52h5.49Zm6.08,0h-5.49l.48,5.52h5.49Zm6.07,0h-5.48l.48,5.52h5.49Zm6.08,0h-5.48l.47,5.52h5.49Zm6.08,0h-5.49l.48,5.52h5.49Zm6.08,0H395.9l.48,5.52h5.49Zm6.07,0H402l.48,5.52h5.48Zm6.08,0h-5.49l.48,5.52H414Zm6.08,0h-5.49l.48,5.52h5.49Zm6.08,0h-5.49l.48,5.52h5.49Zm6.08,0h-5.49l.48,5.52h5.49Zm6.08,0h-5.49l.48,5.52h5.48Zm6.07,0h-5.49l.48,5.52h5.49Zm6.08,0h-5.49l.48,5.52h5.49Zm6.08,0H450.6l.48,5.52h5.49Zm6.07,0h-5.48l.48,5.52h5.48Zm6.08,0h-5.49l.48,5.52h5.49Zm6.08,0h-5.49l.48,5.52h5.49Zm6.08,0h-5.49l.48,5.52h5.49Zm6.08,0H481l.48,5.52H487Zm6.07,0h-5.49l.48,5.52H493Zm6.08,0h-5.49l.48,5.52h5.49Zm6.08,0h-5.49l.48,5.52h5.49Zm6.07,0H505.3l.48,5.52h5.48Zm6.08,0h-5.48l.47,5.52h5.49Zm6.08,0h-5.49l.48,5.52h5.49Zm6.08,0h-5.49l.48,5.52h5.49Zm6.08,0h-5.49l.48,5.52h5.49Zm6.07,0h-5.48l.47,5.52h5.49Zm6.08,0h-5.49l.48,5.52h5.49Zm6.08,0h-5.49l.48,5.52h5.49Zm6.08,0h-5.49l.48,5.52h5.49Zm-213.25-6.1h-5.49l.48,5.52h5.49Zm6.08,0h-5.49l.48,5.52h5.49Zm6.08,0h-5.49l.48,5.52h5.49Zm6.07,0H358.9l.48,5.52h5.49Zm6.08,0H365l.48,5.52H371Zm6.08,0h-5.49l.48,5.52H377Zm6.07,0h-5.48l.47,5.52h5.5Zm6.08,0h-5.49l.48,5.52h5.49Zm6.08,0h-5.49l.48,5.52h5.49Zm6.08,0h-5.49l.48,5.52h5.49Zm6.08,0h-5.49l.48,5.52h5.48Zm6.07,0h-5.48l.47,5.52h5.49Zm6.08,0H413.6l.48,5.52h5.49Zm6.08,0h-5.49l.48,5.52h5.49Zm6.08,0h-5.49l.48,5.52h5.49Zm6.08,0h-5.49l.48,5.52h5.49Zm6.07,0h-5.48l.47,5.52h5.49Zm6.08,0H444l.48,5.52H450Zm6.08,0h-5.49l.48,5.52H456Zm6.08,0h-5.49l.47,5.52h5.5Zm6.07,0h-5.49l.48,5.52h5.49Zm6.08,0H468.3l.48,5.52h5.49Zm6.08,0h-5.49l.48,5.52h5.49Zm6.08,0h-5.49l.48,5.52h5.49Zm6.07,0h-5.49l.48,5.52h5.49Zm6.08,0h-5.49l.48,5.52h5.49Zm6.08,0h-5.49l.48,5.52h5.49Zm6.07,0h-5.48l.48,5.52h5.49Zm6.08,0h-5.49l.48,5.52h5.49Zm6.08,0h-5.49l.48,5.52h5.49Zm6.08,0H523l.48,5.52H529Zm6.08,0h-5.49l.48,5.52h5.49Zm6.07,0h-5.48l.48,5.52h5.49Zm6.09,0h-5.5l.48,5.52h5.49Zm6.07,0h-5.49l.48,5.52h5.49Zm6.08,0h-5.49l.48,5.52h5.49Zm-213.25-6.11h-5.49l.48,5.53h5.49Zm6.08,0h-5.49l.48,5.53h5.49Zm6.08,0H352.3l.48,5.53h5.49Zm6.08,0h-5.5l.48,5.53h5.49Zm6.07,0h-5.49l.48,5.53h5.49Zm6.08,0h-5.49l.48,5.53h5.49Zm6.08,0h-5.49l.48,5.53h5.49Zm6.08,0h-5.5l.48,5.53h5.49Zm6.07,0h-5.49l.48,5.53h5.49Zm6.08,0h-5.49l.48,5.53h5.49Zm6.08,0h-5.49l.48,5.53h5.48Zm6.07,0H407l.47,5.53H413Zm6.08,0h-5.49l.48,5.53H419Zm6.08,0h-5.49l.48,5.53h5.49Zm6.08,0h-5.49l.48,5.53h5.49Zm6.08,0h-5.49l.48,5.53h5.49Zm6.07,0h-5.48l.47,5.53h5.49Zm6.08,0h-5.49l.48,5.53h5.49Zm6.08,0h-5.49l.48,5.53h5.49Zm6.08,0h-5.49l.48,5.53h5.48Zm6.07,0h-5.49l.48,5.53h5.49Zm6.08,0h-5.49l.48,5.53h5.49Zm6.08,0h-5.49l.48,5.53h5.49Zm6.07,0h-5.48l.48,5.53h5.49Zm6.08,0H486l.47,5.53H492Zm6.08,0h-5.49l.48,5.53h5.49Zm6.08,0h-5.49l.48,5.53h5.49Zm6.08,0h-5.49l.48,5.53h5.48Zm6.07,0h-5.49l.49,5.53h5.48Zm6.08,0h-5.49l.48,5.53h5.49Zm6.08,0h-5.49l.48,5.53h5.49Zm6.08,0h-5.49l.48,5.53h5.49Zm6.08,0h-5.49l.48,5.53h5.48Zm6.07,0H540.7l.49,5.53h5.48Zm6.08,0h-5.49l.48,5.53h5.49Zm6.08,0h-5.49l.48,5.53h5.49Zm-213.25-6.1h-5.49l.48,5.52h5.49Zm6.08,0h-5.49l.48,5.52h5.49Zm6.08,0h-5.49l.48,5.52h5.49Zm6.08,0h-5.49l.47,5.52h5.49Zm6.07,0h-5.49l.48,5.52h5.49Zm6.08,0H370l.48,5.52H376Zm6.08,0h-5.49l.48,5.52H382Zm6.07,0h-5.49l.49,5.52h5.48Zm6.08,0h-5.48l.47,5.52h5.49Zm6.08,0h-5.49l.48,5.52h5.49Zm6.08,0h-5.49l.48,5.52h5.48Zm6.07,0h-5.48l.47,5.52h5.49Zm6.08,0h-5.49l.48,5.52h5.49Zm6.08,0h-5.49l.48,5.52h5.49Zm6.08,0H424.7l.48,5.52h5.49Zm6.08,0h-5.49l.48,5.52h5.49Zm6.08,0h-5.49l.47,5.52h5.49Zm6.07,0h-5.49l.48,5.52h5.49Zm6.08,0H449l.48,5.52H455Zm6.08,0h-5.49l.48,5.52h5.48Zm6.07,0h-5.49l.48,5.52h5.49Zm6.08,0h-5.49l.48,5.52h5.49Zm6.08,0h-5.49l.48,5.52h5.49Zm6.08,0H479.4l.48,5.52h5.49Zm6.08,0h-5.49l.47,5.52h5.49Zm6.07,0h-5.49l.48,5.52h5.49Zm6.08,0h-5.49l.48,5.52h5.49Zm6.08,0h-5.49l.48,5.52h5.48Zm6.07,0h-5.48l.47,5.52h5.49Zm6.08,0h-5.49l.48,5.52h5.49Zm6.08,0h-5.49l.48,5.52h5.49Zm6.08,0H528l.48,5.52H534Zm6.08,0H534.1l.48,5.52h5.48Zm6.07,0h-5.48l.47,5.52h5.5Zm6.08,0h-5.49l.48,5.52h5.49Zm6.08,0h-5.49l.48,5.52h5.49Zm-213.25-6.1h-5.49l.48,5.52h5.49Zm6.08,0h-5.49l.48,5.52h5.49Zm6.08,0h-5.49l.48,5.52h5.49Zm6.08,0h-5.5l.48,5.52h5.49Zm6.07,0h-5.49l.48,5.52h5.49Zm6.08,0h-5.49L370,864h5.49Zm6.08,0h-5.49L376,864h5.49Zm6.07,0h-5.48l.47,5.52h5.49Zm6.08,0H387.7l.48,5.52h5.49Zm6.08,0h-5.49l.48,5.52h5.49Zm6.08,0h-5.49l.48,5.52h5.49Zm6.07,0h-5.49l.49,5.52h5.48Zm6.08,0H412l.48,5.52H418Zm6.08,0h-5.49l.48,5.52h5.49Zm6.08,0h-5.49l.48,5.52h5.49Zm6.08,0h-5.49l.48,5.52h5.49Zm6.08,0h-5.49l.48,5.52h5.48Zm6.07,0H442.4l.48,5.52h5.49Zm6.08,0h-5.49L449,864h5.49Zm6.08,0h-5.49L455,864h5.49Zm6.07,0h-5.48l.47,5.52h5.49Zm6.08,0h-5.49l.48,5.52h5.49Zm6.08,0h-5.49l.48,5.52h5.49Zm6.08,0h-5.49l.48,5.52h5.49Zm6.08,0h-5.5l.49,5.52h5.48Zm6.07,0H491l.48,5.52H497Zm6.08,0H497.1l.48,5.52h5.49Zm6.08,0h-5.49l.48,5.52h5.48Zm6.07,0h-5.48l.47,5.52h5.49Zm6.08,0h-5.49l.48,5.52h5.49Zm6.08,0h-5.49l.48,5.52h5.49Zm6.08,0h-5.49L528,864h5.49Zm6.08,0h-5.49l.48,5.52h5.48Zm6.07,0h-5.48l.47,5.52h5.49Zm6.08,0h-5.49l.48,5.52h5.49Zm6.08,0H551.8l.48,5.52h5.49ZM344,852.4h-5.49l.48,5.52h5.49Zm6.08,0h-5.49l.48,5.52h5.49Zm6.08,0h-5.49l.48,5.52h5.49Zm6.08,0h-5.5l.49,5.52h5.49Zm6.07,0h-5.49l.48,5.52h5.49Zm6.08,0h-5.49l.48,5.52h5.49Zm6.08,0H375l.48,5.52H381Zm6.07,0H381.1l.47,5.52h5.49Zm6.08,0h-5.49l.49,5.52h5.48Zm6.08,0h-5.49l.48,5.52h5.49Zm6.08,0h-5.49l.48,5.52h5.48Zm6.07,0h-5.48l.48,5.52h5.48Zm6.08,0h-5.49l.48,5.52h5.49Zm6.08,0h-5.49l.48,5.52h5.49Zm6.08,0h-5.49l.48,5.52h5.49Zm6.08,0h-5.49l.48,5.52h5.49Zm6.07,0H435.8l.48,5.52h5.48Zm6.08,0h-5.49l.48,5.52h5.49Zm6.08,0H448l.48,5.52h5.49Zm6.08,0H454l.48,5.52H460Zm6.07,0h-5.48l.47,5.52h5.49Zm6.08,0h-5.49l.48,5.52h5.49Zm6.08,0h-5.49l.48,5.52h5.49Zm6.08,0h-5.49l.48,5.52h5.49Zm6.07,0h-5.48l.48,5.52h5.48Zm6.08,0h-5.49l.48,5.52h5.49Zm6.08,0h-5.49l.48,5.52h5.49Zm6.08,0h-5.49l.48,5.52h5.49Zm6.07,0h-5.48l.47,5.52h5.49Zm6.08,0H514.8l.48,5.52h5.49Zm6.08,0h-5.49l.48,5.52h5.49Zm6.08,0H527l.48,5.52h5.49Zm6.08,0H533l.48,5.52H539Zm6.08,0h-5.49l.48,5.52h5.48Zm6.07,0h-5.49l.48,5.52h5.49Zm6.08,0h-5.49l.48,5.52h5.49Zm-213.25-6.1H338l.48,5.52H344Zm6.08,0H344.1l.48,5.52h5.49Zm6.08,0h-5.49l.48,5.52h5.49Zm6.08,0h-5.49l.48,5.52h5.49Zm6.07,0h-5.49l.48,5.52h5.49Zm6.08,0h-5.49l.48,5.52h5.49Zm6.08,0h-5.49l.48,5.52h5.49Zm6.08,0h-5.49l.48,5.52h5.48Zm6.07,0h-5.48l.48,5.52h5.48Zm6.08,0h-5.49l.48,5.52h5.49Zm6.08,0H398.8l.48,5.52h5.48Zm6.07,0h-5.48l.48,5.52h5.48Zm6.08,0H411l.47,5.52h5.49Zm6.08,0H417l.48,5.52H423Zm6.08,0h-5.49l.48,5.52h5.49Zm6.08,0h-5.49l.48,5.52h5.49Zm6.08,0h-5.49l.47,5.52h5.5Zm6.07,0h-5.49l.48,5.52h5.49Zm6.08,0h-5.49l.48,5.52h5.49Zm6.08,0H453.5l.48,5.52h5.49Zm6.08,0h-5.49l.47,5.52h5.49Zm6.07,0h-5.49l.48,5.52h5.49Zm6.08,0h-5.49l.48,5.52h5.49Zm6.08,0h-5.49l.48,5.52h5.49Zm6.07,0h-5.48l.47,5.52h5.5Zm6.08,0H490l.48,5.52h5.49Zm6.08,0H496l.48,5.52H502Zm6.08,0h-5.49l.48,5.52h5.49Zm6.07,0H508.2l.48,5.52h5.48Zm6.08,0h-5.49l.48,5.52h5.49Zm6.08,0h-5.49l.48,5.52h5.49Zm6.08,0h-5.49l.48,5.52h5.49Zm6.08,0h-5.49l.48,5.52h5.49Zm6.08,0h-5.49l.48,5.52h5.48Zm6.07,0h-5.49l.48,5.52h5.49Zm6.08,0h-5.49l.48,5.52h5.49ZM343,840.19h-5.49l.48,5.53h5.49Zm6.08,0h-5.49l.48,5.53h5.49Zm6.08,0h-5.49l.48,5.53h5.49Zm6.08,0h-5.49l.47,5.53h5.5Zm6.08,0h-5.5l.48,5.53h5.49Zm6.07,0h-5.49l.48,5.53h5.49Zm6.08,0H374l.48,5.53h5.49Zm6.08,0H380l.48,5.53H386Zm6.07,0h-5.48l.47,5.53h5.49Zm6.08,0h-5.49l.48,5.53h5.49Zm6.08,0h-5.49l.48,5.53h5.49Zm6.07,0h-5.48l.48,5.53h5.48Zm6.08,0h-5.49l.48,5.53h5.49Zm6.08,0H416.5l.48,5.53h5.49Zm6.08,0h-5.49l.48,5.53h5.49Zm6.08,0h-5.49l.48,5.53h5.49Zm6.08,0h-5.49l.48,5.53h5.49Zm6.07,0h-5.49l.48,5.53h5.49Zm6.08,0h-5.49l.48,5.53h5.49Zm6.08,0H453l.48,5.53h5.49Zm6.08,0H459l.49,5.53H465Zm6.07,0h-5.49l.48,5.53h5.49Zm6.08,0H471.2l.48,5.53h5.49Zm6.08,0h-5.49l.48,5.53h5.49Zm6.08,0h-5.49l.47,5.53h5.5Zm6.07,0h-5.49l.48,5.53h5.49Zm6.08,0h-5.49l.48,5.53h5.49Zm6.08,0h-5.49l.48,5.53h5.49Zm6.08,0h-5.49l.48,5.53h5.48Zm6.07,0h-5.49l.48,5.53h5.49Zm6.08,0h-5.49l.48,5.53h5.49Zm6.08,0H525.9l.48,5.53h5.49Zm6.08,0H532l.48,5.53H538Zm6.08,0h-5.49l.48,5.53H544Zm6.07,0h-5.49l.48,5.53h5.49Zm6.08,0h-5.49l.48,5.53h5.49Zm-213.25-6.1H337l.47,5.52h5.49Zm6.08,0H343l.48,5.52H349Zm6.08,0h-5.49l.48,5.52h5.49Zm6.08,0H355.2l.47,5.52h5.5Zm6.07,0h-5.49l.48,5.52h5.49Zm6.08,0h-5.49l.48,5.52h5.49Zm6.08,0h-5.49l.48,5.52h5.49Zm6.08,0h-5.49l.48,5.52h5.49Zm6.07,0h-5.48l.47,5.52h5.49Zm6.08,0h-5.49l.48,5.52h5.49Zm6.08,0h-5.49l.48,5.52h5.49Zm6.08,0h-5.49l.48,5.52h5.48Zm6.07,0h-5.49l.48,5.52h5.49Zm6.08,0H416l.48,5.52h5.49Zm6.08,0h-5.49l.48,5.52H428Zm6.08,0h-5.49l.48,5.52h5.49Zm6.08,0h-5.49l.48,5.52h5.49Zm6.07,0h-5.49l.48,5.52h5.49Zm6.08,0h-5.49l.48,5.52h5.49Zm6.08,0h-5.49l.48,5.52h5.49Zm6.07,0h-5.48l.48,5.52h5.49Zm6.08,0h-5.49l.48,5.52h5.49Zm6.08,0h-5.49l.48,5.52h5.49Zm6.08,0h-5.49l.48,5.52h5.49Zm6.08,0h-5.49l.48,5.52h5.48Zm6.07,0H488.9l.48,5.52h5.49Zm6.08,0H495l.48,5.52H501Zm6.08,0h-5.49l.48,5.52H507Zm6.07,0h-5.48l.48,5.52h5.48Zm6.08,0h-5.48l.47,5.52h5.49Zm6.08,0h-5.49l.48,5.52h5.49Zm6.08,0h-5.49l.48,5.52h5.49Zm6.08,0h-5.49l.48,5.52h5.49Zm6.08,0h-5.49l.48,5.52h5.49Zm6.07,0H543.6l.48,5.52h5.49Zm6.08,0h-5.49l.48,5.52h5.49ZM341.93,828h-5.49l.47,5.52h5.49Zm6.07,0h-5.49l.48,5.52h5.49Zm6.08,0h-5.49l.48,5.52h5.49Zm6.08,0h-5.49l.48,5.52h5.49Zm6.07,0h-5.49l.48,5.52h5.5Zm6.08,0h-5.49l.48,5.52h5.49Zm6.08,0H372.9l.48,5.52h5.49Zm6.08,0H379l.48,5.52H385Zm6.07,0h-5.48l.48,5.52H391Zm6.08,0h-5.49l.48,5.52h5.49Zm6.08,0h-5.49l.48,5.52h5.49Zm6.08,0h-5.49l.48,5.52h5.48Zm6.07,0h-5.48l.47,5.52h5.49Zm6.08,0h-5.49l.48,5.52h5.49Zm6.08,0h-5.49l.48,5.52h5.49Zm6.08,0H427.6l.48,5.52h5.49Zm6.08,0h-5.49l.48,5.52h5.49Zm6.07,0h-5.49l.48,5.52h5.49Zm6.08,0h-5.49l.48,5.52h5.49Zm6.08,0h-5.49l.48,5.52h5.49Zm6.08,0H458l.47,5.52H464Zm6.07,0h-5.49l.48,5.52H470Zm6.08,0h-5.49l.48,5.52h5.49Zm6.08,0h-5.49l.48,5.52h5.49Zm6.08,0H482.3l.48,5.52h5.48Zm6.07,0h-5.48l.47,5.52h5.49Zm6.08,0h-5.49l.48,5.52h5.49Zm6.08,0h-5.49l.48,5.52h5.49Zm6.07,0h-5.48l.48,5.52h5.49Zm6.09,0h-5.5l.48,5.52h5.49Zm6.07,0h-5.49l.48,5.52h5.49Zm6.08,0h-5.49l.48,5.52h5.49Zm6.08,0h-5.49l.48,5.52h5.49Zm6.08,0H537l.48,5.52H543Zm6.08,0h-5.5l.48,5.52H549Zm6.07,0h-5.49l.48,5.52h5.49ZM341.4,821.88h-5.5l.49,5.52h5.48Zm6.07,0H342l.48,5.52H348Zm6.08,0h-5.49l.48,5.52H354Zm6.08,0h-5.49l.48,5.52h5.49Zm6.07,0h-5.49l.48,5.52h5.5Zm6.08,0h-5.49l.48,5.52h5.49Zm6.08,0h-5.49l.48,5.52h5.49Zm6.08,0h-5.49l.48,5.52h5.49Zm6.08,0h-5.49l.48,5.52h5.48Zm6.07,0H390.6l.48,5.52h5.49Zm6.08,0h-5.49l.48,5.52h5.49Zm6.08,0h-5.49l.48,5.52h5.48Zm6.07,0h-5.48l.47,5.52h5.5Zm6.08,0h-5.49l.48,5.52h5.49Zm6.08,0H421l.48,5.52H427Zm6.08,0h-5.49l.48,5.52H433Zm6.08,0h-5.49l.48,5.52h5.49Zm6.08,0h-5.5l.48,5.52h5.49Zm6.07,0H445.3l.48,5.52h5.49Zm6.08,0h-5.49l.48,5.52h5.49Zm6.08,0h-5.49l.48,5.52h5.49Zm6.08,0h-5.5l.48,5.52h5.49Zm6.07,0h-5.49l.48,5.52h5.49Zm6.08,0h-5.49l.48,5.52h5.49Zm6.08,0h-5.49l.48,5.52h5.49Zm6.07,0h-5.48l.47,5.52h5.49Zm6.08,0h-5.49l.48,5.52h5.49Zm6.08,0H500l.48,5.52H506Zm6.08,0h-5.49l.48,5.52H512Zm6.07,0h-5.49l.49,5.52h5.48Zm6.08,0h-5.49l.48,5.52h5.49Zm6.08,0h-5.49l.48,5.52h5.49Zm6.08,0h-5.49l.48,5.52h5.49Zm6.08,0h-5.49l.48,5.52h5.49Zm6.07,0h-5.49l.48,5.52h5.49Zm6.08,0h-5.49l.48,5.52h5.49Zm-213.25-6.1h-5.48l.48,5.52h5.48Zm6.08,0h-5.49l.48,5.52h5.49Zm6.08,0h-5.49l.48,5.52h5.49Zm6.08,0h-5.49l.48,5.52h5.49Zm6.08,0h-5.49l.47,5.52h5.49Zm6.07,0h-5.49l.48,5.52h5.49Zm6.08,0h-5.49l.48,5.52h5.49Zm6.08,0h-5.49l.48,5.52h5.49Zm6.07,0H384l.48,5.52H390Zm6.08,0h-5.48l.47,5.52H396Zm6.08,0h-5.49l.48,5.52h5.49Zm6.07,0h-5.48l.48,5.52h5.49Zm6.09,0h-5.49l.47,5.52h5.49Zm6.07,0h-5.49l.48,5.52h5.49Zm6.08,0h-5.49l.48,5.52h5.49Zm6.08,0h-5.49l.48,5.52h5.49Zm6.08,0h-5.49l.48,5.52h5.49Zm6.08,0H438.7l.47,5.52h5.49Zm6.07,0h-5.49l.48,5.52h5.49Zm6.08,0h-5.49l.48,5.52h5.49Zm6.08,0h-5.49l.48,5.52h5.48Zm6.07,0H463l.49,5.52H469Zm6.08,0h-5.49l.48,5.52h5.49Zm6.08,0h-5.49l.48,5.52h5.49Zm6.08,0h-5.49l.48,5.52h5.49Zm6.08,0h-5.49l.47,5.52h5.49Zm6.07,0h-5.49l.48,5.52h5.49Zm6.08,0h-5.49l.48,5.52h5.49Zm6.08,0h-5.49l.48,5.52h5.48Zm6.07,0h-5.48l.48,5.52h5.48Zm6.08,0H517.7l.48,5.52h5.49Zm6.08,0h-5.49l.48,5.52h5.49Zm6.08,0h-5.49l.48,5.52h5.49Zm6.08,0h-5.49l.48,5.52h5.49Zm6.07,0H542l.48,5.52H548Zm6.08,0h-5.49l.48,5.52h5.49Zm-213.25-6.11h-5.48l.48,5.52h5.49Zm6.08,0h-5.48l.47,5.52h5.49Zm6.08,0H347l.48,5.52H353Zm6.08,0h-5.49l.48,5.52h5.49Zm6.08,0h-5.49l.47,5.52h5.49Zm6.07,0h-5.49l.48,5.52h5.49Zm6.08,0h-5.49l.48,5.52h5.49Zm6.08,0h-5.49l.48,5.52h5.49Zm6.07,0h-5.48l.48,5.52h5.48Zm6.08,0h-5.49l.48,5.52h5.49Zm6.08,0h-5.49l.48,5.52h5.49Zm6.08,0H401.7l.48,5.52h5.49Zm6.08,0h-5.49l.48,5.52h5.48Zm6.07,0h-5.49l.48,5.52h5.49Zm6.08,0h-5.49l.48,5.52h5.49Zm6.08,0H426l.48,5.52H432Zm6.08,0h-5.49l.48,5.52h5.49Zm6.08,0h-5.5l.48,5.52h5.49Zm6.07,0h-5.49l.48,5.52h5.49Zm6.08,0h-5.49l.48,5.52h5.49Zm6.08,0H456.4l.48,5.52h5.49Zm6.07,0h-5.48l.47,5.52h5.49Zm6.08,0h-5.49l.48,5.52h5.49Zm6.08,0h-5.49l.48,5.52h5.49Zm6.08,0h-5.49l.48,5.52h5.49Zm6.08,0h-5.5l.49,5.52h5.48Zm6.07,0h-5.49l.48,5.52h5.49Zm6.08,0h-5.49l.48,5.52h5.49Zm6.08,0H505l.48,5.52H511Zm6.08,0H511.1l.47,5.52h5.5Zm6.07,0h-5.49l.48,5.52h5.49Zm6.08,0h-5.49l.48,5.52h5.49Zm6.08,0h-5.49l.48,5.52h5.49Zm6.08,0h-5.49l.48,5.52h5.49Zm6.08,0h-5.49l.47,5.52h5.5Zm6.07,0h-5.49l.48,5.52h5.49Zm-213.24-6.11h-5.49l.47,5.53h5.5Zm6.07,0h-5.49l.48,5.53h5.49Zm6.08,0h-5.49l.48,5.53h5.49Zm6.08,0h-5.49l.48,5.53h5.49Zm6.08,0h-5.5l.48,5.53h5.5Zm6.07,0H364.7l.48,5.53h5.49Zm6.08,0h-5.49l.48,5.53h5.49Zm6.08,0h-5.49l.48,5.53h5.49Zm6.08,0h-5.49l.48,5.53h5.49Zm6.07,0H389l.48,5.53H395Zm6.08,0h-5.49l.48,5.53h5.49Zm6.08,0h-5.49l.48,5.53h5.49Zm6.08,0h-5.49l.48,5.53h5.49Zm6.07,0h-5.48l.47,5.53h5.49Zm6.08,0H419.4l.48,5.53h5.49Zm6.08,0h-5.49l.48,5.53h5.49Zm6.08,0h-5.49l.48,5.53h5.49Zm6.08,0h-5.5l.48,5.53h5.5Zm6.07,0h-5.49l.48,5.53h5.49Zm6.08,0h-5.49l.48,5.53h5.49Zm6.08,0h-5.49l.48,5.53h5.49Zm6.07,0H462l.47,5.53h5.49Zm6.08,0H468l.48,5.53H474Zm6.08,0H474.1l.48,5.53h5.49Zm6.08,0h-5.49l.48,5.53h5.49Zm6.07,0h-5.48l.48,5.53h5.48Zm6.08,0h-5.49l.48,5.53h5.49Zm6.08,0h-5.49l.48,5.53h5.49Zm6.08,0h-5.49l.48,5.53h5.49Zm6.08,0h-5.49l.48,5.53h5.48Zm6.07,0h-5.49l.48,5.53h5.49Zm6.08,0h-5.49l.48,5.53h5.49Zm6.08,0H528.8l.48,5.53h5.49Zm6.08,0h-5.49l.48,5.53h5.49Zm6.08,0H541l.47,5.53h5.49Zm6.07,0H547l.48,5.53H553Zm-213.24-6.1h-5.49l.48,5.52h5.48Zm6.07,0h-5.49l.49,5.52h5.48Zm6.08,0h-5.49l.48,5.52h5.49Zm6.08,0H352l.48,5.52H358Zm6.08,0H358.1l.48,5.52h5.49Zm6.07,0h-5.49l.48,5.52h5.49Zm6.08,0h-5.49l.48,5.52h5.49Zm6.08,0h-5.49l.48,5.52h5.49Zm6.08,0h-5.49l.48,5.52h5.48Zm6.07,0h-5.48L389,803h5.48Zm6.08,0h-5.49L395,803h5.49Zm6.08,0h-5.49l.48,5.52h5.49Zm6.08,0h-5.49l.48,5.52h5.49Zm6.07,0H412.8l.47,5.52h5.49Zm6.08,0h-5.49l.48,5.52h5.49Zm6.08,0H425l.48,5.52h5.49Zm6.08,0H431l.48,5.52H437Zm6.08,0h-5.5l.49,5.52h5.49Zm6.07,0h-5.49l.48,5.52h5.49Zm6.08,0h-5.49l.48,5.52h5.49Zm6.08,0h-5.49l.48,5.52h5.49Zm6.08,0h-5.49l.48,5.52h5.48Zm6.07,0h-5.49L468,803h5.49Zm6.08,0h-5.49l.48,5.52h5.49Zm6.08,0h-5.49l.48,5.52h5.49Zm6.07,0h-5.48l.48,5.52h5.49Zm6.08,0h-5.48l.47,5.52h5.49Zm6.08,0h-5.49l.48,5.52h5.49Zm6.08,0H504l.48,5.52h5.49Zm6.08,0H510l.48,5.52H516Zm6.07,0h-5.49l.48,5.52h5.49Zm6.08,0h-5.49l.48,5.52h5.49Zm6.08,0h-5.49l.48,5.52h5.49Zm6.08,0h-5.49l.48,5.52h5.49Zm6.08,0h-5.49l.47,5.52h5.49Zm6.07,0H546.5L547,803h5.49Zm-213.24-6.11h-5.49l.48,5.53h5.48Zm6.07,0h-5.49l.48,5.53h5.49Zm6.08,0h-5.49l.48,5.53h5.49Zm6.08,0h-5.49l.48,5.53h5.49Zm6.08,0h-5.49l.47,5.53h5.5Zm6.07,0h-5.49l.48,5.53h5.49Zm6.08,0h-5.49l.48,5.53h5.49Zm6.08,0H375.8l.48,5.53h5.49Zm6.08,0h-5.49l.48,5.53h5.48Zm6.07,0H388l.47,5.53h5.49Zm6.08,0H394l.48,5.53H400Zm6.08,0h-5.49l.48,5.53h5.49Zm6.08,0h-5.49l.48,5.53h5.49Zm6.08,0h-5.5l.48,5.53h5.49Zm6.07,0h-5.49l.48,5.53h5.49Zm6.08,0h-5.49l.48,5.53h5.49Zm6.08,0H430.5l.48,5.53h5.49Zm6.08,0h-5.49l.47,5.53h5.5Zm6.07,0h-5.49l.48,5.53h5.49Zm6.08,0h-5.49l.48,5.53h5.49Zm6.08,0h-5.49l.48,5.53h5.49Zm6.08,0h-5.49l.48,5.53h5.48Zm6.07,0H467l.48,5.53h5.49Zm6.08,0H473l.48,5.53H479Zm6.08,0h-5.49l.48,5.53h5.49Zm6.08,0H485.2l.48,5.53h5.49Zm6.07,0h-5.49l.48,5.53h5.49Zm6.08,0h-5.49l.48,5.53h5.49Zm6.08,0h-5.49l.48,5.53h5.49Zm6.08,0h-5.49l.48,5.53h5.49Zm6.07,0h-5.48l.47,5.53h5.49Zm6.08,0h-5.49l.48,5.53h5.49Zm6.08,0h-5.49l.48,5.53h5.49Zm6.08,0h-5.49l.48,5.53h5.49Zm6.08,0h-5.5l.49,5.53h5.49Zm6.07,0H546l.48,5.53h5.49Zm-213.24-6.1h-5.49l.48,5.52h5.49Zm6.07,0h-5.48l.47,5.52h5.5Zm6.08,0h-5.49l.48,5.52h5.49Zm6.08,0H351l.48,5.52h5.49Zm6.08,0H357l.48,5.52H363Zm6.07,0h-5.49l.48,5.52h5.49Zm6.08,0h-5.49l.48,5.52h5.49Zm6.08,0h-5.49l.48,5.52h5.49Zm6.08,0h-5.49l.48,5.52h5.49Zm6.07,0h-5.48l.48,5.52h5.48Zm6.08,0H393.5l.48,5.52h5.49Zm6.08,0h-5.49l.48,5.52h5.49Zm6.08,0h-5.49l.48,5.52h5.49Zm6.08,0h-5.5l.49,5.52h5.48Zm6.07,0h-5.48l.47,5.52h5.49Zm6.08,0h-5.49l.48,5.52h5.49Zm6.08,0H430l.48,5.52h5.49Zm6.08,0h-5.49l.47,5.52H442Zm6.07,0h-5.49l.48,5.52h5.49Zm6.08,0H448.2l.48,5.52h5.49Zm6.08,0h-5.49l.48,5.52h5.49Zm6.08,0h-5.49l.48,5.52h5.49Zm6.07,0h-5.49l.48,5.52h5.49Zm6.08,0h-5.49l.48,5.52h5.49Zm6.08,0h-5.49l.48,5.52h5.49Zm6.08,0h-5.49l.48,5.52h5.48Zm6.07,0h-5.49l.48,5.52h5.49Zm6.08,0h-5.49l.48,5.52h5.49Zm6.08,0H502.9l.48,5.52h5.49Zm6.08,0H509l.48,5.52H515Zm6.07,0h-5.48l.47,5.52H521Zm6.08,0h-5.49l.48,5.52h5.49Zm6.08,0h-5.49l.48,5.52h5.49Zm6.08,0h-5.49l.48,5.52h5.49Zm6.08,0h-5.49l.48,5.52h5.49Zm6.07,0h-5.49l.48,5.52h5.49Zm-213.24-6.1H332.2l.48,5.52h5.49Zm6.08,0h-5.49l.47,5.52h5.49Zm6.07,0h-5.49l.48,5.52h5.49Zm6.08,0h-5.49l.48,5.52h5.49Zm6.08,0h-5.49l.48,5.52h5.49Zm6.07,0h-5.49l.48,5.52h5.49Zm6.08,0h-5.49l.48,5.52h5.49Zm6.08,0h-5.49l.48,5.52h5.49Zm6.08,0h-5.49l.48,5.52h5.49Zm6.07,0H386.9l.48,5.52h5.48Zm6.08,0H393l.48,5.52h5.49Zm6.08,0h-5.49l.48,5.52H405Zm6.08,0h-5.49l.48,5.52h5.49Zm6.07,0h-5.48l.48,5.52h5.48Zm6.08,0h-5.48l.47,5.52h5.49Zm6.08,0h-5.49l.48,5.52h5.49Zm6.08,0h-5.49l.48,5.52h5.49Zm6.08,0h-5.49l.48,5.52h5.49Zm6.07,0h-5.49l.48,5.52h5.49Zm6.08,0h-5.49l.48,5.52h5.49Zm6.08,0h-5.49l.48,5.52h5.49Zm6.08,0h-5.49l.48,5.52h5.49Zm6.07,0h-5.48l.47,5.52h5.49Zm6.08,0H472l.48,5.52H478Zm6.08,0h-5.49l.48,5.52H484Zm6.08,0h-5.49l.48,5.52h5.49Zm6.07,0h-5.48l.47,5.52h5.49Zm6.08,0h-5.49l.48,5.52h5.49Zm6.08,0h-5.49l.48,5.52h5.49Zm6.08,0h-5.49l.48,5.52h5.49Zm6.08,0h-5.49l.47,5.52h5.49Zm6.07,0H520.6l.48,5.52h5.49Zm6.08,0h-5.49l.48,5.52h5.49Zm6.08,0h-5.49l.48,5.52h5.49Zm6.08,0h-5.49l.47,5.52h5.5Zm6.07,0h-5.49l.48,5.52h5.49ZM337.16,773h-5.49l.48,5.52h5.49Zm6.08,0h-5.49l.48,5.52h5.48Zm6.07,0h-5.49l.48,5.52h5.49Zm6.08,0H349.9l.48,5.52h5.49Zm6.08,0H356l.48,5.52H362Zm6.07,0h-5.49l.48,5.52H368Zm6.08,0h-5.49l.48,5.52h5.49Zm6.08,0h-5.49l.48,5.52h5.49Zm6.08,0h-5.49l.48,5.52h5.49Zm6.07,0h-5.48l.48,5.52h5.48Zm6.08,0h-5.49l.48,5.52h5.49Zm6.08,0h-5.49l.48,5.52h5.49Zm6.08,0H404.6l.48,5.52h5.49Zm6.07,0h-5.48l.47,5.52h5.5Zm6.08,0h-5.49l.48,5.52h5.49Zm6.08,0h-5.49l.48,5.52h5.49Zm6.08,0h-5.49l.48,5.52h5.49Zm6.08,0H435l.48,5.52H441Zm6.07,0h-5.49l.48,5.52H447Zm6.08,0h-5.49l.48,5.52h5.49Zm6.08,0h-5.49l.48,5.52h5.49Zm6.08,0H459.3l.48,5.52h5.49Zm6.08,0h-5.5l.48,5.52h5.49Zm6.07,0h-5.49l.48,5.52h5.49Zm6.08,0h-5.49l.48,5.52h5.49Zm6.08,0h-5.49l.48,5.52h5.49Zm6.07,0h-5.48l.47,5.52h5.49Zm6.08,0h-5.49l.48,5.52h5.49Zm6.08,0h-5.49l.48,5.52h5.49Zm6.08,0h-5.49l.48,5.52h5.49Zm6.08,0H514l.49,5.52H520Zm6.07,0h-5.48l.47,5.52H526Zm6.08,0h-5.49l.48,5.52h5.49Zm6.08,0h-5.49l.48,5.52h5.49Zm6.08,0h-5.49l.47,5.52h5.5Zm6.07,0h-5.49l.48,5.52h5.49Zm-213.24-6.11h-5.49l.48,5.53h5.49Zm6.08,0h-5.49l.48,5.53h5.48Zm6.07,0h-5.49l.48,5.53h5.49Zm6.08,0h-5.49l.48,5.53h5.49Zm6.08,0h-5.49l.48,5.53h5.49Zm6.07,0h-5.48l.47,5.53h5.49Zm6.08,0H367.6l.48,5.53h5.49Zm6.08,0h-5.49l.48,5.53h5.49Zm6.08,0h-5.49l.48,5.53h5.49Zm6.07,0h-5.48l.48,5.53h5.48Zm6.08,0h-5.49l.48,5.53h5.49Zm6.08,0H398l.48,5.53H404Zm6.08,0h-5.49l.48,5.53H410Zm6.08,0h-5.49l.47,5.53h5.49Zm6.07,0h-5.49l.49,5.53h5.48Zm6.08,0H422.3l.48,5.53h5.49Zm6.08,0h-5.49l.48,5.53h5.49Zm6.08,0h-5.49l.48,5.53h5.49Zm6.07,0h-5.49l.48,5.53h5.49Zm6.08,0h-5.49l.48,5.53h5.49Zm6.08,0h-5.49l.48,5.53h5.49Zm6.08,0h-5.49l.48,5.53h5.48Zm6.07,0h-5.49l.48,5.53h5.49Zm6.08,0h-5.49l.48,5.53h5.49Zm6.08,0H477l.48,5.53H483Zm6.08,0h-5.49l.48,5.53h5.49Zm6.07,0h-5.48l.47,5.53h5.49Zm6.08,0h-5.49l.48,5.53h5.49Zm6.08,0h-5.49l.48,5.53h5.49Zm6.08,0h-5.49l.48,5.53h5.49Zm6.07,0h-5.48l.48,5.53h5.49Zm6.09,0h-5.49l.47,5.53h5.49Zm6.07,0h-5.49l.48,5.53h5.49Zm6.08,0H531.7l.48,5.53h5.49Zm6.08,0h-5.49l.48,5.53h5.49Zm6.07,0h-5.49l.48,5.53h5.49Zm-213.24-6.1h-5.49l.48,5.52h5.49Zm6.08,0h-5.49l.48,5.52h5.49Zm6.07,0h-5.48l.47,5.52h5.49Zm6.08,0h-5.49l.48,5.52h5.49Zm6.08,0h-5.49l.48,5.52h5.49Zm6.08,0H361l.47,5.52H367Zm6.07,0h-5.49l.48,5.52H373Zm6.08,0h-5.49l.48,5.52h5.49Zm6.08,0h-5.49l.48,5.52h5.49Zm6.07,0h-5.48l.48,5.52h5.48Zm6.08,0h-5.49l.48,5.52h5.49Zm6.08,0h-5.49l.48,5.52h5.49Zm6.08,0h-5.49l.48,5.52h5.49Zm6.08,0h-5.49l.48,5.52h5.48Zm6.07,0H415.7l.48,5.52h5.48Zm6.08,0h-5.48l.47,5.52h5.49Zm6.08,0h-5.49l.48,5.52h5.49Zm6.08,0h-5.49l.48,5.52h5.49Zm6.07,0H440l.47,5.52H446Zm6.08,0h-5.49l.48,5.52h5.49Zm6.08,0h-5.49l.48,5.52h5.49Zm6.08,0h-5.49l.48,5.52h5.49Zm6.07,0h-5.48l.47,5.52h5.49Zm6.08,0h-5.49l.48,5.52h5.49Zm6.08,0h-5.49l.48,5.52h5.49Zm6.08,0h-5.49l.48,5.52h5.49Zm6.07,0h-5.48l.48,5.52h5.48Zm6.08,0H494.7l.48,5.52h5.49Zm6.08,0h-5.49l.48,5.52h5.49Zm6.08,0h-5.49l.48,5.52h5.49Zm6.07,0h-5.48l.47,5.52h5.5Zm6.09,0H519l.49,5.52H525Zm6.07,0h-5.49l.48,5.52h5.49Zm6.08,0h-5.49l.48,5.52h5.49Zm6.08,0h-5.49l.48,5.52h5.49Zm6.07,0h-5.48l.47,5.52h5.49Zm-213.24-6.1h-5.49l.48,5.52h5.49Zm6.08,0h-5.49l.48,5.52h5.49Zm6.07,0h-5.49l.48,5.52h5.49Zm6.08,0h-5.49l.48,5.52h5.49Zm6.08,0h-5.49l.48,5.52h5.49Zm6.08,0h-5.5l.49,5.52h5.48Zm6.07,0h-5.49l.48,5.52h5.49Zm6.08,0h-5.49l.48,5.52h5.49Zm6.08,0H378.7l.48,5.52h5.49Zm6.07,0h-5.48l.48,5.52h5.48Zm6.08,0h-5.49l.48,5.52h5.49Zm6.08,0h-5.49l.48,5.52h5.49Zm6.08,0H403l.48,5.52H409Zm6.08,0h-5.49l.48,5.52h5.49Zm6.07,0h-5.48l.47,5.52h5.49Zm6.08,0h-5.49l.48,5.52h5.49Zm6.08,0h-5.49l.48,5.52h5.49Zm6.08,0H433.4l.48,5.52h5.49Zm6.08,0h-5.5l.48,5.52h5.49Zm6.07,0h-5.49l.48,5.52h5.49Zm6.08,0h-5.49l.48,5.52h5.49Zm6.08,0h-5.49l.48,5.52h5.49Zm6.07,0h-5.48l.47,5.52h5.5Zm6.08,0h-5.49l.48,5.52h5.49Zm6.08,0h-5.49l.48,5.52h5.49Zm6.08,0H482l.48,5.52H488Zm6.08,0H488.1l.48,5.52h5.48Zm6.07,0h-5.49l.48,5.52h5.49Zm6.08,0h-5.49l.48,5.52h5.49Zm6.08,0h-5.49l.48,5.52h5.49Zm6.08,0h-5.49l.48,5.52h5.49Zm6.08,0h-5.49l.48,5.52h5.48Zm6.07,0h-5.49l.48,5.52h5.49Zm6.08,0h-5.49l.48,5.52h5.49Zm6.08,0h-5.49l.48,5.52h5.49Zm6.07,0H542.8l.47,5.52h5.49Z" transform="translate(21.34 29.51)"/></g></g><path class="cls-26" d="M434.86,808.29c2-1.06,4-2.2,6.08-3.46,36-22.08,81.63-31.41,111.08-9.29l.32,5.34c-29.46-22.11-75.09-15.89-111.09,6.19-2,1.26-4.16,2.21-6.08,3.46-35.52,23-85.49,14.39-98.71,9.76l-.46-5.4C349.17,819.54,407,822.87,434.86,808.29Z" transform="translate(21.34 29.51)"/><polygon class="cls-27" points="376.56 886.65 374 857.34 490.6 857 493.19 886.65 376.56 886.65"/><polygon class="cls-12" points="444.44 783.84 442.83 764.53 421.96 764.53 423.57 783.84 444.44 783.84"/><polygon class="cls-13" points="420.59 783.84 418.98 764.53 398.11 764.53 399.71 783.84 420.59 783.84"/><polygon class="cls-28" points="396.73 783.84 395.13 764.53 374.25 764.53 375.86 783.84 396.73 783.84"/><polygon class="cls-29" points="446.11 805.71 444.5 786.39 423.63 786.39 425.24 805.71 446.11 805.71"/><polygon class="cls-28" points="422.25 805.71 420.64 786.39 399.77 786.39 401.38 805.71 422.25 805.71"/><polygon class="cls-12" points="398.4 805.71 396.79 786.39 375.92 786.39 377.53 805.71 398.4 805.71"/><polygon class="cls-21" points="447.59 827.57 445.98 808.26 425.11 808.26 426.72 827.57 447.59 827.57"/><polygon class="cls-6" points="423.74 827.57 422.13 808.26 401.26 808.26 402.87 827.57 423.74 827.57"/><polygon class="cls-30" points="399.89 827.57 398.28 808.26 377.4 808.26 379.01 827.57 399.89 827.57"/><polygon class="cls-21" points="340.96 650.49 468.43 650.49 482.24 635.71 339.67 635.71 340.96 650.49"/><polygon class="cls-14" points="558.5 650.5 507.85 650.5 521.65 635.72 557.24 635.72 558.5 650.5"/><path class="cls-22" d="M353.53,617.71h54.75a3.09,3.09,0,0,0,3.12-3.42l-.13-1.4a3.8,3.8,0,0,0-3.71-3.42H352.81a3.08,3.08,0,0,0-3.12,3.42l.12,1.4A3.8,3.8,0,0,0,353.53,617.71Z" transform="translate(21.34 29.51)"/><path class="cls-16" d="M354.63,612.41a1.84,1.84,0,0,1,1.86-2,2.27,2.27,0,0,1,2.21,2,1.85,1.85,0,0,1-1.86,2A2.27,2.27,0,0,1,354.63,612.41Zm.43,0a1.79,1.79,0,0,0,1.75,1.61,1.45,1.45,0,0,0,1.46-1.61,1.79,1.79,0,0,0-1.75-1.6A1.45,1.45,0,0,0,355.06,612.41Z" transform="translate(21.34 29.51)"/><path class="cls-16" d="M355.28,613.38h0l.61.52,0,0-2.22,2.42a.34.34,0,0,1-.26.12.42.42,0,0,1-.29-.12.4.4,0,0,1-.05-.55Z" transform="translate(21.34 29.51)"/><polygon class="cls-13" points="349.49 753.06 567.07 753.06 559.07 656.57 341.49 656.57 349.49 753.06"/><polygon class="cls-10" points="504.33 656.57 389.21 656.57 397.63 753.06 512.76 753.06 533 708.3 504.33 656.57"/><path class="cls-22" d="M418.72,699.06h.68l.38,4.45a1.43,1.43,0,0,1-.2,1,1,1,0,0,1-.85.34h-.16l-.2,0-.19,0-.16-.06.08-.57a1.25,1.25,0,0,0,.51.1A.4.4,0,0,0,419,704a1.47,1.47,0,0,0,0-.66Z" transform="translate(21.34 29.51)"/><path class="cls-22" d="M420.88,701.92a3.26,3.26,0,0,1,.42-2.19A1.86,1.86,0,0,1,423,699a2.51,2.51,0,0,1,1.06.21,2.1,2.1,0,0,1,.78.6,2.6,2.6,0,0,1,.51.93,4.8,4.8,0,0,1,.25,1.21,3.27,3.27,0,0,1-.42,2.19,1.91,1.91,0,0,1-1.67.76,2.52,2.52,0,0,1-1-.21,2.39,2.39,0,0,1-.77-.6,2.79,2.79,0,0,1-.51-.93A4.89,4.89,0,0,1,420.88,701.92Zm.72,0a4.26,4.26,0,0,0,.18.89,2.47,2.47,0,0,0,.35.75,1.74,1.74,0,0,0,.54.51,1.41,1.41,0,0,0,.74.2,1.28,1.28,0,0,0,1.14-.58,2.76,2.76,0,0,0,.28-1.77,5.3,5.3,0,0,0-.17-.9,2.68,2.68,0,0,0-.36-.74,1.7,1.7,0,0,0-.55-.52,1.44,1.44,0,0,0-.75-.19,1.25,1.25,0,0,0-1.12.57A2.79,2.79,0,0,0,421.6,701.92Z" transform="translate(21.34 29.51)"/><path class="cls-22" d="M426.6,699.06h.68l.5,5.71h-.68Z" transform="translate(21.34 29.51)"/><path class="cls-22" d="M430,701l-.51-.83h0l.15.83.32,3.73h-.63l-.51-5.8h.36l3.06,3.81.5.78h0l-.16-.78-.32-3.72h.63l.51,5.8h-.36Z" transform="translate(21.34 29.51)"/><path class="cls-22" d="M437.68,701l-.51-.83h0l.15.83.33,3.73H437l-.5-5.8h.35l3.07,3.81.49.78h0l-.16-.78-.32-3.72h.63l.51,5.8h-.36Z" transform="translate(21.34 29.51)"/><path class="cls-22" d="M442,701.92a3.32,3.32,0,0,1,.41-2.19,1.89,1.89,0,0,1,1.66-.76,2.54,2.54,0,0,1,1.06.21,2.1,2.1,0,0,1,.78.6,2.6,2.6,0,0,1,.51.93,4.8,4.8,0,0,1,.25,1.21,3.27,3.27,0,0,1-.42,2.19,1.91,1.91,0,0,1-1.67.76,2.52,2.52,0,0,1-1.05-.21,2.39,2.39,0,0,1-.77-.6,2.79,2.79,0,0,1-.51-.93A4.89,4.89,0,0,1,442,701.92Zm.72,0a5,5,0,0,0,.17.89,2.75,2.75,0,0,0,.36.75,1.74,1.74,0,0,0,.54.51,1.41,1.41,0,0,0,.74.2,1.28,1.28,0,0,0,1.14-.58,2.76,2.76,0,0,0,.28-1.77,5.3,5.3,0,0,0-.17-.9,2.68,2.68,0,0,0-.36-.74,1.81,1.81,0,0,0-.55-.52,1.44,1.44,0,0,0-.75-.19,1.28,1.28,0,0,0-1.13.57A2.87,2.87,0,0,0,442.7,701.92Z" transform="translate(21.34 29.51)"/><path class="cls-22" d="M448.83,702.89l.22.94h0l.05-1,.84-3.81h.33l1.51,3.83.23.94h0l.06-1,.63-3.81h.66l-1.09,5.8h-.37L450.43,701l-.23-.87h0l-.07.87-.82,3.82h-.38l-2.13-5.8h.71Z" transform="translate(21.34 29.51)"/><path class="cls-22" d="M462.45,710.64h-52L409,694h52Zm-51.34-.7h50.58l-1.33-15.27H409.78Z" transform="translate(21.34 29.51)"/><polygon class="cls-31" points="549.89 805.54 546.31 764.53 463.46 764.53 467.04 805.54 549.89 805.54"/><path class="cls-27" d="M479.72,825.87a30.94,30.94,0,0,0,30.39,28.42,26.15,26.15,0,0,0,26.43-28.42,30.94,30.94,0,0,0-30.39-28.41A26.14,26.14,0,0,0,479.72,825.87Z" transform="translate(21.34 29.51)"/><path class="cls-28" d="M490,829.07l-1.59,1a21,21,0,0,0,1.36,3.75l1.91-.12a2.92,2.92,0,0,1,2.82,4.1l-.83,1.68a22.93,22.93,0,0,0,3,2.65l1.55-1.07a2.9,2.9,0,0,1,4.41,2.24l.15,1.92a19.3,19.3,0,0,0,1.92.52c.64.13,1.3.25,1.94.33l.78-1.7a2.76,2.76,0,0,1,4.83-.2l1.07,1.63a20.21,20.21,0,0,0,3.68-1.17l-.22-1.92a2.66,2.66,0,0,1,4-2.6l1.71.91a17.87,17.87,0,0,0,2.5-2.87l-1.13-1.6a2.67,2.67,0,0,1,2-4.3l1.92,0a18.78,18.78,0,0,0,.41-1.9c.11-.63.19-1.29.24-1.92l-1.75-.87a2.79,2.79,0,0,1-.47-4.83l1.59-1a21.1,21.1,0,0,0-1.38-3.75l-1.9.12a2.91,2.91,0,0,1-2.8-4.08l.82-1.68a21.55,21.55,0,0,0-3-2.66L518,810.69a2.9,2.9,0,0,1-4.42-2.23l-.14-1.92c-.64-.2-1.26-.38-1.92-.52a18.64,18.64,0,0,0-2-.33l-.76,1.7a2.76,2.76,0,0,1-4.82.22L502.9,806a19.52,19.52,0,0,0-3.68,1.19l.22,1.9a2.66,2.66,0,0,1-4,2.6l-1.71-.92a20.08,20.08,0,0,0-2.52,2.87l1.15,1.61a2.67,2.67,0,0,1-2,4.3l-1.92,0c-.16.63-.31,1.25-.41,1.9a17.42,17.42,0,0,0-.24,1.94l1.75.85A2.79,2.79,0,0,1,490,829.07Zm18.52-12.33-1.12,6.53a2.19,2.19,0,0,0-.7.26L501,819.81a1.17,1.17,0,0,1-.21-1.83,9.94,9.94,0,0,1,6.59-2.63A1.21,1.21,0,0,1,508.55,816.74Zm1.17,9a1.52,1.52,0,0,1-1.4,1.73,1.75,1.75,0,0,1-1.8-1.49,1.52,1.52,0,0,1,1.4-1.72A1.69,1.69,0,0,1,509.72,825.76Zm8.39-2.81-8,1.21-.25-.26c-.06-.06-.14-.1-.21-.16l1.13-6.51a1.09,1.09,0,0,1,1.58-.79A11.4,11.4,0,0,1,518.11,823Zm-7.69,4.44a2.76,2.76,0,0,0,.38-1l6.5-1a1.22,1.22,0,0,1,1.39,1.21,11.35,11.35,0,0,1-.15,1.62,9.85,9.85,0,0,1-3,5.6,1.17,1.17,0,0,1-1.8-.35Zm-8.58,4.91,4.91-4.2a2.75,2.75,0,0,0,1.79.44l3.26,6a1.1,1.1,0,0,1-.67,1.62,10.36,10.36,0,0,1-4.77,0,11.13,11.13,0,0,1-4.42-2.08A1.14,1.14,0,0,1,501.84,832.3Zm-4.12-8.71c.1-.5.21-1,.34-1.43a1.12,1.12,0,0,1,1.7-.53l5.72,3.68a3,3,0,0,0,0,.85l-5,4.3a1.19,1.19,0,0,1-1.81-.46A10.72,10.72,0,0,1,497.72,823.59Z" transform="translate(21.34 29.51)"/><path class="cls-22" d="M507.92,824.28a1.69,1.69,0,0,1,1.8,1.48,1.52,1.52,0,0,1-1.4,1.73,1.75,1.75,0,0,1-1.8-1.49A1.52,1.52,0,0,1,507.92,824.28Z" transform="translate(21.34 29.51)"/><path class="cls-22" d="M494.76,826.89a14.36,14.36,0,0,0,15.08,12.41,12.66,12.66,0,0,0,11.65-14.43,14.33,14.33,0,0,0-15.07-12.41A12.67,12.67,0,0,0,494.76,826.89Zm11.89-12.61a12.4,12.4,0,0,1,13,10.72,11,11,0,0,1-10.07,12.48,12.42,12.42,0,0,1-13-10.73A11,11,0,0,1,506.65,814.28Z" transform="translate(21.34 29.51)"/><path class="cls-32" d="M664.31,827.87c0,2.6,1.17,128.3,1.17,128.3-3,2.83-8.09,2.65-8.19,2.4,0,0-20.31-127.08-20.28-133.07C640.6,827.89,662.32,830.12,664.31,827.87Z" transform="translate(21.34 29.51)"/><path class="cls-28" d="M666.29,951.67a19.79,19.79,0,0,1-8.29,1.14,16.49,16.49,0,0,1-2.66-.3l-.17-1.13s0,0,0-.11c-.17-1.37-.5-3.8-1-7.19,0,0,0-.06,0-.09-.3-2.1-.67-4.59-1.11-7.36a2,2,0,0,1-.06-.45c-1.54-10.11-3.81-24.16-6.72-40.1-.48-2.74-1-5.54-1.57-8.37-.87-4.7-1.82-9.54-2.8-14.42-.48-2.41-1-4.87-1.48-7.31l-.93-4.42c-.87-4.06-1.68-8-2.46-11.79-.62-3-1.21-6-1.79-8.9-.48-2.55-.95-5-1.43-7.42-.42-2.16-.81-4.26-1.18-6.27,0-.06,0-.11,0-.17-.76-4-1.43-7.81-2-11.4-.14-.92-.31-1.82-.45-2.71-.3-1.77-.59-3.47-.86-5.16q-1.19-7.47-2-13.52c-.81-6.05-1.32-11-1.6-14.78-.14-2-.53-7.87-.53-7.87,11.62-1.51,41.16-7.7,44.21-8.49C668.92,826.14,666.29,951.67,666.29,951.67Z" transform="translate(21.34 29.51)"/><path class="cls-29" d="M666.29,951.67a10.68,10.68,0,0,1-1.76.58c-.91-10.92-4-21.86-7.08-33.62a22.67,22.67,0,0,0-1.33-3.7c-.09-6.34-.1-12.68.11-19,.29-8.5,2.58-15,4.52-23.11,3.54-14.82.3-29.63-4.18-43.9a83.33,83.33,0,0,0-3-8.35c-2-12.06-8.15-22.1-17.86-30.12-3.15-2.61-6.45-5-9.76-7.41-.12-1.28-.23-2.5-.31-3.59-.14-2-.53-7.87-.53-7.87,11.62-1.51,41.16-7.7,44.21-8.49C668.92,826.14,666.29,951.67,666.29,951.67Z" transform="translate(21.34 29.51)"/><path class="cls-33" d="M665.48,953.91s1.81,2,3,3.7,2,2.37.79,5.34c-.73,1.85-7.48,1.56-9.6,1.56-5.58,0-3.13-6.86-3.13-10.6Z" transform="translate(21.34 29.51)"/><path class="cls-34" d="M667.86,956.72c3.81,4.06,7.28,4.13,7.51,5.76a1.81,1.81,0,0,1-1.28,2H659.8S664.06,952.66,667.86,956.72Z" transform="translate(21.34 29.51)"/><path class="cls-35" d="M621.86,628.57c.4-1.67,19.73,2.35,22.64,4.24,6.71,4.35-5.94,45.17-12.92,58.85-2.65,5.19-16.31,9.61-13.4-8.47C620.56,668.44,619.67,637.81,621.86,628.57Z" transform="translate(21.34 29.51)"/><path class="cls-15" d="M648.84,635.16c1.33,5.18-.06,20.62-5.39,37.1-8.91.82-20.06-1.93-25.92-5.35,2.18-14.44.64-32.74,4.33-38.34C626.63,621.34,645.41,621.87,648.84,635.16Z" transform="translate(21.34 29.51)"/><path class="cls-35" d="M609.45,624.93c1.21.4.51,1.21.09,2.05a17.63,17.63,0,0,0-1.31,5c-.11-1.93-1.28-1.68-1.69-3.68C606.61,627.51,608.71,624.6,609.45,624.93Z" transform="translate(21.34 29.51)"/><path class="cls-35" d="M598.69,617.53c.27.12.25-2.85,1.41-2.63a1.4,1.4,0,0,1,1.2-1,4.64,4.64,0,0,1,2.44,1.25c.53.69,1.18,3.4,1.57,4.43.12.36,1.75,5.52,2.22,7.89a43.53,43.53,0,0,1,.83,6c0,.11-6.05,2.78-8.13,3.07-.74-3.33-2.18-13.85-2.25-14.09C596.59,618.42,597.58,617.05,598.69,617.53Z" transform="translate(21.34 29.51)"/><path class="cls-35" d="M631.51,687.26a6.46,6.46,0,0,1,.27,1.93c0,3.22-2,7.66-8.53,7-7.08-.73-20-43.46-23.27-61a34.21,34.21,0,0,0,8.33-2.36C610.06,643.52,628.28,677.51,631.51,687.26Z" transform="translate(21.34 29.51)"/><path class="cls-32" d="M591,827.87c2,2.25,23.71,0,27.3-2.37,0,6-20.28,133.07-20.28,133.07-.11.25-5.19.43-8.19-2.4C589.81,956.17,591,830.47,591,827.87Z" transform="translate(21.34 29.51)"/><path class="cls-28" d="M629.69,779.44c-.29,3.8-.79,8.73-1.6,14.78q-.8,6-2,13.52c-.28,1.69-.56,3.39-.87,5.16-.14.89-.3,1.79-.44,2.71-.62,3.59-1.29,7.4-2,11.4,0,.06,0,.11,0,.17-.36,2-.75,4.11-1.17,6.27-.48,2.41-.95,4.87-1.43,7.42-.59,2.88-1.18,5.85-1.79,8.9-.79,3.78-1.6,7.73-2.47,11.79-.3,1.48-.61,2.94-.92,4.42-.5,2.44-1,4.9-1.48,7.31-1,4.88-1.94,9.72-2.8,14.42-.56,2.83-1.1,5.63-1.57,8.37-2.92,15.94-5.18,30-6.72,40.1a2,2,0,0,1-.06.45c-.45,2.77-.81,5.26-1.12,7.36,0,0,0,.06,0,.09-.53,3.39-.87,5.82-1,7.19,0,.06,0,.09,0,.11-.12.73-.17,1.13-.17,1.13a16.49,16.49,0,0,1-2.66.3,19.74,19.74,0,0,1-8.29-1.14s-2.63-125.53-3-188.59c3.06.79,32.6,7,44.22,8.49C630.22,771.57,629.83,777.45,629.69,779.44Z" transform="translate(21.34 29.51)"/><path class="cls-29" d="M598.66,915.74c1.54-8.37,9.77-21.78,9-30.41-.78-8.23,2.52-32.7,2.41-41-.17-14.61,10.5-45.41,18.06-50.12q-.8,6-2,13.52c-.28,1.66-.56,3.39-.87,5.16-.14.89-.3,1.79-.44,2.71-.62,3.59-1.32,7.4-2,11.4,0,.06,0,.11,0,.17-.36,2-.75,4.11-1.17,6.27-.48,2.41-.95,4.87-1.43,7.42-.59,2.88-1.18,5.85-1.79,8.9-.79,3.78-1.6,7.73-2.47,11.79-.3,1.48-.61,2.94-.92,4.42-.5,2.44-1,4.9-1.48,7.31-1,4.88-1.94,9.72-2.8,14.42-.54,2.83-1.07,5.63-1.57,8.37-2.83,15.57-9.13,56.43-9.13,56.43a16.49,16.49,0,0,1-2.66.3C600.23,939.71,596.09,929.71,598.66,915.74Z" transform="translate(21.34 29.51)"/><path class="cls-29" d="M669.26,766.5A14.76,14.76,0,0,0,656,774.87a111.49,111.49,0,0,0-9.54-7c10.72-2.09,21-4.29,22.78-4.72C669.27,764.2,669.26,765.36,669.26,766.5Z" transform="translate(21.34 29.51)"/><path class="cls-33" d="M589.81,953.91h8.93c0,3.74,2.45,10.6-3.13,10.6-2.12,0-8.88.29-9.6-1.56-1.17-3-.44-3.59.79-5.34S589.81,953.91,589.81,953.91Z" transform="translate(21.34 29.51)"/><path class="cls-32" d="M624.13,598.74c-.68,4.66,1.38,19.67,3,22.11-3.87,8.56-18.17,6.76-19.13,1.71,2.24-5.43-.52-15.84-.55-16.8C610.89,606.29,623,599.59,624.13,598.74Z" transform="translate(21.34 29.51)"/><path class="cls-35" d="M611.47,582c6.82.46,10.92,6.4,10.45,13.15,0,.07-.48,7-.48,7-.35,5.09-8.75,12.56-13.12,11.32C598,610.51,597.61,591.2,597.58,589,597.47,581.55,605.13,581.53,611.47,582Z" transform="translate(21.34 29.51)"/><path class="cls-15" d="M592.34,625.5c3.42-1.28,30.12-8.54,49.91-4,9.29,2.14,15.68,12.94,16.61,18.32.89,5.12,15.69,98.85,14.42,140-32.47,8.2-91.81-1.45-93.41-1.34-6.78-44.7,1-130.21.8-132.33C579.78,637.41,582.08,629.32,592.34,625.5Z" transform="translate(21.34 29.51)"/><path class="cls-36" d="M629,719.25c-16-8.46-10.74-35-12.91-50-2.78-19.25-.14-31.55-11.78-46.76,10.41-2,25.54-3.85,38-1,9.29,2.14,15.68,12.94,16.61,18.32.89,5.12,15.69,98.85,14.42,140-16.68,4.21-40.44,3.71-59.83,2.24a98.54,98.54,0,0,0,25.84-17C656.87,748.93,648.29,729.46,629,719.25Z" transform="translate(21.34 29.51)"/><path class="cls-35" d="M503.44,697.06a17.18,17.18,0,0,0,4.8,2c-1.93-.14-1.84,1.05-3.88,1.19-.79-.19-3.39-2.65-3-3.35C502,695.73,502.66,696.53,503.44,697.06Z" transform="translate(21.34 29.51)"/><path class="cls-35" d="M491,701.22c.76-.44,3.53-.71,4.6-1,.38-.07,5.71-1,8.12-1.14a43.22,43.22,0,0,1,6,0c.11,0,1.94,6.37,1.94,8.47-3.39.28-14,.28-14.26.33-4.16.83-5.39-.34-4.77-1.37.15-.25-2.78-.64-2.41-1.76a1.38,1.38,0,0,1-.8-1.32A4.58,4.58,0,0,1,491,701.22Z" transform="translate(21.34 29.51)"/><path class="cls-35" d="M583.35,631.8c.92-1.45,17.92,8.6,20.06,11.32,5,6.29-20.22,40.84-31.24,51.52-4.19,4.05-18.54,3.83-9.94-12.35C569.25,669.11,578.29,639.83,583.35,631.8Z" transform="translate(21.34 29.51)"/><path class="cls-35" d="M568.08,683.41c3.19.45,7.31,3.06,5.77,9.4-1.68,6.91-45.77,14-63.57,14.83a33.69,33.69,0,0,0-1.21-8.57c10.83-.29,47-13.76,57.06-15.65A6.32,6.32,0,0,1,568.08,683.41Z" transform="translate(21.34 29.51)"/><path class="cls-32" d="M581.84,670.7c5.65-9.08,6.26-19,10.39-28.55a34.31,34.31,0,0,0,1.84-5.58c4.25,2.52,8.36,5.3,9.34,6.55,5,6.29-20.22,40.84-31.24,51.52-3.16,3.06-12.08,3.67-12.6-3.14,1.12-.66,2.24-1.35,3.36-2.09C570.46,684.39,577.06,678.39,581.84,670.7Z" transform="translate(21.34 29.51)"/><path class="cls-32" d="M570.12,684c2.61,1.12,5,3.77,3.73,8.8-1.33,5.46-29.09,11-49.48,13.53,13-5.9,26.06-8.6,38.56-16.93A78.86,78.86,0,0,0,570.12,684Z" transform="translate(21.34 29.51)"/><path class="cls-15" d="M583.35,631.8c6.85-5.31,24.46,1.27,23.4,15-.41,5.32-6.71,19.49-17.08,33.36-8.69-2.1-18.36-8.31-22.8-13.44C573.6,653.73,578.06,635.91,583.35,631.8Z" transform="translate(21.34 29.51)"/><path class="cls-36" d="M606.4,642.32a14,14,0,0,1,.35,4.44c-.41,5.32-6.71,19.49-17.08,33.36a43.9,43.9,0,0,1-8.71-3.27c3.49-4.78,6.83-9.68,10.23-14.53C599.7,658.6,604.76,650.86,606.4,642.32Z" transform="translate(21.34 29.51)"/><path class="cls-16" d="M610.9,565.66c5.57,0,5.4-5.87,10.09-7.88,7.32-3.15,17.62-2.71,23.18,3.6,1.53,1.75,2.75,5,4.76,6.13,3.22,1.89,8.4,1.87,10.69,5.53,5.23,8.32-1.17,13.88,3.24,22.43,3,5.71,7.69,6.14,12.21,10.17s6.39,9.77,3.81,15.34c-1.12,2.41-12.14,14.1-.94,18.33,12.14,4.58,14.15,16.65,17.74,23.93,9.17,18.59-4.72,37.84-20.73,44.25-12.83,5.14-23.11,6.06-36,1.4C619.75,702,628.3,678,626,672.35c-1.48-3.68-18.58-10.16-13-29.72.66-2.3-11.65-6.89-2.92-25.79,8.15-17.65-4.6-22.17-13.78-33.09-4.13-4.92.4-8.56,2-12.41S607.29,565.68,610.9,565.66Z" transform="translate(21.34 29.51)"/><path class="cls-30" d="M621,557.78c7.32-3.15,17.62-2.71,23.18,3.6,1.53,1.75,2.75,5,4.76,6.13,3.22,1.89,8.4,1.87,10.69,5.53,5.22,8.32-1.17,13.88,3.24,22.43,3,5.71,7.69,6.14,12.21,10.17s6.39,9.77,3.81,15.34c-1.12,2.41-12.14,14.1-.94,18.33,12.14,4.58,14.15,16.65,17.74,23.93,9.17,18.59-4.72,37.84-20.73,44.25-7.25,2.9-13.68,4.4-20.24,4.37,31.86-4.75,30.23-56.65-4.78-56.65h-.21a10.89,10.89,0,0,0-5.18-5.58,25.23,25.23,0,0,0-.33-15.36,12.71,12.71,0,0,0-9.89-8.71,60.79,60.79,0,0,0,3.32-8.36c3.64-10.35,3.83-21.58-6.52-28a9.8,9.8,0,0,0-1.73-.83,13.12,13.12,0,0,0,1.69-2.06c3.83-6,.73-12.92-4.39-16.71-3.45-2.56-7.43-4.2-11.33-6C617.05,561.72,618.09,559,621,557.78Z" transform="translate(21.34 29.51)"/><path class="cls-30" d="M628.21,665.48A27.3,27.3,0,0,0,625,671c-1.9-1.9-5.84-4.51-8.91-8.63A18.26,18.26,0,0,0,628.21,665.48Z" transform="translate(21.34 29.51)"/><path class="cls-30" d="M607.06,627.86c2,4.15,4.54,9.49,13.44,12.25a11.78,11.78,0,0,0-8,5.12c.17-.85.33-1.7.59-2.6C613.57,640.87,606.48,637.73,607.06,627.86Z" transform="translate(21.34 29.51)"/><path class="cls-30" d="M615.23,606.93c-.35,1.27-.71,2.53-1.15,3.78l-.2.67a13.58,13.58,0,0,0-2.07,1c2.84-9.63-1.57-14.85-7.32-20.39a26.41,26.41,0,0,0,9.12,3.24A12.33,12.33,0,0,0,615.23,606.93Z" transform="translate(21.34 29.51)"/><path class="cls-34" d="M587.42,956.72c3.81-4.06,8.07,7.81,8.07,7.81H581.2a1.81,1.81,0,0,1-1.29-2C580.15,960.85,583.62,960.78,587.42,956.72Z" transform="translate(21.34 29.51)"/></g></g></svg>