<svg xmlns="http://www.w3.org/2000/svg" viewBox="0 0 1120 1105.04"><defs><style>.cls-1{isolation:isolate;}.cls-2{fill:#fffaf8;}.cls-3{fill:#c9eefa;}.cls-4{fill:#ff6e53;}.cls-5{fill:#ededed;}.cls-6{fill:#42292c;}.cls-7{fill:#d4902b;}.cls-8{fill:#e6a749;}.cls-9{fill:#f4bb61;}.cls-10{fill:#ff9480;}.cls-11{fill:#b42f69;}.cls-12{fill:#ee5f3e;}.cls-13,.cls-14{fill:#063d71;}.cls-13,.cls-20,.cls-21,.cls-22,.cls-23{fill-rule:evenodd;}.cls-15,.cls-23{fill:#021324;}.cls-16{fill:#ffc9b6;}.cls-17{fill:#fdaa8c;}.cls-18{fill:#6477ff;}.cls-19{fill:#4155e5;}.cls-20,.cls-27{fill:#054c90;}.cls-21{fill:#04356e;}.cls-22,.cls-34{fill:#001630;}.cls-24{fill:#fff;}.cls-25,.cls-26{fill:#bec4e8;}.cls-26{opacity:0.7;}.cls-26,.cls-38{mix-blend-mode:multiply;}.cls-28{fill:#e1e3f2;}.cls-29{fill:#fe5d89;}.cls-30{fill:#1f366d;}.cls-31{opacity:0.4;}.cls-32{fill:#91184d;}.cls-33{fill:#2eb4f3;}.cls-35{opacity:0.36;}.cls-36{fill:#d9e2ff;}.cls-37{fill:#0f94d2;}.cls-38{fill:#0178b0;opacity:0.2;}.cls-39{fill:#65cdfe;}</style></defs><title>lp-web-ui</title><g class="cls-1"><g id="Layer_1" data-name="Layer 1"><path class="cls-2" d="M320.45,146.66c-26.94-32.5,5.6-75-33.16-96.66-36.41-20.32-99.41,33.55-133.84,26.53-31.1-6.35-27-77.94-56.68-88.41C54-27,17.67-1-20-25V231c46.45,20.36,90.82-46.77,193-11.55,11.88,4.1,44.45,35.3,86.36,33.91,24.11-.8,48.25-22.84,58.42-33.48,8.67-9.08,91.64,13.37,91.64-13.46C409.4,184.92,335.25,164.51,320.45,146.66Z" transform="translate(20 25.04)"/><path class="cls-2" d="M798.08,166.26c23.9-32.5-5-75,29.41-96.66,32.29-20.32,88.16,33.55,118.69,26.53,27.58-6.35,24-77.94,50.27-88.41C1034.36-7.38,1066.6,18.58,1100-5.44v256c-41.19,20.36-80.54-46.77-171.13-11.55-10.54,4.1-39.43,35.3-76.59,33.91-21.38-.8-42.79-22.84-51.81-33.48-7.69-9.08-81.27,13.37-81.27-13.46C719.2,204.52,785,184.11,798.08,166.26Z" transform="translate(20 25.04)"/><path class="cls-2" d="M829.26-20.41A16.07,16.07,0,0,0,813.18-4.34a16.08,16.08,0,0,0,16.08,16.08A16.08,16.08,0,0,0,845.34-4.34,16.07,16.07,0,0,0,829.26-20.41Z" transform="translate(20 25.04)"/><path class="cls-2" d="M770.69,313.48a16.08,16.08,0,1,0-12.47,29.64c8.19,3.45,25.42,3.59,28.86-4.6S778.88,316.92,770.69,313.48Z" transform="translate(20 25.04)"/><path class="cls-3" d="M1033.49,634.75c-21.85,0-30.52-41.65-36.78-41.65-17,0-36.16,25.84-48.79,37.22s-26,80.28-45.66,80.28c-13.52,0-5.49-32.39-37.88-53.33-5.32-3.45-15-34.43-20.27-38-5.47-3.74-32.54-17.77-36.76-22.88-15.14-18.34-31.29-76.65-55.07-76.65-13.89,0-67.61,90-69.69,90.25-2.65.35-19.39,26.57-31.08,29.73-7.2,1.95-38.63,14.3-46.06,14.95-27,2.33-45.28,73.1-65.92,81.7V864c6.3,4.75,274.42,16.59,311.49,21.27,42.66,5.39,248.51-13,248.51-13l.11-181.36C1086.42,674.76,1057,634.75,1033.49,634.75ZM729.89,790.62c-9.83,31-37.36,40.42-66.36,28.33-13.43-5.6-25.14-29.38-39.78-31.62-12.91-2-49.28,17-62,18.52-21.92,2.63,50.37-56.4,70.45-46.28,13.05,6.57,28.78,16.06,43.33,15.75,15-.31,27.79-11.42,42.43-5.81C726.3,772.73,732.89,781.16,729.89,790.62Zm106.66-57.41c-14-1.27-25.06-11.12-38.92-7.93C781.34,729,718.8,709.82,740.52,706c18.07-3.14,34.66-11.51,52.66-14.84,6.72-1.24,54-40.21,54,4.32,0,5.11-12.94,8-9.22,11.4C872.07,738.51,849.14,734.36,836.55,733.21ZM1069,719.88c-7-4.63-15.42-5.48-22.9-9.16a58.9,58.9,0,0,1-16.83-13.08c-12.82-3.69-26.77-.38-39.21-5.36-13.3-5.32,20.8-7,25.72-14,4.71-6.7-14.13-10-12.77-18.14,1.75-10.53-7.23-19.61-2.8-22.41,5.91-3.75,24.15,2.67,24.15,14,0,12.84,10.43,22.59,19.39,32C1053.94,694.5,1079.82,727,1069,719.88Z" transform="translate(20 25.04)"/><path class="cls-3" d="M474,679.55c-21.85,0-30.52-41.65-36.78-41.65-17,0-36.16,25.84-48.79,37.22s-26.05,80.28-45.66,80.28c-13.52,0-5.49-32.39-37.88-53.33-5.32-3.45-15-34.43-20.27-38-5.47-3.74-32.54-17.77-36.76-22.88-15.14-18.34-31.29-76.65-55.07-76.65-13.89,0-67.61,90-69.69,90.25-2.65.35-19.39,26.57-31.08,29.73-7.2,2-38.63,14.3-46.06,15-27,2.33-45.28,73.1-65.92,81.7V908.78c6.3,4.75,274.42,16.59,311.49,21.27,42.66,5.39,248.51-13,248.51-13l.11-181.36C526.89,719.56,497.42,679.55,474,679.55ZM170.36,835.42c-9.83,31-37.36,40.42-66.36,28.33-13.43-5.6-25.14-29.38-39.78-31.62-12.91-2-49.28,17-62,18.52-21.92,2.63,50.37-56.4,70.45-46.28,13,6.57,28.78,16.06,43.33,15.75,15-.31,27.79-11.42,42.43-5.81C166.77,817.53,173.36,826,170.36,835.42ZM277,778c-14-1.27-25.06-11.12-38.92-7.93-16.29,3.74-78.83-15.46-57.11-19.24,18.07-3.14,34.66-11.51,52.66-14.84,6.72-1.24,54-40.21,54,4.32,0,5.11-12.94,7.95-9.22,11.4C312.54,783.31,289.61,779.16,277,778Zm232.47-13.33c-7-4.63-15.42-5.48-22.9-9.16a58.9,58.9,0,0,1-16.83-13.08c-12.82-3.69-26.77-.38-39.21-5.36-13.3-5.32,20.8-7,25.72-14,4.71-6.7-14.13-9.95-12.77-18.14,1.75-10.53-7.23-19.61-2.8-22.41,5.91-3.75,24.15,2.67,24.15,14,0,12.84,10.43,22.59,19.39,32.05C494.41,739.3,520.29,771.82,509.49,764.68Z" transform="translate(20 25.04)"/><circle class="cls-4" cx="992.55" cy="548.5" r="25.16" transform="translate(-77.14 887.53) rotate(-45)"/><path class="cls-5" d="M882.69,544.57c6.84.63,12.7-4.49,19.08-7,15-5.95,27.52,4.1,43.41,1.61,1.91-.3,8.23-1.73,10.16-1.93,11.87-1.2,22.33,8.12,31.63,9.12a4.39,4.39,0,0,1,3,1.14c1,1.16.36,3-.83,3.93a8.05,8.05,0,0,1-4.26,1.23c-29.78,2.58-59.42.86-90.08.86-8,0-15.89,1-22.63-3.15C871.25,549.74,868.19,543.22,882.69,544.57Z" transform="translate(20 25.04)"/><path class="cls-5" d="M592.75,566.21c6.7.63,12.43-4.39,18.68-6.88,14.62-5.83,26.93,4,42.48,1.57,1.87-.29,8.06-1.7,9.94-1.88,11.63-1.18,21.86,7.94,31,8.92a4.27,4.27,0,0,1,3,1.11c.93,1.14.35,3-.81,3.85a7.89,7.89,0,0,1-4.17,1.2c-29.14,2.52-58.15.85-88.17.85-7.77,0-15.55,1-22.15-3.09C581.56,571.27,578.56,564.9,592.75,566.21Z" transform="translate(20 25.04)"/><path class="cls-5" d="M392.69,399c6.84.63,12.7-4.49,19.08-7,15-5.95,27.52,4.1,43.41,1.61,1.91-.3,8.23-1.73,10.16-1.93,11.87-1.2,22.33,8.12,31.63,9.12a4.39,4.39,0,0,1,3,1.14c1,1.16.36,3-.83,3.93a8.05,8.05,0,0,1-4.26,1.23c-29.78,2.58-59.42.86-90.08.86-8,0-15.89,1-22.63-3.15C381.25,404.14,378.19,397.62,392.69,399Z" transform="translate(20 25.04)"/><path class="cls-5" d="M102.75,420.61c6.7.63,12.43-4.39,18.68-6.88,14.62-5.83,26.93,4,42.48,1.57,1.87-.29,8.06-1.7,9.94-1.88,11.63-1.18,21.86,7.94,31,8.92a4.27,4.27,0,0,1,3,1.11c.93,1.14.35,3-.81,3.85a7.89,7.89,0,0,1-4.17,1.2c-29.14,2.52-58.15.85-88.17.85-7.77,0-15.55,1-22.15-3.09C91.56,425.67,88.56,419.3,102.75,420.61Z" transform="translate(20 25.04)"/><path class="cls-3" d="M752.19,1058c-25.9-1.4-48.3-14.26-70-13.43s-44.1,29.53-64.4,22.53c0,0,28,14.7,75.6,7.7s54.6,12.18,95.2,1.89,69.3-14.53,69.3-14.53-28.82-3.81-38.5-4.16C802.6,1057.35,778.09,1059.37,752.19,1058Z" transform="translate(20 25.04)"/><path class="cls-3" d="M539.64,1015.15c20.72,1.46,41.87-3.36,62.56-5,43.31-3.44,49,15.48,124.6,14.62,26-.29,75-8.07,92.73-4.74,31.31,5.88,32.15,16.35,62.67,16.35,44.38,0,18.2-17.8,86.41-17.8,26,0,69,11.37,131,1.06V973.57h-560Z" transform="translate(20 25.04)"/><path class="cls-3" d="M327.45,1058.21c25.9-1.4,48.3-14.26,70-13.43s44.1,29.53,64.4,22.53c0,0-28,14.7-75.6,7.7s-54.6,12.17-95.2,1.89-69.3-14.53-69.3-14.53,28.83-3.81,38.5-4.16C277,1057.59,301.55,1059.61,327.45,1058.21Z" transform="translate(20 25.04)"/><path class="cls-3" d="M540,1015.39c-20.72,1.46-41.86-3.36-62.55-5-43.32-3.45-49,15.48-124.6,14.61-26-.28-75-8.06-92.74-4.73-31.3,5.88-32.14,16.35-62.66,16.35-44.38,0-18.2-17.81-86.41-17.81-26,0-69,11.37-131,1.07V973.81H540Z" transform="translate(20 25.04)"/><path class="cls-2" d="M897.22,380.17a20.14,20.14,0,1,0,20.14,20.14A20.14,20.14,0,0,0,897.22,380.17Z" transform="translate(20 25.04)"/><path class="cls-4" d="M427.6,630.49c5.36-18.8,8.6-78.5,17-60.77C480.32,644.65,506.7,638.85,503,681.1c-7.39,84.84,13.06,159.39-58.93,159.39-51.26,0-29.15-40.68-39.92-85.58-8.81-36.74,15.71-41,18.87-64.12C425.49,672.9,422.25,649.3,427.6,630.49Z" transform="translate(20 25.04)"/><path class="cls-6" d="M440.89,846.19c.42-3.35.72-6.71,1.24-10.05l1.77-10,1.79-9.77c.59-3.26.94-6.58,1.43-9.88a306.23,306.23,0,0,0,2.51-40c0-13.37-1-26.73-1.71-40.07s-1-26.69-1.4-40.06-.7-26.73-.66-40.15l.56,0c2.11,13.26,3.43,26.61,4.47,40,.49,6.68.93,13.37,1.21,20.06s.5,13.4.51,20.1-.25,13.42-.43,20.12l-.73,20.09c-.35,13.39-.56,26.79-1.26,40.22-.24,3.36-.34,6.72-.69,10.08L448.35,827l-1.28,9.85-1,9.9c-1.11,13.22-1.85,26.51-1.83,39.83s.9,26.65,2.18,39.91,3,26.55,5.52,39.51l-11.55,1.4c-1.05-27.15-1.64-53.91-1.28-80.83C439.21,873.09,439.45,859.61,440.89,846.19Z" transform="translate(20 25.04)"/><path class="cls-6" d="M464.72,760.79c2.11-2.45,4.54-4.9,5.9-8a24.58,24.58,0,0,0,1.69-4.72,41.19,41.19,0,0,0,.74-5,65.38,65.38,0,0,1,1.43-10.24,76.31,76.31,0,0,1,2.7-10c2.44-6.45,5.54-12.75,10.15-18l.4.24c-1.92,6.62-3.87,13-5.84,19.4L478.73,734c-1,3.2-2.05,6.39-3.18,9.61-.61,1.64-1.17,3.29-1.73,4.92s-1.11,3.27-1.81,4.85a53.09,53.09,0,0,1-4.18,9.69,27,27,0,0,1-7.42,7.6,23.41,23.41,0,0,1-9.67,4.2l-.17-.44A90.54,90.54,0,0,0,464.72,760.79Z" transform="translate(20 25.04)"/><path class="cls-4" d="M413.56,622.73c7.61-1.42-3.47,13.58-2.52,24.69s2.16,18.57-6.38,17.47-8.51-5.13-8.51-11.26C396.15,635.71,409.92,623.4,413.56,622.73Z" transform="translate(20 25.04)"/><path class="cls-4" d="M420.78,609.54a4.54,4.54,0,1,1-4.54,4.53A4.53,4.53,0,0,1,420.78,609.54Z" transform="translate(20 25.04)"/><path class="cls-7" d="M815.58,864.75c-.11-.27-.22-.54-.32-.81-2.22-5.79-2.45-11.15-2.39-17-8.85-21-32.24-50.82-57.26-50.82-56.79,0-37.88,55.17-96.06,55.17h-244a31,31,0,0,0-26.37,15.23l-.11.17c-18.39,28,1.68,23-58.38,55.37C316,930,311.5,952.78,294.5,973.64H816.16V869.82C815.91,868.14,815.72,866.45,815.58,864.75Z" transform="translate(20 25.04)"/><path class="cls-8" d="M815.61,973.64C813.76,945.5,802.69,844.05,757,820.52c-26.22-13.51-29.87,60.65-66.27,55.27-76.11-11.25-32.9,88.9-78.67,48.27-50.89-45.18-96.7-41-119.9-12.62-5.43,8.9-45.57-25.29-73.86,12-20,26.33-16.17-4.82-53.88,18.17-24.45,14.89-48.26,23-67,32Z" transform="translate(20 25.04)"/><path class="cls-9" d="M814.15,973.64c-5.55-29-25.13-129.37-64.37-91.31-23,22.32-.93,36.4-48.43,44.45-32.88,5.58-45.84,46.86-91.09,17.36-7.61-4.95-17.86-24.3-28.48-27.16-26.11-8.26-55,.13-81,8.35-11.81,5.6-20.43-14.72-27.16-10.55-22.78,19.44-75.54,48.58-109.2,58.86Z" transform="translate(20 25.04)"/><path class="cls-7" d="M754.56,786.14c7.93,2.74,16.34,3.07,13.38-.81-3.42-4.47-14.15-13.83-25.47-11.79s-12.5,11-7.56,13.3C739.27,788.84,747.15,783.58,754.56,786.14Z" transform="translate(20 25.04)"/><path class="cls-7" d="M783.74,794.38a5.07,5.07,0,1,0-6.2-3.6A5.06,5.06,0,0,0,783.74,794.38Z" transform="translate(20 25.04)"/><path class="cls-10" d="M507.23,928.07c.33.43.65.86.95,1.28-19.26-3-27.25-11-30.19-18.9l10.82.91-12.22-7a30.43,30.43,0,0,1,1.62-12.83C491,901.1,505.91,926.36,507.23,928.07Z" transform="translate(20 25.04)"/><path class="cls-6" d="M516.42,973.64c.21-12.11.33-19.64.41-24.31l-1.08-.35c-.14,8.32-.36,21.17-.42,24.66Z" transform="translate(20 25.04)"/><path class="cls-4" d="M478.21,891.53c27.71,4.25,30.1,31.37,30.15,36.88C508.18,928.15,483,896.31,478.21,891.53Z" transform="translate(20 25.04)"/><path class="cls-6" d="M480.93,893.84c3.09,2.18,27.25,34.31,27.43,34.57a32,32,0,0,1,5.93,11.89l-.57.73a30.21,30.21,0,0,0-5.54-11.68C507.88,928.93,480.88,893.81,480.93,893.84Z" transform="translate(20 25.04)"/><path class="cls-6" d="M568.76,915.36c-1,.4-20.8,7.79-22.48,8.61l.09-7.18a.56.56,0,0,0-.54-.56.57.57,0,0,0-.55.54l-.1,7.73c-3.12,1.55-6.31,3.2-9.66,5a.53.53,0,0,0-.38.2L532.67,931c-2.73,1.49-5.44,3-8.13,4.56l-.49-7.49a.54.54,0,1,0-1.08.07l.52,8q-4.69,2.71-9.25,5.49l-.89.54a76.74,76.74,0,0,0-10.66,7.38,69.17,69.17,0,0,1,6-10.77l.81-1.17C518.69,924.49,538.15,906.83,568.76,915.36Z" transform="translate(20 25.04)"/><path class="cls-6" d="M515.48,942.22,529.71,947l.21,0a.55.55,0,0,0,.48-.37.54.54,0,0,0-.34-.69l-13.36-4.52c5.36-3.24,18.09-10.35,18.88-10.77l11.32,8a.57.57,0,0,0,.35.1.54.54,0,0,0,.41-.23.54.54,0,0,0-.13-.76l-10.88-7.71c3.22-1.72,6.29-3.31,9.31-4.8q2.82-1.4,5.54-2.58l10.38,4a.58.58,0,0,0,.23,0,.54.54,0,0,0,.16-1l-9.35-3.62c4.49-1.93,14.8-6.33,15.84-6.77A47.76,47.76,0,0,1,563,934.93L551,931.64l6.24,11C549,950.9,535,956.72,511.13,952l-1.1-.22q-3.09-.66-6.39-1.54C506.73,947.54,515.26,942.35,515.48,942.22Z" transform="translate(20 25.04)"/><path class="cls-11" d="M562.27,925.75l-9.35-3.62c4.49-1.93,16-6.5,15.84-6.77S548,923.15,546.28,924l.09-7.18a.56.56,0,0,0-.54-.56.57.57,0,0,0-.55.54l-.1,7.73c-3.12,1.55-6.31,3.2-9.66,5a.55.55,0,0,0-.38.2L532.67,931c-2.73,1.49-5.44,3-8.13,4.56l-.49-7.49a.54.54,0,1,0-1.08.07l.52,8q-4.69,2.71-9.25,5.49l-.89.54a76.74,76.74,0,0,0-10.66,7.38,21.7,21.7,0,0,0-3.08,3.27c-4,5.47-5.57,11.4-5.06,19.23l.21,1.53h1.1l-.23-1.64c-.48-7.51,1-13.23,4.86-18.47a21,21,0,0,1,3.15-3.31c3.09-2.68,11.62-7.87,11.84-8L529.71,947l.21,0a.55.55,0,0,0,.48-.37.54.54,0,0,0-.34-.69l-13.36-4.52c5.36-3.24,18.09-10.35,18.88-10.78l11.32,8a.57.57,0,0,0,.35.1.54.54,0,0,0,.41-.23.54.54,0,0,0-.13-.76l-10.88-7.71c3.22-1.72,6.29-3.31,9.31-4.8q2.82-1.4,5.54-2.58l10.38,4a.58.58,0,0,0,.23,0,.54.54,0,0,0,.16-1Z" transform="translate(20 25.04)"/><path class="cls-12" d="M774.05,960.88c-24.76-1-40.57-5.26-84.36-5.26-66.38,0-61,8.12-125.22,8.12-33.19,0-117,9.9-117,9.9H816.16V959.83S791.79,961.55,774.05,960.88Z" transform="translate(20 25.04)"/><path class="cls-13" d="M320.51,940.33l103.69-4.49c15.39,0,17.13,14.39,11.14,21.58-19.27,23.16-87.31,18.49-118.71,18.49-20.48,0-30-14.45-21.18-33C299.49,934.34,305.12,940.33,320.51,940.33Z" transform="translate(20 25.04)"/><path class="cls-14" d="M285.62,820.09a13.8,13.8,0,0,0,2.83-.78c4.1-1.82-.49-6.59-1.6-9-2.58-5.58-.84-11.2,3.81-15.34s9.25-4.46,12.2-10.17c4.41-8.54-2-14.11,3.24-22.43,2.3-3.66,7.47-3.64,10.69-5.53,2-1.18,3.23-4.38,4.77-6.13,5.56-6.31,15.86-6.75,23.18-3.6,4.68,2,6.85,8.24,12.42,8.27,3.61,0,8,1,9.34,4.86,1,3-.69,5.75-.58,8.72a12.35,12.35,0,0,0,3.08,7.69c2.87,3.22,7.23,3.78,9.37,7.82a16,16,0,0,1,1.69,6.92,23.52,23.52,0,0,1-2.76,12c-1.85,3.47-4.51,6.42-6,10.1-2.27,5.64,2.07,11.52,2.13,17.24.27,23.43-16.78,40.14-35.95,47-12.93,4.66-34.39,1.41-47.22-3.73-16-6.41-33-22-23.83-40.59C270,826.16,277.79,821.44,285.62,820.09Z" transform="translate(20 25.04)"/><path class="cls-15" d="M285.62,820.09a13.8,13.8,0,0,0,2.83-.78c4.1-1.82-.49-6.59-1.6-9-2.58-5.58-.84-11.2,3.81-15.34s9.25-4.46,12.2-10.17c4.41-8.54-2-14.11,3.24-22.43,2.3-3.66,7.47-3.64,10.69-5.53,2-1.18,3.23-4.38,4.77-6.13,5.56-6.31,15.86-6.75,23.18-3.6,4.68,2,6.85,8.24,12.42,8.27,3.61,0,8,1,9.34,4.86a1.42,1.42,0,0,1,0,.2,24.1,24.1,0,0,0-9.06-2c-9.18-.14-15,3.86-17.78,9.53-7.79-1.24-15.64.72-18.87,4.65-6.06,7.37-7.23,19.28,5.45,28.81a30.17,30.17,0,0,0-9.79,7.14C299.36,811.2,292.25,825.9,302,837c10.81,12.32,20.68,24.28,30.47,36.67a12.37,12.37,0,0,0,5.79,3.79c-.26.09-.51.21-.76.3-12.93,4.66-34.39,1.41-47.22-3.73-16-6.41-33-22-23.83-40.59C270,826.16,277.79,821.44,285.62,820.09Z" transform="translate(20 25.04)"/><path class="cls-16" d="M465.05,859.51c.42-.84,1.08-2.13,1.65-1.22.43.69-.88,5.23-1.46,5.79-1.81.94-4.37.72-3.27-.39A15.92,15.92,0,0,0,465.05,859.51Z" transform="translate(20 25.04)"/><path class="cls-16" d="M474.23,862.13c1.17,0,4-.3,4.95-.18a3.08,3.08,0,0,1,2.52,1.73,1.11,1.11,0,0,1-.21,1.42c.86,1-1.86,2-1.6,2.21,1.07.82.37,2.19-4.08,2.39-.26,0-10.73,2.43-14.19,3a39.08,39.08,0,0,1-1.77-8.3,42.61,42.61,0,0,1,5.91-1.39C468.19,862.54,473.84,862.15,474.23,862.13Z" transform="translate(20 25.04)"/><path class="cls-16" d="M368,824.41c7.43,5.91,25.68,30.53,36.66,40.64,13.48,12.41,0,17.38-5.29,14.94-13.94-6.42-49.13-30.68-46.55-38.25C353.89,838.46,366.6,823.34,368,824.41Z" transform="translate(20 25.04)"/><path class="cls-16" d="M400.4,868.13a6.1,6.1,0,0,1,1.85-.62c10.16-1.46,48.71-.32,59.06-3.53.31,3.51-.48,6.58.31,8.68-17.12,4.93-59.85,12.23-63.66,6.22C394.46,873.38,397.52,869.58,400.4,868.13Z" transform="translate(20 25.04)"/><path class="cls-17" d="M360.4,831.31a165.49,165.49,0,0,0,17.86,18.54c5.86,8.65,14.24,18.3,23.13,21.56a56.85,56.85,0,0,0,8.9,2.37c.75,5.88-7.17,8-11,6.21-13.94-6.42-49.13-30.68-46.55-38.25C353.34,840.08,356.87,835.4,360.4,831.31Z" transform="translate(20 25.04)"/><path class="cls-17" d="M401.39,871.41c10.89,4,26.77,4.61,38.22,3.42,1.69-.17,12.42-.25,16.31-.67-19.41,4.73-54.52,10.14-58,4.72-2.52-4-1.62-7,.15-9A26,26,0,0,0,401.39,871.41Z" transform="translate(20 25.04)"/><path class="cls-18" d="M368,824.41c5.25,4.17,16.47,17.45,27.11,27.44a113.12,113.12,0,0,1-10.28,12.94c-1.36,1.45-5.32,6-6.78,7.31-14.38-9.66-26.95-25.31-25.23-30.36C353.89,838.46,366.6,823.34,368,824.41Z" transform="translate(20 25.04)"/><path class="cls-19" d="M363.63,827.74a14.64,14.64,0,0,0,3.2,11.25c6.29,8.27,13.63,15.31,21.29,22-1.15,1.38-2.29,2.69-3.34,3.81-1.36,1.45-5.32,6-6.78,7.31-14.38-9.66-26.95-25.31-25.23-30.36C353.52,839.56,359.39,832.15,363.63,827.74Z" transform="translate(20 25.04)"/><path class="cls-16" d="M334.9,793.9c1.86,1.21,12.67,7.11,15.86,6.63,0,.92-2.26,10.66-.11,15.89-.92,4.81-14,4.89-18-3A23.69,23.69,0,0,0,334.9,793.9Z" transform="translate(20 25.04)"/><path class="cls-16" d="M346.89,777.6c6.11-.42,12,1,13.39,6.77.48,2.07-.41,20.74-10.37,23.57-4.21,1.19-12.3-6-12.64-10.91,0,0-.46-6.69-.46-6.76C336.37,783.76,340.32,778,346.89,777.6Z" transform="translate(20 25.04)"/><path class="cls-17" d="M334.89,793.89a81.55,81.55,0,0,0,8.7,4.53c.05.1.09.21.14.32a35.24,35.24,0,0,0-2.81,13.82,25.89,25.89,0,0,0,.87,7c-3.61-.58-7.31-2.52-9.11-6.14A23.7,23.7,0,0,0,334.89,793.89Z" transform="translate(20 25.04)"/><path class="cls-17" d="M346.89,777.6c.51,0,1,0,1.52-.05a15.57,15.57,0,0,0-6.19,9.49c-.64,3.08-1.2,6.6.46,9.32,4.3,7.06,1.32,9.83-.84,8.14-3-2.33-4.38-4.74-4.57-7.47,0,0-.46-6.69-.46-6.76C336.37,783.76,340.32,778,346.89,777.6Z" transform="translate(20 25.04)"/><path class="cls-18" d="M302.07,840.41c3.74-10.28,9.84-22,20.2-24.51,3.44-.83,10.23-2.82,10.23-2.82s7.26,6.3,12.06,6.65c3.29.24,6.09-3.31,6.09-3.31s11.84,3.6,14,4.85c8.35,4.85,8.49,13,9,19.81,4.88,67.65,7.91,90.13,7.91,96.56,0,3.49-19.48,4-32.95,5.12-27.18,2.2-60,12-58.94,4.41C295,909.41,300.92,843.58,302.07,840.41Z" transform="translate(20 25.04)"/><path class="cls-19" d="M320.77,816.35a22.51,22.51,0,0,0-.75,6A47.14,47.14,0,0,0,321.59,835c.75,2.67,3.83,7.49,3.71,10.27-.26,5.7-5.19,14.49-6.7,20.48-3.79,15.07-10.46,29.34-9.74,45.24.73,16.1,7.36,27.46,17.24,34.71-20,3.27-37.24,7-36.46,1.46,5.33-37.76,11.28-103.59,12.43-106.76C305.62,830.64,311.32,819.56,320.77,816.35Z" transform="translate(20 25.04)"/><path class="cls-17" d="M337.05,787.69a5.66,5.66,0,0,1,2.74.94,79.65,79.65,0,0,1-2.86,7.51,5.88,5.88,0,0,1-3.35-4.62C333.65,789.83,335.36,787.63,337.05,787.69Z" transform="translate(20 25.04)"/><path class="cls-16" d="M384.17,926.93c.93-.14,1.91-.56,1.93.71.08.82-3.33,1.92-4.12,1.74-1.78-1-1.18-2-3-2.73A17.3,17.3,0,0,0,384.17,926.93Z" transform="translate(20 25.04)"/><path class="cls-16" d="M377.64,926.09a42.54,42.54,0,0,1,5.42,2.6c2.12,1.17,6.53,4.3,6.84,4.52.86.68,3.25,2.13,3.74,2.84a4.61,4.61,0,0,1,.45,2.7,1.38,1.38,0,0,1-1.29.85c-.15,1.17-3,.25-2.93.55.11,1.2-1.49,1.72-4.9-.82-.2-.15-9.79-4.72-12.73-6.43C373.15,931,377.53,926.06,377.64,926.09Z" transform="translate(20 25.04)"/><path class="cls-16" d="M317.12,835.24c3.11-1.54,22.78-3.3,23-1.59,1.11,9.42-3.31,39.74-2.65,54.66.81,18.3-12.25,12.34-14.28,6.87C317.81,880.8,310,838.79,317.12,835.24Z" transform="translate(20 25.04)"/><path class="cls-18" d="M340.1,833.65c3,6-.62,24-.12,38.57-6.22,2.72-17.62,4.17-26.37,2.33-3.39-17-3-32.49-1.07-37.47C317.48,824.27,336.2,825.91,340.1,833.65Z" transform="translate(20 25.04)"/><path class="cls-19" d="M319.67,829.37c-5.49,20.18,3.39,41.74,3.58,46a43.9,43.9,0,0,1-9.64-.79c-3.39-17-3-32.49-1.07-37.47A14,14,0,0,1,319.67,829.37Z" transform="translate(20 25.04)"/><path class="cls-16" d="M331.69,886.81a6.48,6.48,0,0,1,1.75.84c8.3,6.05,35.13,33.75,44.78,38.67a34,34,0,0,0-4.78,7.22c-15.71-8.41-52.46-33.77-51-40.73C323.77,886.42,328.61,885.84,331.69,886.81Z" transform="translate(20 25.04)"/><path class="cls-20" d="M384.05,947.52c24.34-7.65,40.74-14.27,61.82-12.18,13.54,1.34,18.68,8.36,15.42,15.4-3.17,6.85-10.14,9.06-16.76,10.54A853,853,0,0,1,329.65,979c-6.13-2.37-2.49-10.91-2.49-10.91C344.47,965.72,369.86,952,384.05,947.52Z" transform="translate(20 25.04)"/><path class="cls-13" d="M345.52,972.41c3.66-.75,6.59-2.4,10.87-2.66,3.56-.22,7.11.37,11.09-.17,7.67-1.06,12.64-4.09,19.32-7.66,4.72-2.52,7.49-4.47,14.47-4.26,4.27.13,7.77,1.74,12.83,1.82,12.76.2,27.31-3.9,33.73-10.87,5-5.42,4.81-9.7,1.25-12.77,11.64,2.08,15.18,8.48,12.21,14.9-3.17,6.85-10.14,9.06-16.76,10.54-63.11,14.14-110.61,17.5-110.61,17.5-3.83-3.31-7.28-5.13-7.45-8.12C332,972.48,338.23,973.9,345.52,972.41Z" transform="translate(20 25.04)"/><path class="cls-21" d="M315.55,968.45a113.23,113.23,0,0,1,12.55-.52s-.58,2.36.79,2.32c1.1,0,3.49.08,3.49.08a40.28,40.28,0,0,0,1.54,8.45s-6.56.79-10,1.57c-4,.9-6.83,2.32-9.88,2.94s-4.51.44-5.76-2.5-2.12-6.87-.13-9.23S311.68,969,315.55,968.45Z" transform="translate(20 25.04)"/><path class="cls-22" d="M317.11,979.91c2.31-1.11-.23-4.94,7.33-5.36a23.35,23.35,0,0,0,8.1-2.47,42.86,42.86,0,0,0,1.38,6.7s-6.56.79-10,1.57c-4,.9-6.83,2.32-9.88,2.94s-4.51.44-5.76-2.5a16.27,16.27,0,0,1-1.13-3.72C309.48,981,312.92,981.92,317.11,979.91Z" transform="translate(20 25.04)"/><path class="cls-23" d="M315.55,968.45c.52-.08,1.16-.14,1.88-.19-2.21.38-4.76,1-6,1.8-4.7,3.21-2.78,13.23.63,13.5,0,0-3.33.3-4.17-2.51-.9-3-1.77-7.13.22-9.49S311.68,969,315.55,968.45Z" transform="translate(20 25.04)"/><path class="cls-20" d="M323.32,935.34c21.08-2.09,37.48,4.53,61.82,12.18,14.2,4.47,39.57,18.2,56.89,20.54,0,0,3.65,8.54-2.49,10.91a853,853,0,0,1-114.88-17.69c-6.62-1.48-13.59-3.69-16.76-10.54C304.64,943.7,309.78,936.68,323.32,935.34Z" transform="translate(20 25.04)"/><path class="cls-13" d="M320.11,935.84c-3.56,3.07-3.76,7.35,1.25,12.77,6.42,7,21,11.07,33.73,10.87,5.07-.08,8.57-1.69,12.83-1.82,7-.21,9.75,1.74,14.48,4.26,6.67,3.57,11.64,6.6,19.31,7.66,4,.54,7.53-.05,11.09.17,4.28.26,7.21,1.91,10.87,2.66,7.29,1.49,13.51.07,19.05-1.75-.17,3-3.62,4.81-7.44,8.12,0,0-47.51-3.36-110.62-17.5-6.62-1.48-13.59-3.69-16.76-10.54C304.93,944.32,308.47,937.92,320.11,935.84Z" transform="translate(20 25.04)"/><path class="cls-21" d="M440.3,970.25c1.37,0,.79-2.32.79-2.32a113.23,113.23,0,0,1,12.55.52c3.87.56,5.39.69,7.44,3.11s1.11,6.35-.12,9.23-2.84,3.09-5.76,2.5-5.89-2-9.89-2.94c-3.48-.78-10-1.57-10-1.57a41,41,0,0,0,1.54-8.45S439.2,970.22,440.3,970.25Z" transform="translate(20 25.04)"/><path class="cls-22" d="M444.75,974.55c7.57.42,5,4.25,7.34,5.36,4.19,2,7.62,1.11,10-2.84a16.77,16.77,0,0,1-1.12,3.72c-1.26,2.94-2.84,3.09-5.76,2.5s-5.89-2-9.89-2.94c-3.48-.78-10-1.57-10-1.57a42.86,42.86,0,0,0,1.38-6.7A23.26,23.26,0,0,0,444.75,974.55Z" transform="translate(20 25.04)"/><path class="cls-23" d="M457.76,970.06c-1.24-.85-3.79-1.42-6-1.8.71,0,1.35.11,1.87.19,3.87.56,5.39.69,7.44,3.11s1.12,6.48.22,9.49c-.84,2.81-4.17,2.51-4.17,2.51C460.55,983.29,462.47,973.27,457.76,970.06Z" transform="translate(20 25.04)"/><path class="cls-24" d="M398.52,937.35v0a3.31,3.31,0,0,1-3.3,3.3H317.65a3.3,3.3,0,0,1-3.29-3.3v0Z" transform="translate(20 25.04)"/><path class="cls-24" d="M407,868.16c.73-2.67,2.09-3.69,4.85-3.62l48.55,0v75.32l-65.72.83c-4,0-4.26-3.11-4-4.19Z" transform="translate(20 25.04)"/><path class="cls-25" d="M393.22,937.35l17.08-71.43a1.84,1.84,0,0,1,.28-.58,1.79,1.79,0,0,1,.78-.64,1.63,1.63,0,0,1,.82-.2h84a1.93,1.93,0,0,1,1.37.58,1.86,1.86,0,0,1,.52,1.67.69.69,0,0,1,0,.2L482.3,933.68a9.54,9.54,0,0,1-9.2,7H394.85a1.51,1.51,0,0,1-.63-.12l-.25-.1,0,0-.22-.13a2,2,0,0,1-.59-.72,1.34,1.34,0,0,1-.07-.18s0-.06,0-.1a.71.71,0,0,1,0-.2,1.75,1.75,0,0,1,0-.85Z" transform="translate(20 25.04)"/><path class="cls-26" d="M410.31,865.92a2,2,0,0,1,1.87-1.41h84a1.92,1.92,0,0,1,1.89,2.23,1.91,1.91,0,0,0-.64-.12h-84a1.93,1.93,0,0,0-1.86,1.42l-17.3,72.3a1.42,1.42,0,0,0,0,.2,1.92,1.92,0,0,1-1.21-2.32Z" transform="translate(20 25.04)"/><path class="cls-26" d="M448.52,922.67a1.44,1.44,0,0,1,1.39-1.08h35.25l-1.93,8.16H448.6a1.43,1.43,0,0,1-1.39-1.77Z" transform="translate(20 25.04)"/><path class="cls-14" d="M749.29,661.19l-7.25-7.1-7.56,3.76-120.72-.19c-12.6,0-26.63,10.86-28.18,21.85l-41.26,281,7.12,7a21.63,21.63,0,0,0,15.36,5.91l122.51.28c12.6,0,24.19-8.94,25.74-19.93l39.24-278.16a16.34,16.34,0,0,0-5-14.36Z" transform="translate(20 25.04)"/><path class="cls-15" d="M670.09,967.88c-.68,0-.78.44-.22,1a3.7,3.7,0,0,0,2.25,1c.68,0,.78-.44.22-1A3.72,3.72,0,0,0,670.09,967.88Z" transform="translate(20 25.04)"/><path class="cls-15" d="M666.22,967.86c-.69,0-.78.45-.22,1a3.67,3.67,0,0,0,2.24,1c.68,0,.78-.45.23-1A3.82,3.82,0,0,0,666.22,967.86Z" transform="translate(20 25.04)"/><path class="cls-15" d="M662.34,967.85c-.68,0-.78.45-.22,1a3.78,3.78,0,0,0,2.25,1c.68,0,.78-.45.22-1A3.71,3.71,0,0,0,662.34,967.85Z" transform="translate(20 25.04)"/><path class="cls-15" d="M658.47,967.84c-.68,0-.78.45-.22,1a3.71,3.71,0,0,0,2.25,1c.68,0,.78-.45.22-1A3.78,3.78,0,0,0,658.47,967.84Z" transform="translate(20 25.04)"/><path class="cls-15" d="M654.6,967.83c-.68,0-.78.44-.22,1a3.7,3.7,0,0,0,2.24,1c.69,0,.78-.44.23-1A3.72,3.72,0,0,0,654.6,967.83Z" transform="translate(20 25.04)"/><path class="cls-15" d="M650.72,967.82c-.68,0-.78.44-.22,1a3.72,3.72,0,0,0,2.25,1c.68,0,.78-.44.22-1A3.7,3.7,0,0,0,650.72,967.82Z" transform="translate(20 25.04)"/><path class="cls-15" d="M646.85,967.8c-.68,0-.78.45-.22,1a3.72,3.72,0,0,0,2.25,1c.68,0,.78-.45.22-1A3.74,3.74,0,0,0,646.85,967.8Z" transform="translate(20 25.04)"/><path class="cls-15" d="M673.17,971c-.68,0-.78.44-.22,1a3.72,3.72,0,0,0,2.25,1c.68,0,.78-.44.22-1A3.72,3.72,0,0,0,673.17,971Z" transform="translate(20 25.04)"/><path class="cls-15" d="M669.3,970.93c-.68,0-.78.45-.22,1a3.7,3.7,0,0,0,2.25,1c.68,0,.78-.45.22-1A3.79,3.79,0,0,0,669.3,970.93Z" transform="translate(20 25.04)"/><path class="cls-15" d="M665.43,970.92c-.69,0-.78.45-.22,1a3.67,3.67,0,0,0,2.24,1c.68,0,.78-.45.23-1A3.81,3.81,0,0,0,665.43,970.92Z" transform="translate(20 25.04)"/><path class="cls-15" d="M661.55,970.91c-.68,0-.78.45-.22,1a3.74,3.74,0,0,0,2.25,1c.68,0,.78-.45.22-1A3.72,3.72,0,0,0,661.55,970.91Z" transform="translate(20 25.04)"/><path class="cls-15" d="M657.68,970.9c-.68,0-.78.45-.22,1a3.7,3.7,0,0,0,2.25,1c.68,0,.78-.44.22-1A3.72,3.72,0,0,0,657.68,970.9Z" transform="translate(20 25.04)"/><path class="cls-15" d="M653.81,970.89c-.68,0-.78.44-.23,1a3.75,3.75,0,0,0,2.25,1c.68,0,.78-.44.22-1A3.67,3.67,0,0,0,653.81,970.89Z" transform="translate(20 25.04)"/><path class="cls-15" d="M649.93,970.87c-.68,0-.78.45-.22,1a3.72,3.72,0,0,0,2.25,1c.68,0,.78-.45.22-1A3.77,3.77,0,0,0,649.93,970.87Z" transform="translate(20 25.04)"/><path class="cls-15" d="M643.14,967.79c-.69,0-.79.45-.22,1a3.73,3.73,0,0,0,2.24,1c.68,0,.78-.45.22-1A3.71,3.71,0,0,0,643.14,967.79Z" transform="translate(20 25.04)"/><path class="cls-15" d="M646.22,970.86c-.68,0-.78.45-.22,1a3.75,3.75,0,0,0,2.24,1c.69,0,.79-.45.23-1A3.78,3.78,0,0,0,646.22,970.86Z" transform="translate(20 25.04)"/><path class="cls-15" d="M639.42,967.78c-.68,0-.78.45-.22,1a3.78,3.78,0,0,0,2.25,1c.68,0,.78-.45.22-1A3.78,3.78,0,0,0,639.42,967.78Z" transform="translate(20 25.04)"/><path class="cls-15" d="M642.5,970.85c-.68,0-.78.45-.22,1a3.74,3.74,0,0,0,2.25,1c.68,0,.78-.45.22-1A3.7,3.7,0,0,0,642.5,970.85Z" transform="translate(20 25.04)"/><path class="cls-15" d="M598.63,967.57c-.68,0-.79.45-.22,1a3.74,3.74,0,0,0,2.24,1c.68,0,.78-.45.22-1A3.7,3.7,0,0,0,598.63,967.57Z" transform="translate(20 25.04)"/><path class="cls-15" d="M594.75,967.56c-.68,0-.78.44-.22,1a3.72,3.72,0,0,0,2.25,1c.68,0,.78-.44.22-1A3.7,3.7,0,0,0,594.75,967.56Z" transform="translate(20 25.04)"/><path class="cls-15" d="M590.88,967.54c-.68,0-.78.45-.22,1a3.72,3.72,0,0,0,2.25,1c.68,0,.78-.45.22-1A3.79,3.79,0,0,0,590.88,967.54Z" transform="translate(20 25.04)"/><path class="cls-15" d="M587,967.53c-.69,0-.78.45-.23,1a3.72,3.72,0,0,0,2.25,1c.69,0,.78-.45.22-1A3.69,3.69,0,0,0,587,967.53Z" transform="translate(20 25.04)"/><path class="cls-15" d="M583.13,967.52c-.68,0-.78.45-.22,1a3.78,3.78,0,0,0,2.25,1c.68,0,.78-.45.22-1A3.7,3.7,0,0,0,583.13,967.52Z" transform="translate(20 25.04)"/><path class="cls-15" d="M579.26,967.51c-.68,0-.78.44-.22,1a3.7,3.7,0,0,0,2.25,1c.68,0,.78-.44.22-1A3.72,3.72,0,0,0,579.26,967.51Z" transform="translate(20 25.04)"/><path class="cls-15" d="M575.39,967.5c-.68,0-.78.44-.22,1a3.7,3.7,0,0,0,2.24,1c.69,0,.79-.45.22-1A3.7,3.7,0,0,0,575.39,967.5Z" transform="translate(20 25.04)"/><path class="cls-15" d="M601.71,970.64c-.68,0-.78.45-.22,1a3.71,3.71,0,0,0,2.24,1c.69,0,.79-.45.23-1A3.72,3.72,0,0,0,601.71,970.64Z" transform="translate(20 25.04)"/><path class="cls-15" d="M597.84,970.63c-.68,0-.79.44-.23,1a3.75,3.75,0,0,0,2.25,1c.68,0,.78-.44.22-1A3.7,3.7,0,0,0,597.84,970.63Z" transform="translate(20 25.04)"/><path class="cls-15" d="M594,970.62c-.68,0-.78.44-.22,1a3.72,3.72,0,0,0,2.25,1c.68,0,.78-.44.22-1A3.7,3.7,0,0,0,594,970.62Z" transform="translate(20 25.04)"/><path class="cls-15" d="M590.09,970.6c-.68,0-.78.45-.22,1a3.75,3.75,0,0,0,2.25,1c.68,0,.78-.45.22-1A3.74,3.74,0,0,0,590.09,970.6Z" transform="translate(20 25.04)"/><path class="cls-15" d="M586.22,970.59c-.69,0-.78.45-.23,1a3.74,3.74,0,0,0,2.25,1c.69,0,.78-.45.22-1A3.67,3.67,0,0,0,586.22,970.59Z" transform="translate(20 25.04)"/><path class="cls-15" d="M582.34,970.58c-.68,0-.78.45-.22,1a3.79,3.79,0,0,0,2.25,1c.68,0,.78-.45.22-1A3.72,3.72,0,0,0,582.34,970.58Z" transform="translate(20 25.04)"/><path class="cls-15" d="M578.47,970.57c-.68,0-.78.44-.22,1a3.7,3.7,0,0,0,2.25,1c.68,0,.78-.44.22-1A3.72,3.72,0,0,0,578.47,970.57Z" transform="translate(20 25.04)"/><path class="cls-15" d="M571.67,967.48c-.68,0-.78.45-.22,1a3.72,3.72,0,0,0,2.25,1c.68,0,.78-.45.22-1A3.79,3.79,0,0,0,571.67,967.48Z" transform="translate(20 25.04)"/><path class="cls-15" d="M574.76,970.56c-.69,0-.79.44-.23,1a3.72,3.72,0,0,0,2.25,1c.68,0,.78-.45.22-1A3.7,3.7,0,0,0,574.76,970.56Z" transform="translate(20 25.04)"/><path class="cls-15" d="M568,967.47c-.69,0-.78.45-.22,1a3.7,3.7,0,0,0,2.24,1c.68,0,.78-.45.23-1A3.79,3.79,0,0,0,568,967.47Z" transform="translate(20 25.04)"/><path class="cls-15" d="M571,970.54c-.68,0-.78.45-.22,1a3.7,3.7,0,0,0,2.25,1c.68,0,.78-.45.22-1A3.74,3.74,0,0,0,571,970.54Z" transform="translate(20 25.04)"/><path class="cls-27" d="M726.3,647.78l-122.65-.18c-12.6,0-24.18,8.95-25.73,19.94l-39.13,278c-1.55,11,7.5,20,20.11,20l122.5.28c12.61,0,24.2-8.94,25.75-19.93L746.4,667.8C748,656.81,738.9,647.8,726.3,647.78Z" transform="translate(20 25.04)"/><path class="cls-25" d="M741.28,664.58v0c0,.42-.06.82-.11,1.19l-4.95,35,0,.25-6.4,45.36L701.9,944c-1.26,9-11.47,16.82-21.84,16.82l-29.63-.06-92.93-.22c-4.57,0-8.57-1.52-11-4.13a10.6,10.6,0,0,1-2.49-8.79l39.15-278c1.24-9,11.47-16.84,21.9-16.84l21.58,0,72.74.11,28.32,0c4.56,0,8.56,1.52,11,4.11A10.13,10.13,0,0,1,741.28,664.58Z" transform="translate(20 25.04)"/><polygon class="cls-28" points="635.17 811.14 604.92 811.14 609.15 780.89 639.4 780.89 635.17 811.14"/><polygon class="cls-28" points="683.17 811.14 652.92 811.14 657.15 780.89 687.4 780.89 683.17 811.14"/><path class="cls-15" d="M631.46,968.1a1.1,1.1,0,0,0-.8-.39h-20c-.65,0-.89.73-.41,1.28l2.73,3.18a1.08,1.08,0,0,0,.79.39h20c.66,0,.89-.72.41-1.28Z" transform="translate(20 25.04)"/><path class="cls-4" d="M741.28,664.6v0L701.89,944c-1.24,9-11.45,16.83-21.84,16.83H650.44v-.06a79.18,79.18,0,0,1-1.5-16.19c-.06-17.92-3.14-30.9-7.41-41.32-.32-.84-.67-1.65-1-2.42a153.17,153.17,0,0,0-11.14-20.06L628,878.51a100.24,100.24,0,0,1-5.25-9.27A47.67,47.67,0,0,1,617.46,845a71.48,71.48,0,0,1,1.62-11.78,78.33,78.33,0,0,1,2.13-7.88c15.5-47.84,64.41-38.14,69.2-72.37a46,46,0,0,0,.49-6.55c.06-34.6-47.18-12.55-40.28-61.95a35.69,35.69,0,0,0-1.25-16.25l40.11.09c4,0,8.17-3.09,8.63-6.46l1.27-9,28.34,0c4.56,0,8.54,1.53,11,4.13A10.15,10.15,0,0,1,741.28,664.6Z" transform="translate(20 25.04)"/><path class="cls-28" d="M608.6,732.6A10,10,0,0,1,599,741a7.17,7.17,0,0,1-7.26-8.44,10,10,0,0,1,9.62-8.44A7.17,7.17,0,0,1,608.6,732.6Z" transform="translate(20 25.04)"/><path class="cls-26" d="M599.21,881.75a13.28,13.28,0,0,0-10.09-4.49h-.24a6,6,0,0,0-.73,0A18.88,18.88,0,0,0,573.94,886a18.31,18.31,0,0,0-2.38,6.55c-1.18,8.46,4.72,15.3,13.17,15.3a15.73,15.73,0,0,0,4.83-.75,18.3,18.3,0,0,0,12.61-14.55A13.51,13.51,0,0,0,599.21,881.75Zm-14.15,23.74A11,11,0,0,1,574,892.57a15.37,15.37,0,0,1,14.72-12.92,11,11,0,0,1,11.13,12.92,15.48,15.48,0,0,1-10.42,12.21h0A13.72,13.72,0,0,1,585.06,905.49Z" transform="translate(20 25.04)"/><path class="cls-24" d="M575.34,870.55h48.19a47.66,47.66,0,0,1-5.84-25.13,65.75,65.75,0,0,1,1.65-12.19,80.57,80.57,0,0,1,1.89-8.14c-.29-.23-.18-.49-.43-.75a.61.61,0,0,0-1,.3,32.51,32.51,0,0,1-2.75,6.17c-1.11,1.64-1.18-7.8-3-7.24a4.3,4.3,0,0,1-4.79-1.19c-.43-.56-.69-1.26-1.16-1.82-2.94-3.41-6.56,6.82-7.5,8.79-1.6,3.34-4.46,6.85-7.83,6.82-1.65,0-3.27-.9-4.85-.13a6.41,6.41,0,0,0-2.4,2.71c-2.7,4.64-5.21,9.37-7.77,14.06Z" transform="translate(20 25.04)"/><path class="cls-28" d="M575.34,870.55h48.19a47.66,47.66,0,0,1-5.84-25.13c-2.87-.61-4.49-4-5.35-6.27-1.48-3.86-2.85-7.76-4.32-11.63-.54-1.43-2.95-1.47-3.93,0-2.06,3-4,6.07-5.79,9.16-1.35,2.25-4.3,8-8.19,7.34-2.39-.37-2.46-4.75-5.34-1.53a49.12,49.12,0,0,0-7,10.54Z" transform="translate(20 25.04)"/><path class="cls-29" d="M694.58,869.23h-.09s0-.45,0-1.24C694.57,868.77,694.58,869.23,694.58,869.23Z" transform="translate(20 25.04)"/><path class="cls-24" d="M589.56,907.12c-7.18,2.29-14.48-.83-17.1-7.1-2.48-5.9-.34-13.51,5.1-18.27a17.77,17.77,0,0,1,11.45-4.5l-.38,2.7a15.19,15.19,0,0,0-13.51,9.37c-2.25,5.56-.51,11.56,4.15,14.33a12.29,12.29,0,0,0,10.05.85Z" transform="translate(20 25.04)"/><path class="cls-24" d="M584.26,937.08a10.14,10.14,0,0,1-9.71,8.52,7.25,7.25,0,0,1-7.34-8.52,10.13,10.13,0,0,1,9.72-8.52A7.23,7.23,0,0,1,584.26,937.08Z" transform="translate(20 25.04)"/><path class="cls-28" d="M579.14,940.78a.36.36,0,0,1-.37-.42l.88-6.28a.64.64,0,0,0-.64-.75h-6.23a.35.35,0,0,1-.36-.42.5.5,0,0,1,.48-.43h6.23a1.36,1.36,0,0,1,1.37,1.6l-.88,6.28A.5.5,0,0,1,579.14,940.78Z" transform="translate(20 25.04)"/><path class="cls-28" d="M572.35,941.67a1.35,1.35,0,0,1-1.37-1.59l.84-6a.51.51,0,0,1,.49-.43.37.37,0,0,1,.36.43l-.84,6a.64.64,0,0,0,.65.74h6.25a.36.36,0,0,1,.36.43.5.5,0,0,1-.48.42Z" transform="translate(20 25.04)"/><path class="cls-28" d="M570.36,936.51l-.16-.08a.37.37,0,0,1-.13-.28.51.51,0,0,1,.12-.32l1.74-2a.52.52,0,0,1,.37-.17.37.37,0,0,1,.32.17l1.18,2a.4.4,0,0,1,0,.32.49.49,0,0,1-.21.28l-.07,0-.19,0a.37.37,0,0,1-.32-.17l-.9-1.55-1.33,1.54a.52.52,0,0,1-.37.18Z" transform="translate(20 25.04)"/><path class="cls-28" d="M579.14,940.79a.35.35,0,0,1-.32-.17l-1.18-2a.45.45,0,0,1,.18-.59l.07,0,.19,0a.37.37,0,0,1,.32.17l.9,1.55,1.33-1.54a.46.46,0,0,1,.37-.18h.08l.16.08a.37.37,0,0,1,.13.28.51.51,0,0,1-.12.32l-1.74,2A.52.52,0,0,1,579.14,940.79Z" transform="translate(20 25.04)"/><polygon class="cls-18" points="710.86 771.78 603.72 771.78 603.8 771.18 710.95 771.18 710.86 771.78"/><polygon class="cls-25" points="623.84 752.99 615.13 757.64 622.54 762.3 623.84 752.99"/><path class="cls-30" d="M741.28,664.58l-5.07,36.25-6.37,45.61H690.9c0-6.14-1.46-10.49-3.87-13.78a19.53,19.53,0,0,0-3.33-3.52c-12.93-10.76-38.26-7.56-33.08-44.67.85-6.06-2.74-26.93-4.34-31.76l53.11.15,28.32,0c4.56,0,8.56,1.52,11,4.11A10.16,10.16,0,0,1,741.28,664.58Z" transform="translate(20 25.04)"/><polygon class="cls-24" points="631.88 687.21 620.08 687.21 620.15 686.71 631.95 686.71 631.88 687.21"/><polygon class="cls-24" points="631.42 690.8 619.62 690.8 619.69 690.3 631.49 690.3 631.42 690.8"/><polygon class="cls-24" points="626.13 694.35 619.26 694.35 619.33 693.86 626.2 693.86 626.13 694.35"/><g class="cls-31"><polygon class="cls-24" points="644.67 808.1 644.3 808.1 647.68 783.94 648.04 783.94 644.67 808.1"/></g><g class="cls-31"><polygon class="cls-24" points="694.59 808.1 694.22 808.1 697.6 783.94 697.96 783.94 694.59 808.1"/></g><g class="cls-31"><polygon class="cls-24" points="723.22 949.72 580.62 949.72 580.68 949.36 723.27 949.36 723.22 949.72"/></g><path class="cls-24" d="M671.87,692.15a19.54,19.54,0,0,1-5.7,11.09,14,14,0,0,1-1.13,1,19.32,19.32,0,0,1-12.46,4.79,14.62,14.62,0,0,1-11.11-4.79c-.29-.33-.58-.68-.84-1a15.07,15.07,0,0,1-2.6-11.1c1.31-9.34,9.94-16.91,19.28-16.91S673.18,682.81,671.87,692.15Z" transform="translate(20 25.04)"/><path class="cls-32" d="M666.17,703.24a14,14,0,0,1-1.13,1,19.32,19.32,0,0,1-12.46,4.79,14.62,14.62,0,0,1-11.11-4.79c-.29-.33-.58-.68-.84-1a17.91,17.91,0,0,1,9-6.45,15.56,15.56,0,0,1,4.74-.75,13.6,13.6,0,0,1,4.54.75A12.26,12.26,0,0,1,666.17,703.24Z" transform="translate(20 25.04)"/><path class="cls-24" d="M665.51,690.4a12.26,12.26,0,0,1-11.76,10.33,8.76,8.76,0,0,1-8.87-10.33,12.26,12.26,0,0,1,11.76-10.31A8.76,8.76,0,0,1,665.51,690.4Z" transform="translate(20 25.04)"/><path class="cls-11" d="M663.09,690.4a9.38,9.38,0,0,1-9,7.9,6.71,6.71,0,0,1-6.79-7.9,9.38,9.38,0,0,1,9-7.89A6.7,6.7,0,0,1,663.09,690.4Z" transform="translate(20 25.04)"/><path class="cls-33" d="M683,877.26c-.27,0-.53,0-.79,0a6.83,6.83,0,0,0-.79.06,6.65,6.65,0,0,0-.78.1,15.68,15.68,0,0,0-2.26.49l0,0c-.25.07-.49.15-.74.24s-.52.18-.77.28-.66.27-1,.43-.56.27-.82.42a2,2,0,0,0-.29.16,9.94,9.94,0,0,0-.89.53c-.33.21-.64.42-1,.65s-.61.45-.91.7-.57.49-.85.76h0a17.8,17.8,0,0,0-5.59,10.44c-1.18,8.46,4.71,15.3,13.17,15.3a18.18,18.18,0,0,0,17.44-15.3C697.32,884.11,691.43,877.26,683,877.26Zm-3.91,27.93c-7,0-11.82-5.65-10.85-12.62A15,15,0,0,1,682.6,880a10.72,10.72,0,0,1,10.85,12.62A15,15,0,0,1,679.07,905.19Z" transform="translate(20 25.04)"/><path class="cls-34" d="M683,877.26,682.6,880a14.54,14.54,0,0,0-9.82,4l-1.66-1.86c.28-.27.57-.52.85-.76s.6-.47.91-.7.62-.44,1-.65a9.94,9.94,0,0,1,.89-.53,2,2,0,0,1,.29-.16c.26-.15.54-.29.82-.42s.64-.3,1-.43.51-.2.77-.28.49-.17.74-.24l0,0,.69-.19a11.76,11.76,0,0,1,1.57-.3,6.65,6.65,0,0,1,.78-.1,6.83,6.83,0,0,1,.79-.06C682.45,877.28,682.71,877.26,683,877.26Z" transform="translate(20 25.04)"/><path class="cls-24" d="M732.21,669.06h-.47l.59-4.17a3.26,3.26,0,0,0-3.3-3.83,4.55,4.55,0,0,0-4.37,3.83l-.58,4.17h-.47a.45.45,0,0,0-.42.37l0,.17a.33.33,0,0,0,.32.38h3.32a.83.83,0,0,0,.85.94,1.18,1.18,0,0,0,1.12-.94h3.31a.45.45,0,0,0,.43-.38l0-.17A.31.31,0,0,0,732.21,669.06Z" transform="translate(20 25.04)"/><polygon class="cls-24" points="737.54 751.47 738.39 753.85 740.97 754.23 738.8 756.09 738.89 758.71 736.71 757.47 734.18 758.71 735 756.09 733.35 754.23 736.03 753.85 737.54 751.47"/><polygon class="cls-24" points="727.52 751.47 728.36 753.85 730.94 754.23 728.78 756.09 728.86 758.71 726.68 757.47 724.15 758.71 724.97 756.09 723.33 754.23 726.01 753.85 727.52 751.47"/><polygon class="cls-24" points="717.5 751.47 718.34 753.85 720.92 754.23 718.75 756.09 718.84 758.71 716.65 757.47 714.13 758.71 714.95 756.09 713.3 754.23 715.98 753.85 717.5 751.47"/><path class="cls-24" d="M690.89,729.19l-2.16,1.86.08,2.62-1.78-1a19.53,19.53,0,0,0-3.33-3.52l2.26-.33,1.51-2.38.85,2.38Z" transform="translate(20 25.04)"/><polygon class="cls-28" points="619.08 943.08 588.07 943.08 588.65 938.92 619.66 938.92 619.08 943.08"/><polygon class="cls-28" points="664.41 943.08 633.4 943.08 633.99 938.92 664.99 938.92 664.41 943.08"/><polygon class="cls-28" points="736.28 792.63 705.41 792.63 706.12 787.57 736.99 787.57 736.28 792.63"/><polygon class="cls-28" points="729.86 800.3 709.69 800.3 710.4 795.23 730.57 795.23 729.86 800.3"/><polygon class="cls-24" points="696.51 746.6 645.17 746.6 645.88 741.54 697.22 741.54 696.51 746.6"/><polygon class="cls-24" points="686.54 754.26 653.01 754.26 653.71 749.2 687.25 749.2 686.54 754.26"/><polygon class="cls-6" points="713.43 943.08 682.42 943.08 683.01 938.92 714.01 938.92 713.43 943.08"/><g class="cls-31"><polygon class="cls-24" points="718.64 895.88 595.2 895.88 605.79 820.09 606.17 820.09 595.63 895.5 718.7 895.5 718.64 895.88"/></g><path class="cls-34" d="M697.26,869.21v.06c0,.82-.06,1.28-.06,1.28H622.8a49.53,49.53,0,0,1-5.44-25.11A70.77,70.77,0,0,1,619,833.23a84.11,84.11,0,0,1,2.2-8.14,5,5,0,0,0,1,.66c3.15,1.53,9.76-9.37,12.72-15.72.53-1.15,2-1.15,2.22,0,0,0,9.59,31.67,12.72,30.3a4.65,4.65,0,0,0,1.41-1.12c1-1,4.49-12.31,7.1-18.41,1.31-3.09,2.39-4.84,2.76-3.22.12.53,2,10.87,3.87,14.06,2.63,4.6,3.56,4.85,5.84.91.23-.4.44-.78.63-1.13,2.61-4.81,5.11-9.68,7.7-14.5,1-1.79,3.28-1.83,3.78,0,1,3.74,1.92,7.56,2.71,11.4.6,2.83,1.66,9.92,5.57,9.16,2.4-.47,3.81-5.92,5.57-1.9C698.46,839.29,697.52,863.26,697.26,869.21Z" transform="translate(20 25.04)"/><path class="cls-33" d="M697.26,869.21v.06c0,.82,0,1.28,0,1.28H622.8a49.53,49.53,0,0,1-5.44-25.11,5.29,5.29,0,0,0,3.95-.85,8.45,8.45,0,0,0,2.91-2.85c2.32-3.87,5.26,2.47,6.33,3.67a3.1,3.1,0,0,0,1.13.91c2.79,1.09,5.52-2.89,6.47-4.69l5.63-10.55,9.46-17.77c.5-.92,2-.92,2.22,0a37.94,37.94,0,0,0,2.91,7.49,17,17,0,0,0,2.53,3.76c1.07,1.15,2.21,1.74,3.32,1.36a8.34,8.34,0,0,0,2.07-1.13.53.53,0,0,1,.85.24,18.11,18.11,0,0,0,1.12,5,5.59,5.59,0,0,0,2.58,2.57,4.5,4.5,0,0,0,.82.32,5.5,5.5,0,0,0,4.87-1c.55-.46,1-1,1.55-1.46,3.65-2.74,4.59,5.48,5,7.06.7,2.67,2.59,5.49,5.81,5.45,1.58,0,3.35-.71,4.66-.09a3.56,3.56,0,0,1,1.63,2.17C696.44,848.28,697.09,864.43,697.26,869.21Z" transform="translate(20 25.04)"/><g class="cls-31"><g class="cls-35"><polygon class="cls-24" points="719.73 884.98 596.88 884.98 596.93 884.6 719.78 884.6 719.73 884.98"/></g><g class="cls-35"><polygon class="cls-24" points="721.27 873.97 598.41 873.97 598.47 873.6 721.32 873.6 721.27 873.97"/></g><g class="cls-35"><polygon class="cls-24" points="722.81 862.96 599.95 862.96 600.01 862.59 722.86 862.59 722.81 862.96"/></g><g class="cls-35"><polygon class="cls-24" points="724.35 851.96 601.49 851.96 601.54 851.58 724.4 851.58 724.35 851.96"/></g><g class="cls-35"><polygon class="cls-24" points="725.88 840.95 603.03 840.95 603.08 840.57 725.93 840.57 725.88 840.95"/></g><g class="cls-35"><polygon class="cls-24" points="727.42 829.94 604.57 829.94 604.62 829.56 727.47 829.56 727.42 829.94"/></g></g><g class="cls-31"><g class="cls-35"><polygon class="cls-24" points="614.52 895.69 614.14 895.69 624.6 820.84 624.98 820.84 614.52 895.69"/></g><g class="cls-35"><polygon class="cls-24" points="634.28 895.69 633.9 895.69 644.36 820.84 644.74 820.84 634.28 895.69"/></g><g class="cls-35"><polygon class="cls-24" points="654.04 895.69 653.66 895.69 664.12 820.84 664.5 820.84 654.04 895.69"/></g><g class="cls-35"><polygon class="cls-24" points="673.8 895.69 673.43 895.69 683.88 820.84 684.26 820.84 673.8 895.69"/></g><g class="cls-35"><polygon class="cls-24" points="693.56 895.69 693.19 895.69 703.64 820.84 704.02 820.84 693.56 895.69"/></g><g class="cls-35"><polygon class="cls-24" points="713.32 895.69 712.95 895.69 723.4 820.84 723.78 820.84 713.32 895.69"/></g></g><path class="cls-28" d="M584.89,908.61a14,14,0,0,1-13.08-8.33c-2.61-6.24-.43-14.09,5.29-19.1A18.48,18.48,0,0,1,589,876.51h.89l-.58,4.18h-.61a14.53,14.53,0,0,0-12.86,8.94c-2.11,5.19-.51,10.83,3.81,13.39a10.76,10.76,0,0,0,5.46,1.42,13,13,0,0,0,4-.64l.91-.31.38,4.17-.53.17A16.32,16.32,0,0,1,584.89,908.61Z" transform="translate(20 25.04)"/><path class="cls-36" d="M577,928.56a10.13,10.13,0,0,0-9.71,8.52,7.25,7.25,0,0,0,7.33,8.52,10.14,10.14,0,0,0,9.72-8.52A7.25,7.25,0,0,0,577,928.56Z" transform="translate(20 25.04)"/><path class="cls-26" d="M579.17,932.48h-6.23a.5.5,0,0,0-.48.43.36.36,0,0,0,.37.42h6.22a.64.64,0,0,1,.64.75l-.88,6.28a.36.36,0,0,0,.37.42.5.5,0,0,0,.48-.42l.88-6.28A1.36,1.36,0,0,0,579.17,932.48Z" transform="translate(20 25.04)"/><path class="cls-26" d="M578.76,940.82h-6.25a.63.63,0,0,1-.64-.74l.84-6a.36.36,0,0,0-.36-.43.51.51,0,0,0-.49.43l-.84,6a1.35,1.35,0,0,0,1.37,1.59h6.26a.5.5,0,0,0,.48-.42A.36.36,0,0,0,578.76,940.82Z" transform="translate(20 25.04)"/><path class="cls-26" d="M572.66,933.81a.37.37,0,0,0-.32-.17.52.52,0,0,0-.37.17l-1.74,2a.46.46,0,0,0-.12.32.37.37,0,0,0,.13.28l.16.08h.08a.52.52,0,0,0,.37-.18l1.33-1.54.9,1.55a.37.37,0,0,0,.32.17l.19,0,.07,0a.49.49,0,0,0,.21-.28.4.4,0,0,0,0-.32Z" transform="translate(20 25.04)"/><path class="cls-26" d="M581.12,937.92H581a.47.47,0,0,0-.37.18l-1.33,1.54-.9-1.55a.38.38,0,0,0-.33-.17l-.19,0-.07,0a.46.46,0,0,0-.17.59l1.18,2a.34.34,0,0,0,.31.17.53.53,0,0,0,.38-.18l1.74-2a.51.51,0,0,0,.12-.32.37.37,0,0,0-.13-.28Z" transform="translate(20 25.04)"/><path class="cls-28" d="M634.18,877.26c-.27,0-.52,0-.79,0a6.65,6.65,0,0,0-.78.06,6.82,6.82,0,0,0-.79.1,15.68,15.68,0,0,0-2.26.49,0,0,0,0,1,0,0c-.25.07-.49.15-.73.24s-.53.18-.78.28-.66.27-1,.43-.56.27-.82.42a2,2,0,0,0-.29.16,9.77,9.77,0,0,0-.88.53c-.34.21-.64.42-.95.65s-.61.45-.91.7-.58.49-.86.76h0a17.75,17.75,0,0,0-5.59,10.44c-1.18,8.46,4.71,15.3,13.16,15.3a18.19,18.19,0,0,0,17.45-15.3C648.53,884.11,642.64,877.26,634.18,877.26Zm-3.9,27.93c-7,0-11.83-5.65-10.86-12.62A14.69,14.69,0,0,1,624,884a14.49,14.49,0,0,1,9.81-4c7,0,11.83,5.65,10.86,12.62A15,15,0,0,1,630.28,905.19Z" transform="translate(20 25.04)"/><path class="cls-34" d="M634.17,877.27a30.55,30.55,0,0,0-1.56.08l-.78.09a19.24,19.24,0,0,0-2.28.49,0,0,0,0,1,0,0,5.06,5.06,0,0,0-.72.23c-.29.09-.55.2-.78.29l0,0,1.36,2.22a12.81,12.81,0,0,1,4.44-.78,10.74,10.74,0,0,1,10.88,12.61,14.61,14.61,0,0,1-4.18,8.23c.37.77.72,1.58,1,2.42a17.57,17.57,0,0,0,5.82-10.65C648.54,884.11,642.62,877.27,634.17,877.27Z" transform="translate(20 25.04)"/><path class="cls-28" d="M632.61,877.35a17.71,17.71,0,0,0-9.43,4c-.29.24-.58.49-.86.76L624,884a14.49,14.49,0,0,1,9.81-4l.38-2.69c-.27,0-.52,0-.79,0A6.65,6.65,0,0,0,632.61,877.35Z" transform="translate(20 25.04)"/><path class="cls-33" d="M632.61,877.35a15.76,15.76,0,0,0-4.62,1.16l1.36,2.22a12.81,12.81,0,0,1,4.44-.78l.38-2.68a30.55,30.55,0,0,0-1.56.08Z" transform="translate(20 25.04)"/><polygon class="cls-28" points="612.6 960.57 629.36 960.57 629.65 958.56 612.88 958.56 612.6 960.57"/><polygon class="cls-28" points="636.52 960.57 659.34 960.57 659.62 958.56 636.8 958.56 636.52 960.57"/><polygon class="cls-28" points="610.93 967.39 660.15 967.39 660.43 965.38 611.21 965.38 610.93 967.39"/><path class="cls-37" d="M732.43,973.64h19.18c31.25-33,26.93-82.57,26.93-82.57C729.44,909.62,732.43,973.64,732.43,973.64Z" transform="translate(20 25.04)"/><path class="cls-38" d="M770.71,894.63c.3,11.93-.87,51.27-27.1,79h8c31.25-33,26.93-82.57,26.93-82.57A63.05,63.05,0,0,0,770.71,894.63Z" transform="translate(20 25.04)"/><path class="cls-30" d="M778.11,890.72a164.43,164.43,0,0,0-14,22.38.37.37,0,0,0-.09.16c-1.71,3.21-3.47,6.74-5.25,10.56-.42-4.29-1.34-14.66-.77-19.57a.57.57,0,0,0-.49-.62.55.55,0,0,0-.62.49c-.72,6.25.85,20.56,1,21.68-1.51,3.34-3,6.88-4.49,10.63,0,0,0,.06,0,.09-1.4,3.56-2.75,7.31-4,11.21-1.62-3.94-6.21-16.2-4.77-25.52a.56.56,0,1,0-1.1-.17c-1.71,11.14,4.65,25.76,5.35,27.3q-1.92,5.88-3.59,12.23a.06.06,0,0,0,0,0q-1.51,5.77-2.77,11.92s0,.05,0,.08h1.1c.79-3.91,1.68-7.71,2.64-11.39a175.48,175.48,0,0,1,18.32-5.48.55.55,0,0,0,.4-.68.54.54,0,0,0-.67-.4c-9,2.24-15.37,4.41-17.72,5.25a221.45,221.45,0,0,1,7.75-23.63,189.77,189.77,0,0,1,18.94-1.46.57.57,0,0,0,.55-.57.54.54,0,0,0-.57-.54c-8.28.19-15.85,1.06-18.47,1.39A223.91,223.91,0,0,1,765,913.87a81.64,81.64,0,0,1,13.14-2.81A.55.55,0,1,0,778,910a79.92,79.92,0,0,0-12.3,2.54A161.43,161.43,0,0,1,779,891.41a.56.56,0,0,0-.87-.69Z" transform="translate(20 25.04)"/><path class="cls-30" d="M735.51,947.67a.55.55,0,0,0-.6-.52.58.58,0,0,0-.51.61c.69,8.35,8.89,20.43,9.24,20.94a.56.56,0,0,0,.46.24.62.62,0,0,0,.32-.09.55.55,0,0,0,.14-.77C744.48,968,736.18,955.73,735.51,947.67Z" transform="translate(20 25.04)"/><path class="cls-11" d="M763.86,973.52h14.79c21.9-12.54,28.46-38.19,28.46-38.19C763.86,934.2,763.86,973.52,763.86,973.52Z" transform="translate(20 25.04)"/><path class="cls-32" d="M801.09,935.45c-.52,1.89-7.39,26-28.43,38.07h6c21.9-12.54,28.45-38.19,28.45-38.19A59.12,59.12,0,0,0,801.09,935.45Z" transform="translate(20 25.04)"/><path class="cls-6" d="M798.24,942a62.19,62.19,0,0,0-10.38,6.53.38.38,0,0,0-.12.09,63.17,63.17,0,0,0-4.81,4.12c.14-1.82.67-6.52,2.27-8.55a.31.31,0,0,0-.05-.44.33.33,0,0,0-.44.05c-2,2.58-2.42,8.84-2.45,9.58a55.28,55.28,0,0,0-4.79,5.32.2.2,0,0,0-.06.09,47.66,47.66,0,0,0-2.77,3.94c-.29-2.11-.88-8,.71-13a.31.31,0,0,0-.2-.39.3.3,0,0,0-.39.2c-1.91,6.08-.77,13.24-.62,14.08a40.05,40.05,0,0,0-2.45,4.8l0,.05c-.39.92-.76,1.86-1.09,2.83a.31.31,0,0,0,.19.4l.1,0a.31.31,0,0,0,.3-.22c.31-.91.65-1.79,1-2.66a35,35,0,0,1,10-1,.3.3,0,0,0,.32-.29.31.31,0,0,0-.29-.33,35.88,35.88,0,0,0-9.77.86,43.39,43.39,0,0,1,5.37-8.85c1-.09,7.37-.55,11.84.61h.08a.31.31,0,0,0,.07-.61c-4.07-1.06-9.5-.81-11.47-.68a58.17,58.17,0,0,1,9.78-9.46,35.17,35.17,0,0,1,7.66.28h0a.31.31,0,0,0,0-.62,36.71,36.71,0,0,0-6.87-.34,59.12,59.12,0,0,1,9.45-5.84.3.3,0,0,0,.15-.41A.31.31,0,0,0,798.24,942Z" transform="translate(20 25.04)"/><path class="cls-33" d="M743.27,908.48c-.36-4.18-2.88-7.34-5-10.8a17.77,17.77,0,0,1-2.58-11.75c1-8.57,6.68-16.4,5.76-25.24-.73-7-6-12.73-13.42-11-7.61,1.75-11.53,8.83-12.91,16-1.6,8.27-.49,17-3.42,25.05-2.63,7.16-10.51,12-10.53,20.15,0,4.66,2.1,9,3.46,13.39a22.77,22.77,0,0,1,1.28,7.35c-.06,2.28-.95,3.62-2,5.53a37.61,37.61,0,0,0-4.54,23.58c1.39,4.82,3.78,9.67,7.51,12.94h33.84a11.22,11.22,0,0,0,3.92-8.75c-.25-10-8.05-17.94-8.73-27.86C735.18,926.79,744.13,918.7,743.27,908.48Z" transform="translate(20 25.04)"/><path class="cls-39" d="M718.72,856.21c-3.63,5.5-4.22,12.41-4.63,19s-.77,13.46-4.1,19.15c-2.69,4.61-7.24,8.28-8.47,13.48-1.07,4.49.57,9,2.15,13.51.58,1.68,1.16,3.37,1.58,5a15.64,15.64,0,0,1,.25,8.14,36.72,36.72,0,0,0-6.17,26.16A28.1,28.1,0,0,0,706,972.84a18.14,18.14,0,0,1-.6-4.3c.43-6.33,6.44-23.85,5.76-26.71a48.66,48.66,0,0,1-1.8-12.51,28.29,28.29,0,0,1,3.29-12.56c1.55-3,4.79-6,5.82-9.14,6.9-21.53-13.16-36.21,19-55.59a9.14,9.14,0,0,0-1.77-1.36C730.08,847.33,722.36,850.71,718.72,856.21Z" transform="translate(20 25.04)"/><path class="cls-24" d="M729.25,854.06c-3.93,3.63-3.76,9.59-2.93,14,.2,1.08.45,2.17.7,3.26.79,3.47,1.61,7.06,1,10.51a26.4,26.4,0,0,1-3,7.41,27.64,27.64,0,0,0-3.17,7.8c-.61,3.31,0,6.65.57,9.88a28.83,28.83,0,0,1,.67,8.8,28.19,28.19,0,0,1-1.93,6.37,34,34,0,0,0-1.88,5.86c-1.11,5.81.89,11.77,3,16.84.32.76.64,1.52,1,2.28,1.86,4.36,3.77,8.86,4.15,13.56.35,4.51-1.22,10.21-5.37,12.95h2.25c3.52-3.27,4.86-8.55,4.51-13.06-.39-4.92-2.36-9.53-4.26-14l-1-2.28c-2-4.87-4-10.59-2.91-16a33,33,0,0,1,1.81-5.61,22.37,22.37,0,0,0,1.33-15.93c-.58-3.25-1.13-6.32-.57-9.38a26.34,26.34,0,0,1,3-7.4,27.24,27.24,0,0,0,3.17-7.82c.68-3.72-.17-7.45-1-11.07-.24-1.06-.49-2.13-.69-3.2-.63-3.29-1.14-9.31,2.5-12.68a.69.69,0,0,0,0-1A.68.68,0,0,0,729.25,854.06Z" transform="translate(20 25.04)"/></g></g></svg>