<svg id="Layer_1" data-name="Layer 1" xmlns="http://www.w3.org/2000/svg" viewBox="0 0 670.98 1022.69"><defs><style>.cls-1{opacity:0.4;}.cls-10,.cls-11,.cls-12,.cls-13,.cls-2,.cls-3,.cls-4,.cls-5,.cls-6,.cls-7,.cls-8,.cls-9{fill:none;}.cls-2{stroke:#24ccfd;}.cls-3{stroke:#28c2fd;}.cls-4{stroke:#2db7fd;}.cls-5{stroke:#31adfd;}.cls-6{stroke:#36a3fd;}.cls-7{stroke:#3a99fd;}.cls-8{stroke:#3f8efc;}.cls-9{stroke:#4384fc;}.cls-10{stroke:#487afc;}.cls-11{stroke:#4c70fc;}.cls-12{stroke:#5165fc;}.cls-13{stroke:#555bfc;}</style></defs><title>mockups</title><g class="cls-1"><path class="cls-2" d="M118.16,3.26c109.2,48.3,180.6-9.35,195.3,60.42s121.8,76.08,159.6,103.38,56.7,65.1,33.6,102.9-54,157.1,0,211.13,82.26,229.6-52.5,225.67c-140.28-4.1-270.9,31.5-306.6,132.3s-126,115.5-126,115.5" transform="translate(15.97 47.19)"/><path class="cls-3" d="M122.21-1.31C221.48,42.59,280.9,8.75,301.94,79.92c.49,1.68,1,3.33,1.6,4.93,25.24,66.72,124.66,61.92,167.27,91.76,37.74,26.43,56.76,63.21,41.26,102-16.22,40.57-35.32,157.32,4.18,213.49s52,205.09-76,203.51a269.54,269.54,0,0,0-33.58,2c-118.52,13.19-217.76,61.21-256.4,150.49a162,162,0,0,1-10.9,21.29c-47.82,77-121.2,86.89-121.2,86.89" transform="translate(15.97 47.19)"/><path class="cls-4" d="M126.26-5.89C215.6,33.63,262.88,23.56,290.41,96.16c.63,1.66,1.24,3.32,2,4.9,32.05,68.34,127.78,52.1,176.16,85.11,37.6,25.65,57.14,62.07,48.92,101-9.34,44.25-16.32,158.43,8.35,215.85,25.56,59.49,21.74,180.73-99.52,181.34-11.45.06-22.33,2-32.91,4.28C283.61,712.07,197.57,771.11,153,857.16a138.2,138.2,0,0,1-12.31,20.14C84.76,950.73,14.77,958,14.77,958" transform="translate(15.97 47.19)"/><path class="cls-5" d="M130.3-10.46c79.42,35.13,114.41,48.84,148.58,122.85.76,1.66,1.5,3.31,2.37,4.88,39.05,69.94,130.87,42.33,185.05,78.45,37.42,24.95,58.18,61.52,56.59,100.1-2,48.63,2.26,160.71,12.52,218.21,11.43,64-8.54,156.52-123,159.18-11.44.27-21.95,3.16-32.25,6.52C279.39,712.51,206.35,783.4,155.66,866.21a120.89,120.89,0,0,1-13.73,19C77.76,955,11.37,959.74,11.37,959.74" transform="translate(15.97 47.19)"/><path class="cls-6" d="M134.35-15c69.49,30.73,92.05,68.26,133,143.66.9,1.65,1.75,3.3,2.76,4.85C316.31,205,404,166.09,464.05,205.28c37.2,24.28,59.95,61.21,64.25,99.17C534.34,357.78,548,468.24,545,525c-3.7,69.47-38.85,132.46-146.54,137-11.43.48-21.55,4.23-31.6,8.75C275.28,712,215.25,795.71,158.36,875.26c-4.64,6.49-9.46,12.65-15.15,17.83C70.55,959.24,8,961.47,8,961.47" transform="translate(15.97 47.19)"/><path class="cls-7" d="M138.4-19.6C198,6.74,208,68.13,255.83,144.87c1,1.63,2,3.28,3.13,4.83,53.49,72.94,136.93,22.93,202.84,65.13,37,23.66,62.29,60.86,71.9,98.24C548.6,371,569.7,480,554.58,536c-20.22,74.93-69.15,108.55-170.05,114.85-11.41.72-21.16,5.22-30.94,11C271,710.59,224.24,808.06,161.06,884.31c-5.07,6.12-10.37,11.92-16.57,16.67C63.16,963.3,4.57,963.2,4.57,963.2" transform="translate(15.97 47.19)"/><path class="cls-8" d="M142.45-24.18c49.63,22,47,107.29,101.85,185.29,1.14,1.62,2.26,3.26,3.51,4.8,60.89,74.31,139.91,13.33,211.74,58.48,36.69,23.07,65,60.27,79.56,97.3,24.46,62.22,51.57,169.47,25,225.28-37.86,79.67-99.45,84.8-193.55,92.69-11.41,1-20.81,6.11-30.29,13.23-73.91,55.5-107,167.6-176.56,240.47a101.27,101.27,0,0,1-18,15.52c-90.11,58.31-144.6,56-144.6,56" transform="translate(15.97 47.19)"/><path class="cls-9" d="M146.49-28.75c39.71,17.56,24.35,126.92,86.28,206.1,1.27,1.61,2.52,3.24,3.9,4.77C305,257.7,379.51,185.9,457.29,233.94c36.43,22.5,67.91,59.42,87.23,96.37,34.5,66,66.93,171.42,29.23,227.64-56,83.51-129.75,61.2-217.07,70.53-11.39,1.22-20.52,6.92-29.63,15.46C261.26,705.65,242.5,833,166.46,902.41a100.32,100.32,0,0,1-19.41,14.37c-99,54.1-149.28,49.87-149.28,49.87" transform="translate(15.97 47.19)"/><path class="cls-10" d="M150.54-33.32c29.78,13.17,1.64,146.62,70.71,226.91,1.38,1.6,2.77,3.22,4.27,4.74,75.89,76.77,145.75-5.7,229.52,45.17,36.14,21.94,70.86,58.29,94.89,95.43,44.83,69.31,82.36,172.87,33.4,230-74.25,86.63-160,37.77-240.58,48.38-11.37,1.5-20.33,7.68-29,17.7-58.29,67.63-62,210.64-144.62,276.47a101.74,101.74,0,0,1-20.83,13.2c-107.85,49.73-154,43.71-154,43.71" transform="translate(15.97 47.19)"/><path class="cls-11" d="M154.59-37.89c19.85,8.78-21.12,166.4,55.13,247.71,1.51,1.61,3,3.21,4.65,4.72C297.84,292.4,363,199.42,452.79,253.05c35.85,21.41,73.78,56.95,102.54,94.5,55.29,72.19,98,174,37.58,232.35-92.34,89.26-190.26,14.47-264.08,26.22-11.35,1.8-20.27,8.41-28.31,19.93C249.12,699.6,261,858.36,171.86,920.52a105.72,105.72,0,0,1-22.24,12.05C32.88,977.75-9,970.11-9,970.11" transform="translate(15.97 47.19)"/><path class="cls-12" d="M158.63-42.47c9.93,4.39-43.9,186.27,39.57,268.53q2.43,2.43,5,4.69c91.07,78.87,151.45-24.46,247.3,31.86,35.56,20.88,76.65,55.42,110.21,93.57,65.75,74.74,113.75,174.87,41.76,234.7-110.24,91.62-220.46-8.69-287.6,4-11.32,2.15-20.29,9.15-27.65,22.18-45,79.64-17,254.08-112.69,312.46a110.38,110.38,0,0,1-23.66,10.89C25.31,981-12.42,971.83-12.42,971.83" transform="translate(15.97 47.19)"/><path class="cls-13" d="M162.68-47s-69.3,214.2,29.4,294,154.24-33.74,256.2,25.2c105.13,60.77,289.8,237.3,163.8,329.7C460.3,713.16,316,515.76,274,608.16s12.6,304.5-121.8,340.2-168,25.2-168,25.2" transform="translate(15.97 47.19)"/></g></svg>