<svg id="b0225cde-a2d2-4693-8ce5-502a1e8a6144" xmlns="http://www.w3.org/2000/svg" viewBox="0 0 1077.38 752.86"><defs><style>.cls-1{fill:#f2f2f2;}.cls-2{fill:#6c63ff;}.cls-3{fill:#5333ed;}.cls-4{fill:#2f2e41;}.cls-5{fill:#a0616a;}.cls-6{opacity:0.1;isolation:isolate;}.cls-7{fill:#3f3d56;}.cls-8{fill:#ff6584;}</style></defs><title>N</title><circle class="cls-1" cx="542.25" cy="366.61" r="267.2"/><path class="cls-2" d="M848.54,161.65,832.2,202.79c3.16,14.32,6.25,30.46,8.73,47.64L870,189.55l.48.73A131.37,131.37,0,0,0,848,161Z"/><path class="cls-2" d="M831.64,200.28l15.83-39.85c-9.29-8.73-19.38-14.81-29.9-17.49-.55-.14-1.09-.26-1.64-.38C817.2,146.34,824.51,168.56,831.64,200.28Z"/><path class="cls-2" d="M898.49,288.55l.37.91q-.58-9.31-1.84-18.43l-50.57,63.21-.19-.41c-.11,3.73-.27,7.4-.49,11Z"/><path class="cls-2" d="M889.26,235.38l.43.84A207.15,207.15,0,0,0,871,191.09l-29.65,62q3.38,24.18,4.52,46.67Z"/><path class="cls-2" d="M748.67,195.16a173.41,173.41,0,0,0-7.89,33.93L844,289.39c-.92-13-2.32-25.41-3.94-36.9l-91.49-56.35Z"/><path class="cls-2" d="M739.42,242.57l.09-1,105.17,59.47q-.23-4.79-.54-9.49L740.55,231l.1-1Q739.86,236.17,739.42,242.57Z"/><path class="cls-2" d="M896.46,269l.4.88A246.73,246.73,0,0,0,890,237.25l-44,65.29q.67,15,.34,29.12Z"/><path class="cls-2" d="M840.56,386c-4.2,20.82-10.63,39.39-19.25,55.49,12.05-10.27,59.9-53.79,74.06-108.16Z"/><path class="cls-2" d="M742.23,289.79a240.12,240.12,0,0,0,8.84,30.77l.16-1.06,88.38,64.28a297.69,297.69,0,0,0,4.61-35.33Z"/><path class="cls-2" d="M830.5,200.56c-7.73-34.32-15.64-57.39-15.75-57.72l.49-.43c-16.17-3.32-31,2-43.29,13.81Z"/><path class="cls-2" d="M845.58,347.67c-.07,1.13-.14,2.26-.23,3.37a294.66,294.66,0,0,1-4.18,31.87l54.3-52.17.33.9a116.55,116.55,0,0,0,3.54-29.34q-.06-5.83-.4-11.61Z"/><path class="cls-2" d="M839.72,250.2c-2.46-17-5.53-32.94-8.65-47.08l-59.89-45.36.15-.95c-9.14,9.09-16.78,21.87-22.35,37.5Z"/><path class="cls-2" d="M839.25,385.63l-87.74-63.81c21.75,60.25,64.16,118.13,66.87,121.81C828.43,426,835.09,406.21,839.25,385.63Z"/><path class="cls-2" d="M844.31,346.42l.05-.05a401.48,401.48,0,0,0,.41-43.19L739.34,243.57q-.55,8.67-.47,17.84a144.84,144.84,0,0,0,2.87,26Z"/><path class="cls-2" d="M992.76,390.65l-38.83,21.27c-6.69,13-14.61,27.44-23.66,42.26l61.24-28.33-.1.87a131.19,131.19,0,0,0,1.39-36.91Z"/><path class="cls-2" d="M955.1,409.63,992.71,389c-1.58-12.64-5.48-23.76-11.87-32.54-.33-.45-.68-.9-1-1.34C978.39,358.87,969.84,380.65,955.1,409.63Z"/><path class="cls-2" d="M950.29,520.26l-.3.93q5.5-7.55,10.35-15.37l-79.27,16.42.12-.43q-3.69,4.2-7.42,8.19Z"/><path class="cls-2" d="M977.1,473.42l-.21.91a207.26,207.26,0,0,0,14.36-46.7L928.84,456.5Q916,477.29,902.56,495.33Z"/><path class="cls-2" d="M894.47,352.77a172.28,172.28,0,0,0-27.72,21.1l41,112.27c7.57-10.59,14.42-21.06,20.5-30.93L893.76,353.45Z"/><path class="cls-2" d="M857.1,383.38l.7-.7,43.08,112.88q2.88-3.82,5.63-7.65L865.33,375.22l.7-.69Q861.53,378.73,857.1,383.38Z"/><path class="cls-2" d="M961.22,503.88l-.26.93a247.9,247.9,0,0,0,15.5-29.49l-75.54,22.21q-9,12-18.31,22.64Z"/><path class="cls-2" d="M843.5,558.38c-16.51,13.36-33.31,23.56-50.22,30.46,15.84-.23,80.45-3.22,126-36.06Z"/><path class="cls-2" d="M829.15,421.54a240.33,240.33,0,0,0-12.82,29.34l.81-.72,27.07,105.89a297.87,297.87,0,0,0,26.08-24.28Z"/><path class="cls-2" d="M954.05,409.11c15.94-31.36,24.56-54.17,24.68-54.5h.65c-10.33-12.87-25.15-18.3-42.15-17Z"/><path class="cls-2" d="M871.84,532l-2.33,2.45A297,297,0,0,1,846,556.37l75.1-5.55-.32.91a117.12,117.12,0,0,0,21.44-20.35q3.66-4.53,7.09-9.2Z"/><path class="cls-2" d="M929.49,453.23c8.94-14.66,16.75-28.89,23.36-41.78l-17.19-73.14.72-.62c-12.84,1.16-26.87,6.13-41.13,14.62Z"/><path class="cls-2" d="M842.74,557.24,815.87,452.13C794.19,512.41,789.93,584,789.68,588.6,808.67,581.42,826.42,570.43,842.74,557.24Z"/><path class="cls-2" d="M871.65,530.27h.07a400.4,400.4,0,0,0,27.87-33L856.41,384.1q-6,6.33-11.75,13.45a143.4,143.4,0,0,0-14.38,21.86Z"/><path class="cls-2" d="M732,324.23l-2.82,44.19c7.43,12.63,15.36,27,23,42.6L761,344.13l.68.55a131.87,131.87,0,0,0-30.43-20.94Z"/><path class="cls-2" d="M727.83,366.2l2.73-42.8c-11.52-5.43-23-8.09-33.83-7.38-.57,0-1.12.09-1.68.14C697.43,319.36,711.24,338.23,727.83,366.2Z"/><path class="cls-3" d="M607.05,586.43h-111L323,350.33v236.1H209v-420H320l173.1,236.1V166.43h114Z"/><path class="cls-2" d="M818.7,429.48l.63.76q-3.44-8.69-7.45-17L783.32,489l-.3-.34q1.58,5.38,2.94,10.65Z"/><path class="cls-2" d="M793.48,381.77l.67.67a207.45,207.45,0,0,0-31.76-37.14l-9,68.17q10.68,22,18.72,43Z"/><path class="cls-2" d="M647.35,387a172.7,172.7,0,0,0,3,34.71l116.79,25.44c-4.89-12.07-10.06-23.46-15.15-33.88L647.54,387.94Z"/><path class="cls-2" d="M653.2,434.92l-.22-1,118.4,24q-1.7-4.49-3.44-8.85L650.71,423.61l-.21-1Q651.64,428.7,653.2,434.92Z"/><path class="cls-2" d="M810.72,411.49l.64.72a246.8,246.8,0,0,0-16.61-28.88L773.07,459q5.28,14.06,9.32,27.59Z"/><path class="cls-2" d="M793.73,540.09c2.45,21.1,2.07,40.75-1.16,58.73,8.29-13.5,40.35-69.68,37-125.76Z"/><path class="cls-2" d="M670.47,479a238.9,238.9,0,0,0,17.91,26.53l-.17-1.06,103.93,33.82a297.57,297.57,0,0,0-6.55-35Z"/><path class="cls-2" d="M726.83,366.82c-18-30.26-32.61-49.75-32.82-50l.34-.56c-16.41,1.84-28.92,11.46-36.91,26.51Z"/><path class="cls-2" d="M786.65,502.06c.28,1.09.56,2.19.82,3.28a297.31,297.31,0,0,1,5.88,31.6l35.51-66.4.6.75a117.2,117.2,0,0,0-5.71-29q-1.86-5.52-4-10.91Z"/><path class="cls-2" d="M751,411.18c-7.6-15.4-15.44-29.62-22.78-42.11l-71-24.62-.15-.95c-5.89,11.46-9.2,26-9.67,42.57Z"/><path class="cls-2" d="M792.36,540.12,689.2,506.55c39.3,50.58,97.52,92.52,101.24,95.18C794.55,581.85,794.76,561,792.36,540.12Z"/><path class="cls-2" d="M785.05,501.27l0-.07a401.5,401.5,0,0,0-13-41.2L653.44,435.9q2.14,8.42,5.07,17.11a143.64,143.64,0,0,0,10.76,23.86Z"/><path class="cls-1" d="M677.31,585.16q121.16-1.42,242.32,1.64c7,.17,14.16.4,20.3,2.24s10.86,5.79,9.18,9.58q-47.29,1.39-94.69.86c-6.88,3.38-14.44,8.45-10.21,13,2.93,3.14,10.15,4.08,16.47,4.09,11.44,0,22.93-1.87,34.2-.77s22.51,7,19.21,13.19c-2.5,4.67-12,7-20.67,7.4s-17.52-.45-26,.66c-8,1.05-15,3.78-22.53,5.69-11.87,3-25,3.94-38,4.73-99.42,6.07-199.66,6-299.66,6-40.49,0-81.52-.08-120.62-6-22.28-3.37-43.64-8.6-66.2-11.32-27-3.24-54.82-2.8-82.38-2.7q-72.59.26-145-2.8c-3.6-.15-8-.67-9-2.62-1.13-2.27,3.46-4,7.34-5a427.11,427.11,0,0,1,66.93-10c11.42-.8,23.18-1.21,33.68-3.85s19.67-8.19,19.57-14.65c0-2-.86-4.08.78-5.82,2.19-2.32,7.56-2.85,12.2-3.1,51.42-2.79,103.11-4,154.76-3.49,18.17.16,36.41.53,54.45-.69,14.78-1,29.26-3.07,43.83-4.79,19.55-2.32,104.64-14.34,117.06-4.59,9.29,7.3-9.9,8.87,15,11.85C631.36,586.54,655.3,585.42,677.31,585.16Z"/><circle class="cls-4" cx="632.65" cy="283.41" r="48"/><circle class="cls-4" cx="684.65" cy="220.21" r="48"/><path class="cls-4" d="M726.06,260a48,48,0,0,1-74.13-25.21,48,48,0,1,0,93.64-19.68A48,48,0,0,1,726.06,260Z"/><circle class="cls-5" cx="620.25" cy="302.21" r="39.2"/><path class="cls-5" d="M606.65,334.21s16,24,13.6,34.4c0,0-10.4,4.8-10.4,6.4s-9.6,16.8-9.6,16.8L589.05,407l-4.8,20h23.2l25.6-20,24.8-27.2s16.8-8,25.6-1.6l4.8,4s-16.8-22.4-24.8-27.2c0,0-14.4-17.6-12.8-35.2Z"/><path class="cls-5" d="M613.05,367.81s-16,8.8-22.4,25.6-35.2,72.8-35.2,72.8-2.4,36-.8,37.6,20-16,23.2-20.8,16-62.4,16-62.4l20.8-33.6,4-19.2Z"/><path class="cls-5" d="M562.65,468.61l-7.2-2.4s-44-27.2-46.4-39.2-37.6-52-38.4-30.4,25.6,45.6,25.6,45.6,57.6,80.8,60.8,57.6Z"/><path class="cls-5" d="M635.45,413.41s.8,22.4,32,30.4c0,0,32,43.2,35.2,62.4s87.2,117.6,87.2,117.6,77.6,9.6,77.6,0-64.8-17.6-64.8-17.6-68-100.8-71.2-114.4-33.6-114.4-48-113.6c0,0-13.6-6.4-21.6-1.6S635.45,413.41,635.45,413.41Z"/><path class="cls-5" d="M541.85,503.81s-56-75.2-68-80-27.2-8-36,3.2-112.8,142.4-112.8,142.4-36.8,37.6-55.2,30.4c0,0-9.6,8,12.8,9.6s43.2-4.8,43.2-4.8,13.6,2.4,23.2,4.8,21.6,3.2,20.8-3.2l-3.2-25.6s82.4-68,84.8-96.8c0,0-1.6-13.6,0-12s35.2,37.6,50.4,45.6,52.8,19.2,52.8,19.2Z"/><path class="cls-6" d="M541.85,503.81s-56-75.2-68-80-27.2-8-36,3.2-112.8,142.4-112.8,142.4-36.8,37.6-55.2,30.4c0,0-9.6,8,12.8,9.6s43.2-4.8,43.2-4.8,13.6,2.4,23.2,4.8,21.6,3.2,20.8-3.2l-3.2-25.6s82.4-68,84.8-96.8c0,0-1.6-13.6,0-12s35.2,37.6,50.4,45.6,52.8,19.2,52.8,19.2Z"/><path class="cls-5" d="M550.65,514.21s-73.6-28-83.2-34.4-44-19.2-61.6-4.8-103.2,80.8-132,87.2-78.4,21.6-78.4,21.6-32,2.4,2.4,16c0,0,42.4,4,49.6,10.4s31.2,14.4,32.8,4,6.4-24,15.2-25.6,114.4-30.4,130.4-61.6c0,0,36,20,58.4,43.2s75.2,36,75.2,36Z"/><path class="cls-7" d="M577.05,488.61s-35.07,9.32-37.93,5.86-18.07,15.74-3.67,54.14,11.2,56,19.2,61.6,45.6-3.2,56.8.8,25.6,7.2,30.4-16,16.8-64,14.4-69.6-15.2-18.4-15.2-18.4l-26.4-13.6Z"/><path class="cls-4" d="M698.25,398.61s-5.57-15.6-15.91-18.53a26.76,26.76,0,0,1-2.58-.84c-3.88-1.54-15.73-4.91-24.31,7-10.4,14.4-20,31.2-12,40.8s24,15.2,24,15.2l12,15.2s-24,43.2-24,63.2c0,0-.8,8-14.4-6.4s-69.25-24.36-69.25-24.36,11.65-15.64,2.85-22.84-16.85-35.88,4-47.14l35.63-52.46,6.4.8s-8.4,7.6-9.2,11.6-32.8,32-20,36.8,33.6-5.6,42.4-17.6c4.84-6.6,11.62-15.62,20.2-21.34a29.91,29.91,0,0,1,29.92-1.6l2.68,1.34h0A34.3,34.3,0,0,1,698.5,392l1,2.22Z"/><circle class="cls-4" cx="645.45" cy="291.41" r="35.2"/><ellipse class="cls-4" cx="615.85" cy="278.21" rx="31.2" ry="24.4"/><ellipse class="cls-5" cx="627.45" cy="316.61" rx="5.2" ry="9.2"/><path class="cls-8" d="M636.25,235.7v63.71h-18.4V235.7a4.29,4.29,0,0,1,4.29-4.29H632A4.29,4.29,0,0,1,636.25,235.7Z"/><circle class="cls-2" cx="627.05" cy="312.21" r="20"/><circle class="cls-1" cx="627.05" cy="312.21" r="8.8"/><circle class="cls-8" cx="627.05" cy="312.21" r="2.4"/><path class="cls-6" d="M636.25,235.7v2.91h-18.4V235.7a4.29,4.29,0,0,1,4.29-4.29H632A4.29,4.29,0,0,1,636.25,235.7Z"/><path class="cls-4" d="M422.54,393.53l47.1-47.11a8.79,8.79,0,0,1,12.43,0h0l42.37,42.38a8.78,8.78,0,0,1,0,12.42l-44,44a8.79,8.79,0,0,1-12,.44L423,406.39a8.79,8.79,0,0,1-.9-12.39A4.89,4.89,0,0,1,422.54,393.53Z"/><polygon class="cls-1" points="435.85 401.01 477.05 359.81 511.05 393.81 471.45 433.41 435.85 401.01"/><circle class="cls-2" cx="474.25" cy="396.21" r="19.69"/><path class="cls-6" d="M465.49,413a19.69,19.69,0,0,1,20.06-32.91A19.69,19.69,0,0,0,463,412.34a19.9,19.9,0,0,0,4.72,2.43A20.76,20.76,0,0,1,465.49,413Z"/><path class="cls-1" d="M483.93,392.3c2.35,2.2,2.47,10.15-1.11,14s-9.52,2.06-11.87-.15-.22-4,3.37-7.84S481.58,390.09,483.93,392.3Z"/><circle class="cls-4" cx="463.94" cy="396.53" r="5.83"/><circle class="cls-4" cx="474.43" cy="385.37" r="5.83"/><circle class="cls-1" cx="463.94" cy="396.53" r="1.46"/><circle class="cls-1" cx="463.32" cy="392.94" r="0.73"/><circle class="cls-1" cx="473.8" cy="381.78" r="0.73"/><circle class="cls-1" cx="474.43" cy="385.37" r="1.46"/></svg>