<svg height="50" viewBox="0 0 231 50" width="231" xmlns="http://www.w3.org/2000/svg" xmlns:xlink="http://www.w3.org/1999/xlink"><linearGradient id="a" x1="50%" x2="50%" y1="0%" y2="100%"><stop offset="0" stop-opacity="0"/><stop offset="1"/></linearGradient><filter id="b" height="167.1%" width="111.1%" x="-5.6%" y="-33.5%"><feGaussianBlur in="SourceGraphic" stdDeviation="4"/></filter><path d="m806.539 277.27c-33.764 0-59.203 1.507-73.966 4.11-15.936 2.81-22.18 6.19-22.18 10.054 0 6.126 17.575 12.695 42.113 17.023 6.407 1.13 28.537 4.601 57.507 4.601 29.64 0 51.676-3.193 65.526-5.636 26.795-4.726 51.06-12.874 51.06-18.186 0-2.987-7.72-5.026-13.626-6.068-23.288-4.107-73.32-5.898-106.434-5.898" fill="url(#a)" fill-opacity=".4" fill-rule="evenodd" filter="url(#b)" transform="translate(-703 -272)"/></svg>