<?xml version="1.0" encoding="utf-8"?>
<!-- Generator: Adobe Illustrator 21.1.0, SVG Export Plug-In . SVG Version: 6.00 Build 0)  -->
<svg version="1.1" id="Layer_1" xmlns="http://www.w3.org/2000/svg" xmlns:xlink="http://www.w3.org/1999/xlink" x="0px" y="0px"
	 viewBox="0 0 80 80" enable-background="new 0 0 80 80" xml:space="preserve">
<g id="Pipeline">
	<g id="NL_pipeline_actions" transform="translate(-912.000000, -911.000000)">
		<g id="icons_x2F_actions_x2F_php" transform="translate(896.000000, 883.000000)">
			<g id="php" transform="translate(16.000000, 28.000000)">
				<ellipse id="Oval" fill="#6181B6" cx="40" cy="40.2" rx="24" ry="12.2"/>
				<g id="Group" transform="translate(6.634146, 2.731707)">
					<path id="Shape" fill="#FFFFFF" d="M23,33.7c1.1,0,1.8,0.2,2.2,0.6s0.4,1.1,0.3,2.1c-0.2,1-0.6,1.8-1.2,2.2
						c-0.6,0.4-1.4,0.6-2.6,0.6H20l1.1-5.5H23z M16,44.8h2.9l0.7-3.5H22c1.1,0,2-0.1,2.7-0.4c0.7-0.2,1.3-0.6,1.9-1.2
						c0.5-0.4,0.9-0.9,1.2-1.5s0.5-1.1,0.6-1.8c0.3-1.6,0.1-2.8-0.7-3.6c-0.8-0.9-2-1.3-3.6-1.3h-5.5L16,44.8z"/>
					<path id="Shape_1_" fill="#FFFFFF" d="M30.5,28.1h2.8l-0.7,3.5h2.5c1.6,0,2.7,0.3,3.3,0.8s0.8,1.5,0.5,2.7l-1.2,6.1H35l1.1-5.8
						c0.1-0.7,0.1-1.1-0.1-1.3s-0.7-0.4-1.4-0.4h-2.3l-1.5,7.6h-2.8L30.5,28.1z"/>
					<path id="Shape_2_" fill="#FFFFFF" d="M45.4,33.7c1.1,0,1.8,0.2,2.2,0.6s0.4,1.1,0.3,2.1c-0.2,1-0.6,1.8-1.2,2.2
						s-1.4,0.6-2.6,0.6h-1.7l1.1-5.5H45.4z M38.4,44.8h2.9l0.7-3.5h2.5c1.1,0,2-0.1,2.7-0.4s1.3-0.6,1.9-1.2
						c0.5-0.4,0.9-0.9,1.2-1.5c0.3-0.5,0.5-1.1,0.6-1.8c0.3-1.6,0.1-2.8-0.7-3.6c-0.8-0.9-2-1.3-3.6-1.3h-5.5L38.4,44.8z"/>
				</g>
			</g>
		</g>
	</g>
</g>
</svg>
