<svg id="Layer_1" data-name="Layer 1" xmlns="http://www.w3.org/2000/svg" xmlns:xlink="http://www.w3.org/1999/xlink" viewBox="0 0 716.21 618.63"><defs><style>.cls-1{fill:url(#linear-gradient);}.cls-2{fill:url(#linear-gradient-2);}.cls-3{fill:url(#linear-gradient-3);}.cls-4{opacity:0.25;}.cls-5{fill:#00004d;}.cls-41,.cls-6{fill:#ddeaf8;}.cls-7{fill:#dedede;}.cls-8{fill:url(#linear-gradient-4);}.cls-9{fill:url(#linear-gradient-5);}.cls-10{fill:#949494;}.cls-11{fill:#4aafff;}.cls-12{fill:#fff;}.cls-13{fill:#e0e0e0;}.cls-14{fill:url(#linear-gradient-6);}.cls-15{fill:#5c30f1;}.cls-16{fill:#b8b8b8;}.cls-17{fill:#d9d9d9;}.cls-18{fill:#1d3b54;}.cls-19{fill:#eea886;}.cls-20{fill:#fce3cc;}.cls-21{fill:#537efd;}.cls-22{fill:#a77860;}.cls-23{fill:#3a5bb5;}.cls-24{fill:#ffa255;}.cls-25{fill:#ffbd55;}.cls-26{fill:#ffd055;}.cls-27{fill:#1a598c;}.cls-28{fill:#2273b5;}.cls-29{fill:url(#linear-gradient-7);}.cls-30{fill:url(#linear-gradient-8);}.cls-31{fill:url(#linear-gradient-9);}.cls-32{fill:#22253b;}.cls-33{fill:#2d314f;}.cls-34{fill:#2b3b57;}.cls-35{fill:#ffc655;}.cls-36{fill:#353a3d;}.cls-37{fill:#d4d8e8;}.cls-38{fill:#e55353;}.cls-39{fill:#f5f7ff;}.cls-40{fill:#ff9f55;}.cls-41,.cls-42,.cls-43,.cls-44,.cls-45{fill-rule:evenodd;}.cls-42{fill:url(#linear-gradient-10);}.cls-43{fill:url(#linear-gradient-11);}.cls-44{fill:url(#linear-gradient-12);}.cls-45{fill:url(#linear-gradient-13);}.cls-46{stroke-miterlimit:10;stroke-width:8px;fill:url(#linear-gradient-14);stroke:url(#linear-gradient-15);}</style><linearGradient id="linear-gradient" x1="309.08" y1="329.89" x2="729.07" y2="749.87" gradientUnits="userSpaceOnUse"><stop offset="0" stop-color="#5c30f1"/><stop offset="1" stop-color="#00004d"/></linearGradient><linearGradient id="linear-gradient-2" x1="25.5" y1="619.2" x2="720.47" y2="537.95" gradientTransform="matrix(-0.7, -0.65, 0.7, -0.71, 314.36, 1150.59)" gradientUnits="userSpaceOnUse"><stop offset="0" stop-color="#5c30f1"/><stop offset="0.07" stop-color="#673ff2" stop-opacity="0.92"/><stop offset="0.42" stop-color="#9988f4" stop-opacity="0.53"/><stop offset="0.7" stop-color="#bebdf6" stop-opacity="0.24"/><stop offset="0.9" stop-color="#d4ddf8" stop-opacity="0.07"/><stop offset="1" stop-color="#ddeaf8" stop-opacity="0"/></linearGradient><linearGradient id="linear-gradient-3" x1="600.47" y1="165.68" x2="715.37" y2="165.7" gradientTransform="translate(797.51 -568.32) rotate(98.59)" xlink:href="#linear-gradient"/><linearGradient id="linear-gradient-4" x1="321.1" y1="525.48" x2="545.05" y2="525.48" gradientTransform="translate(866.15 1050.97) rotate(-180)" gradientUnits="userSpaceOnUse"><stop offset="0" stop-color="#fff"/><stop offset="1" stop-color="#f2f5ff"/></linearGradient><linearGradient id="linear-gradient-5" x1="581.43" y1="453.92" x2="302.29" y2="453.92" gradientTransform="translate(866.15 907.83) rotate(-180)" gradientUnits="userSpaceOnUse"><stop offset="0" stop-color="#00bf9a"/><stop offset="0.06" stop-color="#00c49f"/><stop offset="0.37" stop-color="#00d7b3"/><stop offset="0.69" stop-color="#00e3bf"/><stop offset="1" stop-color="#00e7c3"/></linearGradient><linearGradient id="linear-gradient-6" x1="329.43" y1="504.59" x2="469.6" y2="504.59" gradientTransform="matrix(1, 0, 0, 1, 0, 0)" xlink:href="#linear-gradient-5"/><linearGradient id="linear-gradient-7" x1="323.4" y1="275.41" x2="327.68" y2="275.41" xlink:href="#linear-gradient"/><linearGradient id="linear-gradient-8" x1="337.97" y1="260.85" x2="342.25" y2="260.85" xlink:href="#linear-gradient"/><linearGradient id="linear-gradient-9" x1="308.81" y1="267.3" x2="313.09" y2="267.3" xlink:href="#linear-gradient"/><linearGradient id="linear-gradient-10" x1="666.65" y1="520.78" x2="724.46" y2="520.78" gradientTransform="matrix(1, 0, 0, 1, 0, 0)" xlink:href="#linear-gradient-5"/><linearGradient id="linear-gradient-11" x1="666.59" y1="535.34" x2="709.17" y2="535.34" gradientTransform="matrix(1, 0, 0, 1, 0, 0)" xlink:href="#linear-gradient-5"/><linearGradient id="linear-gradient-12" x1="715.75" y1="535.34" x2="756.16" y2="535.34" gradientTransform="matrix(1, 0, 0, 1, 0, 0)" xlink:href="#linear-gradient-5"/><linearGradient id="linear-gradient-13" x1="729.61" y1="520.78" x2="756.16" y2="520.78" gradientTransform="matrix(1, 0, 0, 1, 0, 0)" xlink:href="#linear-gradient-5"/><linearGradient id="linear-gradient-14" x1="598.24" y1="438.86" x2="629.24" y2="430.9" gradientUnits="userSpaceOnUse"><stop offset="0" stop-color="#00004d" stop-opacity="0"/><stop offset="0.13" stop-color="#0a055e" stop-opacity="0.11"/><stop offset="0.42" stop-color="#23128b" stop-opacity="0.38"/><stop offset="0.82" stop-color="#4a27d1" stop-opacity="0.81"/><stop offset="1" stop-color="#5c30f1"/></linearGradient><linearGradient id="linear-gradient-15" x1="778.83" y1="637.84" x2="818.83" y2="637.84" gradientTransform="matrix(0.65, -0.76, 0.76, 0.65, -391.26, 627.64)" gradientUnits="userSpaceOnUse"><stop offset="0" stop-color="#00e7c3"/><stop offset="0.14" stop-color="#00e7c3" stop-opacity="0.84"/><stop offset="0.57" stop-color="#00e7c3" stop-opacity="0.39"/><stop offset="0.86" stop-color="#00e7c3" stop-opacity="0.11"/><stop offset="1" stop-color="#00e7c3" stop-opacity="0"/></linearGradient></defs><title>reporting</title><path class="cls-1" d="M806.09,488.46c-87.42,144,12,373-305,305-164.7-35.33-376.22,14-305-305,48-215,236.82-53.69,322-199C586.09,173.46,908.09,320.46,806.09,488.46Z" transform="translate(-181.89 -239.81)"/><path class="cls-2" d="M747.75,747.46c-157.52-5.08-284.8,119.8-483.93-67.17-132.18-124.1-95.94-317.21,198.29-407.57C604.36,229,561,475.61,773.59,426.63,894.9,398.69,989.74,755.28,747.75,747.46Z" transform="translate(-181.89 -239.81)"/><circle class="cls-3" cx="535.37" cy="57.45" r="57.45"/><g class="cls-4"><path class="cls-5" d="M386.3,781l72,77.22a77.72,77.72,0,0,0,9,.17L386.77,772A77.81,77.81,0,0,0,386.3,781Z" transform="translate(-181.89 -239.81)"/><path class="cls-5" d="M388.61,799.36l51.51,55.26a78.68,78.68,0,0,0,11.48,2.78l-65-69.69A79.63,79.63,0,0,0,388.61,799.36Z" transform="translate(-181.89 -239.81)"/><path class="cls-5" d="M477,703.5l65,69.68a78.53,78.53,0,0,0-2-11.65l-51.51-55.25A77.41,77.41,0,0,0,477,703.5Z" transform="translate(-181.89 -239.81)"/><path class="cls-5" d="M497.92,710.06l38.95,41.78a78,78,0,0,0-38.95-41.78Z" transform="translate(-181.89 -239.81)"/><path class="cls-5" d="M407.23,833.64a77.82,77.82,0,0,0,23.44,17.19l-38.94-41.77A77.86,77.86,0,0,0,407.23,833.64Z" transform="translate(-181.89 -239.81)"/><path class="cls-5" d="M461.27,702.52l80.55,86.41a77.75,77.75,0,0,0,.47-9l-72-77.23A77.93,77.93,0,0,0,461.27,702.52Z" transform="translate(-181.89 -239.81)"/><path class="cls-5" d="M416.91,718.49,522.78,832.07c1.46-1.66,2.83-3.37,4.13-5.11L422.29,714.73C420.46,715.9,418.66,717.14,416.91,718.49Z" transform="translate(-181.89 -239.81)"/><path class="cls-5" d="M411.11,723.39c-.8.74-1.57,1.5-2.33,2.27l106.27,114c.82-.71,1.64-1.42,2.44-2.16s1.56-1.51,2.32-2.28l-106.27-114C412.72,721.93,411.9,722.64,411.11,723.39Z" transform="translate(-181.89 -239.81)"/><path class="cls-5" d="M401.68,733.93,506.3,846.17c1.83-1.18,3.63-2.42,5.38-3.76L405.81,728.83C404.35,730.48,403,732.19,401.68,733.93Z" transform="translate(-181.89 -239.81)"/><path class="cls-5" d="M395.67,743.37l100.8,108.14c2-.93,4.06-1.94,6-3.06L399.14,737.56Q397.27,740.4,395.67,743.37Z" transform="translate(-181.89 -239.81)"/><path class="cls-5" d="M426.08,712.44l103.37,110.9q1.88-2.85,3.48-5.81L432.12,709.39C430.08,710.31,428.06,711.33,426.08,712.44Z" transform="translate(-181.89 -239.81)"/><path class="cls-5" d="M436.39,707.6,535,813.4c1-2.17,1.92-4.38,2.72-6.62L443.18,705.36C440.89,706,438.62,706.75,436.39,707.6Z" transform="translate(-181.89 -239.81)"/><path class="cls-5" d="M448,704.16l91.26,97.91q1.08-3.78,1.79-7.62l-85.33-91.54C453.12,703.2,450.54,703.62,448,704.16Z" transform="translate(-181.89 -239.81)"/><path class="cls-5" d="M390.87,754.12l94.54,101.42q3.43-1,6.8-2.25L393.59,747.5Q392.08,750.75,390.87,754.12Z" transform="translate(-181.89 -239.81)"/><path class="cls-5" d="M387.55,766.44,472.88,858a77.52,77.52,0,0,0,7.72-1.24l-91.26-97.91Q388.26,762.6,387.55,766.44Z" transform="translate(-181.89 -239.81)"/></g><path class="cls-6" d="M737.52,621.35c-.82-.13-1.66-.11-2.49-.21s-1.6-.11-2.4-.16c-1.75-.11-3.49,0-5.25,0-1.36,0-2.76,0-4.12.1l.41-.15a25.21,25.21,0,0,1,3.88-1.05,3.76,3.76,0,0,1,.6.71c.06.09.23,0,.19-.07l-.12-.29.62.37a.07.07,0,0,0,.08-.11,6.41,6.41,0,0,0-.55-.49c.5.11,1,.2,1.5.32a16.47,16.47,0,0,0,2.06.45c.17,0,.19-.21.08-.28a10,10,0,0,0-1.88-.94c2.32-.18,4.66-.13,7-.18a.16.16,0,0,0,0-.32c-2.17-.09-4.34-.11-6.51,0l-1.74.07-.51-.15c-.64-.18-1.28-.33-1.93-.47.75-.13,1.51-.23,2.27-.31,1.22-.12,2.45-.23,3.67-.29a25.82,25.82,0,0,0,3.74-.24.16.16,0,0,0,0-.31,10.89,10.89,0,0,0-3.37-.34c-.81,0-1.62,0-2.42.09l.4-.19,2.58-.91c1.15-.41,2.33-.7,3.46-1.13a.2.2,0,0,0-.1-.38c-1.06.22-2.1.57-3.16.81s-2.14.42-3.21.64c-2.15.43-4.37.33-6.46,1.08-.59.21-1.17.44-1.75.64l-.3,0-1.26-.16,1.28-.48c.67-.26,1.07-.63,1.65-.86s1.1-.56,1.67-.78,1.28-.49,1.92-.7c1.35-.45,2.76-.77,4.13-1.12a7.44,7.44,0,0,1,4.28-.14.3.3,0,0,0,.3-.5,3.82,3.82,0,0,0-3.31-.68,31.54,31.54,0,0,0-3.93.92c-1.31.36-2.6.75-3.92,1.08a28.18,28.18,0,0,0-4,.95c-1.89.74-3.77,1.58-5.6,2.51a15.41,15.41,0,0,0-4.8,2.73q-1.85,1.19-3.59,2.5c-.36.27-.71.56-1.06.84l-.68.49c-.43.31-.83.61-1.22.93,1.07-1.21,2.18-2.4,3.27-3.58,2.07-2.2,4.15-4.38,6.3-6.5,2.42-2.4,5.11-4.6,7.33-7.18.06-.07,0-.19-.1-.13a39.55,39.55,0,0,0-6.73,5.73c-2.14,2.08-4.21,4.21-6.25,6.38-1.39,1.49-2.77,3-4.17,4.48a2.13,2.13,0,0,1-.56.1l-.19-.05a.09.09,0,0,0-.09,0,3.27,3.27,0,0,0-2.46.48,1.88,1.88,0,0,0-1.34-.32,2.67,2.67,0,0,0-1.63.09.22.22,0,0,0-.34-.16c-.81.45-1.89.77-2.37,1.64a6.72,6.72,0,0,0-.65,1.81,4.17,4.17,0,0,0-.86.3,3.29,3.29,0,0,0-.7,0,.48.48,0,0,0-.41.1,1.53,1.53,0,0,0-.78.87c-.12.26-.22.53-.32.79a3.16,3.16,0,0,0-.16.43s0,0,0,0c-.06.21-.11.41-.16.61a4.82,4.82,0,0,0-.55,2,10.81,10.81,0,0,0,.53,2.82c0,.15.07.29.11.43a4.21,4.21,0,0,0,.16,1.48.21.21,0,0,0,.27.13c.06.21.11.42.17.63a12.9,12.9,0,0,0-1,1.65l-.14.11a.13.13,0,0,0,0-.06,15,15,0,0,0,.06-4.24l.09-.09s0,.08,0,0,0-.27-.15-.22c-.06-.54-.14-1.07-.22-1.6l-.06-.34v0a5.09,5.09,0,0,0,.07-1.23.24.24,0,0,0,0-.35c0-.09,0-.18,0-.27,0-.33-.12-.82-.52-.89a.39.39,0,0,0-.44.22.88.88,0,0,0-.72.17,3.88,3.88,0,0,0-1.45,1.78c-.22.72.32,1.76.52,2.45.28.93.58,1.86.85,2.8l.42,1.42c.15.47.21.85.64,1.11a.2.2,0,0,0,.11,0,2.66,2.66,0,0,0-.41.62.2.2,0,0,0,0,.21c-.3.35-.59.72-.87,1.09a4.42,4.42,0,0,0,0-.63.22.22,0,0,0,0-.36l-.07-.06c0-.12,0-.24,0-.36a3,3,0,0,0-.38-1.34,7.29,7.29,0,0,0-.53-.58,1.37,1.37,0,0,1-.2-.29c0-.1-.07-.21-.11-.31l-.09-.34a12,12,0,0,0-.51-1.57,6.34,6.34,0,0,0-1.64-2.44,1.5,1.5,0,0,0-1.1-.54,4,4,0,0,0-1.58.58.39.39,0,0,0,.09.71c.71.25,1,1.21,1.22,1.83a16.2,16.2,0,0,0,1.22,2.24c.45.68,1,1.34,1.46,2l.48.59a17.15,17.15,0,0,0-.93,1.46c-.19-.6-.4-1.18-.63-1.73l-.28-.66a6,6,0,0,0,.08-1,.15.15,0,0,0-.27-.08c-.06.11-.11.21-.16.32a23.93,23.93,0,0,0-1.12-2.27c-1.21-2.13-3.43-4.12-6-3.85a.44.44,0,0,0-.39.3,11.94,11.94,0,0,0-1,3.58c-.37-.56-.75-1.13-1.11-1.7a13.62,13.62,0,0,0-2.72-3.58,5.16,5.16,0,0,0-4.38-2.38.11.11,0,0,0,0,.21c4.15,1,4.58,5.91,6.36,9a43.3,43.3,0,0,0,2.74,4.12c-.21.52-.4,1-.57,1.55q-.15.43-.27.87l-.2-.51a57.36,57.36,0,0,0-2.88-6.69,33.05,33.05,0,0,0-4.46-5.36c-1.3-1.45-2.7-3-4.7-3.36a.11.11,0,0,0-.08,0l-.13,0a.14.14,0,0,0-.1.26,7.06,7.06,0,0,1,2.22,1.92A10.31,10.31,0,0,1,666.3,635q1.14,3,2.48,6c1,2.15,2,4.28,3.07,6.37.53,1,1.08,2,1.65,3,.21.36.41.73.63,1.09l-.09.29c-.11.35-.21.69-.3,1l-.09-.15a14,14,0,0,0-2.76-4.31,47.17,47.17,0,0,0-3.42-4.38,11.56,11.56,0,0,0-4.85-3.44c-.23-.44-.45-.88-.64-1.34-.07-.15-.25-.09-.31,0l0-.1a.08.08,0,0,0-.16,0,4.35,4.35,0,0,0-.19,1.05,10.72,10.72,0,0,0-4.58.08,8.64,8.64,0,0,0-5.21,3.28c-.11.15.12.31.25.19a11.88,11.88,0,0,1,4.48-2.55c.2.45.38.92.62,1.36s.62,1.13.95,1.69c.62,1.08,1.26,2.14,1.87,3.23-.25-.05-.5-.09-.76-.12h-.08c-.63-.83-1.29-1.64-2-2.41-.1-.12-.27,0-.21.16.38.75.8,1.48,1.23,2.2a15.86,15.86,0,0,0-2.05.16,8.76,8.76,0,0,0-4.58,1.63,12.67,12.67,0,0,0-3.05,3.81c-.08.13.11.29.21.16a27.28,27.28,0,0,1,2.93-3.32,8.65,8.65,0,0,1,5-1.73,12.73,12.73,0,0,1,2-.08c.68,1.08,1.4,2.14,2.11,3.2,1.28,1.91,2.57,3.82,3.88,5.71.39.58.8,1.15,1.2,1.71.19.42.39.83.59,1.24.27.69.48,1.38.71,2.09a5.86,5.86,0,0,0,1,1.74,4.14,4.14,0,0,0,.76,1c.41.62.78,1.25,1.13,1.9-.76-.31-1.53-.6-2.28-.95-.21-.31-.43-.62-.67-.92a15.52,15.52,0,0,0-2.81-2.62,31.47,31.47,0,0,1-5.49-5.33c-.89-1.12-1.72-2.3-2.51-3.49a18.87,18.87,0,0,0-2.44-3.41.07.07,0,0,0-.12.06,14,14,0,0,0,1.7,3.2c.62,1,1.28,2,2,3,.51.75,1,1.49,1.58,2.21a10.56,10.56,0,0,0,1.43,2c-.67-.44-1.35-.85-2.07-1.23-.83-.93-1.67-1.85-2.51-2.76s-1.95-2-2.88-3c-.07-.08-.18,0-.11.11.74.9,1.4,1.87,2.15,2.77l1.66,2c-1.88-.89-3.82-1.7-5.77-2.4a16,16,0,0,0-6.68-1.09,45.21,45.21,0,0,0-3.56-2.88c-.18-.14-.4.15-.24.31.9.88,1.79,1.79,2.65,2.72l-.56.13a.07.07,0,0,0,0,.13l.69-.1c1.68,1.83,3.29,3.75,4.77,5.72l.19.27a7.32,7.32,0,0,0-1.45-.8.09.09,0,0,0-.1,0,11.46,11.46,0,0,0-1-1,3.19,3.19,0,0,0-1.37-2.18c-.9-.57-1.8-1.1-2.7-1.66-1.84-1.42-3.75-2.75-5.68-4.06-.52-.41-1-.82-1.52-1.25-.84-.73-1.61-1.51-2.4-2.29s-1.72-1.61-2.54-2.44a.12.12,0,0,0-.19.14,35.18,35.18,0,0,0,8.36,9.1,45.17,45.17,0,0,0,5.15,3.43,3,3,0,0,1,1.1.77,1.93,1.93,0,0,1,.19.46l-.33-.17c-1.45-.75-2.86-1.58-4.26-2.42s-2.64-1.65-3.93-2.51-2.85-1.73-4.15-2.74c-.12-.1-.29.07-.17.17,1.21,1,2.35,2.08,3.64,3s2.7,1.85,4.07,2.75,2.78,1.85,4.09,2.86c.58.44,1.18.84,1.77,1.27a9.69,9.69,0,0,0,.6,1,7.38,7.38,0,0,0,.84,1,4.53,4.53,0,0,0-.64-.13c-.59-.44-1.16-.95-1.72-1.44.27.16.53.32.81.47s.34-.13.19-.26a45.23,45.23,0,0,0-4.52-3.4,26.72,26.72,0,0,0-5.07-2.88,20.34,20.34,0,0,0-5.48-1.39c-1.91-.23-3.85-.2-5.77-.3a28.59,28.59,0,0,1-3.34-.31c-1.1-.19-2.13-.6-3.21-.84a.25.25,0,0,0-.2.46c1.41,1,3.5,1.27,5.18,1.49,1.87.24,3.77.26,5.65.44a23.58,23.58,0,0,1,5.69,1.22l.58.21.13.07a4.22,4.22,0,0,0-1.36.09c-.08,0-.05.14,0,.14,2.07.18,3.67,1.84,5.16,3.11.81.69,1.62,1.38,2.45,2l.71.56a9.71,9.71,0,0,0-1,.31,12.46,12.46,0,0,1-1.68-.59c-1-.44-2-1-3-1.46a21.18,21.18,0,0,0-3.15-1.32c-1.22-.39-2.48-.59-3.71-.92a38,38,0,0,0-3.78-.82c-1.29-.22-2.59-.31-3.88-.5-2.21-.32-4.84-.94-7,.09a.18.18,0,0,0,.09.33,17.89,17.89,0,0,1,3.73.19l1.78.32,1.3.42a0,0,0,0,0,0-.09l-.08-.06.67.17a49.85,49.85,0,0,0,7.29,1.27,24,24,0,0,1,6.91,1.83c.78.35,1.58.73,2.4,1.06a6.54,6.54,0,0,0-.88.18,3.61,3.61,0,0,0-.83-.17,16,16,0,0,0-1.71-.21c-2.7-.19-5.41,0-8.12-.13a36.66,36.66,0,0,0-7.9.5,17.31,17.31,0,0,1-2,.37c-.68.06-1.37.1-2.06.15a25.56,25.56,0,0,0-3.9.52c-.23,0-.17.38.05.4a28.65,28.65,0,0,0,3.34-.08,20.17,20.17,0,0,1,3.47-.16,37.49,37.49,0,0,0,6.7.23c2.23-.13,4.45-.26,6.7-.26h3.7c-1.54.94-3,2.18-4.43,3.16-2.79,1.84-6.21,2.84-8.24,5.66a.2.2,0,0,0,.27.28c2.78-1.81,6-2.66,8.85-4.45,2.3-1.47,4.2-3.5,6.53-4.9l.54-.16a.19.19,0,0,0,.13-.22l.58-.28a.22.22,0,0,0,.1-.09l.32.1c-.41.19-.8.39-1.15.59a24.9,24.9,0,0,0-5.15,4.63.1.1,0,0,0,0,.11c-.64.35-1.28.73-1.89,1.12a5.52,5.52,0,0,0-1.3,1.06l-.33.15c-.14.06-.09.24,0,.29a2.4,2.4,0,0,0-.27.78c0,.15.15.29.27.16a8.66,8.66,0,0,1,3-1.51,23.85,23.85,0,0,0,3.53-2l.95-.61c.4-.22.8-.45,1.19-.69l-.23.27a23.29,23.29,0,0,1-3.39,3.27c-1.25,1-2.7,1.77-3.86,2.85-.1.09,0,.29.13.24a22.33,22.33,0,0,0,4-2.25,30.83,30.83,0,0,0,3.73-2.67c.57-.5,1.07-1.09,1.67-1.56a5.88,5.88,0,0,1,1.06-.62c.36-.19.67-.44,1-.66a44.58,44.58,0,0,1,4.29-2.22l.36.11.29.21a5.5,5.5,0,0,0,.93.53,8.22,8.22,0,0,1-2.37,1.27c-1.39.48-2.79.88-4.13,1.49a7.18,7.18,0,0,0-3.22,2.56c-.23.37-.36.77-.56,1.15a4.73,4.73,0,0,1-.88,1.06c-.65.67-1.32,1.32-1.91,2a10.71,10.71,0,0,0-1.62,2.62,5.49,5.49,0,0,0-.64,2.82c0,.1.15.17.2.06.41-.82.6-1.73,1-2.57a11,11,0,0,1,1.5-2.37,6.11,6.11,0,0,1,2.26-1.77l.09,0v0c0,.07.11.11.14,0l.08-.18a4.15,4.15,0,0,0,1.61-1.73,5.59,5.59,0,0,1,2.93-2.21L644,669a10.35,10.35,0,0,0-2.63,1.81c-1.29,1.27-1.95,3-3,4.41a23.6,23.6,0,0,1-1.87,2.24,19.79,19.79,0,0,0-1.9,2.09c-.08.12.07.24.19.18a9,9,0,0,0,2-1.63c.67-.64,1.3-1.32,1.93-2s1.22-1.27,1.82-1.92,1.08-1.37,1.72-2a16,16,0,0,1,4.46-2.57,15.74,15.74,0,0,0,2.54-1.64,23.64,23.64,0,0,1,2.18-1.39,5.62,5.62,0,0,0,.71.75l.19.16h0a2.63,2.63,0,0,0,.81,1,8.07,8.07,0,0,0-1.05.66,1,1,0,0,0,.11-.59.77.77,0,0,0-.74-.74c-.66,0-1.12.54-1.71.76a8.84,8.84,0,0,0-1.83.65,7.89,7.89,0,0,0-2.22,2.71,11.69,11.69,0,0,1-2.31,2.83,7.92,7.92,0,0,1-3.73,1.62c-.17,0-.13.33,0,.31a10.9,10.9,0,0,0,3.51-1,7.74,7.74,0,0,0,3.12-2.36c.7-.92,1.25-2.37,2.45-2.72a12.17,12.17,0,0,0,2.06-.43,24.45,24.45,0,0,0-2.09,2.74,6,6,0,0,1-1.33,1.46c-.63.43-1.25.85-1.86,1.3a19.74,19.74,0,0,0-3.33,3.06c-.14.18,0,.5.27.35,1.17-.88,2.31-1.8,3.48-2.69.57-.43,1.16-.84,1.75-1.24s1.16-.57,1.67-1a12,12,0,0,0,1.27-1.48,12.79,12.79,0,0,1,1.36-1.29,15,15,0,0,1,1.57-1.18l.62-.36h0c.49.41,1,.85,1.46,1.25.18.33.34.66.5,1a5.39,5.39,0,0,0-1,3c0,.23,0,.47-.07.71-.71-.78-1.37-1.62-2.06-2.44-.16-.19-.46,0-.4.23a9.94,9.94,0,0,0,2.37,4.31c0,.23,0,.46,0,.69,0,.68.2,1.3.2,2s-.08,1.14-.11,1.71c-.06,1.32-.53,2.56-.55,3.87a.22.22,0,0,0,.4.11,8.22,8.22,0,0,0,.79-2.41.05.05,0,0,0,0,0l.06-.19,0,.19c0,.06.1.06.1,0s0-.36,0-.54.08-.33.11-.49c.17-.6.3-1.19.43-1.8a8.52,8.52,0,0,1,.33-1,2.32,2.32,0,0,0,.22-.41,29.18,29.18,0,0,0,2.8,1.76c.12.85.29,1.7.47,2.54.33,1.56.64,3.13,1,4.69.09.43.19.86.29,1.29-.78,0-1.58,0-2.35,0a26.89,26.89,0,0,0-7.39.55c-.16,0-.11.25,0,.27a31.21,31.21,0,0,0,3.87.05c1.29,0,2.58,0,3.88,0,.69,0,1.45,0,2.18.11.17.75.35,1.51.51,2.27,0,.2.09.41.14.61l.15,1.23c.06.44.09.94.18,1.42a12.21,12.21,0,0,0-4-.47,28.48,28.48,0,0,1-3.29-3.3.09.09,0,0,0-.15.09c.69,1.59,2,2.56,3.28,3.71q.95.89,1.83,1.83c.18.19.35.39.52.58l-.89-.53a10.05,10.05,0,0,1-2-1.76,11.08,11.08,0,0,0-2.31-1.6,14.32,14.32,0,0,0-2.58-1.33c-.23-.08-.32.24-.15.37.92.7,2,1.14,2.9,1.92a8,8,0,0,1,2,2.5,5.71,5.71,0,0,0,2.23,2.51c1,.66,2.22.9,3.26,1.51,0,.6,0,1.2-.08,1.8a26.3,26.3,0,0,1-3-1.43,26.17,26.17,0,0,0-4.92-2.63,5.22,5.22,0,0,0-5,.93.16.16,0,0,0,.19.25c1.9-1.07,4.22-.45,6,.51.41.21.81.44,1.2.68a1.57,1.57,0,0,0,.75.46c.37.23.73.47,1.09.71a28.62,28.62,0,0,0-5.71-.52c-.36-.07-.73-.13-1.1-.18a16.43,16.43,0,0,0-3.57-.27,5.57,5.57,0,0,0-3.12.87c-.12.09-.06.28.1.24a11,11,0,0,1,2.91-.39,8.14,8.14,0,0,1,1.29.17,12.47,12.47,0,0,0-2.34.81,9.52,9.52,0,0,0-4.09,3.65.13.13,0,1,0,.22.13c1.82-2.55,4.8-3.72,7.86-4.13l.09,0c1,.34,1.9.83,2.88,1.16s2.09.58,3.12.94,2,.73,3.07,1.12c.66.25,1.32.47,2,.69v.12c0,.06.1.08.11,0s0-.06,0-.09l.13,0c0,.94-.11,1.88-.17,2.81l-.23-.1a40.4,40.4,0,0,0-7.11-2.95,18.8,18.8,0,0,0-7-.33,13.71,13.71,0,0,0-3.6,1,13.29,13.29,0,0,0-3.16,2.13c-.1.09,0,.22.14.14a15,15,0,0,1,2.91-1.6,14.2,14.2,0,0,1,3.13-1,11.77,11.77,0,0,1,6.75.8c1.63.69,3.28,1.31,4.92,2a1.06,1.06,0,0,0-.19.06c-.27-.08-.55-.15-.82-.21l-.46-.17a12.22,12.22,0,0,0-3.06-.55l-.6,0a23.62,23.62,0,0,0-5-.14,5.1,5.1,0,0,0-1.55-.37c-.12,0-.15.2,0,.22a4.94,4.94,0,0,1,.88.23l-.18,0a22.34,22.34,0,0,0-3.94.93,15.73,15.73,0,0,0-3.47,1.76.11.11,0,1,0,.11.19,15.3,15.3,0,0,1,6.58-2,17.35,17.35,0,0,0-5.22,2.77c-.1.07,0,.24.13.17a17.94,17.94,0,0,1,7.86-2.78c.5.4,1,.84,1.43,1.26a1.07,1.07,0,0,0,.16.14h-.8c-1.25,0-2.48.1-3.73.19a6.67,6.67,0,0,0-3.07.73s0,.13,0,.11a12.35,12.35,0,0,1,3.27-.24q1.74,0,3.48.09c.67,0,1.34.08,2,.13l.27.2a12.3,12.3,0,0,0-1.49-.12c-1.26,0-2.51.16-3.77.23a24.07,24.07,0,0,0-3.06.34c-2,.34-4.48,1-5.67,2.78a.07.07,0,0,0,.1.1,12.38,12.38,0,0,1,2.38-1.53,9.77,9.77,0,0,1,3-.76,33.15,33.15,0,0,1,6.3,0,22.56,22.56,0,0,1,9.83,3.64,31.08,31.08,0,0,1-5.37-1.2,9.89,9.89,0,0,0-5-.47c-.13,0-.09.21,0,.22a22,22,0,0,1,5,1,28.31,28.31,0,0,0,4.8,1.28c.56.07,1.12.11,1.69.15q-.08,4.34.12,8.67a9.62,9.62,0,0,0-2.59-.43.12.12,0,0,0,0,.23c.89.3,1.78.56,2.66.85,0,.47,0,.93.08,1.4-.13.34-.28.68-.43,1-.85-.25-1.71-.47-2.58-.65l-1.08-.22,0-.05c0-.1-.06-.2-.08-.3a0,0,0,0,0-.08,0v0a7.16,7.16,0,0,0-.62-.83c-.09-.1-.23,0-.21.12,0,.3.12.6.19.89a5,5,0,0,0-2.85.47c-.2.11,0,.37.14.34a8.82,8.82,0,0,1,3,.18c.34,1.17.74,2.31,1,3.5.06.27.11.55.16.83a5.72,5.72,0,0,0-2.83.27.14.14,0,0,0,0,.26,23.79,23.79,0,0,0,2.93.24c.16,1,.28,2,.42,3a7.39,7.39,0,0,0-3.29-1.9c-.86-.25-1.74-.47-2.62-.68-.34-.25-.68-.5-1-.73a14.69,14.69,0,0,0-2.68-1.64,6.85,6.85,0,0,0-5.64.1c-.12.06,0,.26.09.21a6.25,6.25,0,0,1,3.29-.27A6.32,6.32,0,0,1,651,736l.18.15-1-.16a29.51,29.51,0,0,0-3.26-.34c-1.24-.06-2.45,0-3.69,0a.12.12,0,0,0,0,.23,41.46,41.46,0,0,1,7,.79c.67.12,1.33.26,2,.41l1.68,1.42c.1.12.19.24.3.36l.22.28h0c-.31-.14-.61-.27-.92-.39l-.52-.21A38,38,0,0,0,642,736.3a28.68,28.68,0,0,0-3.59-.06c-.6,0-1.2.08-1.8.17a16.88,16.88,0,0,0-1.82.49.12.12,0,0,0,0,.23c1,0,2.06.15,3.11.16s2,0,3,.08h-.08a24.48,24.48,0,0,0-7.82,1.76c-.15.07-.15.32,0,.32,2.17-.09,4.35-.12,6.53-.16a47.33,47.33,0,0,1,6.52.24h.07a18.6,18.6,0,0,0-4.31,1.29,17.62,17.62,0,0,0-3.76,1.94c-.54.41-1,.88-1.56,1.32a5.6,5.6,0,0,0-1.41,1.42.24.24,0,0,0,.26.34,5.78,5.78,0,0,0,1.37-.55q.81-.36,1.65-.66c1.06-.38,2.07-.89,3.1-1.35a17.51,17.51,0,0,1,6.18-1.91.1.1,0,0,0,.08.11,14.24,14.24,0,0,1,5.25,2.51,42.89,42.89,0,0,1,4.27,3.21,26.23,26.23,0,0,1,3.65,3.8,18.11,18.11,0,0,1,1.35,2.05c.14.24.27.49.41.74a6.13,6.13,0,0,0,0,1.21.15.15,0,0,0,.29,0s0-.08,0-.12c-.08,1.48-.12,3-.14,4.45l-.21,0-1.66-.24h0l-.26-.07a9,9,0,0,0-1-.19,3.1,3.1,0,0,0-1.65-.3A10.13,10.13,0,0,0,651,762a.6.6,0,0,0,.73.94c1-.49,2-1,3-1.44a17.51,17.51,0,0,1,3-1.22,3.72,3.72,0,0,1,1.49,0,2.67,2.67,0,0,0,.71.32.11.11,0,0,0,.11,0c.21.19.4.41.59.6a16.1,16.1,0,0,1,1.42,1.57.67.67,0,0,0,.32.48,4.16,4.16,0,0,1,.28.51v.43c0,1,.11,2.08.12,3.12s0,2,.12,3c0,.1,0,.21,0,.33l-.68,0-1.44.07.27,0s0-.08,0-.09a33,33,0,0,0-6.11.54l-1.15.18-2.52.31c-1.66.22-4.25,0-5.37,1.55-1.65,2.27-1,7-.91,9.6a76.81,76.81,0,0,0,1.18,11.72,28.91,28.91,0,0,0,2.63,8.57l.06.12a13,13,0,0,0,6.48,6.17,20.24,20.24,0,0,0,6.81,1c4.4.15,8.86.3,13.14-.73a11.15,11.15,0,0,0,4.24-1.82,12.17,12.17,0,0,0,3-3.77c3.89-6.92,4.27-14.73,4.79-22.46.18-2.62,1.73-6.18,0-8.58-.78-1.12-2.28-1.39-3.63-1.56l-1.78-.2a10.59,10.59,0,0,0-2.94-.34h-.77l-1.09-.09.13-.28c.6-1.27,1.22-2.54,1.86-3.8a12.63,12.63,0,0,1,1.91-3.17,1,1,0,0,0,.26.07c.07,0,.09-.11,0-.13h0a18,18,0,0,1,2.57-.94,9.72,9.72,0,0,1,2.9-.21c1.53.07,3.08.13,4.61.3.32.17.63.35.94.55,0,0,0,.05,0,.05l.07,0,0,0a11.48,11.48,0,0,1,1.9,1.65l.07.08.31.43c.14.2.42.83.74.82l.48.56c.08.09.23,0,.2-.12a7.8,7.8,0,0,0-3.23-3.83l-.09-.06a13.6,13.6,0,0,1,4.83,1.38,6.25,6.25,0,0,1,2.08,1.74,3.35,3.35,0,0,1,.62,2.54c0,.15.19.17.26.07,1-1.53-.57-3.43-1.75-4.29a12.85,12.85,0,0,0-2.71-1.51,18.84,18.84,0,0,0-3-1.05l-.37-.08c-.31-.09-.62-.16-.94-.23a20.43,20.43,0,0,0-2.57-.49,12.5,12.5,0,0,0-2.8-.29,7.43,7.43,0,0,0-4.22,1.35,4.81,4.81,0,0,0-1.35.71c-1,.81-1.49,2.23-2.07,3.36-.69,1.32-1.34,2.67-2,4l-.33.73-1.28-.08.09-.61c.17-1.16.36-2.33.44-3.51.06-.85.13-1.69.21-2.54l.39-2.79c.14-1,.19-2,.32-2.93s.38-2.12.58-3.17.42-2,.62-3c.25-.37.48-.74.71-1.11.09-.13.17-.26.25-.4a19.43,19.43,0,0,0,2.9-3,14.63,14.63,0,0,0,2.83-5.23,5,5,0,0,0,.52-1s0-.06-.07,0a4.76,4.76,0,0,1-.31.47,4.14,4.14,0,0,0,.09-.46c.7-.76,1.35-1.55,2-2.36.76-1,1.49-2,2.17-3a11.34,11.34,0,0,0,.78-1.29l.24,0a3,3,0,0,1,1.32.11,8.11,8.11,0,0,1,.92.49,1.3,1.3,0,0,0,.65.33c.76.38,1.51.78,2.25,1.21a23.63,23.63,0,0,0,2.48,1.53.16.16,0,0,0,.2-.25,17.6,17.6,0,0,0-2.57-2.21,32.29,32.29,0,0,0-2.66-2.17,4.36,4.36,0,0,0-.41-.24l-.18-.09a9.72,9.72,0,0,1,2,0c2.15.22,4,1.27,6.08,1.81.17,0,.35-.2.19-.33a14.73,14.73,0,0,0-1.66-1.07,2.23,2.23,0,0,0-1.16-.6l-.11-.06a9.38,9.38,0,0,0-3.13-1,10.62,10.62,0,0,0-1.5-.07h-.23c-.55,0-1.11-.11-1.64-.09a4.21,4.21,0,0,0-1.38.31h-.25a26.3,26.3,0,0,1,2.64-.87,24.16,24.16,0,0,1,4.12-.79l2-.2a18.28,18.28,0,0,0,2.09-.22c.24-.05.2-.38,0-.45a11.09,11.09,0,0,0-4.33-.37,20,20,0,0,0-4.47.79,16.24,16.24,0,0,0-2.28.88.18.18,0,0,0-.16,0,14,14,0,0,0-3,1.75l-.14,0a.31.31,0,0,0,0-.1c.7-.5,1.41-1,2.13-1.43a18.56,18.56,0,0,1,2.18-1,22.57,22.57,0,0,1,6.48-1.46,16.29,16.29,0,0,1,6.55,1.07,32.63,32.63,0,0,1,3.53,1.56A16.41,16.41,0,0,0,710,733a.17.17,0,0,0,.17-.28,11.91,11.91,0,0,0-2.9-1.85c-.91-.47-1.83-.92-2.78-1.31,1.14.27,2.28.57,3.42.79a30.87,30.87,0,0,0,3.18.48c.55.05,1.11.12,1.67.12a8.22,8.22,0,0,0,1.71-.26c.12,0,.09-.22,0-.22a29.19,29.19,0,0,1-7.08-.86c-2.33-.56-4.66-1.15-7-1.61a23.7,23.7,0,0,0-3.28-.4c1.58-.05,3.16-.1,4.74-.06,1.84,0,3.68.15,5.51.34,1,.1,1.93.22,2.89.36l1.49.22c.2,0,.4.08.59.09s.48-.08.7,0,.29-.26.08-.31c-.41-.1-.74-.33-1.18-.42s-1-.2-1.47-.28c-.87-.14-1.73-.26-2.6-.36-2-.24-3.91-.4-5.88-.45l-1.22,0c-.51,0-1,0-1.54,0a15,15,0,0,1,3.7-1,21.06,21.06,0,0,1,3.89,0c.69,0,1.38.08,2.07.09a8,8,0,0,0,1,0c.31,0,.58-.19.89-.27a.15.15,0,0,0,0-.3c-.57,0-1.12-.13-1.7-.14s-1.31-.05-2-.1a22.36,22.36,0,0,0-3.66-.08c-2.3.24-4.49,1.17-6.75,1.66s-4.83.61-7.22,1.08a24.85,24.85,0,0,0-3.68,1v-.06c.49-.29,1-.57,1.46-.84a63.15,63.15,0,0,1,11.1-5.07,32.81,32.81,0,0,1,3.22-.92c.52-.11,1-.26,1.56-.39a6.24,6.24,0,0,0,1.59-.49c.18-.1.08-.35-.1-.37a9.3,9.3,0,0,0-2.89.55c-1,.28-2.06.62-3.09.93-2,.62-3.92,1.33-5.87,2-1,.35-1.91.74-2.84,1.16,0-.23,0-.46-.07-.68a39,39,0,0,1,4.89-2.82,16.74,16.74,0,0,1,3.43-1.24c.58-.14,1.17-.21,1.77-.3a7.68,7.68,0,0,0,1.73-.24.18.18,0,0,0,0-.33,4.12,4.12,0,0,0-2.46-.24,14.37,14.37,0,0,0-2.74.65,27.46,27.46,0,0,0-5.24,2.59c-.54.33-1.08.68-1.61,1a5.34,5.34,0,0,0-.77-1.72c.61-.64,1.24-1.28,1.83-1.95a.16.16,0,0,0-.22-.22c-.66.56-1.31,1.15-2,1.75a4.34,4.34,0,0,0-.81-.72,13.54,13.54,0,0,0-2.84-1.31l-1.15-.46c.74-.2,1.47-.46,2.21-.68.91-.27,1.81-.57,2.69-.92l.12,0,.21,0a21.39,21.39,0,0,1,3.22.9c1.1.4,2.14,1,3.26,1.31a.15.15,0,0,0,.15-.24,11.89,11.89,0,0,0-4.74-2.56l-.49-.16c.27-.16.51-.34.8-.53a.23.23,0,0,0-.18-.42,10.11,10.11,0,0,0-1.48.39l-.48.18a18.63,18.63,0,0,0-3.79-.55,20.58,20.58,0,0,0-7.18,1c.76-.41,1.52-.8,2.29-1.19a21.86,21.86,0,0,1,5.87-2.35,27.65,27.65,0,0,1,6.68.09l3.83.28a14.07,14.07,0,0,0,3.61,0c.16,0,.13-.25,0-.3a12.51,12.51,0,0,0-3.23-.5l-3.57-.28a39.75,39.75,0,0,0-6.81-.25c-3.58.33-6.87,1.89-10,3.61l.82-.66a35.17,35.17,0,0,1,5.48-3.47,53,53,0,0,1,5-2.18c.07.19.14.38.2.57s.32.15.31,0,0-.47-.08-.7l.81-.32c2.52-1,5-2,7.55-3,.16-.07.1-.34-.08-.27-2.8,1-5.61,2-8.39,3a11.6,11.6,0,0,0-.49-1.72,36.42,36.42,0,0,0,3.41-1.88c1.69-1.06,3.67-2.26,4.76-4l1.8-1a.14.14,0,0,0-.1-.25,40.29,40.29,0,0,0-10.91,4.58l-.15.09-.12-.2a15.75,15.75,0,0,0,1.82-1.37c1.59-1.41,3.07-2.92,4.69-4.31l.13-.11c.49,0,1,0,1.46,0,.84,0,1.76.17,2.64.15,1.64.15,3.28.31,4.91.49.16,0,.19-.24,0-.27-1.33-.21-2.65-.43-4-.66h0a4.28,4.28,0,0,0-.81-.13l-.33-.06c-.87-.15-1.74-.36-2.6-.57.46-.36.93-.73,1.4-1.08a38.81,38.81,0,0,1,4.71,1.45,7.59,7.59,0,0,1,3.81,2.83c.07.12.29.05.24-.1a6.2,6.2,0,0,0-3.14-3.18,25.35,25.35,0,0,0-4.57-1.79,15.49,15.49,0,0,0,1.81-1.52c.12-.12,0-.3-.18-.23a16.75,16.75,0,0,0-2.47,1.47l-.08,0a14.8,14.8,0,0,0-3-1l.74-.29.74-.31c.35.24.71.47,1.09.68a.2.2,0,0,0,.23-.31c-.21-.22-.44-.43-.68-.64a14.92,14.92,0,0,1,1.7-.6,9.81,9.81,0,0,1,2.34-.35h.57c3.25,0,6.56,1,9.73-.21a.22.22,0,0,0-.12-.42,11.25,11.25,0,0,1-2.65.21,8.93,8.93,0,0,0-1.55-.13c-.6-.05-1.2-.14-1.8-.22s-.89-.12-1.32-.16a14.74,14.74,0,0,0-5.42,0,11.34,11.34,0,0,0-1.73.58c-.32.09-.64.19-1,.3l-.14-.11a23.19,23.19,0,0,0,2.28-1.65,24,24,0,0,1,5.55-1.65,15.48,15.48,0,0,1,6.35.44c.13,0,.23-.16.09-.22-2.57-1.16-5.55-1-8.37-.41a.13.13,0,0,0,0,0,6.2,6.2,0,0,0-.53-.62c.23-.18.46-.36.7-.53.47-.35.94-.69,1.43-1s1-.55,1.42-.87c1.05.42,2.09.88,3.15,1.28.2.07.32-.24.14-.35a21.48,21.48,0,0,0-7-2.94,16.36,16.36,0,0,0-7.58.53c-.6-.2-1.21-.4-1.82-.58l-.36-.11-1.08-.3a23.31,23.31,0,0,0-3.35-.64l0,0a84.06,84.06,0,0,1,12.63-8.62l.5-.28c.21.28.42.56.64.83s.37,0,.28-.22-.3-.58-.46-.87c2.24-1.26,4.51-2.5,6.67-3.89.17-.11.06-.44-.15-.35l-1.22.5.08-.1s0-.06,0,0a2.73,2.73,0,0,1-.25.23c-1.78.76-3.53,1.6-5.26,2.5l-.41.18c-.35-.56-.74-1.12-1.15-1.65a24.42,24.42,0,0,1,4.3-1.45c.09,0,.08-.18,0-.17a18.45,18.45,0,0,0-4.55,1.28c-.53-.68-1.1-1.32-1.68-1.93a1.9,1.9,0,0,0-2.14-.63,12.77,12.77,0,0,0-2.79,1.62,42.66,42.66,0,0,0-5.26,4.41c-1.67,1.64-3.32,3.29-4.83,5.09-.93,1.11-1.88,2.21-2.78,3.35a14.75,14.75,0,0,0-1,1.36,19.92,19.92,0,0,0,.42-2.51c0-.33.1-.71.13-1.09l0-.08a.08.08,0,0,0,.1,0c.39-.12.53-.4.75-.73s.59-.9.87-1.38.43-.72.65-1.07a17,17,0,0,0,1.84-2.51c.54-.59,1.11-1.14,1.63-1.74.74-.85,1.52-1.69,2.22-2.58s1.45-2,2.25-2.92,1.54-1.77,2.27-2.71,1.37-2,2.11-2.91,1.3-1.68,1.9-2.56a57.32,57.32,0,0,0,4.09-6.36.13.13,0,0,0-.22-.12c-1.27,1.84-2.39,3.79-3.73,5.6-.7.94-1.44,1.87-2.18,2.79a33,33,0,0,1-2.28,2.45c-.84.86-1.61,1.75-2.39,2.66s-1.64,1.77-2.5,2.63a33.11,33.11,0,0,0-4.38,5.35c-.65,1-1.36,1.94-2,3a.22.22,0,0,0-.11,0,4.9,4.9,0,0,0-1.12,1.63l0-.1c0-.21,0-.41.07-.61l0-.06a46.58,46.58,0,0,0,3.63-5.06c.57-.86,1.18-1.71,1.7-2.61s1-1.79,1.59-2.66,1-1.78,1.65-2.64l.33-.46a.11.11,0,0,0,.16-.13s0-.05,0-.07l1.4-2c1.21-1.68,2.41-3.37,3.57-5.09.37-.57.76-1.12,1.16-1.67q.46.51.9,1c.08.09.21,0,.16-.13a5.65,5.65,0,0,0-.79-1.27q1.44-1.95,3-3.8a.11.11,0,0,0-.15-.15,31.8,31.8,0,0,0-3.12,3.62,8.77,8.77,0,0,0-1.57-1.33,5.11,5.11,0,0,0-3.7-1.23,4.05,4.05,0,0,0-1.79.9l-.92.74.07-.12a24.24,24.24,0,0,1,2.46-3c.75-.79,1.51-1.64,2.33-2.4a3.09,3.09,0,0,0,.72-.56l.13-.09a.07.07,0,0,0,0-.1c.19-.15.39-.3.59-.43a6,6,0,0,1,2.53-.93,6.83,6.83,0,0,1,2.93.39,16.49,16.49,0,0,1,2.62,1c.86.41,1.66,1,2.53,1.35.11,0,.22-.08.13-.17a9.63,9.63,0,0,0-2.52-1.65,21.86,21.86,0,0,0-2.8-1.24,6.15,6.15,0,0,0-2.9-.45,7.32,7.32,0,0,0-2.52,1.08c-.84.49-1.67,1-2.46,1.56-.45.33-.94.63-1.4,1,.35-.68.72-1.36,1.11-2a38.57,38.57,0,0,1,2.28-3.48c.53-.6,1.07-1.18,1.62-1.76l.6-.36c.63-.42,1.27-.82,1.93-1.2a21.74,21.74,0,0,1,3.09-1.46,10.28,10.28,0,0,1,2.43-.17,15.23,15.23,0,0,1,4.25,1.06.11.11,0,0,0,.11-.19,6.92,6.92,0,0,0-3.67-1.56l2.07-.38a12.33,12.33,0,0,1,4.64.31.07.07,0,0,0,0-.14,22.84,22.84,0,0,0-4.78-.86,11.33,11.33,0,0,0-4.4.48c.42-.2.85-.4,1.29-.59a44.08,44.08,0,0,1,10.78-3.29c2.16-.35,4.33-.76,6.51-.91a.08.08,0,0,0,0-.16,32.6,32.6,0,0,0-5.76.06,43.05,43.05,0,0,0-5.38,1.08,18.65,18.65,0,0,0-3.74,1.09l1.35-.79a.07.07,0,0,0,0-.12c.8-.47,1.59-1,2.35-1.46,1.64-1.09,3.41-2,5-3.23.06-.05,0-.19-.07-.15-1.84.73-3.56,1.77-5.34,2.62s-3.56,1.87-5.31,2.84c-1,.55-2,1.12-2.95,1.74l.87-.81c.91-.85,1.8-1.73,2.68-2.62s1.76-1.78,2.61-2.69c.21-.22.42-.45.62-.68l.51-.07a26.79,26.79,0,0,1,3.87-.5c.1,0,.1-.13,0-.16a10.33,10.33,0,0,0-2.17-.62c-.24,0-.47-.06-.71-.07q1.15-.9,2.28-1.83a2,2,0,0,0,.57.07c.42,0,.87,0,1.29,0a3.56,3.56,0,0,1,2.2.36c1.32.78,2.61,1.64,3.93,2.44l.46.29a7.91,7.91,0,0,0,1.67,1.13c.6.44,1.19.89,1.76,1.37s1.21,1,1.8,1.57a6.91,6.91,0,0,0,1.71,1.39.18.18,0,0,0,.25-.24,6.58,6.58,0,0,0-1.69-1.76c-.62-.56-1.25-1.1-1.89-1.64-.93-.77-1.84-1.57-2.75-2.36l-.11-.12,1.43.69c1,.5,2,1.12,3,1.55.07,0,.15-.07.1-.13a9,9,0,0,0-2.85-2.09,28.22,28.22,0,0,1-3.49-2.12c-.37-.29-.76-.61-1.15-.9l-.16-.12a4.85,4.85,0,0,0-1.75-.86,11.16,11.16,0,0,1,1.53,0,5.87,5.87,0,0,1,2.46.74c.79.46,1.58.88,2.38,1.32,1.54.86,3.06,1.72,4.55,2.65a27.4,27.4,0,0,0,4.6,2.37c.07,0,.1-.08,0-.12-1.59-.92-3.16-1.87-4.7-2.87a54.55,54.55,0,0,1-4.49-3.4,9.77,9.77,0,0,0-2.8-1.7h.33l.11,0c.46,0,.91.13,1.36.21.93.16,1.86.34,2.79.52s1.73.22,2.57.43a13.31,13.31,0,0,0,2.34.48.1.1,0,0,0,.1-.08,9.11,9.11,0,0,0,3.23.28,11.15,11.15,0,0,0,2.83.06.21.21,0,0,0,0-.42l-.45-.06a.16.16,0,0,0-.12-.12c-.81-.17-1.66-.34-2.51-.44l-.83-.22a0,0,0,0,0-.06,0h0c-.83-.2-1.66-.36-2.5-.56l-1.67-.41a4.55,4.55,0,0,0-.88-.37c.44-.12.89-.24,1.33-.33a30.32,30.32,0,0,1,5.13-.27c1.67,0,3.33,0,5-.11.8-.08,1.61-.13,2.41-.23s1.76-.15,2.61-.31A.1.1,0,0,0,737.52,621.35ZM682,683.16c-1,.92-2,1.88-2.92,2.87l-.29.31a17.47,17.47,0,0,0-1.76.1c.53-.72,1.09-1.43,1.66-2.12l.86-1A14.27,14.27,0,0,1,682,683.16Zm1,4.7c-1.64,1-3.21,2.1-4.71,3.22l0,0c-.33-.41-.67-.8-1-1.18.78-.89,1.58-1.76,2.39-2.62A19.33,19.33,0,0,1,683,687.86Zm7.2-2,1.37-.49,2.47.92a24.45,24.45,0,0,1,3.86,1.84h0a6.92,6.92,0,0,0-1.6,1.08c-.23.21-.48.43-.72.67-1.17.38-2.32.81-3.47,1.26-.49-.35-1-.7-1.48-1-.75-.47-1.51-.91-2.29-1.31l.15.05c.08,0,.1-.09,0-.12a6.73,6.73,0,0,0-.87-.27q-.83-.39-1.68-.72A36.43,36.43,0,0,1,690.24,685.84Zm1.15,13a15.12,15.12,0,0,0-3.77,2.13c-.77.51-1.51,1.07-2.25,1.63-.16-.25-.32-.5-.47-.75a33.18,33.18,0,0,1,3.61-2.28c.74-.38,1.51-.69,2.25-1.07l.19-.1H691c.26,0,.53,0,.8,0ZM678.73,708a19.81,19.81,0,0,0-2.57,2c-.39.35-.76.73-1.14,1.09-.14.13-.3.3-.47.45.14-.67.27-1.35.37-2a3.59,3.59,0,0,0,1.92-.67c.79-.4,1.59-.8,2.36-1.23.31-.16.61-.34.92-.51Zm5,12.15a20.17,20.17,0,0,1,2.69,1.19,4.35,4.35,0,0,1,1.09.87L685.66,724l-.45.43a10.41,10.41,0,0,0-1.2-2.14,11.59,11.59,0,0,0-1.32-1.56,12.5,12.5,0,0,1-1.47-1.44l.52,0A14.94,14.94,0,0,0,683.77,720.1Zm-42.12-54.58a10.45,10.45,0,0,0-1.23.36c.43-.33.86-.66,1.26-1a6.62,6.62,0,0,1,.94-.71L643,664c.21,0,.42-.08.63-.1s.42,0,.63,0c.4.09.8.19,1.19.3l.17.1C644.26,664.68,643,665.18,641.65,665.52Zm16,.39a3,3,0,0,1,1.58-.75c.85,0,1.7,0,2.54.12l.48.12c.22.26.44.51.67.76a4.36,4.36,0,0,0-.81-.06.06.06,0,0,0,0,.12,13.6,13.6,0,0,1,1.31.49c.77.83,1.56,1.63,2.39,2.39a6.14,6.14,0,0,0,.47.42c-.05.16-.09.32-.13.48h0a5.6,5.6,0,0,0-.45,1.63c-1.28-.95-2.51-1.95-3.82-2.86a16.63,16.63,0,0,0-1.2-3.24c-.06-.12-.23,0-.2.09.18.84.34,1.68.47,2.52l-.06,0s-.05,0-.08-.05l-.28-.18c0-.37,0-.73,0-1.1,0-.17-.25-.16-.26,0s0,.6-.05.91c-.9-.59-1.8-1.17-2.71-1.73A.2.2,0,0,0,657.61,665.91Zm26.93,36.87c.06.11.13.21.19.31-.4.3-.81.58-1.22.86l-1.17.74c.15-.46.29-.92.44-1.38l1.25-.85.25-.17C684.36,702.46,684.45,702.62,684.54,702.78Zm-20.23,5.57.17.06.77.26-.37.87a8.68,8.68,0,0,0-.45,1.89l-.16-.08c0-.31,0-.61,0-.92C664.28,709.74,664.29,709,664.31,708.35ZM646,664.13a.57.57,0,0,0-.13-.08l.21,0h0ZM683.74,644a12.32,12.32,0,0,0,.52,1.36c-.23.51-.44,1-.64,1.58-.37,1-.76,2-1.15,3a.52.52,0,0,0-.1-.11l.12-.46c.39-1.53.78-3.07,1.1-4.62ZM675,688.22c0-.18,0-.37.07-.55l.16,0C675.12,687.83,675,688,675,688.22Zm-.4,4.87c.3-.36.61-.72.91-1.09.19.29.4.57.61.85l-.9.74-1.14.94c.08-.45.15-.89.21-1.33A.29.29,0,0,0,674.57,693.09Zm2.35.75a15.9,15.9,0,0,0,1.83,1.84,11.39,11.39,0,0,0-2.18,1.09,17.91,17.91,0,0,0-1.69.6,5.9,5.9,0,0,0-.52-1.77c.29-.23.58-.46.87-.67.54-.39,1.07-.79,1.6-1.19ZM678.81,705c-.78.54-1.55,1.07-2.32,1.63-.41.3-.89.6-1.3.94l.15-1.18a14.84,14.84,0,0,0,1.4-.77c.58-.37,1.14-.76,1.71-1.16l.08-.06a.29.29,0,0,0,.31,0,1,1,0,0,0,.37-.51l1.56-1.11c0,.29,0,.59-.07.9Zm-5,5.88-.3,1.18,0,0A10.57,10.57,0,0,0,672,709.9c0-.41,0-.82.08-1.23A9.9,9.9,0,0,1,673.85,710.9Zm6.44,11a15.54,15.54,0,0,0,1.54,1.6s.12,0,.08-.06a5.43,5.43,0,0,0-.42-.53l.21.2a22.53,22.53,0,0,1,2.24,2.66c-.32.33-.63.67-.94,1l-.31-.25a.21.21,0,0,0,0-.2,2.79,2.79,0,0,0-.91-.57,5.07,5.07,0,0,0-1.13-.4.25.25,0,0,0-.25.16,6.19,6.19,0,0,0-1.37,0c-.09,0-.12.15,0,.17a10.84,10.84,0,0,1,2.56,1.07,5.29,5.29,0,0,1,.9.65c-.4.43-.81.86-1.22,1.28a43.18,43.18,0,0,0-3.83,4.34,2.55,2.55,0,0,0-.26.3c0-.13,0-.26,0-.39.06-.57.11-1.14.16-1.7.55-.35.71-1.35.86-1.9a14.18,14.18,0,0,0,.46-2.82,13,13,0,0,0-.13-2.86c-.09-.62-.12-1.52-.66-1.93V721l.88-.19A13.68,13.68,0,0,1,680.29,721.87Zm-16.09-5.72a19.65,19.65,0,0,1,1.92,1c0,.59,0,1.19,0,1.78-.28-.07-.56-.12-.84-.17l-1.14-.72c0-.31,0-.61,0-.92Zm1.5-7.32.49.18a6,6,0,0,1-.79,1.68c-.14.19.13.43.31.31a3.41,3.41,0,0,0,.75-.65c-.05.67-.09,1.35-.13,2l-1.48-.74a10.26,10.26,0,0,1,.63-2.31C665.55,709.16,665.63,709,665.7,708.83Zm7.08-39.57c.26.25.5.51.74.78.07.09.2,0,.23-.06.07.14.15.29.23.42a2.14,2.14,0,0,0,.74,1l.06.06c-.07.39-.13.78-.18,1.16a8.21,8.21,0,0,0-.55-.94ZM678,703.48c-.57.46-1.13.92-1.68,1.39-.31.25-.59.53-.87.8.08-.64.15-1.29.21-1.93l.09,0h0l.21-.14c.14-.05.34-.09.41-.11a.36.36,0,0,0,.22-.31c.61-.41,1.22-.82,1.84-1.21,0,.1,0,.2,0,.29-.05.29-.14.69-.17,1.08Zm3.15,31q.5-.56,1-1.11a19,19,0,0,1,2.52-2c0,.08.07.15.11.22l0,0-.47.31A28.19,28.19,0,0,0,681.12,734.48Zm-.48-35.91c.06-.11.11-.23.16-.34a2.45,2.45,0,0,0,0,.27Zm-9.84,9-.12,1-.2-.17c0-.36,0-.73,0-1.09Zm.44,62.91c0-1,.06-2.07.07-3.1,0-.86,0-1.73,0-2.6v0c.15-.93.25-1.86.34-2.78a29,29,0,0,0,.13-3.36c0-.11,0-.23,0-.34.7-.61,1.46-1.15,2.21-1.71,0,.61-.09,1.22-.14,1.83-.14,1-.2,2-.28,3s-.09,1.69-.11,2.54c0,.66-.06,1.35,0,2q0,1.86-.06,3.72c0,.29,0,.58,0,.88C672.67,770.54,672,770.51,671.24,770.5Zm-6,0c.08-.49.17-1,.27-1.45.4-1.14.89-2.25,1.19-3.43a.09.09,0,0,0-.16-.07,7.74,7.74,0,0,0-.43.73c.3-1.33.62-2.66.94-4,0-.13.07-.25.1-.38.13,1.63.22,3.27.29,4.91,0,1,.14,2.07.25,3.1,0,.18,0,.36.05.54ZM668.49,719V719c.28.25.54.51.8.79v.69a7.27,7.27,0,0,0-.68-.48l-.05,0Q668.51,719.47,668.49,719Zm-1.1-9.5c.19.08.39.17.58.27-.09,1.07-.19,2.15-.26,3.23l-.48-.22c0-.92.08-1.84.13-2.75Zm.06-1.2.15-.48a4.59,4.59,0,0,0,.49.26l0,.56-.61-.33Zm-.77,45.33c-.14-1.12-.31-2.24-.47-3.37.07-.32.12-.65.16-.94a7.14,7.14,0,0,0,.27-2,7.88,7.88,0,0,0-.16-1.37,1.15,1.15,0,0,0,0-.19,10.92,10.92,0,0,1,1.5-.36,5.59,5.59,0,0,1,.7-.09c0,2,0,3.9.1,5.85v0c-.2.46-.37.94-.54,1.41a21.13,21.13,0,0,0-.8,3.13,6.54,6.54,0,0,0,0,2.49c-.07.32-.14.63-.22.94C667,757.32,666.91,755.48,666.68,753.65Zm-.55-19.93c-.1.34-.18.67-.27,1,0,.15-.07.3-.11.45-.06-.58-.12-1.15-.19-1.73ZM668.31,710l.7.37.44.26c-.06,1.07-.09,2.15-.11,3.23-.35-.2-.7-.37-1.05-.54C668.28,712.17,668.28,711.06,668.31,710Zm-2.07-8.56a7.06,7.06,0,0,1,0-.8,12.7,12.7,0,0,1,1.41,1l.39.34-.19.17-.36.32a.17.17,0,0,0-.32.07,1.8,1.8,0,0,1,0,.22c-.16.14-.33.27-.5.4l-.29-.16C666.37,702.45,666.26,701.89,666.24,701.4Zm1.3,2.24.26-.23.91-.82.44.46c-.32.34-.62.68-.91,1.05-.12-.08-.24-.16-.37-.23l-.33-.21Zm.69-3a14.44,14.44,0,0,0-1.75-1.13,3.93,3.93,0,0,1,.36-.78l.52.34a25.7,25.7,0,0,1,2.14,1.63l-.57.49Zm1.84-9.2a7.26,7.26,0,0,0-2.16-.52c-.69-.07-1.41,0-2.11,0a.56.56,0,0,0,.05-.08,12.21,12.21,0,0,1,2.66-2.71,5.82,5.82,0,0,1,1.46-.87l.28.26a13.61,13.61,0,0,1,1.85,2.23,12,12,0,0,1,.65,1.09l-.24,2.18A7.77,7.77,0,0,0,670.07,691.44Zm-.33,10.41c.23-.12.47-.22.7-.33l.14.12-.51.48Zm-6.63-18.42c0-.16,0-.32,0-.48l.95.46c-.16,1.27-.31,2.54-.48,3.8,0-.23-.06-.47-.1-.7C663.3,685.48,663.19,684.46,663.11,683.43ZM666,688a6.15,6.15,0,0,0-.49.53c.11-.63.24-1.25.39-1.87.4-.52.81-1,1.21-1.52.5.32,1,.65,1.46,1A7.74,7.74,0,0,0,666,688Zm-.58-9.75.06.06a3.87,3.87,0,0,0,.22,1.25.13.13,0,0,0,.25,0,4,4,0,0,0,.17-.66l.89.9c-.55,1.05-1.07,2.11-1.53,3.2l-.05,0-.27-.11-.27-.16.15-1.38C665.16,680.29,665.28,679.27,665.42,678.24Zm3.21,3.37-.42.49a2.35,2.35,0,0,0,.13-.84C668.43,681.38,668.53,681.49,668.63,681.61Zm-2,2.13c.18-.61.36-1.22.55-1.83a2.39,2.39,0,0,0,.2.85.18.18,0,0,0,.15.1c-.27.31-.53.63-.77,1A.57.57,0,0,1,666.67,683.74Zm2.33-.8.37-.37a22.56,22.56,0,0,1,1.79,2.8,7.15,7.15,0,0,0-1.51.33,4,4,0,0,0-1.46-.9l-.25-.19-.24-.18C668.12,683.93,668.55,683.43,669,682.94Zm-3.91,1-.15.4c-.09.15-.18.3-.26.46l.09-1Zm6.52,2.52.09,0,.09.18a2,2,0,0,0-.42,0Zm-7.45-9.33.6.52c-.17,1.26-.34,2.52-.5,3.79,0,.28-.07.55-.11.83l-.81-.51-.36-.24c-.07-1.43-.12-2.87-.18-4.3,0-.41,0-.81,0-1.22C663.23,676.38,663.7,676.75,664.16,677.14Zm6.68,9.9a8.48,8.48,0,0,1,1.13,0c.26.58.5,1.16.7,1.76.08.24.16.49.23.74v.11a13.71,13.71,0,0,0-1.18-1.62C671.43,687.66,671.14,687.34,670.84,687Zm1,13.2,0,.24-.3.28-.42-.24.8-.58C671.9,700,671.88,700.14,671.86,700.24Zm-1.54,1.17-.69.35h0c.18-.16.36-.32.55-.47Zm-8.83-26.35v0a2.07,2.07,0,0,0,0,.5,0,0,0,0,0,0,0c0,.2,0,.39,0,.59-.06-.39-.12-.77-.2-1.15l0-.16Zm10.21,18.56a7.44,7.44,0,0,1,.67.59c-.08.7-.15,1.41-.23,2.11l-.12.14a.33.33,0,0,0,.05.48l-.12,1.14c0,.11.13.15.21.1,0,.23-.06.45-.08.67l-1.13.74-.65.48c-1-.52-1.92-1.05-2.83-1.64l-.3-.19c.71-1,1.54-1.82,2.34-2.71a10.76,10.76,0,0,0,1.11-1.13.05.05,0,0,0-.07-.08h0a10.5,10.5,0,0,0,.73-1Zm-2.63,14.8a.1.1,0,0,0,.12-.07l.38.27c0,.32-.05.63-.07,1-.37-.26-.76-.51-1.15-.74,0-.2,0-.41,0-.61A3.49,3.49,0,0,0,669.07,708.42Zm-.88,58.3c-.15-.93-.28-1.85-.41-2.77,0,0,0,0,0,0a14.25,14.25,0,0,0-.35-3.27l.38-1.52a.47.47,0,0,0,.16,0,.85.85,0,0,0,.23.49.41.41,0,0,0,.11.07c-.07,1.26-.13,2.52-.15,3.78,0,.76,0,1.53.08,2.29a5.38,5.38,0,0,0,.17,1.11c0,.25-.07.5-.1.74C668.28,767.33,668.24,767,668.19,766.72Zm0-35.48c.37.23.74.48,1.09.73,0,.72-.08,1.45-.11,2.17a1.93,1.93,0,0,1,0,.24,11.2,11.2,0,0,0-1.64-1.15c.2-.64.42-1.28.64-1.91Zm-1.26,9.86c-.2,0-.41.12-.61.19-.05-.88-.12-1.77-.21-2.65a7.69,7.69,0,0,1,1.66.37,6.87,6.87,0,0,1,1.4.66c-.06.38-.12.76-.17,1.14A5.58,5.58,0,0,0,666.93,741.1Zm4.13,5.67c0-1,0-2,0-3,0-.8.06-1.61.1-2.41a.15.15,0,0,0,.2-.06c.06.28.11.56.18.84s.12.51.19.79c.11.74.24,1.48.39,2.21Q671.57,745.95,671.06,746.77Zm.18-6.4c0,.2,0,.39.08.59a2.44,2.44,0,0,0-.1-.24C671.23,740.6,671.23,740.49,671.24,740.37Zm-1.81-10.09,0-.09a.43.43,0,0,1,0,.07Zm-.5-.38q.2.48.42.93a2.11,2.11,0,0,0,0,.25c-.13-.16-.26-.31-.38-.48s-.17-.41-.25-.62A.27.27,0,0,0,668.93,729.9Zm.55-5.59.27,2.32a17.75,17.75,0,0,1-.55-1.89c-.05-.26-.11-.51-.15-.76l.42.3Zm-.51,4.84,0,.08c-.1-.24-.18-.48-.27-.73,0-.09-.05-.19-.07-.29l.05-.11C668.78,728.45,668.87,728.81,669,729.15Zm-2,9a6.13,6.13,0,0,0-.85-.09,2,2,0,0,1,0-.24C666.41,737.94,666.68,738,666.94,738.16Zm-.59,4.24a8.52,8.52,0,0,1,.86-.26c.46-.11,1.09-.1,1.65-.2,0,.25-.05.51-.07.76a.11.11,0,0,0-.07-.06,2.35,2.35,0,0,0-2.38.6C666.35,743,666.35,742.68,666.35,742.4Zm2.91-20.55c0,.29,0,.59,0,.88-.16-.21-.34-.41-.51-.6l-.09-.79Zm-1.3,1.22c.1.76.2,1.52.31,2.29a7.43,7.43,0,0,0,.22,1.54c0,.15,0,.31.07.46l-.08.16c-.14-.54-.29-1.07-.42-1.61a18.12,18.12,0,0,1-.27-2.36.07.07,0,0,0-.14,0l0,.73c-.07-.35-.13-.72-.18-1.08,0-.2-.06-.41-.08-.61Zm-.25,11.59c.5.34,1,.71,1.43,1.09,0,.7,0,1.4,0,2.1a7.64,7.64,0,0,0-2.78-1c.23-.85.51-1.68.79-2.52Zm-1.3,9.3a1,1,0,0,0-.07-.31,5,5,0,0,1,2.38-.76l.06,0-.06,1c0,.16,0,.33,0,.49a5,5,0,0,0-2.25.67C666.44,744.67,666.42,744.31,666.41,744Zm6.9,10.61a21.42,21.42,0,0,0-1.82,1.88c-.06-.2-.13-.4-.2-.6s0-.15,0-.22c.61-.82,1.12-1.74,1.77-2.53a15.1,15.1,0,0,1,1-1.14c0,.12.09.24.13.35s0,.09.07.13c0,.4,0,.8-.08,1.2C673.91,754,673.61,754.26,673.31,754.57Zm-4-39.25v.33c-.32-.27-.65-.52-1-.77v-.15C668.64,714.92,669,715.11,669.3,715.32Zm0,2.77v0c0,.36,0,.72,0,1.07-.27-.32-.55-.64-.84-.95,0-.31,0-.63,0-1Zm5.58,38.68c0-.3,0-.6,0-.9l.12-.11C674.92,756.1,674.88,756.44,674.84,756.77Zm-1.28-35.47-.76,1c-.18.26-.37.53-.54.8l-.17.14h0l-.2.18a.16.16,0,0,0,0,.24l0,.08-.12-.28c0-.21,0-.43,0-.64s0-.37,0-.55Zm-3.93-13.51c-.47-.33-1-.64-1.38-1l-.22-.18a6.38,6.38,0,0,1,.37-.74l1.24.87.09.06C669.7,707.13,669.66,707.46,669.63,707.79Zm6.14-40.62c0-.3-.06-.61-.08-.91,0-1.29.17-2.59.28-3.87,0-.11,0-.22,0-.32.21-.49.39-1,.56-1.49.13.21.26.43.39.63a1.69,1.69,0,0,0,.3.48l.21.33a.68.68,0,0,0,.12.12A47.82,47.82,0,0,0,675.77,667.17Zm2.45-6.55-.07.14a13,13,0,0,0-.91-2.53l.15-.56a7.44,7.44,0,0,0,.62.7.2.2,0,0,0,.15.14,1.38,1.38,0,0,0,.83.36.35.35,0,0,0,.19-.06q-.28.77-.54,1.53A.44.44,0,0,0,678.22,660.62Zm1.13-2.25a.11.11,0,0,0-.19,0,8.13,8.13,0,0,0-.52-.72s0,0,0,0a.09.09,0,0,0-.11-.08c-.24-.33-.48-.64-.53-.73l-.27-.44q.33-1.23.63-2.46a14.42,14.42,0,0,0,1,1.39,6.12,6.12,0,0,0,.39.5.31.31,0,0,0,.16.12,13.59,13.59,0,0,0-.28,1.79C679.53,657.89,679.44,658.13,679.35,658.37Zm-18.13,14.3-.1-.06-.54-.34h0l.36.21.28.17Zm3.84,23.93a.41.41,0,0,0,.1-.21.4.4,0,0,0,0-.15,1.45,1.45,0,0,0,0-.3,4.71,4.71,0,0,0,0-.65,13.15,13.15,0,0,0,0-1.66,8.45,8.45,0,0,1,.18-1.67c.31,0,.63,0,1,0a8.52,8.52,0,0,1,2.93.31,7.46,7.46,0,0,1,1.49.69c-.33.22-.65.47-1,.72l-.51.28a6.9,6.9,0,0,0,.27-1.13c0-.06-.08-.08-.09,0a5.27,5.27,0,0,1-.35,1.25,12.78,12.78,0,0,0-3.41,2.8l-.3.39q-.36-.18-.75-.33A.77.77,0,0,0,665.06,696.6Zm1.81,8.18c0,.32-.06.64-.08,1l-.23-.13a7.49,7.49,0,0,0,0-1.06Zm.25,11.86c0-.14,0-.29,0-.43l.45.36v.81l-.46-.4Zm-.69,16c-.34-.17-.68-.32-1-.47-.12-.89-.26-1.78-.43-2.66l.33.15q.91.42,1.8.93C666.86,731.26,666.64,732,666.43,732.64ZM678,734.82c.41-.56.82-1.11,1.24-1.65.34-.18.69-.34,1-.52l1.74-.88a16.85,16.85,0,0,0-1.71,1.67,38.1,38.1,0,0,0-3.69,4.88c-.25.41-.52.82-.78,1.24,0-.34-.09-.69-.14-1A28,28,0,0,1,678,734.82Zm-7.51-24.53,0,0c0-.3,0-.61,0-.92l.12.1Zm-.56-5.1-.73-.49c.22-.28.46-.54.7-.81.07.08.13.16.2.23C670,704.48,670,704.83,669.93,705.19Zm1.49-2.79.11.1c0,.18,0,.37-.07.55v-.26a0,0,0,1,0-.06,0v.39s0,0,0,0v0l-.48-.4Zm4.51-2.94.21-.05-.22.3A2,2,0,0,0,675.93,699.46Zm3.71-2.34.36-.22h.19l-.24.41-.77.2ZM675.8,702c0-.09,0-.17,0-.26l0-.12a14.16,14.16,0,0,1,1.21-2,9.74,9.74,0,0,1,.88-1l.29-.13c.48-.21,1-.44,1.44-.67a16.11,16.11,0,0,0-.66,1.7A17.06,17.06,0,0,0,675.8,702Zm2.21-4.81,0,0a14,14,0,0,0-1.07,1.11,5.49,5.49,0,0,0-1.07.58c0-.15,0-.29,0-.43a19,19,0,0,1,1.73-1.13Zm-5,2.25v-.21l.9-.54Zm1-21.18c-.11.88-.17,1.78-.24,2.66a14.74,14.74,0,0,0-.53-2.18,22.17,22.17,0,0,0-1.05-2.63,15.83,15.83,0,0,1,1.07,1.78.52.52,0,0,0,.68.27A.86.86,0,0,1,674,678.28Zm-8.88,19.51a6.22,6.22,0,0,0-.33.69l-.07.11-.51-.23c0-.33-.07-.66-.13-1C664.4,697.5,664.75,697.64,665.09,697.79Zm1.24,6.75c0,.3-.09.6-.13.89l-.29-.13-.69-.3A4.49,4.49,0,0,0,666.33,704.54Zm-2.11,10.39c0-.18,0-.36,0-.53a14.87,14.87,0,0,1,1.94,1.1c0,.24,0,.48,0,.71l-.27-.19A11.3,11.3,0,0,0,664.22,714.93Zm3.37,3.26c0,.43,0,.86,0,1.29l-.27-.12-.2-.08c0-.48,0-1,0-1.43Zm-1.09,5.4.09.58a15.46,15.46,0,0,0,.15,2.35A13,13,0,0,0,667,728a3.27,3.27,0,0,0,.53,1.4c-.09.2-.17.39-.24.59a19.09,19.09,0,0,0-1.91-1l-.59-.25-.15-.66a.51.51,0,0,0-.81-.3c0-.16,0-.33,0-.49,0-1.13.07-2.26.1-3.39l.12-3.93c.74.53,1.46,1.09,2.18,1.65C666.34,722.3,666.41,723,666.5,723.59Zm0,38.55c-.47,1.92-.94,3.84-1.45,5.76-.22.8-.44,1.59-.69,2.39,0-.36,0-.72-.05-1.07-.07-1.58-.12-3.16-.14-4.74,0-.21,0-.41,0-.62a6.56,6.56,0,0,1,.43-.68.67.67,0,0,0,.18-.07,4,4,0,0,0,1.75-1.76.67.67,0,0,0,.06-.15l.17-.1C666.64,761.45,666.56,761.79,666.47,762.14ZM683,728.45c.11-.13.23-.26.34-.4l.07.05Zm-6-2.14c-.06,1.38-.15,2.75-.24,4.12l-.15,2.06c-.05.58-.15,1.19-.15,1.78-.4.58-.78,1.18-1.13,1.78-.34-2-.74-4-1.26-6a43.2,43.2,0,0,0-1.72-5.15c.41-.68.84-1.34,1.3-2l.34-.45a14.86,14.86,0,0,1,3.19-1.31C677.07,722.89,677.06,724.61,677,726.31Zm-2.23-4.81.45-.55.11-.13a8.89,8.89,0,0,0,1.9-.51c0,.11,0,.23,0,.35A10.07,10.07,0,0,0,674.74,721.5Zm-4.25-15.92c0-.34,0-.67,0-1l.33.39c.1.12.2.23.31.34s-.07.44-.1.67C670.85,705.83,670.67,705.71,670.49,705.58Zm2.3-4v-.05c0-.17.05-.34.07-.51l.34-.31a9.34,9.34,0,0,0,1.89-1.46.15.15,0,0,0,0-.18l.32-.24c0,.56,0,1.12,0,1.68a7.9,7.9,0,0,0-1.07,2.64A12,12,0,0,0,672.79,701.61Zm2.22,2h0a.76.76,0,0,0,.19.12c0,.19,0,.37,0,.56l-.31-.4C674.92,703.79,675,703.7,675,703.61Zm4.72-2.46,1-.54c0,.23,0,.46,0,.69-.42.32-.84.64-1.25,1C679.55,701.89,679.63,701.52,679.73,701.15Zm3.29-4a.45.45,0,0,0-.29-.35v0l.32.1a.53.53,0,0,0,.13.2Zm-9.93,1.07.09-.48a.24.24,0,0,0,.17-.17c.15-.5.28-1,.4-1.53a10.63,10.63,0,0,1,.59,1.54C673.92,697.82,673.5,698,673.09,698.26Zm7.32-44.54-.21.91-.12-.17h0a9,9,0,0,0-1-2.92c.26-.72.51-1.44.71-2.17a1.92,1.92,0,0,0,.29.5c.28.56.55,1.13.81,1.7ZM673,665.5a.5.5,0,0,0,0,.12,1,1,0,0,0-.08-.11ZM671.55,678c.05.09.09.17.13.26a10.12,10.12,0,0,1,.46,1.54c-.15-.48-.31-1-.47-1.44,0-.06-.11,0-.09,0,.24,1.11.47,2.23.68,3.35-.29-.45-.6-.88-.92-1.3-.82-1-1.69-2-2.59-3l.36-1a.11.11,0,0,0-.21-.09c-.14.27-.29.53-.44.8l-.12-.14h0s0,0-.05,0c-.45-.48-.91-.95-1.37-1.42-.31-.33-.64-.64-1-1,.09-.56.17-1.12.26-1.67a.59.59,0,0,0,0-.13v0c.35.24.69.47,1,.69a12.85,12.85,0,0,1,2.44,2A11.11,11.11,0,0,1,671.55,678Zm-11-7.26h0c0-.43,0-.86,0-1.29h0A9.22,9.22,0,0,0,660.55,670.72Zm-.34,3.43a1.8,1.8,0,0,0-.18,1.11l0,.81a19.5,19.5,0,0,0-.55-2.09c0-.14-.09-.27-.13-.4Zm4.13,25.36-.06.2v-.24Zm.06,3.8a3,3,0,0,0,.27.6c0,.16.06.33.1.49a.14.14,0,0,0,0,.07l-.3.2h0l-.08,0c0-.32,0-.64,0-.95Zm0,3.16a13.33,13.33,0,0,0,1.23.52,2,2,0,0,0,.26.09v0c0,.14-.08.27-.13.4-.46-.2-.91-.42-1.37-.64Zm1.92.74.38.1-.15.55-.37-.18C666.18,707.53,666.22,707.37,666.27,707.21ZM661.7,746l.09.24a6.58,6.58,0,0,1-.67-.88A7,7,0,0,0,661.7,746Zm2.7,8.85c.07-1.46.17-2.92.27-4.37l.12.11.08.18a1.78,1.78,0,0,0,0,.91.24.24,0,0,0,.29.17l.13,0a9,9,0,0,1,.29,1.19c.21,1.24.23,2.49.38,3.73a18,18,0,0,0,.72,3.09,9.88,9.88,0,0,0-2.43-.48C664.26,757.86,664.33,756.36,664.4,754.87Zm21.48-24.23c.74-.4,1.5-.75,2.25-1.12l.36-.2.08,0a9.57,9.57,0,0,0-1.25.86c-.48.24-1,.5-1.43.78C685.89,730.84,685.88,730.74,685.88,730.64Zm-2.07-2.88a1.4,1.4,0,0,0-.09-.17l.44-.51,0,.36Zm-6-7.22a1.93,1.93,0,0,1,0-.24l.37.2Zm-4.45-15.08a7.09,7.09,0,0,0-.46-.85,5.45,5.45,0,0,0-.46-.5l.09-.83.37.27.17.17c.17.18.32.37.49.55s.1,0,.08-.06a2.12,2.12,0,0,0-.11-.21,12.06,12.06,0,0,1,1.18,1,.35.35,0,0,0,.35.1c-.05.36-.1.72-.16,1.08l-.31.29c-.15.12,0,.35.2.26l0,0-.12.67A18.79,18.79,0,0,0,673.4,705.46Zm10.06-4.54.46-.32c.05.31,0,.57.06.86l-.6.41-.19.13A10.65,10.65,0,0,0,683.46,700.92Zm.11-1.64,0-.25c.62-.36,1.22-.74,1.81-1.14l.47-.34.61.1A21.93,21.93,0,0,0,683.57,699.28Zm-2.58-44,.09-.37s0-.08,0-.11l.18-.7c.1-.35.19-.7.28-1,.09.19.17.39.25.59C681.49,654.17,681.23,654.72,681,655.26Zm-7,14h0c0,.13,0,.27.07.42-.26-.25-.55-.48-.81-.74a4.94,4.94,0,0,0-1.24-1.17c-.9-1.8-1.86-3.55-2.92-5.26l-.19-.32-.15-.3a25.33,25.33,0,0,1,3.48,4.09A29.55,29.55,0,0,1,674,669.24Zm-7.68-2.66c-.13-.14-.27-.26-.4-.39s-.2-.4-.31-.6C665.87,665.91,666.11,666.24,666.33,666.58Zm1,4.67a10,10,0,0,0,2.06,1.89c.37.32.73.65,1.07,1a22.88,22.88,0,0,1,1.67,3.71,8.8,8.8,0,0,0-.81-1.3.11.11,0,0,0-.14,0l-.14-.18a23.67,23.67,0,0,0-4.47-4l-.26-.18v0a6.33,6.33,0,0,0,.17-2,.29.29,0,0,0,0-.09,2.53,2.53,0,0,1,0-.28v0l.33.28A5.41,5.41,0,0,0,667.37,671.25Zm-1.89,1.57L665.3,674a22.12,22.12,0,0,0-2.9-2.2c-.06-.44-.13-.89-.21-1.33.89.5,1.8.94,2.69,1.44l.68.41C665.53,672.46,665.51,672.64,665.48,672.82Zm-4.36-2.93,0-.1,0,0Zm-2-1.32,1,.63c0,.45,0,.9,0,1.34-.46-.22-.94-.42-1.41-.62a15.2,15.2,0,0,0-1.48-.51c-.62-1.1-1.24-2.19-1.87-3.27C656.67,666.93,657.9,667.76,659.15,668.57ZM654,665.3c.32.54.63,1.09.91,1.65.08.15.15.3.22.45-.37-.45-.76-.89-1.17-1.3s-.9-.84-1.37-1.23l-.61-.54.54.25a5.48,5.48,0,0,0,1.08.48Zm-.22,2.75.07.1a.81.81,0,0,1-.37-.12A1.51,1.51,0,0,0,653.79,668.05Zm4.13,10.21-.42-.3c0-.29.07-.57.1-.84.08-.56.2-1.17.27-1.78a.35.35,0,0,0,.52-.21c0-.18.08-.34.1-.5.27,1,.48,2.09.68,3.19.09.47.18,1,.3,1.46h0Zm6,21.46c0-.13,0-.27,0-.41h0l0,.45c0,.59.06,1.17.08,1.76l-.12-.09v0c0-.18,0-.35,0-.53C663.92,700.48,663.92,700.1,663.93,699.72Zm.18,3.15a1.21,1.21,0,0,0,0,.19v1.48h0q0-.85-.06-1.71Zm-3.79,39.07a24.51,24.51,0,0,0-3.84-3.49l.35.15a6.73,6.73,0,0,1,2.36,1.62A11.1,11.1,0,0,1,660.32,741.94Zm2.24,7.4a7,7,0,0,0-.26-.77c-.08-.21-.15-.41-.23-.61a.28.28,0,0,0,.09-.35l-.15-.36a.28.28,0,0,0,.21-.06,7,7,0,0,0,1,1.27c0,.58-.07,1.16-.11,1.74,0,.28,0,.57-.06.85C662.92,750.48,662.75,749.91,662.56,749.34Zm22.33-22.47,0-.09c.07,0,.13-.1.1-.17s-.09-.21-.13-.32l.18-.22v.71Zm-.52-1.59a.14.14,0,0,0-.14-.08,13.68,13.68,0,0,0-2.15-2.5,16.91,16.91,0,0,0-3.9-2.76c.71-.2,1.46-.3,2.18-.49l.46-.13a32,32,0,0,0,2.46,3.14,18.43,18.43,0,0,1,1.43,2.47Zm-12.64-7,0-.06c0-.29,0-.59,0-.88.07.07.13.15.19.22C671.83,717.83,671.79,718.07,671.73,718.31Zm.19-7.52c.49.54.94,1.12,1.38,1.71a.17.17,0,0,0,.12.07h0c-.09.32-.18.64-.28,1v.06a5,5,0,0,0-1.24-2Zm2.28-1.13a5.57,5.57,0,0,0-.45-.83,8.21,8.21,0,0,0-1.51-1.86l0,0c0-.27,0-.53.07-.8l.32.15a17,17,0,0,0,2,1.31.13.13,0,0,0,.12,0c-.06.26-.11.53-.17.79C674.41,708.8,674.3,709.23,674.2,709.66Zm.89-1.28a12.63,12.63,0,0,0,2-1.22c.8-.51,1.58-1,2.36-1.58l1.24-.84a5.67,5.67,0,0,0,.1.72,1.11,1.11,0,0,0-.07.16l0,0c-.61.35-1.24.68-1.86,1l-2.34,1.25a6,6,0,0,0-1.46.83Zm9.33-7.23a2.82,2.82,0,0,1-.36-.64c1.27-.86,2.56-1.7,3.83-2.57.5.12,1,.21,1.49.29a15.1,15.1,0,0,0-1.53.71A36.39,36.39,0,0,0,684.42,701.15Zm-4.06-5.85a6.8,6.8,0,0,0-1,.19c-.66-.69-1.4-1.32-2.05-2l0,0,.8-.58.69-.49c.65.93,1.2,2,1.89,2.86Zm-3.89-2.77-.72-.85c.42-.5.85-1,1.28-1.48.32.37.64.76.94,1.15C677.46,691.73,677,692.13,676.47,692.53Zm0-3.42-.64-.58a.1.1,0,0,0-.13.14l.6.67q-.6.78-1.17,1.59l-.26-.3c-.07-.08-.2,0-.15.11l.25.43-.5.75c0-.18.06-.36.08-.54.11-.74.21-1.48.32-2.21a.16.16,0,0,0,.21,0,13.48,13.48,0,0,0,1.32-1.74c.53-.07,1.06-.11,1.59-.13C677.44,687.87,676.93,688.48,676.44,689.11Zm1-5.28c-.44.63-.85,1.28-1.24,1.94q-.26.43-.51.9l-.52.1c.07-.53.14-1.07.2-1.6,0-.13,0-.25,0-.37a.24.24,0,0,0,.17.15.86.86,0,0,0,.83-.28c.28-.25.57-.51.84-.77ZM702.14,627a.14.14,0,0,0,0,.06c-.34.37-.67.75-1,1.13C701.49,627.76,701.81,627.36,702.14,627Zm-7.26,6.67c.11-1.11.21-2.22.36-3.33.08-.54.17-1.08.26-1.62.38,0,.76,0,1.14,0-.12.32-.21.65-.3,1a5.57,5.57,0,0,0-.39,2.74c-.08.11-.17.22-.25.34l-.28.42C695.24,633.33,695.05,633.48,694.88,633.64Zm2.84-3.58c.15-.41.3-.82.47-1.22.22,0,.45.07.67.12-.42.44-.84.89-1.24,1.36Zm26.57-10.53c-1.44.22-2.86.55-4.29.83.81-.31,1.6-.71,2.43-1l.09-.06.93-.23c.57,0,1.13.12,1.69.21l-.22.11Zm-26.36,7a4.57,4.57,0,0,0-.93,1.32l-.63,0a.13.13,0,0,0-.12,0h-.58c.05-.33.11-.65.17-1a11.06,11.06,0,0,1,.73-1.06l.21-.13,1.25.2a.2.2,0,0,0,.16.09,1.38,1.38,0,0,0,.29,0l.09,0C698.35,626.11,698.14,626.29,697.93,626.49Zm-4.62,3a15.78,15.78,0,0,0-.59,3.54,14.22,14.22,0,0,0,0,3.06l-.65.88q.06-3.18,0-6.37c0-.12,0-.24.08-.37a.09.09,0,0,0,.14-.1,1.32,1.32,0,0,1,.18-.91,8.51,8.51,0,0,1,1-.3Zm8.21-3.52c-.12.06-.1.19,0,.27l-.14.13c-.62.64-1.25,1.27-1.87,1.9l-.12-.1a.16.16,0,0,0-.15-.16l-.17,0a1.69,1.69,0,0,0-.44-.12A9.34,9.34,0,0,1,699,627a3.28,3.28,0,0,1,.64-.85.38.38,0,0,0,.4-.34l.1-.07a.25.25,0,0,0,.16-.11,3.22,3.22,0,0,1,1.24-.43c.37,0,.73,0,1.06-.08l-.69.72Zm-17.87,24.06-.21.37c-.35.62-.69,1.24-1,1.87l-.06-.19a1.67,1.67,0,0,0,.41-1.1,33.88,33.88,0,0,0,1.34-3.38c.19-.51.37-1,.55-1.54a5.74,5.74,0,0,0,.36.5.34.34,0,0,0,.4.13C684.79,647.8,684.19,648.92,683.65,650.05Zm-2.84-13.11Zm-.4-.37-.12-.13.1.08Zm-15.09-4.47s0,.08,0,.11l-.23-.29Zm-.48,20.76c1.27,2.19,2.78,4.22,4.25,6.28l2.3,3.24,1.18,1.68,0,0,0,.08c0,.36.1.72.16,1.08-.36-.54-.75-1.07-1.16-1.57-.72-.9-1.55-1.69-2.31-2.55a36.77,36.77,0,0,1-3.63-5.06c-.29-.54-.59-1.08-.87-1.63,0,0-.07,0-.05,0l.19.39c-1.3-2.17-2.63-4.31-4-6.43l.9.27L663,649A26.93,26.93,0,0,0,664.84,652.86Zm-2.93-1.24-.18-.25c-.06-.12-.11-.25-.16-.38C661.68,651.2,661.79,651.41,661.91,651.62Zm1,11.64c.59.5,1.19,1,1.8,1.42q.27.48.51,1l-.26-.18a3,3,0,0,0-1.86-.93l-.31-.1q-2-2-3.82-4.11A33.6,33.6,0,0,1,662.94,663.26Zm-13.92.31c.13.19.25.39.36.59l-.11,0c-.44-.48-.84-1-1.23-1.52a.19.19,0,0,0,.08-.16C648.43,662.79,648.74,663.17,649,663.57Zm1.78,2.17-.09-.12a.24.24,0,0,0,.09-.06c.05.09.11.17.16.25Zm12.72,31.86c0,.08,0,.15,0,.22,0-.08,0-.16,0-.23Zm-2.34,38.9h0Zm24.2-10a2,2,0,0,1,0-.23h0a.18.18,0,0,0,.23.07Zm-13.64-10.7c0-1,.07-1.95.1-2.93.3.48.56,1,.91,1.44a.31.31,0,0,0,.15.1c-.11.34-.21.68-.32,1l0,0a.14.14,0,0,0,0,.14c-.06.16-.11.33-.16.5s-.08.26-.13.39A4.81,4.81,0,0,0,671.74,715.78Zm12.07-11.08c.45-.32.89-.65,1.33-1l.2.31c-.52.27-1.05.52-1.55.79-.28.14-.55.3-.83.45Zm7.31-11.54a.17.17,0,0,0-.08.2l-.55.2c-.45.15-.91.28-1.37.39,1.1-.54,2.18-1.12,3.28-1.67l.19.12A12.75,12.75,0,0,1,691.12,693.16Zm2-1.27.71-.35-.61.43ZM685,688.46a32.52,32.52,0,0,1,5.38,2.6l.78.46c-.51.2-1,.41-1.52.63-1.31.55-2.62,1.13-3.88,1.8l-.12,0,0,0a4,4,0,0,0,.44-.48.23.23,0,0,0-.05-.32,12.33,12.33,0,0,0,.8-2.09.07.07,0,0,0-.12-.07,7,7,0,0,0-.48.6c0-.1,0-.21.07-.32a.23.23,0,0,0-.44-.12,4.82,4.82,0,0,1-.26.7,3.44,3.44,0,0,0-1.09,1.06,7.59,7.59,0,0,1-.77.84c-.2.13-.42.26-.64.38a7.36,7.36,0,0,0-.9.56c-.42.16-.85.29-1.29.41a12.52,12.52,0,0,0-1.85-3c1.59-1.13,3.19-2.24,4.88-3.23.28-.17.56-.34.85-.5Zm4.56-47.81s0-.08,0-.12h.13Zm-3.32,1.69a3,3,0,0,0,.78.62,2.09,2.09,0,0,0,.24.58.28.28,0,0,0,.13.11c-.53.75-1,1.51-1.5,2.28l-.12.21c-.11-.6-.25-1.22-.42-1.84C685.62,643.63,685.91,643,686.24,642.34Zm-10.09-4.74a7.85,7.85,0,0,1,.79-2.5h0a0,0,0,0,0,0,.06l.29.11a14,14,0,0,0,1.2,1c.44.32.9.63,1.35.94l.27.24c.67.92,1.31,1.86,1.9,2.83.19.41.39.81.59,1.22s.33.76.54,1.16c-.19.57-.36,1.14-.52,1.71-.39,1.35-.71,2.72-1,4.09l-1.11-2a1.74,1.74,0,0,0-.11-.18,14.23,14.23,0,0,0-.86-6.71.25.25,0,0,0-.18-.15l0,0c0-.14,0-.28-.07-.42a.15.15,0,0,0-.14-.12l.09-.39c0-.17-.22-.3-.3-.13s-.28.63-.41.94a.32.32,0,0,0-.32.2,3.6,3.6,0,0,0-.14.92c0,.08-.06.17-.1.26s-.32.48-.47.73l0-.05,0-.08a.42.42,0,0,0-.09-.27c-.15-.2-.31-.39-.47-.58-.24-.38-.48-.75-.73-1.12C676.08,638.71,676.07,638.15,676.15,637.6Zm-9.23,7.4a57.27,57.27,0,0,1,4.06,6c.7,1.13,1.37,2.28,2,3.44l.26.46c-.17.88-.3,1.77-.4,2.65-.07.34-.12.68-.17,1s-.07.58-.1.89c0,0,0,0-.05.06l0,.57-.15-.61a.22.22,0,0,0-.15-.18c-.31-.87-.63-1.73-.94-2.6-.83-2.28-1.6-4.6-2.57-6.84a23.38,23.38,0,0,0-3.38-5.39,28.43,28.43,0,0,1-2-2.7A12.56,12.56,0,0,1,666.92,645Zm-8.34-.47c-.37-.63-.74-1.26-1.13-1.88s-.72-1-1.08-1.51a9.64,9.64,0,0,1,4.92-.13c0,.18,0,.37,0,.55a2.88,2.88,0,0,0-.27-.34c0-.05-.11,0-.07.06a3.91,3.91,0,0,1,.36.47c0,.33.06.64.09.94A27.34,27.34,0,0,0,662,646a21.17,21.17,0,0,0,.66,2.23l-1-.29c-.41-.12-.81-.24-1.22-.34C659.8,646.62,659.2,645.57,658.58,644.53Zm.78,3.52c.24,0,.47.09.71.15.31.58.62,1.16.94,1.74,0,.21.09.41.14.62C660.56,649.72,660,648.88,659.36,648.05Zm8.83,18.61c.65.28,1.31.54,1.95.84a27.62,27.62,0,0,0,1.49,2.92.1.1,0,0,0,.19-.07c-.08-.35-.18-.7-.29-1.05l.05.08,0,.08c.18.35.36.69.55,1a.07.07,0,0,0,.1,0l.75,1.2a14.9,14.9,0,0,0,.92,1.37l.48,1c0,.37-.07.74-.1,1.11a18.89,18.89,0,0,0-1.5-2c-.68-.84-1.41-1.63-2.11-2.45a21.39,21.39,0,0,1-2-2.94l-.67-1.13Zm-24.11-11.6a18.23,18.23,0,0,1,5.7,1.09,62,62,0,0,1,7.18,3l0,0c.58.68,1.15,1.37,1.72,2.06l.12.21c.36.63.83,1.61,1.57,1.83l.69.82c-1.39-.12-3.42,0-3.82,1.45a.36.36,0,0,0,0,.11v0h0a.11.11,0,0,1,0,0,.19.19,0,0,0,0,.08c-.61-.37-1.23-.74-1.86-1.09-.38-.22-.77-.42-1.16-.61-.57-1-1.15-1.91-1.75-2.85a19.51,19.51,0,0,0-2.15-3.08c-.15-.16-.38,0-.29.22.52,1.1,1.28,2.12,1.91,3.17.36.59.71,1.19,1,1.79-.16-.2-.33-.39-.5-.59s-.17,0-.12.1l.48.65a20.79,20.79,0,0,0-2-.7c-.84-1.2-1.72-2.36-2.66-3.49-.56-.67-1.14-1.32-1.74-2-.43-.62-.88-1.23-1.36-1.82,0,0-.08,0-.06,0l.41.73C645,655.92,644.55,655.49,644.08,655.06Zm-6.21,3.86-.4-.31.17.08.51.34a.07.07,0,0,0,.1,0l.3.16c1.2.62,2.34,1.34,3.47,2.06a18.06,18.06,0,0,1,1.93,1.67c.19.19.37.38.57.56h0l-.27,0a.15.15,0,0,0,0-.25,4,4,0,0,0-1.41-.33,13.49,13.49,0,0,0-2.16-1.74C639.69,660.38,638.79,659.64,637.87,658.92Zm0,6.07a11.29,11.29,0,0,1,2.28-1.07,6.81,6.81,0,0,0,1.35.09c.18,0,.24-.3.05-.34l-.26,0c.2,0,.4-.06.6-.08a2.92,2.92,0,0,0,.61.21l0,0a4,4,0,0,0-1.42.83s0,0,0,.07c-.9.47-1.79,1-2.69,1.45-1.29.64-2.53,1.37-3.83,2-.42.2-.84.4-1.25.62A24.67,24.67,0,0,1,637.91,665Zm11,2.2c-.64.17-1.24.29-1.83.47a6.2,6.2,0,0,0,2.22-2l.21,0a2.92,2.92,0,0,0,1.27.63.22.22,0,0,0,.27-.16l.34.22,0,.06A25.25,25.25,0,0,1,648.88,667.19Zm11.93,29.43a18.57,18.57,0,0,1,2.22.45h0v0c0,.27,0,.53.08.79l-1.45-.66a6.55,6.55,0,0,0-2.3-.75h0l-.08-.08C659.82,696.5,660.33,696.54,660.81,696.62Zm1.75,3.45-.14-.14a13,13,0,0,0-1.69-2.13l.5.24,2.06,1c.07.55.14,1.09.18,1.64v.41C663.14,700.75,662.86,700.39,662.56,700.07Zm-.07,5.41.79.44c0,.16,0,.31,0,.47l-.28-.11L659.58,705c-.88-.33-1.74-.71-2.62-1,1.21.09,2.43.18,3.64.33C661.22,704.71,661.85,705.11,662.49,705.48Zm-2,5.73.37.16-.58-.18Zm-8.08.33-.53-.4a13.35,13.35,0,0,1,1.79,0c.58.06,1.15.14,1.7.23l.43.07a31.31,31.31,0,0,1,4.89,1.46c.83.32,1.67.63,2.49,1l0,.5c-.9-.37-1.82-.69-2.76-1a15.51,15.51,0,0,0-3.24-.65,12.17,12.17,0,0,0-1.71-.09c-.55,0-1.11-.07-1.67-.08C653.29,712.26,652.84,711.89,652.39,711.54Zm6.5,2.83a31.91,31.91,0,0,1,4.17,1.29l-.06,1.69-.88-.52a43,43,0,0,0-4.88-2.48c-.43-.18-.88-.35-1.32-.52A29.3,29.3,0,0,1,658.89,714.37Zm1.39,17.27c.67.16,1.34.34,2,.54l-.35.8a9.94,9.94,0,0,0-.69,2.78l-.25,0c-.14-.59-.29-1.16-.46-1.74a22.41,22.41,0,0,0-.87-2.5Zm1.27,18.86a25.62,25.62,0,0,0-3.79-3.93,39.79,39.79,0,0,0-4.48-3.27,12.91,12.91,0,0,0-4.47-1.89,15,15,0,0,1,5.25,1.56,17,17,0,0,1,4.64,3.16,29.41,29.41,0,0,1,3.6,5,.23.23,0,0,0,.12.1l.24.82C662.32,751.54,661.94,751,661.55,750.5ZM677,755c-.27,1.08-.53,2.15-.85,3.21-.09.32-.2.64-.3,1,0-.63,0-1.27.07-1.9,0-.84.11-1.68.17-2.51a17.23,17.23,0,0,0,1.38-1.69C677.27,753.68,677.11,754.33,677,755Zm12.21-29.62c-.94.44-1.87.92-2.78,1.42l-.26.1c.77-.57,1.56-1.12,2.36-1.66.16-.12.33-.23.5-.34Zm-3.5.91a.1.1,0,0,0,0-.09,5.57,5.57,0,0,0-.14-.71l.25-.29c.72-.83,1.42-1.69,2.15-2.52a8.16,8.16,0,0,1,.73,1.41C687.64,724.76,686.64,725.5,685.66,726.26Zm.89-9.33a10.88,10.88,0,0,1-1.37.32,34,34,0,0,1-5.15.07c.69-.15,1.38-.27,2.07-.35A22.81,22.81,0,0,1,686.55,716.93Zm1.17-8.1c-.86.33-1.72.67-2.57,1a43.23,43.23,0,0,0-9.35,4.73,18.89,18.89,0,0,0-2.14,1.86,7.38,7.38,0,0,0-1,1.09v0c.16-.38.31-.78.45-1.17s.24-.64.35-1c.85-.53,1.64-1.25,2.44-1.82l.47-.33.43-.2a13.87,13.87,0,0,0,1.53-.8l.18-.12a7.76,7.76,0,0,0,1.07-.64,9.34,9.34,0,0,0,1.1-.76l.15-.12c1.45-.82,2.91-1.6,4.37-2.37.62-.33,1.25-.64,1.87-1Q687.44,708,687.72,708.83Zm-1.84-4c-1.39.9-2.72,1.88-4,2.9a25.27,25.27,0,0,0-2.33,1.92,4.55,4.55,0,0,0-.42.45c-.38.27-.75.55-1.12.83-.71.53-1.39,1.09-2.08,1.64a4.6,4.6,0,0,0-2,1.47c0-.13.09-.27.13-.41l.21-.79a2.42,2.42,0,0,0,1.7-.78l2.26-2.05c.79-.71,1.54-1.46,2.39-2.09s1.69-1.18,2.57-1.71,1.76-1,2.62-1.57Zm3-3.53a13.64,13.64,0,0,1-2.29,2l-.51.31-.27-.4c.63-.5,1.25-1,1.85-1.52a17.08,17.08,0,0,1,2.63-1.81Q689.54,700.6,688.85,701.32Zm3.73-4.34a.14.14,0,0,0-.17,0h0l-.46-.07c-1.55-.22-3.11-.43-4.66-.67l.07-.11c.65-.11,1.29-.22,1.94-.29a17.16,17.16,0,0,1,5.54.25c-.48.36-1,.73-1.41,1.09Zm6.51-8.11c-.51.12-1,.25-1.52.39l.95-.78Zm3-3.38a9.43,9.43,0,0,0-2.47,1.32c-.37.27-.72.54-1.07.83a13.54,13.54,0,0,0-4-2.22c-.46-.18-.91-.36-1.38-.53a14,14,0,0,1,4.5-.49A15.52,15.52,0,0,1,702.06,685.49ZM688,684.16l1.67.52a31.15,31.15,0,0,0-5.39,2.46,19.79,19.79,0,0,0-3.74-.73c1.06-1.08,2.15-2.12,3.29-3.12A26.8,26.8,0,0,1,688,684.16Zm8.49-11.07q-2.9,1.59-5.66,3.36a63.43,63.43,0,0,0-8,6c-.46,0-.92,0-1.37,0s-.88.1-1.3.17a37.12,37.12,0,0,1,2.81-2.8c1.58-1.42,3.34-2.59,5-3.92a44.42,44.42,0,0,1,5.81-3.77c.67-.39,1.35-.75,2-1.08l.32.24c.35.45.68.9,1,1.36A6.65,6.65,0,0,0,696.47,673.09Zm-.88-2.39a6.52,6.52,0,0,1-.84-1.06l.84,1.05Zm-4.66-1.45a10.26,10.26,0,0,1,1.2-.78l.33-.15a3.23,3.23,0,0,1,.6-.09,1.46,1.46,0,0,1,1,.55c.13.15.26.31.4.46a7.7,7.7,0,0,0,.59,1.08,5.72,5.72,0,0,0,.4.46c-1.3.58-2.57,1.26-3.83,2l.19-.16s0-.07,0-.05a14.76,14.76,0,0,0-1.35.87c-.64.36-1.28.71-1.93,1.05a33.38,33.38,0,0,0-3.27,1.79,28.88,28.88,0,0,0-2.56,2c-.67.57-1.31,1.17-1.94,1.79,1.17-1.42,2.26-2.89,3.45-4.28a57.1,57.1,0,0,1,4.34-4.46A29.3,29.3,0,0,1,690.93,669.25Zm-8.07-3.15c-1.3,1.62-2.58,3.29-3.73,5-.76,1.14-1.51,2.27-2.17,3.44l-.41.51c0-.18.05-.37.07-.56a.21.21,0,0,0,.35-.09c1-4.24,1.84-8.5,3-12.69l.49-.31c1.67-.44,3,1.13,4.16,2.39C684.07,664.59,683.47,665.34,682.86,666.1Zm3-12.88a5.31,5.31,0,0,1,3.67.55,8.19,8.19,0,0,1,1.63,1.33l-.48.64c-1.29,1.73-2.64,3.42-3.92,5.17l-1.74,2.4a5.93,5.93,0,0,0-2.1-2.43,3.15,3.15,0,0,0-.69-.34l.42.06a0,0,0,0,0,0-.09,2.31,2.31,0,0,0-1.42-.09,2.58,2.58,0,0,0-1,.28c.18-.61.37-1.21.56-1.81l.21-.64c.61-.66,1-1.51,1.6-2.2l.25-.29a.21.21,0,0,0,.24-.22v0c.29-.31.59-.62.9-.91A4.42,4.42,0,0,1,685.85,653.22Z" transform="translate(-181.89 -239.81)"/><path class="cls-6" d="M614.66,656c2.14.49,4.45.33,6.64.53.62.06,1.26.09,1.87.21a5.32,5.32,0,0,1,1.55.76,8.33,8.33,0,0,0,2.83.78,28.63,28.63,0,0,1,6,1.39c1,.37,2,.83,3,1.28s1.86,1.11,2.81,1.62a.11.11,0,1,0,.11-.18c-.86-.66-1.82-1.18-2.69-1.83a25.73,25.73,0,0,0-2.71-1.77,13.48,13.48,0,0,0-2-.93h.12c.07,0,.09-.1,0-.12a13.47,13.47,0,0,0-1.56-.32,18.79,18.79,0,0,0-2.63-.49,13.57,13.57,0,0,1-3.08-.74,5.53,5.53,0,0,0-1.48-.41,14.43,14.43,0,0,0-1.74,0c-1.19,0-2.37,0-3.56,0a19,19,0,0,0-3.46,0C614.55,655.78,614.56,656,614.66,656Z" transform="translate(-181.89 -239.81)"/><path class="cls-6" d="M646.43,772.55s0,0,0,0S646.44,772.55,646.43,772.55Z" transform="translate(-181.89 -239.81)"/><rect class="cls-7" x="311.58" y="462.33" width="242.99" height="171.42" rx="14.38" transform="translate(684.25 856.27) rotate(180)"/><rect class="cls-8" x="321.1" y="444.08" width="223.96" height="162.8" transform="translate(684.25 811.16) rotate(180)"/><rect class="cls-9" x="321.1" y="444.08" width="223.96" height="19.66" transform="translate(684.25 668.03) rotate(180)"/><path class="cls-10" d="M425.24,619.17a7.84,7.84,0,1,0,7.83-7.83A7.83,7.83,0,0,0,425.24,619.17Z" transform="translate(-181.89 -239.81)"/><polygon class="cls-11" points="258.1 356.02 257.32 355.2 277.47 336.19 297.86 340.61 317.33 318.39 334.32 319.35 347.55 301.1 348.47 301.77 334.88 320.52 317.82 319.56 298.27 341.86 277.81 337.42 258.1 356.02"/><path class="cls-12" d="M482.92,580.4a3,3,0,1,1-3.6-2.32A3,3,0,0,1,482.92,580.4Z" transform="translate(-181.89 -239.81)"/><path class="cls-11" d="M480.72,584.55a3.6,3.6,0,1,1,2.75-4.27A3.59,3.59,0,0,1,480.72,584.55Zm-1.28-5.92a2.46,2.46,0,1,0,2.92,1.89A2.46,2.46,0,0,0,479.44,578.63Z" transform="translate(-181.89 -239.81)"/><path class="cls-12" d="M502.43,558.33a3,3,0,1,1-3.6-2.32A3,3,0,0,1,502.43,558.33Z" transform="translate(-181.89 -239.81)"/><path class="cls-11" d="M500.23,562.49a3.6,3.6,0,1,1,2.75-4.28A3.6,3.6,0,0,1,500.23,562.49ZM499,556.57a2.46,2.46,0,1,0,2.92,1.88A2.47,2.47,0,0,0,499,556.57Z" transform="translate(-181.89 -239.81)"/><path class="cls-12" d="M519.29,559a3,3,0,1,1-3.6-2.32A3,3,0,0,1,519.29,559Z" transform="translate(-181.89 -239.81)"/><path class="cls-11" d="M517.09,563.16a3.6,3.6,0,1,1,2.76-4.27A3.6,3.6,0,0,1,517.09,563.16Zm-1.28-5.92a2.46,2.46,0,1,0,2.93,1.89A2.47,2.47,0,0,0,515.81,557.24Z" transform="translate(-181.89 -239.81)"/><path class="cls-12" d="M462.47,576.25a3,3,0,1,1-3.59-2.32A3,3,0,0,1,462.47,576.25Z" transform="translate(-181.89 -239.81)"/><path class="cls-11" d="M460.28,580.4a3.59,3.59,0,1,1,2.75-4.27A3.6,3.6,0,0,1,460.28,580.4ZM459,574.49a2.46,2.46,0,1,0,2.92,1.88A2.46,2.46,0,0,0,459,574.49Z" transform="translate(-181.89 -239.81)"/><rect class="cls-13" x="274.59" y="348.34" width="12.39" height="2.39"/><rect class="cls-13" x="283.21" y="323.85" width="12.39" height="2.39"/><rect class="cls-13" x="308.92" y="340.91" width="12.39" height="2.39"/><rect class="cls-13" x="320.03" y="307.4" width="12.39" height="2.39"/><rect class="cls-13" x="338.03" y="327.37" width="12.39" height="2.39"/><rect class="cls-13" x="147.3" y="240.41" width="0.49" height="51.7"/><rect class="cls-13" x="182.34" y="240.41" width="0.49" height="51.7"/><rect class="cls-13" x="217.38" y="240.41" width="0.49" height="51.7"/><rect class="cls-13" x="252.42" y="240.41" width="0.49" height="51.7"/><rect class="cls-13" x="287.45" y="240.41" width="0.49" height="51.7"/><path class="cls-14" d="M381.13,520.76c-7.8,0-10.87-4.32-14.13-8.9-3-4.27-6.17-8.68-13.59-10.73a17.61,17.61,0,0,0-16.88,3.62,35.16,35.16,0,0,0-7.09,9.15v-3.33a21.28,21.28,0,0,1,5.83-7.32,19.71,19.71,0,0,1,18.67-4c8.09,2.24,11.58,7.15,14.66,11.48,3.21,4.52,5.74,8.08,12.53,8.08,8.51,0,13.18-7.11,18.13-14.65,5.21-7.93,10.59-16.13,20.86-15.73,7,.27,11.12,2.43,15.12,4.52,7.07,3.68,13.7,6.62,34.36-2.23v2.15c-21.51,9.21-28.06,5.57-35.26,1.82-3.82-2-7.77-4.05-14.29-4.3-9.16-.35-14,7-19.15,14.85C395.89,512.86,390.7,520.76,381.13,520.76Z" transform="translate(-181.89 -239.81)"/><path class="cls-15" d="M439.14,509.51a105.49,105.49,0,0,1-15.53-1.21C407.1,505.84,391,500,378.88,495.21a50.37,50.37,0,0,0-33.93-1A59.34,59.34,0,0,0,329.44,502l.05-2.46a53.48,53.48,0,0,1,14.8-7.15,52.31,52.31,0,0,1,35.32,1c27.06,10.69,62.25,21,90,7.42V503C460.48,507.45,450.62,509.51,439.14,509.51Z" transform="translate(-181.89 -239.81)"/><rect class="cls-16" x="147.55" y="295.17" width="5.57" height="1.8"/><rect class="cls-17" x="147.55" y="234.03" width="8.39" height="1.35"/><rect class="cls-17" x="147.55" y="236.53" width="11.9" height="1.35"/><rect class="cls-17" x="182.21" y="234.03" width="9.85" height="1.35"/><rect class="cls-17" x="182.21" y="236.53" width="6.3" height="1.35"/><rect class="cls-17" x="217.87" y="234.03" width="6.11" height="1.35"/><rect class="cls-17" x="217.87" y="236.53" width="7.12" height="1.35"/><rect class="cls-17" x="252.91" y="234.03" width="8.89" height="1.35"/><rect class="cls-17" x="252.91" y="236.53" width="7.12" height="1.35"/><rect class="cls-17" x="287.7" y="234.03" width="5.31" height="1.35"/><rect class="cls-17" x="287.7" y="236.53" width="4.25" height="1.35"/><rect class="cls-16" x="182.59" y="295.17" width="5.57" height="1.8"/><rect class="cls-16" x="217.87" y="295.17" width="5.57" height="1.8"/><rect class="cls-16" x="252.91" y="295.17" width="5.57" height="1.8"/><rect class="cls-16" x="287.95" y="295.17" width="5.57" height="1.8"/><path class="cls-18" d="M444.33,481.83a7.44,7.44,0,0,0,.51,2.32c.39.66,1.66,4.51,2.2,5.49s2.71,1.67,2.61,3.4-4.1,2-5.21,1.17-4.71-6-5.13-6.75-.56-3.31.18-4a6.39,6.39,0,0,0,1.55-2.58C441,480.5,443.89,481.13,444.33,481.83Z" transform="translate(-181.89 -239.81)"/><path class="cls-19" d="M439.68,430.49s7.2,9.48,8.44,12.28,3.38,6.81,3.38,8.11a33.08,33.08,0,0,1-1.66,7.61c-.55,1-4.33,18.09-4.54,19.19s-1,4.15-1,4.15l-3.29-1s-.34-15.13.25-18.13,2.36-7.36,2.08-8.73-4.69-5.17-7.72-7.21-6.61-5.24-6.82-8.54a17.77,17.77,0,0,1,1.47-7S433.73,428.76,439.68,430.49Z" transform="translate(-181.89 -239.81)"/><path class="cls-19" d="M447.76,429.64a23.89,23.89,0,0,0,3.1,3.81c1,.75,8.22,7.61,10.28,11s2.78,3.85,2.34,5.31-1.05,5.35-1.51,6.35-6.48,24.9-6.48,24.9-2.47.63-3.2-.47c0,0,1.42-10.36,1-14.12s.37-9.21,2-12,.47-4.59-1.34-5.84-11.8-6.91-11.8-6.91S430,424.89,447.76,429.64Z" transform="translate(-181.89 -239.81)"/><path class="cls-18" d="M455.41,480.85s0,.6.23.68,3,4.28,3.57,4.88,4,1.57,4,2a3,3,0,0,1-3.26,2.71c-2.79.05-5.11-2.35-6.25-3.26s-4.26-1.8-3.12-4.1,1.71-3.23,1.71-3.23Z" transform="translate(-181.89 -239.81)"/><path class="cls-19" d="M439.93,482.93a14.7,14.7,0,0,1,1.45,3.35c.57,2,2.79,4.48,4.31,4.41S447,489.5,447,489.5s-1.62-4.44-2.3-5.87a14.21,14.21,0,0,1-.34-1.8,5.76,5.76,0,0,0-3.29-1S440.16,482.63,439.93,482.93Z" transform="translate(-181.89 -239.81)"/><path class="cls-19" d="M459.33,486.52a1.68,1.68,0,0,1-1.8,1.11c-1.3-.25-2.74-1.7-3.49-2.52a33.55,33.55,0,0,0-2.92-2.51l1.17-2.1,3.11.19Z" transform="translate(-181.89 -239.81)"/><path class="cls-20" d="M447.69,429.4a35.83,35.83,0,0,0,2.95,3.5,51.29,51.29,0,0,1,10.91,12.17s-12.41-.42-19.33,7.22c0,0-6.7-5.57-7.44-6.12s-5.57-3.4-5.95-7.93a10.88,10.88,0,0,1,1.47-7S443.88,428.06,447.69,429.4Z" transform="translate(-181.89 -239.81)"/><path class="cls-21" d="M449.26,416.27c-1.64,2.77-1.91,12.52-1.5,13.46,0,0-9.41,2.9-17.58,1.74,0,0,.41-.89.82-2.05l.52-1.51c.58-1.66,1.23-3.44,1.57-4.25a8.11,8.11,0,0,0-.11-5.57c-.56-1-3.92-8.44-3.92-8.44s-1.81-5.3,1.29-6.95a23.77,23.77,0,0,1,6-2.22l5.46-.38s1.19.22,2.79.36,3.26.41,3.59,3.06a17.79,17.79,0,0,0,1,4.75C449.53,409,451.12,413.12,449.26,416.27Z" transform="translate(-181.89 -239.81)"/><path class="cls-21" d="M432.35,401.75s-3.2.44-4.61,2.9-1.32,5.79-1.63,7.11-2.2,13.69-1.86,14.75a3.78,3.78,0,0,0,3.72,2.65c2-.22,10.23-4.49,10.23-4.49a29.3,29.3,0,0,1-1.1-3.86l-7.89,2.76s1.9-12.91,2.14-14.35S433.14,403,432.35,401.75Z" transform="translate(-181.89 -239.81)"/><path class="cls-21" d="M446.06,400.7a6.7,6.7,0,0,1,3.82,2.52c1,1.41,1,4.53,1.17,5.12s2,7.25,2,7.25L447.92,419Z" transform="translate(-181.89 -239.81)"/><polygon class="cls-18" points="266.5 173.76 248.63 168.46 247.9 169.05 246.42 183.1 266.5 190.64 266.5 173.76"/><path class="cls-18" d="M446.44,390.94s-1.7,8.19-.49,10.44c0,0-3.7-1.36-4.42-2.86S446.44,390.94,446.44,390.94Z" transform="translate(-181.89 -239.81)"/><path class="cls-19" d="M442.37,397.18s-.09.83-.18,1.91c0,.37-.06.77-.09,1.18a31.6,31.6,0,0,0-.13,3.5s-2.64,2.82-5.64-3.29a8.83,8.83,0,0,0,.31-6C435.7,391.1,442.37,397.18,442.37,397.18Z" transform="translate(-181.89 -239.81)"/><path class="cls-19" d="M442.32,381s4.65.45,4.86,6.42S444.85,398.27,444,399s-5.44-.48-6.19-3.66-2.12-5.6-1.59-8.19S436.62,380.17,442.32,381Z" transform="translate(-181.89 -239.81)"/><path class="cls-18" d="M447.13,389.64s2-7.16-4-9.23-8.66,2.14-9.54,4.75-1,10.23-1,10.23,3.69,4.35,6,5.65c0,0-1.17-8.28.23-13.93,0,0,4.91,1.46,8.33,1C447.19,388.11,447.16,389.33,447.13,389.64Z" transform="translate(-181.89 -239.81)"/><path class="cls-22" d="M442.19,399.09c0,.37-.06.77-.09,1.18-2.71-1.43-3.32-3.1-3.32-3.1A6.25,6.25,0,0,0,442.19,399.09Z" transform="translate(-181.89 -239.81)"/><path class="cls-23" d="M449.24,408.39s2.86,4.86,2.22,8-2.79,1.31-2.79,1.31S451.56,414.14,449.24,408.39Z" transform="translate(-181.89 -239.81)"/><polygon class="cls-18" points="267.64 190.64 279.25 180.56 282.49 164.05 268.42 173.77 267.64 190.64"/><polygon class="cls-18" points="266.5 190.64 267.64 190.64 268.42 173.77 266.5 173.76 266.5 190.64"/><path class="cls-19" d="M437.19,421.35s1.5-.54,1.66-.65.38-1.69,1.12-2.29a19.93,19.93,0,0,0,1.9-1.54c.19-.29.61.55-.05,1.27s-.67,1.29,1,.93c.9-.2,3.85-2,3.82-1.31,0,.4-2.91,2-2.91,2a20.39,20.39,0,0,1,3.4-1.33c.38.31-2.79,1.93-2.93,2s2.84-1.09,3-.84-2.7,1.45-2.66,1.5,2.27-.84,2.33-.63-1.85,1.19-2.24,1.31-4.52,1.6-5.22,1.67a2.31,2.31,0,0,0-1.28.82Z" transform="translate(-181.89 -239.81)"/><path class="cls-21" d="M437.75,420.75a15.44,15.44,0,0,1,1.06,3.64s-5.13,2.68-8.46,4l-2.58-5.59.55.1.86.32Z" transform="translate(-181.89 -239.81)"/><path class="cls-19" d="M455.72,480.06s.23,2.09.57,2.27S452.86,481.62,455.72,480.06Z" transform="translate(-181.89 -239.81)"/><path class="cls-23" d="M435.16,426.22c-.09.07-2.8,2.22-4.16,3.2l.52-1.51Z" transform="translate(-181.89 -239.81)"/><polygon class="cls-18" points="279.25 180.56 283.63 164.56 282.49 164.05 279.25 180.56"/><path class="cls-19" d="M461.28,419.86a12.81,12.81,0,0,0,.75-1.62c.34-.91,1.34-4.3,1.14-4.45s-2.8.44-3.17,1,.61.47.61.47-1.38.5-1.18.87,1,0,1,0-1.08.51-.83.81.81.17.81.17-1,.38-.76.73,1.9.31,1.77.68A6.16,6.16,0,0,0,461.28,419.86Z" transform="translate(-181.89 -239.81)"/><path class="cls-13" d="M349.47,584.89a19,19,0,1,1,19-19A19,19,0,0,1,349.47,584.89Zm0-34.48A15.52,15.52,0,1,0,365,565.93,15.53,15.53,0,0,0,349.47,550.41Z" transform="translate(-181.89 -239.81)"/><path class="cls-24" d="M353.87,551.83l1.47-4.7a19.74,19.74,0,0,1,13.83,18.21l-4.93.15a15.06,15.06,0,0,0-.86-4.53A14.75,14.75,0,0,0,353.87,551.83Z" transform="translate(-181.89 -239.81)"/><path class="cls-25" d="M343.57,552.39l-2-4.52c.4-.18.81-.34,1.23-.49a19.56,19.56,0,0,1,12.5-.25l-1.47,4.7a14.76,14.76,0,0,0-9.37.19Z" transform="translate(-181.89 -239.81)"/><path class="cls-26" d="M336.7,550.92a19.68,19.68,0,0,1,4.91-3l2,4.52a14.65,14.65,0,0,0-3.67,2.29Z" transform="translate(-181.89 -239.81)"/><path class="cls-13" d="M402.35,584.89a19,19,0,1,1,19-19A19,19,0,0,1,402.35,584.89Zm0-34.48a15.52,15.52,0,1,0,15.52,15.52A15.53,15.53,0,0,0,402.35,550.41Z" transform="translate(-181.89 -239.81)"/><path class="cls-27" d="M388.25,561.53l-4.7-1.47a19.74,19.74,0,0,1,18.21-13.83l.15,4.93a14.46,14.46,0,0,0-4.53.86A14.75,14.75,0,0,0,388.25,561.53Z" transform="translate(-181.89 -239.81)"/><path class="cls-28" d="M388.81,571.82l-4.52,2c-.18-.4-.34-.81-.49-1.23a19.56,19.56,0,0,1-.25-12.5l4.7,1.47a14.69,14.69,0,0,0,.2,9.37C388.56,571.21,388.68,571.52,388.81,571.82Z" transform="translate(-181.89 -239.81)"/><path class="cls-11" d="M387.34,578.69a19.44,19.44,0,0,1-3-4.9l4.52-2a14.71,14.71,0,0,0,2.29,3.68Z" transform="translate(-181.89 -239.81)"/><rect class="cls-13" x="149.31" y="350.72" width="36.52" height="1.27"/><rect class="cls-13" x="149.31" y="354.75" width="27.83" height="1.27"/><rect class="cls-13" x="201.76" y="350.72" width="21.44" height="1.27"/><rect class="cls-13" x="201.76" y="354.75" width="33.71" height="1.27"/><rect class="cls-13" x="309.79" y="240.69" width="2.32" height="48.93"/><rect class="cls-13" x="324.38" y="240.69" width="2.32" height="48.93"/><rect class="cls-13" x="338.95" y="240.69" width="2.32" height="48.93"/><rect class="cls-29" x="323.4" y="266.26" width="4.29" height="18.31"/><rect class="cls-30" x="337.97" y="245.99" width="4.29" height="29.71"/><rect class="cls-31" x="308.81" y="257.97" width="4.29" height="18.65"/><path class="cls-19" d="M342.16,579.61s1.23-2.14-.71-7.88A5.79,5.79,0,0,0,331,570.24c-2.07,3.55-1.37,5.76,1.67,9.78S340.9,581.45,342.16,579.61Z" transform="translate(-181.89 -239.81)"/><path class="cls-19" d="M327.06,678.43s-.32,2.36-.36,2.71-3.58-.21-3.58-.21l-.29-2.8S326.62,678.1,327.06,678.43Z" transform="translate(-181.89 -239.81)"/><path class="cls-32" d="M326.74,680.84a9.8,9.8,0,0,0,2.2,2c1.09.62,2.79.87,3.43,1.51.47.46,1.69,2.46-2.81,2.42s-6.68.28-7.16-.49.7-5.64.7-5.64A12.42,12.42,0,0,0,326.74,680.84Z" transform="translate(-181.89 -239.81)"/><path class="cls-19" d="M351.56,678.43s-.32,2.36-.36,2.71-3.58-.21-3.58-.21l-.28-2.8S351.12,678.1,351.56,678.43Z" transform="translate(-181.89 -239.81)"/><path class="cls-32" d="M351.24,680.84a9.7,9.7,0,0,0,2.21,2c1.08.62,5.07,1.13,5.71,1.77.47.47,1.24,2.33-5.1,2.16-4.5-.13-6.68.28-7.16-.49s.7-5.64.7-5.64A18.59,18.59,0,0,0,351.24,680.84Z" transform="translate(-181.89 -239.81)"/><path class="cls-33" d="M328.25,619.7a35.06,35.06,0,0,0-1.57,10.5c.24,4.86-.94,10.17-1.42,15.25-.54,5.66-2.73,19-2.81,22.08s.34,12.69.34,12.69l4.39.11s3.69-23.42,4.65-25.81,5.7-19.43,5.86-21.34S328.25,619.7,328.25,619.7Z" transform="translate(-181.89 -239.81)"/><path class="cls-33" d="M346.47,619.11s2.67,14.91,3,17.88.53,14.4.69,16.26,1.06,24.32,1.91,27.08h-4.9s-5-16.33-5-24.06-3.33-16.8-5.48-21.89-7.07-5.22-8.4-14.68C328.25,619.7,344.68,616.11,346.47,619.11Z" transform="translate(-181.89 -239.81)"/><path class="cls-19" d="M340.39,581.13a4.22,4.22,0,0,0,0,2.76c.55,1.15-7.07.46-7.07.46a8.15,8.15,0,0,0-.65-4.33C331.68,578.07,340.39,581.13,340.39,581.13Z" transform="translate(-181.89 -239.81)"/><path class="cls-34" d="M327.9,620.93s2.74,2.81,18.82-.44l-.25-1.38-18.28.69Z" transform="translate(-181.89 -239.81)"/><path class="cls-19" d="M341.54,584.26s2.81.29,3.62.44,6.21-1,7.32-1.08,5.84-3.36,6-3.74,2.88-7.29,3-8.78,2.66-.72,2.44.31c-.4,1.92-.91,6.59-1.19,8s-1.13,4.77-1.59,5.17a32.81,32.81,0,0,1-8.89,5A35.51,35.51,0,0,0,345,593H324.41s-8-11.43-8.17-13.16,5.58-13.16,6.73-14.6,2.81.47,2.81.47-3.44,10.09-3.9,11.53,4,7.74,5.23,7.76,4.36-.38,5.76-.44a9.84,9.84,0,0,0,2.87-.67Z" transform="translate(-181.89 -239.81)"/><path class="cls-35" d="M350.4,591.9a6.63,6.63,0,0,0-2.75,4.54,59.36,59.36,0,0,1-1.61,8.95c-.45,1.55.41,12.8.52,13.61s-15.91,2.71-18.37.8c0,0-.69-10.5-1-13.49a78.47,78.47,0,0,0-2.13-11.19c-.45-1-6-8.79-6.25-9.82,0,0,2.88-4.59,4.94-4.65,0,0,3.29,3.85,4.36,4s7.63-1,7.63-1,.71,1,4.52-.17l5.27.6c.89.12,7.1-.78,7.1-.78s2.49,4.21,2,6.33Z" transform="translate(-181.89 -239.81)"/><path class="cls-19" d="M361.36,572s.56-2.66-.11-3.42a22.22,22.22,0,0,1-1.4-1.76c-.08-.17-1.08-.74-1.08-1s1-.62,1.82.16,1.37,1,1.71.87.83-2.9.87-3.59.31-2.54.75-2.41.41.93.41.93.51-1.4.85-1.12.29,1,.29,1,.64-.78.81-.21a1.93,1.93,0,0,1,0,1.07s.65-.35.7.53a13.44,13.44,0,0,1-.66,4.42c-.47.93-2.21,3.37-2.41,4.32S361.36,572,361.36,572Z" transform="translate(-181.89 -239.81)"/><path class="cls-19" d="M325.22,567.33s1.91-3.22,2.56-3.5a10.78,10.78,0,0,0,2.37-1c.81-.57,1.87-1,1.81-1.24s-1-.12-2,.32-1.46.23-1.55,0a5.77,5.77,0,0,1,.85-2.23c.3-.38,2.48-2.58,2.12-2.9s-1.78.88-2,1.12c0,0,1.13-2.37.69-2.48s-1.26.72-1.26.72.09-2-2.09,1.27c0,0,.46-1.09-.21-.73s-1.32,2.41-1.53,3.44-1.17,4.33-2,5.12S325.22,567.33,325.22,567.33Z" transform="translate(-181.89 -239.81)"/><path class="cls-36" d="M332.67,580a8.66,8.66,0,0,0,3.15-.65c2.15-.74,2.31-4.49,2.77-4a1.36,1.36,0,0,0,2.2-.26s-1.05-1.37-.56-2a5,5,0,0,1,1.27-1.14s-1.51-7.27-8.37-4C325.1,571.81,332.67,580,332.67,580Z" transform="translate(-181.89 -239.81)"/><path class="cls-37" d="M340.39,583.89l-.25-1a55,55,0,0,0-6.76.26l-.25,1.25A9.39,9.39,0,0,0,340.39,583.89Z" transform="translate(-181.89 -239.81)"/><path class="cls-19" d="M339.31,574.41c-.4-.66-1.87-1.11-2,.77-.14,1.45,2.62,3,2.65,1.68A4.17,4.17,0,0,0,339.31,574.41Z" transform="translate(-181.89 -239.81)"/><path class="cls-38" d="M361.46,571.4a4.3,4.3,0,0,1,2.35.73,1.54,1.54,0,0,1-.13.78,9.75,9.75,0,0,0-2.42-.76S361.28,571.58,361.46,571.4Z" transform="translate(-181.89 -239.81)"/><path class="cls-36" d="M363.33,571.79a.68.68,0,0,1-1.26.53.68.68,0,0,1,1.26-.53Z" transform="translate(-181.89 -239.81)"/><circle class="cls-39" cx="151.2" cy="213.65" r="3.5"/><circle class="cls-39" cx="159.2" cy="213.65" r="3.5"/><circle class="cls-39" cx="167.2" cy="213.65" r="3.5"/><path class="cls-40" d="M654.59,523.46a27.26,27.26,0,0,1-27.5,27,26.77,26.77,0,0,1-26.5-27,26.48,26.48,0,0,1,7.94-18.57,26.21,26.21,0,0,1,18.56-7.43,25.93,25.93,0,0,1,18.21,7.79,25.63,25.63,0,0,1,7.29,18.21Zm-2,0A25.44,25.44,0,0,0,645,505.6a25,25,0,0,0-35.36.35,24.73,24.73,0,0,0-7,17.51,24.27,24.27,0,0,0,24.5,24,24,24,0,0,0,16.8-7.21,23.68,23.68,0,0,0,6.7-16.79Z" transform="translate(-181.89 -239.81)"/><path class="cls-41" d="M638.74,515.07a2.89,2.89,0,0,0-4.1,0l-10,10L622,522.47a2.9,2.9,0,0,0-4.1,0l-.8.8a2.92,2.92,0,0,0,0,4.11l4.66,4.66a2.92,2.92,0,0,0,4.11,0l.8-.8.05-.07.07,0,11.94-12A2.89,2.89,0,0,0,638.74,515.07Z" transform="translate(-181.89 -239.81)"/><path class="cls-42" d="M722.34,524.4H668.72c-1.17,0-2.07-1.67-2.07-3.62h0c0-2,1-3.62,2.07-3.62h53.67c1.17,0,2.07,1.67,2.07,3.62h0C724.41,522.82,723.51,524.4,722.34,524.4Z" transform="translate(-181.89 -239.81)"/><path class="cls-43" d="M707.1,539H668.67c-1.17,0-2.08-1.67-2.08-3.62h0c0-2,1-3.62,2.08-3.62H707.1c1.17,0,2.07,1.67,2.07,3.62h0C709.22,537.29,708.27,539,707.1,539Z" transform="translate(-181.89 -239.81)"/><path class="cls-44" d="M754.08,539H717.83c-1.17,0-2.08-1.67-2.08-3.62h0c0-2,1-3.62,2.08-3.62h36.25c1.17,0,2.08,1.67,2.08,3.62h0C756.16,537.29,755.25,539,754.08,539Z" transform="translate(-181.89 -239.81)"/><path class="cls-45" d="M754.08,524.4h-22.4c-1.17,0-2.07-1.67-2.07-3.62h0c0-2,1-3.62,2.07-3.62h22.4c1.17,0,2.08,1.67,2.08,3.62h0C756.16,522.82,755.25,524.4,754.08,524.4Z" transform="translate(-181.89 -239.81)"/><circle class="cls-46" cx="612.7" cy="435.15" r="16"/></svg>