<svg id="Layer_1" data-name="Layer 1" xmlns="http://www.w3.org/2000/svg" viewBox="0 0 510.03 617.99"><defs><style>.cls-1,.cls-3,.cls-4{fill:none;}.cls-1,.cls-3{stroke:#fff;}.cls-2{fill:#fff;}.cls-3,.cls-4{stroke-dasharray:3;}.cls-4{stroke:#fd614f;}</style></defs><title>right</title><g id="Group"><polyline id="Path-25" class="cls-1" points="362.17 259.9 362.17 434.42 238.38 434.42 238.38 515.6 180.24 515.6"/><polyline id="Path-42" class="cls-1" points="349.18 534.24 290.86 534.24 290.86 599.59"/><rect id="Rectangle-Copy-6" class="cls-1" x="264.49" y="79.91" width="24.99" height="24.99"/><rect id="Rectangle-Copy-10" class="cls-1" x="343.9" y="225.75" width="35.1" height="35.1"/><rect id="Rectangle-Copy-9" class="cls-1" x="21.19" y="0.5" width="35.1" height="35.1"/><rect id="Rectangle-Copy-7" class="cls-1" x="407.43" y="484.21" width="35.1" height="35.1"/><rect id="Rectangle-Copy-12" class="cls-1" x="273.15" y="582.39" width="35.1" height="35.1"/><rect id="Rectangle-Copy-13" class="cls-1" x="127.32" y="481.32" width="24.99" height="24.99"/><circle id="Oval-Copy-17" class="cls-1" cx="308.75" cy="36.1" r="13"/><circle id="Oval-Copy-27" class="cls-1" cx="236.55" cy="186.26" r="13"/><circle id="Oval-Copy-29" class="cls-1" cx="165.8" cy="153.05" r="13"/><circle id="Oval-Copy-18" class="cls-1" cx="341.96" cy="92.41" r="13"/><circle id="Oval-Copy-24" class="cls-1" cx="424.26" cy="389.85" r="13"/><circle id="Oval-Copy-23" class="cls-1" cx="292.87" cy="534.24" r="13"/><circle id="Oval-Copy-34" class="cls-1" cx="362.17" cy="433.17" r="13"/><circle id="Oval-Copy-30" class="cls-1" cx="362.17" cy="532.8" r="13"/><circle id="Oval-Copy-25" class="cls-1" cx="238" cy="433.17" r="13"/><circle id="Oval-Copy-26" class="cls-1" cx="139.81" cy="540.02" r="13"/><circle id="Oval-Copy-22" class="cls-1" cx="191.79" cy="272.9" r="13"/><circle id="Oval-Copy-21" class="cls-1" cx="327.52" cy="309" r="13"/><circle id="Oval-Copy-32" class="cls-1" cx="330.41" cy="350.87" r="13"/><circle id="Oval-Copy-33" class="cls-1" cx="392.5" cy="352.31" r="13"/><circle id="Oval-Copy-19" class="cls-1" cx="360.73" cy="137.17" r="13"/><path id="Path-17" class="cls-1" d="M510.14,36.31H321.85" transform="translate(-0.1 -0.21)"/><polyline id="Path-18" class="cls-1" points="308.75 49.09 308.75 93.74 328.96 93.74"/><polyline id="Path-18-Copy" class="cls-1" points="308.75 93.85 308.75 138.5 347.74 138.5"/><path id="Path-19" class="cls-1" d="M360.83,150.38v74.86" transform="translate(-0.1 -0.21)"/><path id="Path-20" class="cls-2" d="M423,243.73l-6.34-3.56.49-.87,8.78,4.93-8.78,4.94-.49-.87,6.34-3.57H421.6v-1Zm-43.36,1v-1h3v1Zm6,0v-1h3v1Zm6,0v-1h3v1Zm6,0v-1h3v1Zm6,0v-1h3v1Zm6,0v-1h3v1Zm6,0v-1h3v1Z" transform="translate(-0.1 -0.21)"/><polyline id="Path-21" class="cls-1" points="343.4 244.02 268.57 244.02 268.57 309 314.8 309"/><path id="Path-23" class="cls-1" d="M308.85,94.07H289.36" transform="translate(-0.1 -0.21)"/><path id="Path-24" class="cls-3" d="M268.67,274.56H205.42" transform="translate(-0.1 -0.21)"/><polyline id="Path-26" class="cls-1" points="375.17 433.17 424.26 433.17 424.26 484.24"/><path id="Path-27" class="cls-3" d="M424.37,433.39v-31" transform="translate(-0.1 -0.21)"/><path id="Path-28" class="cls-2" d="M3,64.25l6.34,3.56-.49.87L.1,63.75l8.78-4.94.49.87L3,63.25H152.27V92.49H264.09v1H151.27V64.25Z" transform="translate(-0.1 -0.21)"/><polyline id="Path-29" class="cls-1" points="180.24 515.6 180.24 491.79 152.29 491.79"/><path id="Path-29-Copy" class="cls-3" d="M180.35,515.69V539.5h-28" transform="translate(-0.1 -0.21)"/><path id="Path-30" class="cls-1" d="M369.81,166.15v47" transform="translate(-0.1 -0.21)"/><path id="Path-30-Copy" class="cls-2" d="M283.55,446.45l6.34,3.56-.49.87L280.62,446,289.4,441l.49.87-6.34,3.57h59.37v1Z" transform="translate(-0.1 -0.21)"/><path id="Path-30-Copy-2" class="cls-2" d="M441.73,22.39l-6.34-3.57.49-.87,8.78,4.94-8.78,4.93-.49-.87,6.34-3.56H328.35v-1Z" transform="translate(-0.1 -0.21)"/><polyline id="Path-31" class="cls-1" points="103.36 71.42 143.45 71.42 143.45 92.41"/><path id="Path-32" class="cls-2" d="M224.64,460.33l-3.57,6.33-.87-.49,4.94-8.77,4.93,8.77-.87.49-3.56-6.33V502h-1Z" transform="translate(-0.1 -0.21)"/><path id="Path-33" class="cls-3" d="M39.53,63.75V36.31" transform="translate(-0.1 -0.21)"/><path id="Path-34" class="cls-4" d="M1.62.21" transform="translate(-0.1 -0.21)"/><path id="Path-35" class="cls-1" d="M360.83,187.6H249.65" transform="translate(-0.1 -0.21)"/><path id="Path-36" class="cls-1" d="M166.37,92.62v47.65" transform="translate(-0.1 -0.21)"/><path id="Path-38" class="cls-1" d="M362.28,446.38V520" transform="translate(-0.1 -0.21)"/><path id="Path-39" class="cls-2" d="M106.32,377.57l6.34,3.57-.49.87-8.78-4.94,8.78-4.93.49.87-6.34,3.56h62v57h56.8v1h-57.8v-57Z" transform="translate(-0.1 -0.21)"/><path id="Path-40" class="cls-1" d="M159.59,385v40.39" transform="translate(-0.1 -0.21)"/><path id="Path-41" class="cls-1" d="M343.51,352.53h18.77" transform="translate(-0.1 -0.21)"/><path id="Path-41-Copy" class="cls-3" d="M360.83,352.53H379.6" transform="translate(-0.1 -0.21)"/></g></svg>