<?xml version="1.0" encoding="utf-8"?>
<!-- Generator: Adobe Illustrator 23.0.1, SVG Export Plug-In . SVG Version: 6.00 Build 0)  -->
<svg version="1.1"
	 id="svg5103" xmlns:cc="http://creativecommons.org/ns#" xmlns:dc="http://purl.org/dc/elements/1.1/" xmlns:rdf="http://www.w3.org/1999/02/22-rdf-syntax-ns#" xmlns:svg="http://www.w3.org/2000/svg"
	 xmlns="http://www.w3.org/2000/svg" xmlns:xlink="http://www.w3.org/1999/xlink" x="0px" y="0px" viewBox="0 0 42 70"
	 style="enable-background:new 0 0 42 70;" xml:space="preserve">
<style type="text/css">
	.st0{fill:#150773;}
	.st1{fill:#11E7C4;}
</style>
<g id="layer1" transform="translate(0,-982.3622)">
	<g id="g5258" transform="matrix(1.0067264,0,0,1.0081252,-351.8726,271.7959)">
		<g id="g3325" transform="matrix(0.62500006,0,0,-0.62500006,374.06046,710.45703)">
			<path id="path3327" class="st0" d="M0,0h-5.9h-5.9l-23.5-35.9V-36h29.4h29.4v0.1L0,0z"/>
		</g>
		<g id="g3329" transform="matrix(0.62500006,0,0,-0.62500006,370.38127,704.83934)">
			<path id="path3331" class="st1" d="M0,0l-5.9-9H0h5.9L0,0z"/>
		</g>
		<g id="g3333" transform="matrix(0.62500006,0,0,-0.62500006,388.76658,748.11203)">
			<path id="path3335" class="st1" d="M0,0v24.2h-29.4h-29.4V0c0-9.1-4-9.1-4-35.1c0,0,6.8,13,16.7,13c9.9,0,16.7-19.8,16.7-19.8
				s6.8,19.8,16.7,19.8c9.9,0,16.7-13,16.7-13C4-9.1,0-9.1,0,0"/>
		</g>
		<g id="g3337" transform="matrix(0.62500006,0,0,-0.62500006,365.96596,722.79953)">
			<path id="path3339" class="st1" d="M0,0c0-3.9,3.2-7.1,7.1-7.1c3.9,0,7.1,3.2,7.1,7.1c0,3.9-3.2,7.1-7.1,7.1C3.2,7.1,0,3.9,0,0"
				/>
		</g>
		<g id="g3341" transform="matrix(0.62500006,0,0,-0.62500006,365.96596,738.80847)">
			<path id="path3343" class="st0" d="M0,0c0-3.9,3.2-7.1,7.1-7.1c3.9,0,7.1,3.2,7.1,7.1c0,3.9-3.2,7.1-7.1,7.1C3.2,7.1,0,3.9,0,0"
				/>
		</g>
		<path id="path3345" class="st0" d="M374.8,738.5H366v8.4h8.9V738.5z"/>
	</g>
</g>
</svg>
