<?xml version="1.0" encoding="iso-8859-1"?>
<!-- Generator: Adobe Illustrator 19.0.0, SVG Export Plug-In . SVG Version: 6.00 Build 0)  -->
<svg version="1.1" id="Capa_1" xmlns="http://www.w3.org/2000/svg" xmlns:xlink="http://www.w3.org/1999/xlink" x="0px" y="0px"
	 viewBox="0 0 512 512" style="enable-background:new 0 0 512 512;" xml:space="preserve">
<path style="fill:#79A1E8;" d="M453.4,189.299c124.9,77.9-60.7,339.1-181,252.1c-157.5-113.9-223.6-63.9-255.9-141.7
	c-38-91.3,14.7-130.3,147.7-242.6C280.2-40.801,303.5,95.899,453.4,189.299z"/>
<g>
	<polygon style="fill:#473CBA;" points="419.8,33.799 432.8,33.799 431.3,119.899 418.5,119.899 	"/>
	<polygon style="fill:#473CBA;" points="395.9,97.899 243.6,250.099 177.4,177.599 134.4,220.599 90.9,224.199 163.1,151.999 
		234.3,223.199 379.8,77.699 	"/>
</g>
<polygon style="fill:#D7ECF9;" points="419.8,33.799 334.6,35.399 365.1,65.799 236.9,193.999 164.9,121.999 42.7,244.199 
	42.7,290.199 164.9,167.999 236.9,239.999 388.1,88.799 418.5,119.199 "/>
<path style="fill:#4B31AA;" d="M435.8,30.899c-0.8-0.8-1.8-1.2-3-1.2l-98.3,1.6c-1.7,0-3.1,1.1-3.8,2.6c-0.6,1.5-0.3,3.3,0.9,4.5
	l27.5,27.5l-122.2,122.2l-69-69c-1.6-1.6-4.2-1.6-5.9,0l-122.2,122.2c-0.8,0.8-1.2,1.8-1.2,2.9v46.1c0,1.7,1,3.2,2.6,3.8
	c0.5,0.2,1,0.3,1.6,0.3c1.1,0,2.1-0.4,2.9-1.2l66.9-66.9c0,0.1,0,0.2-0.1,0.3l22.2-1.9c1-0.1,1.9-0.5,2.6-1.2l38.6-38.6l64.6,68
	c0.8,0.8,1.8,1.3,3,1.3h0.1c1.1,0,2.2-0.4,2.9-1.2l150-150l18,18c0.2,0.6,0.5,1.2,1,1.7c0.8,0.8,1.8,1.2,3,1.2h12.8
	c2.3,0,4.1-1.8,4.1-4.1l1.6-86.1C437,32.799,436.5,31.699,435.8,30.899z M132.5,216.599l-11.2,0.9l43.6-43.6l5.1,5.1L132.5,216.599z
	 M243.8,244.099l-2.4-2.7l146.7-146.7l2.3,2.8L243.8,244.099z M391,85.899c-1.6-1.6-4.2-1.6-5.9,0l-148.2,148.3l-69-69
	c-1.6-1.6-4.2-1.6-5.9,0l-115.1,115v-34.3l118-118.1l69,69c1.6,1.6,4.2,1.6,5.9,0L368,68.599c0.8-0.8,1.2-1.8,1.2-2.9
	s-0.4-2.2-1.2-2.9l-23.5-23.5l71.1-1.3l-1.1,71.3L391,85.899z M427.2,115.799h-4.5l1.2-77.7v-0.1h4.7L427.2,115.799z"/>
<path style="fill:#473CBA;" d="M344.5,252.299l-2.3-25.9h-26.5l-2.6,26.1c-3.5,0.7-7,1.7-10.3,2.8l-15.1-21.5l-23,13.3l10.9,24.1
	c-2.6,2.3-5,4.7-7.3,7.3l-24.4-11.4l-13.3,23l21.8,15.7c-1.1,3.3-2,6.6-2.7,10l-26.9,2.4v26.5l26.8,2.7c0.7,3.7,1.7,7.2,2.8,10.7
	l-21.8,15.7l13.3,23l24.4-11.3c2.3,2.6,4.8,5.1,7.4,7.4l-11,24.4l23,13.3l15.3-21.8c3.3,1.1,6.7,2,10.1,2.7l2.6,26.1h26.5l2.3-25.9
	c3.6-0.7,7.1-1.6,10.5-2.8l15.1,21l23-13.3l-10.9-23.4c2.8-2.5,5.5-5.1,8-7.9l23.1,10.4l13.3-23l-20.8-14.6
	c1.2-3.5,2.2-7.1,2.9-10.8l25.1-2.5v-26.7l-25.3-2.2c-0.7-3.5-1.6-6.9-2.7-10.1l20.8-14.6l-13.3-23h-11l-12.2,10.4
	c-2.4-2.8-5.1-5.4-7.9-7.9l10.8-23.2l-23-13.3h-11L344.5,252.299z M331.2,357.099c-15.6,1.2-28.5-11.7-27.3-27.3
	c1-12.3,10.9-22.2,23.2-23.2c15.6-1.2,28.5,11.7,27.3,27.3C353.4,346.199,343.4,356.099,331.2,357.099z"/>
<path style="fill:#4B31AA;" d="M342.2,441.499h-26.5c-2.1,0-3.9-1.6-4.1-3.7l-2.3-23.1c-1.6-0.4-3.1-0.8-4.7-1.3l-13.5,19.3
	c-1.2,1.8-3.6,2.3-5.5,1.2l-23-13.3c-1.8-1.1-2.6-3.3-1.7-5.3l9.7-21.6c-1.2-1.1-2.3-2.2-3.4-3.4l-21.6,10.1
	c-1.9,0.9-4.3,0.2-5.3-1.7l-13.3-23c-1.1-1.8-0.6-4.2,1.2-5.4l19.4-13.9c-0.5-1.7-1-3.5-1.4-5.3l-23.7-2.4c-2.1-0.2-3.7-2-3.7-4.1
	v-26.5c0-2.1,1.6-3.9,3.8-4.1l23.9-2.1c0.4-1.5,0.8-3.1,1.2-4.6l-19.4-13.9c-1.7-1.2-2.2-3.6-1.2-5.4l13.3-23
	c1.1-1.9,3.4-2.6,5.3-1.7l21.6,10.1c1.1-1.1,2.2-2.2,3.3-3.3l-9.6-21.4c-0.9-1.9-0.1-4.2,1.7-5.3l23-13.3c1.9-1.1,4.2-0.5,5.5,1.2
	l13.3,19c1.6-0.5,3.2-0.9,4.9-1.3l2.3-23.1c0.2-2.1,2-3.7,4.1-3.7h26.5c2.1,0,3.9,1.6,4.1,3.8l1.4,15.8l8.3-10.1
	c0.8-1,2-1.5,3.2-1.5h11c0.7,0,1.4,0.2,2.1,0.6l23,13.3c1.9,1.1,2.6,3.4,1.7,5.3l-9.5,20.4c1.1,1,2.1,2.1,3.2,3.1l9.1-7.8
	c0.8-0.6,1.7-1,2.7-1h11c1.5,0,2.8,0.8,3.6,2.1l13.3,23c1.1,1.9,0.5,4.2-1.2,5.5l-18.3,12.8c0.5,1.5,0.9,3.1,1.2,4.6l22.2,2
	c2.1,0.2,3.8,2,3.8,4.1v26.5c0,2.1-1.6,3.9-3.7,4.1l-22.1,2.2c-0.4,1.8-0.9,3.6-1.4,5.4l18.3,12.8c1.8,1.2,2.3,3.6,1.2,5.5l-13.3,23
	c-1.1,1.8-3.3,2.6-5.3,1.7l-20.4-9.2c-1.3,1.4-2.6,2.7-4,4l9.6,20.6c0.9,1.9,0.2,4.3-1.7,5.3l-23,13.3c-1.8,1.1-4.2,0.6-5.4-1.2
	l-13.4-18.6c-1.7,0.5-3.4,0.9-5.1,1.3l-2,22.9C346.1,439.899,344.3,441.499,342.2,441.499z M319.4,433.199h19l1.9-22.2
	c0.2-1.8,1.5-3.4,3.3-3.7c3.4-0.7,6.8-1.5,10-2.6c1.7-0.6,3.6,0,4.7,1.5l12.9,18l16.4-9.5l-9.3-19.9c-0.8-1.7-0.4-3.7,1-4.9
	c2.7-2.3,5.2-4.9,7.6-7.5c1.2-1.4,3.2-1.8,4.8-1.1l19.7,8.9l9.5-16.4l-17.7-12.4c-1.5-1.1-2.1-3-1.5-4.7c1.1-3.3,2-6.8,2.7-10.3
	c0.3-1.8,1.8-3.2,3.7-3.3l21.4-2.2v-19l-21.5-1.9c-1.8-0.2-3.3-1.5-3.7-3.3c-0.7-3.3-1.5-6.5-2.6-9.6c-0.6-1.7,0-3.7,1.5-4.7
	l17.7-12.4l-10.2-17.6h-7l-11,9.4c-1.7,1.5-4.3,1.3-5.8-0.4c-2.3-2.6-4.8-5.1-7.5-7.5c-1.4-1.2-1.8-3.2-1-4.9l9.2-19.7l-18.7-10.8
	H361l-13.5,16.4c-1.1,1.3-2.8,1.8-4.4,1.3c-1.6-0.5-2.8-1.9-2.9-3.6l-1.9-22.2h-19l-2.2,22.3c-0.2,1.8-1.5,3.3-3.3,3.6
	c-3.3,0.7-6.6,1.6-9.8,2.7c-1.7,0.6-3.7,0-4.7-1.5l-12.9-18.4l-16.4,9.5l9.3,20.7c0.7,1.7,0.3,3.6-1,4.8c-2.4,2.2-4.8,4.5-6.9,6.9
	c-1.2,1.4-3.2,1.8-4.9,1l-20.9-9.7l-9.5,16.4l18.8,13.5c1.5,1.1,2.1,3,1.5,4.7c-1.1,3.1-1.9,6.3-2.6,9.5c-0.4,1.8-1.9,3.1-3.7,3.3
	l-23.1,2v19l23,2.3c1.8,0.2,3.3,1.5,3.7,3.3c0.7,3.4,1.6,6.9,2.7,10.1c0.6,1.7,0,3.6-1.5,4.7l-18.8,13.5l9.5,16.4l20.9-9.7
	c1.7-0.8,3.6-0.4,4.9,1c2.2,2.5,4.5,4.8,7,7c1.4,1.2,1.8,3.2,1,4.8l-9.4,21l16.4,9.5l13.1-18.7c1.1-1.5,3-2.1,4.7-1.5
	c3.1,1.1,6.4,1.9,9.6,2.6c1.8,0.4,3.1,1.8,3.3,3.6L319.4,433.199z M329.1,361.299c-7.8,0-15.3-3.1-20.9-8.6
	c-6.1-6.1-9.2-14.6-8.5-23.2c1.1-14.3,12.7-25.9,27-27c8.6-0.7,17.1,2.4,23.2,8.5s9.2,14.6,8.5,23.2c-1.1,14.3-12.7,25.9-27,27l0,0
	C330.7,361.299,329.9,361.299,329.1,361.299z M329.1,310.699c-0.6,0-1.1,0-1.7,0.1c-10.2,0.8-18.6,9.1-19.4,19.4
	c-0.5,6.2,1.7,12.3,6.1,16.7c4.4,4.4,10.5,6.6,16.7,6.1l0,0c10.2-0.8,18.6-9.1,19.4-19.4c0.5-6.2-1.7-12.3-6.1-16.7
	C340.1,312.899,334.7,310.699,329.1,310.699z"/>
<path style="fill:#D7ECF9;" d="M422.8,344.599v-26.5l-25.3-2.2c-0.7-3.5-1.6-6.9-2.7-10.1l20.8-14.6l-13.3-23l-23.1,10.4
	c-2.4-2.8-5.1-5.4-7.9-7.9l10.8-23.2l-23-13.3l-14.9,20.8c-3.5-1.2-7.1-2.1-10.7-2.8l-2.3-25.9h-26.5l-2.6,26.1
	c-3.5,0.7-7,1.7-10.3,2.8l-15.1-21.5l-23,13.3l10.9,24.1c-2.6,2.3-5,4.7-7.3,7.3l-24.4-11.3l-13.3,23l21.8,15.7
	c-1.1,3.3-2,6.6-2.7,10l-26.9,2.4v26.5l26.8,2.7c0.7,3.7,1.7,7.2,2.8,10.7l-21.8,15.7l13.3,23l24.4-11.3c2.3,2.6,4.8,5.1,7.4,7.4
	l-11,24.4l23,13.3l15.3-21.8c3.3,1.1,6.7,2,10.1,2.7l2.6,26.1h26.5l2.3-25.9c3.6-0.7,7.1-1.6,10.5-2.8l15.1,21l23-13.3l-10.9-23.4
	c2.8-2.5,5.5-5.1,8-7.9l23.1,10.4l13.3-23l-20.8-14.6c1.2-3.5,2.2-7.1,2.9-10.8L422.8,344.599z M320.2,357.099
	c-15.6,1.2-28.5-11.7-27.3-27.3c1-12.3,10.9-22.2,23.2-23.2c15.6-1.2,28.5,11.7,27.3,27.3
	C342.4,346.199,332.5,356.099,320.2,357.099z"/>
<path style="fill:#AACFE2;" d="M422.8,344.599v-26.5l-25.3-2.2c-0.7-3.5-1.6-6.9-2.7-10.1l20.8-14.6l-13.3-23l-23.1,10.4
	c-1-1.2-2.1-2.3-3.2-3.5l-39.4,39.4c4.7,5,7.3,11.9,6.8,19.3c-1,12.3-10.9,22.2-23.2,23.2c-7.5,0.6-14.4-2.1-19.3-6.8l-39.4,39.4
	c1,1,2.1,2,3.2,3l-11,24.4l23,13.3l15.3-21.8c3.3,1.1,6.7,2,10.1,2.7l2.6,26.1h26.5l2.3-25.9c3.6-0.7,7.1-1.6,10.5-2.8l15.1,21
	l23-13.3l-10.9-23.4c2.8-2.5,5.5-5.1,8-7.9l23.1,10.4l13.3-23l-20.8-14.6c1.2-3.5,2.2-7.1,2.9-10.8L422.8,344.599z"/>
<g>
	<path style="fill:#4B31AA;" d="M331.2,441.499h-26.5c-2.1,0-3.9-1.6-4.1-3.7l-2.3-23.1c-1.6-0.4-3.1-0.8-4.7-1.3l-13.5,19.3
		c-1.2,1.8-3.6,2.3-5.5,1.2l-23-13.3c-1.8-1.1-2.6-3.3-1.7-5.3l9.7-21.6c-1.2-1.1-2.3-2.2-3.4-3.4l-21.6,10.1
		c-1.9,0.9-4.3,0.2-5.3-1.7l-13.3-23c-1.1-1.8-0.6-4.2,1.2-5.4l19.4-13.9c-0.5-1.7-1-3.5-1.4-5.3l-23.7-2.4c-2.1-0.2-3.7-2-3.7-4.1
		v-26.5c0-2.1,1.6-3.9,3.8-4.1l23.9-2.1c0.4-1.5,0.8-3.1,1.2-4.6l-19.4-13.9c-1.7-1.2-2.2-3.6-1.2-5.4l13.3-23
		c1.1-1.9,3.4-2.6,5.3-1.7l21.6,10.1c1.1-1.1,2.2-2.2,3.3-3.3l-9.6-21.4c-0.9-1.9-0.1-4.2,1.7-5.3l23-13.3c1.9-1.1,4.2-0.5,5.5,1.2
		l13.3,19c1.6-0.5,3.2-0.9,4.9-1.3l2.3-23.1c0.2-2.1,2-3.7,4.1-3.7h26.5c2.1,0,3.9,1.6,4.1,3.8l2,22.9c1.8,0.4,3.5,0.9,5.3,1.4
		l13.2-18.3c1.2-1.7,3.6-2.2,5.4-1.2l23,13.3c1.9,1.1,2.6,3.4,1.7,5.3l-9.5,20.4c1.3,1.2,2.6,2.5,3.9,3.9l20.4-9.2
		c1.9-0.9,4.2-0.1,5.3,1.7l13.3,23c1.1,1.9,0.5,4.2-1.2,5.5l-18.3,12.8c0.5,1.5,0.9,3.1,1.2,4.6l22.2,2c2.1,0.2,3.8,2,3.8,4.1v26.5
		c0,2.1-1.6,3.9-3.7,4.1l-22.1,2.2c-0.4,1.8-0.9,3.6-1.4,5.4l18.3,12.8c1.8,1.2,2.3,3.6,1.2,5.5l-13.3,23c-1.1,1.8-3.3,2.6-5.3,1.7
		l-20.4-9.2c-1.3,1.4-2.6,2.7-4,4l9.6,20.6c0.9,1.9,0.2,4.3-1.7,5.3l-23,13.3c-1.8,1.1-4.2,0.6-5.4-1.2l-13.4-18.6
		c-1.7,0.5-3.4,0.9-5.1,1.3l-2,22.9C335.2,439.899,333.4,441.499,331.2,441.499z M308.4,433.199h19l1.9-22.2
		c0.2-1.8,1.5-3.4,3.3-3.7c3.4-0.7,6.8-1.5,10-2.6c1.7-0.6,3.6,0,4.7,1.5l12.9,18l16.4-9.5l-9.3-19.9c-0.8-1.7-0.4-3.7,1-4.9
		c2.7-2.3,5.2-4.9,7.6-7.5c1.2-1.4,3.2-1.8,4.8-1.1l19.7,8.9l9.5-16.4l-17.7-12.4c-1.5-1.1-2.1-3-1.5-4.7c1.1-3.3,2-6.8,2.7-10.3
		c0.3-1.8,1.8-3.2,3.7-3.3l21.4-2.2v-19l-21.5-1.9c-1.8-0.2-3.3-1.5-3.7-3.3c-0.7-3.3-1.5-6.5-2.6-9.6c-0.6-1.7,0-3.7,1.5-4.7
		l17.7-12.4l-9.5-16.4l-19.7,8.9c-1.7,0.8-3.6,0.3-4.8-1.1c-2.3-2.6-4.8-5.1-7.5-7.5c-1.4-1.2-1.8-3.2-1-4.9l9.2-19.7l-16.4-9.5
		l-12.8,17.7c-1.1,1.5-3,2.1-4.7,1.5c-3.3-1.1-6.7-2-10.2-2.7c-1.8-0.3-3.2-1.9-3.3-3.7l-1.9-22.2h-19l-2.2,22.3
		c-0.2,1.8-1.5,3.3-3.3,3.6c-3.3,0.7-6.6,1.6-9.8,2.7c-1.7,0.6-3.7,0-4.7-1.5l-12.9-18.4l-16.4,9.5l9.3,20.7c0.7,1.7,0.3,3.6-1,4.8
		c-2.4,2.2-4.8,4.5-6.9,6.9c-1.2,1.4-3.2,1.8-4.9,1l-20.9-9.7l-9.5,16.4l18.8,13.5c1.5,1.1,2.1,3,1.5,4.7c-1.1,3.1-1.9,6.3-2.6,9.5
		c-0.4,1.8-1.9,3.1-3.7,3.3l-23.1,2v19l23,2.3c1.8,0.2,3.3,1.5,3.7,3.3c0.7,3.4,1.6,6.9,2.7,10.1c0.6,1.7,0,3.6-1.5,4.7l-18.8,13.5
		l9.5,16.4l20.9-9.7c1.7-0.8,3.6-0.4,4.9,1c2.2,2.5,4.5,4.8,7,7c1.4,1.2,1.8,3.2,1,4.8l-9.4,21l16.4,9.5l13.1-18.7
		c1.1-1.5,3-2.1,4.7-1.5c3.1,1.1,6.4,1.9,9.6,2.6c1.8,0.4,3.1,1.8,3.3,3.6L308.4,433.199z M318.2,361.299c-7.8,0-15.3-3.1-20.9-8.6
		c-6.1-6.1-9.2-14.6-8.5-23.2c1.1-14.3,12.7-25.9,27-27c8.6-0.7,17.1,2.4,23.2,8.5s9.2,14.6,8.5,23.2c-1.1,14.3-12.7,25.9-27,27l0,0
		C319.7,361.299,319,361.299,318.2,361.299z M318.1,310.699c-0.6,0-1.1,0-1.7,0.1c-10.2,0.8-18.6,9.1-19.4,19.4
		c-0.5,6.2,1.7,12.3,6.1,16.7c4.4,4.4,10.5,6.6,16.7,6.1l0,0c10.2-0.8,18.6-9.1,19.4-19.4c0.5-6.2-1.7-12.3-6.1-16.7
		C329.1,312.899,323.7,310.699,318.1,310.699z"/>
	<path style="fill:#4B31AA;" d="M426.6,295.299h-11c-2.3,0-4.1-1.9-4.1-4.1s1.9-4.1,4.1-4.1h11c2.3,0,4.1,1.9,4.1,4.1
		C430.7,293.499,428.9,295.299,426.6,295.299z"/>
	<path style="fill:#4B31AA;" d="M394.8,309.899c-2.2,0-4-1.7-4.1-4s1.7-4.2,4-4.3l11.6-0.5c2.3-0.1,4.2,1.7,4.3,4s-1.7,4.2-4,4.3
		l-11.6,0.5C395,309.899,394.9,309.899,394.8,309.899z"/>
	<path style="fill:#4B31AA;" d="M433.8,322.299h-11c-2.3,0-4.1-1.9-4.1-4.1s1.9-4.1,4.1-4.1h11c2.3,0,4.1,1.9,4.1,4.1
		S436.1,322.299,433.8,322.299z"/>
	<path style="fill:#4B31AA;" d="M433.8,348.799h-11c-2.3,0-4.1-1.9-4.1-4.1c0-2.3,1.9-4.1,4.1-4.1h11c2.3,0,4.1,1.9,4.1,4.1
		C437.9,346.899,436.1,348.799,433.8,348.799z"/>
	<path style="fill:#4B31AA;" d="M426.6,376.699c-0.1,0-0.1,0-0.2,0l-12.2-0.5c-2.3-0.1-4.1-2-4-4.3s2-4.1,4.3-4l12.2,0.5
		c2.3,0.1,4.1,2,4,4.3C430.6,374.899,428.8,376.699,426.6,376.699z"/>
	<path style="fill:#4B31AA;" d="M405.8,362.099h-11c-2.3,0-4.1-1.9-4.1-4.1s1.9-4.1,4.1-4.1h11c2.3,0,4.1,1.9,4.1,4.1
		C410,360.299,408.1,362.099,405.8,362.099z"/>
	<path style="fill:#4B31AA;" d="M413.3,399.699h-11c-2.3,0-4.1-1.9-4.1-4.1c0-2.3,1.9-4.1,4.1-4.1h11c2.3,0,4.1,1.9,4.1,4.1
		C417.5,397.799,415.6,399.699,413.3,399.699z"/>
	<path style="fill:#4B31AA;" d="M382.2,397.199h-11c-2.3,0-4.1-1.9-4.1-4.1c0-2.3,1.9-4.1,4.1-4.1h11c2.3,0,4.1,1.9,4.1,4.1
		S384.5,397.199,382.2,397.199z"/>
	<path style="fill:#4B31AA;" d="M393.1,420.599h-11c-2.3,0-4.1-1.9-4.1-4.1c0-2.3,1.9-4.1,4.1-4.1h11c2.3,0,4.1,1.9,4.1,4.1
		C397.3,418.699,395.4,420.599,393.1,420.599z"/>
	<path style="fill:#4B31AA;" d="M370.1,433.799h-11c-2.3,0-4.1-1.9-4.1-4.1s1.9-4.1,4.1-4.1h11c2.3,0,4.1,1.9,4.1,4.1
		C374.3,431.999,372.4,433.799,370.1,433.799z"/>
	<path style="fill:#4B31AA;" d="M287.6,434.499h-11.2c-2.3,0-4.1-1.9-4.1-4.1c0-2.3,1.9-4.1,4.1-4.1h11.2c2.3,0,4.1,1.9,4.1,4.1
		C291.8,432.599,289.9,434.499,287.6,434.499z"/>
	<path style="fill:#4B31AA;" d="M287.6,237.899h-11c-2.3,0-4.1-1.9-4.1-4.1c0-2.3,1.9-4.1,4.1-4.1h11c2.3,0,4.1,1.9,4.1,4.1
		C291.8,235.999,289.9,237.899,287.6,237.899z"/>
	<path style="fill:#4B31AA;" d="M243.9,271.199h-11c-2.3,0-4.1-1.9-4.1-4.1s1.9-4.1,4.1-4.1h11c2.3,0,4.1,1.9,4.1,4.1
		S246.2,271.199,243.9,271.199z"/>
	<path style="fill:#4B31AA;" d="M243.9,400.799h-11c-2.3,0-4.1-1.9-4.1-4.1s1.9-4.1,4.1-4.1h11c2.3,0,4.1,1.9,4.1,4.1
		S246.2,400.799,243.9,400.799z"/>
	<path style="fill:#4B31AA;" d="M382.3,274.899h-11c-2.3,0-4.1-1.9-4.1-4.1c0-2.3,1.9-4.1,4.1-4.1h11c2.3,0,4.1,1.9,4.1,4.1
		C386.5,273.099,384.6,274.899,382.3,274.899z"/>
</g>
<path style="fill:#F7931E;" d="M318.2,379.899c-26.5,0-48-21.5-48-48s21.5-48,48-48s48,21.5,48,48S344.6,379.899,318.2,379.899z
	 M318.2,305.599c-14.5,0-26.3,11.8-26.3,26.3s11.8,26.3,26.3,26.3s26.3-11.8,26.3-26.3C344.4,317.399,332.6,305.599,318.2,305.599z"
	/>
<path style="fill:#FFFFFF;" d="M448.7,295.899H41.8c-20.7,0-37.5-16.8-37.5-37.5v-4.1c0-20.7,16.8-37.5,37.5-37.5h406.9
	c20.7,0,37.5,16.8,37.5,37.5v4.1C486.2,279.099,469.4,295.899,448.7,295.899z"/>
<path style="fill:#CFDDF7;" d="M448.7,216.699H319.6l-68.8,79.2h197.9c20.7,0,37.5-16.8,37.5-37.5v-4.1
	C486.2,233.499,469.4,216.699,448.7,216.699z"/>
<path style="fill:#F9D015;" d="M472.3,216.699h-59.8v79.2h59.8c19.7,0,35.6-17.7,35.6-39.6l0,0
	C507.9,234.399,492,216.699,472.3,216.699z"/>
<g>
	<path style="fill:#4B31AA;" d="M472.3,212.599H41.7c-23,0-41.7,18.7-41.7,41.7v4.1c0,23,18.7,41.7,41.7,41.7h430.6
		c21.9,0,39.7-19.6,39.7-43.7C512.1,232.199,494.3,212.599,472.3,212.599z M8.4,258.299v-4.1c0-18.4,15-33.4,33.4-33.4h366.6v70.9
		H41.8C23.4,291.699,8.4,276.799,8.4,258.299z M472.3,291.699h-55.7v-70.9h55.7c17.3,0,31.5,15.9,31.5,35.5
		C503.8,275.799,489.7,291.699,472.3,291.699z"/>
	<path style="fill:#4B31AA;" d="M239.7,262.099H45.3c-2.3,0-4.1-1.9-4.1-4.1c0-2.3,1.9-4.1,4.1-4.1h194.4c2.3,0,4.1,1.9,4.1,4.1
		C243.9,260.199,242,262.099,239.7,262.099z"/>
	<path style="fill:#4B31AA;" d="M279.2,95.199c-2.3,0-4.1-1.9-4.1-4.1v-38c0-2.3,1.9-4.1,4.1-4.1s4.1,1.9,4.1,4.1v38
		C283.3,93.399,281.4,95.199,279.2,95.199z"/>
	<path style="fill:#4B31AA;" d="M247.4,128.699c-2.3,0-4.1-1.9-4.1-4.1v-38c0-2.3,1.9-4.1,4.1-4.1s4.1,1.9,4.1,4.1v38
		C251.5,126.899,249.7,128.699,247.4,128.699z"/>
	<path style="fill:#4B31AA;" d="M310.9,73.799c-2.3,0-4.1-1.9-4.1-4.1v-38c0-2.3,1.9-4.1,4.1-4.1s4.1,1.9,4.1,4.1v38
		C315.1,71.999,313.2,73.799,310.9,73.799z"/>
</g>
<ellipse style="fill:#473CBA;" cx="328.9" cy="480.899" rx="86.9" ry="7.8"/>
<g>
</g>
<g>
</g>
<g>
</g>
<g>
</g>
<g>
</g>
<g>
</g>
<g>
</g>
<g>
</g>
<g>
</g>
<g>
</g>
<g>
</g>
<g>
</g>
<g>
</g>
<g>
</g>
<g>
</g>
</svg>
