<svg xmlns="http://www.w3.org/2000/svg" viewBox="0 0 106.9 96.4"><path fill="#95BF46" d="M69.2 29.9c0-.3-.3-.4-.5-.4s-4.3-.3-4.3-.3l-3.1-3.1c-.3-.3-.9-.2-1.1-.1 0 0-.6.2-1.6.5-.9-2.7-2.6-5.2-5.5-5.2h-.2c-.8-1.1-1.9-1.6-2.8-1.6-6.8 0-10.1 8.5-11.1 12.9-2.6.8-4.5 1.4-4.8 1.5-1.5.5-1.5.5-1.7 1.9-.1 1.1-4 31-4 31l30.1 5.6L75 68.9s-5.7-38.7-5.8-39zm-12.2-3c-.8.2-1.6.5-2.6.8v-.5c0-1.7-.2-3-.6-4.1 1.5.1 2.5 1.8 3.2 3.8zm-5-3.6c.4 1.1.7 2.6.7 4.6v.3c-1.7.5-3.5 1.1-5.3 1.6 1-3.8 2.9-5.7 4.6-6.5zm-2.1-1.9c.3 0 .6.1.9.3-2.2 1-4.5 3.6-5.5 8.8-1.4.4-2.9.9-4.2 1.3 1.2-3.9 3.9-10.4 8.8-10.4z"/><path fill="#5E8E3E" d="M68.8 29.5c-.2 0-4.3-.3-4.3-.3l-3.1-3.1c-.1-.1-.3-.2-.4-.2l-2.3 46.6L75 68.9s-5.7-38.8-5.8-39c0-.3-.2-.4-.4-.4"/><path fill="#FFF" d="M53.1 38.5l-2 6s-1.8-.9-3.9-.9c-3.2 0-3.3 2-3.3 2.5 0 2.7 7.1 3.8 7.1 10.2 0 5-3.2 8.3-7.5 8.3-5.2 0-7.8-3.2-7.8-3.2l1.4-4.6s2.7 2.3 5 2.3c1.5 0 2.1-1.2 2.1-2 0-3.6-5.9-3.7-5.9-9.6 0-4.9 3.5-9.7 10.7-9.7 2.8-.1 4.1.7 4.1.7"/></svg>