<svg xmlns="http://www.w3.org/2000/svg" xmlns:xlink="http://www.w3.org/1999/xlink" viewBox="0 0 716.21 618.63"><defs><style>.cls-1{isolation:isolate;}.cls-2{fill:url(#linear-gradient);}.cls-3{fill:url(#linear-gradient-2);}.cls-4{fill:url(#linear-gradient-3);}.cls-5{opacity:0.25;}.cls-6{fill:#00004d;}.cls-7,.cls-8{fill:#ffaf98;}.cls-16,.cls-18,.cls-8{opacity:0.5;mix-blend-mode:multiply;}.cls-9{fill:#0080f7;}.cls-10{fill:url(#linear-gradient-4);}.cls-11,.cls-12{fill:#fff;}.cls-12{font-size:5.91px;font-family:Renogare-Regular, Renogare Regular;}.cls-13{fill:#003abc;}.cls-14{fill:#ea3da8;}.cls-15,.cls-16{fill:#ff61bb;}.cls-17,.cls-18{fill:#009df7;}.cls-19{fill:#ddeaf8;}.cls-20{fill:url(#linear-gradient-5);}.cls-21{fill:url(#linear-gradient-6);}.cls-22{fill:url(#linear-gradient-7);}</style><linearGradient id="linear-gradient" x1="309.08" y1="329.89" x2="729.07" y2="749.87" gradientUnits="userSpaceOnUse"><stop offset="0" stop-color="#5c30f1"/><stop offset="1" stop-color="#00004d"/></linearGradient><linearGradient id="linear-gradient-2" x1="25.5" y1="619.2" x2="720.47" y2="537.95" gradientTransform="matrix(-0.7, -0.65, 0.7, -0.71, 314.36, 1150.59)" gradientUnits="userSpaceOnUse"><stop offset="0" stop-color="#5c30f1"/><stop offset="0.07" stop-color="#673ff2" stop-opacity="0.92"/><stop offset="0.42" stop-color="#9988f4" stop-opacity="0.53"/><stop offset="0.7" stop-color="#bebdf6" stop-opacity="0.24"/><stop offset="0.9" stop-color="#d4ddf8" stop-opacity="0.07"/><stop offset="1" stop-color="#ddeaf8" stop-opacity="0"/></linearGradient><linearGradient id="linear-gradient-3" x1="600.47" y1="165.68" x2="715.37" y2="165.7" gradientTransform="translate(797.51 -568.32) rotate(98.59)" xlink:href="#linear-gradient"/><linearGradient id="linear-gradient-4" x1="225.7" y1="319.15" x2="411.7" y2="319.15" gradientUnits="userSpaceOnUse"><stop offset="0" stop-color="#00bf9a"/><stop offset="0.07" stop-color="#02c4a0"/><stop offset="0.38" stop-color="#0ad8b4"/><stop offset="0.69" stop-color="#0fe3c0"/><stop offset="1" stop-color="#11e7c4"/></linearGradient><linearGradient id="linear-gradient-5" x1="326.48" y1="401.47" x2="338.11" y2="401.47" gradientUnits="userSpaceOnUse"><stop offset="0" stop-color="#00bf9a"/><stop offset="0.06" stop-color="#00c49f"/><stop offset="0.37" stop-color="#00d7b3"/><stop offset="0.69" stop-color="#00e3bf"/><stop offset="1" stop-color="#00e7c3"/></linearGradient><linearGradient id="linear-gradient-6" x1="292.27" y1="473.68" x2="298.84" y2="473.68" xlink:href="#linear-gradient-5"/><linearGradient id="linear-gradient-7" x1="96.7" y1="181.15" x2="100.7" y2="181.15" xlink:href="#linear-gradient-5"/></defs><title>speed-opt</title><g class="cls-1"><g id="Layer_1" data-name="Layer 1"><path class="cls-2" d="M806.09,488.46c-87.42,144,12,373-305,305-164.7-35.33-376.22,14-305-305,48-215,236.82-53.69,322-199C586.09,173.46,908.09,320.46,806.09,488.46Z" transform="translate(-181.89 -239.81)"/><path class="cls-3" d="M747.75,747.46c-157.52-5.08-284.8,119.8-483.93-67.17-132.18-124.1-95.94-317.21,198.29-407.57C604.36,229,561,475.61,773.59,426.63,894.9,398.69,989.74,755.28,747.75,747.46Z" transform="translate(-181.89 -239.81)"/><circle class="cls-4" cx="535.37" cy="57.45" r="57.45"/><g class="cls-5"><path class="cls-6" d="M386.3,781l72,77.22a77.72,77.72,0,0,0,9,.17L386.77,772A77.81,77.81,0,0,0,386.3,781Z" transform="translate(-181.89 -239.81)"/><path class="cls-6" d="M388.61,799.36l51.51,55.26a78.68,78.68,0,0,0,11.48,2.78l-65-69.69A79.63,79.63,0,0,0,388.61,799.36Z" transform="translate(-181.89 -239.81)"/><path class="cls-6" d="M477,703.5l65,69.68a78.53,78.53,0,0,0-2-11.65l-51.51-55.25A77.41,77.41,0,0,0,477,703.5Z" transform="translate(-181.89 -239.81)"/><path class="cls-6" d="M497.92,710.06l38.95,41.78a78,78,0,0,0-38.95-41.78Z" transform="translate(-181.89 -239.81)"/><path class="cls-6" d="M407.23,833.64a77.82,77.82,0,0,0,23.44,17.19l-38.94-41.77A77.86,77.86,0,0,0,407.23,833.64Z" transform="translate(-181.89 -239.81)"/><path class="cls-6" d="M461.27,702.52l80.55,86.41a77.75,77.75,0,0,0,.47-9l-72-77.23A77.93,77.93,0,0,0,461.27,702.52Z" transform="translate(-181.89 -239.81)"/><path class="cls-6" d="M416.91,718.49,522.78,832.07c1.46-1.66,2.83-3.37,4.13-5.11L422.29,714.73C420.46,715.9,418.66,717.14,416.91,718.49Z" transform="translate(-181.89 -239.81)"/><path class="cls-6" d="M411.11,723.39c-.8.74-1.57,1.5-2.33,2.27l106.27,114c.82-.71,1.64-1.42,2.44-2.16s1.56-1.51,2.32-2.28l-106.27-114C412.72,721.93,411.9,722.64,411.11,723.39Z" transform="translate(-181.89 -239.81)"/><path class="cls-6" d="M401.68,733.93,506.3,846.17c1.83-1.18,3.63-2.42,5.38-3.76L405.81,728.83C404.35,730.48,403,732.19,401.68,733.93Z" transform="translate(-181.89 -239.81)"/><path class="cls-6" d="M395.67,743.37l100.8,108.14c2-.93,4.06-1.94,6-3.06L399.14,737.56Q397.27,740.4,395.67,743.37Z" transform="translate(-181.89 -239.81)"/><path class="cls-6" d="M426.08,712.44l103.37,110.9q1.88-2.85,3.48-5.81L432.12,709.39C430.08,710.31,428.06,711.33,426.08,712.44Z" transform="translate(-181.89 -239.81)"/><path class="cls-6" d="M436.39,707.6,535,813.4c1-2.17,1.92-4.38,2.72-6.62L443.18,705.36C440.89,706,438.62,706.75,436.39,707.6Z" transform="translate(-181.89 -239.81)"/><path class="cls-6" d="M448,704.16l91.26,97.91q1.08-3.78,1.79-7.62l-85.33-91.54C453.12,703.2,450.54,703.62,448,704.16Z" transform="translate(-181.89 -239.81)"/><path class="cls-6" d="M390.87,754.12l94.54,101.42q3.43-1,6.8-2.25L393.59,747.5Q392.08,750.75,390.87,754.12Z" transform="translate(-181.89 -239.81)"/><path class="cls-6" d="M387.55,766.44,472.88,858a77.52,77.52,0,0,0,7.72-1.24l-91.26-97.91Q388.26,762.6,387.55,766.44Z" transform="translate(-181.89 -239.81)"/></g><path class="cls-7" d="M599.73,538.32c-.3-.39-.55-.21-1-.1l-4.17,1-8.24,2.16a4.83,4.83,0,0,0-1.35-2c-.89-.66-1.77-1-1.67-.51a2.45,2.45,0,0,0,.93,1.35,5.3,5.3,0,0,1-3.36-1.81c-.54-.29-1.08.63.07,2.3a5.7,5.7,0,0,0,3.19,2.33,7.53,7.53,0,0,0,2.47.31l8.5-.34,3-.14c.34,0,1.08.09,1.38-.11.7-.48.79-2.21.72-2.95A3.28,3.28,0,0,0,599.73,538.32Z" transform="translate(-181.89 -239.81)"/><path class="cls-8" d="M599.73,538.32c-.3-.39-.55-.21-1-.1l-3.27.76c-.4,1.34-1.63,3.35-5.37,4.25l5-.2,3-.14c.34,0,1.08.09,1.38-.11.7-.48.79-2.21.72-2.95A3.28,3.28,0,0,0,599.73,538.32Z" transform="translate(-181.89 -239.81)"/><path class="cls-9" d="M612.93,525.76c-2.22-.27-4.47.26-8.28,7-2.52,5.63-8.61,5.53-8.61,5.53s-.33,3.88.67,5c0,0,6.12.39,8.88-1.1s9.16-9.67,10.46-11.45S615.15,526,612.93,525.76Z" transform="translate(-181.89 -239.81)"/><rect class="cls-10" x="225.7" y="226.15" width="186" height="186" rx="21.26"/><path class="cls-11" d="M432.47,589a67.63,67.63,0,0,1,135.25,0h2.87a70.5,70.5,0,0,0-141,0Z" transform="translate(-181.89 -239.81)"/><path class="cls-11" d="M479,553.38l20.56,33.83a3.45,3.45,0,0,0,4.94,1h0a3.46,3.46,0,0,0,.72-5l-24.8-30.86A.87.87,0,0,0,479,553.38Z" transform="translate(-181.89 -239.81)"/><text class="cls-12" transform="translate(255.31 349.11)">1000</text><text class="cls-12" transform="translate(364.57 349.11)">5000</text><text class="cls-12" transform="translate(310.02 291.19)">2500</text><path class="cls-7" d="M598.89,670.11a10.18,10.18,0,0,0,7.72-3l-.47-4.46,4-.35.47,4.47a19.77,19.77,0,0,1,1.47,6.13c.18,3.22-2.29,3-2.29,3a60.36,60.36,0,0,1-16.66-1.78l.13-1.12C593.37,671.88,594,669.91,598.89,670.11Z" transform="translate(-181.89 -239.81)"/><path class="cls-13" d="M610.88,667.49c-.74.84-2.57,2.59-4.83,2.59a6.82,6.82,0,0,1-3.13-.63,10.05,10.05,0,0,1-4,.66c-4.9-.2-5.52,1.77-5.65,2.89l-.13,1.12a60.36,60.36,0,0,0,16.66,1.78s2.47.21,2.29-3A19.6,19.6,0,0,0,610.88,667.49Z" transform="translate(-181.89 -239.81)"/><path class="cls-14" d="M628.71,563.55s1.22,10-1.67,18.43-14.42,35.11-14.42,35.11l-.06,1.57-.19,6.57L612,638.36l-.78,26.26-6.36.2-2.49-26.15-1.24-13.07-.63-6.54-.15-1.7a15.78,15.78,0,0,1,0-2.66c0-.44.11-.88.2-1.31l.14-.85.28-1.62,8.77-51.81Z" transform="translate(-181.89 -239.81)"/><path class="cls-7" d="M635.25,669.23a10.24,10.24,0,0,0,6.48-5.17L640,659.93l3.7-1.52,1.78,4.13a19.89,19.89,0,0,1,3.22,5.41c1.14,3-1.29,3.57-1.29,3.57a60.49,60.49,0,0,1-16.43,3.26l-.21-1.11C630.52,672.56,630.52,670.49,635.25,669.23Z" transform="translate(-181.89 -239.81)"/><path class="cls-15" d="M635.54,558.68s3.9,9.33,3.4,18.19-4.35,37.7-4.35,37.7l.38,1.53,1.6,6.37,3.19,12.75,6.38,25.48-6.06,1.93-9.5-24.5-4.75-12.24-2.38-6.13-.61-1.59a15.88,15.88,0,0,1-.66-2.57q-.12-.66-.18-1.32l-.09-.86-.17-1.63-5.63-52.24Z" transform="translate(-181.89 -239.81)"/><path class="cls-13" d="M645.92,663.15c-.46,1-1.68,3.24-3.84,3.92a7,7,0,0,1-3.18.33,10,10,0,0,1-3.65,1.83c-4.73,1.26-4.73,3.33-4.53,4.44l.21,1.11a60.49,60.49,0,0,0,16.43-3.26s2.43-.54,1.29-3.57A19.67,19.67,0,0,0,645.92,663.15Z" transform="translate(-181.89 -239.81)"/><path class="cls-16" d="M638.66,580.46c.13-1.39.23-2.62.28-3.59a34,34,0,0,0-.3-6.4,33.87,33.87,0,0,0-9.68.08c-3.44.51-7.78,2.48-11.2,4.3l4,36.94.17,1.63.09.86q.06.66.18,1.32a15.88,15.88,0,0,0,.66,2.57l.61,1.59,2.38,6.13,1.07,2.75h0c-4.21-13.62-1.53-32.28,1.44-39C630.64,584.48,636.25,581.53,638.66,580.46Z" transform="translate(-181.89 -239.81)"/><path class="cls-7" d="M602,551.82c-.77-.56-1.13-.1-2,.35l-7.18,4-14.07,8.32a9.2,9.2,0,0,0-3.5-2.9c-2-.76-3.79-.94-3.35-.06a4.76,4.76,0,0,0,2.42,2,10.13,10.13,0,0,1-7.14-1.58c-1.16-.25-1.66,1.72,1.33,4.2a11,11,0,0,0,7.09,2.63,14.72,14.72,0,0,0,4.73-.71l15.5-5.09,5.39-1.82c.62-.21,2-.41,2.49-.93,1-1.25.3-4.49-.21-5.81A6.21,6.21,0,0,0,602,551.82Z" transform="translate(-181.89 -239.81)"/><path class="cls-8" d="M602,551.82c-.77-.56-1.13-.1-2,.35l-6.38,3.53c.43,1.9.48,6-5.54,9.79l7.75-2.54,5.39-1.82c.62-.21,2-.41,2.49-.93,1-1.25.3-4.49-.21-5.81A6.21,6.21,0,0,0,602,551.82Z" transform="translate(-181.89 -239.81)"/><path class="cls-7" d="M611.1,498.17c-.08.47-1.93,9.16,0,12.24s7.56,2.44,13.38-2,2.06-13.42-2.71-15.15S611.76,494.31,611.1,498.17Z" transform="translate(-181.89 -239.81)"/><path class="cls-7" d="M625.06,516.93a22.67,22.67,0,0,1-2.53-11.43c-1.81.78-5.57,1.95-5.57,1.95s1.1,7.07,1.61,9.59S625.06,516.93,625.06,516.93Z" transform="translate(-181.89 -239.81)"/><path class="cls-15" d="M626.23,509.88c-1.29.14-3.31-1.63-2.77-3.07s1.07-4.09-.52-5-3.29.4-3.71,2.46-2.81-1.35-2.23-4.47a14.49,14.49,0,0,1-7-2.16,4.83,4.83,0,0,1-1.38-5.92,18.67,18.67,0,0,1,1.54-2.77c.33-.49,1-1.82,1.72-1.62s.53,1.2,1.33,1.15,1.82-1.41,2.46-1.91,1.49-1.6,2.37-1.62c1.24,0,.85,1.7,1.82,2,.64.2,1.69-.59,2.32-.78a11.7,11.7,0,0,1,3.32-.49c1.2,0,.33,2.13,1,2.53s2.23-.6,3.07-.28.65,1.43.57,2.08-.54,1.51-.35,2.11.76.49,1.45.45c-.15,3.27.34,6.68-.09,9.94C630.82,505.28,629.59,509.51,626.23,509.88Z" transform="translate(-181.89 -239.81)"/><path class="cls-17" d="M634.47,526.34s-.1-13.22-13.88-11.52c-6.43,2.1-13,6.85-12.05,19.1s1,14.83.62,24-4.91,20.21-4.91,20.21,14.73,4.37,35.21-.32C638.81,571,634.89,544.62,634.47,526.34Z" transform="translate(-181.89 -239.81)"/><path class="cls-13" d="M625.41,513a1.45,1.45,0,0,0-1.63-1c-2.15.36-6.29,1.12-6.82,1.79-.72.91,0,3.32,0,3.32s9.29-.51,9.17-1.21C626.06,515.47,625.69,514.08,625.41,513Z" transform="translate(-181.89 -239.81)"/><path class="cls-18" d="M610.24,550.94a3.06,3.06,0,0,0-.88.5c0,1.89-.1,3.93-.2,6.49-.36,9.18-4.91,20.21-4.91,20.21s14.73,4.37,35.21-.32c-.09-.94-.24-2.27-.44-3.89C612.63,576.34,610.24,550.94,610.24,550.94Z" transform="translate(-181.89 -239.81)"/><path class="cls-17" d="M619.72,521.75c-4.23.66-8.11,2.82-11.61,17.25-1.69,11.71-13,14.72-13,14.72s1.43,7.33,3.86,8.9c0,0,11.5-2.5,15.81-6.68s11.81-22.62,13.29-26.6S624,521.09,619.72,521.75Z" transform="translate(-181.89 -239.81)"/><path class="cls-18" d="M621.4,521.73c0,4.45-.38,24.76-10.74,32.35A56.51,56.51,0,0,1,598,561.56a4.15,4.15,0,0,0,1,1.06s11.5-2.5,15.81-6.68,11.81-22.62,13.29-26.6C629.38,525.86,625.28,522.18,621.4,521.73Z" transform="translate(-181.89 -239.81)"/><path class="cls-16" d="M631.05,503.33c-4.1,2.57-5.67-4.9-6-4.28s-3.12.51-4-1.64-.6-1.54-4-.91a8.18,8.18,0,0,1-8.52-4.16,4.76,4.76,0,0,0,1.61,5.28,14.49,14.49,0,0,0,7,2.16c-.58,3.12,1.81,6.52,2.23,4.47s2.12-3.4,3.71-2.46,1.07,3.58.52,5,1.48,3.21,2.77,3.07C629.27,509.55,630.57,506.05,631.05,503.33Z" transform="translate(-181.89 -239.81)"/><path class="cls-19" d="M317.6,576a13.05,13.05,0,0,0-1.82-.63,8.64,8.64,0,0,0-1.75-.16,7.57,7.57,0,0,0-1.72.22,5.09,5.09,0,0,0-.78,0,5.06,5.06,0,0,1-.87,0,4,4,0,0,0-1.15.11l-.93.18a4.9,4.9,0,0,1-1,.06,10.8,10.8,0,0,0-2,.3,36.79,36.79,0,0,0-7.74,2.69c-1.27.59-2.49,1.25-3.71,1.94-.55.31-1.1.61-1.64.94l-.66.36a.15.15,0,0,0-.24-.18c-.32.28-.64.56-1,.85a36.27,36.27,0,0,0-6.23,5.09q-1.58,1.59-3.07,3.24c-.5.55-1,1.11-1.47,1.68a8.89,8.89,0,0,0-.59.82,27.9,27.9,0,0,0-3.74,2.31c-1.42,1-2.76,2.2-4.07,3.37s-2.49,2.25-3.64,3.47a28.58,28.58,0,0,0-3.23,4,26.23,26.23,0,0,0-2.38,4.66,68.59,68.59,0,0,0-2.76,8.35,7.07,7.07,0,0,0-.33.8c-.2.58-.38,1.17-.54,1.76-.31,1.12-.53,2.26-.73,3.4a48.92,48.92,0,0,0-.7,6.72c-.05,1.44-.06,2.9,0,4.36a.61.61,0,0,0,0,.14c-.05-.62-.1-1.24-.16-1.87a54.65,54.65,0,0,0-1-7.54,44.31,44.31,0,0,0-1.81-5.84,73,73,0,0,0-3-9.07,73.71,73.71,0,0,0-9.35-16.74c-1.09-1.44-2.22-2.85-3.41-4.22-.51-.59-1.06-1.15-1.62-1.7,0,0,0-.11-.07-.17-.51-1.21-1.08-2.4-1.67-3.57-1.18-2.35-2.49-4.62-3.74-6.93s-2.63-4.63-4.13-6.85a62.12,62.12,0,0,0-4.65-6.28c-1-1.1-2.05-2.06-3.1-3.06-.54-.53-1.1-1-1.66-1.54-.29-.26-.58-.5-.87-.74s-.65-.41-1-.66-.44.1-.26.27c.46.44.85,1,1.3,1.45s1,1,1.44,1.54c.87,1,1.6,2,2.39,3,1.33,1.73,2.65,3.48,3.88,5.28.31.54.61,1.09.91,1.63.94,1.67,1.81,3.38,2.65,5.1.27.55.54,1.09.82,1.62.18.38.35.77.53,1.16a55.89,55.89,0,0,0-4.93-4.68,46.79,46.79,0,0,0-7-5,26.94,26.94,0,0,0-4.35-2,17.59,17.59,0,0,0-4.57-1.08c-.15,0-.17.21,0,.25a39.71,39.71,0,0,1,4,1.31,35.13,35.13,0,0,1,3.77,1.92,42.48,42.48,0,0,1,6,4.1h-.18c-.05,0-.05.1,0,.09h.2s0,0,0,0c.3.24.6.48.89.73l.45.39a4.35,4.35,0,0,0,2,2.36c.47.31,1,.59,1.46.87q1.89,1.89,3.62,3.92l.09.17v0c.34.83.68,1.66,1,2.49s.65,1.56,1,2.32c.15.31.29.63.43,1l.25.91c.44,1.51,1,3,1.44,4.48,0,.1.07.2.1.3.24,1.13.54,2.23.87,3.34.38,1.28.86,2.53,1.35,3.77.21.54.42,1.08.65,1.62,1.87,5.73,3.66,11.49,5.82,17.12a52.43,52.43,0,0,0,3.09,7c.06.19.12.38.17.56.8,2.62,1.66,5.23,2.52,7.83q1.72,5.25,3.51,10.48a22.54,22.54,0,0,0,.88,3,14,14,0,0,0,.8,1.84l.12.35c.5,1.45,1,2.9,1.52,4.34.26.75.52,1.49.79,2.22.06.16.11.32.17.49s-.1.6-.14.9l-.15.08c-1.47,1.11-1.65,3-1.53,4.7.06.79.14,1.58.27,2.35a14.79,14.79,0,0,0-1.22-1.39,5.87,5.87,0,0,0-1.19-.91c-.36-.2-1-.53-1.38-.39a.2.2,0,0,0-.11.28c.18.37.73.64,1,.92a8.08,8.08,0,0,1,.92.93,4.58,4.58,0,0,0,.27,1.09c-.55-.54-1.12-1.07-1.72-1.57-.13-.11-.35,0-.25.19,1.24,2,2.84,3.69,4.17,5.61.19.28.38.57.56.86a9.11,9.11,0,0,0,1.13,2.22c.08.19.15.38.22.57a28.74,28.74,0,0,0,.69,3.19c0,.25,0,.49,0,.73.07.89.12,1.83.25,2.73,0,1.44.05,2.88,0,4.32,0,3.37-.08,6.74-.21,10.11-3.11.08-6.22.2-9.32.41-2.83.19-5.71.34-8.53.74l-.26,0v.07h0c-.2,0-.18.32,0,.39-.28,3.87,1.38,7.63,2.48,11.38.85,2.87,1.37,5.84,2.32,8.69a21.83,21.83,0,0,0,2.56,5.6c1.31,1.89,2.85,2.3,4.84,2.53.31.07.64.11,1,.16a21.4,21.4,0,0,0,2.65.25H258l.84,0a26,26,0,0,0,3.84.18,11.64,11.64,0,0,0,1.87-.21,34.75,34.75,0,0,0,3.94-.49c1.53-.29,4.28-.72,5.23-2.12a13.23,13.23,0,0,0,.9-2.92c.41-1.23.81-2.47,1.21-3.7l4.59-14.14a16.77,16.77,0,0,0,1.16-6.06h.06a.34.34,0,0,0,0-.67c-1.36-.08-2.73,0-4.09-.07l-3.9-.08c-2.66-.05-5.33-.06-8,0l-3.35,0c.39-6-.5-12-1.25-17.89v0c-.23-2.86-.35-5.74-.5-8.6-.08-1.47-.14-2.94-.16-4.41s0-2.8-.11-4.2a26,26,0,0,1,.15-4.75c.08-.83.18-1.65.25-2.47v0c0-.18.06-.36.08-.55a11.62,11.62,0,0,0,.11-2.28.62.62,0,0,1,0-.13c.11-.45.24-.9.37-1.35s.31-.86.47-1.29c1.23-3.06,2.7-6,3.9-9.1,1.8-4.65,3.63-9.32,5.26-14,.43-.84.87-1.68,1.31-2.51.79-1.49,1.56-3,2.47-4.38.45-.69.9-1.38,1.37-2.06a6.06,6.06,0,0,0,1.2-2.1A.19.19,0,0,0,277,615a4.27,4.27,0,0,0-1.36,1.47c-.45.62-.88,1.26-1.32,1.89l-1.64,2.43c.51-1.63,1.13-3.22,1.77-4.8a39.1,39.1,0,0,1,2.33-5.05c.11-.18-.17-.35-.29-.17a34.4,34.4,0,0,0-2.25,4.24c-.64,1.46-1.2,3-1.82,4.43s-1.52,3.16-2.25,4.75c-.2.44-.39.88-.58,1.32-.83,1.41-1.59,2.86-2.3,4.32a86.83,86.83,0,0,0-6.34,16.94c-.14.57-.28,1.15-.4,1.74v-.05a15.61,15.61,0,0,0,.12-2.55c.07-1.16.13-2.32.17-3.48,0-.86.06-1.71.06-2.57a.71.71,0,0,0,.18-.28,19.27,19.27,0,0,0,.52-2.51c.16-.85.33-1.69.52-2.53.09-.41.19-.82.28-1.22.69-2.14,1.46-4.26,2.3-6.33a120.24,120.24,0,0,1,6.59-14c.71-1.26,1.44-2.5,2.2-3.73l.39-.63c1.51-2.18,3.09-4.32,4.7-6.43l3.6-4.77c.61-.81,1.24-1.62,1.85-2.44a19.49,19.49,0,0,0,1.66-2.38,29.27,29.27,0,0,1,5.7-.38c6,.11,11.62,3.71,15,8.51q.63.88,1.2,1.8a.19.19,0,0,0,.33-.19c-2.59-5.23-8.06-9-13.6-10.47a19.63,19.63,0,0,0-4.81-.83,13.6,13.6,0,0,0-2.63,0l.06-.06.06,0a.14.14,0,0,0,.09-.13,53.13,53.13,0,0,1,5.07-4.42,70.07,70.07,0,0,1,6-4.31l1.52-.89c.57-.32,1.09-.67,1.63-1a21.47,21.47,0,0,1,3.28-1.66,27.42,27.42,0,0,1,4.49-1.56c.71-.17,1.42-.35,2.14-.49a11.29,11.29,0,0,0,1.28-.19.21.21,0,0,0,.11-.07c.35-.08.71-.16,1.06-.27a.22.22,0,0,0,.12-.11h.55a16.07,16.07,0,0,1,3.15.6A.22.22,0,0,0,317.6,576Zm-62.53,55.53h.07c0,.11,0,.23.05.35Zm3.33,14.63c.28,1.41.63,2.81.94,4.21,0,1.25,0,2.5-.12,3.75a9.05,9.05,0,0,0-.5,1.38c0-.39,0-.79-.07-1.18-.1-1.3-.23-2.59-.34-3.89q-.35-3.87-.71-7.76l-.21-2.46C257.63,642.2,258,644.17,258.4,646.15Zm-23.92-56.1,0,.05c-.09-.24-.18-.47-.28-.7Zm24.28,87.42a6,6,0,0,0,.27.85,2.44,2.44,0,0,0,0,.27C258.94,678.22,258.84,677.85,258.76,677.47Z" transform="translate(-181.89 -239.81)"/><path class="cls-20" d="M333.19,397.55l2.71-1.07a.66.66,0,0,1,.88.81l-.8,2.8a.67.67,0,0,0,.12.6L338,403a.67.67,0,0,1-.5,1.09l-2.91.1a.66.66,0,0,0-.54.3l-1.57,2.46a.67.67,0,0,1-1.19-.13l-1-2.74a.69.69,0,0,0-.46-.42l-2.82-.73a.66.66,0,0,1-.24-1.17l2.29-1.8a.64.64,0,0,0,.26-.56l-.17-2.91a.66.66,0,0,1,1-.59l2.42,1.63A.68.68,0,0,0,333.19,397.55Z" transform="translate(-181.89 -239.81)"/><path class="cls-21" d="M296.06,471.47l1.53-.61a.38.38,0,0,1,.5.46l-.45,1.58a.37.37,0,0,0,.07.35l1,1.27a.37.37,0,0,1-.27.61l-1.65.06a.39.39,0,0,0-.3.17l-.89,1.39a.37.37,0,0,1-.67-.07l-.57-1.55a.38.38,0,0,0-.25-.24l-1.6-.41a.38.38,0,0,1-.14-.66l1.3-1a.37.37,0,0,0,.15-.31l-.1-1.65a.38.38,0,0,1,.59-.33l1.36.92A.39.39,0,0,0,296.06,471.47Z" transform="translate(-181.89 -239.81)"/><path class="cls-19" d="M340.67,473.51l-3.1,3.47c3.56,1.71,6,2.69,6.64,3a2.09,2.09,0,0,0,2.39-.53l.48-.54c-1.83-1.37-3.83-3-6-4.95C340.89,473.79,340.81,473.65,340.67,473.51Z" transform="translate(-181.89 -239.81)"/><path class="cls-19" d="M357.79,466.86l.65-.73a2.1,2.1,0,0,0,.24-2.45c-.62-1.05-1.52-2.71-3.73-6.2l-3.24,3.64c.15.13.31.19.46.33C354.38,463.42,356.21,465.21,357.79,466.86Z" transform="translate(-181.89 -239.81)"/><path class="cls-19" d="M349.39,464.57c-2.32-2.07-6.49-2.91-7.84-1.4h0c-1.43,1.59.17,5.75,2.28,7.63,7.05,6.28,11.95,9,14.82,10.21a2.09,2.09,0,0,0,2.62-2.95C359.79,475.42,356.52,470.92,349.39,464.57Z" transform="translate(-181.89 -239.81)"/><path class="cls-19" d="M335,480.36a112.62,112.62,0,0,1-13.68-7.88c-1,1.84-.06,7.65,5.25,12.38l6.24,5.57a2.1,2.1,0,0,0,3.38-2.22C335.15,485.07,334.63,482.28,335,480.36Z" transform="translate(-181.89 -239.81)"/><path class="cls-19" d="M367.61,451.17l-6.24-5.56c-4.84-4.31-10.78-4.78-12.59-3.63a118.36,118.36,0,0,1,9.33,12.7c1.63-.39,3.23-.29,7.92.13a2.09,2.09,0,0,0,1.58-3.64Z" transform="translate(-181.89 -239.81)"/><path class="cls-19" d="M326.05,441a6.27,6.27,0,1,0,.51,8.86A6.28,6.28,0,0,0,326.05,441Z" transform="translate(-181.89 -239.81)"/><path class="cls-19" d="M307.83,433.14a17.55,17.55,0,0,0,4.59-10.7,43.25,43.25,0,0,0-15.32-.69,2.09,2.09,0,0,0-1.82,2,41.36,41.36,0,0,0,2.66,15.14A17.59,17.59,0,0,0,307.83,433.14Z" transform="translate(-181.89 -239.81)"/><path class="cls-19" d="M338.09,470.08c-1.49-3.14-2-7,.3-9.65s6.27-2.47,9.56-1.34l4.6-5.13c-8-11.74-20.27-25.24-35.92-30.41a22.87,22.87,0,0,1-17,19.23c5.82,12.26,17.7,23.65,34,32.27Zm-8.41-17.47a10.45,10.45,0,1,1-.85-14.76A10.46,10.46,0,0,1,329.68,452.61Z" transform="translate(-181.89 -239.81)"/><circle class="cls-19" cx="239.7" cy="241.15" r="4"/><circle class="cls-19" cx="249.7" cy="241.15" r="4"/><circle class="cls-19" cx="259.7" cy="241.15" r="4"/><circle class="cls-22" cx="98.7" cy="181.15" r="2"/><polygon class="cls-19" points="572.88 299.17 552.84 294.25 569.53 269.37 528.74 303.75 548.78 308.66 532.09 333.55 572.88 299.17"/></g></g></svg>