<svg height="975" preserveAspectRatio="none" viewBox="0 0 640 975" width="640" xmlns="http://www.w3.org/2000/svg"><g fill="none" fill-rule="evenodd"><path d="m127.75 48.057c104 46 172-8.907 186 57.547 14 66.453 116 72.453 152 98.453s54 62 32 98-51.457 149.624 0 201.083c51.46 51.458 78.345 218.665-50 214.917-133.601-3.902-258 30-292 126s-120 110-120 110" stroke="#24ccfd"/><path d="m131.605 43.702c94.546 41.817 151.137 9.59 171.168 77.366.473 1.598.956 3.174 1.533 4.7 24.035 63.542 118.717 58.963 159.3 87.388 35.94 25.173 54.056 60.195 39.296 97.111-15.45 38.643-33.639 149.831 3.976 203.33 37.67 53.572 49.537 195.322-72.39 193.81-10.925-.136-21.572.787-31.975 1.945-112.882 12.563-207.389 58.294-244.19 143.325-3.148 7.271-6.527 14.077-10.379 20.28-45.55 73.327-115.43 82.745-115.43 82.745" stroke="#28c2fd"/><path d="m135.46 39.347c85.09 37.637 130.12 28.05 156.336 97.186.6 1.586 1.186 3.164 1.894 4.673 30.527 65.085 121.695 49.613 167.77 81.05 35.812 24.435 54.419 59.117 46.593 96.224-8.89 42.139-15.543 150.882 7.953 205.57 24.34 56.658 20.709 172.125-94.78 172.707-10.91.055-21.263 1.926-31.348 4.075-104.561 22.284-186.498 78.516-228.983 160.465-3.582 6.907-7.338 13.407-11.731 19.18-53.22 69.936-119.886 76.87-119.886 76.87" stroke="#2db7fd"/><path d="m139.314 34.992c75.637 33.455 108.96 46.514 141.504 117.005.726 1.575 1.422 3.152 2.257 4.647 37.19 66.61 124.634 40.306 176.24 74.711 35.636 23.76 55.407 58.593 53.888 95.335-1.916 46.312 2.153 153.053 11.93 207.817 10.884 60.972-8.136 149.066-117.172 151.6-10.893.252-20.906 3.011-30.72 6.205-95.939 31.22-165.499 98.736-213.776 177.605-4.005 6.544-8.168 12.731-13.08 18.08-61.112 66.516-124.343 70.995-124.343 70.995" stroke="#31adfd"/><path d="m143.169 30.638c66.182 29.272 87.666 65.01 126.67 136.824.85 1.564 1.662 3.14 2.62 4.62 44.007 68.078 127.539 31.05 184.71 68.374 35.43 23.13 57.09 58.3 61.185 94.446 5.753 50.792 18.78 155.992 15.906 210.06-3.52 66.163-36.992 126.155-139.561 130.495-10.881.46-20.525 4.028-30.094 8.336-87.217 39.266-144.394 118.977-198.568 194.744-4.421 6.183-9.015 12.048-14.431 16.979-69.203 63.004-128.8 65.122-128.8 65.122" stroke="#36a3fd"/><path d="m147.023 26.283c56.728 25.091 66.26 83.561 111.84 156.644.968 1.553 1.902 3.125 2.98 4.595 50.948 69.47 130.41 21.844 193.18 62.033 35.2 22.537 59.328 57.958 68.48 93.558 14.193 55.198 34.285 158.95 19.883 212.306-19.26 71.363-65.854 103.387-161.95 109.387-10.869.68-20.149 4.963-29.469 10.467-78.63 46.434-123.187 139.266-183.359 211.884-4.828 5.826-9.877 11.353-15.782 15.878-77.454 59.351-133.258 59.248-133.258 59.248" stroke="#3a99fd"/><path d="m150.878 21.928c47.272 20.909 44.76 102.18 97.007 176.464 1.086 1.545 2.146 3.109 3.343 4.569 57.988 70.775 133.245 12.694 201.65 55.695 34.95 21.97 61.916 57.406 75.776 92.668 23.293 59.263 49.116 161.406 23.86 214.55-36.06 75.88-94.716 80.769-184.341 88.283-10.858.91-19.812 5.816-28.841 12.596-70.393 52.86-101.892 159.624-168.152 229.025-5.228 5.474-10.746 10.645-17.133 14.778-85.82 55.528-137.715 53.372-137.715 53.372" stroke="#3f8efc"/><path d="m154.732 17.573c37.817 16.728 23.188 120.873 82.174 196.283 1.203 1.538 2.392 3.091 3.706 4.543 65.105 71.988 136.045 3.603 210.12 49.356 34.69 21.427 64.677 56.59 83.072 91.781 32.861 62.863 63.748 163.26 27.836 216.795-53.35 79.535-123.569 58.293-206.73 67.176-10.845 1.158-19.544 6.594-28.215 14.726-62.664 58.765-80.523 180.067-152.944 246.164-5.622 5.13-11.62 9.925-18.484 13.678-94.255 51.53-142.172 47.498-142.172 47.498" stroke="#4384fc"/><path d="m158.586 13.219c28.364 12.545 1.56 139.642 67.343 216.103 1.318 1.532 2.638 3.07 4.067 4.516 72.28 73.112 138.812-5.43 218.59 43.017 34.42 20.902 67.486 55.518 90.369 90.892 42.698 66.004 78.446 164.635 31.814 219.039-70.715 82.5-152.404 35.964-229.121 46.072-10.831 1.426-19.37 7.319-27.59 16.856-55.516 64.412-59.1 200.607-137.736 263.304-6.01 4.792-12.494 9.193-19.835 12.577-102.717 47.359-146.628 41.624-146.628 41.624" stroke="#487afc"/><path d="m162.44 8.864c18.91 8.363-20.11 158.483 52.511 235.922 1.433 1.528 2.885 3.05 4.43 4.491 79.495 74.15 141.541-14.397 227.06 36.678 34.142 20.39 70.271 54.235 97.664 90.003 52.651 68.748 93.305 165.69 35.79 221.284-87.947 85.011-181.206 13.775-251.512 24.965-10.809 1.72-19.296 8.016-26.962 18.987-48.949 70.045-37.64 221.247-122.528 280.443-6.398 4.462-13.368 8.452-21.185 11.477-111.176 43.033-151.086 35.75-151.086 35.75" stroke="#4c70fc"/><path d="m166.295 4.509c9.455 4.182-41.812 177.396 37.678 255.742a101.599 101.599 0 0 0 4.792 4.465c86.739 75.11 144.237-23.298 235.53 30.339 33.859 19.892 73 52.784 104.96 89.115 62.62 71.182 108.333 166.544 39.768 223.528-104.99 87.256-209.962-8.275-273.902 3.86-10.781 2.046-19.32 8.71-26.335 21.116-42.895 75.856-16.171 241.989-107.321 297.584-6.786 4.139-14.24 7.7-22.536 10.377-119.61 38.572-155.543 29.874-155.543 29.874" stroke="#5165fc"/><path d="m170.15.154s-66 204 28 280 146.894-32.13 244 24c100.124 57.875 276 226 156 314-144.553 106.004-282-82-322 6s12 290-116 324-160 24-160 24" stroke="#555bfc"/></g></svg>