<svg id="b0225cde-a2d2-4693-8ce5-502a1e8a6144" xmlns="http://www.w3.org/2000/svg" xmlns:xlink="http://www.w3.org/1999/xlink" viewBox="0 0 1077.38 752.86"><defs><style>.cls-1{fill:#5333ed;}.cls-2,.cls-5{fill:#6c63ff;}.cls-11,.cls-16,.cls-2,.cls-6{opacity:0.1;}.cls-16,.cls-2,.cls-6,.cls-9{isolation:isolate;}.cls-3,.cls-9{opacity:0.2;}.cls-4{fill:#3f3d56;}.cls-7{fill:#46455b;}.cls-8{fill:#a8a8a8;}.cls-10{fill:url(#linear-gradient);}.cls-12{fill:#fbbebe;}.cls-13{fill:url(#linear-gradient-2);}.cls-14{fill:#a0616a;}.cls-15{fill:#2f2e41;}.cls-16{fill:none;stroke:#6c63ff;stroke-miterlimit:10;stroke-width:3px;}</style><linearGradient id="linear-gradient" x1="411.99" y1="416.31" x2="411.99" y2="633.07" gradientTransform="matrix(1, 0, 0, -1, -30.47, 695.95)" gradientUnits="userSpaceOnUse"><stop offset="0" stop-color="gray" stop-opacity="0.25"/><stop offset="0.54" stop-color="gray" stop-opacity="0.12"/><stop offset="1" stop-color="gray" stop-opacity="0.1"/></linearGradient><linearGradient id="linear-gradient-2" x1="635.39" y1="375.59" x2="738.92" y2="375.59" gradientTransform="matrix(0.99, -0.1, -0.1, -0.99, 5.32, 772.66)" xlink:href="#linear-gradient"/></defs><title>T</title><path class="cls-1" d="M715.09,293.68H595.69v315h-114v-315H362.29v-105h352.8Z"/><path class="cls-2" d="M717.89,251.34A6.15,6.15,0,0,0,719,248c0-7.3-14.87-13.2-33.2-13.2s-33.2,5.9-33.2,13.2a6.21,6.21,0,0,0,1.36,3.74c-20.41,2.28-34.16,6.55-34.16,11.46,0,7.29,30.4,13.2,68,13.2s68-5.91,68-13.2C755.75,258,740.29,253.5,717.89,251.34Z"/><g class="cls-3"><path class="cls-4" d="M811.13,633.91a37.85,37.85,0,0,0-.34,6.29q20.91.34,42,1.41c.1-.54.2-1.11.28-1.68a33.49,33.49,0,0,0-2-17.38c-2.9-7.06-8.3-12.11-15.06-13.08s-13.35,2.36-18.11,8.28A33.44,33.44,0,0,0,811.13,633.91Z"/><ellipse class="cls-4" cx="836.96" cy="603.4" rx="27.73" ry="21.18" transform="translate(120.61 1346) rotate(-81.82)"/><ellipse class="cls-4" cx="841.78" cy="569.86" rx="27.73" ry="21.18" transform="translate(157.94 1322) rotate(-81.82)"/><ellipse class="cls-4" cx="846.6" cy="536.32" rx="27.73" ry="21.18" transform="translate(195.28 1297.99) rotate(-81.82)"/><ellipse class="cls-4" cx="851.42" cy="502.77" rx="27.73" ry="21.18" transform="translate(232.62 1273.99) rotate(-81.82)"/><path class="cls-5" d="M962.86,284.47a101.3,101.3,0,0,0,9.46-10.4l-53.79-16.93,59.52,9a101.65,101.65,0,0,0,13.35-79.33l-85.89,30L987,173.22a101.46,101.46,0,1,0-182,88.57,102.05,102.05,0,0,0-14.08,16.67l66.18,47.42-72.57-36.54A101.49,101.49,0,0,0,787.16,386,101.46,101.46,0,1,0,945,408.65a101.5,101.5,0,0,0,17.84-124.18Z"/><path class="cls-6" d="M774.59,320.79A101,101,0,0,0,787.15,386,101.46,101.46,0,1,0,945,408.65C960.93,393.5,776.2,309.51,774.59,320.79Z"/></g><g class="cls-3"><path class="cls-4" d="M216.23,604.26a33.47,33.47,0,0,0,1.4,5.31q17.06-5.49,34.45-10.4c-.06-.48-.13-1-.22-1.47a29.36,29.36,0,0,0-6.23-13.89c-4.23-5.06-10-7.77-15.7-6.7s-10.21,5.6-12.49,11.87A30,30,0,0,0,216.23,604.26Z"/><ellipse class="cls-4" cx="229.05" cy="571.78" rx="18.11" ry="24.23" transform="translate(-86.53 42.82) rotate(-8.99)"/><ellipse class="cls-4" cx="226.36" cy="543.18" rx="18.16" ry="24.3" transform="translate(-83.76 43.07) rotate(-9.18)"/><ellipse class="cls-4" cx="218.97" cy="513.42" rx="18.11" ry="24.23" transform="translate(-77.54 40.52) rotate(-8.99)"/><ellipse class="cls-4" cx="213.94" cy="484.24" rx="18.11" ry="24.23" transform="translate(-73.04 39.38) rotate(-8.99)"/><path class="cls-5" d="M246.12,272.31a89.86,89.86,0,0,0,4.91-11.2l-48.16.75,50.68-8.94a90.57,90.57,0,0,0,1.51-38,89.41,89.41,0,0,0-11.83-31.54L181.55,232,236,173.31c-19.26-23.35-49.84-35.8-81.39-30-47.16,8.66-78.58,54.8-70.25,103A88.57,88.57,0,0,0,112,297a90.59,90.59,0,0,0-7,17.72l66.34,21.13-68.65-10.33a90.37,90.37,0,0,0,.34,28.85A88.5,88.5,0,0,0,130.61,405a90.37,90.37,0,0,0-8.94,57.37C130,510.63,175,542.71,222.08,534S300.66,479.21,292.33,431a88.62,88.62,0,0,0-27.58-50.64A90.45,90.45,0,0,0,273.68,323,88.54,88.54,0,0,0,246.12,272.31Z"/><path class="cls-6" d="M103.05,354.37A88.62,88.62,0,0,0,130.63,405a90.37,90.37,0,0,0-8.93,57.37C130,510.63,175,542.71,222.11,534S300.68,479.21,292.35,431a88.62,88.62,0,0,0-27.58-50.64C273.64,363.35,101.35,344.57,103.05,354.37Z"/></g><path class="cls-7" d="M174.15,537.58c0,41.85,26.24,75.7,58.68,75.7"/><path class="cls-5" d="M232.83,613.28c0-42.31,29.3-76.55,65.51-76.55"/><path class="cls-5" d="M195.41,541.37c0,39.75,16.74,71.91,37.42,71.91"/><path class="cls-7" d="M232.83,613.28c0-54.06,33.87-97.81,75.72-97.81"/><ellipse class="cls-2" cx="505.35" cy="644.91" rx="408.8" ry="13.59"/><ellipse class="cls-2" cx="226.06" cy="621.5" rx="14.94" ry="2.53"/><path class="cls-8" d="M216,609.75s8.53-.25,11.09-2.08,13.11-4,13.75-1.08,12.8,14.59,3.2,14.66-22.35-1.5-24.92-3.06S216,609.75,216,609.75Z"/><path class="cls-9" d="M244.22,620.23c-9.6.08-22.36-1.5-24.92-3.06-2-1.18-2.74-5.46-3-7.42H216s.54,6.88,3.1,8.44,15.31,3.13,24.92,3c2.78,0,3.74-1,3.69-2.47C247.35,619.67,246.28,620.22,244.22,620.23Z"/><path class="cls-10" d="M432.35,261c-.8-4.57-.4-9.49-2.5-13.6a3,3,0,0,0-1-1.23,3.36,3.36,0,0,0-1.71-.39c-1.89-.07-3.78-.09-5.68-.05a1.56,1.56,0,0,0-1.42.55.46.46,0,0,0-.07.16c-2.17-2.4-3.81-5.43-6.15-7.67.34-.12.67-.22,1-.31a3.05,3.05,0,0,0-.13-.67,1.17,1.17,0,0,0-.05-.2c0-.06-.07-.3-.12-.46a2,2,0,0,0-.08-.22,3.52,3.52,0,0,0-.15-.42.58.58,0,0,0-.08-.22l-.17-.42-.1-.2c-.06-.15-.13-.29-.2-.43l-.09-.17-.24-.46-.08-.14c-.08-.16-.18-.32-.27-.49a.41.41,0,0,1-.05-.09c-.11-.18-.22-.37-.33-.54h0c-.91-1.49-1.92-3-2.67-4.48-1.3-2.69-1.73-5.72-2.6-8.59s-2.4-5.77-5-7.14c-1.25-.64-2.93-1.21-3.05-2.63a3,3,0,0,1,.28-1.32,17.47,17.47,0,0,1,1.3-2.64c.19-.31.39-.61.59-.92l.16-.21c.16-.23.33-.45.5-.66l.21-.26c.17-.21.34-.4.52-.6l.21-.23.76-.8a1.79,1.79,0,0,0,.56-.72,2,2,0,0,0,0-.84c-.12-2.29,1.08-4.43,2.4-6.27s2.9-3.58,3.66-5.73a6.61,6.61,0,0,0,.22-.76,1.05,1.05,0,0,0,.06-.24c0-.17.07-.34.1-.52l.05-.28a3.93,3.93,0,0,1,.06-.48v-1.87a2.42,2.42,0,0,0,0-.5v-.27a5.59,5.59,0,0,0-.08-.59v-.19c0-.26-.09-.53-.15-.8h0a39.9,39.9,0,0,0-1.47-5,18,18,0,0,0-1.21-2.91c.29-.06.6-.12.89-.2-.23-.37-.45-.75-.65-1.14a29.45,29.45,0,0,0,4.09-8.87,40.52,40.52,0,0,0,.8-6.85c.44-6.93.89-13.89.31-20.8v-.28a16.39,16.39,0,0,0,.05-4.48,18.69,18.69,0,0,0-2.51-8.26c-1.55-2.45-4.11-4.61-7-4.9a10.55,10.55,0,0,1-1.55,1.44,6.08,6.08,0,0,1-1.82-2.82,15.36,15.36,0,0,0,12.89-13.46c0-.24.06-.5.07-.75v-2.19a2.18,2.18,0,0,0-.05-.52.54.54,0,0,0,0-.18l-.07-.56V100a3.13,3.13,0,0,0-.1-.6v-.07c0-.21-.09-.42-.15-.64h0a15.2,15.2,0,0,0-1.68-4.14,15.54,15.54,0,0,0,1.21-4.45c0-.28.06-.55.07-.8a4.64,4.64,0,0,0,0-.53v-1a15.52,15.52,0,0,0-4.31-10.29,8.68,8.68,0,0,0,.76-1.6h0a5.08,5.08,0,0,0,.17-.51h0c.05-.17.1-.33.14-.5v0l.09-.46v-.08a5.42,5.42,0,0,1,.08-.54,5.29,5.29,0,0,1,.05-.56V71.81a9.46,9.46,0,0,0-18.86-.42,9.73,9.73,0,0,0,.08,2.9,15.5,15.5,0,0,0-8.58,12.07,16,16,0,0,0-.09,2.59,15.68,15.68,0,0,0-2.4,7.2h0v.29c0,.32,0,.65,0,1a15.56,15.56,0,0,0,6,12.3,11,11,0,0,0,3,3.2,11.45,11.45,0,0,1,.49,2,6.05,6.05,0,0,1-1.84,5c-.34.29-.73.53-1.09.8a2.09,2.09,0,0,0-1.11,0c-4.13,1.3-8.08,3.87-10,7.8a15.07,15.07,0,0,0-1,2.78l-.22.34a40.1,40.1,0,0,0-5.33,12.8,28.16,28.16,0,0,1-1.94,6.87,7.05,7.05,0,0,0-.63,1.4,14.07,14.07,0,0,0-.09,2.25c-.12,1.36-.91,2.56-1.17,3.9-.16.8-.13,1.6-.27,2.4a24.64,24.64,0,0,1-1.49,4c-.85,2.35-.84,4.94-1.47,7.36a2.63,2.63,0,0,1-.5,1.1,5.55,5.55,0,0,1-1.66.89,3.71,3.71,0,0,0-1.68,2.51,11.24,11.24,0,0,0-.05,3.12l.31,4.05-4.54,1.38-7.46,2.28a22.2,22.2,0,0,0-6.19,2.61,11.49,11.49,0,0,0-3.91,4.74,24,24,0,0,0-1.44,6.18A93.46,93.46,0,0,1,331,218.87c-.15.44-.31.88-.47,1.31h0l-.5,1.27-.11.26-.44,1c-.19.43-.39.86-.6,1.28l17.47,5.82a5.82,5.82,0,0,0,.07.68c.61,4.29.31,8.64.87,12.94a8.37,8.37,0,0,0,.49,2.09,3,3,0,0,0-.92,1.45,7.7,7.7,0,0,0-.09,2.79c.2,2.19.39,4.38.59,6.57a9.64,9.64,0,0,1,0,2.4,25,25,0,0,1-1.5,4.11c-.46,1.38-.43,3.16.71,4a2.84,2.84,0,0,0,2.75.25,6.36,6.36,0,0,0,2.28-1.76c3.52-3.9,5.09-9.17,7.82-13.68a24.89,24.89,0,0,0,1.87-3.25c.38-.87.62-1.8.92-2.71a28.54,28.54,0,0,1,1.51-3.51c.32-.65,1.6-2.21,1.31-2.93-.45-1.24-5.24-2.32-6.4-2.71a3.23,3.23,0,0,0-2.35-.1,1.26,1.26,0,0,0-.32.21l-.4-5.29c.71-.07,1.41-.15,2.11-.27,0-1,0-2-.07-3s0-1.84-.07-2.76c0-2.24-.09-4.48-.15-6.68a36.09,36.09,0,0,0-.25-3.88c-.27-2-.87-3.88-1.06-5.85a2.29,2.29,0,0,1,1-.45h0a6.9,6.9,0,0,1,1.7-.06h.44a14.51,14.51,0,0,0,7.07-2c2.2-1.14,4.24-2.57,6.4-3.75l.8-.42.3-.15.51-.26.43-.2.09-.05c1.28-.61,2.56-1.2,3.8-1.86a3.39,3.39,0,0,0,.27.39,2.56,2.56,0,0,0,2.66,1c-1.51,3.64-3.29,7.16-3.73,11.09-.66,5.69,1.6,11.2,3.84,16.5l7.12,16.8c.8,1.86,1.83,3.94,3.77,4.38a5.64,5.64,0,0,0,3.57-.72,66.72,66.72,0,0,0,9.17-5.85l.12.09c2.69,2.13,4.38,5.1,6.25,7.94l5,8.19a2.46,2.46,0,0,0,.2,1.2,7.08,7.08,0,0,0,1.4,1.82,23.52,23.52,0,0,1,6,12.28,7.67,7.67,0,0,0,1,3.34c1.34,1.86,4.19,1.74,6.19.68A3.88,3.88,0,0,0,433,277.6a5,5,0,0,0,.62-1.93,26.34,26.34,0,0,0,.6-5.16C434.14,267.37,432.93,264.24,432.35,261ZM403.74,110.28c.35-.23.68-.48,1-.74a15.64,15.64,0,0,1-3.2,5.49h0c-.34.36-.7.71-1.07,1v-.25c0-.8,0-1.69,0-2.54A10.62,10.62,0,0,0,403.74,110.28Zm-28.25,63.13.05-.15a3,3,0,0,1,.73.74,3,3,0,0,0,.11,2.71c.41.71,1.17,1.36,1,2.17s-1.19,1.13-2,1.27c-1.1.17-2.18.37-3.26.59v-.06a8,8,0,0,0-.36-2.66C373.62,177.22,374.77,175.31,375.49,173.41Z"/><path class="cls-7" d="M408.79,80.27a9.49,9.49,0,1,0-17.52-3.12,15.22,15.22,0,0,0-8.67,14.51A15.27,15.27,0,1,0,410.69,100v-.73a15.29,15.29,0,0,0-1.86-19Z"/><g class="cls-11"><path d="M391.16,74.75l.13-.08a3.85,3.85,0,0,1-.07-.49.17.17,0,0,0,0,.1A3.78,3.78,0,0,0,391.16,74.75Z"/><path d="M413,90.28a15.24,15.24,0,0,1-2.36,6.51v.72a15.26,15.26,0,0,1-30.47,1.23c0,.41-.06.8-.06,1.25a15.27,15.27,0,0,0,30.53,0v-.73A15.06,15.06,0,0,0,413,92.75a14.41,14.41,0,0,0,.06-3.08A2.53,2.53,0,0,1,413,90.28Z"/><path d="M410,74.17a9.57,9.57,0,0,1-1.25,3.63c.27.27.52.56.8.85a9.22,9.22,0,0,0,.49-2.09A9.11,9.11,0,0,0,410,74.17Z"/></g><path class="cls-12" d="M347.28,244a7,7,0,0,0,.7,2.5,2.74,2.74,0,0,0,2,1.48,4,4,0,0,0,2.23-.65,7.62,7.62,0,0,0,3.48-2.89,7.9,7.9,0,0,0,.47-4.36l-.91-11.64c-2.2-.07-4.4-.07-6.6.05s-2.56.63-2.26,2.76C347,235.51,346.69,239.8,347.28,244Z"/><path class="cls-12" d="M411.78,251.9l5.22,8.45a2.12,2.12,0,0,0,1.15,1.07,1.69,1.69,0,0,0,1.08-.19,13.51,13.51,0,0,0,4.36-3.62,8,8,0,0,0,2.1-3.2,4.08,4.08,0,0,0-1-3.85,11.94,11.94,0,0,0-2-1.42c-4.14-2.79-6-8.09-10.08-10.95a1.5,1.5,0,0,0-.8-.36,1.86,1.86,0,0,0-.85.28l-5.6,3.06c-2.4,1.32-1.65,1.48.19,2.9C408.23,246.17,409.89,249.1,411.78,251.9Z"/><path class="cls-7" d="M358.63,237.3a3.21,3.21,0,0,0-2.34-.08,2.55,2.55,0,0,0-1.22,1.93c-.15.8-.13,1.6-.35,2.34a7.92,7.92,0,0,1-2.28,3.2,3.35,3.35,0,0,1-1.43,1c-.76.19-1.56-.16-2.33,0a2.55,2.55,0,0,0-1.83,1.87,7.48,7.48,0,0,0-.09,2.75l.59,6.48a9.64,9.64,0,0,1,0,2.4,24,24,0,0,1-1.5,4c-.46,1.37-.44,3.12.71,4a2.86,2.86,0,0,0,2.76.24,6.32,6.32,0,0,0,2.28-1.72c3.52-3.84,5.1-9.05,7.83-13.48a26.28,26.28,0,0,0,1.88-3.2c.37-.87.61-1.78.92-2.67a25.88,25.88,0,0,1,1.51-3.46c.32-.64,1.6-2.18,1.31-2.89C364.63,238.75,359.82,237.67,358.63,237.3Z"/><path class="cls-7" d="M422.16,255.19a6.68,6.68,0,0,1-3.71,3.2,3.52,3.52,0,0,0-1.26.65,2,2,0,0,0-.22,2.14,6.81,6.81,0,0,0,1.41,1.79,23.13,23.13,0,0,1,6,12.1,7.43,7.43,0,0,0,1,3.31c1.33,1.83,4.19,1.71,6.21.66a4,4,0,0,0,1.55-1.25,4.82,4.82,0,0,0,.62-1.92,25.45,25.45,0,0,0,.6-5.08c0-3.2-1.25-6.31-1.82-9.48-.8-4.5-.42-9.36-2.51-13.42a2.93,2.93,0,0,0-.94-1.23,3.41,3.41,0,0,0-1.71-.39c-1.89-.07-3.79-.08-5.69,0a1.59,1.59,0,0,0-1.42.53,1.65,1.65,0,0,0,.2,1.55C421.63,250.6,423.54,252.42,422.16,255.19Z"/><path class="cls-7" d="M377.15,174.47a2.93,2.93,0,0,0-.68,3.7c.42.7,1.17,1.34,1,2.14s-1.18,1.11-2,1.24a163.82,163.82,0,0,0-21.6,5.47l-7.47,2.25a22.52,22.52,0,0,0-6.21,2.57,11.24,11.24,0,0,0-3.91,4.67,23.53,23.53,0,0,0-1.45,6.09c-1.12,7.64-2.55,15.35-6,22.27l18.1,5.95a26.82,26.82,0,0,0,5.43,1.36,19.94,19.94,0,0,0,5.29-.26c-.11-4-.18-8.21-.29-12.25a35,35,0,0,0-.25-3.83c-.27-1.93-.87-3.82-1.07-5.77.8-.69,2.06-.52,3.14-.49a14.82,14.82,0,0,0,7.09-1.91c2.19-1.14,4.24-2.55,6.4-3.71,3.64-1.93,7.78-3.2,10.57-6.26-1.42,5.4-4.8,10.1-5.42,15.65s1.6,11.08,3.86,16.25l7.13,16.55c.8,1.82,1.83,3.88,3.78,4.31a5.7,5.7,0,0,0,3.57-.71c6.56-3.07,11.81-8.85,18.82-10.69-.53-3.47-3.26-6.35-4.8-9.49-1.31-2.65-1.74-5.64-2.61-8.46s-2.4-5.7-5-7c-1.25-.64-2.94-1.2-3-2.6a2.8,2.8,0,0,1,.28-1.3,16.8,16.8,0,0,1,4.26-6.2,2,2,0,0,0,.56-.7,2.17,2.17,0,0,0,0-.8c-.13-2.26,1.07-4.36,2.4-6.18s2.91-3.54,3.67-5.66c1.3-3.65,0-7.67-1.28-11.32a11.39,11.39,0,0,0-2.15-4.16c-1.68-1.79-4.29-2.31-6.73-2.58C392.71,171.67,383.43,169.6,377.15,174.47Z"/><g class="cls-11"><path d="M407.11,190.48c-1.35,1.82-2.56,3.92-2.4,6.18a2.38,2.38,0,0,1,0,.8,2.12,2.12,0,0,1-.56.7,17,17,0,0,0-4.27,6.2,3,3,0,0,0-.28,1.31,2.51,2.51,0,0,0,1.6,1.87,17.06,17.06,0,0,1,3-3.6,1.94,1.94,0,0,0,.56-.71,2.15,2.15,0,0,0,0-.8c-.13-2.25,1.07-4.36,2.4-6.17s2.91-3.54,3.67-5.66a11.8,11.8,0,0,0,.19-6.4c-.05.21-.12.42-.19.63C410,187,408.46,188.67,407.11,190.48Z"/><path d="M376.33,175.57a1.5,1.5,0,0,0,1.14-1,.81.81,0,0,0,0-.31l-.34.24A2.89,2.89,0,0,0,376.33,175.57Z"/><path d="M352.39,226.4A26.18,26.18,0,0,1,347,225l-16-5.25a43.52,43.52,0,0,1-2.12,5.08L347,230.82a26.82,26.82,0,0,0,5.43,1.36,19.94,19.94,0,0,0,5.29-.26c-.05-1.89-.09-3.82-.14-5.75A19.75,19.75,0,0,1,352.39,226.4Z"/><path d="M396.22,244a5.72,5.72,0,0,1-3.58.7c-1.94-.43-3-2.49-3.77-4.31l-7.13-16.54A45.51,45.51,0,0,1,378,212.52c-.05.27-.09.55-.13.8-.64,5.6,1.6,11.08,3.87,16.26l7.13,16.54c.8,1.83,1.83,3.88,3.77,4.31a5.65,5.65,0,0,0,3.58-.7c6.56-3.07,11.81-8.86,18.81-10.7a13.44,13.44,0,0,0-2.15-5.06C406.91,236.31,402.09,241.22,396.22,244Z"/><path d="M383.29,191.92c-2.78,3-6.93,4.34-10.57,6.27-2.18,1.16-4.23,2.56-6.4,3.7a14.91,14.91,0,0,1-7.09,1.92c-1.08,0-2.29-.21-3.13.48.17,1.8.69,3.55,1,5.34a9,9,0,0,1,2.14,0,14.79,14.79,0,0,0,7.09-1.91c2.19-1.14,4.24-2.55,6.4-3.71,2.4-1.27,5-2.26,7.32-3.67A62.46,62.46,0,0,0,383.29,191.92Z"/></g><path class="cls-12" d="M389.64,117.22a5.91,5.91,0,0,1-1.84,4.89c-.44.37-1,.65-1.38,1a3.76,3.76,0,0,0,.06,5.31,3.64,3.64,0,0,0,.48.4c1.44.88,3.27.64,4.94.35a28.5,28.5,0,0,0,6.48-1.69,10.67,10.67,0,0,0,5.1-4.18,6.28,6.28,0,0,1-2.9-5.2c-.11-2.07.45-4.43-.86-6s-3.64-1.54-5.6-1c-1,.27-1.9.64-2.87.9-.5.13-2.11.14-2.4.5C388.29,113.15,389.59,116.17,389.64,117.22Z"/><path class="cls-6" d="M389.64,117.22a5.91,5.91,0,0,1-1.84,4.89c-.44.37-1,.65-1.38,1a3.76,3.76,0,0,0,.06,5.31,3.64,3.64,0,0,0,.48.4c1.44.88,3.27.64,4.94.35a28.5,28.5,0,0,0,6.48-1.69,10.67,10.67,0,0,0,5.1-4.18,6.28,6.28,0,0,1-2.9-5.2c-.11-2.07.45-4.43-.86-6s-3.64-1.54-5.6-1c-1,.27-1.9.64-2.87.9-.5.13-2.11.14-2.4.5C388.29,113.15,389.59,116.17,389.64,117.22Z"/><circle class="cls-12" cx="395.2" cy="106.38" r="10.73"/><path class="cls-12" d="M361.33,188.67a7.35,7.35,0,0,1-1,2.4,11.17,11.17,0,0,0-1.28,7.32,7.7,7.7,0,0,0,4.51,5.69,3.09,3.09,0,0,0,3.08-.19c-1.44-1.86-1.52-4.41-1.43-6.76a2.33,2.33,0,0,1,.3-1.26.8.8,0,0,1,1.11-.21h0a10.16,10.16,0,0,0,.84,4.32c.23.52.61,1.09,1.19,1.08.8,0,1-1.13,1-1.95-.12-3.33-.29-6.79-1.89-9.7a11.69,11.69,0,0,1-1.6-3.27,1.93,1.93,0,0,0-.42-1.15,1.44,1.44,0,0,0-.6-.28c-.92-.26-3.11-1.07-3.87-.21S361.47,187.56,361.33,188.67Z"/><path class="cls-5" d="M377.26,131.68c-1.23-.14-2.2,1-2.87,2A39,39,0,0,0,369,146.36c-.52,2.3-.84,4.68-1.93,6.77a6.92,6.92,0,0,0-.64,1.38,14.94,14.94,0,0,0-.09,2.22c-.11,1.34-.91,2.53-1.17,3.85-.16.8-.13,1.6-.27,2.4a23.46,23.46,0,0,1-1.49,3.93c-.86,2.32-.85,4.86-1.48,7.25a2.51,2.51,0,0,1-.5,1.07c-.42.48-1.11.59-1.66.89a3.65,3.65,0,0,0-1.68,2.47,10.6,10.6,0,0,0-.06,3.08l.5,6.34c.5-.22.8-.8,1.26-1.14a3.57,3.57,0,0,1,2.91-.32l1.45.26c1.48.26,3.08.61,4,1.78.75-1.19.32-2.92,1.48-3.71.37-.25.84-.33,1.24-.56a2.78,2.78,0,0,0,1.26-2.22,8.36,8.36,0,0,0-.36-2.63c1.86-.8,3-2.67,3.74-4.55a38.18,38.18,0,0,0,1.72-7c1.68-9.43,3.2-18.92,3.36-28.5a13.56,13.56,0,0,0-.52-4.74C379.62,133.15,378.85,131.86,377.26,131.68Z"/><path class="cls-6" d="M377.26,131.68c-1.23-.14-2.2,1-2.87,2A39,39,0,0,0,369,146.36c-.52,2.3-.84,4.68-1.93,6.77a6.92,6.92,0,0,0-.64,1.38,14.94,14.94,0,0,0-.09,2.22c-.11,1.34-.91,2.53-1.17,3.85-.16.8-.13,1.6-.27,2.4a23.46,23.46,0,0,1-1.49,3.93c-.86,2.32-.85,4.86-1.48,7.25a2.51,2.51,0,0,1-.5,1.07c-.42.48-1.11.59-1.66.89a3.65,3.65,0,0,0-1.68,2.47,10.6,10.6,0,0,0-.06,3.08l.5,6.34c.5-.22.8-.8,1.26-1.14a3.57,3.57,0,0,1,2.91-.32l1.45.26c1.48.26,3.08.61,4,1.78.75-1.19.32-2.92,1.48-3.71.37-.25.84-.33,1.24-.56a2.78,2.78,0,0,0,1.26-2.22,8.36,8.36,0,0,0-.36-2.63c1.86-.8,3-2.67,3.74-4.55a38.18,38.18,0,0,0,1.72-7c1.68-9.43,3.2-18.92,3.36-28.5a13.56,13.56,0,0,0-.52-4.74C379.62,133.15,378.85,131.86,377.26,131.68Z"/><path class="cls-5" d="M404.29,121.41a13.49,13.49,0,0,1-6.52,3.79,39.41,39.41,0,0,1-7.56,1.11,4.77,4.77,0,0,1-2.34-.2,1.59,1.59,0,0,1-1-1.91,2.46,2.46,0,0,0,.28-.74c0-.66-1-.71-1.6-.52-4.13,1.28-8.09,3.81-10,7.69a23,23,0,0,0-1.77,7.07c-.9,6.4-1.79,12.85-.59,19.2.64,3.37,1.88,6.64,1.95,10.06.05,1.92-.28,3.83-.27,5.75a2.91,2.91,0,0,0,.52,1.9c.29.34.74.56.95,1,.34.67-.12,1.6.33,2.21.57.76,1.74.21,2.52-.32a19.93,19.93,0,0,1,13.27-3.33c5.6.6,11.2,3.6,16.65,2.09a7.74,7.74,0,0,1-.72-1.29C405.71,166,405.9,156,410,147.62c1.38-2.87,3.2-5.6,3.76-8.75a16.93,16.93,0,0,0,.06-4.44,18.55,18.55,0,0,0-2.52-8.16C409.72,123.82,407.15,121.7,404.29,121.41Z"/><path class="cls-12" d="M378.35,191.43a9.71,9.71,0,0,0-.62,3.65,21.19,21.19,0,0,0,.18,3.56,5.66,5.66,0,0,0,1,2.8,2.55,2.55,0,0,0,2.68.95,2.8,2.8,0,0,0,1.6-1.79,16.91,16.91,0,0,0,.51-2.45c.46-2.4,1.74-4.72,1.77-7.2a2.13,2.13,0,0,0-.14-.86,4.88,4.88,0,0,0-3.86-2C380.14,188.31,378.86,190.25,378.35,191.43Z"/><path class="cls-6" d="M409.3,130.47c-.21,2.13,1.85,3.74,2.67,5.72a9.68,9.68,0,0,1,.56,2.88,136.25,136.25,0,0,1-.32,20.5,37.47,37.47,0,0,1-.8,6.76c-1.15,4.66-4,8.71-6.76,12.63a7.78,7.78,0,0,1-4.14,3.38L391,187a18.65,18.65,0,0,0-3.38,2,9.14,9.14,0,0,0-2.8,3.65c-1.85-1-3.77-1.8-5.6-2.74-.43-.22-.92-.51-1-1-.1-.64.57-1.1,1-1.6a9.5,9.5,0,0,0,1.6-3.25c1.53-3.68,5.38-6,6.77-9.76.54-1.43.7-3.06,1.65-4.26a10.7,10.7,0,0,1,1.82-1.6,30,30,0,0,0,4-4.12,7.06,7.06,0,0,0,1.32-1.92,9.63,9.63,0,0,0,.31-3.38c.07-3.73,1.76-7.2,2.79-10.78,1-3.37,1.38-6.91,2.65-10.18S405.89,131.35,409.3,130.47Z"/><path class="cls-5" d="M410.54,130.47c-.21,2.13,1.85,3.74,2.66,5.72a9.39,9.39,0,0,1,.57,2.88,137.58,137.58,0,0,1-.32,20.5,38.45,38.45,0,0,1-.84,6.76c-1.15,4.66-4,8.71-6.76,12.63a7.78,7.78,0,0,1-4.14,3.38L392.19,187a19,19,0,0,0-3.39,2,9.4,9.4,0,0,0-2.8,3.65c-1.85-1-3.76-1.8-5.6-2.74-.43-.22-.92-.51-1-1-.1-.64.57-1.1,1-1.6A9.15,9.15,0,0,0,382,184c1.53-3.68,5.39-6,6.78-9.76.53-1.43.69-3.06,1.65-4.26a9.88,9.88,0,0,1,1.81-1.6,30,30,0,0,0,4-4.12,6.85,6.85,0,0,0,1.32-1.92,9.63,9.63,0,0,0,.31-3.38c.08-3.73,1.76-7.2,2.79-10.78,1-3.37,1.37-6.91,2.65-10.18S407.15,131.35,410.54,130.47Z"/><path class="cls-7" d="M400.51,89.79a15.25,15.25,0,0,0-9.52,2,5.53,5.53,0,0,1,1.28.1,15.26,15.26,0,0,1,5.86,28.33,15.26,15.26,0,0,0,2.4-30.4Z"/><path class="cls-7" d="M405.21,98.28a7,7,0,0,1,.12,5.35,5.12,5.12,0,0,0-.25-.65c-1.89-4.2-7.69-5.94-13-3.88a10.64,10.64,0,0,0-6.27,6c-1.34-4.06,1.39-8.72,6.4-10.67C397.51,92.35,403.32,94.08,405.21,98.28Z"/><g class="cls-11"><path d="M405.24,103.3A15.26,15.26,0,0,0,395,90.13a15.55,15.55,0,0,0-4.05,1.6,5.53,5.53,0,0,1,1.28.1A15.24,15.24,0,0,1,405.24,103.3Z"/><path d="M407.71,92.15A15.28,15.28,0,0,0,397.51,79a15.45,15.45,0,0,0-4,1.64,5.62,5.62,0,0,1,1.28.1A15.24,15.24,0,0,1,407.71,92.15Z"/><path d="M407.78,75.52a9.2,9.2,0,0,0-6.15-7.9,9.31,9.31,0,0,0-2.45,1,3.25,3.25,0,0,1,.8.07A9.21,9.21,0,0,1,407.78,75.52Z"/><path d="M413.49,101.22a15.29,15.29,0,0,1-11.82,16.13,15.14,15.14,0,0,1-3.54,2.84,15.26,15.26,0,0,0,15.81-14.69A15.43,15.43,0,0,0,413.49,101.22Z"/></g><path class="cls-13" d="M684.74,180a5.87,5.87,0,0,0-7-.34c-1.6,1.18-2.3,3.15-3,5-1,2.74-2.52,5.4-2.77,8.31-.71,8-6.32,14.73-8,22.57-.62,2.8-.74,5.74-1.9,8.36a24.23,24.23,0,0,1-1.92,3.3,88,88,0,0,0-7.2,13.94c-1.39.43-2.53,1.76-3.65,2.83a13.6,13.6,0,0,1-5,3,5,5,0,0,0-2.07,1c-.8.85-.8,2.22-1.46,3.2a4.69,4.69,0,0,1-1.83,1.5c0-.23-.08-.46-.11-.69-.17-1.22-.3-2.45-.43-3.67a13.85,13.85,0,0,0-1.89-17.88,26.79,26.79,0,0,1,.17-5.73,2.51,2.51,0,0,0-.8-2.54,11.16,11.16,0,0,0-1.29-.51,5.28,5.28,0,0,1-1.5-1.55,7.21,7.21,0,0,0-9.19-1.36c-2.24,1.5-3.42,4.15-5.33,6.07-1,1-2.17,1.76-3.15,2.74a14.2,14.2,0,0,0-3.67,7.62,41.74,41.74,0,0,0-.34,8.58,7.67,7.67,0,0,0,.37,2.56,6.76,6.76,0,0,0,1.16,1.86,22.36,22.36,0,0,0,9,6.95c0,.17,0,.34,0,.51a3.13,3.13,0,0,1-.07.8l-.39-.06c-1.44-.18-3,0-4.3-.56-2.28-1-3.2-3.88-5.44-5a3.32,3.32,0,0,0-.59-.24A37,37,0,0,0,608,239.83a13.23,13.23,0,0,1-1.8-5.08,12.82,12.82,0,0,1,1.11-4.87,126,126,0,0,0,4.27-16.8l2.19-10.7a15.84,15.84,0,0,0,2.61-3,14.92,14.92,0,0,0,2.61-7.54,10.27,10.27,0,0,0-2.64-7.42,4.37,4.37,0,0,0-3.29-1.6,4,4,0,0,0-2.75,1.6,13.2,13.2,0,0,0-2.08,4.54c-.8,2.66-1.6,5.43-1.24,8.18.33,2.28,1.44,4.75.3,6.75-3.74,6.55-6.33,13.92-9.1,20.95a34.92,34.92,0,0,0-1.75,5.2,27.48,27.48,0,0,0-.28,8.68,115.59,115.59,0,0,0,3.12,16.08,20.94,20.94,0,0,0,2.65,6.91,29.93,29.93,0,0,0-.35,8.13,4.55,4.55,0,0,0,.48,1.8,7.73,7.73,0,0,0,1.65,1.68,8.24,8.24,0,0,1,2.61,6.28,18.73,18.73,0,0,0,1.26,6.4c1.91,5.7,3.83,11.4,5.5,17.19a11.05,11.05,0,0,1,.6,3.32c0,1.6-.76,3.2-.41,4.8a15.54,15.54,0,0,1,.65,2.21,5.49,5.49,0,0,1-.22,1.72c-1,4.52-4,14.95-3.53,19.56l1-.36c-.44,6.12-2.32,12.1-3,18.21a59.87,59.87,0,0,0,.14,13.38,46.1,46.1,0,0,1,.51,6c0,1.8-.28,3.58-.36,5.37a49.53,49.53,0,0,0,.43,7.2,74.51,74.51,0,0,0,1.78,11.11c1.67,6.21.55,12.67.73,19.1a114.21,114.21,0,0,1-.14,13.47c-.16,1.89-.43,3.78-.48,5.69-.17,5.64,1.5,11.27.91,16.88-.28,2.64-.95,5.6.7,7.68.53.64,1.24,1.11,1.8,1.72a2.4,2.4,0,0,1,.7,2.28c-.22.64-.8,1.1-.94,1.76-.15,1,1,1.76,2,2.1l.28.08a2.43,2.43,0,0,0,.71,1.89,4.27,4.27,0,0,0,2.13.85l12.8,2.48c2.86.55,6,1.07,8.64.1a2.35,2.35,0,0,0,.6,1,4.26,4.26,0,0,0,2.13.84l12.8,2.48c3.27.64,6.85,1.22,9.76-.4a5.4,5.4,0,0,0,2.06-1.91,5.92,5.92,0,0,0,.28-5,4.06,4.06,0,0,0-1.43-2.07,5.29,5.29,0,0,0-3-.64,6,6,0,0,1-2.58-.39,1.88,1.88,0,0,1-.64-.55c.64-.8,1.26-1.6,1.84-2.4-.55-.12-.8-.88-.93-1.44-1.65-8.31.66-16.8,1-25.28a53.86,53.86,0,0,0-1-12.67c-.31-1.6-.68-3.12-.91-4.7-1.17-8.27,2-16.66,1-24.95-.47-3.87,1.19-7.92,1.78-11.77a42.14,42.14,0,0,0-.15-10.4l-2.65-27.2c-.36-3.67-.73-7.43-2.3-10.78a14.24,14.24,0,0,1-1.09-5.91c3.2-1.83,6.15-4.35,9.76-4.36.7-2.64-1.3-11-2.47-13.43a58.56,58.56,0,0,1-5.21-31.16c.43-3.83-1.1-7.7-.59-11.52a7,7,0,0,1,.74-2.57,2.65,2.65,0,0,1,2.12-1.42c-.22-2.29-.52-4.6-.91-6.9a16.67,16.67,0,0,0,3.2-4.6c1.67-3.48,2.4-7.32,3.37-11.05,1.76-6.57,4.45-12.84,6.58-19.29s1.71-13.26,3.24-19.88a14.58,14.58,0,0,1,6.24-8.88c1.21-.8,2.6-1.41,3.44-2.6a6,6,0,0,0,1-3.27A8.4,8.4,0,0,0,684.74,180Zm-48.9,279.91c.24-.33.48-.66.69-1-.85-.05-1.92-.55-2-1.4a9,9,0,0,1,.28-2.52,9.92,9.92,0,0,0-.27-4.4c-.29-1-.73-1.95-1-2.94a32.15,32.15,0,0,1-.75-3.37,57,57,0,0,0-3.64-11.83c-1.6-3.69-.36-7.71-.34-11.74,0-1.89-.29-3.83.19-5.67.28-1.09.8-2.09,1.1-3.2.65-2.53-.17-5.2-1-7.69,3.16-7.47,3.59-16,4.23-24.12q.56-6.83,1.09-13.6a13,13,0,0,1,1.41-5.86,69.59,69.59,0,0,1,3.35,17.85,27.65,27.65,0,0,0,.61,5.21c.5,1.9,1.49,3.62,2.14,5.46,1.46,4.05,1.31,8.47,2,12.72.27,1.72.67,3.42.92,5.14,1.11,7.59-.68,15.28-2.45,22.74-1.09,4.58-.91,9.64-1.16,14.34-.23,4.5-.47,9-.36,13.52,0,1.37.09,2.78.07,4.18a9.5,9.5,0,0,0-1.31-.07,6,6,0,0,1-2.58-.39A3.06,3.06,0,0,1,635.84,459.87Z"/><path class="cls-4" d="M663.75,466.11a5.38,5.38,0,0,1,3,.63,4.1,4.1,0,0,1,1.43,2.06,5.89,5.89,0,0,1-.29,5,5.53,5.53,0,0,1-2.06,1.9c-2.91,1.6-6.49,1-9.76.4l-12.8-2.45a4.3,4.3,0,0,1-2.13-.8,2.77,2.77,0,0,1-.38-3.2,6.15,6.15,0,0,1,2.4-2.4c3.68-2.29,8-3.2,12.23-3.69,1.6-.19,3.09-.7,4.29.41.64.58.61,1.31,1.51,1.78A6,6,0,0,0,663.75,466.11Z"/><path class="cls-4" d="M639.56,461.71a5.38,5.38,0,0,1,3,.63A4.1,4.1,0,0,1,644,464.4a5.85,5.85,0,0,1-.28,5,5.53,5.53,0,0,1-2.06,1.9c-2.91,1.6-6.5,1-9.77.4l-12.8-2.46a4.21,4.21,0,0,1-2.13-.8,2.77,2.77,0,0,1-.39-3.2,6.32,6.32,0,0,1,2.44-2.4c3.67-2.28,8-3.16,12.23-3.68,1.6-.2,3.09-.7,4.29.4.63.58.61,1.31,1.5,1.78A6,6,0,0,0,639.56,461.71Z"/><path class="cls-7" d="M636.41,325.71a154.24,154.24,0,0,0-22.1,1.68,4.46,4.46,0,0,0-1.4.37c-1.55.8-1.6,3-1.56,4.72.1,7.1-2.32,14-3.12,21a59.06,59.06,0,0,0,.13,13.29,49.41,49.41,0,0,1,.52,6c0,1.77-.3,3.54-.37,5.33a48.43,48.43,0,0,0,.41,7.12,73.62,73.62,0,0,0,1.79,11c1.65,6.16.53,12.59.71,19a114.85,114.85,0,0,1-.15,13.38c-.17,1.89-.43,3.76-.49,5.65-.17,5.6,1.5,11.2.9,16.8-.28,2.61-1,5.6.7,7.62.53.64,1.24,1.1,1.79,1.72a2.41,2.41,0,0,1,.71,2.26c-.23.63-.84,1.09-.94,1.75-.16,1,1,1.75,2,2.08A18.29,18.29,0,0,0,636.55,459c-.85-.05-1.92-.54-2-1.38a9.21,9.21,0,0,1,.28-2.51,9.64,9.64,0,0,0-.26-4.37c-.29-1-.74-1.94-1-2.92a29.43,29.43,0,0,1-.74-3.35,57,57,0,0,0-3.63-11.76c-1.6-3.66-.36-7.66-.34-11.64,0-1.89-.28-3.82.19-5.64.28-1.09.8-2.09,1.11-3.2.65-2.52-.17-5.16-1-7.64,3.2-7.42,3.6-15.93,4.25-24l1.09-13.6a12.94,12.94,0,0,1,1.41-5.81A68.69,68.69,0,0,1,639.2,379a26.73,26.73,0,0,0,.6,5.19c.51,1.87,1.48,3.58,2.15,5.41,1.45,4,1.29,8.41,1.95,12.64.26,1.71.66,3.39.91,5.1,1.11,7.54-.69,15.2-2.47,22.6-1.09,4.54-.92,9.6-1.17,14.25-.24,4.47-.48,8.94-.37,13.42.1,4.12.42,8.55-1.8,12,2.48,1.27,5,2.55,7.81,2.79a13.77,13.77,0,0,0,9-2.72,29.15,29.15,0,0,0,6.58-6.9c-.56-.13-.8-.89-.94-1.44-1.64-8.25.68-16.72,1-25.12a53.62,53.62,0,0,0-1-12.58c-.32-1.6-.7-3.11-.92-4.68-1.16-8.2,2-16.55,1-24.8-.47-3.85,1.2-7.87,1.79-11.71a41.71,41.71,0,0,0-.14-10.29l-2.64-27c-.35-3.65-.72-7.39-2.29-10.71-1.87-4-.71-8.93-.91-13.33A55,55,0,0,1,636.41,325.71Z"/><path class="cls-14" d="M651.87,245.75a85.68,85.68,0,0,1,8.43-17,26.39,26.39,0,0,0,1.92-3.29c1.17-2.59,1.29-5.52,1.9-8.31,1.72-7.79,7.34-14.48,8.06-22.4.26-2.88,1.81-5.53,2.78-8.26.64-1.85,1.38-3.8,2.95-5a5.92,5.92,0,0,1,7,.34,8.27,8.27,0,0,1,2.84,6.73,5.88,5.88,0,0,1-1,3.25,11.64,11.64,0,0,1-3.44,2.58,14.56,14.56,0,0,0-6.25,8.8c-1.53,6.58-1.12,13.34-3.25,19.75s-4.8,12.65-6.59,19.2c-1,3.71-1.71,7.52-3.38,11s-4.51,6.57-8.25,7.46a22.3,22.3,0,0,0-1.82-6.89C652.71,251.23,650.92,248.31,651.87,245.75Z"/><path class="cls-14" d="M611.62,254.87a36.47,36.47,0,0,0-3.55-13.46,12.88,12.88,0,0,1-1.79-5,12.63,12.63,0,0,1,1.11-4.84,125.1,125.1,0,0,0,4.28-16.73l2.21-10.64a16.66,16.66,0,0,0,2.6-3,14.66,14.66,0,0,0,2.61-7.5,10.14,10.14,0,0,0-2.63-7.38,4.43,4.43,0,0,0-3.29-1.55,4,4,0,0,0-2.75,1.6,13,13,0,0,0-2,4.48c-.8,2.64-1.6,5.39-1.25,8.12.32,2.27,1.44,4.72.3,6.71-3.75,6.52-6.34,13.83-9.12,20.8a36,36,0,0,0-1.74,5.16,27.25,27.25,0,0,0-.3,8.64,112.79,112.79,0,0,0,3.12,16c.8,3.3,1.8,6.88,4.57,8.86A53,53,0,0,1,611.62,254.87Z"/><circle class="cls-14" cx="627.23" cy="242.06" r="13.74"/><path class="cls-14" d="M622.1,257.12c-.08,2.51-1.17,4.85-2.24,7.12-.65,1.37-1.5,2.9-3,3.2a66.61,66.61,0,0,0,12.91,3.71,14.28,14.28,0,0,0,4.61.26,11,11,0,0,0,3.67-1.36,18.81,18.81,0,0,0,9.33-13.6,24.92,24.92,0,0,1-5.11.14,3.75,3.75,0,0,1-2.61-1,4,4,0,0,1-.74-2.15c-.3-2.27-.55-4.54-.73-6.83a27.16,27.16,0,0,0-9.8,2.25c-1.28.56-2.53,1.21-3.85,1.69-.8.29-3.11.34-3.67.86C620,252.27,622.15,255.39,622.1,257.12Z"/><path class="cls-15" d="M629,264.8a8.65,8.65,0,0,0-7.31-6.95c-1.44-.17-3,0-4.3-.54-2.28-1-3.24-3.85-5.45-5s-5.07-.08-6.7,1.81-2.32,4.45-2.82,6.85a33.07,33.07,0,0,0-.74,10.16,4.52,4.52,0,0,0,.49,1.8,7.68,7.68,0,0,0,1.64,1.68,8.08,8.08,0,0,1,2.61,6.22,18.22,18.22,0,0,0,1.25,6.4c1.91,5.66,3.83,11.34,5.5,17.08a11.17,11.17,0,0,1,.59,3.3c0,1.6-.8,3.2-.41,4.76a18.52,18.52,0,0,1,.65,2.2,5.51,5.51,0,0,1-.23,1.71c-1,4.49-4,14.85-3.53,19.43,6.82-2.51,17.12-4,24.35-4.8a52.18,52.18,0,0,1,6-.35c4.8,0,9.83.9,14.31-.86,4.16-1.6,7.6-5.45,12.07-5.47.69-2.62-1.31-10.89-2.47-13.34a57.78,57.78,0,0,1-5.18-31c.42-3.81-1.1-7.65-.58-11.45a6.91,6.91,0,0,1,.72-2.55,2.69,2.69,0,0,1,2.14-1.41A84,84,0,0,0,658.1,247c-.65-2-1.82-4.38-3.94-4.52-1.92-.12-3.34,1.6-4.72,3a13.7,13.7,0,0,1-5,3,4.89,4.89,0,0,0-2.08,1c-.8.84-.8,2.21-1.47,3.2-1.15,1.77-4.09,1.94-4.8,3.93a11.7,11.7,0,0,0-.31,1.77,6.36,6.36,0,0,1-1.89,3A12.18,12.18,0,0,1,629,264.8Z"/><path class="cls-7" d="M636.82,226.39a2.47,2.47,0,0,0-.8-2.52,9.79,9.79,0,0,0-1.3-.52,5.16,5.16,0,0,1-1.49-1.56,7.21,7.21,0,0,0-9.18-1.34c-2.25,1.49-3.42,4.13-5.34,6-1,1-2.16,1.76-3.15,2.74a14.11,14.11,0,0,0-3.68,7.57,41.23,41.23,0,0,0-.34,8.53,7.56,7.56,0,0,0,.37,2.54,6.84,6.84,0,0,0,1.17,1.84,21.8,21.8,0,0,0,9.44,7.09,13.35,13.35,0,0,0,11.52-1,2.05,2.05,0,0,0,.8-.8,2.5,2.5,0,0,0,0-1.53,10.44,10.44,0,0,1,.55-6,37.16,37.16,0,0,0,1.77-4,13.35,13.35,0,0,0,.13-4.8C636.9,234.59,636.19,230.48,636.82,226.39Z"/><path class="cls-7" d="M733.35,520.42c0,78.7,49.37,142.4,110.4,142.4"/><path class="cls-5" d="M843.75,662.82c0-79.6,55.09-144,123.2-144"/><path class="cls-5" d="M773.35,527.51c0,74.76,31.48,135.27,70.4,135.27"/><path class="cls-7" d="M843.75,662.82c0-101.71,63.68-184,142.4-184"/><ellipse class="cls-2" cx="838.95" cy="685.34" rx="27.45" ry="4.64"/><path class="cls-8" d="M820.51,663.78s15.66-.48,20.38-3.84,24.09-7.38,25.26-2,23.52,26.8,5.85,26.95-41.07-2.75-45.78-5.6S820.51,663.78,820.51,663.78Z"/><path class="cls-9" d="M872.29,683c-17.67.14-41.07-2.75-45.78-5.6-3.59-2.19-5-10-5.49-13.65h-.53s1,12.62,5.7,15.5S854.3,685,872,684.87c5.09,0,6.86-1.86,6.77-4.55C878.06,682,876.11,683,872.29,683Z"/><path class="cls-2" d="M735.49,92.14a6.15,6.15,0,0,0,1.1-3.36c0-7.3-14.87-13.2-33.2-13.2s-33.2,5.9-33.2,13.2a6.17,6.17,0,0,0,1.3,3.74c-20.42,2.28-34.17,6.55-34.17,11.46,0,7.29,30.4,13.2,68,13.2s68-5.91,68-13.2C773.35,98.82,757.89,94.3,735.49,92.14Z"/><path class="cls-2" d="M328.29,106.54a6.15,6.15,0,0,0,1.1-3.36c0-7.3-14.87-13.2-33.2-13.2s-33.2,5.9-33.2,13.2a6.21,6.21,0,0,0,1.36,3.74c-20.41,2.28-34.16,6.55-34.16,11.46,0,7.29,30.44,13.2,68,13.2s68-5.91,68-13.2C366.15,113.22,350.69,108.7,328.29,106.54Z"/><path class="cls-16" d="M561.68,95.45c1.87-1.08,4.39,0,5.67,1.7s1.6,4,2,6.09c.71,4.74,1.23,10.17-2,13.73a44.62,44.62,0,0,1,36.8-29.7"/><path class="cls-16" d="M294.86,176.23c1.2-.69,2.81,0,3.64,1.09a8.55,8.55,0,0,1,1.26,3.92c.46,3,.8,6.54-1.25,8.8A28.65,28.65,0,0,1,322.15,171"/><path class="cls-16" d="M654.86,200.23c1.2-.69,2.81,0,3.64,1.09a8.55,8.55,0,0,1,1.26,3.92c.46,3,.8,6.54-1.25,8.8A28.65,28.65,0,0,1,682.15,195"/><path class="cls-2" d="M625.35,469.22V449.78l9,9,2.24-2.32-12.8-12.8L611,456.42l2.24,2.23,9-8.87v19.44Z"/><path class="cls-2" d="M431.75,533.22V513.78l9,9,2.24-2.32-12.8-12.8-12.8,12.8,2.24,2.23,9-8.87v19.44Z"/><path class="cls-2" d="M574.15,590V570.58l9,9,2.24-2.32-12.8-12.8-12.8,12.8,2.24,2.23,9-8.87V590Z"/></svg>