<svg xmlns="http://www.w3.org/2000/svg" viewBox="0 0 80 80"><path fill="none" d="M0 0h80v80H0z"/><path fill="#393161" d="M20 30h40v25c0 1.7-1.3 3-3 3H23c-1.7 0-3-1.4-3-3V30zm0-4c0-1.7 1.3-3 3-3h34c1.7 0 3 1.3 3 3v3H20v-3zm3-1v2h6v-2h-6z"/><path fill="#FFF" d="M29.6 39.4c0 .4-.1.8-.2 1.1-.2.3-.4.6-.6.8-.3.2-.6.4-.9.5-.4.1-.7.2-1.2.2h-.5c-.2 0-.4 0-.5-.1-.2 0-.4-.1-.7-.2-.3-.1-.5-.2-.9-.3l.5-1.8c.4.1.8.2 1 .3.3.1.5.1.6.2.2 0 .3.1.4.1h.3c.2 0 .3 0 .4-.1.1-.1.2-.2.2-.4s0-.3-.1-.3-.3-.4-.4-.4l-1.2-.4-.6-.3c-.2-.1-.4-.3-.5-.4-.2-.2-.3-.4-.4-.6-.1-.2-.1-.5-.1-.8 0-.4.1-.7.2-1 .1-.3.4-.6.6-.8.3-.2.6-.4.9-.5.4-.1.7-.2 1.1-.2h.4c.1 0 .3 0 .5.1s.4.1.6.1c.2 0 .5.1.8.2l-.4 1.8c-.4-.1-.6-.2-.9-.2-.2 0-.4-.1-.6-.1-.2 0-.3 0-.4-.1h-.3c-.2 0-.3 0-.4.1s-.2.2-.2.4c0 .1 0 .2.1.3.1.1.2.1.4.2l1.2.4.6.3c.2.1.4.3.5.4s.3.4.4.6c.2.3.3.6.3.9zm6.2 0c0 .4-.1.8-.2 1.1-.2.3-.4.6-.6.8s-.6.4-.9.5c-.4.1-.7.2-1.2.2h-.5c-.2 0-.4 0-.5-.1-.2 0-.4-.1-.7-.2s-.5-.2-.9-.3l.5-1.8c.4.1.8.2 1 .3.3.1.5.1.6.2.2 0 .3.1.4.1h.3c.2 0 .3 0 .4-.1.1-.1.2-.2.2-.4s0-.3-.1-.3c-.1-.1-.2-.1-.4-.2l-1.2-.6-.6-.3c-.2-.1-.4-.3-.5-.4-.2-.2-.3-.4-.4-.6s-.1-.5-.1-.8c0-.4.1-.7.2-1 .1-.3.4-.6.6-.8.3-.2.6-.4.9-.5.4-.1.7-.2 1.1-.2h.4c.1 0 .3 0 .5.1s.4.1.6.1c.2 0 .5.1.8.2l-.4 1.8c-.3-.1-.6-.1-.8-.2-.2 0-.4-.1-.6-.1s-.3 0-.4-.1H33c-.2 0-.3 0-.4.1-.1.1-.2.2-.2.4 0 .1 0 .2.1.3.1.1.2.1.4.2l1.2.4.6.3c.2.1.4.3.5.4s.3.4.4.6c.2.3.2.6.2.9zm5 2.4v-3H39v3h-2.2v-7.7H39v2.8h1.8v-2.8H43v7.7h-2.2z"/></svg>