<svg id="b0225cde-a2d2-4693-8ce5-502a1e8a6144" xmlns="http://www.w3.org/2000/svg" viewBox="0 0 1077.38 752.86"><defs><style>.cls-1,.cls-2{fill:#5333ed;}.cls-2,.cls-3,.cls-5{opacity:0.1;}.cls-2,.cls-5{isolation:isolate;}.cls-4{fill:#3f3d56;}.cls-6{fill:#192534;}.cls-7{fill:#fbbebe;}.cls-8{fill:#f2f2f2;}.cls-9{fill:#01e7c0;}.cls-10{fill:#464a5f;}.cls-11{fill:#9c9ca1;}.cls-12{fill:#939498;}</style></defs><title>U</title><path class="cls-1" d="M724.69,411.23c0,114.3-65.4,179.1-186,179.1s-186-64.8-186-179.1V162.53H467v245.4c0,48.3,27.6,73.2,71.7,73.2s71.7-24.9,71.7-73.2V162.53h114.3Z"/><path class="cls-2" d="M881.47,643.1l-83-143.72a2.66,2.66,0,0,0-3.61-1,2.56,2.56,0,0,0-1,1l-83,143.72a2.64,2.64,0,0,0,.9,3.63,2.6,2.6,0,0,0,1.38.37H738a2.65,2.65,0,0,1,2.64,2.65v30.68a2.65,2.65,0,0,0,2.64,2.65h32.27a2.65,2.65,0,0,0,2.65-2.65V665.6a2.64,2.64,0,0,1,2.64-2.64h30.71a2.65,2.65,0,0,1,2.65,2.64v14.83a2.65,2.65,0,0,0,2.64,2.65h32.31a2.65,2.65,0,0,0,2.65-2.65V649.72a2.65,2.65,0,0,1,2.64-2.65h24.75a2.65,2.65,0,0,0,2.3-4ZM765.78,659a2.67,2.67,0,0,1-1.87.8H752.26a2.65,2.65,0,0,1,0-5.3h11.65a2.64,2.64,0,0,1,1.87,4.52ZM842,659a2.69,2.69,0,0,1-1.88.8H828.5a2.65,2.65,0,1,1,0-5.3h11.64a2.65,2.65,0,0,1,2.64,2.65A2.68,2.68,0,0,1,842,659Z"/><path class="cls-2" d="M368.6,644.37l-83-143.72a2.64,2.64,0,0,0-4.58,0L209.37,624.78a218.66,218.66,0,0,0,30,31H251a2.65,2.65,0,0,1,0,5.3h-4.93A128.44,128.44,0,0,0,265.31,673v-6.12a2.65,2.65,0,0,1,2.65-2.65h30.77a2.65,2.65,0,0,1,2.64,2.65v14.82a2.53,2.53,0,0,0,.25,1.11,2.64,2.64,0,0,0,2.4,1.53h32.29a2.6,2.6,0,0,0,2.11-1.06,2.57,2.57,0,0,0,.53-1.6V651a2.65,2.65,0,0,1,2.65-2.65h24.75a2.65,2.65,0,0,0,2.61-2.69A2.63,2.63,0,0,0,368.6,644.37Zm-54.85,12.16a2.6,2.6,0,0,1,1.87-.8h11.65a2.65,2.65,0,1,1,0,5.29H315.62a2.65,2.65,0,0,1-1.87-4.52Zm-52.12-53.19a2.65,2.65,0,0,1-2.65-2.65V580.58a2.65,2.65,0,0,1,2.65-2.65H305a2.65,2.65,0,0,1,2.64,2.65v20.11a2.65,2.65,0,0,1-2.64,2.65Z"/><path class="cls-2" d="M699.86,387.35H597.2V365.14a5.31,5.31,0,0,0-5.31-5.31H561.71V336.17a3.33,3.33,0,0,0-3.34-3.34H519.53a3.33,3.33,0,0,0-3.34,3.34v23.66H480.74a5.31,5.31,0,0,0-5.31,5.31h0v22.21H377.51a1.07,1.07,0,0,0-1.07,1.08V683.24a1.07,1.07,0,0,0,1.07,1.08h65.08a1.08,1.08,0,0,0,1.08-1.08V643.58a1.08,1.08,0,0,1,1.08-1.08h27.48a1.08,1.08,0,0,1,1.08,1.08v39.66a1.08,1.08,0,0,0,1.08,1.08H603a1.09,1.09,0,0,0,1.08-1.08V643.58a1.08,1.08,0,0,1,1.07-1.08h27.49a1.08,1.08,0,0,1,1.08,1.08v39.66a1.08,1.08,0,0,0,1.08,1.08h65.07a1.09,1.09,0,0,0,1.08-1.08V388.43A1.09,1.09,0,0,0,699.86,387.35ZM432,628.72a1.07,1.07,0,0,1-1.07,1.07h-40.2a1.07,1.07,0,0,1-1.08-1.06h0V615a1.09,1.09,0,0,1,1.08-1.08H431A1.09,1.09,0,0,1,432,615Zm0-35.47a1.07,1.07,0,0,1-1.07,1.08h-40.2a1.07,1.07,0,0,1-1.08-1.06V579.53a1.09,1.09,0,0,1,1.07-1.08H431a1.07,1.07,0,0,1,1.07,1.07h0Zm0-35.46a1.09,1.09,0,0,1-1.07,1.08h-40.2a1.09,1.09,0,0,1-1.08-1.08V544.06a1.08,1.08,0,0,1,1.08-1.08H431a1.08,1.08,0,0,1,1.07,1.08Zm0-35.48a1.07,1.07,0,0,1-1.07,1.08h-40.2a1.07,1.07,0,0,1-1.08-1.06V508.59a1.09,1.09,0,0,1,1.07-1.08H431a1.07,1.07,0,0,1,1.07,1.08h0Zm0-35.46a1.08,1.08,0,0,1-1.07,1.08h-40.2a1.08,1.08,0,0,1-1.08-1.08V473.12a1.07,1.07,0,0,1,1.08-1.07H431a1.07,1.07,0,0,1,1.07,1.07h0Zm0-35.46a1.07,1.07,0,0,1-1.07,1.07h-40.2a1.08,1.08,0,0,1-1.08-1.07h0V437.66a1.08,1.08,0,0,1,1.08-1.08H431a1.08,1.08,0,0,1,1.07,1.08Zm0-35.48A1.07,1.07,0,0,1,431,417h-40.2a1.07,1.07,0,0,1-1.08-1.06V402.19a1.09,1.09,0,0,1,1.07-1.08H431a1.07,1.07,0,0,1,1.07,1.08h0Zm95.29,212.8a1.08,1.08,0,0,1-1.08,1.08H486a1.09,1.09,0,0,1-1.08-1.08V615a1.1,1.1,0,0,1,1.08-1.08h40.19a1.08,1.08,0,0,1,1.08,1.08Zm0-35.47a1.07,1.07,0,0,1-1.07,1.08H486a1.08,1.08,0,0,1-1.08-1.08V579.53a1.08,1.08,0,0,1,1.08-1.08h40.19a1.06,1.06,0,0,1,1.08,1.06v0Zm0-35.46a1.08,1.08,0,0,1-1.08,1.08H486a1.1,1.1,0,0,1-1.08-1.08V544.06A1.09,1.09,0,0,1,486,543h40.19a1.08,1.08,0,0,1,1.08,1.08Zm0-35.47a1.08,1.08,0,0,1-1.07,1.08H486a1.09,1.09,0,0,1-1.08-1.08V508.59a1.09,1.09,0,0,1,1.08-1.08h40.19a1.07,1.07,0,0,1,1.08,1.07h0Zm0-35.47a1.08,1.08,0,0,1-1.08,1.08H486a1.09,1.09,0,0,1-1.08-1.08V473.12a1.09,1.09,0,0,1,1.08-1.07h40.19a1.06,1.06,0,0,1,1.08,1.06h0Zm0-35.46a1.07,1.07,0,0,1-1.08,1.07H486a1.09,1.09,0,0,1-1.08-1.07V437.66a1.09,1.09,0,0,1,1.08-1.08h40.19a1.08,1.08,0,0,1,1.08,1.08Zm0-35.47a1.08,1.08,0,0,1-1.07,1.08H486a1.09,1.09,0,0,1-1.08-1.08V402.19a1.09,1.09,0,0,1,1.08-1.08h40.19a1.07,1.07,0,0,1,1.08,1.07h0Zm65.11,212.8a1.07,1.07,0,0,1-1.07,1.07h-40.2a1.07,1.07,0,0,1-1.08-1.07V615a1.09,1.09,0,0,1,1.08-1.08h40.19a1.08,1.08,0,0,1,1.08,1.08Zm0-35.48a1.07,1.07,0,0,1-1.07,1.08h-40.2a1.08,1.08,0,0,1-1.08-1.08v-13.7a1.08,1.08,0,0,1,1.08-1.08h40.19a1.08,1.08,0,0,1,1.08,1.06v13.72Zm0-35.46a1.08,1.08,0,0,1-1.08,1.08H551.15a1.08,1.08,0,0,1-1.08-1.08V544.06a1.08,1.08,0,0,1,1.08-1.08h40.19a1.08,1.08,0,0,1,1.08,1.08Zm0-35.47a1.08,1.08,0,0,1-1.07,1.08h-40.2a1.08,1.08,0,0,1-1.08-1.08V508.59a1.08,1.08,0,0,1,1.08-1.08h40.19a1.09,1.09,0,0,1,1.08,1.07h0Zm0-35.47a1.08,1.08,0,0,1-1.08,1.08H551.15a1.08,1.08,0,0,1-1.08-1.08V473.12a1.07,1.07,0,0,1,1.08-1.07h40.19a1.08,1.08,0,0,1,1.08,1.06h0Zm0-35.46a1.07,1.07,0,0,1-1.07,1.07h-40.2a1.07,1.07,0,0,1-1.08-1.07V437.66a1.08,1.08,0,0,1,1.08-1.08h40.19a1.08,1.08,0,0,1,1.08,1.08Zm0-35.47a1.08,1.08,0,0,1-1.06,1.08H551.15a1.08,1.08,0,0,1-1.08-1.08V402.19a1.08,1.08,0,0,1,1.08-1.08h40.19a1.09,1.09,0,0,1,1.08,1.07h0Zm95.29,212.8a1.09,1.09,0,0,1-1.08,1.07h-40.2a1.08,1.08,0,0,1-1.08-1.06h0V615a1.09,1.09,0,0,1,1.08-1.08h40.2a1.1,1.1,0,0,1,1.08,1.08Zm0-35.47a1.09,1.09,0,0,1-1.08,1.08h-40.2a1.09,1.09,0,0,1-1.08-1.07h0v-13.7a1.09,1.09,0,0,1,1.07-1.08h40.21a1.08,1.08,0,0,1,1.08,1.08Zm0-35.47a1.09,1.09,0,0,1-1.08,1.08h-40.2a1.08,1.08,0,0,1-1.08-1.08v-13.7a1.08,1.08,0,0,1,1.08-1.08h40.2a1.09,1.09,0,0,1,1.08,1.08Zm0-35.47a1.08,1.08,0,0,1-1.08,1.08h-40.2a1.08,1.08,0,0,1-1.08-1.06V508.59a1.09,1.09,0,0,1,1.07-1.08h40.21a1.09,1.09,0,0,1,1.08,1.08Zm0-35.46a1.1,1.1,0,0,1-1.08,1.08h-40.2a1.09,1.09,0,0,1-1.08-1.08V473.12a1.07,1.07,0,0,1,1.08-1.07h40.2a1.09,1.09,0,0,1,1.08,1.07Zm0-35.47a1.08,1.08,0,0,1-1.08,1.07h-40.2a1.07,1.07,0,0,1-1.08-1.06h0v-13.7a1.08,1.08,0,0,1,1.08-1.08h40.2a1.09,1.09,0,0,1,1.08,1.08Zm0-35.47a1.08,1.08,0,0,1-1.08,1.08h-40.2a1.08,1.08,0,0,1-1.08-1.06V402.19a1.09,1.09,0,0,1,1.07-1.08h40.21a1.09,1.09,0,0,1,1.08,1.08Z"/><g class="cls-3"><path class="cls-4" d="M205.24,584.21a19.62,19.62,0,0,1-2.58,9.9,20.3,20.3,0,0,1,0,19.81,18.41,18.41,0,0,1,2,4.8,361.53,361.53,0,0,1-24.07-36h0a19.18,19.18,0,0,1,2.52-8.45,19.6,19.6,0,0,1-2.58-9.84,20.2,20.2,0,0,1,1.17-6.89,16.52,16.52,0,0,1,1.41-3c2.26-3.84,5.81-6.31,9.8-6.31s7.54,2.47,9.8,6.31a18.13,18.13,0,0,1,1.38,2.92,20.49,20.49,0,0,1,1.2,7,19.62,19.62,0,0,1-2.58,9.9A19.68,19.68,0,0,1,205.24,584.21Z"/><ellipse class="cls-4" cx="192.86" cy="544.59" rx="12.38" ry="16.21"/><ellipse class="cls-4" cx="192.86" cy="524.78" rx="12.38" ry="16.21"/><path class="cls-1" d="M251.9,425.89a59,59,0,0,1-12.7,36.67A59.3,59.3,0,0,1,204,557.41c-1.42.29-2.87.52-4.34.69a59.48,59.48,0,0,1-13.6.07c-1.5-.16-3-.38-4.45-.66a58.44,58.44,0,0,1-18.4-6.73,588.87,588.87,0,0,1-27.93-67.06,59,59,0,0,1,10.63-21.16,59.37,59.37,0,0,1-9.56-55.69l45,15.11-42.23-21.93A59.42,59.42,0,0,1,146,389.23a59.3,59.3,0,1,1,93.21-73.34,57.88,57.88,0,0,1,4.74,7l-43.53,32,47.2-24.48a59.34,59.34,0,0,1-1.14,47l-35.2-.26,32.53,5.34a59.15,59.15,0,0,1-4.61,6.79A59.09,59.09,0,0,1,251.9,425.89Z"/><path class="cls-5" d="M251.9,499.22A59.32,59.32,0,0,1,204,557.41c-1.42.29-2.87.52-4.34.69a59.48,59.48,0,0,1-13.6.07c-1.5-.16-3-.38-4.45-.66a58.44,58.44,0,0,1-18.4-6.73,588.87,588.87,0,0,1-27.93-67.06A59,59,0,0,1,146,462.56a59.06,59.06,0,0,1-12.69-36.67c0-6.65,113.86,26.58,105.91,36.67A59.07,59.07,0,0,1,251.9,499.22Z"/></g><g class="cls-3"><path class="cls-4" d="M919.28,568.78c-2.32,7.41-4.8,14.76-7.35,22a20.67,20.67,0,0,1-1-6.57C910.88,577,914.4,570.94,919.28,568.78Z"/><path class="cls-1" d="M944.16,441.13c0,14-2.83,36.22-8,61.6a679.4,679.4,0,0,1-16.92,66c-2.32,7.41-4.8,14.76-7.35,22-2.92,8.15-6,16.08-9.22,23.68a59.52,59.52,0,0,1-26.33-92.61,59.6,59.6,0,0,1-9.6-55.82l45,15.15-42.23-22a60.13,60.13,0,0,1,6.76-10.84,59.52,59.52,0,0,1,23.3-91.39,102.1,102.1,0,0,1,39,51.14l-7.88,5.8,8.37-4.34A102,102,0,0,1,944,436.17h-2.35l2.4.39C944.13,438,944.16,439.63,944.16,441.13Z"/><path class="cls-5" d="M936.2,502.73a679.4,679.4,0,0,1-16.92,66c-2.32,7.41-4.8,14.76-7.35,22-2.92,8.15-6,16.08-9.22,23.68a59.52,59.52,0,0,1-26.33-92.61,59.3,59.3,0,0,1-12.69-36.75C863.7,481,905.07,491.53,936.2,502.73Z"/></g><path class="cls-2" d="M392.12,167.08a23.19,23.19,0,0,0-13.39,1.46,19.75,19.75,0,0,1-16.11,0,22.65,22.65,0,0,0-18.95.37,11.77,11.77,0,0,1-5.45,1.37c-7.69,0-14.08-7.74-15.4-17.95a14.82,14.82,0,0,0,3.83-4.14c4.51-7.26,11.48-11.91,19.32-11.91s14.72,4.6,19.2,11.78a14.81,14.81,0,0,0,12.76,7h.2C384.25,155,389.54,159.93,392.12,167.08Z"/><path class="cls-2" d="M415.53,135l-12.42,7.88,7.53-13.69a12.36,12.36,0,0,0-7.51-2.68h-.2a14.79,14.79,0,0,1-2.58-.18L396.14,129l1.81-3.28a14.94,14.94,0,0,1-7.36-5.6l-7.54,4.8,4.77-8.65c-4.41-5.29-10.35-8.53-16.88-8.53-7.83,0-14.81,4.66-19.31,11.92a14.42,14.42,0,0,1-12.8,6.88h-.42c-8.65,0-15.66,9.8-15.66,21.89s7,21.9,15.66,21.9a11.76,11.76,0,0,0,5.45-1.36,22.58,22.58,0,0,1,18.95-.38,19.75,19.75,0,0,0,16.11,0,22.67,22.67,0,0,1,18.78.36,11.82,11.82,0,0,0,5.4,1.34c8.64,0,15.65-9.8,15.65-21.9A27.87,27.87,0,0,0,415.53,135Z"/><path class="cls-2" d="M748.12,297.86a16.17,16.17,0,0,0-9.39,1,13.85,13.85,0,0,1-11.28,0,15.86,15.86,0,0,0-13.27.25,8,8,0,0,1-3.81,1c-5.38,0-9.85-5.42-10.78-12.57a10.3,10.3,0,0,0,2.69-2.89c3.15-5.08,8-8.34,13.51-8.34s10.31,3.2,13.47,8.24a10.35,10.35,0,0,0,8.92,4.91h.15C742.61,289.43,746.31,292.86,748.12,297.86Z"/><path class="cls-2" d="M764.5,275.44,755.81,281l5.27-9.6a8.52,8.52,0,0,0-5.26-1.88h-.13a8.31,8.31,0,0,1-1.8-.14l-2.95,1.88,1.26-2.3a10.49,10.49,0,0,1-5.15-3.91l-5.27,3.34,3.32-6a15.42,15.42,0,0,0-11.8-6c-5.48,0-10.4,3.25-13.52,8.33a10.12,10.12,0,0,1-8.94,4.8h-.3c-6,0-11,6.87-11,15.33s4.92,15.33,11,15.33a8.11,8.11,0,0,0,3.82-1,15.87,15.87,0,0,1,13.26-.26,13.8,13.8,0,0,0,11.28,0,15.82,15.82,0,0,1,13.14.25,8,8,0,0,0,3.78.94c6,0,11-6.86,11-15.33A19.61,19.61,0,0,0,764.5,275.44Z"/><path class="cls-2" d="M286.26,261.86a16.17,16.17,0,0,1,9.39,1,13.83,13.83,0,0,0,11.27,0,15.84,15.84,0,0,1,13.26.25,8.23,8.23,0,0,0,3.82,1c5.37,0,9.85-5.42,10.78-12.57a10.12,10.12,0,0,1-2.68-2.89c-3.16-5.08-8-8.34-13.52-8.34s-10.31,3.2-13.46,8.24a10.38,10.38,0,0,1-8.94,4.91h-.13C291.77,253.43,288.06,256.86,286.26,261.86Z"/><path class="cls-2" d="M269.87,239.44l8.7,5.51-5.28-9.6a8.51,8.51,0,0,1,5.25-1.88h.19a8.41,8.41,0,0,0,1.8-.14l2.94,1.88-1.26-2.3a10.56,10.56,0,0,0,5.16-3.91l5.27,3.34-3.34-6.05a15.45,15.45,0,0,1,11.82-6c5.48,0,10.36,3.25,13.52,8.33a10.1,10.1,0,0,0,8.94,4.8h.28c6.06,0,11,6.87,11,15.33s-4.9,15.33-11,15.33a8,8,0,0,1-3.81-1,15.9,15.9,0,0,0-13.27-.26,13.76,13.76,0,0,1-11.26,0,15.85,15.85,0,0,0-13.15.25,8,8,0,0,1-3.78.94c-6,0-11-6.86-11-15.33A19.6,19.6,0,0,1,269.87,239.44Z"/><ellipse class="cls-6" cx="525.14" cy="324.7" rx="38.11" ry="52.94"/><rect class="cls-1" x="520.9" y="411.52" width="33.88" height="33.88"/><path class="cls-7" d="M495,574.76l11.13,15.65a20.29,20.29,0,0,1,8-16.21,98.67,98.67,0,0,0-15.75-12.63,1.27,1.27,0,0,0-.91-.31,1.29,1.29,0,0,0-.68.51c-1.66,2-3.76,4.55-4.47,7.06C491.7,571.17,493.66,572.9,495,574.76Z"/><path class="cls-8" d="M517.15,572.62a9.85,9.85,0,0,1,4.8,1.66,24.42,24.42,0,0,1,5.53,3.62,8.39,8.39,0,0,1,2.83,5.8,14.59,14.59,0,0,1-1.37,5.14,44.34,44.34,0,0,0-2.07,24.32c.52,2.66,1.29,5.44.47,8-.75,2.35-2.68,4.1-4.58,5.67-3,2.51-6.35,4.95-10.25,5.48s-8.4-1.6-9.26-5.39c-.51-2.26.29-4.57.85-6.81,1.34-5.35,1.31-10.93,1.27-16.45a23.25,23.25,0,0,0-.42-5,34.27,34.27,0,0,0-1.09-3.39c-1-3-1.44-6.4-.29-9.4a18.49,18.49,0,0,1,2.6-4.27C508.89,578,511.82,572.6,517.15,572.62Z"/><path class="cls-7" d="M511.11,338.14c.1,2,.17,4.08-.75,5.84a11.29,11.29,0,0,1-3.7,3.67l-4.75,3.43a1.06,1.06,0,0,0-.53.67,1,1,0,0,0,.52.8,15.61,15.61,0,0,0,6.58,3,30.21,30.21,0,0,0,5.11.43c8.9.27,17.95.47,26.53-1.87a13.69,13.69,0,0,0,4.38-1.86,5.63,5.63,0,0,0,2.47-3.93c-2.19-.12-4.13-1.41-5.94-2.65s-3.65-2.59-4.23-4.65c-.36-1.29-.15-2.68-.45-4-.49-2.13-2.27-3.72-4.17-4.8-4.92-2.79-10.72-3-16.07-4.41-1.92-.52-5.35-2.83-5.48.29C510.5,331.4,511,334.84,511.11,338.14Z"/><path class="cls-5" d="M511.11,338.14c.1,2,.17,4.08-.75,5.84a11.29,11.29,0,0,1-3.7,3.67l-4.75,3.43a1.06,1.06,0,0,0-.53.67,1,1,0,0,0,.52.8,15.61,15.61,0,0,0,6.58,3,30.21,30.21,0,0,0,5.11.43c8.9.27,17.95.47,26.53-1.87a13.69,13.69,0,0,0,4.38-1.86,5.63,5.63,0,0,0,2.47-3.93c-2.19-.12-4.13-1.41-5.94-2.65s-3.65-2.59-4.23-4.65c-.36-1.29-.15-2.68-.45-4-.49-2.13-2.27-3.72-4.17-4.8-4.92-2.79-10.72-3-16.07-4.41-1.92-.52-5.35-2.83-5.48.29C510.5,331.4,511,334.84,511.11,338.14Z"/><path class="cls-9" d="M502.46,449.34c-6.92-1.7-14.19.8-20.45,4.13S470,461.18,463.3,463.7c-5.34,2-11.28,2.92-15.77,6.44-4,3.2-6.31,8.06-7.8,13a20.62,20.62,0,0,0-1.11,8.56,23.25,23.25,0,0,0,2.11,6.4c4.64,10.28,10.49,19.93,16.34,29.6,10.48,17.29,21.06,34.71,34.64,49.69,4.34-3,3.91-10.14,8.21-13.17,1.08-.8,2.4-1.2,3.3-2.15,2-2.1,1.24-5.54.28-8.3a416,416,0,0,0-21.12-50.15c11.68.08,21.48-9.05,33-11.1a61,61,0,0,1,9.64-.64,328.42,328.42,0,0,0,34.05-2.4c4.1-.51,8.44-1.21,11.52-4s4.34-7.33,5.31-11.51c2-8.71,7.12-16.36,10.26-24.74.8-2.16,1.6-4.33,2.58-6.4.87-1.77,1.89-3.47,2.8-5.22,2.88-5.6,4.52-11.74,5.92-17.87,1.68-7.36,3.2-14.88,4.75-22.28,1-5.08,3.06-10.6.65-15.2-1.37-2.6-4-4.35-6.63-5.6a16.27,16.27,0,0,0-9.14-1.66c-6.11,1-10.23,6.57-13.67,11.7l-5.36,8.08a55.76,55.76,0,0,0-3.53,5.78c-2,3.95-3.11,8.29-4.66,12.44-4.17,11.15-12,21.22-22.64,26.54-2.83,1.41-5.82,2.48-8.67,3.84-2.23,1.08-4.38,2.33-6.63,3.36C515.82,449.57,509,450.94,502.46,449.34Z"/><circle class="cls-7" cx="529.38" cy="318.35" r="21.18"/><path class="cls-1" d="M538.61,342.42a21.91,21.91,0,0,1-3.53,6.84c-3,3.49-7.91,4.73-12.53,4.92a37,37,0,0,1-15-2.56c-2.05-.8-4.13-1.82-6.32-1.6-3.16.28-5.5,2.94-8.29,4.47a43.47,43.47,0,0,1-4.38,1.89,24.35,24.35,0,0,0-14,17.71c-1.6,9,5.66,17.6,10.06,25.65,1.93,3.53,4.18,7,5.25,10.83,1.8,6.51.07,13.45-2.21,19.81S482.45,443,482,449.76c-.15,2,.54,4.64,2.52,4.62a4.54,4.54,0,0,0,2-.8,18,18,0,0,1,11.69-2.16c2.81.46,5.48,1.6,8.29,2,5.52.8,11-1.14,16.25-3.06,5-1.83,10.17-3.8,13.72-7.75,2.66-3,4.19-6.83,6.93-9.72,3.6-3.8,9-5.67,12-9.95,1.77-2.52,2.49-5.6,3.51-8.49s2.56-5.86,5.26-7.32c-1.44-2.53-3.06-5.24-2.88-8.15.15-2.54,1.56-4.8,2.6-7.12.68-1.53,1.21-3.12,1.75-4.71l1.73-5.14c.46-1.4.93-2.79,1.28-4.23.6-2.4.85-5,1.56-7.36,1.79-6.22,6.35-11.2,10.56-16.08a67,67,0,0,0-11.36-3.28,17.11,17.11,0,0,1-3.81-1c-1.4-.61-2.59-1.6-3.94-2.33a21.78,21.78,0,0,0-6.89-1.75A97.7,97.7,0,0,1,538.61,342.42Z"/><path class="cls-7" d="M467.15,436.65a20.61,20.61,0,0,0,.19,5.6,21.51,21.51,0,0,0,2.29,5.44c4.4,8.41,8,17.21,11.63,26a34.81,34.81,0,0,1,2.32,7c.34,1.83.38,3.7.62,5.54a17.5,17.5,0,0,0,1.43,5.25c.85,1.81,5.44,11.46,7.2,12.41,3.79,2.05,8.87.16,11.27-3.42s-.8-16.29-1.9-20.44-3.39-7.9-5.5-11.65a212.28,212.28,0,0,1-10-20.22c-2.54-5.91-4.86-12.29-3.79-18.63.6-3.57,2.25-6.88,3.49-10.28s2.08-7.16,1-10.63a5.05,5.05,0,0,0-.8-1.69,5.28,5.28,0,0,0-2.24-1.44c-3.74-1.52-11.4-2.77-13,2.26-.67,2.09-.8,4.37-1.36,6.5a77.17,77.17,0,0,0-1.88,10.33C467.62,428.58,467.38,432.62,467.15,436.65Z"/><path class="cls-7" d="M544.75,451.69q-7.08,8.35-13.77,17l11.55,8.54A19,19,0,0,1,547,469l11.71-14.51a20.75,20.75,0,0,0-9.08-3.07C548,451.62,546.3,451.46,544.75,451.69Z"/><path class="cls-7" d="M595.46,359.9c3.06.7,6.12,1.4,9.13,2.24,6.27,1.77,12.6,4.34,16.94,9.2,1,1.07,1.83,2.7,1,3.87a5,5,0,0,1-1,.89,12,12,0,0,0-2.56,3.77,29.39,29.39,0,0,1-5.35,7.09,23.23,23.23,0,0,0-5.91-4.66l-4.8-3a18.35,18.35,0,0,0-6.8-3.08c-2.85-.44-5.72.45-8.6.67a18.24,18.24,0,0,1-10.49-2.4,2.49,2.49,0,0,1-1-.86,2.31,2.31,0,0,1-.26-.93,12.55,12.55,0,0,1,2.87-9.18c1.48-1.88,4.8-5.4,7.35-5.73,1.26-.16,3,.67,4.28.95Z"/><path class="cls-9" d="M591.74,379.67a19.71,19.71,0,0,0-2.51,1.17c-6.27,3.27-12.74,6.71-17.05,12.32a48.68,48.68,0,0,0-5.16,9.21l-10.44,22.22-2.2,4.67L551,436.31l-8.54,18.18a14.93,14.93,0,0,1,9.09.86c2.77,1.36,4.93,4.28,4.7,7.37,2.48-.22,3.8-2.91,5.55-4.69a34.31,34.31,0,0,1,4.94-3.57,39.42,39.42,0,0,0,5.86-5.69,173.55,173.55,0,0,1,17.74-17.09,40.38,40.38,0,0,0,3.52-3.15,29.15,29.15,0,0,0,5.36-9,78.71,78.71,0,0,0,5.26-19.6c.55-4.09.74-8.41-.93-12.19a13.61,13.61,0,0,0-15-7.52"/><path class="cls-5" d="M590.94,380.47a19.71,19.71,0,0,0-2.51,1.17c-6.27,3.27-12.74,6.71-17,12.32a48.68,48.68,0,0,0-5.16,9.21l-10.44,22.22-2.2,4.67-3.36,7.05-8.54,18.18a14.93,14.93,0,0,1,9.09.86c2.77,1.36,4.93,4.28,4.7,7.37,2.48-.22,3.8-2.91,5.55-4.69a34.31,34.31,0,0,1,4.94-3.57,39.42,39.42,0,0,0,5.86-5.69,173.55,173.55,0,0,1,17.74-17.09,40.38,40.38,0,0,0,3.52-3.15,29.15,29.15,0,0,0,5.36-9,78.71,78.71,0,0,0,5.26-19.6c.55-4.09.74-8.41-.93-12.19a13.61,13.61,0,0,0-15-7.52"/><path class="cls-8" d="M535.86,465.84l-8.75-1a1.27,1.27,0,0,0-.72.06,1.25,1.25,0,0,0-.5.61q-4.23,7.95-7.89,16.19c-1.36,3.05-2.63,6.71-.91,9.6.51.85,1.25,1.56,1.73,2.4,1.09,2,.6,4.48-.19,6.61a3.45,3.45,0,0,0-.33,1.95c.21.89,1.12,1.43,2,1.84a68.58,68.58,0,0,0,21.86,6.52,1.72,1.72,0,0,0,2.36-1.42,20.93,20.93,0,0,0,.71-2.61c.58-3.15-.31-6.4-1-9.5-1.09-5.09-1.6-10.45-.13-15.43a20.81,20.81,0,0,1,2.8-5.86c1.39-2-3.37-3.94-4.63-5.37C540.1,468,539.44,466.23,535.86,465.84Z"/><path class="cls-1" d="M471.37,395.37l-2.66,16.25c2.23-2.11,5.55-2.49,8.63-2.56s6.64.24,8.8,2.54c.87.94,1.42,2.14,2.27,3.1a3.31,3.31,0,0,0,3.37,1.28,2.94,2.94,0,0,0,1.72-2,9,9,0,0,0,.16-2.74l-.88-17.94c-.21-4.33-.44-8.75-2-12.8a19.94,19.94,0,0,0-3.73-6,6.8,6.8,0,0,0-1.6-1.38,6.93,6.93,0,0,0-2.12-.64c-2.08-.32-5.47-.87-7.4.26-1.6.95-1.76,3.2-1.94,4.86C473.29,383.53,472.34,389.46,471.37,395.37Z"/><ellipse class="cls-6" cx="529.38" cy="305.65" rx="29.65" ry="12.7"/><circle class="cls-6" cx="491.26" cy="288.7" r="16.94"/><circle class="cls-6" cx="550.55" cy="284.47" r="16.94"/><path class="cls-5" d="M558.58,274.82a16.94,16.94,0,0,1,3.74,22.1,17.74,17.74,0,0,0,1.44-1.56A16.95,16.95,0,0,0,537.42,274a16.42,16.42,0,0,0-1.22,1.74A16.93,16.93,0,0,1,558.58,274.82Z"/><path class="cls-5" d="M486.82,276.9a16.94,16.94,0,0,1,21.28,7,17.54,17.54,0,0,0-.7-2,16.95,16.95,0,0,0-31.14,13.36,15.82,15.82,0,0,0,1,1.88A16.93,16.93,0,0,1,486.82,276.9Z"/><path class="cls-5" d="M529.38,314.11c-14.69,0-26.88-4.57-29.24-10.58a5.67,5.67,0,0,0-.41,2.12c0,7,13.27,12.7,29.65,12.7S559,312.66,559,305.65a5.67,5.67,0,0,0-.41-2.12C556.25,309.57,544.06,314.11,529.38,314.11Z"/><polygon class="cls-10" points="575.44 470.13 577.56 473.96 646.54 459.34 643.82 455 575.44 470.13"/><path class="cls-10" d="M567.18,473.86l-10.45-62a2,2,0,0,1,1.63-2.28l.11,0,79.2-8.45a2,2,0,0,1,2.17,1.7l7.41,54.28Z"/><path class="cls-5" d="M567.18,473.86l-10.45-62a2,2,0,0,1,1.63-2.28l.11,0,79.2-8.45a2,2,0,0,1,2.17,1.7l7.41,54.28Z"/><path class="cls-10" d="M568.38,473.86l-10.44-62a2,2,0,0,1,1.62-2.28l.12,0,79.2-8.45a2,2,0,0,1,2.17,1.7l7.4,54.28Z"/><polygon class="cls-1" points="563.44 414.66 572.01 467.3 643.62 452.58 636.96 405.78 563.44 414.66"/><path class="cls-11" d="M577.16,472.77l-.5-1-9.48,2.12,24.14,36.9a3.13,3.13,0,0,0,3.49,1.29l84.8-24.65a3.12,3.12,0,0,0,1-5.49L647.76,457l-6.86,1.6.31.71Z"/><path class="cls-5" d="M577.16,472.77l-.5-1-9.48,2.12,24.14,36.9a3.13,3.13,0,0,0,3.49,1.29l84.8-24.65a3.12,3.12,0,0,0,1-5.49L647.76,457l-6.86,1.6.31.71Z"/><path class="cls-11" d="M578.37,472.77l-.51-1-9.48,2.12,24.15,36.9a3.13,3.13,0,0,0,3.49,1.29l84.8-24.65a3.12,3.12,0,0,0,1-5.49L649,457l-6.86,1.6.31.71Z"/><path class="cls-5" d="M616.19,487.86l27.25-7.09a.52.52,0,0,1,.49.12l12.1,11a.53.53,0,0,1,0,.75.49.49,0,0,1-.24.15L627,501.28a.51.51,0,0,1-.54-.17L615.94,488.7A.54.54,0,0,1,616,488,.51.51,0,0,1,616.19,487.86Z"/><path class="cls-12" d="M616.8,487.26l27.25-7.08a.55.55,0,0,1,.49.12l12.08,11a.54.54,0,0,1,0,.75.61.61,0,0,1-.24.15l-28.8,8.51a.56.56,0,0,1-.56-.17l-10.52-12.41a.52.52,0,0,1,0-.73A.48.48,0,0,1,616.8,487.26Z"/><g class="cls-3"><path d="M578.42,477.9l1.22,2a.25.25,0,0,0,.25.12l4.13-.92a.24.24,0,0,0,.17-.3.21.21,0,0,0,0-.07l-1.37-1.92a.23.23,0,0,0-.24-.1l-4,.86a.24.24,0,0,0-.18.27A.19.19,0,0,0,578.42,477.9Z"/><path d="M583.82,476.77l1.22,2a.25.25,0,0,0,.26.11l4.12-.92a.23.23,0,0,0,.18-.28.36.36,0,0,0,0-.09l-1.36-1.9a.24.24,0,0,0-.24-.1l-4,.86a.23.23,0,0,0-.17.28Z"/><path d="M589.06,475.63l1.22,2a.24.24,0,0,0,.25.1l4.13-.92a.23.23,0,0,0,.17-.29.15.15,0,0,0,0-.07l-1.38-1.91a.24.24,0,0,0-.24-.09l-4,.85a.24.24,0,0,0-.15.3A.09.09,0,0,0,589.06,475.63Z"/><path d="M594.22,474.51l1.21,1.95a.26.26,0,0,0,.27.11l4.1-.91a.26.26,0,0,0,.18-.32l0-.08-1.34-1.88a.25.25,0,0,0-.26-.09l-4,.85a.25.25,0,0,0-.14.33Z"/><path d="M593.8,477.52l1.22,2a.22.22,0,0,0,.25.1l4.13-.92a.23.23,0,0,0,.18-.26.42.42,0,0,0,0-.1l-1.36-1.91a.25.25,0,0,0-.24-.09l-4,.86a.23.23,0,0,0-.17.28A.15.15,0,0,0,593.8,477.52Z"/><path d="M588.45,478.66l1.22,2a.25.25,0,0,0,.26.11l4.13-.92a.23.23,0,0,0,.17-.28.18.18,0,0,0,0-.09l-1.37-1.87a.22.22,0,0,0-.24-.09l-4,.86a.24.24,0,0,0-.14.31Z"/><path d="M591.93,481.07l1.22,2a.26.26,0,0,0,.26.1l4.13-.92a.22.22,0,0,0,.17-.27.18.18,0,0,0,0-.1L596.3,480a.22.22,0,0,0-.24-.1l-4,.86a.24.24,0,0,0-.15.3A.05.05,0,0,0,591.93,481.07Z"/><path d="M596.85,483.17l1.22,2a.24.24,0,0,0,.25.1l4.13-.92a.24.24,0,0,0,.18-.27.36.36,0,0,0,0-.09l-1.37-1.91A.22.22,0,0,0,601,482l-4,.86a.22.22,0,0,0-.16.28A.11.11,0,0,0,596.85,483.17Z"/><path d="M597.7,486.62l2,2.48a.24.24,0,0,0,.24.08l4.16-1.08a.25.25,0,0,0,.17-.3.2.2,0,0,0,0-.08l-2.05-2.5a.24.24,0,0,0-.24-.08l-4.1,1.11a.23.23,0,0,0-.16.28A.36.36,0,0,0,597.7,486.62Z"/><path d="M603.14,485.26l2,2.55a.24.24,0,0,0,.24.08l5.43-1.51a.24.24,0,0,0,.16-.3l0-.07-2.05-2.51a.24.24,0,0,0-.24-.08l-5.41,1.46a.25.25,0,0,0-.17.3Z"/><path d="M592.38,488l2,2.48a.24.24,0,0,0,.24.08l4.16-1.08a.25.25,0,0,0,.17-.3l0-.08-2-2.5a.22.22,0,0,0-.24-.07l-4.1,1.09a.25.25,0,0,0-.16.3A.59.59,0,0,0,592.38,488Z"/><path d="M586.76,489.39l2,2.47a.2.2,0,0,0,.24.08l4.16-1.08a.23.23,0,0,0,.16-.29.2.2,0,0,0,0-.08l-2-2.52a.24.24,0,0,0-.24-.08l-4.1,1.1a.24.24,0,0,0-.18.29A.24.24,0,0,0,586.76,489.39Z"/><path d="M599.38,473.3l1.2,1.95a.27.27,0,0,0,.28.11l4.09-.91a.25.25,0,0,0,.19-.3.25.25,0,0,0,0-.09l-1.35-1.88a.25.25,0,0,0-.25-.1l-4,.85a.24.24,0,0,0-.2.27A.3.3,0,0,0,599.38,473.3Z"/><path d="M599,476.33l1.2,1.94a.26.26,0,0,0,.28.11l4.09-.91a.25.25,0,0,0,.19-.29.3.3,0,0,0,0-.1l-1.32-1.91a.25.25,0,0,0-.25-.1l-3.95.9a.24.24,0,0,0-.22.27A.29.29,0,0,0,599,476.33Z"/><path d="M604.4,472.17l1.2,1.94a.25.25,0,0,0,.27.11l4.1-.91a.25.25,0,0,0,.19-.29.31.31,0,0,0,0-.1L608.77,471a.26.26,0,0,0-.26-.1l-4,.85a.24.24,0,0,0-.19.29A.16.16,0,0,0,604.4,472.17Z"/><path d="M619.07,469l1.7,1.81a.25.25,0,0,0,.19.05l3.66-.85a.2.2,0,0,0,.15-.23.24.24,0,0,0-.06-.11l-1.91-1.81a.25.25,0,0,0-.19-.05l-3.44.85a.2.2,0,0,0-.15.24A.19.19,0,0,0,619.07,469Z"/><path d="M623.76,467.88l1.7,1.81a.21.21,0,0,0,.2.05l3.65-.84a.19.19,0,0,0,.15-.23.17.17,0,0,0-.06-.11l-1.91-1.82a.22.22,0,0,0-.19,0l-3.44.84a.21.21,0,0,0-.14.26A.2.2,0,0,0,623.76,467.88Z"/><path d="M619.17,471.89l1.7,1.81a.19.19,0,0,0,.19.05l3.66-.84a.2.2,0,0,0,.16-.23.24.24,0,0,0-.06-.11l-1.92-1.81a.22.22,0,0,0-.19-.06l-3.44.86a.2.2,0,0,0-.1.33Z"/><path d="M614.36,473l1.6,1.73a.26.26,0,0,0,.24.07l3.54-.8a.27.27,0,0,0,.19-.31.35.35,0,0,0-.07-.12L618,471.85a.24.24,0,0,0-.23-.06l-3.33.8a.27.27,0,0,0-.16.33A.47.47,0,0,0,614.36,473Z"/><path d="M618,478.46l1.6,1.72a.27.27,0,0,0,.24.08l3.54-.8a.24.24,0,0,0,.18-.3.24.24,0,0,0-.07-.13l-1.83-1.73a.27.27,0,0,0-.23-.06l-3.33.8a.26.26,0,0,0-.16.33A.24.24,0,0,0,618,478.46Z"/><path d="M613,479.59l1.6,1.73a.26.26,0,0,0,.24.07l3.54-.8a.25.25,0,0,0,.19-.29.27.27,0,0,0-.07-.13l-1.84-1.73a.24.24,0,0,0-.23-.06l-3.33.8a.26.26,0,0,0-.16.33Z"/><path d="M607.9,480.85l1.6,1.73a.27.27,0,0,0,.24.07l3.55-.8a.26.26,0,0,0,.18-.31.24.24,0,0,0-.07-.12l-1.83-1.73a.24.24,0,0,0-.23-.06l-3.33.8a.25.25,0,0,0-.17.31A.24.24,0,0,0,607.9,480.85Z"/><path d="M602.52,481.91l1.65,1.75a.23.23,0,0,0,.22.08l3.58-.8a.24.24,0,0,0,.18-.28.21.21,0,0,0-.07-.12l-1.86-1.77a.21.21,0,0,0-.21-.06l-3.37.8a.23.23,0,0,0-.21.24A.24.24,0,0,0,602.52,481.91Z"/><path d="M613,476.44l1.6,1.73a.26.26,0,0,0,.24.07l3.54-.8a.25.25,0,0,0,.19-.29.27.27,0,0,0-.07-.13l-1.83-1.76a.27.27,0,0,0-.23-.06l-3.33.8a.25.25,0,0,0-.2.29A.24.24,0,0,0,613,476.44Z"/><path d="M608.06,477.57l1.6,1.72a.21.21,0,0,0,.24.07l3.54-.8a.24.24,0,0,0,.18-.3.19.19,0,0,0-.07-.12l-1.83-1.73a.23.23,0,0,0-.23-.07l-3.33.8a.26.26,0,0,0-.18.31A.23.23,0,0,0,608.06,477.57Z"/><path d="M602.82,478.68l1.6,1.73a.26.26,0,0,0,.24.07l3.53-.8a.26.26,0,0,0,.19-.31.21.21,0,0,0-.07-.12l-1.83-1.73a.24.24,0,0,0-.23-.06l-3.34.8a.26.26,0,0,0-.16.32A.17.17,0,0,0,602.82,478.68Z"/><path d="M597.42,480l1.65,1.75a.24.24,0,0,0,.23.06l3.58-.8a.24.24,0,0,0,.18-.27.35.35,0,0,0-.08-.13l-1.85-1.75a.25.25,0,0,0-.22-.05l-3.37.8a.24.24,0,0,0-.17.29A.31.31,0,0,0,597.42,480Z"/><path d="M618,475.26l1.6,1.72a.27.27,0,0,0,.24.08l3.54-.8a.25.25,0,0,0,.19-.3.33.33,0,0,0-.07-.13l-1.83-1.73a.26.26,0,0,0-.24-.06l-3.33.8a.25.25,0,0,0-.15.33A.41.41,0,0,0,618,475.26Z"/><path d="M609.42,474.27,611,476a.28.28,0,0,0,.24.07l3.54-.8a.24.24,0,0,0,.18-.3.21.21,0,0,0-.07-.12l-1.82-1.73a.24.24,0,0,0-.23-.06l-3.34.8a.25.25,0,0,0-.16.31A.21.21,0,0,0,609.42,474.27Z"/><path d="M628.29,466.74l1.78,1.88a.17.17,0,0,0,.15.05l3.77-.88a.15.15,0,0,0,.11-.18.1.1,0,0,0,0-.07l-2-1.9a.2.2,0,0,0-.15,0l-3.55.88a.14.14,0,0,0-.09.18A.05.05,0,0,0,628.29,466.74Z"/><path d="M632.85,465.72l1.78,1.9a.19.19,0,0,0,.15,0l3.77-.88a.15.15,0,0,0,.11-.18.1.1,0,0,0,0-.07l-2-1.9a.15.15,0,0,0-.13,0l-3.56.88a.14.14,0,0,0-.09.18A0,0,0,0,0,632.85,465.72Z"/><path d="M637.54,464.65l1.6,1.75a.16.16,0,0,0,.16.05l3.52-1a.16.16,0,0,0,.09-.21l0-.06-1.81-1.52a.15.15,0,0,0-.13,0l-3.34.73a.15.15,0,0,0-.06.2Z"/><path d="M642.46,466.28l1.6,1.76a.15.15,0,0,0,.14,0l3.52-1a.16.16,0,0,0,.11-.19.22.22,0,0,0-.05-.08L646,465.34a.11.11,0,0,0-.13,0l-3.33.72a.16.16,0,0,0,0,.21Z"/><path d="M641.86,469.48l1.55,1.66a.19.19,0,0,0,.2.06l3.39-.92a.2.2,0,0,0,.15-.24.26.26,0,0,0-.07-.11l-1.72-1.46a.23.23,0,0,0-.18,0l-3.2.71a.21.21,0,0,0-.17.23A.22.22,0,0,0,641.86,469.48Z"/><path d="M637.86,473.57l1.54,1.67a.21.21,0,0,0,.2.06l3.42-.93a.2.2,0,0,0,.14-.25.27.27,0,0,0-.06-.1l-1.72-1.45a.17.17,0,0,0-.17,0l-3.2.7a.2.2,0,0,0-.17.24A.14.14,0,0,0,637.86,473.57Z"/><path d="M633,474.8l1.54,1.66a.19.19,0,0,0,.2.06l3.4-.92a.21.21,0,0,0,.15-.24.26.26,0,0,0-.07-.11l-1.72-1.46a.28.28,0,0,0-.18,0l-3.2.71a.2.2,0,0,0-.14.25S633,474.78,633,474.8Z"/><path d="M642.39,472.35l1.55,1.67a.23.23,0,0,0,.2.06l3.4-.93a.2.2,0,0,0,.14-.24.26.26,0,0,0-.07-.11l-1.72-1.45a.29.29,0,0,0-.18-.05l-3.2.72a.21.21,0,0,0-.16.24A.15.15,0,0,0,642.39,472.35Z"/><path d="M641.61,476l2.33,2.09a.21.21,0,0,0,.19,0l3.37-.95a.2.2,0,0,0,.14-.24.17.17,0,0,0-.06-.1l-2.52-2.2a.17.17,0,0,0-.19,0l-3.2,1.06a.2.2,0,0,0-.13.24A.23.23,0,0,0,641.61,476Z"/><path d="M633.42,468.55l1.6,1.76a.14.14,0,0,0,.15,0l3.52-1a.15.15,0,0,0,.11-.17.16.16,0,0,0-.06-.08l-1.81-1.54a.15.15,0,0,0-.13,0l-3.33.74a.15.15,0,0,0-.05.2Z"/><path d="M628.9,469.68l1.55,1.66a.21.21,0,0,0,.2.07l3.4-.93a.2.2,0,0,0,.14-.24.21.21,0,0,0-.07-.11l-1.72-1.45a.23.23,0,0,0-.18-.05l-3.2.71a.21.21,0,0,0-.17.23A.22.22,0,0,0,628.9,469.68Z"/><path d="M628,472.9l1.54,1.68a.21.21,0,0,0,.2.05l3.39-.93a.19.19,0,0,0,.14-.24.21.21,0,0,0-.06-.1l-1.73-1.46a.21.21,0,0,0-.17,0l-3.2.71a.2.2,0,0,0-.17.23A.17.17,0,0,0,628,472.9Z"/><path d="M623.18,474.06l1.55,1.68a.21.21,0,0,0,.2.05l3.39-.93a.19.19,0,0,0,.14-.24.21.21,0,0,0-.06-.1l-1.73-1.46a.2.2,0,0,0-.17,0l-3.2.71a.19.19,0,0,0-.17.22A.22.22,0,0,0,623.18,474.06Z"/><path d="M624,470.76l1.54,1.67a.19.19,0,0,0,.2.06l3.4-.93a.2.2,0,0,0,.14-.24.17.17,0,0,0-.06-.1l-1.72-1.46a.2.2,0,0,0-.18,0l-3.2.71a.21.21,0,0,0-.17.23A.19.19,0,0,0,624,470.76Z"/><path d="M628.05,475.88l1.54,1.67a.19.19,0,0,0,.2.06l3.39-.93a.19.19,0,0,0,.14-.24.17.17,0,0,0-.06-.1l-1.72-1.46a.18.18,0,0,0-.17,0l-3.2.7a.22.22,0,0,0-.17.25A.41.41,0,0,0,628.05,475.88Z"/><path d="M623.34,477.15l1.47,1.6a.23.23,0,0,0,.25.07l3.27-.88a.26.26,0,0,0,.17-.32.2.2,0,0,0-.08-.12l-1.6-1.38a.23.23,0,0,0-.21-.05l-3.11.68a.25.25,0,0,0-.21.28A.33.33,0,0,0,623.34,477.15Z"/><path d="M638.1,467.39l1.6,1.76a.14.14,0,0,0,.15,0l3.52-1a.15.15,0,0,0,.11-.17.16.16,0,0,0-.06-.08l-1.81-1.54a.15.15,0,0,0-.13,0l-3.33.74a.15.15,0,0,0-.1.19Z"/><path d="M637.42,470.56l1.55,1.67a.19.19,0,0,0,.2.06l3.39-.93a.19.19,0,0,0,.14-.24.17.17,0,0,0-.06-.1l-1.7-1.45a.18.18,0,0,0-.17,0l-3.2.7a.2.2,0,0,0-.19.21A.21.21,0,0,0,637.42,470.56Z"/><path d="M632.84,471.82l1.54,1.67a.21.21,0,0,0,.2.06l3.4-.93a.21.21,0,0,0,.13-.26.41.41,0,0,0-.05-.09l-1.73-1.45a.25.25,0,0,0-.17,0l-3.2.71a.19.19,0,0,0-.17.22A.16.16,0,0,0,632.84,471.82Z"/><path d="M614.28,470l1.7,1.81a.21.21,0,0,0,.2.05l3.65-.84a.2.2,0,0,0,.15-.24.24.24,0,0,0-.06-.11L618,468.86a.22.22,0,0,0-.19,0l-3.44.84a.21.21,0,0,0-.14.26A.2.2,0,0,0,614.28,470Z"/><path d="M609.42,471.17l1.6,1.73a.27.27,0,0,0,.24.07l3.55-.8a.26.26,0,0,0,.18-.31.24.24,0,0,0-.07-.12L613.09,470a.24.24,0,0,0-.23-.06l-3.33.8a.25.25,0,0,0-.16.33A.41.41,0,0,0,609.42,471.17Z"/><path d="M604.17,475.25l1.21,1.93a.24.24,0,0,0,.27.12l4.09-.92a.24.24,0,0,0,.19-.29.42.42,0,0,0,0-.1l-1.35-1.87a.24.24,0,0,0-.25-.1l-4,.84a.25.25,0,0,0-.15.33Z"/><path d="M577.36,476l4-.94a.25.25,0,0,1,.24.09l.71.94a.23.23,0,0,1,0,.32.18.18,0,0,1-.09,0l-4.19,1a.23.23,0,0,1-.25-.11l-.57-1a.23.23,0,0,1,.08-.32Z"/><path d="M582.92,474.76l4-.94a.24.24,0,0,1,.24.09l.71.93a.24.24,0,0,1,0,.34l-.08,0-4.19,1a.23.23,0,0,1-.25-.11l-.57-1a.23.23,0,0,1,.09-.31A.17.17,0,0,1,582.92,474.76Z"/><path d="M588.29,473.57l4-.93a.22.22,0,0,1,.24.08l.71.94a.23.23,0,0,1,0,.32.18.18,0,0,1-.1,0l-4.18,1a.24.24,0,0,1-.26-.11l-.56-1a.23.23,0,0,1,.09-.32A.17.17,0,0,1,588.29,473.57Z"/><path d="M593.51,472.41l4-.93a.22.22,0,0,1,.24.09l.71.93a.23.23,0,0,1-.05.33.2.2,0,0,1-.08,0l-4.11,1a.21.21,0,0,1-.25-.1l-.57-1a.24.24,0,0,1,.07-.33Z"/><path d="M598.84,471.23l4-.93a.29.29,0,0,1,.26.1l.68.9a.25.25,0,0,1,0,.36.18.18,0,0,1-.09,0l-4.15,1a.24.24,0,0,1-.27-.12l-.56-.94a.26.26,0,0,1,.1-.35Z"/><path d="M604,470.16l4-.93a.25.25,0,0,1,.25.09l.69.9a.26.26,0,0,1-.05.36.18.18,0,0,1-.09,0l-4.15,1a.26.26,0,0,1-.28-.12l-.56-.94a.26.26,0,0,1,.1-.34A.14.14,0,0,1,604,470.16Z"/><path d="M609.06,469.1l3.7-.89a.24.24,0,0,1,.24.07l.72.75a.25.25,0,0,1-.12.42l-3.66.92a.24.24,0,0,1-.24-.07l-.8-.8a.25.25,0,0,1,.06-.35Z"/><path d="M614,468l3.81-.93a.19.19,0,0,1,.2.06l.8.84a.19.19,0,0,1,0,.27.14.14,0,0,1-.1.05l-3.77,1a.22.22,0,0,1-.19-.06l-.84-.86A.2.2,0,0,1,614,468Z"/><path d="M618.86,466.82l3.82-.92a.17.17,0,0,1,.19.05l.8.8a.21.21,0,0,1,0,.3l-.07,0-3.76,1a.19.19,0,0,1-.19-.05l-.86-.85a.2.2,0,0,1,0-.28A.19.19,0,0,1,618.86,466.82Z"/><path d="M623.76,465.82l3.82-.93a.2.2,0,0,1,.19.05l.8.8a.23.23,0,0,1,0,.3l-.08,0-3.77.94a.21.21,0,0,1-.2,0l-.84-.85a.21.21,0,0,1,.07-.29Z"/><path d="M628.4,464.7l3.94-.95a.17.17,0,0,1,.14,0l.87.92a.15.15,0,0,1,0,.21l-.08,0-3.86,1a.17.17,0,0,1-.14,0l-.93-.94a.14.14,0,0,1-.09-.19A.15.15,0,0,1,628.4,464.7Z"/><path d="M633.09,463.7l3.93-1a.2.2,0,0,1,.15.05l.88.92a.17.17,0,0,1,0,.22l-.06,0-3.89,1a.2.2,0,0,1-.15,0l-.92-1a.16.16,0,0,1,0-.22A.19.19,0,0,1,633.09,463.7Z"/><path d="M637.77,462.63l3.63-.8a.14.14,0,0,1,.15.06l.71.86a.14.14,0,0,1,0,.2.09.09,0,0,1-.06,0l-3.42.91a.14.14,0,0,1-.14,0l-.93-.94a.15.15,0,0,1,.08-.28Z"/><path d="M642.22,461.61l3.64-.8a.14.14,0,0,1,.16.05l.7.86a.15.15,0,0,1,0,.21s0,0-.05,0l-3.42.9a.17.17,0,0,1-.14,0l-.93-.94a.17.17,0,0,1-.12-.19.16.16,0,0,1,.19-.12Z"/><path d="M580.19,480.77l1.35,1.91a.23.23,0,0,0,.24.1l7-1.6a.23.23,0,0,0,.17-.28.13.13,0,0,0,0-.09l-1.48-2a.24.24,0,0,0-.25-.08l-6.84,1.67a.25.25,0,0,0-.15.32Z"/><path d="M582.31,483.35l1.35,2.13a.2.2,0,0,0,.24.1l8.46-2a.25.25,0,0,0,.18-.28.31.31,0,0,0,0-.1l-1.67-2.07a.25.25,0,0,0-.24-.08L582.46,483a.23.23,0,0,0-.18.28Z"/><path d="M584.22,486.17l1.6,2.31a.25.25,0,0,0,.25.1l11.2-2.77a.24.24,0,0,0,.18-.29.36.36,0,0,0,0-.09l-1.81-2.31a.25.25,0,0,0-.24-.09l-11.07,2.78a.22.22,0,0,0-.1.31Z"/><path d="M609.86,483.64l2,2.47a.23.23,0,0,0,.26.08L636.81,480a.25.25,0,0,0,.19-.28.29.29,0,0,0-.08-.14l-2.51-2.5a.24.24,0,0,0-.24-.06L610,483.24a.25.25,0,0,0-.18.3A.31.31,0,0,0,609.86,483.64Z"/><path d="M635.3,477.26l2.4,2.4a.19.19,0,0,0,.2.06l5.05-1.35a.2.2,0,0,0,.14-.25A.41.41,0,0,0,643,478l-2.5-2.45a.19.19,0,0,0-.2-.05l-5,1.37a.2.2,0,0,0-.08.36Z"/><path d="M647.5,475.74l1.1,1.16a.13.13,0,0,0,.14,0l3.75-1a.17.17,0,0,0,.11-.18.18.18,0,0,0-.05-.07l-1.33-1.26a.19.19,0,0,0-.15,0l-3.5,1.1a.14.14,0,0,0-.08.19Z"/><path d="M650.69,473.25l1.31,1.37a.13.13,0,0,0,.15,0l3.43-1.19a.14.14,0,0,0,.1-.17.12.12,0,0,0,0-.08l-1.28-1.16a.17.17,0,0,0-.14,0l-3.47,1a.16.16,0,0,0-.07.21Z"/><path d="M653.22,475.63l-1-.8a.14.14,0,0,1,0-.21s0,0,.06,0l3.42-1.19a.15.15,0,0,1,.16,0l1.06,1a.16.16,0,0,1,0,.22l-.06,0-3.56.92A.13.13,0,0,1,653.22,475.63Z"/><path d="M656.72,473.52c.3.28.8.85,1,1a.14.14,0,0,0,.14,0l3.56-1a.14.14,0,0,0,.1-.19.08.08,0,0,0,0-.06l-1.26-1.14a.12.12,0,0,0-.14,0l-3.32,1.06a.15.15,0,0,0-.08.19Z"/><path d="M646.73,471.26l1.91,1.84a.12.12,0,0,0,.14,0l9.19-2.4a.15.15,0,0,0,.11-.17.16.16,0,0,0-.06-.08l-2.2-1.87a.11.11,0,0,0-.13,0l-8.87,2.4a.14.14,0,0,0-.14.14A.12.12,0,0,0,646.73,471.26Z"/><path d="M646.1,468.43l2,1.75a.17.17,0,0,0,.14,0l6.91-1.6a.14.14,0,0,0,.11-.18.1.1,0,0,0-.05-.08l-2.26-1.9h-.14l-6.61,1.79a.15.15,0,0,0-.08.2Z"/><path d="M646.74,465.42l1.86,1.66a.17.17,0,0,0,.14,0l3.54-.8a.17.17,0,0,0,.11-.2s0-.05,0-.06l-2.21-1.91a.17.17,0,0,0-.14,0l-3.2,1a.16.16,0,0,0-.14.16A.2.2,0,0,0,646.74,465.42Z"/><path d="M641.88,463.76l1.81,1.64a.15.15,0,0,0,.13,0l5.6-1.34a.15.15,0,0,0,.11-.18.16.16,0,0,0,0-.07l-2.15-1.8a.17.17,0,0,0-.14,0l-5.28,1.49a.16.16,0,0,0-.08.2A.13.13,0,0,0,641.88,463.76Z"/></g><path class="cls-10" d="M578.42,477.3l1.22,2a.23.23,0,0,0,.25.11l4.13-.92a.24.24,0,0,0,.17-.3.21.21,0,0,0,0-.07l-1.37-1.9a.23.23,0,0,0-.24-.1l-4,.86a.23.23,0,0,0-.16.29A.09.09,0,0,0,578.42,477.3Z"/><path class="cls-10" d="M583.82,476.16l1.22,2a.24.24,0,0,0,.26.1l4.12-.92a.22.22,0,0,0,.18-.27.3.3,0,0,0,0-.1L588.2,475A.25.25,0,0,0,588,475l-4,.86a.24.24,0,0,0-.17.28Z"/><path class="cls-10" d="M589.06,475l1.22,2a.23.23,0,0,0,.25.11l4.13-.92a.24.24,0,0,0,.18-.28.2.2,0,0,0,0-.08l-1.38-1.92a.22.22,0,0,0-.24-.08l-4,.85a.23.23,0,0,0-.15.29A.09.09,0,0,0,589.06,475Z"/><path class="cls-10" d="M594.22,473.9l1.21,2a.25.25,0,0,0,.27.11l4.1-.91a.26.26,0,0,0,.18-.32.25.25,0,0,0,0-.07l-1.36-1.89a.23.23,0,0,0-.25-.11l-4,.85a.27.27,0,0,0-.14.34Z"/><path class="cls-10" d="M593.8,476.91l1.22,2a.25.25,0,0,0,.25.1l4.13-.92a.24.24,0,0,0,.18-.27.3.3,0,0,0,0-.1l-1.36-1.9a.26.26,0,0,0-.24-.1l-4,.86a.23.23,0,0,0-.17.28A.15.15,0,0,0,593.8,476.91Z"/><path class="cls-10" d="M588.45,478.05l1.22,2a.29.29,0,0,0,.26.11l4.13-.92a.23.23,0,0,0,.17-.28.18.18,0,0,0,0-.09l-1.37-1.9a.22.22,0,0,0-.24-.1l-4,.86a.25.25,0,0,0-.16.3Z"/><path class="cls-10" d="M591.93,480.47l1.22,2a.22.22,0,0,0,.26.1l4.13-.92a.22.22,0,0,0,.17-.27.15.15,0,0,0,0-.09l-1.37-1.91a.24.24,0,0,0-.24-.09l-4,.85a.24.24,0,0,0-.16.3A.09.09,0,0,0,591.93,480.47Z"/><path class="cls-10" d="M596.85,482.58l1.22,2a.22.22,0,0,0,.25.1l4.13-.92a.24.24,0,0,0,.18-.28.2.2,0,0,0,0-.08l-1.37-1.91a.24.24,0,0,0-.24-.09l-4,.85a.22.22,0,0,0-.16.28A.09.09,0,0,0,596.85,482.58Z"/><path class="cls-10" d="M597.7,486l2,2.47a.24.24,0,0,0,.24.08l4.16-1.08a.25.25,0,0,0,.17-.3l0-.08-2.05-2.49a.21.21,0,0,0-.24-.08l-4.1,1.1a.24.24,0,0,0-.16.3S597.69,486,597.7,486Z"/><path class="cls-10" d="M603.14,484.65l2,2.55a.24.24,0,0,0,.24.08l5.43-1.5a.25.25,0,0,0,.16-.3.59.59,0,0,0,0-.08l-2.05-2.5a.24.24,0,0,0-.24-.08l-5.41,1.46a.24.24,0,0,0-.17.28A.36.36,0,0,0,603.14,484.65Z"/><path class="cls-10" d="M592.38,487.33l2,2.47a.24.24,0,0,0,.24.08l4.16-1.08a.24.24,0,0,0,.17-.29.36.36,0,0,0,0-.09l-2-2.49a.24.24,0,0,0-.24-.08l-4.1,1.1a.25.25,0,0,0-.16.3Z"/><path class="cls-10" d="M586.76,488.77l2,2.48a.24.24,0,0,0,.24.08l4.16-1.08a.24.24,0,0,0,.16-.3l0-.08-2-2.49a.21.21,0,0,0-.24-.08l-4.1,1.1a.23.23,0,0,0-.16.29A.3.3,0,0,0,586.76,488.77Z"/><path class="cls-10" d="M599.38,472.7l1.2,1.94a.26.26,0,0,0,.28.11l4.09-.91a.25.25,0,0,0,.19-.3.36.36,0,0,0,0-.09l-1.35-1.88a.25.25,0,0,0-.25-.1l-4,.85a.25.25,0,0,0-.19.29Z"/><path class="cls-10" d="M599,475.72l1.2,1.94a.26.26,0,0,0,.28.12l4.09-.92a.25.25,0,0,0,.19-.29.3.3,0,0,0,0-.1l-1.35-1.87a.25.25,0,0,0-.25-.1l-4,.84a.25.25,0,0,0-.19.3Z"/><path class="cls-10" d="M604.4,471.56l1.2,1.94a.25.25,0,0,0,.27.12l4.1-.92a.25.25,0,0,0,.19-.29.31.31,0,0,0,0-.1l-1.34-1.88a.25.25,0,0,0-.26-.09l-4,.83a.25.25,0,0,0-.21.28A.37.37,0,0,0,604.4,471.56Z"/><path class="cls-10" d="M619.07,468.36l1.7,1.81a.19.19,0,0,0,.19.05l3.66-.84a.21.21,0,0,0,.15-.24.24.24,0,0,0-.06-.11l-1.91-1.81a.21.21,0,0,0-.19,0l-3.44.84a.2.2,0,0,0-.15.24A.19.19,0,0,0,619.07,468.36Z"/><path class="cls-10" d="M623.76,467.28l1.7,1.8a.19.19,0,0,0,.2.06l3.65-.84a.21.21,0,0,0,.16-.24.16.16,0,0,0-.05-.09l-1.91-1.81a.19.19,0,0,0-.19-.05l-3.44.85a.21.21,0,0,0-.15.25A.09.09,0,0,0,623.76,467.28Z"/><path class="cls-10" d="M619.17,471.29l1.7,1.81a.19.19,0,0,0,.19,0l3.66-.85a.2.2,0,0,0,.16-.23.24.24,0,0,0-.06-.11l-1.92-1.81a.22.22,0,0,0-.19,0l-3.44.85a.22.22,0,0,0-.15.26A.35.35,0,0,0,619.17,471.29Z"/><path class="cls-10" d="M614.36,472.41l1.6,1.72a.26.26,0,0,0,.24.07l3.54-.8a.25.25,0,0,0,.19-.3.24.24,0,0,0-.07-.12L618,471.25a.23.23,0,0,0-.23-.07l-3.33.8a.25.25,0,0,0-.17.31A.21.21,0,0,0,614.36,472.41Z"/><path class="cls-10" d="M618,477.85l1.6,1.73a.26.26,0,0,0,.24.07l3.54-.8a.25.25,0,0,0,.18-.31.24.24,0,0,0-.07-.12l-1.83-1.73a.24.24,0,0,0-.23-.06l-3.33.8a.26.26,0,0,0-.16.33A.24.24,0,0,0,618,477.85Z"/><path class="cls-10" d="M613,479l1.6,1.73a.24.24,0,0,0,.24.07l3.54-.8a.24.24,0,0,0,.19-.29.33.33,0,0,0-.07-.13l-1.84-1.73a.27.27,0,0,0-.23-.06l-3.33.8a.26.26,0,0,0-.16.33Z"/><path class="cls-10" d="M607.9,480.25l1.6,1.73a.31.31,0,0,0,.24.07l3.55-.8a.25.25,0,1,0,.13-.48L611.59,479a.22.22,0,0,0-.23-.06l-3.33.8a.23.23,0,0,0-.27.22A.27.27,0,0,0,607.9,480.25Z"/><path class="cls-10" d="M602.52,481.31l1.65,1.75a.22.22,0,0,0,.22.07l3.58-.8a.24.24,0,0,0,.11-.4l-1.86-1.76a.29.29,0,0,0-.22-.06l-3.37.8a.23.23,0,0,0-.18.27A.21.21,0,0,0,602.52,481.31Z"/><path class="cls-10" d="M613,475.83l1.6,1.73a.22.22,0,0,0,.24.07l3.54-.8a.26.26,0,0,0,.19-.31.29.29,0,0,0-.07-.12l-1.83-1.74a.24.24,0,0,0-.23-.06l-3.33.8a.25.25,0,0,0-.19.3A.22.22,0,0,0,613,475.83Z"/><path class="cls-10" d="M608.06,477l1.6,1.73a.26.26,0,0,0,.24.07l3.54-.8a.24.24,0,0,0,.18-.3.24.24,0,0,0-.07-.13l-1.83-1.72a.28.28,0,0,0-.23-.07l-3.33.8a.26.26,0,0,0-.16.33A.24.24,0,0,0,608.06,477Z"/><path class="cls-10" d="M602.82,478.08l1.6,1.72a.24.24,0,0,0,.24.08l3.53-.8a.24.24,0,0,0,.19-.29.21.21,0,0,0-.07-.13l-1.83-1.73a.25.25,0,0,0-.23-.07l-3.34.8a.26.26,0,0,0-.16.32A.17.17,0,0,0,602.82,478.08Z"/><path class="cls-10" d="M597.42,479.32l1.65,1.75a.25.25,0,0,0,.23.07l3.58-.8a.24.24,0,0,0,.16-.3.17.17,0,0,0-.06-.1l-1.85-1.76a.25.25,0,0,0-.22-.06l-3.37.8a.24.24,0,0,0-.18.29A.24.24,0,0,0,597.42,479.32Z"/><path class="cls-10" d="M618,474.65l1.6,1.73a.26.26,0,0,0,.24.07l3.54-.8a.25.25,0,0,0,.19-.29.37.37,0,0,0-.07-.14l-1.83-1.72a.3.3,0,0,0-.24-.07l-3.33.8a.25.25,0,0,0-.15.33A.41.41,0,0,0,618,474.65Z"/><path class="cls-10" d="M609.42,473.66l1.6,1.73a.22.22,0,0,0,.24.07l3.54-.8a.23.23,0,0,0,.18-.29.21.21,0,0,0-.07-.13l-1.82-1.73a.28.28,0,0,0-.23-.06l-3.34.8a.25.25,0,0,0-.16.31A.17.17,0,0,0,609.42,473.66Z"/><path class="cls-10" d="M628.29,466.13l1.78,1.89a.14.14,0,0,0,.15,0l3.77-.87a.15.15,0,0,0,.11-.18.1.1,0,0,0,0-.07l-2-1.9a.2.2,0,0,0-.15,0l-3.55.88a.14.14,0,0,0-.08.19Z"/><path class="cls-10" d="M632.85,465.12l1.78,1.9a.24.24,0,0,0,.15,0l3.77-.88a.15.15,0,0,0,.11-.18.1.1,0,0,0,0-.07l-2-1.9a.15.15,0,0,0-.13,0l-3.56.88a.16.16,0,0,0-.12.18A.16.16,0,0,0,632.85,465.12Z"/><path class="cls-10" d="M637.54,464l1.6,1.76a.15.15,0,0,0,.16,0l3.52-1a.15.15,0,0,0,.09-.19.16.16,0,0,0,0-.07l-1.81-1.53a.15.15,0,0,0-.13,0l-3.34.73a.14.14,0,0,0-.1.18A.22.22,0,0,0,637.54,464Z"/><path class="cls-10" d="M642.46,465.68l1.6,1.76a.12.12,0,0,0,.14,0l3.52-1a.14.14,0,0,0,.11-.17.41.41,0,0,0-.05-.09L646,464.77a.15.15,0,0,0-.13,0l-3.32.73A.15.15,0,0,0,642.46,465.68Z"/><path class="cls-10" d="M641.86,468.87l1.55,1.67a.21.21,0,0,0,.2.06l3.39-.93a.2.2,0,0,0,.15-.24.26.26,0,0,0-.07-.11l-1.72-1.45a.27.27,0,0,0-.18-.05l-3.2.72a.21.21,0,0,0-.16.24A.25.25,0,0,0,641.86,468.87Z"/><path class="cls-10" d="M637.86,472.93l1.54,1.67a.19.19,0,0,0,.2.06l3.42-.93a.2.2,0,0,0,.14-.25.27.27,0,0,0-.06-.1L641.35,472a.18.18,0,0,0-.17,0l-3.2.71a.2.2,0,0,0-.14.25A.08.08,0,0,0,637.86,472.93Z"/><path class="cls-10" d="M633,474.19l1.54,1.67a.22.22,0,0,0,.2.06l3.4-.93a.21.21,0,0,0,.15-.24.26.26,0,0,0-.07-.11l-1.72-1.45a.29.29,0,0,0-.18-.05l-3.2.72a.2.2,0,0,0-.16.24A.15.15,0,0,0,633,474.19Z"/><path class="cls-10" d="M642.39,471.74l1.55,1.68a.2.2,0,0,0,.2.05l3.4-.93a.2.2,0,0,0,.13-.24.21.21,0,0,0-.06-.1l-1.72-1.46a.23.23,0,0,0-.18,0l-3.2.71a.21.21,0,0,0-.16.24A.13.13,0,0,0,642.39,471.74Z"/><path class="cls-10" d="M641.61,475.35l2.33,2.09a.19.19,0,0,0,.19,0l3.37-1a.21.21,0,0,0,.08-.35l-2.52-2.2a.21.21,0,0,0-.19,0l-3.2,1.07a.2.2,0,0,0-.09.27Z"/><path class="cls-10" d="M633.42,468l1.6,1.76a.17.17,0,0,0,.15,0l3.52-1a.15.15,0,0,0,.1-.19.14.14,0,0,0,0-.08L636.93,467a.15.15,0,0,0-.13,0l-3.33.73a.16.16,0,0,0-.05.21Z"/><path class="cls-10" d="M628.9,469.07l1.55,1.67a.19.19,0,0,0,.2.06l3.4-.93a.2.2,0,0,0,.13-.25.18.18,0,0,0-.06-.09l-1.72-1.46a.23.23,0,0,0-.18,0l-3.2.71a.21.21,0,0,0-.16.24A.25.25,0,0,0,628.9,469.07Z"/><path class="cls-10" d="M628,472.3l1.54,1.67a.17.17,0,0,0,.2,0l3.39-.92a.21.21,0,0,0,.14-.26.24.24,0,0,0-.06-.09l-1.73-1.45a.18.18,0,0,0-.17,0l-3.2.71a.2.2,0,0,0-.17.23A.17.17,0,0,0,628,472.3Z"/><path class="cls-10" d="M623.18,473.46l1.55,1.67a.17.17,0,0,0,.2.05l3.39-.92a.21.21,0,0,0,.14-.26.24.24,0,0,0-.06-.09l-1.73-1.45a.17.17,0,0,0-.17,0l-3.2.71a.19.19,0,0,0-.17.22A.22.22,0,0,0,623.18,473.46Z"/><path class="cls-10" d="M624,470.16l1.54,1.66a.19.19,0,0,0,.2.06l3.4-.92a.21.21,0,0,0,.13-.26.26.26,0,0,0,0-.09l-1.72-1.45a.24.24,0,0,0-.18-.05l-3.2.71a.2.2,0,0,0-.17.23A.16.16,0,0,0,624,470.16Z"/><path class="cls-10" d="M628.05,475.27l1.54,1.67a.19.19,0,0,0,.2.06l3.39-.92a.2.2,0,0,0,.08-.35l-1.72-1.46a.21.21,0,0,0-.17,0l-3.2.71a.2.2,0,0,0-.17.23A.19.19,0,0,0,628.05,475.27Z"/><path class="cls-10" d="M623.34,476.55l1.47,1.6a.23.23,0,0,0,.25.07l3.27-.89a.26.26,0,0,0,.18-.3.3.3,0,0,0-.09-.13l-1.6-1.38a.23.23,0,0,0-.21-.06l-3.11.69a.25.25,0,0,0-.21.28A.33.33,0,0,0,623.34,476.55Z"/><path class="cls-10" d="M638.1,466.78l1.6,1.76a.14.14,0,0,0,.15,0l3.52-1a.15.15,0,0,0,0-.26l-1.81-1.53a.15.15,0,0,0-.13,0l-3.33.74a.14.14,0,0,0-.06.19Z"/><path class="cls-10" d="M637.42,470l1.55,1.67a.19.19,0,0,0,.2.06l3.39-.92a.21.21,0,0,0,.14-.26.18.18,0,0,0-.06-.09L640.91,469a.21.21,0,0,0-.17,0l-3.2.71a.19.19,0,0,0-.17.22A.16.16,0,0,0,637.42,470Z"/><path class="cls-10" d="M632.84,471.22l1.54,1.67a.21.21,0,0,0,.2.05L638,472a.21.21,0,0,0,.08-.35l-1.73-1.45a.18.18,0,0,0-.17,0l-3.2.7a.2.2,0,0,0-.16.25A.18.18,0,0,0,632.84,471.22Z"/><path class="cls-10" d="M614.28,469.39l1.7,1.78a.21.21,0,0,0,.2.05l3.65-.84a.19.19,0,0,0,.15-.24.21.21,0,0,0-.06-.1L618,468.23a.2.2,0,0,0-.19-.05l-3.44.85a.2.2,0,0,0-.18.22A.16.16,0,0,0,614.28,469.39Z"/><path class="cls-10" d="M609.42,470.59l1.6,1.72a.22.22,0,0,0,.24.07l3.55-.8a.24.24,0,0,0,.18-.29.21.21,0,0,0-.07-.13l-1.83-1.73a.22.22,0,0,0-.23-.06l-3.33.8a.24.24,0,0,0-.18.3A.24.24,0,0,0,609.42,470.59Z"/><path class="cls-10" d="M604.17,474.64l1.21,1.94a.24.24,0,0,0,.27.12l4.09-.92a.24.24,0,0,0,.18-.3.32.32,0,0,0,0-.09l-1.35-1.88a.23.23,0,0,0-.25-.09l-4,.84a.25.25,0,0,0-.15.32A.09.09,0,0,0,604.17,474.64Z"/><path class="cls-10" d="M577.36,475.36l4-.94a.27.27,0,0,1,.24.09l.71.94a.22.22,0,0,1,0,.32l-.09.05-4.19.95a.23.23,0,0,1-.25-.11l-.57-1a.24.24,0,0,1,.12-.32Z"/><path class="cls-10" d="M582.92,474.15l4-.93a.24.24,0,0,1,.24.08l.71.94a.24.24,0,0,1,0,.33l-.09,0-4.19,1a.22.22,0,0,1-.25-.11l-.57-1a.24.24,0,0,1,.09-.32A.17.17,0,0,1,582.92,474.15Z"/><path class="cls-10" d="M588.29,473l4-.94a.25.25,0,0,1,.24.09l.71.93a.24.24,0,0,1,0,.34l-.09,0-4.18,1a.25.25,0,0,1-.26-.11l-.56-1a.21.21,0,0,1,.09-.31A.17.17,0,0,1,588.29,473Z"/><path class="cls-10" d="M593.51,471.81l4-.94a.24.24,0,0,1,.24.09l.71.94a.23.23,0,0,1-.06.33.11.11,0,0,1-.07,0l-4.11,1a.23.23,0,0,1-.25-.11l-.57-1a.23.23,0,0,1,.07-.32Z"/><path class="cls-10" d="M598.84,470.63l4-.93a.29.29,0,0,1,.26.09l.68.91a.25.25,0,0,1,0,.35l-.1.05-4.15,1a.23.23,0,0,1-.27-.12l-.56-.94a.26.26,0,0,1,.11-.34S598.82,470.64,598.84,470.63Z"/><path class="cls-10" d="M604,469.57l4-.93a.25.25,0,0,1,.25.1l.69.9a.25.25,0,0,1-.05.35l-.09,0-4.15,1a.28.28,0,0,1-.28-.12l-.54-.94a.25.25,0,0,1,.09-.34A.11.11,0,0,1,604,469.57Z"/><path class="cls-10" d="M609.06,468.5l3.7-.9a.26.26,0,0,1,.24.07l.72.76a.24.24,0,0,1,0,.34.19.19,0,0,1-.12.07l-3.66.92a.26.26,0,0,1-.24-.06l-.8-.8a.25.25,0,0,1,.05-.35Z"/><path class="cls-10" d="M614,467.37l3.81-.93a.25.25,0,0,1,.2.06l.8.8a.2.2,0,0,1,0,.28.13.13,0,0,1-.09.05l-3.77.95a.2.2,0,0,1-.19-.06l-.84-.86a.19.19,0,0,1,0-.27Z"/><path class="cls-10" d="M618.86,466.22l3.82-.93a.19.19,0,0,1,.19,0l.8.8a.21.21,0,0,1,0,.3l-.07,0-3.76,1a.19.19,0,0,1-.19,0l-.84-.86a.2.2,0,0,1,0-.28Z"/><path class="cls-10" d="M623.76,465.22l3.82-.93a.2.2,0,0,1,.19,0l.8.8a.23.23,0,0,1,0,.3l-.08,0-3.77.95a.21.21,0,0,1-.2-.05l-.84-.81a.2.2,0,0,1,0-.28A.15.15,0,0,1,623.76,465.22Z"/><path class="cls-10" d="M628.4,464.1l3.94-1a.17.17,0,0,1,.14,0l.87.93a.16.16,0,0,1,0,.22l-.06,0-3.86,1a.17.17,0,0,1-.14,0l-.93-.95a.15.15,0,0,1-.07-.2A.16.16,0,0,1,628.4,464.1Z"/><path class="cls-10" d="M633.09,463.1l3.93-1a.2.2,0,0,1,.15,0l.88.92a.15.15,0,0,1,0,.21s0,0-.08,0l-3.89,1a.17.17,0,0,1-.15,0l-.92-.94a.15.15,0,0,1,.05-.21Z"/><path class="cls-10" d="M637.77,462l3.63-.8a.17.17,0,0,1,.15,0l.71.87a.16.16,0,0,1,0,.21l-.05,0-3.42.9a.18.18,0,0,1-.14,0l-.93-.94a.16.16,0,0,1-.07-.2A.18.18,0,0,1,637.77,462Z"/><path class="cls-10" d="M642.22,461l3.64-.8a.18.18,0,0,1,.16.05l.7.86a.16.16,0,0,1,0,.22l-.05,0-3.42.91a.14.14,0,0,1-.14,0l-.93-.94a.16.16,0,0,1,0-.21A.15.15,0,0,1,642.22,461Z"/><path class="cls-10" d="M580.19,480.18l1.35,1.91a.21.21,0,0,0,.24.09l7-1.6a.22.22,0,0,0,.17-.28.12.12,0,0,0,0-.08l-1.48-2a.23.23,0,0,0-.25-.08l-6.84,1.68a.23.23,0,0,0-.15.3Z"/><path class="cls-10" d="M582.31,482.74l1.35,2.14a.21.21,0,0,0,.24.1l8.46-2a.25.25,0,0,0,.18-.28l0-.1-1.67-2.07a.25.25,0,0,0-.24-.08l-8.12,1.93a.23.23,0,0,0-.2.26A.22.22,0,0,0,582.31,482.74Z"/><path class="cls-10" d="M584.22,485.57l1.6,2.31a.25.25,0,0,0,.25.09l11.2-2.77a.23.23,0,0,0,.18-.27.3.3,0,0,0,0-.1l-1.81-2.32a.24.24,0,0,0-.24-.08l-11.07,2.77a.24.24,0,0,0-.1.33Z"/><path class="cls-10" d="M609.86,483l2,2.46a.23.23,0,0,0,.26.08l24.64-6.14a.25.25,0,0,0,.18-.3.19.19,0,0,0-.07-.12l-2.51-2.5a.28.28,0,0,0-.24-.07L610,482.63a.26.26,0,0,0-.17.32A.18.18,0,0,0,609.86,483Z"/><path class="cls-10" d="M635.3,476.66l2.4,2.4a.21.21,0,0,0,.2.05l5.05-1.35a.19.19,0,0,0,.14-.24.31.31,0,0,0-.05-.1l-2.5-2.44a.19.19,0,0,0-.2-.06l-5,1.38a.2.2,0,0,0-.08.36Z"/><path class="cls-10" d="M647.5,475.17l1.1,1.16a.17.17,0,0,0,.14,0l3.75-1a.15.15,0,0,0,.1-.19.16.16,0,0,0,0-.07l-1.33-1.25a.17.17,0,0,0-.15,0l-3.5,1.1a.15.15,0,1,0-.07.29Z"/><path class="cls-10" d="M650.69,472.65,652,474a.11.11,0,0,0,.15,0l3.43-1.18a.15.15,0,0,0,.1-.19.16.16,0,0,0,0-.07l-1.28-1.15a.18.18,0,0,0-.14,0l-3.47,1a.15.15,0,0,0-.13.17A.15.15,0,0,0,650.69,472.65Z"/><path class="cls-10" d="M653.22,475l-1-.76a.14.14,0,0,1,0-.21.13.13,0,0,1,.07-.05l3.42-1.18a.15.15,0,0,1,.16,0l1.06,1a.14.14,0,0,1,0,.2.13.13,0,0,1-.07,0l-3.56.92A.13.13,0,0,1,653.22,475Z"/><path class="cls-10" d="M656.72,472.91c.3.29.8.85,1,1a.12.12,0,0,0,.14,0l3.56-1a.13.13,0,0,0,.11-.17.12.12,0,0,0,0-.07l-1.26-1.15a.17.17,0,0,0-.14,0l-3.32,1.07a.14.14,0,0,0-.1.18A.16.16,0,0,0,656.72,472.91Z"/><path class="cls-10" d="M646.73,470.66l1.91,1.84a.12.12,0,0,0,.14,0l9.19-2.4a.15.15,0,0,0,0-.26L655.79,468a.15.15,0,0,0-.13,0l-8.87,2.4a.15.15,0,0,0-.11.18A.1.1,0,0,0,646.73,470.66Z"/><path class="cls-10" d="M646.1,467.82l2,1.76a.17.17,0,0,0,.14,0l6.91-1.6a.15.15,0,0,0,.11-.19.1.1,0,0,0-.05-.08l-2.26-1.89a.17.17,0,0,0-.14,0l-6.61,1.78a.15.15,0,0,0-.08.2Z"/><path class="cls-10" d="M646.74,464.81l1.86,1.66a.18.18,0,0,0,.14,0l3.54-.8a.15.15,0,0,0,.11-.18.1.1,0,0,0,0-.07l-2.21-1.91a.12.12,0,0,0-.14,0l-3.2,1a.15.15,0,0,0-.09.19Z"/><path class="cls-10" d="M641.88,463.17l1.81,1.6a.15.15,0,0,0,.13,0l5.6-1.33a.16.16,0,0,0,.12-.18.22.22,0,0,0,0-.08l-2.15-1.8a.12.12,0,0,0-.14,0l-5.28,1.48a.16.16,0,0,0,0,.31Z"/><path class="cls-7" d="M593.1,376.11a158.72,158.72,0,0,0-9.7,12.8,40.93,40.93,0,0,1-3.93,5.24c-2.07,2.19-4.66,3.83-6.78,6a39.64,39.64,0,0,0-5.91,8.63,59.63,59.63,0,0,0-3.2,6.27,31.61,31.61,0,0,0-1.4,20.29c.64,2.4,1.94,5.11,4.39,5.67,1.92.45,3.84-.57,5.52-1.6a12.76,12.76,0,0,0,4.73-4.12,13.47,13.47,0,0,0,1.37-5.05l2.11-15.4a17.55,17.55,0,0,1,1.11-4.8c1.21-2.75,3.72-4.71,6.35-6.16s5.47-2.53,8-4.18c2.35-1.53,4.38-3.53,6.73-5.07,2.89-1.9,6.24-3.07,8.87-5.3s4.42-6.11,2.8-9.16a10.6,10.6,0,0,0-2.89-3L606.13,373c-1.1-.88-3.36-3.54-4.75-3.72s-3.48,1.92-4.4,2.75A38.85,38.85,0,0,0,593.1,376.11Z"/><path class="cls-1" d="M575.54,352.7a17.63,17.63,0,0,1,3.2.8c1,.43,2,1.07,3.07,1.47a37.16,37.16,0,0,0,4.17,1,5.58,5.58,0,0,1,3.52,2.24,10.7,10.7,0,0,0-5.88,3.8,17.63,17.63,0,0,0-2.45,4.86,54.44,54.44,0,0,0-3.2,16.06,3.3,3.3,0,0,0,.72,2.7c-3.56-2.89-8.59-2.8-13.17-2.6a3.24,3.24,0,0,1-1.28-.1,2.92,2.92,0,0,1-1.13-.93,11.25,11.25,0,0,1-2.4-5.37c-.43-2.83.23-5.69.8-8.49a42.91,42.91,0,0,0,1-8.22c0-2.81-.85-5.09-1.31-7.77-.57-3.24,3-1.64,5-1.27Z"/></svg>