<svg id="b0225cde-a2d2-4693-8ce5-502a1e8a6144" xmlns="http://www.w3.org/2000/svg" xmlns:xlink="http://www.w3.org/1999/xlink" viewBox="0 0 1077.38 752.86"><defs><style>.cls-1{fill:#a1616a;}.cls-2{fill:none;stroke:#444053;stroke-miterlimit:10;}.cls-3{fill:url(#linear-gradient);}.cls-4{fill:#444053;}.cls-10,.cls-11,.cls-5{opacity:0.1;}.cls-11,.cls-5,.cls-7{isolation:isolate;}.cls-6{fill:#3f3d56;}.cls-7{opacity:0.05;}.cls-8{fill:#00004d;}.cls-11,.cls-9{fill:#5333ed;}.cls-12{fill:url(#linear-gradient-2);}.cls-13{fill:#fabdbd;}</style><linearGradient id="linear-gradient" x1="702.39" y1="41.42" x2="702.39" y2="341.87" gradientTransform="translate(952.18 635.78) rotate(180)" gradientUnits="userSpaceOnUse"><stop offset="0" stop-color="gray" stop-opacity="0.25"/><stop offset="0.54" stop-color="gray" stop-opacity="0.12"/><stop offset="1" stop-color="gray" stop-opacity="0.1"/></linearGradient><linearGradient id="linear-gradient-2" x1="317.89" y1="125.58" x2="405.38" y2="125.58" gradientTransform="translate(1154.27 635.78) rotate(180)" xlink:href="#linear-gradient"/></defs><title>W</title><path class="cls-1" d="M322.05,414.37c-3.9,1.48-12.9,1.64-16.9,1.64h-2l-2.57-5.24,2.57-4.37s2.36-.65,5.5-1.22c4.63-.83,11-1.48,14,.39C327.69,408.7,327.15,412.5,322.05,414.37Z"/><ellipse class="cls-2" cx="820.19" cy="612.72" rx="119.5" ry="24"/><path class="cls-3" d="M201.69,375.61a27.87,27.87,0,0,0,1.19,2.61v.11s5.66,20.91,8.31,25.3c.77,1.27,1.64,2.65,2.5,4a8.89,8.89,0,0,0,0,3c.8,4.66,1.77,11.07,1.33,12.48s.53,4.92-1,6.14-3.1,3.34,1.59,6.15c0,0,.88,2.37.09,2.9-.09.06,0,.19.22.36-1.29,3.82-3.18,10-2,10.44.65.25,2.41-.67,4.34-1.91.05.25.09.52.14.79a38.21,38.21,0,0,0,1.42,6.07c.86,1.91,1.72,5.13,1.26,6.19s1.26,3.42.86,4.35,1.33,4,1.33,4,1.72,5.86,1.65,7.84,1.86,14.75,1.86,14.75-2,6.59-1,8.5,1.65,8.5,0,10.94-3.72,7.83-3.05,9.28-.93,19.37,3.11,26.75a79.58,79.58,0,0,1,1.13,8.3c0,2,3.18,7.31,3.18,7.31s-1.92,8,2.79,9.35a4.9,4.9,0,0,0,1,.19,4.49,4.49,0,0,1-.34,2.58,10.19,10.19,0,0,0-1.68,3.72h0a1,1,0,0,0,.09.75c.53.59,2,8.5,2,8.5s2.12,8.89,13.79,6.72c0,0,7.89-.46,7.23-3.23a17.8,17.8,0,0,0-.86-2.68,17.64,17.64,0,0,1-.74-1.73c-.13-.66-1.79-2.51-1.92-3.76s-1.19-3.69-1-4.48-1.79-6.45-1.93-7.71a12.55,12.55,0,0,0-.75-2.56l.42-.2s1.06-5.93.14-8.1-4.58-5-4.58-5,.53-14.56-.13-16.54.33-9.48.33-9.48,2.25-10.61,2.12-13a11.1,11.1,0,0,1,.66-4.35s1.4-15.61,2.32-17.59,2-21.34,2-21.34l.62,1.78a69.25,69.25,0,0,0,3.1,7.83c.51.8,2,3.36,3.28,5.5l1.89,3.2s.86,3.1.26,5,6.17,12.18,6.17,12.18a6.21,6.21,0,0,0-.66,2.77c.19,1-2.06,4.15-2.06,4.15s-.86,2.83-.33,3.82-.86,6.85-.86,6.85-2.26,12.91-2.79,14.43.27,11.92.27,11.92-4.16,10.65-2.23,14.19c.08,1.31.09,3.31-.42,4.12-.69,1.08-.49,5.07-.42,6.17v.29s-2.26,3,.59,4.22,12.54,2.1,12.54,2.1,9.21,2.64,13.65,3.36,13.73.46,14.39-2.24a7,7,0,0,0,.24-2.58,3.18,3.18,0,0,0-1.83-2.56,74.39,74.39,0,0,0-8.36-2.77s-4.38-1-4.78-2.9-6.63-7.18-6.63-7.18-.07-.37-.2-.87h.2l-.3-.3c-.31-1-.81-2.32-1.42-2.07h0a1.5,1.5,0,0,1,.62-2l.06,0c2.39-1.31,3.85-5.46,3.18-9.94s-.79-3.69.6-6.26a12.3,12.3,0,0,0,1-6.19l3.67-13.68a20.54,20.54,0,0,0,1.06-5.2,9.6,9.6,0,0,1,1.06-4s1.66-9.49,3.12-11.66-1-9.82-1-9.82-2.25-11.85-2.12-17.26-5.84-24.17-5.84-24.17a6.26,6.26,0,0,1-.92-4.09c.12-1.12-.58-2.94-1.37-4.57l-.25-.51a4.51,4.51,0,0,1,1.09-1c1.64-1,2.41-3.63,2.42-5.48L258.79,383.5c0-.16,10.47-21.55,10.44-21.71-.62-3.51-6.54-12.82-6.54-12.82h0a.71.71,0,0,0-.25-.29c-1.33-.61-5.83-3.16-5.83-3.16-3.53-4.36-6.84-5.26-9-5.23a5.93,5.93,0,0,0-2,.31,4.27,4.27,0,0,0-.67.27l-.1.87a18.1,18.1,0,0,1,.47-6c.05-.17.1-.35.14-.52h1a16.12,16.12,0,0,0,16.17-16.07h0a16.32,16.32,0,0,0-.62-4.45l-.08-.23.5-.22c2-.74,4.51.52,6.13-.82a4.59,4.59,0,0,0,1.22-2.11,12.57,12.57,0,0,0,.89-3.35v-.6a.54.54,0,0,0,0-.18.81.81,0,0,0,0-.22v-.27h0a3.87,3.87,0,0,0-.86-2c-1.06-1.24-2.83-1.54-4.17-2.45a10.3,10.3,0,0,1-2.67-3.13,11.57,11.57,0,0,0-2.59-3.19,3.8,3.8,0,0,0-3.89-.61,4.29,4.29,0,0,1-1.28.6,2.79,2.79,0,0,1-1.41-.38c-4.6-2.15-10-1.77-15-1.13a19.43,19.43,0,0,0-5.91,1.42,7,7,0,0,0-4,4.33c-.41,1.55-.1,3.23-.59,4.76-.34,1-1,1.92-1.42,2.93a6.19,6.19,0,0,0-.38,1.65h0v.16c-.17,2.27.72,4.66,1.15,7,.59,3.19.29,6.66,1.66,9.68a6.12,6.12,0,0,0,.52,1.06c-.48,1-1,2.06-1.5,3.05-.74-.21-3-.71-3.08,1.27a10.69,10.69,0,0,1-1.1,4.64,2.75,2.75,0,0,1-.33.23.63.63,0,0,0-.37.65h0l-.26.2a.65.65,0,0,0-.32.11c-.14-.24-.6-.26-2.06,1.48a28.12,28.12,0,0,1-6.63,5.1s-9.82,6.85-10.35,10S200,371,201.69,375.61Zm43.12-33.42v-.11l.12.06Zm26.68,224a2.17,2.17,0,0,1-.84.17Z"/><path class="cls-4" d="M248.88,594.05c-11.53,2.16-13.63-6.68-13.63-6.68s-1.44-7.86-2-8.45a1,1,0,0,1-.09-.75h0a10.31,10.31,0,0,1,1.66-3.7c.72-.85.13-4.39.13-4.39l13.36-3.4a20.15,20.15,0,0,1,1.31,3.93c.14,1.24,2.1,6.88,1.9,7.66s.86,3.21,1,4.46,1.77,3.08,1.9,3.73a13.72,13.72,0,0,0,.72,1.73,16.47,16.47,0,0,1,.85,2.66C256.67,593.59,248.88,594.05,248.88,594.05Z"/><path class="cls-5" d="M248.88,594.05c-11.53,2.16-13.63-6.68-13.63-6.68s-1.44-7.86-2-8.45a1,1,0,0,1-.09-.75l2.77,8s2.3,4.79,10.81,4.06c4.85-.4,7.23-1.3,8.39-2a16.47,16.47,0,0,1,.85,2.66C256.67,593.59,248.88,594.05,248.88,594.05Z"/><path class="cls-5" d="M239.9,581.6s2.89.07,3.08-2.29Z"/><path class="cls-6" d="M290,504.17c-1.44,2.16-3.08,11.59-3.08,11.59a9.93,9.93,0,0,0-1,4,20.39,20.39,0,0,1-1,5.18l-3.79,13.56a12.26,12.26,0,0,1-1,6.15c-1.37,2.56-1.24,1.77-.59,6.23s-.78,8.58-3.14,9.89,1.05,4.39,1.05,4.39-15.07,4.06-18.22,1.57,1.64-14.8,1.64-14.8-.78-10.35-.26-11.86,2.75-14.35,2.75-14.35,1.38-5.83.85-6.81.33-3.8.33-3.8,2.23-3.15,2-4.13a6.09,6.09,0,0,1,.66-2.75s-6.68-10.22-6.1-12.12-.26-5-.26-5-.84-1.45-1.86-3.18c-1.24-2.13-2.74-4.67-3.25-5.47a70.09,70.09,0,0,1-3.05-7.78l-.62-1.78s-1,19.26-2,21.22-2.29,17.5-2.29,17.5a11,11,0,0,0-.66,4.32c.13,2.42-2.1,13-2.1,13s-1,7.47-.32,9.44.13,16.44.13,16.44,3.6,2.82,4.52,5-.13,8.06-.13,8.06-10.48,5.24-15.14,3.86-2.75-9.3-2.75-9.3-3.14-5.24-3.14-7.27a81.94,81.94,0,0,0-1.12-8.26c-4-7.34-2.42-25.15-3.07-26.6s1.37-6.81,3-9.23,1-9,0-10.88,1-8.45,1-8.45-1.9-12.71-1.83-14.67-1.64-7.8-1.64-7.8-1.7-3-1.31-3.93-1.31-3.28-.85-4.32-.4-4.26-1.25-6.16a39.88,39.88,0,0,1-1.4-6c-.4-2.26-.69-4.25-.69-4.25l10.81-8.71,27-7.08,10.24-3.33L277,441.09s1,1.63,1.93,3.51c.78,1.62,1.47,3.43,1.35,4.55a6.3,6.3,0,0,0,.92,4.06s5.89,18.67,5.76,24,2.1,17.17,2.1,17.17S291.46,502,290,504.17Z"/><path class="cls-5" d="M229.36,513.93s11.53-4.91,14.93-1.44S229.36,513.93,229.36,513.93Z"/><path class="cls-5" d="M235.84,515.89s-11.69,6.61-7.69,7.67S235.84,515.89,235.84,515.89Z"/><path class="cls-5" d="M270.69,510.2s-5,.32-3.08,1.31S270.69,510.2,270.69,510.2Z"/><path class="cls-5" d="M276.92,511.7c-.07.33-14.48,5-11.66,7.08S276.92,511.7,276.92,511.7Z"/><path class="cls-5" d="M231.06,551.79c2.16-.32,14.22-5.89,9.5-1.89A9.41,9.41,0,0,1,231.06,551.79Z"/><path class="cls-7" d="M262.48,351.67l1.14-1.31s5.85,9.26,6.46,12.76,1.4,7.51,1.4,7.51,1.48,4.54,2.45,6.55a22.39,22.39,0,0,1,1.92,4.8c.08.88-.35,2.8,1.48,4s2.27,4.54,2.27,4.54,6.64,6.47,10.14,6.64,13.53,1.92,13.19,3.67,4.19,2.8,6,3.23-11.78,5.7-3.78,12.43c0,0-5.07,1-5.59,2.27s-5.85-.7-5.85-.7-1.14-2.71-5.07-2.88-5.94-1.92-5.94-2.19-3.93-2.44-6.11-3.05-5.07-.88-5.16-1.49-13.1-56.78-13.1-56.78Z"/><path class="cls-5" d="M237,556.18s1,4.07,5,3.54S237,556.18,237,556.18Z"/><path class="cls-5" d="M233.68,564.44c.72-.2,9.3-4.13,9.5-2.29s-8.19,5-8.84,4.06A3.54,3.54,0,0,1,233.68,564.44Z"/><path class="cls-5" d="M261.46,559.72c1-.06,10.87-3.21,12.84-.39Z"/><path class="cls-5" d="M270.37,561.56s1.7-1.51,3.4-.72S270.37,561.56,270.37,561.56Z"/><path class="cls-5" d="M248.62,577.8a2.93,2.93,0,0,0,2.22,2.3Z"/><path class="cls-4" d="M298.6,584c-.65,2.69-9.83,2.95-14.21,2.23s-13.5-3.34-13.5-3.34-9.56-.92-12.38-2.1-.59-4.19-.59-4.19v-.28c-.07-1.1-.26-5.07.41-6.14.79-1.25.33-5.31.33-5.31s13.56,2.62,13.82,1.38,2.36-3,3.34-3.41,1.71,3.28,1.71,3.28,6.16,5.24,6.55,7.14,4.71,2.88,4.71,2.88a72.69,72.69,0,0,1,8.26,2.75,3.16,3.16,0,0,1,1.81,2.54A7.22,7.22,0,0,1,298.6,584Z"/><path class="cls-5" d="M298.6,584c-.65,2.69-9.83,2.95-14.21,2.23s-13.5-3.34-13.5-3.34-9.56-.92-12.38-2.1-.59-4.19-.59-4.19v-.28l13.71,3s6.75,2.88,11.07,2.88c3.78,0,12.23,1.55,16.16-.8A7.16,7.16,0,0,1,298.6,584Z"/><path class="cls-5" d="M280.06,573.61s-.65,4.32-3.27,5.77Z"/><path class="cls-8" d="M262.48,351.66l1.14-1.31s5.85,9.26,6.46,12.75,1.4,7.51,1.4,7.51,1.48,4.54,2.45,6.55a22,22,0,0,1,1.92,4.81c.08.87-.35,2.79,1.48,4s2.27,4.54,2.27,4.54,6.64,6.46,10.14,6.64,13.53,1.92,13.19,3.66,4.19,2.8,6,3.24-11.78,5.69-3.78,12.45c0,0-5.07,1-5.59,2.27s-5.85-.7-5.85-.7-1.14-2.71-5.07-2.88-5.94-1.92-5.94-2.18-3.93-2.45-6.11-3.06-5.07-.87-5.16-1.49-13.1-56.77-13.1-56.77Z"/><path class="cls-9" d="M743.29,586.43H608.89l-70.2-245.7-70.2,245.7H334.09l-120-420h117.3l71.7,281.7,75.6-281.7h121.5l75.6,282,71.7-282h115.8Z"/><path class="cls-1" d="M250.15,352.31c-.41-.17-28.91-11.94-25-14.28,2.33-1.39,5.2-7.27,7.16-11.88,1.37-3.21,2.3-5.81,2.3-5.81s22.88-4.06,14.69,10a26.22,26.22,0,0,0-2.89,6.91C244.05,346.75,249.92,352.13,250.15,352.31Z"/><path class="cls-5" d="M249.27,330.3a26.22,26.22,0,0,0-2.89,6.91,16,16,0,0,1-13.5-9.5,14.75,14.75,0,0,1-.6-1.56c1.37-3.21,2.3-5.81,2.3-5.81S257.46,316.28,249.27,330.3Z"/><path class="cls-1" d="M263.49,320.74a15.88,15.88,0,1,1-.62-4.43A16.17,16.17,0,0,1,263.49,320.74Z"/><path class="cls-5" d="M278.91,444.59a9.78,9.78,0,0,0-2.32,4.42s-7.86,5.37-7.34,2-4.1-17.2-4.1-17.2l.52,18.74s-25.15-1.18-27-3-12.52-5.39-12.52-5.39-3.29,2.64-6.32,4.64c-.4-2.26-.69-4.25-.69-4.25L230,435.84l27-7.08,10.14-3.26L277,441.09S278,442.71,278.91,444.59Z"/><path class="cls-4" d="M279.73,443.11c-2.09,1.31-2.88,4.85-2.88,4.85s-7.86,5.37-7.34,2-4.06-17.16-4.06-17.16l.53,18.74s-25.16-1.18-27-3-12.58-5.37-12.58-5.37-9.3,7.47-11,6.81,3-13.36,3-13.36l4.84-74.42s-1.31-22.14.66-22.93a2.72,2.72,0,0,0,.82-.52c1.3-1.16,1.69-3.52,1.8-5.51.13-2.35,3.27-1.18,3.27-1.18L228,334.42l16.24,9.87.14.09a18.75,18.75,0,0,1,2-.89c1.44-.55,3.35-1.07,4.6-.55a4.5,4.5,0,0,1,1.72,1.55,19.06,19.06,0,0,1,2.21,4.48l5.9,9.95s3,13.24,3,13.76.92,12.58,2,13.89,2.1,7.86,1.71,9.83.65,9.3.65,9.3c4.33,3.54,6.55,15.59,6.55,15.59s6.82,13.5,7.34,15.07S281.83,441.8,279.73,443.11Z"/><path class="cls-5" d="M244.22,344.76c-1.6,2.36-6.2,5.67-6.2,5.67l-13.28-11.21c1.3-1.16,1.69-3.53,1.8-5.51.13-2.36,3.27-1.18,3.27-1.18l-.38.49a2.12,2.12,0,0,0,.39,3l.18.13Z"/><path class="cls-4" d="M244.22,344.23c-1.6,2.36-6.2,5.68-6.2,5.68l-13.28-11.22c1.3-1.16,1.69-3.52,1.8-5.51.13-2.35,3.27-1.18,3.27-1.18l-.38.49a2.12,2.12,0,0,0,.39,3l.18.13Z"/><path class="cls-5" d="M250.36,346c-1.72,2.05-4.15,4.38-4,3.21s-1.45-3.74-2.44-4.89a7.26,7.26,0,0,1,4.76.13A4.55,4.55,0,0,1,250.36,346Z"/><path class="cls-4" d="M250.62,345.21c-1.72,2.06-4.15,4.38-4,3.22s-1.29-3.06-2.29-4.21c1.44-.55,3.35-1.07,4.6-.55A4.32,4.32,0,0,1,250.62,345.21Z"/><path class="cls-5" d="M224.75,339.34s.17-1.57-2.1,1.14a27.37,27.37,0,0,1-6.5,5s-9.69,6.82-10.22,10-3.67,16.77-2,21.31,14.33,26.3,14.33,26.3-3.32,3.93-2.54,8.56,1.75,11,1.31,12.4.53,4.89-1,6.11-3.05,3.32,1.58,6.12c0,0,.87,2.36.08,2.88s11.62,5.94,16.51,3.06,13.72-25.94,13.89-31.1-2.71-22.18-4.28-26.2-6.29-19.66-8.3-23.15S224.75,339.34,224.75,339.34Z"/><path class="cls-8" d="M224.22,339.34s.18-1.57-2.09,1.14a27.79,27.79,0,0,1-6.55,5.06s-9.7,6.82-10.22,10-3.67,16.77-2,21.31,14.32,26.3,14.32,26.3-3.32,3.93-2.53,8.56,1.75,11,1.31,12.4.52,4.89-1,6.11-3.06,3.32,1.57,6.12c0,0,.88,2.36.09,2.88s11.62,5.94,16.51,3.06,13.71-25.94,13.89-31.1S244.81,389,243.24,385s-6.29-19.66-8.3-23.15S224.22,339.34,224.22,339.34Z"/><path class="cls-5" d="M220.73,354.19s7.51,8.3,7.25,13.8C228,368,228.07,359.08,220.73,354.19Z"/><path class="cls-5" d="M246.08,342.31s4.87-3,11,4.63c0,0,4.45,2.53,5.76,3.15s2.8,16.85,2.8,16.85,2.88,7,2.09,11S270,395.76,270,395.76s5.06,24.81,4.89,25.5-5.16-7.77-5.07-12-4.19-17.3-4.8-18.08-4.81-23.24-4.81-23.24-3.4-9.52-5.59-12.66-4.89-9.09-6-10.14a11.44,11.44,0,0,0-2.7-1.74Z"/><path class="cls-8" d="M246,342.31s5.46-3,11.57,4.63c0,0,4.46,2.53,5.77,3.15s2.79,16.85,2.79,16.85,2.88,7,2.1,11,2.27,17.82,2.27,17.82,5.07,24.81,4.89,25.5-5.15-7.77-5.07-12-4.19-17.3-4.8-18.08-4.8-23.24-4.8-23.24-3.41-9.44-5.59-12.61-4.9-9.09-6-10.14a10.75,10.75,0,0,0-3.23-1.74Z"/><path class="cls-1" d="M270,396.9s10.39-6.81,15.41-3.45,13.24,8.13,5.16,11.58-19.26,2.79-19.26,2.79Z"/><path class="cls-5" d="M262.77,462.63c-1.55,3.33-2.83,20-3.7,25.32-1.24-2.13-2.74-4.67-3.25-5.47a70.09,70.09,0,0,1-3-7.78c1-2.4,3.71-9.28,3.71-11.8,0-3.08,5-6.95,5-6.95A5.78,5.78,0,0,1,262.77,462.63Z"/><path class="cls-5" d="M262.87,316.31a5.32,5.32,0,0,1-.78.32c-1.23.33-2.43-.5-3.52-1.16s-2.6-1.15-3.55-.29c-1.23,1.12-.34,3.51-1.61,4.59-.8.69-2.07.45-3,1s-1.16,1.8-1.39,2.86-.67,2.28-1.72,2.59-2-.37-3-.34a1,1,0,0,1-.6-.12.66.66,0,0,1-.1-.47,10.09,10.09,0,0,0-.34-3.79,3.62,3.62,0,0,0-2.66-2.5c-1.84-.28-3.39,1.33-4.47,2.85a46.67,46.67,0,0,0-3.09,5c0,.09-.1.21-.16.35a16,16,0,1,1,30-10.88Z"/><path class="cls-6" d="M236.15,321.6c1.08-1.52,2.63-3.13,4.47-2.85a3.63,3.63,0,0,1,2.66,2.49,10.11,10.11,0,0,1,.33,3.79.73.73,0,0,0,.11.48c.14.16.39.13.6.12,1,0,2.05.63,3,.34s1.5-1.53,1.72-2.59.47-2.28,1.39-2.86,2.17-.33,3-1c1.27-1.08.38-3.48,1.61-4.59,1-.86,2.46-.37,3.55.29s2.29,1.49,3.52,1.16a11.51,11.51,0,0,0,1.19-.51c1.95-.74,4.47.52,6.06-.81a4.68,4.68,0,0,0,1.21-2.1,12.9,12.9,0,0,0,.88-3.33,4.48,4.48,0,0,0-.88-3.26c-1-1.22-2.8-1.53-4.13-2.43a10.22,10.22,0,0,1-2.63-3.11,11.42,11.42,0,0,0-2.56-3.18,3.77,3.77,0,0,0-3.85-.6,3.93,3.93,0,0,1-1.26.59,2.53,2.53,0,0,1-1.39-.38c-4.54-2.14-9.83-1.76-14.81-1.12a19,19,0,0,0-5.84,1.41,7,7,0,0,0-3.94,4.31c-.4,1.54-.09,3.21-.58,4.73-.33,1-1,1.91-1.4,2.92-1.06,2.76.21,5.8.75,8.71.59,3.18.29,6.62,1.64,9.63.27.59.56,1.62,1.23,1.23.49-.29,1-2,1.25-2.49A48.28,48.28,0,0,1,236.15,321.6Z"/><path class="cls-5" d="M207.37,372.8,205,379.5s5.59,20.79,8.21,25.16,6.46,10,6.46,10a24,24,0,0,0,14,1.74c7.51-1.48,29.43-5.41,29.43-5.41a2.91,2.91,0,0,0,2.8-1.05c1-1.4,5.94-2.1,5.94-2.1s5.76-8.38-1.31-11.88c0,0-.87,1.93-4.63.61s-4.89,1.05-4.89,1.05-6.12,1.23-9.52.79-11.88-.61-12.76-1.31a1.12,1.12,0,0,0-1.57.08h0a9.63,9.63,0,0,1-2.79-1.58c-.7-.78-1.66.88-1.66.88s-1.23-.7-.88-1.57-1.13-4.2-1.13-4.2a8.57,8.57,0,0,1-.26-3.93c.43-1.75-2.19-8-2.19-8a11.54,11.54,0,0,1,.35-3.15c.44-1.57-3.32-4.72-3.32-4.72s-3.67-17.81-11.44-12A15.28,15.28,0,0,0,207.37,372.8Z"/><path class="cls-8" d="M206.84,372.8l-2.36,6.7s5.59,20.79,8.21,25.16,6.47,10,6.47,10a24,24,0,0,0,14,1.74c7.52-1.48,29.44-5.41,29.44-5.41a2.91,2.91,0,0,0,2.8-1.05c1-1.4,5.94-2.1,5.94-2.1S277.1,399.46,270,396c0,0-.88,1.93-4.63.61s-4.9,1.05-4.9,1.05-6.11,1.23-9.52.79-11.88-.61-12.75-1.31a1.12,1.12,0,0,0-1.57.08h0a9.68,9.68,0,0,1-2.8-1.58c-.7-.78-1.66.88-1.66.88s-1.22-.7-.87-1.57-1.14-4.2-1.14-4.2a8.57,8.57,0,0,1-.26-3.93c.44-1.75-2.18-8-2.18-8a10.81,10.81,0,0,1,.35-3.15c.43-1.57-3.32-4.72-3.32-4.72s-3.67-17.81-11.44-12A15.32,15.32,0,0,0,206.84,372.8Z"/><path class="cls-5" d="M228.42,393.06s-8.56,1.75-5.68,3.23S228.42,393.06,228.42,393.06Z"/><g class="cls-10"><path d="M243.26,319.76a3.59,3.59,0,0,0-2.66-2.49c-1.84-.28-3.39,1.33-4.47,2.84a48.42,48.42,0,0,0-3.1,5c-.28.52-.76,2.2-1.25,2.49-.67.39-1-.65-1.23-1.24-1.35-3-1-6.45-1.64-9.63a56.26,56.26,0,0,1-1.13-5.61c-.2,2.28.7,4.68,1.13,7,.59,3.18.29,6.62,1.64,9.63.27.59.56,1.62,1.23,1.23.49-.29,1-2,1.25-2.48a46.76,46.76,0,0,1,3.1-5c1.08-1.52,2.63-3.13,4.47-2.84a3.59,3.59,0,0,1,2.66,2.49,6.78,6.78,0,0,1,.35,2A9,9,0,0,0,243.26,319.76Z"/><path d="M270.55,311.5a4.65,4.65,0,0,1-1.21,2.09c-1.59,1.33-4.11.08-6.06.82-.4.15-.77.39-1.19.51-1.23.32-2.43-.5-3.52-1.16s-2.6-1.16-3.55-.3c-1.23,1.12-.34,3.51-1.61,4.59-.8.69-2.07.45-3,1s-1.16,1.79-1.39,2.85-.67,2.28-1.72,2.59-2-.37-3-.33a1,1,0,0,1-.6-.12.33.33,0,0,1-.07-.13v1a.72.72,0,0,0,.11.47c.14.16.39.13.6.13,1,0,2,.62,3,.33s1.5-1.52,1.72-2.59.47-2.27,1.39-2.85,2.17-.33,3-1c1.27-1.08.38-3.47,1.61-4.59.95-.86,2.46-.37,3.55.29s2.29,1.49,3.52,1.16a12.45,12.45,0,0,0,1.19-.5c1.95-.74,4.47.51,6.06-.82a4.65,4.65,0,0,0,1.21-2.09,12.87,12.87,0,0,0,.88-3.34,4.58,4.58,0,0,0,0-1.17A14.63,14.63,0,0,1,270.55,311.5Z"/></g><ellipse class="cls-9" cx="263.69" cy="610.22" rx="40.92" ry="7.87"/><ellipse class="cls-6" cx="263.01" cy="606.88" rx="4.76" ry="6.24"/><ellipse class="cls-6" cx="263.01" cy="599.26" rx="4.76" ry="6.24"/><ellipse class="cls-6" cx="263.01" cy="591.64" rx="4.76" ry="6.24"/><ellipse class="cls-6" cx="263.01" cy="584.01" rx="4.76" ry="6.24"/><ellipse class="cls-6" cx="263.01" cy="576.39" rx="4.76" ry="6.24"/><ellipse class="cls-6" cx="263.01" cy="568.77" rx="4.76" ry="6.24"/><ellipse class="cls-6" cx="263.01" cy="561.15" rx="4.76" ry="6.24"/><path class="cls-9" d="M280.84,509a23.13,23.13,0,0,0,1.77-2.62l-12.51-2.05,13.53.1a22.86,22.86,0,0,0,.44-18.08l-18.16,9.42,16.78-12.33A22.82,22.82,0,1,0,245,509a22.33,22.33,0,0,0-2.6,4.16l16.24,8.44-17.32-5.82A22.78,22.78,0,0,0,245,537.18a22.82,22.82,0,1,0,35.87,0,22.82,22.82,0,0,0,0-28.21Z"/><path class="cls-5" d="M240.08,523.09A22.72,22.72,0,0,0,245,537.2a22.82,22.82,0,1,0,35.87,0C283.9,533.32,240.08,520.53,240.08,523.09Z"/><ellipse class="cls-9" cx="948.69" cy="683.22" rx="40.92" ry="7.87"/><ellipse class="cls-6" cx="948.01" cy="679.88" rx="4.76" ry="6.24"/><ellipse class="cls-6" cx="948.01" cy="672.26" rx="4.76" ry="6.24"/><ellipse class="cls-6" cx="948.01" cy="664.64" rx="4.76" ry="6.24"/><ellipse class="cls-6" cx="948.01" cy="657.01" rx="4.76" ry="6.24"/><ellipse class="cls-6" cx="948.01" cy="649.39" rx="4.76" ry="6.24"/><ellipse class="cls-6" cx="948.01" cy="641.77" rx="4.76" ry="6.24"/><ellipse class="cls-6" cx="948.01" cy="634.15" rx="4.76" ry="6.24"/><path class="cls-9" d="M965.84,582a23.13,23.13,0,0,0,1.77-2.62l-12.51-2,13.53.1a22.86,22.86,0,0,0,.44-18.08l-18.16,9.42,16.78-12.33A22.82,22.82,0,1,0,930,582a22.33,22.33,0,0,0-2.6,4.16l16.24,8.44-17.32-5.82A22.78,22.78,0,0,0,930,610.18a22.82,22.82,0,1,0,35.87,0,22.82,22.82,0,0,0,0-28.21Z"/><path class="cls-5" d="M925.08,596.09A22.72,22.72,0,0,0,930,610.2a22.82,22.82,0,1,0,35.87,0C968.9,606.32,925.08,593.53,925.08,596.09Z"/><circle class="cls-11" cx="413.12" cy="138.34" r="15.27"/><circle class="cls-11" cx="467.75" cy="70.25" r="25.6"/><circle class="cls-11" cx="433.87" cy="194.47" r="25.6"/><circle class="cls-11" cx="972.62" cy="322.34" r="15.27"/><circle class="cls-11" cx="917.98" cy="254.25" r="25.6"/><circle class="cls-11" cx="951.87" cy="378.47" r="25.6"/><circle class="cls-11" cx="109.46" cy="350" r="8.65"/><circle class="cls-11" cx="146.54" cy="317.26" r="14.5"/><circle class="cls-11" cx="77.14" cy="339.75" r="14.5"/><circle class="cls-11" cx="750.46" cy="298" r="8.65"/><circle class="cls-11" cx="787.54" cy="265.26" r="14.5"/><circle class="cls-11" cx="718.14" cy="287.75" r="14.5"/><circle class="cls-11" cx="225.27" cy="186.97" r="36.25"/><circle class="cls-11" cx="432.27" cy="306.97" r="20.92"/><circle class="cls-11" cx="639.27" cy="442.97" r="20.92"/><ellipse class="cls-2" cx="263.69" cy="613.22" rx="119.5" ry="24"/><ellipse class="cls-2" cx="948.69" cy="684.22" rx="119.5" ry="24"/><ellipse class="cls-2" cx="128.69" cy="684.22" rx="119.5" ry="24"/><path class="cls-12" d="M749,563c.17,2.58.57,5.29,2.2,7.31,2.7,3.34,7.61,3.6,11.81,4.65a51.66,51.66,0,0,1,9.34,3.68l9.09,4.3a23.43,23.43,0,0,0-6.82,1.42c-1.17.43-2.45,1.14-2.62,2.36a2.51,2.51,0,0,0,1.51,2.42,7.16,7.16,0,0,0,3,.53,100.89,100.89,0,0,0,16.2-.85l.64-.09q4.14,2.06,8.24,4.19c1.14.6,2.51,0,3.47-.84a18.8,18.8,0,0,0,3.08-3.52c.16.28.32.55.45.82.88,1.69,1.71,3.9.45,5.34-1,1.12-2.89,1.31-3.46,2.67a2.4,2.4,0,0,0,.93,2.71,6.18,6.18,0,0,0,2.91,1,25.83,25.83,0,0,0,7.45-.06,6,6,0,0,0,3.6-1.53,6.6,6.6,0,0,0,1.28-4l1.71-19.43a6,6,0,0,0-.2-2.76c-.68-1.65-2.65-2.34-4.43-2.63h-.19c1.48,0,3-.07,4.6-.07a11.08,11.08,0,0,0,4.12-.52c2.54-1,3.91-3.67,5-6.13,2-4.32,4.3-9,4-13.8l-.78-.35c-.07-5.11-2.21-9.88-3-14.87a8.34,8.34,0,0,0,1.33-4.5,17,17,0,0,0-1.13-5.12c-3.17-9.42-6.34-18.87-10.58-27.87a97.31,97.31,0,0,0-10-17c-1-1.33-2.08-2.67-3.18-4-.8-.92-2.59-2.22-2.92-3.39s.37-2.31,0-3.51a7.17,7.17,0,0,0-.36-.91c2.34-3.1,1.68-7.58.86-11.44l-1-4.81a13.4,13.4,0,0,0-1.24-3.81,11.47,11.47,0,0,0-2.39-2.71c-4.92-4.44-11-7.39-16.53-11.07-5.85-3.89-11.08-8.62-16.32-13.29-1.6-1.42-3.61-2.95-5.68-2.35s-2.93,2.84-3,4.88a10,10,0,0,0,3.25,7.54c3.62,3.31,9.09,3.58,13.4,5.92a31.35,31.35,0,0,1,4.21,2.93l12.52,9.83a4.39,4.39,0,0,1,1.95,2.54,4.16,4.16,0,0,1-.3,1.88c-.47,1.44-1.27,3.25-1.86,5.08l-1-.72a39.6,39.6,0,0,0-6.63-4,32.89,32.89,0,0,0-9.71-2.33c-7.39-.83-14,.31-18.52,6.48a13.85,13.85,0,0,1-3.51,3.61,12.63,12.63,0,0,0-2.85,1.81c-2.32,2.57-1,6.83,1.18,9a14,14,0,0,0,6.58,3.43,13.52,13.52,0,0,0,16.42,7.36,21,21,0,0,1,.09,3.88,4.45,4.45,0,0,0,1.41,3.59,5.63,5.63,0,0,0,1.72.8,26.41,26.41,0,0,1,6.23,3.25,32,32,0,0,0-5.52,8.25,13.39,13.39,0,0,0,1,12.48l.06.08a4.18,4.18,0,0,1-.91,1.68,3,3,0,0,1-4.13-.42,15.21,15.21,0,0,1-2.16-3.33,13.93,13.93,0,0,0-9-6.36,7.24,7.24,0,0,0-4.15.17,3.64,3.64,0,0,0-2.41,3.12c0,1.51,1.1,2.76,2.18,3.83a63.14,63.14,0,0,0,11,9.1,35.41,35.41,0,0,0,3.37,1.84l-5.92-1.23a26.69,26.69,0,0,0-8.35-.73,9.29,9.29,0,0,0-7,4.08,8.94,8.94,0,0,0-.65,6.8,22.59,22.59,0,0,0,3.07,6.3,44.42,44.42,0,0,0,7.67,9.6c-2.5.75-5,1.57-7.44,2.47s-5,2-6.12,4.24A9.66,9.66,0,0,0,749,563Zm36.81-34h.09a3.2,3.2,0,0,0,1.31-1.11,18.2,18.2,0,0,0,3.16-6.84,7.71,7.71,0,0,0,1.7-.43,3.76,3.76,0,0,0-1.18,2.76l5.64,2.76a2.15,2.15,0,0,1,1,.79,2.06,2.06,0,0,1,.11,1.18c-.16,1.29-.41,2.58-.57,3.86-1.69-.5-3.35-.9-4.84-1.3-2.12-.58-4.27-1.12-6.42-1.66Z"/><path class="cls-13" d="M786.86,475.89a10.8,10.8,0,0,0,8.4-1.35,5.07,5.07,0,0,1,1.63-.76,3.33,3.33,0,0,1,2.78,1.11c2.4,2.39,2.68,6.33,1.44,9.48s-3.73,5.63-6.34,7.78a57.55,57.55,0,0,1-6.67,4.74,12.39,12.39,0,0,0-6.84-6.65c-2.74-1.06-4.74-3.9-6.31-6.38-1.17-1.84-2.21-1.76-1.16-3.66a27.63,27.63,0,0,1,4.16-5,16.39,16.39,0,0,0,2.24-3c.7-1.26.54-2.08,1.62-1.08.71.66,1,2.09,1.82,2.86A8,8,0,0,0,786.86,475.89Z"/><path class="cls-13" d="M795.45,456.39a3.22,3.22,0,0,0-1.62-4.36l-12.23-9.7a30.62,30.62,0,0,0-4.1-2.89c-4.22-2.31-9.55-2.58-13.09-5.84a10,10,0,0,1-3.18-7.45c0-2,1-4.26,2.89-4.82s4,.92,5.56,2.33c5.11,4.6,10.21,9.27,15.92,13.11,5.4,3.64,11.35,6.54,16.16,10.93a11.14,11.14,0,0,1,2.23,2.61,13.84,13.84,0,0,1,1.21,3.77l1,4.74c.84,4,1.52,8.65-1.17,11.72a4.29,4.29,0,0,1-3.26,1.61,6.36,6.36,0,0,1-2.51-.86c-2-1-5.62-2-6.23-4.5C792.25,463.66,794.5,459.29,795.45,456.39Z"/><path class="cls-13" d="M775.94,518.89a15.54,15.54,0,0,1-2.11-3.28,13.64,13.64,0,0,0-8.78-6.28,7.08,7.08,0,0,0-4,.16,3.59,3.59,0,0,0-2.35,3.09c0,1.48,1.07,2.72,2.12,3.77a61.41,61.41,0,0,0,10.76,9,28.37,28.37,0,0,0,13.09,4.54,3.33,3.33,0,0,0,1.4-.13,3.21,3.21,0,0,0,1.28-1.09c2.48-3.18,3.34-7.31,4-11.28-.24,1.43-8.29-1.91-9.2-1.48-1.34.63-1.21,2.51-2.18,3.41A2.89,2.89,0,0,1,775.94,518.89Z"/><path class="cls-13" d="M834.59,550.31a2.8,2.8,0,0,1-.28,1.45c-.55.86-1.79.87-2.8.72a50.46,50.46,0,0,1-6.89-1.66l-20.53-5.93a1.46,1.46,0,0,1-1.29-1.33,23.94,23.94,0,0,1-.45-9,2.31,2.31,0,0,1,.41-1.21,2.38,2.38,0,0,1,1.7-.64,86.77,86.77,0,0,1,9.68-.44,49,49,0,0,0,6.29-.14c2.7-.32,5.81-1.87,8.52-1.63,2.35.2,2.25,2,2.49,4C832.11,539.81,834.54,544.89,834.59,550.31Z"/><path class="cls-6" d="M769,525.94a25.51,25.51,0,0,0-8.16-.73,9.07,9.07,0,0,0-6.83,4,8.88,8.88,0,0,0-.64,6.72,22.85,22.85,0,0,0,3,6.21,40.67,40.67,0,0,0,8.77,10.56c1.75,1.39,3.68,2.54,5.36,4,3.58,3.13,5.8,7.5,7.93,11.75,2,4,4,8.08,4.86,12.48a1.24,1.24,0,0,0,.43.89,1.19,1.19,0,0,0,.89.06l9.85-1.82a1.53,1.53,0,0,0,1.6-1.47,1.64,1.64,0,0,0-.22-.87,69,69,0,0,0-11.75-25.41A22.54,22.54,0,0,0,804,558.05a7.85,7.85,0,0,0,3.76-1.63c2.2-2,2.1-5.41,1.61-8.32a61.07,61.07,0,0,0-1.82-7.67c-1.85-6-9.83-7.62-15.24-9.08Q780.74,528.31,769,525.94Z"/><path class="cls-5" d="M776.33,547.2a10.92,10.92,0,0,1,3.74,2.48c-1.77-2-6.83-3-9.31-3.93-3.07-1.14-6.42-2.31-9-4.34A107.5,107.5,0,0,1,776.33,547.2Z"/><path class="cls-9" d="M808.23,589.35c.85,1.68,1.66,3.85.44,5.28-.94,1.1-2.82,1.29-3.38,2.63a2.38,2.38,0,0,0,.91,2.68,5.89,5.89,0,0,0,2.84,1,25.37,25.37,0,0,0,7.28-.06,5.91,5.91,0,0,0,3.51-1.51,6.6,6.6,0,0,0,1.25-4l1.67-19.18a6.15,6.15,0,0,0-.19-2.73c-.67-1.63-2.59-2.3-4.33-2.59a23.26,23.26,0,0,0-5.89-.24,6.21,6.21,0,0,0-3.67,1.26,7,7,0,0,0-1.73,4c-.45,2.28-1.71,5.44-1.44,7.75C805.67,585.55,807.39,587.67,808.23,589.35Z"/><path class="cls-9" d="M786.15,583.15A23.33,23.33,0,0,0,775,584.4c-1.14.42-2.39,1.13-2.56,2.33a2.48,2.48,0,0,0,1.48,2.39,6.88,6.88,0,0,0,2.94.53,99.7,99.7,0,0,0,15.82-.84,8.49,8.49,0,0,0,3.85-1.21,3,3,0,0,0,1.21-3.56c-.63-1.32-2.35-1.73-3.18-2.92-.6-.86-.75-2.13-1.69-2.58a2.86,2.86,0,0,0-2.15.16c-1,.35-3.4.7-4.09,1.53A11.2,11.2,0,0,0,786.15,583.15Z"/><circle class="cls-13" cx="771.99" cy="473.25" r="13.13"/><path class="cls-9" d="M803.13,467.47c-2.11-1.55-4.77-2.08-7.34-2.56a2.86,2.86,0,0,0-3.91,1.69,14.17,14.17,0,0,0-1.74,4.15,4.8,4.8,0,0,0,1,4.23c.78.8,1.9,1.2,2.7,2A5,5,0,0,1,795,481.3a13.19,13.19,0,0,1-1.75,4.27,72.33,72.33,0,0,1-6.58,9.68c-2.55,3.17-5.41,6.22-6.91,10a13.36,13.36,0,0,0,1,12.32c2.43,3.54,7.27,5.44,11.28,3.91a3.67,3.67,0,0,0-1.14,2.72l5.5,2.73a2.13,2.13,0,0,1,1,.78,2.09,2.09,0,0,1,.1,1.16,35.39,35.39,0,0,0-.67,6.73c.15,2.25,1.18,4.62,3.22,5.6,1.87.9,4.09.42,6.13,0a76.42,76.42,0,0,1,14.47-1.52c2.42,0,4.92.06,7.15-.88a8.51,8.51,0,0,0,5.07-7.69,16.56,16.56,0,0,0-1.11-5.06c-3.09-9.3-6.19-18.62-10.33-27.51a97.29,97.29,0,0,0-9.81-16.8c-1-1.33-2-2.64-3.11-3.91-.78-.91-2.53-2.19-2.85-3.35s.36-2.28,0-3.46A7,7,0,0,0,803.13,467.47Z"/><path class="cls-6" d="M835.35,550.58c-5.76-2.66-11.52-5.32-17.51-7.39-4.41-1.52-9.33-2.71-13.66-1-1.3.52-2.48,1.27-3.73,1.88-4.19,2-9,2.34-13.63,2.85a128,128,0,0,0-30.15,7.17c-2.33.86-4.84,2-6,4.18a9.51,9.51,0,0,0-.64,5c.17,2.55.56,5.23,2.15,7.22,2.64,3.3,7.43,3.55,11.53,4.59a50.24,50.24,0,0,1,9.13,3.64c9.58,4.57,19.17,9.14,28.57,14.09,1.1.59,2.44,0,3.38-.83a20.87,20.87,0,0,0,5.9-9.72,42.1,42.1,0,0,0,1.5-11.38c3.68,0,6.67-.16,10.35-.16a10.86,10.86,0,0,0,4-.51c2.47-1,3.81-3.63,4.92-6.05C833.44,559.89,835.67,555.26,835.35,550.58Z"/><path class="cls-5" d="M768.47,564.25C771.06,563,774.06,563,777,563a28.12,28.12,0,0,1,5.26.4,41.71,41.71,0,0,1,7.69,2.89,48.79,48.79,0,0,0,19.38,3.8"/><path class="cls-6" d="M753.53,475.11a14.32,14.32,0,0,0,7.08,3.55c2.6.6,5.28.83,7.9,1.41,3.22.71,6.74,2.41,7.47,5.63a19.45,19.45,0,0,1,.1,3.89,4.37,4.37,0,0,0,1.35,3.51,6,6,0,0,0,1.68.79,28,28,0,0,1,18,25.84,12.76,12.76,0,0,0,6.18-9.12c0,3.48,3,7,1.3,10.11a16,16,0,0,0,4.64-22.15c-.25-.38-.52-.74-.79-1.1-1.32-1.68-3-3.08-4.38-4.69a21.74,21.74,0,0,1-5.18-16.6c.29-2.53,1-5.09.47-7.58-.77-3.45-3.8-5.85-6.68-7.9a39.32,39.32,0,0,0-6.48-3.94,32.09,32.09,0,0,0-9.49-2.31c-7.21-.81-13.62.31-18.09,6.4a13.32,13.32,0,0,1-3.42,3.56,12.52,12.52,0,0,0-2.79,1.79C750.11,468.74,751.41,472.94,753.53,475.11Z"/></svg>