<svg height="259" viewBox="0 0 1458 259" width="1458" xmlns="http://www.w3.org/2000/svg"><path d="m1456.972 129.248c0 24.828-61.63 35.76-140.6 54.79-40.64 9.795-85.395 42.992-141.553 50.36-45.127 5.92-97.244-13.819-150.258-9.819-46.915 3.54-95.17 31.142-146.857 32.945-47.893 1.671-97.986-22.361-148.885-22.361-50.897 0-100.99 24.032-148.88 22.361-51.69-1.803-99.945-29.406-146.863-32.945-53.016-4-105.133 15.738-150.262 9.817-56.158-7.367-100.913-40.564-141.553-50.359-78.966-19.032-140.594-29.962-140.594-54.79 0-24.827 61.63-35.758 140.601-54.79 40.64-9.796 85.395-42.991 141.552-50.358 45.129-5.921 97.243 13.818 150.258 9.817 46.916-3.539 95.17-31.141 146.858-32.945 47.892-1.67 97.985 22.362 148.883 22.362 50.897 0 100.991-24.033 148.882-22.362 51.689 1.803 99.945 29.406 146.862 32.945 53.016 4 105.133-15.738 150.26-9.817 56.16 7.368 100.915 40.564 141.554 50.36 78.967 19.03 140.595 29.96 140.595 54.789z" fill="none" opacity=".3" stroke="#5262fc"/></svg>