<svg height="132" viewBox="0 0 738 132" width="738" xmlns="http://www.w3.org/2000/svg"><path d="m737.119 65.64c0 12.532-31.528 17.72-71.39 27.327-20.512 4.945-42.98 22.365-71.325 26.085-22.78 2.987-49.155-7.65-75.916-5.63-23.68 1.786-48 16.395-74.09 17.305-24.175.843-49.473-11.964-75.166-11.964-25.69 0-50.989 12.807-75.162 11.964-26.092-.91-50.412-15.519-74.095-17.305-26.76-2.02-53.138 8.617-75.917 5.629-28.347-3.72-50.814-21.14-71.327-26.085-39.859-9.606-71.384-14.795-71.384-27.326 0-12.532 31.527-17.721 71.388-27.328 20.513-4.944 42.98-22.365 71.327-26.084 22.778-2.987 49.154 7.648 75.914 5.63 23.681-1.788 48.001-16.396 74.09-17.308 24.175-.842 49.475 11.965 75.166 11.965 25.692 0 50.99-12.807 75.163-11.965 26.093.91 50.412 15.52 74.094 17.307 26.762 2.019 53.138-8.617 75.919-5.63 28.347 3.72 50.813 21.14 71.327 26.085 39.858 9.607 71.384 14.795 71.384 27.327z" fill="none" stroke="#5262fc"/></svg>