<svg height="195" viewBox="0 0 1098 195" width="1098" xmlns="http://www.w3.org/2000/svg"><path d="m1097.044 97.444c0 18.68-46.578 26.74-105.995 41.06-30.576 7.368-64.188 32.677-106.44 38.22-33.953 4.454-73.199-10.733-113.085-7.724-35.299 2.663-71.585 23.77-110.475 25.125-36.033 1.258-73.73-17.162-112.025-17.162-38.293 0-75.989 18.42-112.02 17.163-38.892-1.357-75.18-22.463-110.48-25.126-39.888-3.009-79.135 12.177-113.09 7.723-42.252-5.543-75.863-30.852-106.439-38.221-59.413-14.32-105.99-22.379-105.99-41.058 0-18.68 46.58-26.74 105.995-41.06 30.577-7.37 64.187-32.678 106.44-38.22 33.953-4.454 73.199 10.733 113.085 7.724 35.3-2.665 71.585-23.77 110.475-25.128 36.033-1.257 73.729 17.164 112.024 17.164s75.99-18.42 112.022-17.164c38.891 1.357 75.178 22.462 110.48 25.127 39.887 3.009 79.135-12.178 113.088-7.724 42.253 5.543 75.865 30.852 106.44 38.221 59.414 14.32 105.99 22.38 105.99 41.059z" fill="none" opacity=".7" stroke="#5262fc"/></svg>