<svg height="243" viewBox="0 0 1368 243" width="1368" xmlns="http://www.w3.org/2000/svg"><path d="m1366.741 121.297c0 23.291-57.867 33.504-131.95 51.358-38.123 9.188-80.092 40.413-132.774 47.325-42.335 5.554-91.232-13.047-140.965-9.295-44.011 3.32-89.273 29.298-137.76 30.99-44.929 1.567-91.923-21.063-139.67-21.063s-94.74 22.63-139.666 21.063c-48.49-1.692-93.754-27.67-137.768-30.99-49.733-3.753-98.633 14.848-140.968 9.294-52.682-6.912-94.65-38.137-132.775-47.325-74.078-17.854-131.942-28.067-131.942-51.357 0-23.291 57.866-33.504 131.95-51.359 38.122-9.187 80.091-40.411 132.773-47.324 42.334-5.554 91.232 13.047 140.964 9.295 44.012-3.319 89.274-29.298 137.762-30.989 44.928-1.57 91.922 21.06 139.67 21.06 47.746 0 94.74-22.63 139.665-21.062 48.49 1.692 93.754 27.67 137.767 30.99 49.734 3.752 98.633-14.849 140.969-9.295 52.683 6.914 94.651 38.138 132.774 47.326 74.08 17.855 131.944 28.067 131.944 51.357z" fill="none" opacity=".4" stroke="#5262fc"/></svg>