<svg height="148" viewBox="0 0 827 148" width="827" xmlns="http://www.w3.org/2000/svg"><path d="m826.35 73.59c0 14.07-35.29 19.976-80.04 30.76-23.029 5.55-48.282 24.944-80.104 29.119-25.573 3.354-55.168-8.42-85.209-6.153-26.585 2.007-53.897 18.238-83.186 19.26-27.14.948-55.537-13.263-84.38-13.263s-57.24 14.21-84.378 13.263c-29.291-1.02-56.604-17.253-83.191-19.26-30.042-2.266-59.637 9.507-85.21 6.152-31.824-4.175-57.076-23.568-80.105-29.119-44.747-10.784-80.037-16.689-80.037-30.758 0-14.07 35.29-19.976 80.04-30.761 23.03-5.55 48.282-24.944 80.106-29.118 25.572-3.355 55.165 8.418 85.207 6.153 26.586-2.007 53.897-18.24 83.187-19.261 27.14-.947 55.537 13.264 84.38 13.264s57.24-14.21 84.378-13.264c29.291 1.022 56.603 17.254 83.19 19.26 30.043 2.266 59.638-9.506 85.21-6.15 31.825 4.173 57.078 23.567 80.107 29.117 44.746 10.785 80.035 16.69 80.035 30.76z" fill="none" stroke="#5262fc"/></svg>