<svg height="163" viewBox="0 0 918 163" width="918" xmlns="http://www.w3.org/2000/svg"><path d="m916.582 81.541c0 15.606-39.053 22.23-88.693 34.194-25.544 6.156-53.584 27.521-88.883 32.152-28.365 3.72-61.177-9.19-94.5-6.677-29.49 2.226-59.792 20.083-92.282 21.215-30.104 1.051-61.6-14.562-93.595-14.562-31.994 0-63.49 15.613-93.593 14.562-32.49-1.132-62.795-18.99-92.287-21.215-33.324-2.514-66.136 10.398-94.503 6.677-35.3-4.632-63.338-25.996-88.883-32.153-49.636-11.963-88.687-18.588-88.687-34.193s39.053-22.23 88.692-34.193c25.545-6.157 53.584-27.522 88.883-32.153 28.366-3.72 61.177 9.19 94.5 6.677 29.49-2.226 59.793-20.082 92.282-21.216 30.105-1.05 61.601 14.563 93.596 14.563 31.992 0 63.489-15.613 93.591-14.563 32.492 1.134 62.796 18.99 92.288 21.216 33.324 2.514 66.137-10.397 94.503-6.676 35.3 4.63 63.34 25.996 88.883 32.152 49.636 11.964 88.688 18.588 88.688 34.193z" fill="none" opacity=".9" stroke="#5262fc"/></svg>