<svg height="101" viewBox="0 0 558 101" width="558" xmlns="http://www.w3.org/2000/svg"><path d="m556.652 50.737c0 9.458-24.002 13.21-54.085 20.461-15.481 3.731-32.376 17.209-53.77 20.015-17.193 2.255-37.134-6.105-57.33-4.582-17.872 1.35-36.207 12.709-55.898 13.396-18.246.637-37.345-9.365-56.736-9.365-19.39 0-38.489 10.002-56.734 9.365-19.691-.687-38.028-12.047-55.902-13.396-20.197-1.523-40.14 6.837-57.332 4.582-21.393-2.806-38.288-16.284-53.77-20.016-30.081-7.25-54.081-11.002-54.081-20.46 0-9.46 24-13.212 54.084-20.462 15.483-3.732 32.378-17.21 53.771-20.016 17.192-2.254 37.133 6.106 57.329 4.582 17.872-1.349 36.208-12.709 55.898-13.395 18.246-.637 37.345 9.364 56.737 9.364 19.39 0 38.489-10 56.733-9.364 19.693.686 38.03 12.046 55.903 13.395 20.196 1.524 40.138-6.836 57.331-4.58 21.395 2.806 38.29 16.283 53.77 20.015 30.082 7.25 54.082 11.003 54.082 20.46z" fill="none" stroke="#5262fc"/></svg>