<?xml version="1.0" encoding="utf-8"?>
<!-- Generator: Adobe Illustrator 21.1.0, SVG Export Plug-In . SVG Version: 6.00 Build 0)  -->
<svg version="1.1" id="Layer_1" xmlns="http://www.w3.org/2000/svg" xmlns:xlink="http://www.w3.org/1999/xlink" x="0px" y="0px"
	 viewBox="0 0 80 80" style="enable-background:new 0 0 80 80;" xml:space="preserve">
<style type="text/css">
	.st0{fill:none;}
	.st1{fill:#8ED6FB;}
	.st2{fill:#1C78C0;}
</style>
<g id="_x2D_">
	<g id="NL_pipeline_actions" transform="translate(-1062.000000, -759.000000)">
		<g id="icons_x2F_actions_x2F_webpack" transform="translate(1040.000000, 739.000000)">
			<rect id="Rectangle-10" x="22" y="20" class="st0" width="80" height="80"/>
			<g id="Group-2" transform="translate(22.000000, 20.000000)">
				<path id="Shape" class="st1" d="M57.2,50.8L41,59.9v-7.1l10.1-5.5L57.2,50.8L57.2,50.8z M58.3,49.8V30.7l-5.9,3.4v12.3
					L58.3,49.8L58.3,49.8z M23.5,50.8l16.1,9.1v-7.1l-10.1-5.5L23.5,50.8L23.5,50.8z M22.4,49.8V30.7l5.9,3.4v12.3L22.4,49.8z
					 M23.1,29.5l16.5-9.4V27L29,32.8h-0.1L23.1,29.5L23.1,29.5z M57.6,29.5L41,20.1V27l10.6,5.8h0.1L57.6,29.5z"/>
				<path id="Shape_1_" class="st2" d="M39.6,51.2l-9.9-5.5V34.9l9.9,5.7V51.2z M41,51.2l9.9-5.5V34.9L41,40.6V51.2z M30.4,33.7
					l10-5.5l10,5.5l-10,5.7L30.4,33.7L30.4,33.7z"/>
			</g>
		</g>
	</g>
</g>
</svg>
