<svg id="Layer_1" data-name="Layer 1" xmlns="http://www.w3.org/2000/svg" xmlns:xlink="http://www.w3.org/1999/xlink" viewBox="0 0 565.49 513.8"><defs><style>.cls-1{fill:#f7bd3c;}.cls-2,.cls-5{fill:#fff;}.cls-3{fill:url(#linear-gradient);}.cls-4{stroke:#fff;stroke-width:3px;fill:url(#linear-gradient-2);}.cls-4,.cls-7{stroke-miterlimit:10;}.cls-5,.cls-6{isolation:isolate;}.cls-5{font-size:33.99px;font-family:MarkPro-Bold, Mark Pro;font-weight:700;letter-spacing:-0.01em;}.cls-7{fill:none;stroke:#11e7c4;}.cls-8{fill:#009ff0;}.cls-9{fill:#006ec5;}.cls-10{fill:#ffca9b;}.cls-11{fill:#fdb080;}.cls-12{fill:#002b74;}.cls-13{fill:#001736;}.cls-14{fill:url(#linear-gradient-3);}.cls-15{fill:#25d9f8;}.cls-16{fill:#76e2f8;}.cls-17{fill:#ffd396;}.cls-18{fill:#ff9100;}.cls-19{fill:#7c8388;}.cls-20{fill:#575f64;}.cls-21{fill:#ff641a;}.cls-22{fill:#9bfcff;}.cls-23{fill:#f03800;}</style><linearGradient id="linear-gradient" x1="526.44" y1="968.68" x2="526.44" y2="501.41" gradientTransform="matrix(0.99, 0.11, -0.11, 0.99, 94.66, -379.09)" gradientUnits="userSpaceOnUse"><stop offset="0" stop-color="#5333ed"/><stop offset="1" stop-color="#00004d"/></linearGradient><linearGradient id="linear-gradient-2" x1="562.09" y1="968.66" x2="562.09" y2="501.4" gradientTransform="matrix(0.99, 0.11, -0.11, 0.99, 94.66, -379.09)" gradientUnits="userSpaceOnUse"><stop offset="0" stop-color="#5c30f1"/><stop offset="1" stop-color="#00004d"/></linearGradient><linearGradient id="linear-gradient-3" x1="680.94" y1="629.01" x2="680.94" y2="502.24" gradientTransform="translate(0 -305.26)" gradientUnits="userSpaceOnUse"><stop offset="0" stop-color="#ddeaf8" stop-opacity="0"/><stop offset="1" stop-color="#11e7c4"/></linearGradient></defs><title>wordmark2</title><path class="cls-1" d="M227.44,394.65c-18.2-53-8.4-111.1,1.5-166.3,38.2,21.8,76.7,43.9,110.2,72.6s53.8,58.5,65.7,100.8c15.8,56-18,101.6-18,101.6C297.84,513.25,246.54,450.45,227.44,394.65Z" transform="translate(-217.26 -131.85)"/><path class="cls-2" d="M372,476q-64.8-98.55-121.9-202c-1.2-2.2-4.3.1-3.1,2.3q57,103.35,121.9,202c1.3,2,4.4-.3,3.1-2.3Z" transform="translate(-217.26 -131.85)"/><path class="cls-2" d="M229.44,338.65a249.21,249.21,0,0,0,64.9,18.9c2.5.4,3.1-3.5.6-3.8a244.29,244.29,0,0,1-63.9-18.6c-2.3-1-3.9,2.5-1.6,3.5Z" transform="translate(-217.26 -131.85)"/><path class="cls-2" d="M306,372c4.5-21.1,7.3-42.5,13.8-63.2.7-2.4-2.8-4-3.5-1.6-6.6,21-9.5,42.6-14.1,64.1-.5,2.5,3.3,3.2,3.8.7Z" transform="translate(-217.26 -131.85)"/><path class="cls-2" d="M257.74,414.35c24.9,7.4,50.8,7.4,76.5,7.9,2.5,0,2.1-3.8-.4-3.9-25.4-.5-50.9-.6-75.5-7.8-2.4-.7-3,3.1-.6,3.8Z" transform="translate(-217.26 -131.85)"/><path class="cls-2" d="M346,436.65a136.18,136.18,0,0,0,11.5-74.2c-.3-2.5-4.2-2.1-3.9.4a131.75,131.75,0,0,1-11.2,72.2c-.9,2.3,2.6,3.9,3.6,1.6Z" transform="translate(-217.26 -131.85)"/><path class="cls-3" d="M569.14,500.15l127.2,42.6,35.8-31.7a104,104,0,0,0,26.4-119.2l-64.4-148A103.89,103.89,0,0,0,588.94,182l-160.6,15.5a103.77,103.77,0,0,0-91.4,80.9l-34.8,157.5a104,104,0,0,0,48.7,111.9l65.2,38.4,36.6-49.5A104.38,104.38,0,0,1,569.14,500.15Z" transform="translate(-217.26 -131.85)"/><path class="cls-4" d="M611.34,618.05l85-75.2-127.2-42.6a103.92,103.92,0,0,0-116.4,36.6L416,586.35l73.7,43.4A103.87,103.87,0,0,0,611.34,618.05Z" transform="translate(-217.26 -131.85)"/><text class="cls-5" transform="translate(168.23 170.23) rotate(-18.6)">A</text><rect class="cls-2" x="473.39" y="247.7" width="3.9" height="41.3"/><rect class="cls-2" x="469.89" y="274.8" width="10.9" height="3.9"/><rect class="cls-2" x="685.83" y="373.07" width="3.9" height="12.9" transform="translate(-100.45 787.16) rotate(-72.27)"/><rect class="cls-2" x="690.85" y="377.46" width="12.9" height="3.9" transform="translate(-299.69 98.57) rotate(-17.73)"/><rect class="cls-2" x="681.36" y="418.86" width="12.9" height="3.9" transform="translate(-312.75 97.65) rotate(-17.73)"/><rect class="cls-2" x="695.37" y="414.37" width="3.9" height="12.9" transform="translate(-133.16 824.97) rotate(-72.27)"/><g class="cls-6"><path class="cls-7" d="M587,402.46v16h-6.76V404.64c0-3.64-1.84-5.64-4.91-5.64-2.91,0-5.33,1.9-5.33,5.69V418.5h-6.79V404.64c0-3.64-1.82-5.64-4.91-5.64-2.91,0-5.33,1.9-5.33,5.69V418.5h-6.79V393.3h6.61v3a8.43,8.43,0,0,1,7.41-3.64,9.56,9.56,0,0,1,8.32,4.31c2-3.19,5.25-4.31,8.55-4.31C583,392.63,587,396.61,587,402.46Z" transform="translate(-217.26 -131.85)"/><path class="cls-7" d="M618.69,418.5h-6.63v-2.78a9.24,9.24,0,0,1-7.54,3.43c-6.94,0-12.2-5.69-12.2-13.26s5.26-13.26,12.2-13.26a9.21,9.21,0,0,1,7.54,3.46V393.3h6.63Zm-19.42-12.61c0,3.85,2.52,6.94,6.5,6.94s6.5-3,6.5-6.94-2.63-6.94-6.5-6.94S599.27,402,599.27,405.89Z" transform="translate(-217.26 -131.85)"/><path class="cls-7" d="M643,393.17l-1,6.74a10.91,10.91,0,0,0-4.11-.81c-3.15,0-5.3,1.93-5.3,5.67V418.5h-6.79V393.3h6.58v2.76c1.58-2.37,4-3.43,7.1-3.43A10.48,10.48,0,0,1,643,393.17Z" transform="translate(-217.26 -131.85)"/><path class="cls-7" d="M654.43,402.27h2.39l7.1-9h8.32l-9.93,11.86,10,13.34H664l-7.26-10.19h-2.29V418.5h-6.78V381.06h6.78Z" transform="translate(-217.26 -131.85)"/></g><g class="cls-6"><path class="cls-2" d="M444.43,411l5.41-17.68h7.1l-8.53,25.2h-7.75l-5.59-17-5.54,17h-7.7l-8.52-25.2h7.22l5.39,17.61,5.64-17.61h7.15Z" transform="translate(-217.26 -131.85)"/><path class="cls-2" d="M486.34,405.89c0,7.59-5.8,13.26-13.65,13.26s-13.6-5.67-13.6-13.26,5.77-13.26,13.6-13.26S486.34,398.3,486.34,405.89Zm-20.34,0a6.7,6.7,0,1,0,6.69-6.94A6.59,6.59,0,0,0,466,405.89Z" transform="translate(-217.26 -131.85)"/><path class="cls-2" d="M509.08,393.17l-1,6.74a10.91,10.91,0,0,0-4.11-.81c-3.15,0-5.3,1.93-5.3,5.67V418.5h-6.79V393.3h6.58v2.76c1.58-2.37,4-3.43,7.1-3.43A10.48,10.48,0,0,1,509.08,393.17Z" transform="translate(-217.26 -131.85)"/><path class="cls-2" d="M530.89,395.93V381.06h6.77V418.5H531v-2.78a9.22,9.22,0,0,1-7.54,3.43c-6.94,0-12.19-5.69-12.19-13.26s5.25-13.26,12.19-13.26A9.13,9.13,0,0,1,530.89,395.93Zm-12.66,10c0,3.85,2.52,6.94,6.5,6.94s6.5-3,6.5-6.94-2.62-6.94-6.5-6.94S518.23,402,518.23,405.89Z" transform="translate(-217.26 -131.85)"/></g><g class="cls-6"><path class="cls-2" d="M452.71,364.48c2.16.78,3.23,2.08,2.58,3.85a2.22,2.22,0,0,1-2.06,1.48,2.36,2.36,0,0,1,.79,2.64c-.65,1.78-2.23,2.2-4.46,1.39l-4-1.46,3.37-9.28Zm-3.91,4.71-.81,2.23,2.07.76c1,.37,1.75.37,2.07-.52s-.24-1.34-1.26-1.71Zm1.37-3.79-.78,2.17,1.89.69c.92.33,1.71.4,2-.5s-.33-1.34-1.25-1.67Z" transform="translate(-217.26 -131.85)"/></g><g class="cls-6"><path class="cls-2" d="M422.2,367.72l-2.54,1.55a4.45,4.45,0,0,0-3.84-2,4.85,4.85,0,1,0,3.87,7.67l2.41,1.73a7.74,7.74,0,1,1-6.26-12.24A7.2,7.2,0,0,1,422.2,367.72Z" transform="translate(-217.26 -131.85)"/></g><g class="cls-6"><path class="cls-2" d="M441.24,455.06c7.19-2,13.2,1.24,15.12,8.16S454.82,476,447.64,478l-9.47,2.64-6.4-23Zm-3.7,5.65,4,14.4,4.83-1.35c4.84-1.35,6.34-5,5.18-9.2s-4.35-6.55-9.19-5.2Z" transform="translate(-217.26 -131.85)"/></g><g class="cls-6"><path class="cls-2" d="M415.79,444.13l-5.7,5.19-6.95-7.63,5.65-5.15,1.27,1.39-4.13,3.77,1.54,1.69,3.94-3.59,1.27,1.39-3.94,3.6,1.6,1.75,4.17-3.81Z" transform="translate(-217.26 -131.85)"/></g><g class="cls-6"><path class="cls-2" d="M439.75,436.46l-1.13,1.11a2.57,2.57,0,1,0-1.93,4.39,2,2,0,0,0,2.24-1.74h-2V438.9h3.62a3.52,3.52,0,0,1,0,.45,3.82,3.82,0,0,1-3.85,4.07,4.09,4.09,0,1,1,3-7Z" transform="translate(-217.26 -131.85)"/></g><g class="cls-6"><path class="cls-2" d="M385.87,399.5l-4.41,5.62h4.41v1.56H379.2v-1.33l4.42-5.61h-4.41v-1.56h6.66Z" transform="translate(-217.26 -131.85)"/></g><g class="cls-6"><path class="cls-2" d="M374.6,445.39l5.75,5.75-2.91,2.91-5.76-5.77-14.44-3.21,3.41-3.42,9.86,2.53L368,434.32l3.32-3.32Z" transform="translate(-217.26 -131.85)"/></g><g class="cls-6"><path class="cls-2" d="M480.1,433.76,473,436.11l1.89,5.71-2.81.93-4.68-14.09,10.35-3.44.86,2.59-7.54,2.5,1.07,3.21,7.06-2.35Z" transform="translate(-217.26 -131.85)"/></g><g class="cls-6"><path class="cls-2" d="M379.81,369.35l-3.08,1.85-12.41-9.84,2.69-1.62,9.74,7.95-2.44-12.33,2.63-1.59Z" transform="translate(-217.26 -131.85)"/></g><g class="cls-6"><path class="cls-2" d="M468.16,354.63l-2.73-1.13,4.28-10.34-7.12,7.62-2.89-1.2.32-10.34-4.25,10.26L453,348.37l5.68-13.7,4,1.66-.27,10.72,7.38-7.77,4,1.66Z" transform="translate(-217.26 -131.85)"/></g><path class="cls-8" d="M445,171.35s-55.5,23.5-60.6,96.1l12.6-2.6s11.5-52.5,40.6-62.5l73.9-15.3s-20.7-18.2-43.6-16.9Z" transform="translate(-217.26 -131.85)"/><path class="cls-9" d="M404.14,232.25c12.9-22.4,22.2-34.6,34.2-37.9s24.1-4.7,28.2-12.3a79.37,79.37,0,0,0,4.9-12c21.5.6,40.1,16.9,40.1,16.9l-73.9,15.3c-29.1,10-40.6,62.5-40.6,62.5l-4,.8A90.19,90.19,0,0,1,404.14,232.25Z" transform="translate(-217.26 -131.85)"/><path class="cls-10" d="M431.84,168.75a3.72,3.72,0,0,1,2.3-.5h0a23.08,23.08,0,0,1,45.2-9.4h0a3.72,3.72,0,0,1,2.3-.5c2.2.3,3.7,2.7,3.3,5.3s-2.5,4.4-4.7,4.1a1.88,1.88,0,0,1-.8-.2,23.07,23.07,0,0,1-42,8.7,4.35,4.35,0,0,1-.7.6c-1.9,1.2-4.5.3-5.9-1.9S429.94,170,431.84,168.75Z" transform="translate(-217.26 -131.85)"/><path class="cls-11" d="M472.34,156.75a26.26,26.26,0,0,0-10.2-15.7,23.14,23.14,0,0,1,17.4,17.8h0a3.72,3.72,0,0,1,2.3-.5c2.2.3,3.7,2.7,3.3,5.3s-2.5,4.4-4.7,4.1a1.88,1.88,0,0,1-.8-.2,23.15,23.15,0,0,1-18,18.6,22.45,22.45,0,0,1-6.8.4A25.83,25.83,0,0,0,472.34,156.75Z" transform="translate(-217.26 -131.85)"/><path class="cls-12" d="M447.44,151.65s10.3,10.4,21.7,9.3l-3.8-6s10.5,1.3,13.1,7.6c0,0,1.5-3.6,3.3-4.1,0,0-4.5-33.7-35.4-22.6l1-4s-12,3.6-13.6,15.5c0,0-7.3,4.4-2,21.4,0,0,1.9-1.6,4.5,1C436.34,169.75,435.94,155.55,447.44,151.65Z" transform="translate(-217.26 -131.85)"/><path class="cls-10" d="M397,264.85s5,7.1,5,9.5-3.7,1.7-6.3-1.9a10.46,10.46,0,0,0-6.8,7.4c-1.7,6-3.1,10.5-5.1,7.4s-4.6-8.9.7-19.8Z" transform="translate(-217.26 -131.85)"/><path class="cls-10" d="M503.84,186.75s13.7-5.2,15.2-2.4,3.4,8.1.7,9.7-17.3,4.6-18.4,1.6S498.54,188.55,503.84,186.75Z" transform="translate(-217.26 -131.85)"/><path class="cls-13" d="M453.44,147.15c8-2.6,16.8-1.4,16.8-1.4-6.6-8.8-14.4-11-17.8-11.5,25.5-4.9,29.4,24.3,29.4,24.3-1.8.5-3.3,4.1-3.3,4.1-2.6-6.3-13.1-7.6-13.1-7.6l3.8,6C458.44,157.45,453.44,147.15,453.44,147.15Z" transform="translate(-217.26 -131.85)"/><path class="cls-14" d="M744.24,246.35a40.26,40.26,0,0,0-7.7.8,31.6,31.6,0,0,0-44.2-22.4,42.14,42.14,0,0,0-79.2,28.8,35.11,35.11,0,0,0,1,70.2h130a38.7,38.7,0,0,0,.1-77.4Z" transform="translate(-217.26 -131.85)"/><path class="cls-15" d="M557,531.85a2.61,2.61,0,0,1,1.7,3.1,2.48,2.48,0,0,1-3.1,1.9c-8.8-2.1-21.9-2.2-28.5,1.5a2.57,2.57,0,0,1-2.5-4.5c9-5,24.3-3.9,32.2-2C556.94,531.75,556.94,531.75,557,531.85Z" transform="translate(-217.26 -131.85)"/><path class="cls-16" d="M566.94,535.15c.1,0,.1.1.2.1,7.5,3.3,20.3,11.7,24.4,21.1a2.53,2.53,0,0,1-1.3,3.4,2.56,2.56,0,0,1-3.4-1.3c-3-6.9-13.5-14.8-21.7-18.5a2.56,2.56,0,0,1-1.3-3.4A2.45,2.45,0,0,1,566.94,535.15Z" transform="translate(-217.26 -131.85)"/><path class="cls-17" d="M528.24,561.55l29.7-22.9a2.6,2.6,0,0,1,2.4-.4,2.78,2.78,0,0,1,1.7,1.8l9.7,36.2a2.63,2.63,0,0,1-1.4,3,32.77,32.77,0,0,0-16.6,19l-2,5.8-24.6-8.3,2-5.8a33.38,33.38,0,0,0-1.6-25.2A2.5,2.5,0,0,1,528.24,561.55Z" transform="translate(-217.26 -131.85)"/><path class="cls-18" d="M528.24,561.55l29.7-22.9a2.6,2.6,0,0,1,2.4-.4l-20.9,61.6-12.3-4.2,2-5.8a33.38,33.38,0,0,0-1.6-25.2A2.4,2.4,0,0,1,528.24,561.55Z" transform="translate(-217.26 -131.85)"/><path class="cls-19" d="M548.74,564.55,557,540a2.59,2.59,0,1,1,4.9,1.7l-8.3,24.6a2.59,2.59,0,0,1-4.9-1.7Z" transform="translate(-217.26 -131.85)"/><path class="cls-20" d="M548.74,564.55,557,540a2.53,2.53,0,0,1,3.3-1.6l-10,29.6A2.67,2.67,0,0,1,548.74,564.55Z" transform="translate(-217.26 -131.85)"/><path class="cls-21" d="M522.24,602.25l29.6,10a2.53,2.53,0,0,0,3.3-1.6l1.7-4.9a2.53,2.53,0,0,0-1.6-3.3l-29.6-10a2.53,2.53,0,0,0-3.3,1.6l-1.7,4.9A2.53,2.53,0,0,0,522.24,602.25Z" transform="translate(-217.26 -131.85)"/><path class="cls-19" d="M547,577.65a7.81,7.81,0,1,0-4.9-9.9A7.79,7.79,0,0,0,547,577.65Z" transform="translate(-217.26 -131.85)"/><path class="cls-16" d="M524,531.45a7.81,7.81,0,1,1-9.9,4.9A7.79,7.79,0,0,1,524,531.45Z" transform="translate(-217.26 -131.85)"/><path class="cls-22" d="M593.34,555a7.81,7.81,0,1,1-9.9,4.9A7.79,7.79,0,0,1,593.34,555Z" transform="translate(-217.26 -131.85)"/><path class="cls-23" d="M520.64,599l1.7-4.9a2.53,2.53,0,0,1,3.3-1.6l14.8,5-3.3,9.9-14.8-5A2.64,2.64,0,0,1,520.64,599Z" transform="translate(-217.26 -131.85)"/><path class="cls-20" d="M552,563l-5,14.8a7.81,7.81,0,1,1,5-14.8Z" transform="translate(-217.26 -131.85)"/><path class="cls-22" d="M553.74,541.55l9.9,3.3a2.53,2.53,0,0,0,3.3-1.6l3.3-9.9a2.53,2.53,0,0,0-1.6-3.3l-9.9-3.3a2.53,2.53,0,0,0-3.3,1.6l-3.3,9.9A2.53,2.53,0,0,0,553.74,541.55Z" transform="translate(-217.26 -131.85)"/><path class="cls-16" d="M552.14,538.25l3.3-9.9a2.53,2.53,0,0,1,3.3-1.6l4.9,1.7-5,14.8-4.9-1.7A2.53,2.53,0,0,1,552.14,538.25Z" transform="translate(-217.26 -131.85)"/></svg>